<svg version="1.1" xmlns="http://www.w3.org/2000/svg" x="0" y="0" viewBox="0 0 520 383" width="520" height="383" style="enable-background:new 0 0 520.2 383.2" xml:space="preserve"><style>.st0{fill:#fff;stroke:#fff;stroke-width:.25;stroke-miterlimit:9.9998}</style><path class="st0" d="M499.2 8.9c-.3.1-.5.1-.8 0-.9 1.3-1.8 2.5-2.8 3.7l.8.3c.3.1.5.5.2.6-.2.1-.4.1-.6.2v15c0 .2 0 .4-.2.5-.4.3-.9.5-1.5.5-.2 0-.4-.2-.4-.5V14.6c-1 1.1-2.1 2.2-3.2 3.2-.2.2-.4.2-.6.1-.1-.1-.1-.3.1-.5 2.4-3.1 4.4-6.4 6-9.9.1-.2.3-.4.5-.3.1 0 .1 0 .1.1l2.1 1c.5.2.6.5.3.6zm-.2-6.5c-.2 0-.5 0-.7-.1-2.2 2.5-4.6 4.7-7.3 6.7-.3.2-.5.2-.6 0-.1-.2-.1-.3.2-.5 2.2-2.3 4.1-4.9 5.7-7.6.1-.2.3-.3.6-.2h.1l2 1.1c.2.1.3.5 0 .6zM511.5 23c-2.8.9-6.6 2.1-11.8 3.6-.1.2-.2.3-.4.5-.2.1-.4.1-.6-.1l-.1-.1-.9-1.7c-.2-.3-.1-.6.3-.6 1.3-.2 3.1-.4 5.2-.8v-5h-4.3c-.2 0-.5-.2-.5-.4-.1-.2 0-.4.2-.5H503.2v-4c0-.2.1-.4.3-.5h.2l1.8.2c.4 0 .6.3.3.5-.2.1-.4.2-.6.2v3.6h2.1l1.1-1.4c.1-.2.4-.3.6-.1 0 0 .1 0 .1.1.5.4 1.2 1 1.9 1.6.2.2.3.5.1.6-.2.1-.4.2-.6.2h-5.3v4.6c1.9-.3 4-.6 6.1-1 .3 0 .5 0 .5.2s0 .2-.3.3zm-8.2-21.4c0-.2.2-.4.4-.4h.1l2 .2c.4 0 .6.3.3.6-.2.2-.5.3-.8.3v3.5h1.6l1.1-1.4c.1-.2.4-.3.6-.1h.1c.5.4 1.2 1 1.9 1.6.2.2.3.5.1.6-.2.1-.4.2-.6.2h-4.7v5h2.2l1.2-1.4c.1-.2.4-.3.6-.1.5.4 1.2 1 1.9 1.6.2.2.3.5.1.6-.2.1-.4.2-.6.2h-12c-.3 0-.5-.2-.5-.4-.1-.3.1-.5.4-.5h4.7v-5h-4c-.3 0-.5-.2-.6-.4-.1-.2 0-.4.2-.5h4.3V1.6zm14.6 7.2c.5.4 1.3 1.1 2 1.7.2.2.3.5.1.6-.2.1-.4.2-.6.2h-2.9v15.1c0 1.6-.4 2.8-2.9 3.1-.4.1-.5-.1-.6-.4-.1-.4-.3-.8-.6-1.1-.8-.5-1.6-.7-2.5-.8-.3 0-.5-.2-.5-.3s.2-.2.5-.2c1 .1 3.2.2 3.8.2s.7-.2.7-.6v-15h-3.3c-.3 0-.5-.2-.6-.4-.1-.2 0-.4.2-.5h5.2l1.2-1.5c.2-.2.5-.3.8-.1zm-7-4.7c-.1-.2 0-.4.2-.5h4.5l1.2-1.4c.1-.2.4-.3.6-.1h.1c.5.4 1.3 1.1 2 1.7.2.2.3.4.1.6-.2.1-.4.2-.6.2h-7.6c-.2 0-.5-.2-.5-.5 0 .1 0 .1 0 0zM504.9 65.8c-4 0-6.6-1.7-6.6-3.9 0-2 1.9-4.4 6.3-6.5-.3-1.7-1.2-2.8-2.5-2.8s-3 1-5 3.4c-.3.4-.8.7-1.3.8-.5 0-1-.4-1-.9v-.1c0-.5.3-.9.7-1.2 3.4-2.8 5.8-5.5 6.6-7.8-.6.2-1.3.3-2 .3-.6 0-1.1-.1-1.6-.4-.6-.3-.9-.8-1-1.5 0-.4.3-.7.6-.7h.1c.2 0 .4.1.6.2.6.4 1.3.5 2 .5.6 0 1.2-.1 1.8-.3 0-.6-.2-1.2-.6-1.7-.2-.2-.3-.4-.4-.7 0-.3.3-.6.6-.6h.1c.5 0 .9.2 1.2.6.6.1 1.3.2 2 .3.4.1.6.3.6.6s-.1.6-.3.9c-.5.8-1.2 1.5-2.1 1.9-.7 2.1-1.8 4-3.1 5.7 0 .1-.1.1-.1.2s.1.1.3 0c.6-.3 1.2-.4 1.8-.4 1.1 0 2.1.5 2.7 1.3 2.8-3.5 5.6-4.8 7.4-4.8 1.2 0 2 .6 2 1.5 0 1.5-2.2 4-8 6.1l-.1.1c.1.6.2 1.2.2 1.7 0 .7-.1 1.3-.2 2-.2 1-.9 1.4-1.4 1.4-.5 0-.9-.5-.9-1 0-.2 0-.5.1-.7.3-.9.4-1.8.5-2.7-3.3 1.6-5.1 3.7-5.1 5.3 0 1.3 1.2 2.2 3.7 2.2 1.8 0 3.6-.3 5.3-.9.3-.1.6-.1.9-.1 1 0 1.8.5 1.8 1 0 .4-.4.7-1.3 1-1.9.4-3.6.7-5.3.7zm-.1-22.1c.1-.1.1-.2.1-.3 0-.1-.1-.1-.3-.2-.3-.1-.5-.1-.8-.2.1.4.2.7.2 1.1.3-.1.6-.3.8-.4zm7.8 6.3c0-.4-.3-.5-.8-.5-1.3 0-3.8 1.3-6 4.3.1.3.3.5.4.8 4.7-2.1 6.4-3.8 6.4-4.6zM494.8 103.5c-.5 0-.8-.4-.8-.8 0-.3.1-.6.3-.8 2.8-3.7 5-7.8 6.7-12.2-1.7.9-2.9 2-4.4 2-.3 0-.6 0-.8-.1-1-.3-1.4-.8-1.4-1.2s.6-.7 1.6-.6h.5c1.5-.1 3.1-.4 4.4-1.1l.6-.3c.3-1.1.5-2.2.6-3.3 0-.7-.1-1.3-.4-1.9-.2-.3-.3-.6-.3-.9 0-.3.2-.6.4-.6h.1c.4 0 .8.3 1.1.6.4.6.6 1.3.6 2-.1 1.2-.3 2.3-.7 3.5.7-.2 1.5-.4 2.2-.4 2.9 0 4.3 2.3 4.3 5.4-.1 3.3-1.4 6.4-3.5 8.9-.3.5-.8.8-1.4.8-.6 0-1.1-.3-1.5-.8-.5-.6-1.2-1.2-2-1.6-.5-.2-.7-.5-.7-.7 0-.2.1-.3.4-.3.2 0 .4 0 .5.1.8.4 1.6.6 2.5.7.4 0 .8-.2 1-.5 1.8-2 2.8-4.5 2.9-7.2 0-2-.9-3.6-3-3.6-.8 0-1.5.2-2.3.5-1.8 4.8-4 9.4-6.7 13.7-.1.4-.4.6-.8.7zM512 95c-.3 0-.5-.2-.5-.5 0-.2.2-.4.7-.4 1.9-.1 2.9-.6 2.9-1.6s-.7-2.3-2.2-4.1c-.2-.2-.3-.4-.3-.6 0-.2.1-.3.3-.3.3 0 .5.1.7.3 2.1 1.2 3.4 3.4 3.7 5.7v.4c0 1.1-.6 1.6-1.8 1.6-1.2 0-2.4-.2-3.5-.5zM506.6 138.3c-.4 2.6-2.9 3.8-5.3 3.8S497 141 497 139c0-2.2 2.3-3.1 5.2-3.1.9 0 1.8.1 2.8.3 0-1.8.1-3.5.1-5-2.4.1-4.7-.3-6.9-1.3-.5-.2-.6-.5-.6-.7 0-.2.2-.3.5-.3.2 0 .3 0 .5.1 1.6.5 3.3.8 5 .8.5 0 1.1 0 1.7-.1 0-1.4.1-2.7 0-3.8-1.1.2-2.3.3-3.4.3-1.7.1-3.5-.4-4.9-1.4-.3-.2-.5-.5-.6-.8 0-.2.2-.3.3-.3.2 0 .5.1.7.2 1.4.7 2.9 1 4.4 1 1.1 0 2.3-.1 3.4-.4-.1-2-.4-3.4-1.1-4.1-.2-.2-.4-.6-.4-.9 0-.3.2-.5.4-.5h.1c.5 0 .9.2 1.4.5 1.1.6 1.4 1.4 1.4 3.2 0 .4 0 .9-.1 1.4 1.3-.4 2.6-.8 3.8-1.3.3-.1.6-.2.9-.2.9 0 1.7.6 1.7 1.1 0 .3-.3.6-.8.8-2.1.6-3.9 1-5.4 1.3 1.2 1.4 2.8 2.2 4.6 2.5.6 0 1.1.4 1.1.8s-.3.8-1 1c-1.6.6-3.3 1.1-5.1 1.2V136.7c1.4.4 2.7 1.1 3.8 2 .6.4 1 1.1 1.1 1.9 0 .4-.3.8-.7.9h-.1c-.4 0-.7-.2-.9-.5-1.1-1.2-2.1-2-3.3-2.7zm-5.6 2.4c1.8 0 3.8-1 3.9-3.1-1.1-.4-2.2-.6-3.4-.6-1.9 0-3.3.7-3.3 1.8s1.3 1.9 2.8 1.9zm8.2-11.7c.3-.1.4-.1.4-.3 0-.2-.1-.3-.4-.4-1-.5-1.9-1.2-2.6-2 0 .9-.1 2-.1 3.1.9-.1 1.8-.2 2.7-.4zM504.2 181c-3.4 0-5.9-2.1-5.9-6.5 0-.4 0-.7.1-1.1.7-7.2 1.3-10.3 1.3-12.1 0-.6-.1-1.3-.5-1.8-.2-.2-.3-.4-.3-.7 0-.2.2-.5.4-.5h.1c.2 0 .4.1.6.2 1.1.5 1.8 1.7 1.7 2.9 0 2.1-1 5.5-1.6 11.8v.8c0 3.4 2 5 4.8 5s6.5-1.7 10.2-5.1c.1-.2.4-.3.6-.3.1 0 .2.1.2.2 0 .2-.1.4-.2.5-3.7 4.5-8 6.7-11.5 6.7zM512 192.8c3.5 1.2 5.3 2.7 6.4 4.1.5.6.7 1.3.7 2.1.1.7-.4 1.4-1.1 1.5h-.2c-.7 0-1.1-.4-1.5-1.3-1-2.3-2.7-4.2-4.7-5.7-.3-.2-.3-.4-.2-.6.2-.2.4-.2.6-.1zM446.1 11.6c.7-.1 1.5-.2 2.5-.3V3.7c0-.2.1-.4.4-.5h.2l1.9.2c.4 0 .6.3.3.6-.2.2-.5.3-.7.3v6.8l2.8-.4V.9c0-.2.1-.4.4-.5h.2l2.1.2c.3 0 .6.3.3.6-.3.2-.6.4-.9.4v3.8h1.8l1.1-1.4c.1-.2.3-.3.5-.2.1 0 .1.1.1.1.5.4 1.2 1.1 1.8 1.7.2.2.3.5.1.6-.2.1-.4.2-.6.2h-4.9v4l4.9-.7c.3 0 .5 0 .5.2s-.1.3-.4.4c-3.1.9-7.3 2-12.9 3.3-.1.2-.2.3-.3.5-.2.2-.5.1-.6-.2l-.7-1.5c-.3-.4-.2-.7.1-.8zm.8 17.1c2.7-1.4 5.1-3.2 7.3-5.4.2-.2.4-.3.7-.1l1.8 1.1c.3.2.4.6 0 .6-.2 0-.5-.1-.7-.1-2.7 1.9-5.6 3.4-8.8 4.4-.3.1-.5.1-.5-.1-.2-.2-.1-.3.2-.4zM465.8 17c8.7 1.9 8.6 6.5 6.3 6-.2-.1-.4-.2-.5-.4-.6-.8-1.2-1.5-2-2.2-2.4.2-5.2.5-8.4.7V29c-.5.4-1.1.6-1.8.6-.2 0-.4-.2-.4-.5v-7.9c-3.2.2-6.7.5-10.8.7-.1.2-.3.3-.4.5-.2.2-.5 0-.6-.3l-.7-1.6c-.1-.4 0-.6.4-.6 2 0 5.1 0 8.8-.1 2.8-1.9 5.5-4 7.8-6.5.1-.2.4-.3.7-.2l1.9.8c.3.2.4.5.1.6h-.7c-2.5 2-5.2 3.7-8.1 5.2l11.4-.3c-1-.8-2.1-1.5-3.2-2.2-.3-.2-.4-.3-.3-.4.1.2.2.2.5.2zm-5.3-4.1h-.7c-1.3 1.1-2.8 2.1-4.3 2.9 1.9 1.4 1.4 3.2.1 2.9-.2 0-.4-.2-.5-.4-1.2-1.5-2.6-2.7-4.3-3.5-.3-.2-.4-.3-.3-.5s.3-.2.5-.1c1.3.1 2.6.5 3.8 1.1 1.1-1.2 2.2-2.4 3.1-3.7.1-.2.4-.3.7-.2l1.9.9c.2.2.4.5 0 .6zm13.8-1.6c0 1-1 1.3-5.9 1.3H465c-2.5 0-3-.5-3-2V.9c0-.2.1-.4.4-.5h.2l1.9.2c.4 0 .6.3.3.6-.2.2-.4.2-.7.3v4.7c2.2-.9 4.2-2.1 6.1-3.5.2-.2.5-.2.7 0l1.7 1.3c.3.2.3.6 0 .6s-.7 0-1-.1c-2.4 1.1-4.9 2-7.4 2.6v3.1c0 .5.1.6 1.3.6h3.1c1.4 0 2.5 0 3-.1.3 0 .5-.1.6-.3.3-.9.6-1.8.8-2.8.1-.3.2-.5.3-.5.1 0 .2.2.2.5l.1 2.8c.6.3.7.5.7.9zm-10.1 12c8.7 1.5 8.8 6.1 6.6 5.7-.2-.1-.4-.2-.5-.4-1.8-2-3.9-3.6-6.3-4.7-.3-.2-.4-.3-.3-.5 0-.1.2-.1.5-.1zM446 46.3c5.8 1 4.9 4.9 2.9 4.2-.2-.1-.4-.3-.4-.5-.6-1.2-1.6-2.3-2.7-3.1-.3-.2-.4-.4-.3-.5.1-.1.3-.1.5-.1zm8.4-1.2c-1.3 4-3.8 11-4.2 12.4-.3.9-.4 1.8-.5 2.8 0 1.4.9 2.9.8 5.6-.1 1.4-.7 2.2-1.8 2.2-.5 0-.8-.5-1-1.3v-.6c.4-3.2.2-5.6-.5-6-.3-.2-.7-.4-1.1-.4-.3-.1-.5-.2-.5-.4s.2-.4.5-.4h.9c.4 0 .5 0 .8-.6.5-1.2.5-1.2 5.8-13.5.1-.3.3-.4.5-.4.4.1.4.3.3.6zm-6.2-5.9c6.1 1.2 5.3 5.2 3.2 4.4-.2-.1-.3-.2-.4-.4-.8-1.3-1.8-2.5-3-3.5-.3-.2-.4-.4-.3-.5s.3-.1.5 0zm24.1 13.4c-.3.1-.6.1-.9.1-1.1 3.2-2.8 6.2-5.1 8.6 2.5 2 5.4 3.6 8.6 4.5.3.1.4.2.4.3 0 .1-.2.2-.5.2-.7.2-1.2.7-1.5 1.3-.2.3-.4.4-.6.3-2.9-1.1-5.6-2.9-7.7-5.2-3 2.5-6.5 4.4-10.4 5.4-.3.1-.5.1-.5-.1-.1-.2 0-.3.4-.5 3.6-1.3 6.8-3.3 9.5-6-2-2.7-3.4-5.7-4.2-9h-2c-.2 4.9-1 11-5.1 15.5-.2.2-.4.3-.6.2-.2-.1-.2-.3 0-.6 3.3-5.2 3.7-11.5 3.7-17.1v-6.7c0-.4.2-.6.5-.4l1.9.8h4.9v-4.6c0-.2.1-.4.3-.5h.2l2.2.2c.3 0 .5.3.3.6-.3.2-.6.4-1 .4v3.9h5.6l1-1c.2-.2.4-.2.6 0l1.8 1.7c.3.2.3.6-.1.6-.2 0-.5.1-.7.1-.8.9-2 2.5-3 3.5-.2.2-.4.3-.5.2-.1-.1-.2-.3-.1-.5.3-1 .7-2.5 1-3.6H465v6.4h3.9l1.1-1c.2-.2.5-.2.7 0l1.6 1.5c.3.1.3.4 0 .5zm-9.2-1.2V45h-5.3v6.4h5.3zm2 8.7c1.8-2.3 3.2-4.9 4-7.8h-8.7c.9 3 2.5 5.7 4.7 7.8zM459.8 104.2c-4 0-6.6-1.7-6.6-3.9 0-2 1.9-4.4 6.3-6.5-.3-1.7-1.2-2.8-2.5-2.8s-3 1-5 3.4c-.3.4-.8.7-1.3.7s-1-.4-1-.9v-.1c0-.5.3-.9.7-1.2 3.4-2.8 5.8-5.5 6.6-7.8-.6.2-1.3.3-2 .3-.6 0-1.1-.1-1.6-.4-.6-.3-.9-.8-1-1.5 0-.4.3-.7.6-.7h.1c.2 0 .4.1.6.2.6.4 1.3.5 2 .5.6 0 1.2-.1 1.8-.3 0-.6-.2-1.2-.6-1.7-.2-.2-.3-.4-.4-.7 0-.3.3-.6.6-.6h.1c.5 0 .9.2 1.2.6.6.1 1.3.2 2 .3.4.1.6.3.6.6s-.1.6-.2 1c-.5.8-1.2 1.5-2.1 1.9-.7 2.1-1.8 4-3.1 5.7 0 .1-.1.1-.1.2s.1.1.3 0c.6-.3 1.2-.4 1.8-.4 1.1 0 2.1.5 2.7 1.3 2.8-3.5 5.6-4.8 7.4-4.8 1.2 0 2 .6 2 1.5 0 1.5-2.2 4-8 6.1l-.1.1c.1.6.2 1.2.2 1.7 0 .7-.1 1.3-.2 2-.2 1-.9 1.4-1.4 1.4-.5 0-.9-.5-.9-1 0-.2 0-.5.1-.7.3-.9.4-1.8.5-2.7-3.3 1.6-5.1 3.7-5.1 5.3 0 1.3 1.2 2.2 3.7 2.2 1.8 0 3.6-.3 5.3-.9.3-.1.6-.1.9-.1 1 0 1.8.5 1.8 1 0 .4-.4.7-1.3 1-1.9.5-3.6.7-5.4.7zm-.1-22.1c.1-.1.1-.2.1-.3 0-.1-.1-.1-.3-.2-.3-.1-.5-.1-.8-.2.1.4.2.7.2 1.1.4-.1.6-.2.8-.4zm7.9 6.4c0-.4-.3-.5-.8-.5-1.3 0-3.8 1.3-6 4.3.1.3.3.5.4.8 4.7-2.1 6.4-3.8 6.4-4.6zM460.1 142.8c-.2 0-.3-.1-.3-.2s.2-.3.5-.4c6.7-2.8 9.3-6.7 9.3-9.9s-2.6-5.7-5.8-5.7h-.3c-2.2 0-4.9 1-7.6 3.3-.1 2-.1 4.2-.1 6.9 0 1.4.1 2.9.1 4.5 0 1.2-.5 1.9-1.2 1.9-.6 0-1.1-.6-1.5-2-.5-1.9-1.1-3.8-2-5.6-.6.8-1.1 1.7-1.6 2.7-.6 1.2-1.3 1.6-1.8 1.6s-.6-.3-.6-.8c0-.6.3-1.2.6-1.7.9-1.3 1.7-2.4 2.6-3.5-.6-1.2-1-2-1.3-2.5-.2-.4-.3-.8-.4-1.2 0-.7.4-1.3 1-1.6 1.4-1.1 3-1.9 4.6-2.5 0-2.8-.3-4.3-1.3-5.3-.3-.3-.5-.7-.6-1.1 0-.3.2-.5.6-.5.9.1 1.6.6 2.2 1.3.6.7.8 2 .8 4.2v1.2c.4.1.6.4.6.8-.1.6-.3 1.1-.6 1.6 3-2.2 5.7-3.2 8-3.2 3.9-.1 7.1 2.9 7.3 6.7v.5c0 4-3.1 8.6-11 10.5h-.2zm-5.7-13.1.1-1.6c-.5 0-1.6.4-3.7 1.5-.6.3-.9 1-.6 1.6 0 0 0 .1.1.1.2.3.5.9 1 1.8.9-1.2 2-2.3 3.1-3.4zm-.4 8.7c.1 0 .2-.1.2-.4 0-2.6.1-4.7.2-6.6-.8.9-1.6 1.9-2.4 3.1.5 1 1.1 2.2 1.8 3.7 0 .1.1.2.2.2zM449.7 180.3c-.5 0-.8-.4-.8-.8 0-.3.1-.6.3-.8 2.8-3.7 5-7.8 6.7-12.1-1.7.9-2.9 2-4.4 2-.3 0-.6 0-.8-.1-1-.3-1.4-.8-1.4-1.2 0-.4.6-.7 1.6-.6h.5c1.5-.1 3.1-.5 4.4-1.2l.6-.3c.3-1.1.5-2.2.6-3.3 0-.7-.1-1.3-.4-1.9-.2-.3-.3-.6-.3-.9 0-.3.2-.6.4-.6h.1c.4 0 .8.3 1.1.6.4.6.6 1.3.6 2-.1 1.2-.3 2.4-.6 3.5.7-.2 1.5-.4 2.2-.4 2.9 0 4.3 2.3 4.3 5.4-.1 3.3-1.4 6.4-3.5 8.9-.3.5-.8.8-1.4.8-.6 0-1.1-.3-1.5-.8-.5-.6-1.2-1.2-2-1.6-.5-.2-.7-.5-.7-.7 0-.2.1-.3.4-.3.2 0 .4 0 .5.1.8.4 1.6.6 2.5.7.4 0 .8-.2 1-.5 1.8-2 2.8-4.5 2.9-7.2 0-2.1-.9-3.6-3-3.6-.8 0-1.5.2-2.3.5-1.8 4.8-4 9.4-6.7 13.7-.1.4-.4.7-.9.7zm17.3-8.4c-.3 0-.5-.2-.5-.5 0-.2.2-.4.7-.4 1.9-.1 2.9-.6 2.9-1.6 0-1.1-.7-2.3-2.2-4.1-.2-.2-.3-.4-.3-.6 0-.2.1-.3.3-.3.3 0 .5.1.7.3 2.1 1.2 3.4 3.4 3.7 5.7v.4c0 1.1-.6 1.6-1.8 1.6-1.2-.1-2.4-.2-3.5-.5zM457.2 219.9c-.3 0-.4-.2-.4-.3s.2-.4.5-.5c3.2-1.3 4-4 4-6.7-.5.5-1.2.8-1.9.8-1.5 0-3-1.4-3.2-4.6v-.5c0-2.5 1.6-3.8 3.3-3.8.6 0 1.2.2 1.7.5v-2.9c-4.9.3-8 1.4-10.1 1.4-.4 0-.9-.1-1.3-.2-1.2-.4-1.7-1.1-1.7-1.5 0-.4.3-.7.7-.6h.1c.2 0 .5.1.7.2.8.3 1.7.5 2.6.4 2.3 0 5.3-.6 8.9-1.1 0-1.3-.3-2.6-.8-3.7-.2-.4-.4-.8-.4-1.3 0-.3.2-.5.4-.5h.1c.4.1.8.2 1.2.4.5.3.8.7 1 1.2 2.7 2 5.8 3.6 9.1 4.5.7.2 1.1.6 1.1.9 0 .3-.3.6-.9.6h-.4c-2.6-.5-5.3-.8-7.9-.8h-1v1.3c0 .9 0 2 .1 3.2.3.6.4 1.3.5 2 0 .5.1 1.1.1 1.7 0 3.6-.8 8.5-5.5 9.7-.3.2-.4.2-.6.2zm3.9-11.5c-.1-1.8-1.1-2.6-2-2.6-.9 0-1.8.9-1.8 2.6 0 2.2.9 3.2 1.9 3.2 1 0 1.9-1 2-2.7l-.1-.5zm5.7-7.8c.1 0 .2-.1.2-.2s-2.6-1.5-4.4-2.6l-.1 2.6c1.4 0 2.8 0 4.3.2zM465.8 236c0-2.4 2-4.4 4.4-4.4 2.4 0 4.4 2 4.4 4.4 0 2.4-2 4.4-4.4 4.4-2.4 0-4.4-1.9-4.4-4.4zm1.1 0c-.1 1.8 1.3 3.4 3.1 3.5 1.8.1 3.4-1.3 3.5-3.1v-.4c.1-1.8-1.3-3.4-3.1-3.5-1.8-.1-3.4 1.3-3.5 3.1v.4zM395.9 8c.4.3 1.1.9 1.7 1.4.2.2.3.4.1.5-.1.1-.3.1-.5.1h-12.8c-.6 1.4-1.5 2.7-2.4 3.9l.5.2H393l.7-.8c.1-.1.3-.2.5 0l1.4 1.1c.2.2.3.4 0 .5-.2.1-.5.2-.7.3v6.9c0 .2 0 .3-.2.4-.4.2-.8.3-1.3.4-.2 0-.3-.2-.3-.4V21h-11v1.4c-.3.4-.8.6-1.4.6-.2 0-.3-.2-.3-.4v-7c-1.6 1.6-3.4 3.1-5.3 4.2-.2.1-.4.1-.4 0-.1-.1 0-.2.2-.4 3.2-2.4 5.7-5.7 7.2-9.4h-6.8c-.2 0-.4-.1-.4-.3-.1-.2.1-.4.3-.4h19l1-1.2c.3-.2.5-.2.7-.1 0-.1 0 0 0 0zm-17.6-.2c-.2 0-.3-.2-.3-.4v-6c0-.3.2-.4.4-.4l1.7.2c.3 0 .5.3.3.5s-.5.3-.7.3v3.5h5.9v-5c0-.3.2-.4.4-.4l1.7.2c.3 0 .5.3.3.5s-.4.2-.7.3v4.4h6v-4c0-.3.2-.4.4-.4l1.7.2c.3 0 .5.3.3.5s-.4.3-.7.3v5.1c0 .2-.7.5-1.3.5-.2 0-.3-.2-.3-.4v-1h-13.6v1.1c-.2.1-.8.4-1.5.4zm3.9 12.5h11v-5.5h-11v5.5zM396 42.2c.4.3 1.2.9 1.8 1.5.2.2.3.4.1.5-.1.1-.3.1-.5.1h-10.1v6.1c0 1.3-.4 2.3-2.7 2.6-.3 0-.4-.1-.5-.3-.1-.4-.3-.7-.7-.9-.8-.4-1.6-.6-2.5-.7-.2 0-.4-.1-.4-.3 0-.1.2-.2.4-.2.9.1 3.2.3 3.8.3.6 0 .7-.2.7-.7v-6H375c-.2 0-.4-.1-.4-.3-.1-.2.1-.4.3-.4h10.5v-5h-8.8c-.2 0-.4-.1-.4-.3-.1-.2 0-.3.2-.4h9.1v-4.6c-2.9.3-6 .6-9 .7-.2 0-.4-.1-.4-.3 0-.2.1-.3.4-.3 5.7-.5 11.2-1.5 16.7-3.2.2-.1.4 0 .5.1l1.4 1.3c.2.2.2.5-.1.5-.3 0-.6-.1-.9-.2-1.9.5-4.2.9-6.7 1.2v5h5.7l1-1.3c.1-.2.3-.3.4-.2.1 0 .1.1.2.1l1.7 1.4c.2.2.3.4.1.5-.1.1-.3.1-.5.1h-8.6v4.9h7.1l1.1-1.3c.1-.1.3-.1.4 0zM375.4 81.9c2.2-1.5 4.2-3.3 5.8-5.4.1-.2.3-.2.5-.2h.1l1.5.9c.2.1.3.4.1.5-.2 0-.4 0-.6-.1-2 2-4.4 3.6-7 4.7-.2.1-.4.1-.4 0s-.2-.2 0-.4zm20.4-8.6c.4.3 1.2.9 1.7 1.4.2.2.3.4.1.5-.2.1-.3.1-.5.1h-9.9v7.3c0 .1-.6.5-1.4.5-.2 0-.3-.2-.3-.4v-7.4h-7.2v.9c0 .2-.7.6-1.3.6-.2 0-.3-.2-.3-.4V62.8c0-.3.2-.4.4-.4l1.7.2c.3 0 .4.2.3.4-.2.2-.5.3-.7.3v11.3h15.8l1-1.3c.1-.2.3-.2.4-.2.2.1.2.1.2.2zm-13.7.1c-.2 0-.3-.2-.3-.4V61c0-.2.1-.3.3-.3h.2l1.3.6h8.4l.7-.8c.1-.1.3-.2.5 0l1.4 1.1c.2.2.3.4 0 .5-.2.1-.5.2-.7.3v10.2c-.4.4-.9.6-1.4.6-.2 0-.3-.2-.3-.4v-1h-8.8v1c0 .2-.7.6-1.3.6zm1.3-8.9h8.8V62h-8.8v2.5zm8.8.8h-8.8v2.5h8.8v-2.5zm0 3.2h-8.8V71h8.8v-2.5zm-2.2 8c7.9 2.2 7.8 6.2 5.8 5.6-.2 0-.3-.1-.4-.3-1.6-2-3.5-3.7-5.7-5-.2-.1-.3-.3-.2-.4.2 0 .3 0 .5.1zM375.4 99c.6 0 1.2-.1 2-.3v-6c0-.3.2-.4.4-.4l1.5.2c.3 0 .5.3.2.5-.2.1-.4.2-.6.2v5.3l2.2-.3v-7.6c0-.3.2-.4.4-.4l1.6.2c.3 0 .5.3.3.5s-.5.3-.7.3v3h1.4l.9-1.1c.1-.1.3-.2.4-.1l.1.1c.4.3.9.8 1.4 1.3.2.2.3.4.1.5-.1.1-.3.2-.5.2h-3.8v3.2l3.9-.6c.2 0 .4 0 .4.1s-.1.2-.3.3c-2.5.7-5.7 1.5-10.1 2.6-.1.1-.1.3-.3.4-.2.2-.4 0-.5-.2l-.6-1.2c-.2-.5-.1-.7.2-.7zm.6 13.2c2.1-1.1 4-2.5 5.7-4.2.1-.2.3-.2.5-.1l1.4.9c.2.2.3.5 0 .5-.2 0-.4 0-.6-.1-2.1 1.5-4.4 2.7-6.8 3.4-.2.1-.4 0-.4-.1s-.1-.2.2-.3zm14.7-9c6.8 1.5 6.7 5.1 4.9 4.7-.2 0-.3-.1-.4-.3-.4-.6-.9-1.2-1.5-1.7-1.9.2-4.1.4-6.6.6v6.2c-.4.3-.9.5-1.4.5-.2 0-.3-.2-.3-.4v-6.1c-2.5.2-5.3.4-8.4.6-.1.1-.2.3-.3.4-.2.1-.4 0-.5-.2l-.5-1.3c-.1-.3 0-.5.3-.5 1.6 0 4 0 6.8-.1 2.2-1.5 4.3-3.2 6.1-5.1.1-.2.3-.2.5-.1l1.5.6c.3.1.4.4.1.5h-.6c-2 1.6-4.1 2.9-6.3 4l8.9-.2c-.8-.6-1.6-1.2-2.5-1.7-.2-.1-.3-.2-.3-.3.2-.2.3-.2.5-.1zm-4.1-3.2h-.6c-1 .9-2.2 1.7-3.4 2.3 1.5 1.1 1.1 2.5.1 2.3-.2 0-.3-.1-.4-.3-.9-1.1-2.1-2.1-3.4-2.8-.2-.1-.3-.3-.3-.4s.2-.1.4-.1c1 .1 2 .4 2.9.9.9-.9 1.7-1.9 2.4-2.9.1-.2.3-.2.5-.2l1.5.7c.5.1.6.4.3.5zm10.8-1.3c0 .8-.8 1-4.6 1h-2.7c-1.9 0-2.3-.4-2.3-1.6v-7.6c0-.3.2-.4.4-.4l1.5.2c.3 0 .5.3.3.5-.2.1-.4.2-.6.2v3.7c1.7-.7 3.3-1.6 4.8-2.7.1-.1.4-.1.5 0l1.3 1c.2.2.3.5 0 .5s-.5 0-.8-.1c-1.9.9-3.8 1.5-5.8 2v2.4c0 .4.1.5 1 .5h4.8c.2 0 .4-.1.5-.3.3-.7.5-1.4.6-2.2 0-.3.2-.4.3-.4s.2.2.2.4l.1 2.2c.4.2.5.4.5.7zm-7.9 9.4c6.8 1.2 6.9 4.8 5.1 4.4-.2 0-.3-.1-.4-.3-1.4-1.5-3-2.8-4.9-3.7-.2-.1-.3-.3-.3-.4s.3-.1.5 0zM375.3 126c4.5.8 3.8 3.8 2.2 3.3-.2-.1-.3-.2-.3-.4-.5-1-1.2-1.8-2.1-2.5-.2-.2-.3-.3-.2-.4h.4zm6.6-1c-1.1 3.2-3 8.6-3.3 9.7-.2.7-.3 1.4-.4 2.2 0 1.1.7 2.3.6 4.4-.1 1-.5 1.7-1.4 1.7-.4 0-.7-.4-.8-1v-.5c.3-2.5.2-4.4-.4-4.7-.3-.2-.6-.3-.9-.3-.2-.1-.4-.2-.4-.3s.2-.3.4-.3h.7c.3 0 .4 0 .6-.5.4-.9.4-.9 4.5-10.5.1-.2.2-.3.4-.3.5 0 .5.2.4.4zm-4.9-4.6c4.8.9 4.1 4 2.5 3.5-.2-.1-.3-.2-.3-.4-.6-1-1.4-2-2.4-2.7-.2-.2-.3-.3-.2-.4h.4zm18.9 10.5c-.2.1-.4.1-.7.1-.8 2.5-2.2 4.8-4 6.8 2 1.6 4.2 2.8 6.7 3.5.2.1.4.1.3.2s-.1.1-.4.2c-.5.2-1 .5-1.2 1-.1.2-.3.3-.5.2-2.3-.9-4.3-2.2-6-4-2.3 2-5.1 3.4-8.1 4.2-.2.1-.4 0-.4-.1-.1-.1 0-.3.3-.4 2.8-1 5.3-2.6 7.4-4.7-1.6-2.1-2.7-4.5-3.3-7.1h-1.5c-.1 3.8-.8 8.6-4 12.1-.2.2-.3.2-.4.1-.1-.1-.1-.3 0-.5 2.6-4.1 2.9-9 2.9-13.4V124c0-.3.2-.4.4-.3l1.5.6h3.8v-3.6c0-.3.2-.4.4-.4l1.7.2c.3 0 .4.2.3.5-.2.2-.5.3-.8.3v3h4.4l.8-.8c.1-.1.3-.2.5 0l1.4 1.3c.2.2.2.4-.1.5h-.6c-.6.7-1.6 2-2.3 2.8-.2.2-.3.2-.4.2-.1-.1-.2-.2-.1-.4.2-.8.5-2 .8-2.8h-4.5v5h3.1l.8-.8c.2-.2.4-.2.6 0l1.2 1.2c.2.1.2.3 0 .4zm-7.3-.9v-5h-4.1v5h4.1zm1.6 6.8c1.4-1.8 2.5-3.9 3.2-6.1h-6.8c.7 2.3 1.9 4.4 3.6 6.1zM385.6 151.5l1.4 1c.2.2.2.4 0 .5-.2.1-.5.2-.8.3v15.5c0 .2 0 .3-.2.4-.3.2-.7.4-1.2.4-.1 0-.2-.2-.2-.4v-1.4h-7.2v2c0 .2-.6.6-1.3.6-.2 0-.3-.2-.3-.4v-18c0-.2.1-.3.2-.3s.2 0 .2.1l1.2.6h6.8l.7-.7c.3-.3.5-.3.7-.2-.1 0 0 0 0 0zm-8.1 8h2.8V153h-2.8v6.5zm2.7 7.5v-6.7h-2.8v6.8l2.8-.1zm1.5-7.5h2.9V153h-3l.1 6.5zm3 .8h-3v6.8h2.9l.1-6.8zm11.6-9c.4.3 1.1.9 1.7 1.5.2.2.2.4 0 .5-.1.1-.3.1-.5.1h-3.7v17c0 1.3-.3 2.2-2.3 2.5-.2.1-.4 0-.4-.2v-.1c-.1-.3-.3-.6-.5-.9-.6-.4-1.3-.6-2-.6-.2 0-.4-.1-.4-.3 0-.1.2-.2.4-.2.8.1 2.6.2 3 .2.5 0 .7-.2.7-.6v-16.9h-4.5c-.2 0-.4-.1-.4-.3-.1-.3.1-.4.3-.4h7.1l1-1.3h.5c0 .1 0 .1 0 0zM384.1 199.6c0-.1.1-.2.4-.2 4.2 0 9.1-1.9 9.1-6.9 0-4.4-3.2-6.4-6.6-6.4-.3 0-.7 0-1 .1v1.3c0 7.3-3 10.7-5.4 10.7-1.6 0-2.9-1.4-2.9-4.2 0-5.6 5.1-8.9 9.7-8.9 3.9 0 7.6 2.3 7.6 7.3s-3.9 7.6-8.8 7.6c-.6 0-1.2 0-1.8-.1-.2-.1-.3-.2-.3-.3zm-3.4-3.4c1.9 0 4.7-3.1 4.6-10-3.6.7-6.3 3.9-6.2 7.6 0 1.6.7 2.4 1.6 2.4zM377.4 211.3l1.7.2c.3 0 .5.3.3.5s-.4.3-.7.3v20c0 .3-.7.7-1.3.7-.2 0-.3-.2-.3-.4v-20.8c0-.2.1-.3.3-.4v-.1zm19.5 2c-.3.2-.7.3-1 .3v18.1c-.4.4-.9.6-1.4.6-.1 0-.2-.2-.2-.4v-1.7h-9.6v1.7c0 .2-.6.6-1.3.6-.2 0-.3-.2-.3-.4v-20c0-.2.1-.3.2-.3s.2 0 .2.1l1.3.6h9.1l.8-.9c.1-.2.4-.2.5-.1l1.6 1.3c.2.1.2.2.2.4 0 0 0 .1-.1.1zm-12.2 7.6h9.6v-7.7h-9.6v7.7zm9.6.8h-9.6v7.9h9.6v-7.9zM395.8 242.6c.4.3 1.1.9 1.7 1.4.2.2.3.4.1.5-.2.1-.3.1-.5.1h-18v5.4c0 3.9-.3 9-3.7 12.6-.2.2-.3.2-.4.1-.1-.1-.1-.2 0-.4 2.2-3.6 2.5-8.1 2.5-12.3v-6.6c0-.3.2-.4.5-.3l1.5.6h6.8v-3.3c0-.2.1-.3.3-.4h.1l1.7.2c.3 0 .5.3.3.5s-.5.3-.7.3v2.7h6.5l1-1.2c-.2 0 0 0 .3.1-.1 0-.1 0 0 0zm-.3 5.4c.4.3 1.1.9 1.7 1.4.2.2.2.4.1.5-.1.1-.3.1-.5.1h-7.4v10.6c0 1.3-.4 2.2-2.6 2.5-.3 0-.4-.1-.5-.3-.1-.4-.3-.7-.6-.9-.7-.4-1.5-.6-2.2-.7-.2 0-.4-.1-.4-.3s.2-.2.4-.1c.9 0 2.9.2 3.4.2s.7-.2.7-.5V250h-7.3c-.2 0-.4-.1-.4-.3-.1-.2 0-.3.2-.4H394l1-1.3c0-.1.2-.2.5 0-.1 0-.1 0 0 0zM388 271.1c-.2.1-.4.1-.7.2 2.3 2.6 6.3 4.8 10.4 6.4.2.1.3.2.3.3s-.1.2-.3.3c-.4.1-.8.4-1 .8-.1.2-.3.3-.5.2-3.8-1.8-7.5-4.7-9.4-7.7-3.2 3.6-7.1 6.6-11.5 8.6-.2.1-.4.1-.4 0-.1-.1 0-.2.2-.4 3.9-2.1 8.6-6.2 10.1-9.3.1-.2.3-.3.5-.2l2.1.5c.3 0 .5.2.2.3zm6.7 9.7c.4.3 1.1.9 1.7 1.4.2.2.3.4.1.5-.1.1-.3.1-.5.1h-19c-.2 0-.4-.1-.4-.3-.1-.2 0-.3.2-.4H385.6V279H381c-.2 0-.4-.1-.4-.3-.1-.2 0-.3.2-.4h4.9v-2.6c0-.3.2-.4.4-.4l1.7.2c.3 0 .5.3.2.4-.2.1-.4.2-.6.2v2.1h2.4l.9-1c.1-.2.4-.2.5-.1.3.3.9.8 1.4 1.2.2.2.3.4.1.5-.1.1-.3.1-.5.1h-4.9v3.1h6l1-1.1c.1-.2.3-.2.5-.2-.2 0-.2 0-.1.1zm-1.8 3.5 1.5 1.1c.1.1.2.2.1.4 0 .1-.1.1-.1.1-.2.1-.5.2-.7.2v6.1c0 .2 0 .3-.2.4-.4.2-.8.3-1.2.4-.2 0-.3-.2-.3-.4v-1.3h-11v1.2c0 .2-.7.6-1.4.6-.2 0-.3-.2-.3-.4v-8c0-.2.1-.3.2-.3s.2 0 .2.1l1.3.6h10.6l.7-.8c.2-.1.5-.1.6 0zm-.9 1.5h-11v4.9h11v-4.9zM378.3 320.8c-.4 0-.6-.3-.7-.6 0-.2.1-.4.2-.6 2.2-2.9 3.9-6.1 5.2-9.5-1.3.7-2.2 1.6-3.4 1.6-.2 0-.4 0-.7-.1-.8-.3-1.1-.6-1.1-.9s.4-.6 1.2-.5h.4c1.2-.1 2.4-.4 3.5-1l.5-.2c.2-.8.4-1.7.4-2.6 0-.5-.1-1-.3-1.5-.1-.2-.2-.4-.2-.7 0-.2.1-.4.3-.5h.1c.3 0 .6.2.9.5.3.4.5 1 .5 1.6 0 .9-.2 1.8-.5 2.7.6-.2 1.1-.3 1.7-.3 2.2 0 3.3 1.8 3.3 4.2-.1 2.6-1.1 5.1-2.8 7-.2.4-.6.6-1.1.6-.5 0-.9-.3-1.2-.7-.4-.5-.9-.9-1.5-1.2-.4-.2-.5-.4-.5-.6 0-.2.1-.2.4-.2.1 0 .3 0 .4.1.6.3 1.3.5 2 .6.3 0 .6-.1.8-.3 1.4-1.6 2.2-3.5 2.3-5.6 0-1.6-.7-2.8-2.4-2.8-.6 0-1.2.1-1.8.4-1.4 3.7-3.2 7.3-5.2 10.7-.1.2-.4.4-.7.4zm13.4-6.6c-.2 0-.4-.2-.4-.4s.2-.3.6-.3c1.5 0 2.3-.4 2.3-1.3s-.6-1.8-1.8-3.3c-.1-.1-.2-.3-.2-.5s.1-.2.2-.2c.2 0 .4.1.6.2 1.6 1 2.7 2.6 2.9 4.5v.3c0 .8-.5 1.3-1.4 1.3-1 0-1.9-.1-2.8-.3zm-.1-9.5c-.1-.1-.2-.3-.2-.4 0-.2.1-.3.3-.3.1 0 .2 0 .3.1 1 .3 1.9 1.1 2.4 2.1.1.2.2.4.2.6 0 .4-.2.7-.6.7h-.1c-.4 0-.8-.3-1-.7-.2-.9-.7-1.6-1.3-2.1zm2.3-.3c-.1-.1-.2-.3-.3-.4 0-.2.1-.3.4-.3h.3c1 .2 1.8.8 2.4 1.7.1.2.2.4.2.6 0 .4-.3.7-.7.7-.4 0-.7-.3-.9-.7-.4-.7-.8-1.3-1.4-1.6zM391.7 330.5c2 .5 3.7 1.7 5 3.2.4.5.6 1.1.6 1.7.1.5-.3 1.1-.8 1.1h-.2c-.5 0-.9-.3-1.2-1.1-.8-1.8-2.1-3.3-3.7-4.4-.2-.1-.3-.3-.2-.5.1 0 .3-.1.5 0zM349 14.8c.2-.1.4-.1.4 0s0 .2-.2.4c-1.8 1.1-4.1 2.8-7.1 4.6 0 .1-.1.3-.2.4-.2.2-.4.2-.5-.1l-.6-1.4c-.1-.3-.1-.4.2-.5.7-.3 1.8-.7 3-1.2V8.4h-2.6c-.2 0-.4-.1-.4-.3-.1-.2 0-.3.2-.4H344V1c0-.2.1-.3.3-.4h.1l1.7.2c.3 0 .5.3.3.5s-.5.2-.7.3v6.1h.9l.8-1.1c.2-.2.3-.2.5-.1.4.3 1 .8 1.4 1.3.2.2.2.4.1.5-.1.1-.3.1-.5.1h-3.2v7.9l3.3-1.5zm15 6.2c0 .9-1.1 1.1-6.5 1.1h-3.8c-2.5 0-3.3-.5-3.3-2.2V10l-2.8 1.1c-.2.1-.4 0-.5-.1-.1-.1-.1-.3 0-.4l.1-.1 3.2-1.2V2.4c0-.3.2-.4.4-.4l1.6.2c.3 0 .5.3.3.5s-.5.3-.7.3v5.6l3.4-1.3V.5c0-.2.1-.3.3-.4h.1l1.6.2c.3 0 .4.2.3.4-.2.2-.4.3-.7.3v5.6l3.4-1.3.2-.1.6-.7c.1-.2.3-.2.5-.1l1.3 1c.2.2.3.4 0 .5-.3.1-.4.1-.6.2-.1 6.6-.4 9-1.2 9.9-.5.5-1.1.7-1.7.8-.3 0-.4-.1-.4-.4 0-.3-.1-.6-.3-.8-.3-.2-.6-.3-1-.4-.2-.1-.3-.2-.3-.3s.2-.2.4-.2c.5.1 1.2.1 1.5.1s.5-.1.7-.2c.5-.5.7-3 .8-8.7L357 7.4V18c0 .2-.7.6-1.3.6-.2 0-.3-.2-.3-.4V8.1L352 9.4v10.2c0 .8.3 1 1.9 1h3.7c1.8 0 3 0 3.6-.1.3 0 .5-.1.7-.4.4-1.1.7-2.3.9-3.5.1-.2.2-.4.3-.4.1 0 .2.2.2.4l.1 3.5c.4.4.6.5.6.9zM348.4 45.4c-1.5 1-3.6 2.5-6.3 4.2 0 .1-.1.3-.2.4-.2.2-.4.1-.5-.1l-.7-1.4c-.1-.3-.1-.4.2-.5.7-.2 1.7-.6 2.9-1.1V38h-2.5c-.2 0-.4-.1-.4-.3 0-.2.1-.4.3-.4h2.6V31c0-.2.1-.3.3-.4h.1l1.7.2c.3 0 .5.3.3.5s-.5.3-.7.3v5.8h.5l.9-1.1c.1-.2.3-.2.4-.1 0 0 .1 0 .1.1.4.3.9.8 1.4 1.3.2.2.3.4.1.5-.1.1-.3.1-.5.1h-2.9v8.3c.9-.4 1.9-.8 2.8-1.2.2-.1.4-.1.4 0 0-.2-.1 0-.3.1zm7.5 1c-1.9.8-4.5 2-7.9 3.3 0 .1-.1.3-.2.4-.2.2-.4.1-.5-.1l-.6-1.2c-.1-.2-.1-.4.2-.5 1.8-.4 5.2-1.3 8.8-2.3.2-.1.4 0 .4.1.1 0 0 .2-.2.3zm8 6.3c-.6.6-1.8-.1-2.7-1.1-1.2-1.3-2.1-2.7-2.7-4.4-2.1 2.4-4.7 4.3-7.7 5.4-.2.1-.4 0-.4-.1s0-.3.2-.4c3-1.5 5.5-3.7 7.4-6.4-1-3.4-1.5-6.8-1.6-10.3h-7.9c-.2 0-.4-.1-.4-.3-.1-.2 0-.3.2-.4h8.2c-.1-1.3-.1-2.5-.1-3.8 0-.2.1-.3.3-.4h.1l1.6.2c.3 0 .5.3.3.4-.2.2-.5.3-.7.3v3.3h3.2l.9-1.1c.1-.2.3-.2.5-.1.4.3 1 .8 1.4 1.3.2.2.3.4.1.5-.1.1-.3.1-.5.1H358c.1 2.9.5 5.8 1.2 8.6 1-2 1.8-4 2.4-6.2 0-.2.2-.3.4-.3h.1l1.6.5c.3.1.4.4.2.5-.2.1-.5.1-.7.1-.7 2.6-1.8 5-3.3 7.2.5 1.6 1.4 3 2.6 4.2.3.3.5.4.7-.1.3-.8.6-1.5.8-2.4.1-.3.2-.4.3-.4.1 0 .2.2.1.4l-.4 3.6c0 .7.2 1.3-.1 1.6zm-10.4-7.8V44h-3.2v1.5c0 .1-.5.5-1.2.5-.1 0-.2-.2-.2-.4V38c0-.2.1-.3.2-.3h.2l1.2.5h2.8l.5-.5c.1-.1.4-.1.5 0l1 .8c.2.2.3.4 0 .5-.1.1-.3.1-.4.1v5.5c0 .2 0 .3-.2.4-.3.2-.6.3-1 .3h-.1c0-.1-.1-.2-.1-.4zm0-6h-3.2v4.3h3.2v-4.3zm5.8-7.7c3.4.9 2.6 3.2 1.3 2.7-.2-.1-.2-.2-.3-.4-.3-.7-.7-1.4-1.2-1.9-.2-.2-.3-.3-.2-.4h.4zM352.1 81.2c-3.2 0-5.1-1.3-5.1-3.1 0-1.6 1.5-3.5 5-5.1-.2-1.3-.9-2.2-2-2.2s-2.3.8-3.9 2.6c-.2.3-.6.6-1 .6s-.8-.3-.8-.7c0-.4.2-.7.5-.9 2.7-2.2 4.5-4.3 5.2-6.1-.5.2-1 .2-1.6.3-.4 0-.9-.1-1.3-.3-.4-.2-.7-.7-.8-1.2 0-.3.2-.5.5-.6h.1c.2 0 .3 0 .5.1.5.3 1 .4 1.5.4s1-.1 1.4-.3c0-.5-.2-.9-.5-1.3-.2-.1-.3-.3-.3-.6s.2-.5.5-.5c.4 0 .7.2.9.5.5.1 1.1.2 1.5.3.3.1.5.2.5.5 0 .2-.1.5-.2.7-.4.7-.9 1.2-1.6 1.5-.6 1.6-1.4 3.1-2.5 4.4 0 .1-.1.1-.1.2 0 0 .1.1.3 0 .4-.2.9-.3 1.4-.3.8 0 1.6.4 2.1 1 2.2-2.7 4.4-3.7 5.8-3.7 1 0 1.6.5 1.6 1.2 0 1.2-1.7 3.1-6.3 4.7l-.1.1c.1.4.1.9.1 1.4 0 .5-.1 1-.2 1.6-.2.8-.7 1.1-1.1 1.1-.4 0-.7-.3-.7-.8v-.1c0-.2 0-.4.1-.5.2-.7.3-1.4.4-2.1-2.6 1.3-4 2.9-4 4.1 0 1 1 1.7 2.9 1.7 1.4 0 2.8-.3 4.1-.7.2-.1.5-.1.7-.1.8 0 1.4.4 1.4.8s-.3.6-1 .8c-1.2.4-2.6.6-3.9.6zm-.1-17.3c.1-.1.1-.1.1-.2s-.1-.1-.2-.2c-.2-.1-.4-.1-.6-.2.1.3.2.6.2.9.1 0 .3-.1.5-.3zm6.1 5c0-.3-.3-.4-.6-.4-1 0-3 1-4.7 3.3.1.2.2.4.3.7 3.7-1.6 5-3 5-3.6zM350.7 109.1c-.3 0-.4-.1-.4-.2s.2-.3.5-.3c5.7-1 8.1-4.3 8.1-6.9.1-1.7-1.2-3.1-2.9-3.2h-.4c-1.8 0-4.1 1-7 3.7-.7.6-1.6 1-2.5 1-.5 0-1-.1-1.5-.4-1-.6-1.3-1-1.3-1.3s.2-.4.5-.4h.3c.4.1.8.2 1.3.2 1.1-.1 2.1-.5 2.9-1.2 2.9-2 5.4-2.8 7.3-2.8 3.1 0 4.8 2 4.8 4.4 0 3.1-2.9 6.7-9.6 7.3l-.1.1zM344.5 136.9c-.3 0-.5-.4-.5-1 0-.4.1-.8.3-1.2 1.2-2.7 2.3-4.9 3-6.7-.8 0-1.6-.3-2.4-.7-.2-.1-.3-.3-.3-.5 0-.1.1-.3.2-.3h.3c.8.4 1.6.5 2.5.5.3-.7.4-1.5.5-2.3 0-.3-.1-.6-.2-.9-.1-.2-.1-.4-.1-.6 0-.3.2-.5.4-.5s.6.2.9.7c.3.4.5.9.5 1.4.7.3 1.8.7 2.6.9.3.1.5.4.6.7 0 .4-.3.7-.7.7-1.1.4-2.3.7-3.6.8-1.1 2.4-2.1 4.9-2.9 7.5-.4 1.1-.8 1.5-1.1 1.5zm6-10.6c.1-.1.2-.1.2-.2s-.1-.1-.2-.2c-.3-.2-.7-.4-1.1-.6-.1.5-.3 1-.5 1.5.6-.1 1.1-.3 1.6-.5zm4.9 11.2v.9c0 1.8-1.6 2.6-3.1 2.6s-3.1-.9-3.1-2.6c0-1.7 1.6-2.5 3.8-2.5.4 0 .8 0 1.2.1 0-.9-.1-1.7-.1-2.5-.1-1.1.2-2.2.8-3.2.2-.3.3-.4.5-.4s.2.1.2.3c0 .1 0 .3-.1.4-.3.6-.4 1.3-.4 2 0 1.1.2 2.3.3 3.5 1.2.3 2.3.7 3.4 1.3.5.2.9.7.9 1.3 0 .3-.2.6-.5.6-.2 0-.3-.1-.5-.2-1.1-.6-2.2-1.2-3.3-1.6zm-3.2 2.3c1 .1 1.9-.6 1.9-1.6 0-.4.1-.7.1-1.1-.5-.1-1.1-.2-1.6-.2-1.5 0-2.3.6-2.3 1.4.1.9.9 1.6 1.9 1.5-.1 0-.1 0 0 0zm4.5-10.2c-.2 0-.3-.1-.3-.2s.1-.2.3-.3l1.2-.3c.2 0 .2-.1.2-.2s0-.2-.1-.3c-.6-.7-1.4-1.4-2.2-1.9-.3-.2-.4-.3-.4-.5s.1-.2.3-.2c.1 0 .2 0 .3.1 1.7.4 3.2 1.3 4.2 2.8.1.2.2.4.2.6 0 .5-.4.7-.9.7-.2 0-.3 0-.5-.1-.7-.2-1.5-.3-2.3-.2zM349 162.6c-.2-.3-.4-.7-.4-1.1 0-.3.1-.6.2-.8 2.3-4.5 5-6 4.7-7.5v-.4c0-.4.2-.6.5-.6.2 0 .4.2.6.4.3.4.5 1 .6 1.5 0 .6-.3 1.2-.9 1.5-1.9 1.5-3.5 3.3-4.6 5.5-.2.3-.1.7.2 1 2.7 3.2 4.1 4.8 4.8 8.3v.4c0 .6-.3.9-.7.9s-.8-.3-.9-1c-.7-3-2.1-5.8-4.1-8.1zm7.6-5.7c-.1-.1-.2-.3-.3-.5 0-.2.1-.3.3-.3.1 0 .2 0 .3.1 1.1.3 1.9 1 2.5 2 .1.2.2.4.2.7 0 .4-.3.7-.6.7h-.1c-.4 0-.8-.3-.9-.7-.3-.8-.8-1.5-1.4-2zm2.3-.4c-.1-.1-.2-.2-.3-.4 0-.2.1-.3.4-.3h.2c1 .3 1.8.9 2.4 1.7.1.2.1.4.2.6 0 .4-.3.7-.7.7-.3 0-.6-.2-.8-.6-.4-.7-.9-1.3-1.4-1.7zM350.4 198.8c-.2-.1-.3-.2-.3-.4-.6-1.3-1.5-2.4-2.7-3.3v7.3c0 .2-.7.6-1.3.6-.2 0-.3-.1-.3-.3V196c-1.2 2-2.7 3.7-4.6 5-.2.2-.4.2-.4 0-.1-.2 0-.2.1-.4 1.9-2 3.3-4.3 4.2-6.9h-3.7c-.2 0-.4-.1-.4-.3-.1-.2 0-.3.2-.4H345.8v-2.4c0-.3.2-.4.4-.4l1.6.2c.3 0 .5.3.3.4l-.6.3v1.9h2.4l.9-1.1c.1-.2.3-.2.5-.1.4.3.9.8 1.4 1.2.2.2.2.4.1.5-.1.1-.3.1-.5.1h-4.7v1.2c5.1 1.4 4.4 4.7 2.8 4zm-9.5-9.3c-.1-.2.1-.4.3-.4h6.3c.5-1.4.9-2.9 1.2-4.4 0-.2.2-.3.4-.3h.1l1.6.5c.3.1.4.3.2.5-.2.1-.4.1-.7.1-.7 1.2-1.4 2.4-2.3 3.6h2l.9-1.2c.1-.2.3-.2.5-.1l.1.1c.4.3 1 .8 1.5 1.3.2.2.3.4.1.5-.1.1-.3.1-.5.1h-11.3c-.3 0-.4-.1-.4-.3zm.8-6h4.2v-2.9c0-.2.1-.3.3-.4h.1l1.6.2c.3 0 .5.3.3.4-.2.1-.4.2-.7.3v2.4h2l.9-1.1c.1-.1.3-.2.4-.1l.1.1c.4.3 1 .8 1.5 1.3.2.2.3.4.1.5-.1.1-.3.1-.5.1h-10.2c-.2 0-.4-.1-.4-.3-.1-.4 0-.5.3-.5zm1.8 1c3.4 2.4 2.1 5 .8 4.2-.1-.1-.2-.3-.2-.5-.1-1.2-.5-2.3-1-3.4-.1-.2-.1-.4 0-.4s.2 0 .4.1zm18.8 3c.4.3 1.1.9 1.6 1.4.2.2.3.4.1.5-.1.1-.3.1-.5.1h-2.7v12.9c-.3.4-.8.6-1.4.6-.2 0-.3-.2-.3-.4v-13.1h-3.7v.8c0 4.4-.6 9.3-5.4 12.5-.2.1-.3.2-.5 0-.1-.2-.1-.3.1-.4 3.6-3.3 4.2-7.5 4.2-12.1v-7.8c0-.3.2-.4.4-.3l1.4.5c1.9-.6 3.7-1.4 5.5-2.4.2-.1.4-.1.5 0l1.4 1.1c.2.2.2.5-.1.5-.3 0-.5-.1-.8-.2-2.2.7-4.5 1.3-6.8 1.6v5.4h5.4l1-1.2c.2-.1.4-.1.6 0-.1.1-.1.1 0 0zM351.5 231.3c-2.6 0-4.6-1.7-4.6-5.1 0-.3 0-.6.1-.9.5-5.6 1-8.1 1-9.4 0-.5-.1-1-.4-1.4-.1-.2-.2-.3-.2-.6 0-.2.1-.4.3-.4.2 0 .3.1.5.2.9.4 1.4 1.3 1.3 2.2 0 1.6-.8 4.3-1.2 9.3v.6c0 2.6 1.5 3.9 3.7 3.9s5.1-1.3 7.9-4c.1-.1.3-.2.5-.2.1 0 .2.1.2.2 0 .2-.1.3-.2.4-2.8 3.4-6.2 5.2-8.9 5.2zM343.7 246.7c-.2-.2-.3-.4-.3-.7 0-.2.1-.3.3-.4h.1c.3 0 .6.1.8.3 1.5.9 1.6 3 1.6 5.2v1.5c0 2.4.2 4.4 2.4 4.3.6-.1.5-1.3 1.2-2.2.1-.1.2-.2.4-.2.1 0 .2.1.2.3 0 .1 0 .2-.1.3-.2.4-.3.9-.3 1.4 0 .3.1.7.3.9.2.2.4.5.5.8 0 .3-.3.6-1.1.6-.4 0-.8 0-1.2-.1-5.7-1.1-2-8.3-4.8-12zm16.4 7.3c-.5 0-.9-.4-.9-.8v-.1c0-.1 0-.3.1-.4.1-.4.2-.7.2-1.1 0-1.3-1-2.4-2.3-2.6-.4-.1-.6-.3-.6-.4s.2-.3.6-.2c1.7.2 4.1 1.4 4.1 3.9 0 1.1-.6 1.6-1.2 1.7zM341.3 276c4.5.8 3.8 3.8 2.2 3.3-.2-.1-.3-.2-.3-.4-.5-1-1.2-1.8-2.1-2.5-.2-.2-.3-.3-.2-.4h.4zm6.4-.7c-1.1 3.2-3.1 8.5-3.5 9.6-.2.7-.4 1.4-.4 2.2 0 1.1.7 2.3.6 4.4-.1 1.1-.5 1.7-1.3 1.7-.4 0-.6-.4-.7-1.1v-.5c.3-2.5.1-4.3-.4-4.7-.3-.2-.5-.3-.9-.3-.2 0-.4-.2-.4-.4s.2-.3.4-.3h.7c.3 0 .4 0 .6-.5.4-.9.4-.9 4.6-10.3.1-.3.2-.3.4-.3.4.1.4.3.3.5zm-4.7-4.9c4.8 1 4 4.2 2.4 3.5-.2 0-.3-.2-.3-.4-.6-1.1-1.3-2-2.3-2.8-.2-.2-.3-.3-.2-.4s.2.1.4.1zm19.8 19.9c.3.3.8.8 1.2 1.3.2.2.2.4.1.5-.1.1-.3.1-.5.1h-18c-.2 0-.4-.1-.4-.3-.1-.2 0-.3.2-.4H347.8V283c0-.2.1-.3.2-.3s.2 0 .2.1l1.4.6h9.9l.6-.8c.1-.2.3-.2.5-.1h.1l1.5 1.1c.2.2.3.4 0 .5-.3.1-.5.2-.8.2v7.3h.3l.7-1.1c.1-.3.2-.4.4-.2zm-13.6-8.7c-.1 0-.2-.2-.2-.4v-9.8c0-.3.2-.4.4-.3l1.4.6h8l.6-.7c.1-.1.3-.2.5-.1l.1.1 1.2.9c.2.2.3.4 0 .5-.2.1-.4.1-.6.2v8.3c-.4.3-.8.5-1.3.5-.2 0-.3-.2-.3-.4v-.9h-8.4v1c-.1.2-.6.5-1.4.5zm2.6 9.9V284h-2.6v7.5h2.6zm-1.3-16h8.4v-3.1h-8.4v3.1zm8.4.7h-8.4v3.2h8.4v-3.2zm-5.7 7.7v7.5h2.5v-7.5h-2.5zm3.9 7.5h2.6v-7.5h-2.6v7.5zM341.3 305.9c4.6.9 3.9 3.9 2.4 3.4-.2-.1-.3-.2-.3-.4-.5-1-1.3-1.9-2.2-2.6-.2-.2-.3-.3-.2-.4h.3zm6.6-.9c-1.1 3.2-3.1 8.7-3.4 9.9-.2.7-.4 1.5-.4 2.2 0 1.1.7 2.3.6 4.3-.1 1.1-.5 1.7-1.4 1.7-.4 0-.7-.4-.7-1v-.5c.3-2.5.2-4.3-.4-4.7-.3-.2-.6-.3-.9-.3-.2 0-.4-.2-.4-.3 0-.2.2-.3.4-.3h.8c.3 0 .4 0 .6-.5.4-.9.4-.9 4.7-10.7.1-.3.2-.3.4-.3.2.1.2.3.1.5zm-4.8-4.5c4.8 1.1 4 4.3 2.4 3.7-.2-.1-.3-.2-.3-.4-.5-1.1-1.3-2.1-2.3-2.9-.2-.2-.3-.3-.2-.4s.2 0 .4 0zm13.6 5.3c-.2.1-.4.1-.6.1 2 2.9 4.8 5.2 8 6.6.2.1.3.2.3.3 0 .1-.1.2-.3.3-.4.2-.8.5-1 .9-.1.2-.3.3-.5.2-3.1-1.9-5.5-4.7-7-8-2.2 3.7-5.3 6.7-9.1 8.7-.2.1-.4.1-.4 0-.1-.1 0-.3.2-.4 3.1-2.2 6.6-6.3 7.7-9.4.1-.2.3-.3.4-.3l2 .5c.4.1.6.4.3.5zm-8.8 1.2c1.6-1.8 3-3.9 3.9-6.1.1-.2.2-.3.4-.2h.1l1.7.8c.3.1.4.4.1.5h-.6c-1.4 2.1-3.2 4-5.2 5.4-.2.1-.4.1-.4 0s-.2-.2 0-.4zm12.3 5.9 1.2.9c.2.2.2.4 0 .5-.2.1-.4.1-.6.2v8.1c-.4.3-.9.5-1.4.5-.2 0-.3-.2-.3-.4v-1.5h-7.9v1.5c0 .1-.5.5-1.3.5-.2 0-.3-.2-.3-.4v-9.5c0-.2.1-.3.2-.3s.2 0 .2.1l1.4.6h7.5l.6-.7c.3-.2.5-.2.7-.1zm-1 1.5h-7.9v6h7.9v-6zm-1.9-13.6c6.9 2.6 6.4 6.6 4.5 5.9-.1-.1-.3-.2-.3-.3-1.1-2-2.7-3.8-4.5-5.2-.2-.2-.3-.3-.2-.4s.3 0 .5 0zM364.1 351.6c0 .8-.9 1-5.5 1h-3.3c-2.2 0-2.7-.4-2.7-1.8v-8l-2.2.8c-.2.1-.4 0-.5-.2l-.2-.3c-.3 5.2-.8 7.9-1.7 8.8-.5.6-1.3.9-2.1.9-.3 0-.4-.1-.4-.4 0-.3-.1-.6-.4-.8-.5-.3-1-.5-1.6-.6-.2 0-.3-.1-.3-.3s.2-.2.4-.2c.8.1 1.9.2 2.4.2.3 0 .6-.1.9-.3.7-.7 1.1-4.2 1.3-10.4h-2.8c-.3 4.6-1.2 9-4.3 12.5-.2.2-.3.2-.5.1-.1-.1-.1-.4 0-.5 3.2-4.7 3.2-10.8 3.2-16.5h-2.6c-.2 0-.4-.1-.4-.3-.1-.2 0-.3.2-.4h4v-4.3c0-.3.2-.4.4-.4l1.6.2c.3 0 .5.3.3.5l-.6.3v3.8h1.6l1-1.2c.1-.2.3-.2.5-.1 0 0 .1 0 .1.1.4.3 1.1.9 1.6 1.4.2.2.2.4.1.5-.1.1-.3.1-.5.1h-5.4c0 1.3 0 2.6-.1 3.8h2.5l.7-.8c.1-.2.3-.2.5-.1l1.3 1c.2.2.2.4 0 .5-.2.1-.4.1-.7.2 0 .9-.1 1.7-.1 2.5l2.9-1V338c0-.3.2-.4.4-.4l1.4.2c.3 0 .5.3.3.4-.2.2-.4.3-.6.3v2.8l2.7-1v-4.1c0-.3.2-.4.4-.4l1.5.2c.3 0 .5.3.3.5s-.4.3-.7.3v3l2.6-1 .1-.1.6-.6c.1-.2.3-.2.5-.1l1.2 1c.2.2.3.4 0 .5-.2.1-.4.1-.6.1 0 5-.2 6.7-.9 7.4-.4.4-.9.6-1.4.6-.3 0-.4-.1-.4-.4 0-.2-.1-.5-.3-.7-.2-.2-.5-.3-.7-.4-.2 0-.3-.2-.3-.3s.2-.2.4-.2c.4 0 .9.1 1.2.1.3 0 .5 0 .6-.2.3-.4.4-2 .5-6.2l-3 1.1v8.1c0 .2-.6.5-1.2.5-.2 0-.3-.1-.3-.4v-7.7l-2.7 1v8.2c0 .6.2.8 1.4.8h3.2c1.4 0 2.6 0 3-.1.4-.1.5-.1.6-.2.3-.6.5-1.2.7-1.9.1-.2.2-.3.3-.3s.2.2.2.4l.1 1.8c.1.5.3.7.3 1zm-14-13c1.8-2.3 3-5 3.7-7.9 0-.2.2-.3.4-.3h.1l1.8.6c.3.1.4.3.2.5-.2.1-.4.1-.7.1-.4 1-.9 2-1.4 3h6.4l1-1.2c.1-.2.3-.2.5-.1h.1c.6.4 1.1.9 1.7 1.4.2.2.3.4.1.5-.1.1-.3.1-.5.1h-9.6c-.9 1.4-1.9 2.6-3.2 3.7-.2.2-.3.2-.5.1-.4-.2-.3-.3-.1-.5zM349.5 363.8c.4.3 1 .8 1.5 1.2.2.2.3.4.1.5-.1.1-.3.1-.5.1h-9.3c-.2 0-.4-.1-.4-.3-.1-.2.1-.4.3-.4h7l.9-1c0-.1.2-.2.4-.1zm-7.5 7.9c-.1-.2 0-.3.2-.4H346.9l.8-1c.1-.2.3-.2.5-.1.3.3.9.8 1.3 1.2.2.2.2.4.1.5-.1.1-.3.1-.4.1h-6.8c-.2 0-.4-.1-.4-.3zm5.9 10.3c-.1 0-.2-.2-.2-.4v-1h-4.2v1.7c0 .2-.7.5-1.3.5-.1 0-.2-.2-.2-.4v-8.3c0-.2.1-.3.2-.3s.2 0 .2.1l1.2.5h3.8l.6-.7c.1-.2.3-.2.5-.1l1.4 1c.2.2.2.4 0 .5-.2.1-.5.2-.7.3v6c0 .3-.8.6-1.3.6zm-.2-14.9c.1-.2.3-.2.5-.1.3.3.9.7 1.3 1.1.2.2.3.4.1.5-.1.1-.3.1-.5.1h-6.8c-.2 0-.4-.1-.4-.3-.1-.2 0-.3.2-.4h4.9l.7-.9zm-5.6-4.8c-.1-.2 0-.3.2-.4h4.8l.8-1c.1-.1.3-.2.5-.1l.1.1c.4.3 1 .8 1.4 1.2.2.1.3.4.1.5-.2.1-.3.1-.5.1h-6.9c-.3 0-.5-.2-.5-.4zm5.6 12.8h-4.2v4.8h4.2v-4.8zm14.2-2.9c-.2.1-.4.1-.7.1-.9 2.2-2.2 4.3-3.8 6 1.9 1.5 4.1 2.5 6.5 3.1.2.1.4.2.3.3 0 .1-.1.1-.3.2-.5.2-.9.5-1.1 1-.1.2-.3.3-.5.2-2.2-.8-4.3-2-5.9-3.7-2.2 1.7-4.7 3-7.4 3.7-.2.1-.4.1-.4-.1s0-.3.3-.3c2.5-.9 4.8-2.4 6.7-4.2-1.4-1.9-2.5-4-3-6.3h-1.5c-.2 0-.4-.1-.4-.3-.1-.2 0-.4.3-.4h8.5l.8-.8c.1-.1.3-.2.5 0l1.2 1.1c.1.2.2.4-.1.4zm-11.7-2.1c1.7-1.7 2.6-4.1 2.4-6.5v-2.5c0-.2.1-.3.2-.3h.2l1.4.6h3.3l.6-.7c.1-.1.3-.2.4-.1 0 0 .1 0 .1.1l1.2 1c.2.2.2.4 0 .5-.2.1-.3.1-.5.1v5.2c0 .3.1.3.5.3h2.1c.2 0 .3-.1.4-.3.1-.4.4-1.5.6-2.7.1-.2.2-.4.3-.4s.2.2.2.4l.1 2.7c.5.2.5.4.5.7 0 .7-.7 1-3 1h-1.4c-1.4 0-1.6-.4-1.6-1.5V362h-3.8v1.4c.2 2.8-1.2 5.5-3.6 6.9-.2.1-.4.1-.5 0-.3.2-.3 0-.1-.2zm6.1 7.3c1.3-1.6 2.4-3.4 3-5.3H353c.6 2.1 1.8 3.9 3.3 5.3zM310.4 15.4c0-3.6 1.5-6.6 1.5-8.6 0-.4-.1-.8-.3-1.2-.1-.2-.2-.4-.2-.7 0-.2.1-.3.3-.3.2 0 .7.3 1.1.8.3.4.5.9.5 1.4 0 1.9-1.8 4.3-1.9 8.5 0 .2.1.4.1.4s.2-.1.2-.3c.2-.5.5-1 .8-1.4.2-.3.4-.5.5-.5s.2.1.2.2c0 .2-.1.3-.2.5-.3.8-.5 1.6-.5 2.4 0 1.1.2 2.2.6 3.3.1.2.1.4.1.6.1.4-.2.7-.6.8h-.1c-.5 0-.9-.4-1.1-.9-.6-1.6-1-3.3-1-5zm12.9 4.4c-2.1.1-4.1-.7-5.4-2.3-.1-.1-.2-.2-.2-.4s.1-.2.3-.2c.2 0 .3.1.5.2 1 .8 2.3 1.3 3.6 1.3 1.1 0 2.2-.2 3.3-.4.1 0 .3 0 .4-.1.8 0 1.3.4 1.3.8s-.3.7-1 .8c-.9.1-1.8.3-2.8.3zm-1.5-12c-1.1 0-2.3-.2-3.3-.8-.3-.2-.4-.3-.4-.5 0-.1.1-.2.3-.2h.2c.7.2 1.3.3 2 .3 1.1 0 2.1-.2 3.2-.6.1 0 .3-.1.5-.1.5 0 .8.3.8.6s-.2.6-.7.8c-.9.4-1.7.5-2.6.5zM327.7 49.8c.4.3 1.2.9 1.8 1.5.2.2.3.4.1.5-.1.1-.3.1-.5.1h-21.8c-.2 0-.4-.1-.4-.3-.1-.2 0-.3.2-.4H317.4v-7.3h-7.2c-.2 0-.4-.1-.4-.3-.1-.2.1-.4.3-.4h7.3v-6.4h-5.6c-1.2 2.1-2.7 4-4.5 5.6-.2.2-.3.2-.4.1s-.1-.2.1-.4c2.4-3.2 4.2-6.9 5.2-10.8 0-.2.2-.3.4-.3h.1l1.8.6c.3.1.4.3.2.5-.2.1-.5.2-.7.2-.5 1.3-1.1 2.6-1.8 3.9h5.2v-5.6c0-.2.1-.3.3-.4h.1l1.8.2c.3 0 .5.3.3.4-.2.2-.4.3-.7.3v5h5.7l1.1-1.3c.2-.2.3-.2.5-.1.4.3 1.2.9 1.8 1.4.2.2.3.4.1.5-.2.1-.3.1-.5.1H319v6.4h4.7l1.1-1.3c.2-.2.3-.2.5 0l1.8 1.5c.2.2.3.4.1.5-.1.1-.3.1-.5.1H319v7.3h7l1.1-1.3c.1-.2.3-.3.4-.2.1.1.2.1.2.1zM319.3 77.9c-.3 2-2.3 3-4.1 3-1.9 0-3.4-.9-3.4-2.5 0-1.7 1.8-2.5 4-2.5.7 0 1.4.1 2.2.2 0-1.4.1-2.7.1-3.9-1.9.1-3.7-.2-5.4-1-.4-.2-.5-.4-.5-.6s.2-.3.4-.3h.4c1.3.4 2.6.6 3.9.6h1.3c0-1.1.1-2.1 0-3l-2.7.3c-1.4.1-2.7-.3-3.8-1.2-.2-.1-.4-.4-.5-.7 0-.1.1-.3.3-.3.2 0 .4.1.5.2 1.1.5 2.3.8 3.5.8.9 0 1.8-.1 2.7-.3-.1-1.6-.3-2.6-.9-3.2-.2-.2-.3-.4-.3-.7 0-.2.1-.4.4-.4h.1c.4 0 .7.2 1.1.4.9.5 1.1 1.1 1.1 2.5 0 .3 0 .7-.1 1.1 1-.3 2-.6 3-1 .2-.1.5-.1.7-.2.7 0 1.3.5 1.3.9 0 .2-.2.5-.7.6-1.7.5-3 .8-4.3 1 .9 1.1 2.2 1.8 3.6 1.9.5 0 .8.3.8.6s-.3.6-.8.8c-1.3.5-2.6.8-4 1v4.2c1.1.3 2.1.8 3 1.6.5.4.8.9.9 1.5 0 .3-.2.6-.5.7h-.1c-.3 0-.5-.2-.7-.4-.8-.6-1.6-1.2-2.5-1.7zm-4.3 1.8c1.4 0 3-.8 3-2.4-.9-.3-1.8-.4-2.7-.5-1.5 0-2.6.5-2.6 1.4.1.9 1.1 1.5 2.3 1.5zm6.4-9.2c.2 0 .3-.1.3-.2s-.1-.2-.3-.3c-.8-.4-1.5-.9-2-1.6 0 .7-.1 1.5-.1 2.4.7 0 1.4-.1 2.1-.3zM311.6 105.3c-.5.7-1.1 1.5-1.6 2.4-.4.7-.8 1-1.1 1-.3 0-.5-.3-.5-.7 0-.4.1-.7.4-1 .8-1.1 1.6-2.2 2.4-3.1-.6-1.7-1.1-3-1.3-3.5-.2-.3-.3-.7-.3-1 0-.5.3-.9.7-1.2 1-.7 2.2-1.1 3.5-1.2-.1-1.7-.3-2.7-1-3.4-.2-.2-.4-.6-.5-.9 0-.2.2-.4.5-.4.7.1 1.3.5 1.7 1 .5.5.6 1.5.6 3.1v.8c.2.2.4.5.4.8 0 .5-.2 1-.4 1.4 2.8-2.7 4.8-3.7 6.1-3.7 1.6 0 2.4 1.4 2.4 3 0 .4 0 .8-.1 1.2-.4 1.7-.6 3.4-.6 5.1 0 2.4.7 3.2 1.6 3.2 1.2 0 2.8-1.3 3.5-2 .1-.1.3-.2.5-.3.1 0 .1 0 .1.1 0 .2-.1.3-.2.5-.8 1.3-2.7 2.9-4.3 2.9-1.4 0-2.5-1.2-2.5-4.9 0-1.6.2-3.2.5-4.7v-.7c0-1.1-.5-1.8-1.5-1.8-1.2 0-3.2 1.1-5.6 3.7 0 1.4-.1 3-.1 4.8v3.4c0 .9-.4 1.5-.8 1.5-.5 0-.9-.5-1.2-1.5-.5-1.1-.9-2.5-1.3-3.9zm2-4.4c0-.9.1-1.6.1-2.3-.2-.1-.5-.2-.7-.2-.7.1-1.5.3-2.1.7-.3.2-.5.5-.5.9 0 .2 0 .3.1.5.1.3.5 1.2 1.1 2.9.7-1 1.3-1.7 2-2.5zm-.3 6.5c.1 0 .2-.1.2-.2 0-1.7.1-3.2.1-4.5-.5.6-1 1.3-1.5 2l1 2.7h.2zM324.7 135c-.2.1-.5.1-.8.1-1.1 1.6-2.5 3-4.2 4.1 3.2 1.3 6.6 1.9 10 2.1.3 0 .4.1.4.2s-.1.2-.3.3c-.5.2-.9.6-1 1.1-.1.2-.2.3-.4.3-4.4-.6-7.5-1.6-9.9-3.2-3.5 1.7-7.3 2.8-11.2 3.1-.3.1-.4 0-.4-.2s.1-.3.3-.3c3.6-.5 7-1.7 10.1-3.5-1.2-.9-2.2-2-3-3.3-1.7 1.4-3.6 2.5-5.7 3.3-.2.1-.4.1-.4-.1-.1-.1 0-.3.2-.4 3.1-1.6 5.7-4 7.5-7 .1-.2.3-.3.5-.2l1.8.6c.3.1.4.4.1.5-.2.1-.5.1-.8.1-.4.5-.8 1-1.3 1.5h5.8l.9-.8c.1-.1.4-.1.5 0l1.2 1.2c.4.2.3.4.1.5zM307 123.6c-.1-.3.1-.4.3-.4h10.1v-2.7c0-.3.2-.4.4-.4l1.7.2c.3 0 .5.2.3.4s-.4.3-.7.3v2.1h7.1l1-1.3c.1-.2.3-.2.5-.1h.1c.4.3 1.2.9 1.7 1.4.2.2.3.3.1.5-.1.1-.3.1-.5.1h-7v5.9c0 1.2-.3 2-2 2.2-.3.1-.4-.1-.4-.3-.1-.3-.2-.5-.4-.7-.5-.3-1-.5-1.6-.5-.2 0-.4-.1-.4-.3s.2-.2.4-.2c.7 0 2 .1 2.3.1s.5-.2.5-.5V124h-3.3c-.3 4-1.2 7.2-8 9.5-.2.1-.4 0-.5-.1-.1-.1 0-.3.3-.4 5.8-2.4 6.4-5.4 6.5-9h-8.1c-.2-.1-.4-.2-.4-.4zm6.4 3c-.2.1-.4.1-.6 0-1.4 1.5-3.1 2.6-4.9 3.5-.2.1-.4.1-.5 0s0-.2.2-.4c1.5-1.2 2.9-2.6 3.9-4.2.1-.2.3-.2.5-.1l1.3.8c.3 0 .3.3.1.4zm1.3 8.9c1 1.2 2.2 2.2 3.6 3 1.4-1 2.6-2.2 3.6-3.6h-6.4c-.3.1-.5.4-.8.6zm8.8-10c6.5 1.7 6.1 5.5 4.3 4.9-.2-.1-.3-.2-.3-.4-1-1.7-2.5-3.1-4.2-4.2-.2-.2-.3-.3-.2-.4.1 0 .2.1.4.1zM318.3 171.4c-.2 0-.3-.1-.3-.2s.1-.3.4-.4c5.2-2.2 7.3-5.2 7.3-7.8 0-2.5-2-4.5-4.5-4.5h-.2c-2.2.1-4.3 1-5.9 2.6-.1 1.5-.1 3.3-.1 5.4 0 1.1.1 2.3.1 3.5 0 .9-.4 1.5-.9 1.5s-.9-.5-1.2-1.6c-.4-1.5-.9-3-1.5-4.4l-1.2 2.1c-.5.9-1 1.3-1.4 1.3-.4 0-.5-.3-.5-.7 0-.5.2-.9.5-1.3.7-1 1.4-1.9 2-2.7-.4-.9-.8-1.6-1-1.9-.2-.3-.3-.7-.3-1 0-.5.3-1 .8-1.2 1.1-.8 2.3-1.5 3.6-1.9 0-2.2-.2-3.3-1-4.1-.3-.2-.4-.5-.5-.9 0-.2.2-.4.5-.4.7.1 1.3.5 1.7 1 .5.5.6 1.6.6 3.3v1c.3 0 .5.3.5.6 0 .4-.2.9-.5 1.3 1.8-1.5 4-2.3 6.3-2.5 3-.1 5.6 2.3 5.7 5.3v.3c0 3.2-2.5 6.8-8.6 8.2-.3.1-.3.1-.4.1zm-4.5-10.3.1-1.3c-1 .2-2 .6-2.9 1.2-.4.2-.6.5-.6.9 0 .2.1.3.1.4.1.3.4.7.8 1.4.8-.9 1.6-1.7 2.5-2.6zm-.3 6.9c.1 0 .2-.1.2-.3 0-2 .1-3.7.1-5.2-.7.8-1.3 1.6-1.9 2.4.4.8.9 1.7 1.4 2.9 0 .1.1.2.2.2zM313.8 200.7c0-.1.2-.3.6-.3 3.8-.4 7.7-2.9 8-7.7v-.8c0-3.5-2.1-5.2-4.1-5.2-2 0-3.6 1.5-3.6 4.1 0 1 .2 2 .6 2.9.1.3.2.6.2.9 0 .6-.3.8-.6.8s-.7-.2-.8-.5c-.5-1-.9-2-1.1-3.1-.1-.4-.1-.9-.1-1.3 0-2.1.7-3.7.7-5.2 0-.7-.2-1.4-.7-2-.1-.1-.2-.3-.2-.5 0-.3.3-.5.6-.5s.5.1.8.3c.7.5 1 1.2 1 2 0 1.4-.8 2.9-1 3.8v.1c0 .1.1.2.1.2l.2-.2c.6-1.9 2.4-3.1 4.3-3.2 2.6 0 5.3 2.3 5 7.1-.3 4.9-4.5 8.6-9.3 8.4-.4.1-.6 0-.6-.1zM319.3 227.9c-.3 2-2.3 3-4.1 3-1.9 0-3.4-.9-3.4-2.5 0-1.7 1.8-2.5 4-2.5.7 0 1.4.1 2.2.2 0-1.4.1-2.7.1-3.9-1.9.1-3.7-.2-5.4-1-.4-.2-.5-.4-.5-.6s.2-.3.4-.3c.1 0 .2 0 .4.1 1.3.4 2.6.6 3.9.6.4 0 .9 0 1.3-.1 0-1.1.1-2.1 0-3l-2.7.3c-1.4.1-2.7-.3-3.8-1.2-.2-.1-.4-.4-.5-.7 0-.1.1-.3.3-.3.2 0 .4.1.5.2 1.1.5 2.3.8 3.5.8.9 0 1.8-.1 2.7-.3-.1-1.6-.3-2.6-.9-3.2-.2-.2-.3-.4-.3-.7 0-.2.1-.4.4-.4h.1c.4 0 .7.2 1.1.4.9.5 1.1 1.1 1.1 2.5 0 .3 0 .7-.1 1.1 1-.3 2-.6 3-1 .2-.1.5-.1.7-.2.7 0 1.3.5 1.3.9 0 .2-.2.5-.7.6-1.7.5-3 .8-4.3 1 .9 1.1 2.2 1.7 3.6 1.9.5 0 .8.3.8.6s-.3.6-.8.8c-1.3.5-2.6.8-4 1v4.2c1.1.3 2.1.8 3 1.6.5.4.8.9.9 1.5 0 .3-.2.6-.5.7h-.1c-.3 0-.5-.2-.7-.4-.8-.5-1.6-1.2-2.5-1.7zm-4.3 1.8c1.4 0 3-.8 3-2.4-.9-.3-1.8-.4-2.7-.5-1.5 0-2.6.5-2.6 1.4.1 1 1.1 1.5 2.3 1.5zm6.4-9.1c.2 0 .3-.1.3-.2s-.1-.2-.3-.3c-.8-.4-1.5-.9-2-1.6 0 .7-.1 1.5-.1 2.4.7 0 1.4-.1 2.1-.3zM316 261.6c-.2 0-.3-.1-.3-.2s.1-.3.4-.4c2.5-1.1 3.1-3.1 3.1-5.2-.4.4-.9.6-1.5.7-1.2 0-2.3-1.1-2.5-3.6v-.4c-.2-1.5.8-2.8 2.3-3h.3c.5 0 .9.1 1.3.4v-2.3c-3.8.2-6.2 1.1-7.9 1.1-.3 0-.7 0-1-.2-1-.3-1.3-.8-1.3-1.2s.3-.5.6-.5c.2 0 .4 0 .6.1.7.3 1.4.4 2.1.3 1.8 0 4.1-.5 7-.9 0-1-.2-2-.6-2.9-.2-.3-.3-.6-.3-1 0-.2.1-.4.3-.4h.1c.3 0 .6.2.9.4.4.2.6.5.8 1 2.1 1.6 4.6 2.8 7.1 3.5.6.2.8.5.8.7s-.3.5-.7.5h-.3c-2-.4-4.1-.6-6.2-.6h-.8v1c0 .7 0 1.6.1 2.5.2.5.3 1 .4 1.6 0 .4.1.9.1 1.4 0 2.8-.6 6.6-4.3 7.6-.4-.1-.5 0-.6 0zm3-9c-.1-1.4-.9-2.1-1.6-2.1-.7 0-1.4.7-1.4 2.1 0 1.8.7 2.5 1.5 2.5s1.5-.8 1.6-2.1l-.1-.4zm4.4-6c.1 0 .2 0 .2-.1s-2-1.2-3.4-2l-.1 2c1.1-.1 2.2 0 3.3.1zM322.7 274.2c0-1.9 1.5-3.5 3.5-3.5 1.9 0 3.5 1.5 3.5 3.5 0 1.9-1.5 3.4-3.4 3.5-2 0-3.6-1.6-3.6-3.5zm.9 0c0 1.4 1.2 2.6 2.6 2.6 1.4 0 2.6-1.2 2.6-2.6 0-1.4-1.2-2.6-2.6-2.6-1.5 0-2.6 1.2-2.6 2.6zM239.1 5.9c4.5.8 3.8 3.8 2.2 3.3-.1-.1-.3-.2-.3-.4-.5-1-1.2-1.8-2.1-2.5-.2-.2-.3-.3-.2-.4.1 0 .3-.1.4 0zm6.5-.7c-1.1 3.2-3.1 8.5-3.5 9.6-.2.7-.4 1.4-.4 2.2 0 1.1.7 2.3.6 4.4 0 1.1-.5 1.7-1.3 1.7-.4 0-.6-.4-.7-1.1v-.5c.3-2.5.1-4.3-.4-4.7-.3-.2-.5-.3-.9-.3-.2-.1-.4-.2-.4-.4s.2-.3.4-.3h.7c.3 0 .4 0 .6-.5.4-.9.4-.9 4.6-10.3.1-.3.2-.3.4-.3.4.1.4.3.3.5zM240.9.3c4.8 1 4 4.2 2.4 3.5-.2 0-.3-.2-.3-.4-.6-1.1-1.3-2-2.3-2.8-.2-.2-.3-.3-.2-.4 0 .1.2.1.4.1zm19.8 19.9c.3.3.8.8 1.2 1.3.2.2.2.4.1.5-.1.1-.3.1-.5.1h-18c-.2 0-.4-.1-.4-.3-.1-.2 0-.3.2-.4H245.7v-8.5c0-.2.1-.3.2-.3s.2 0 .2.1l1.4.6h9.9l.6-.8c.1-.2.3-.2.5-.1h.1l1.5 1.1c.2.2.3.4 0 .5-.3.1-.5.2-.8.2v7.3h.3l.7-1.1c0-.3.2-.4.4-.2zm-13.6-8.7c-.1 0-.2-.2-.2-.4V1.3c0-.3.2-.4.4-.3l1.4.6h8l.6-.7c.1-.1.3-.2.5-.1l.1.1 1.2.9c.2.2.3.4 0 .5-.2.1-.4.1-.6.2v8.3c-.4.3-.8.5-1.3.5-.2 0-.3-.2-.3-.4V10h-8.4v1c-.1.1-.6.5-1.4.5zm2.6 9.9v-7.5h-2.6v7.5h2.6zm-1.3-16h8.4V2.3h-8.4v3.1zm8.4.7h-8.4v3.2h8.4V6.1zm-5.7 7.8v7.5h2.5v-7.5h-2.5zm3.9 7.5h2.6v-7.5H255v7.5zM239.1 35.8c4.6.9 3.9 3.9 2.4 3.4-.2-.1-.3-.2-.3-.4-.5-1-1.3-1.9-2.2-2.6-.2-.2-.3-.3-.2-.4 0 0 .1-.1.3 0zm6.7-.9c-1.1 3.2-3.1 8.7-3.4 9.9-.2.7-.4 1.5-.4 2.2 0 1.1.7 2.3.6 4.3-.1 1.1-.5 1.7-1.4 1.7-.4 0-.7-.4-.7-1v-.5c.3-2.5.2-4.3-.4-4.7-.3-.2-.6-.3-.9-.3-.2 0-.4-.2-.4-.3 0-.2.2-.3.4-.3h.8c.3 0 .4 0 .6-.5.4-.9.4-.9 4.7-10.7.1-.3.2-.3.4-.3.1.1.1.3.1.5zm-4.8-4.5c4.8 1.1 4 4.3 2.4 3.7-.2-.1-.3-.2-.3-.4-.5-1.1-1.3-2.1-2.3-2.9-.2-.2-.3-.3-.2-.4h.4zm13.6 5.3c-.2.1-.4.1-.6.1 2 2.9 4.8 5.2 8 6.6.2.1.3.2.3.3s-.1.2-.3.3c-.4.2-.8.5-1 .9-.1.2-.3.3-.5.2-3.1-1.9-5.5-4.7-7-8-2.2 3.7-5.3 6.7-9.1 8.7-.2.1-.4.1-.4 0-.1-.1 0-.3.2-.4 3.1-2.2 6.6-6.3 7.7-9.4.1-.2.3-.3.4-.3l2 .5c.4.1.6.4.3.5zm-8.8 1.2c1.6-1.8 3-3.9 3.9-6.1.1-.2.2-.3.4-.2h.1l1.7.8c.3.1.4.4.1.5h-.6c-1.4 2.1-3.2 4-5.2 5.4-.2.1-.4.2-.4 0s-.2-.2 0-.4zm12.3 5.9 1.2.9c.2.2.2.4 0 .5-.2.1-.4.1-.6.2v8c-.4.3-.9.5-1.4.5-.2 0-.3-.2-.3-.4V51h-7.9v1.5c0 .1-.5.5-1.3.5-.2 0-.3-.2-.3-.4v-9.5c0-.2.1-.3.2-.3s.2 0 .2.1l1.4.6h7.5l.6-.7c.3-.1.5-.2.7 0-.1-.1 0 0 0 0zm-1 1.4h-7.9v6h7.9v-6zm-1.9-13.5c6.9 2.6 6.4 6.6 4.5 5.9-.2-.1-.3-.2-.3-.3-1.1-2-2.7-3.8-4.5-5.2-.2-.2-.3-.3-.2-.4.2-.1.3 0 .5 0zM248.6 72.3c0-.9.8-1.7 1.7-1.7.9 0 1.7.8 1.7 1.7 0 .9-.8 1.7-1.7 1.7-1 0-1.7-.7-1.7-1.7zM246.7 111.6c-.1 0-.2 0-.2-.1s.1-.2.3-.4c4.7-2.6 5.7-5.3 5.9-11.3-1.6 0-2.9.1-3.9.1l.1 3.5c.1.9-.3 1.4-.7 1.4s-.8-.5-.8-1.3V100c-2.4.2-3.6.4-4.5.4-.7 0-1.3-.2-1.8-.7-.2-.1-.4-.4-.4-.7 0-.3.3-.5.6-.5h.3c.9.4 1.9.5 2.9.4h2.8c0-2.9-.2-3.6-.9-4-.2-.1-.3-.3-.4-.5 0-.2.2-.4.5-.4.1 0 .3 0 .4.1 1.4.6 1.5 1.1 1.5 2.2 0 .6 0 1.2.1 2.6l4-.2v-2.4c0-1.3 0-2.1-1-2.9-.2-.1-.3-.3-.4-.5 0-.2.2-.3.4-.3s.3 0 .5.1c1.2.2 2 1.3 1.9 2.5 0 .5-.1 1.1-.1 1.7v1.8h.9c1.3-.1 2.2-.4 3.1-.4.4 0 .7.1 1 .3.4.2.7.6.8 1 0 .3-.2.4-.6.4h-.3c-1.2-.2-2.5-.3-3.8-.3h-1.2c-.2 8.5-2.6 10.2-7 11.9zM243.1 141.6c-.3 0-.5-.1-.5-.2s.2-.3.7-.4c5.8-1.1 11.2-4.4 11.6-12.7v-.1c0-.3-.2-.5-.5-.4-1.9.2-5.3.3-7.6.3.1 1 .2 2 .4 3v.4c0 .7-.3 1-.7 1-.4 0-.9-.5-.9-1.3 0-2.5-.2-3.8-.8-4.2-.2-.2-.3-.3-.3-.5 0-.1.2-.4.5-.4.1 0 .3 0 .4.1.5.1 1 .4 1.2.9.9 0 2 0 3.2-.1v-1.2c0-1.1-.2-1.6-.7-2-.2-.1-.3-.3-.4-.6 0-.2.2-.4.5-.4h.4c1.2.3 1.6.9 1.5 1.6-.2.8-.3 1.6-.3 2.4 1.6-.1 3.2-.2 4.4-.4h.3c.8 0 1.1.5 1.1 1.3v.4c-.5 5-2.3 12.1-13.3 13.3l-.2.2zM246.6 171.6c-.1 0-.2-.1-.2-.2s.1-.3.2-.4c3-3.6 3.8-6.3 4-11.4-3.8.4-5.5.8-6.5.8-.5 0-1-.2-1.4-.5-.3-.2-.4-.6-.5-1 0-.2.2-.4.4-.5h.1c.1 0 .3.1.4.1.9.4 1.8.5 2.8.5 1.6-.1 3.1-.2 4.7-.5v-2.6c0-1-.3-1.9-.9-2.7-.2-.2-.4-.5-.5-.9 0-.2.2-.4.6-.4.2 0 .4 0 .6.1 1.5.4 1.8 1.2 1.8 2v.4c-.1.3-.1.6-.1.9V158.4c.9-.1 1.9-.2 3-.4.9-.1 1.5-.3 2.2-.3.4 0 .8.1 1.2.2.8.3 1.1.7 1.1 1s-.3.5-.9.4c-.8-.1-1.7-.2-2.5-.2h-.8c-1.2 0-2.3.2-3.3.2-.2 5.1-1.5 8.8-5.2 11.9-.1.3-.2.3-.3.4zM249.9 201.3c-3.2 0-5.1-1.3-5.1-3.1 0-1.6 1.5-3.5 5-5.1-.2-1.3-.9-2.2-2-2.2s-2.3.8-3.9 2.6c-.2.3-.6.6-1 .6s-.8-.3-.8-.7c0-.4.2-.7.5-.9 2.7-2.2 4.5-4.3 5.2-6.1-.5.2-1 .2-1.6.3-.4 0-.9-.1-1.3-.3-.4-.2-.7-.7-.8-1.2 0-.3.2-.5.5-.6h.1c.2 0 .3 0 .5.1.5.3 1 .4 1.5.4s1-.1 1.4-.3c0-.5-.2-.9-.5-1.3-.2-.1-.3-.3-.3-.6s.2-.5.5-.5c.4 0 .7.2.9.5l1.5.3c.3.1.5.2.5.5 0 .2-.1.5-.2.7-.4.7-.9 1.2-1.6 1.5-.6 1.6-1.4 3.1-2.5 4.4 0 .1-.1.1-.1.2s.1.1.3 0c.4-.2.9-.3 1.4-.3.8 0 1.6.4 2.1 1 2.2-2.7 4.4-3.7 5.8-3.7 1 0 1.6.5 1.6 1.2 0 1.2-1.7 3.1-6.3 4.7h-.1c.1.4.1.9.1 1.4 0 .5-.1 1-.2 1.6-.2.8-.7 1.1-1.1 1.1-.4 0-.7-.3-.7-.8v-.1c0-.2 0-.4.1-.5.2-.7.3-1.4.4-2.1-2.6 1.3-4 2.9-4 4.1 0 1 1 1.7 2.9 1.7 1.4 0 2.8-.3 4.1-.7.2-.1.5-.1.7-.1.8 0 1.4.4 1.4.8s-.3.6-1 .8c-1.2.4-2.5.6-3.9.7zm-.1-17.3c.1-.1.1-.1.1-.2s-.1-.1-.2-.2c-.2-.1-.4-.1-.6-.2.1.3.2.6.2.9.2 0 .4-.2.5-.3zm6.2 5c0-.3-.3-.4-.6-.4-1 0-3 1-4.7 3.3.1.2.2.4.3.7 3.7-1.7 5-3 5-3.6zM241.9 226c0-.5.1-1.1.2-1.6.6-2.4 1.1-4.8 1.3-7.2 0-.5-.1-1-.3-1.5-.2-.3-.4-.6-.4-1 0-.3.2-.5.4-.5.4.1.8.3 1.1.7.3.5.5 1.1.4 1.7 0 2.3-1.2 6-1.6 7.8v.3c0 .3.1.4.2.4s.3-.2.4-.6c.4-1.5 1.1-2.9 1.9-4.2.2-.2.3-.3.4-.3.1 0 .2.1.2.3 0 .1 0 .2-.1.3-.7 1.6-1.9 4.8-1.9 6.8 0 .3 0 .6.1.9.1.3.2.7.2 1 0 .7-.3 1-.7 1-.4 0-.9-.4-1.2-1.3-.4-1-.6-2-.6-3zm13.2 1.6c0 1.9-2 2.9-3.9 2.9-1.7 0-3.3-.8-3.3-2.5 0-1.6 1.7-2.5 3.8-2.5.7 0 1.5.1 2.2.2 0-1.1.1-2.7.1-4.3v-1.8c-1.6 0-3.2-.5-4.4-1.7-.2-.1-.3-.3-.3-.5s.1-.2.3-.2c.2 0 .3.1.5.2 1.2.7 2.5 1.1 3.9 1-.1-2.2-.3-4-.6-4.5-.2-.2-.3-.5-.4-.9 0-.2.1-.4.4-.4h.1c.3 0 .5.1.7.2.9.4 1.4 1.2 1.3 2.2 0 .4 0 .8-.1 1.3.5.3 1.1.5 1.6.6.6.1.9.4.9.7 0 .3-.4.8-1.2 1.3-.5.3-1 .5-1.5.6-.1.9-.1 1.9-.1 3 0 1.2 0 2.2.1 3.5 1.1.3 2.2 1 3 1.8.3.3.5.8.6 1.3 0 .4-.2.7-.6.7-.4 0-.7-.2-1.2-.8-.5-.6-1.1-1.1-1.9-1.4zm-4.3 1.8c1.4 0 3-.8 3-2.4-.8-.3-1.6-.4-2.5-.5-1.5 0-2.6.5-2.6 1.6.1.8 1.1 1.3 2.1 1.3zM256 218c.1-.1.1-.1.1-.2s-.1-.2-.2-.3c-.3-.2-.5-.4-.7-.6l-.1 1.3c.4 0 .7-.1.9-.2zM249.4 261.3c-2.6 0-4.6-1.7-4.6-5.1v-.9c.5-5.6 1-8.1 1-9.4 0-.5-.1-1-.4-1.4-.1-.2-.2-.3-.2-.6 0-.2.1-.4.3-.4.2 0 .3.1.5.2.9.4 1.4 1.3 1.3 2.2 0 1.6-.8 4.3-1.2 9.3v.6c0 2.6 1.5 3.9 3.7 3.9s5.1-1.3 7.9-4c.1-.1.3-.2.5-.2.1 0 .2.1.2.2 0 .2-.1.3-.2.4-2.7 3.4-6.1 5.2-8.8 5.2zm2.7-15c-.1-.1-.2-.3-.3-.4 0-.2.1-.3.3-.3h.3c1.1.3 1.9 1.1 2.5 2.1.1.2.2.4.2.7 0 .4-.3.7-.6.7h-.1c-.4 0-.8-.3-.9-.7-.3-.9-.8-1.6-1.4-2.1zm2.3-.4c-.2-.1-.3-.3-.3-.5s.1-.3.3-.3h.3c1 .3 1.8.9 2.4 1.7.1.2.1.4.2.6 0 .4-.3.7-.7.7-.3 0-.6-.2-.8-.6-.3-.6-.8-1.2-1.4-1.6zM249.6 291c-.2 0-.3-.1-.3-.2s.1-.3.4-.3c5.1-.6 8-4.3 8-7.6 0-2.6-1.9-5-6.1-5.3-.5 2.2-1.2 4.3-2.2 6.3.3.2.5.6.6 1 0 .4-.3.7-.6.7s-.5-.1-.7-.3c-1.3 2.1-2.8 3.7-4.3 3.7-1.9 0-2.8-1.6-2.8-3.6.1-2.6 1.2-5 3.2-6.7-.4-1-1-2-1.8-2.7-.2-.1-.3-.3-.3-.5s.1-.2.3-.2c.1 0 .2 0 .4.1 1 .7 1.8 1.6 2.2 2.7 1.5-1 3.3-1.6 5.1-1.7v-.7c0-.7-.1-1.3-.5-1.9-.2-.2-.3-.5-.3-.7 0-.2.2-.4.5-.4.4 0 .7.2 1 .4.5.5.7 1.3.6 2 0 .4 0 .8-.1 1.3 4.7.4 7.2 3.4 7.2 6.7-.1 3.7-3 7.3-9.5 7.9zm-1.8-6.3c-1.2-1.4-2.1-3.1-2.7-5-1.5 1.3-2.3 3.2-2.4 5.2 0 1.5.6 2.6 1.7 2.6 1.3 0 2.4-1.2 3.4-2.8zm2.7-7c-1.6 0-3.2.5-4.5 1.4.6 1.5 1.5 2.9 2.7 4.1.8-1.8 1.4-3.6 1.8-5.5zM255.5 300.5c2 .5 3.7 1.7 5 3.2.4.5.6 1.1.6 1.7.1.5-.3 1.1-.8 1.1h-.2c-.5 0-.9-.3-1.2-1.1-.8-1.8-2.1-3.3-3.7-4.4-.2-.1-.3-.3-.2-.5.1-.1.3-.1.5 0zM205.9 18.1c-.2 0-.3-.1-.3-.2s.2-.3.4-.3c3.9-.9 7.1-3.5 8.9-7.1.1-.1.1-.2.1-.4 0-.1 0-.2-.1-.3-.3-.2-.6-.4-.9-.5-.3-.1-.5-.3-.5-.5s.2-.3.6-.3c2 0 2.9 1.1 2.9 2 0 .3-.1.5-.2.8-2.5 3.6-6.4 6.1-10.7 6.8h-.2zm14.8-8.3c-.1-.1-.3-.3-.3-.4 0-.1.2-.3.3-.2.1 0 .2 0 .3.1 2.5 1.3 4.1 2.7 5.1 4.7.2.3.3.6.3 1 0 .5-.4 1-.9 1h-.1c-.6-.1-1.2-.5-1.4-1.1-.6-2-1.8-3.7-3.3-5.1zM215.3 47.5v-1c.3-4.4.5-7.1.5-9 .1-1.5-.2-2.9-.6-4.3-.1-.2-.1-.4-.1-.6 0-.4.2-.7.5-.7s.6.2 1 .8c.4.6.6 1.3.6 2 0 1.6-.6 3.8-.6 8.3 0 1.1.1 2.4.2 3.8.1 1 .2 2 .4 3.1v.3c.1.4-.3.8-.7.9-.4 0-.8-.4-.9-1-.3-.9-.3-1.8-.3-2.6zM215.3 66.3c0-2-.3-2.7-.9-3.3-.3-.2-.4-.4-.5-.7 0-.3.3-.5.6-.5h.3c1.4.3 1.6 1 1.6 1.6v.4c-.1.6-.2 1.2-.2 1.8v4.1c2.4 0 4.8 1.1 6.3 3 .3.3.4.7.4 1.1.1.5-.3.9-.8 1h-.1c-.6 0-1-.4-1.3-.9-1.3-2.4-2.5-3.3-4.5-3.5 0 2.6.2 5.4.4 8.8.1 1.4-.4 2-1 2s-1.1-.7-1-1.9c.4-7 .7-10.8.7-13zm5.1.5c-.1-.1-.2-.3-.3-.5 0-.2.1-.3.4-.3h.3c1 .3 1.9 1 2.5 2 .1.2.2.4.2.7 0 .4-.2.7-.6.7h-.1c-.4 0-.8-.3-.9-.7-.5-.7-1-1.4-1.5-1.9zm2.2-.4c-.2-.1-.3-.2-.3-.4s.2-.3.4-.3h.2c1 .3 1.8.9 2.4 1.7.1.2.1.3.2.5 0 .4-.3.7-.6.7-.4 0-.7-.3-.8-.6-.4-.6-.9-1.2-1.5-1.6zM212.6 111.6c-.1 0-.2 0-.2-.1s.1-.2.3-.4c4.7-2.6 5.7-5.3 5.9-11.3-1.6 0-2.9.1-3.9.1l.1 3.5c.1.9-.3 1.4-.7 1.4s-.8-.5-.8-1.3V100c-2.4.2-3.6.4-4.5.4-.7 0-1.3-.2-1.8-.7-.2-.1-.4-.4-.4-.7 0-.3.3-.5.6-.5h.3c.9.4 1.9.5 2.9.4h2.8c0-2.9-.2-3.6-.9-4-.2-.1-.3-.3-.4-.5 0-.2.2-.4.5-.4.1 0 .3 0 .4.1 1.4.6 1.5 1.1 1.5 2.2 0 .6 0 1.2.1 2.6l4-.2v-2.4c0-1.3 0-2.1-1-2.9-.2-.1-.3-.3-.4-.5 0-.2.2-.3.4-.3s.3 0 .5.1c1.2.2 2 1.3 1.9 2.5 0 .5-.1 1.1-.1 1.7v1.8h.9c1.3-.1 2.2-.4 3.1-.4.4 0 .7.1 1.1.3.4.2.7.6.8 1 0 .3-.2.4-.6.4h-.3c-1.2-.2-2.5-.3-3.8-.3h-1.2c-.4 8.3-2.9 10-7.2 11.8.2.1.2.1.1.1zM217.3 131.6c0-1.6-.5-2-.9-2.1-2.8 2.3-5.9 4.1-9.2 5.6l-.3.1c-.2 0-.2-.1-.2-.2s.1-.3.3-.4c5.6-3.4 8.2-5.5 11.6-9.3.3-.3.6-.7.6-1.1 0-.2-.1-.4-.2-.6 0-.1 0-.2-.1-.3 0-.3.2-.4.5-.4.4 0 .8.2 1.1.4.4.2.6.6.7 1-.1.6-.4 1.1-.8 1.4-1.3 1.2-2.4 2.3-3.5 3.2 1.2.2 1.5.9 1.5 1.7v.5c-.2 1.5-.2 2.9-.2 4.2 0 1.9.1 3.5.2 4.9 0 1-.4 1.5-.8 1.5s-.8-.5-.8-1.4c.4-2.1.6-6.7.5-8.7zM208.8 171c-.2 0-.2-.1-.2-.2s.1-.3.4-.4c4.8-2.3 7.7-4.7 9.6-7.7-.6-.8-1.3-1.5-2.2-2-.3-.1-.4-.3-.4-.4s.1-.2.3-.2c.1 0 .2 0 .3.1.9.4 1.8.9 2.6 1.4.8-1.5 1.4-3.1 1.9-4.8v-.2c0-.1-.1-.2-.2-.3h-.1c-1.7.2-3.2.3-4.5.3-1.5 3.2-3.3 4.7-6.4 6.4-.1.1-.2.1-.3.1-.1 0-.1-.1-.2-.1 0-.1.1-.3.3-.4 2.5-1.7 4.5-4.2 5.7-7 .2-.3.3-.7.3-1.1 0-.3-.1-.7-.4-.9-.2-.2-.4-.5-.5-.8 0-.2.2-.3.5-.3.2 0 .3 0 .5.1 1.1.4 1.5 1 1.5 1.6 0 .4-.1.8-.3 1.2l-.2.4c1.7 0 3.3-.2 4.9-.5h.5c.4-.1.9.2.9.7v.2c0 .4-.1.9-.3 1.3-.7 1.7-1.6 3.3-2.6 4.9.5.4 1 1 1.3 1.6.2.3.3.6.3 1s-.3.8-.8.8c-.6-.1-1.2-.5-1.4-1.2l-.4-.8c-2.4 3.3-5.4 5.4-10.2 7.1 0 .1-.1.1-.2.1zm12.8-18.3c-.2-.1-.3-.3-.3-.5 0-.1.1-.3.3-.3.1 0 .2 0 .3.1 1.1.3 1.9 1.1 2.5 2.1.1.2.2.4.2.6 0 .3-.2.6-.6.7h-.1c-.4 0-.8-.3-.9-.7-.3-.8-.8-1.4-1.4-2zm2.2-.3c-.1-.1-.2-.3-.2-.4 0-.2.1-.3.3-.3.1 0 .2 0 .3.1 1 .2 1.8.8 2.4 1.7.1.2.2.4.2.6 0 .4-.3.7-.7.7-.4 0-.7-.3-.9-.7-.3-.8-.8-1.3-1.4-1.7zM215.3 197.6v-1c.3-4.4.5-7.1.5-9 .1-1.5-.2-2.9-.6-4.3-.1-.2-.1-.4-.1-.6 0-.4.2-.7.5-.7s.6.2 1 .8c.4.6.6 1.3.6 2 0 1.6-.6 3.8-.6 8.3 0 1.1.1 2.4.2 3.8.1 1 .2 2 .4 3.1v.3c.1.4-.3.8-.7.9-.4 0-.8-.4-.9-1-.3-.9-.3-1.8-.3-2.6zM227.3 226.4h-.4c-1 .7-2.1 1.2-3.2 1.7 1 1.4 2.5 2.5 4.1 3.1.2.1.3.2.3.3 0 .1-.1.1-.3.2-.4.2-.7.5-.8.9-.1.3-.2.3-.5.2-2.8-1.6-4.3-4.2-5.1-8h-.4c-.5.6-1.1 1.1-1.7 1.6v4.1c1.1-.2 2.2-.4 3.4-.7.2-.1.4 0 .4.1s-.1.2-.3.3c-1.4.6-3.4 1.4-6 2.3 0 .1-.1.3-.2.4-.1.1-.3.1-.4 0l-.1-.1-.6-1.2c-.1-.1-.1-.3.1-.4 0 0 .1 0 .2-.1.6-.1 1.3-.2 2.1-.4v-3.5c-1 .6-2 1.1-3 1.5-.2.1-.4 0-.5-.1l-.1-.2v3.3c0 .2 0 .3-.2.4-.3.2-.7.4-1.1.4-.1 0-.2-.2-.2-.4v-1.6h-6.3v1.7c0 .2-.5.6-1.2.6-.1 0-.2-.2-.2-.4v-16.7c0-.3.2-.4.5-.3l1.1.5h.9v-3.5h-2.5c-.2 0-.4-.1-.4-.3-.1-.2 0-.3.2-.4h7.3l.9-1.1c.1-.2.3-.2.5-.1.4.3 1 .8 1.5 1.3.2.2.3.4.1.5-.1.1-.3.1-.5.1h-3.2v3.5h1.1l.6-.7c.1-.2.3-.2.5-.1l1.3 1 .3.3v.1c1.2-.7 2.3-1.6 3.3-2.7.1-.2.4-.2.5-.1l1.2.7c.3.1.3.5 0 .5h-.5c-1.4 1-2.9 1.8-4.6 2.3-.1.1-.3 0-.4-.1-.1-.1-.1-.2 0-.3h.1c-.2.1-.4.1-.6.2v11.3c1.8-.9 3.4-2.2 4.7-3.7h-4c-.2 0-.4-.1-.4-.3-.1-.1 0-.3.1-.4h3.2v-2h-1.8c-.2 0-.4-.1-.4-.3-.1-.2 0-.3.2-.4h2.1v-1.9h-2.4c-.2 0-.4-.1-.4-.3 0-.3.1-.4.3-.4h2.4V217c0-.2.1-.3.3-.4h.1l1.3.2c.3 0 .5.3.3.4-.1.1-.3.2-.5.2v1.4h2.8V217c0-.3.2-.4.4-.4l1.3.1c.3 0 .5.3.2.5-.1.1-.3.1-.4.2v1.3h.8l.7-.9c.1-.2.3-.2.5-.1h.1c.3.3.9.7 1.3 1.1.2.2.3.4.1.5-.1.1-.3.1-.5.1h-2.9v1.9h.8l.7-.9c.1-.2.3-.2.5-.1l.1.1c.3.2.8.7 1.2 1 .2.2.3.4 0 .5-.1.1-.3.1-.4.1h-2.8v2h1.2l.8-1c.1-.2.3-.2.5-.1.4.3.9.7 1.4 1.2.2.2.3.4.1.5-.1.1-.3.1-.5.1H222c.3 1 .8 2 1.4 3 .8-.7 1.6-1.5 2.3-2.3.1-.2.3-.2.5-.1l.9.7c.3.1.4.4.2.4zm-14.4-.5v-3.1c-.3 0-.6.1-.9.1h-.7c-.9 0-1.1-.4-1.1-1.1v-4.9h-1.3v1.1c0 1.8-.2 4.4-2.3 6.2v1.7h6.3zm-6.3-2.6c.9-1.6 1.3-3.5 1.1-5.4v-1h-1.1v6.4zm6.3 3.3h-6.3v3.4h6.3v-3.4zm-2.7-10.5v-3.5h-1.3v3.5h1.3zm1.2 5.3c0 .3.1.3.2.3h1.2v-4.8h-1.4v4.5zm8.5-10.7c0-.2.1-.3.3-.4h.1l1.6.2c.3 0 .5.3.3.5s-.4.3-.7.3v1.6h3l.9-1.1c.1-.2.3-.2.5-.1.4.3 1 .8 1.5 1.3.2.2.3.4.1.5-.1.1-.3.1-.5.1h-11.5c-.2 0-.4-.1-.4-.3-.1-.2 0-.3.2-.4h4.8l-.2-2.2zm2.3 10.6v-1.9h-2.8v1.9h2.8zm0 2.7v-2h-2.8v2h2.8zm.2-9.9c5.4.6 5.5 3.3 4 3.2-.2 0-.3-.1-.4-.2-1.2-1-2.4-1.8-3.8-2.5-.2-.1-.3-.3-.3-.4.1-.1.3-.2.5-.1zM218 260.9c2.8 0 6.6 0 9.5-.1.3 0 .4.1.4.2s-.1.2-.3.3c-.4.2-.7.5-.8.9 0 .2-.2.3-.4.4H218c-4.5 0-6.5-.6-8.3-3.5-1.1 1.2-2.3 2.4-3.6 3.4v.3c-.1.3-.4.2-.5-.1l-.8-1.4c-.1-.1-.1-.3.1-.4 0 0 .1 0 .1-.1 1-.5 2.3-1.2 3.6-1.9v-7.4h-3.4c-.2 0-.4-.1-.4-.3-.1-.3.1-.4.4-.4h3l.7-1c.1-.1.3-.2.4-.1l.1.1 1.5 1.3c.2.2.2.4 0 .5-.3.1-.6.2-.9.2v6.7c1.8 2.1 3.7 2.4 8 2.4zm-11.7-19.8c5.4 1.9 4.4 5.5 2.7 4.7-.2-.1-.3-.2-.3-.4-.6-1.5-1.5-2.8-2.7-3.9-.2-.2-.3-.4-.2-.4.2-.1.3-.1.5 0zm8.5 3.8c-.6 1-1.3 1.9-2.2 2.8-.2.2-.3.2-.4.1s-.1-.2 0-.4c1.1-2 1.9-4.1 2.3-6.3 0-.2.2-.3.4-.3h.1l1.7.5c.3.1.4.4.2.5-.2.1-.4.1-.6.1-.3.8-.6 1.5-1 2.3h3.4v-3.4c0-.2.1-.3.3-.4h.1l1.7.2c.3 0 .5.3.3.5s-.5.3-.7.3v2.9h3.2l1-1.2c.1-.2.3-.2.5-.1.6.4 1.1.9 1.7 1.4.2.2.3.4.1.5-.2.1-.3.1-.5.1h-5.8v3.7h4.1l1-1.2c.1-.2.3-.2.5-.1h.1c.4.3 1.1.9 1.6 1.4.2.2.3.4.1.5-.1.1-.3.1-.5.1h-15.4c-.2 0-.4-.1-.4-.3-.1-.2 0-.3.2-.4h7.1V245l-4.2-.1zm8.8 14v-1.2h-8.1v1.2c0 .2-.7.5-1.4.5-.2 0-.3-.2-.3-.4v-7.8c0-.2.1-.3.2-.3s.2 0 .2.1l1.3.6h7.8l.6-.7c.1-.1.4-.1.5 0l1.3 1c.2.2.3.4 0 .5-.2.1-.4.2-.6.2v6c0 .2 0 .3-.2.4-.4.2-.8.4-1.2.4h-.1v-.5zm0-6.6h-8.1v4.7h8.1v-4.7zM205 292.9c-.2.2-.3.3-.4.2-.1-.1-.1-.3 0-.5 1.8-3.6 2-7.9 2-11.7v-4.7c0-.2.1-.3.3-.3h.2l1.5.7h4.5l.6-.7c.1-.2.4-.2.5-.1l1.4 1c.2.2.2.4 0 .5-.2.1-.5.2-.7.3v6.4c0 .2 0 .3-.2.4-.4.2-.8.4-1.2.4-.1 0-.2-.2-.2-.4v-1.1h-5c-.3 3.1-.9 6.8-3.3 9.6zm0-20.2c-.1-.2 0-.3.2-.4H213.6l1-1.2c.1-.2.3-.2.5-.1h.1c.4.3 1 .9 1.6 1.4.2.2.3.4.1.5-.2.1-.3.1-.5.1h-10.8c-.4 0-.6-.1-.6-.3zm3.2 8.2v1.7h5v-5.3h-5v3.6zm17.9-3.6c.4.3 1.1.9 1.6 1.4.2.2.3.4.1.5-.1.1-.3.1-.5.1h-2.8v13.4c-.3.4-.8.6-1.4.5-.2 0-.3-.2-.3-.4v-13.6H219c0 4.4-.6 9.9-5.7 13.6-.2.1-.3.2-.4.1-.1-.1-.1-.3.1-.5 3.8-3.9 4.4-8.6 4.4-13.2V273c0-.3.2-.4.4-.3l1.3.4c2-.7 3.9-1.6 5.8-2.6.1-.1.4-.1.5 0l1.6 1.3c.2.2.2.5-.1.5-.3 0-.6 0-.9-.2-2.3.7-4.6 1.3-7 1.6v4.8h5.6l.9-1.2c.1-.2.3-.2.5-.1 0 0 .1 0 .1.1zM221.4 300.5c2 .5 3.7 1.7 5 3.2.4.5.6 1.1.6 1.7.1.5-.3 1.1-.8 1.1h-.2c-.5 0-.9-.3-1.2-1.1-.8-1.8-2.1-3.3-3.7-4.4-.2-.1-.3-.3-.2-.5.2-.1.4-.1.5 0zM185.7 16.6c-4.4.2-6.4.5-7.5.5-.7.1-1.3-.2-1.8-.7-.3-.2-.5-.6-.6-.9 0-.2.2-.4.4-.4s.3.1.5.1c.8.4 1.7.6 2.6.5 1.2 0 3-.2 6.1-.4.4 0 .8-.1 1.2-.1.4-2.3.5-3.9.7-6 0-.3-.1-.3-.3-.3-5.8.3-8.2.6-9.5.6-.6.1-1.2-.2-1.6-.7-.3-.3-.5-.6-.5-1 0-.2.1-.4.4-.5h.1c.2 0 .5.1.7.3.9.5 1.9.7 2.9.7 1.7 0 4.1-.3 7.9-.7h.5c.8 0 1.1.3 1.1.9 0 .3 0 .6-.1.9-.3 1.3-.7 3.6-1.2 6.2.2 0 .4.1.6.2.5.2.7.6.7.9 0 .3-.3.6-.6.6-.1 0-.3 0-.4-.1-.7-.5-1.5-.6-2.3-.6zM174.7 37.4c-.4-.1-.5-.3-.5-.5s.2-.4.6-.3c1.6.1 3.1.7 4.3 1.8.4.3.6.7.7 1.1 0 .4-.4.8-.8.8h-.1c-.4 0-.8-.2-1.1-.6-.9-.9-1.9-1.7-3.1-2.3zm1 10.1v-.4c.1-.4.3-.6.5-.6s.3.2.4.5.4.4.6.4c3.9 0 9.9-5.1 13.8-10.4.1-.2.3-.3.5-.4.1 0 .2.1.2.2s0 .2-.1.3c-3.6 6.3-10.4 12-14.4 12-.8 0-1.5-.8-1.5-1.6zM183.8 79.4c-5.6 0-6.3-1.8-6.1-4.4.2-2.6.2-4.4.2-5.9 0-2.1-.2-3.3-.7-3.7-.2-.1-.4-.4-.5-.6 0-.3.3-.5.8-.4 1.6.1 2 .9 2 1.8 0 .3 0 .5-.1.8-.2 1.4-.4 2.8-.5 4.2 2.8-.6 5.4-1.7 7.8-3.1.3-.2.4-.4.5-.8 0-.2 0-.3-.1-.5-.1-.1-.1-.3-.1-.4 0-.3.2-.4.5-.4s.6.1.8.3c.4.3.6.7.7 1.2 0 2.1-6.3 4-10 4.4-.1.9-.1 2-.1 3.1-.1 2.6 1.6 3.3 3.5 3.4h.8c3.3 0 4.1-.9 5.3-.9 1.3 0 1.7.5 1.7.9 0 .3-.3.6-1 .7-2.2.1-4 .3-5.4.3zm4-16.1c-.1-.1-.2-.3-.3-.4 0-.2.1-.3.4-.3h.3c1 .3 1.9 1 2.5 2 .1.2.2.4.2.6 0 .4-.3.7-.6.7-.4 0-.8-.3-.9-.7-.5-.8-1-1.4-1.6-1.9zm2.3-.4c-.2-.1-.3-.3-.3-.5s.1-.3.3-.3h.3c1 .2 1.8.8 2.4 1.7.1.2.1.4.2.6 0 .4-.3.7-.6.7s-.6-.2-.8-.6c-.5-.6-1-1.2-1.5-1.6zM187.3 106c-5.6 0-8.9.7-11.1.7-1 .1-2-.2-2.7-.9-.2-.2-.4-.5-.4-.9 0-.3.2-.5.5-.5.2 0 .3.1.5.2 1.2.6 2.6.9 4 .8 1.8 0 4.5-.2 8.5-.6l2.7-.3c.5 0 1 .1 1.5.3.6.3.8.6.8.9 0 .3-.5.7-1.2.6-1.1-.1-2.1-.2-3.1-.3zm-1.8-7h-1.3c-4 0-5.4.4-6.4.4-.5 0-1-.2-1.4-.5-.5-.4-.7-.7-.7-1 0-.2.1-.4.3-.4.1 0 .2 0 .3.1.7.3 1 .5 3.2.5 1.2 0 2.9 0 5.5-.2.9 0 1.5-.3 2-.3.4 0 .7.1 1 .3.5.2.7.6.7.8s-.3.5-.9.4c-.7 0-1.4-.1-2.3-.1zM173.5 136.1c0-.3.2-.5.5-.5.1 0 .2 0 .4.1.9.4 1.8.6 2.7.5 1 0 2.5-.1 5.1-.3v-1.7c0-1.6-.1-3-.1-3.8 0-.5-.2-1.1-.6-1.5-1 .2-2 .3-3.1.3-.6 0-1.1-.1-1.6-.5s-.7-.7-.7-.9.2-.3.4-.3c.1 0 .2 0 .4.1.6.3 1.2.4 1.9.4 1.1 0 3-.3 7-.7 1-.1 1.5-.2 1.9-.2.2 0 .4 0 .6.1.5.1.9.5.9 1 0 .2-.1.4-.3.4h-.1c-.1 0-.2 0-.3-.1-.6-.2-1.2-.3-1.8-.3h-.8l-2.8.4c.5.3.7.5.7.9 0 .2 0 .4-.1.6-.3 1.8-.4 3.7-.4 5.6l4-.3c1.1-.1 1.9-.3 2.6-.3.4 0 .8.1 1.2.3.6.3.9.6.9.9s-.3.4-.8.3c-.8-.1-1.7-.2-2.5-.2h-1.2c-7.8.3-10.3.9-11.5.9-.7 0-1.3-.3-1.8-.7-.6-.1-.7-.3-.7-.5zM174.7 157.5c-.4-.1-.5-.3-.5-.5s.2-.4.6-.3c1.6.1 3.1.7 4.3 1.8.4.3.6.7.7 1.1 0 .4-.4.8-.8.8h-.1c-.4 0-.8-.2-1.1-.6-.9-1-1.9-1.8-3.1-2.3zm1 10v-.4c.1-.4.3-.6.5-.6s.3.2.4.5.4.4.6.4c3.9 0 9.9-5.1 13.8-10.4.1-.2.3-.3.5-.4.1 0 .2.1.2.2s0 .2-.1.3c-3.6 6.3-10.4 12-14.4 12-.8 0-1.5-.7-1.5-1.6zM173.1 200.2c-.2 0-.3 0-.3-.2s.2-.3.4-.4c6.9-3.8 9.8-7.6 12.2-12.5 0-.1.1-.2.1-.3 0-.2-.2-.4-.5-.3-1.7.5-3.4.8-5.1 1-.7.1-1.4-.1-1.8-.7-.2-.3-.4-.6-.4-1 0-.3.2-.5.5-.5h.1c.1 0 .3 0 .4.1.8.5 1.8.7 2.7.7 1.4 0 2.7-.3 4-.8.3-.1.7-.2 1-.2.9 0 1.5.5 1.5 1.2 0 .4-.1.7-.3 1-1.2 1.9-2.5 3.8-3.9 5.5 2.3.4 4.3 1.9 5.4 4 .1.3.2.5.2.8 0 .5-.3.9-.8.9h-.1c-.6-.1-1.1-.4-1.3-1-.7-1.9-2.1-3.4-3.9-4.3-2.6 3-5.4 4.7-9.6 6.7-.2.3-.4.3-.5.3zM173.1 230.3c-.2 0-.3 0-.3-.2s.2-.3.4-.4c6.9-3.8 9.8-7.6 12.2-12.5 0-.1.1-.2.1-.3 0-.2-.2-.4-.5-.3-1.7.5-3.4.8-5.1 1-.7.1-1.4-.1-1.8-.7-.2-.3-.4-.6-.4-1 0-.3.2-.5.5-.5h.1c.1 0 .3 0 .4.1.8.5 1.8.7 2.7.7 1.4 0 2.7-.3 4-.8.3-.1.7-.2 1-.2.9 0 1.5.5 1.5 1.2 0 .4-.1.7-.3 1-1.2 1.9-2.5 3.8-3.9 5.5 2.3.4 4.3 1.9 5.4 4 .1.3.2.5.2.8 0 .5-.3.9-.8.9h-.1c-.6-.1-1.1-.4-1.3-1-.7-1.9-2.1-3.4-3.9-4.3-2.6 3-5.4 4.7-9.6 6.7-.2.2-.4.3-.5.3zM181 246.4c0-2-.3-2.7-.9-3.3-.3-.2-.4-.4-.5-.7 0-.3.3-.5.6-.5h.4c1.3.3 1.6 1 1.6 1.6v.4c-.1.6-.2 1.2-.2 1.8 0 1.1-.1 2.1-.1 3.3v.8c2.5 0 4.8 1.1 6.3 3.1.3.3.4.7.5 1.1 0 .5-.4.9-.9 1h-.1c-.6 0-1-.4-1.2-.9-1.3-2.4-2.6-3.3-4.6-3.5.1 2.6.2 5.4.4 8.8.1 1.4-.4 2-1 2s-1.1-.7-1-1.9c.4-7.2.7-10.9.7-13.1zM176.6 291.4c-.1 0-.2-.1-.2-.2 0-.2.2-.3.3-.4 3.6-2.1 5.1-6.4 5.1-9.7.1-1.6-.4-3.1-1.4-4.3-.2-.1-.3-.3-.3-.6-1 .2-2.1.3-3.2.3-.8.1-1.5-.2-2.1-.7-.3-.2-.5-.6-.5-1 0-.3.2-.5.5-.5h.1c.1 0 .3.1.4.2.7.6 1.6.9 2.5.9 1.7 0 4.5-.5 10.7-1.4h.4c.9 0 1.3.5 1.3 1 0 .4-.1.7-.4 1-1.8 2.3-4 4.2-6.6 5.5-.4 4.3-2 7.2-6.2 9.7-.1.2-.3.2-.4.2zm10.9-15.4c0-.1.1-.2.1-.3 0-.1-.1-.3-.2-.3h-.1c-2.3.2-4.3.5-5.9.7.2.1.4.1.5.2 1 .5 1.4 1.2 1.4 3.2v1.4c1.8-1.2 3.3-2.9 4.2-4.9zM187.4 300.5c2 .5 3.7 1.7 5 3.2.4.5.6 1.1.6 1.7.1.5-.3 1.1-.8 1.1h-.2c-.5 0-.9-.3-1.2-1.1-.8-1.8-2.1-3.3-3.7-4.4-.2-.1-.3-.3-.2-.5.2-.1.3-.1.5 0zM144.8 19.1c-1 0-1.5-.8-1.5-1.9.1-3.5.1-5.8.1-7.2 0-2.2-.1-2.6-.6-3-.2-.1-.3-.4-.3-.6 0-.3.2-.5.6-.5h.3c1.5.3 1.8.9 1.8 1.4 0 .2-.1.5-.2.7v1.2c-.1 1.5-.1 3.5-.1 5.4v1.6c0 .4.2.6.5.6.1 0 .2 0 .3-.1 4.2-1.7 7-4.2 11.1-8.7.1-.1.3-.2.4-.3.1 0 .2.1.2.2s-.1.3-.2.4c-2.7 3.8-6.1 7-9.9 9.6-.8.7-1.6 1.1-2.5 1.2zM139 50.2c-.2 0-.3 0-.3-.2s.2-.3.4-.4C146 45.8 149 42 151.3 37c0-.1.1-.2.1-.3 0-.2-.2-.4-.5-.3-1.7.5-3.4.8-5.1 1-.7.1-1.4-.1-1.8-.7-.2-.3-.4-.6-.4-1 0-.3.2-.5.5-.5h.1c.1 0 .3 0 .4.1.8.5 1.8.7 2.7.7 1.4 0 2.7-.3 4-.8.3-.1.7-.2 1-.2.9 0 1.5.5 1.5 1.2 0 .4-.1.7-.3 1.1-1.2 1.9-2.5 3.8-3.9 5.5 2.3.4 4.3 1.9 5.4 4 .1.3.2.5.2.8 0 .5-.3.9-.8.9h-.1c-.6-.1-1.1-.4-1.3-1-.7-1.9-2.1-3.4-3.9-4.3-2.6 3-5.4 4.7-9.6 6.7-.2.3-.3.3-.5.3zM147 66.3c0-2-.3-2.7-.9-3.3-.3-.2-.4-.4-.5-.7 0-.3.3-.5.6-.5h.4c1.3.3 1.6 1 1.6 1.6v.4c-.1.6-.2 1.2-.2 1.8 0 1.1-.1 2.1-.1 3.3v.8c2.4 0 4.8 1.1 6.3 3 .3.3.4.7.5 1.1 0 .5-.3 1-.8 1h-.1c-.6 0-1-.4-1.2-.9-1.3-2.4-2.6-3.3-4.6-3.5.1 2.6.2 5.4.4 8.8.1 1.4-.4 2-1 2s-1.1-.7-1-1.9c.3-7 .6-10.8.6-13zM141.9 111.2c-.2 0-.3-.1-.3-.2s.1-.3.3-.3c5.4-2.2 9.6-6.2 10.7-11.7v-.2c0-.2-.1-.3-.4-.3-4.4.4-6.4.9-7.7.9-.7 0-1.3-.2-1.8-.6-.5-.4-.7-.8-.7-1.1 0-.3.2-.5.5-.5.1 0 .3.1.4.1.9.5 1.8.7 2.8.6 1.5 0 3.4-.3 6.5-.7h.6c1.1 0 1.8.5 1.8 1.4 0 .2 0 .4-.1.6-1.9 6.7-7.4 10.4-12.4 11.9 0 .1-.1.1-.2.1zm8.9-16.3h-.9c-1.8.1-3.4.6-4.5.6-.5 0-1-.1-1.4-.5-.4-.4-.6-.7-.6-.9s.2-.3.4-.3c.1 0 .3 0 .4.1.7.2 1.4.4 2.1.3 1.1 0 2.2-.2 3.3-.4.6-.1 1.1-.2 1.7-.3.4 0 .7.1 1.1.2.8.4 1.1.7 1.1 1 0 .3-.3.5-.7.5h-.5c-.5-.2-1-.3-1.5-.3zM140.7 127.4c-.4-.1-.5-.3-.5-.5s.2-.4.6-.3c1.6.1 3.1.7 4.3 1.8.4.3.6.7.7 1.1 0 .4-.4.8-.8.8h-.1c-.4 0-.8-.2-1.1-.6-.9-.9-2-1.7-3.1-2.3zm1 10.1v-.4c.1-.4.3-.6.5-.6s.3.2.4.5c.1.4.4.4.6.4 3.9 0 9.9-5.1 13.8-10.4.1-.2.3-.3.5-.4.1 0 .2.1.2.2s0 .2-.1.3c-3.6 6.3-10.4 12-14.4 12-.9 0-1.5-.7-1.5-1.6zM140.2 166.9c-.3 0-.5-.4-.5-1 0-.4.1-.8.3-1.2 1.2-2.7 2.3-4.9 3-6.7-.8 0-1.6-.3-2.4-.7-.2-.1-.3-.3-.3-.5 0-.1.1-.3.2-.3h.3c.8.4 1.6.5 2.5.5.3-.7.4-1.5.5-2.3 0-.3-.1-.6-.2-.9-.1-.2-.1-.4-.1-.6 0-.3.2-.5.4-.5.3 0 .6.2.9.7.3.4.5.9.5 1.4.7.3 1.8.7 2.6.9.3.1.5.4.6.7 0 .4-.3.7-.7.7-1.1.4-2.3.7-3.6.8-1.1 2.4-2.1 4.9-2.9 7.5-.3 1.1-.7 1.5-1.1 1.5zm6-10.6c.1-.1.2-.1.2-.2s-.1-.1-.2-.2c-.3-.2-.7-.4-1.1-.6-.1.5-.3 1-.5 1.5.6-.1 1.1-.3 1.6-.5zm5 11.2v.9c0 1.8-1.6 2.6-3.1 2.6s-3.1-.9-3.1-2.6c0-1.7 1.6-2.5 3.8-2.5.4 0 .8 0 1.2.1 0-.9-.1-1.7-.1-2.5-.1-1.1.2-2.2.8-3.2.2-.3.3-.4.5-.4.1 0 .2.1.2.3 0 .1 0 .3-.1.4-.3.6-.4 1.3-.4 2 0 1.1.2 2.3.3 3.5 1.2.3 2.3.7 3.4 1.3.5.2.9.7.9 1.3 0 .3-.2.6-.5.6-.2 0-.3-.1-.5-.2-1.1-.6-2.2-1.2-3.3-1.6zm-3.3 2.4c1 .1 1.9-.6 1.9-1.6 0-.4.1-.7.1-1.1-.5-.1-1.1-.2-1.6-.2-1.5 0-2.3.6-2.3 1.4.1.8.9 1.5 1.9 1.5zm4.6-10.3c-.2 0-.3-.1-.3-.2s.1-.2.3-.3l1.2-.3c.2 0 .2-.1.2-.2s0-.2-.1-.3c-.6-.7-1.4-1.4-2.2-1.9-.3-.2-.4-.3-.4-.5 0-.1.1-.2.3-.2.1 0 .2 0 .3.1 1.7.4 3.2 1.3 4.2 2.8.1.2.2.4.2.6 0 .5-.4.7-.9.7-.2 0-.3 0-.5-.1-.8-.2-1.6-.2-2.3-.2zM148.9 200c-3.8 0-5.9-1.3-5.9-3.2 0-1.5 1.3-3.4 4.2-5.3-2.5-1.5-1.5-6.4-3-7.3-.4-.2-.5-.4-.5-.6s.2-.3.6-.3c.3 0 .6.1.9.2 1.3.6 1.5 1.7 1.5 3v1.6c0 1.2.1 2.4 1.1 3.1 1.3-.8 2.6-1.4 3.9-2 .4-.1.7-.5.8-1 0-.2-.1-.4-.2-.6-.1-.1-.1-.2-.1-.4s.2-.3.5-.3.6.1.9.3c.5.2.8.7.9 1.3 0 .7-.6 1.5-1.8 2-5.9 2.4-8.3 4.7-8.3 6.3 0 1.3 1.5 2.1 3.9 2.1 1.6 0 3.1-.3 4.6-.8.2-.1.3-.1.5-.1.8 0 1.4.5 1.4 1 0 .3-.3.5-.9.7-1.8.2-3.4.3-5 .3zm4.7-15.8c-.1-.1-.2-.3-.3-.5 0-.2.1-.3.3-.3.1 0 .2 0 .3.1 1 .3 1.9 1 2.5 2 .1.2.2.4.2.6 0 .4-.3.7-.6.7h-.1c-.4 0-.8-.3-.9-.7-.3-.6-.8-1.3-1.4-1.9zm2.3-.3c-.2-.1-.3-.2-.3-.4s.1-.3.3-.3h.3c1 .3 1.8.9 2.4 1.7.1.2.1.3.2.5 0 .4-.3.7-.6.7-.4 0-.7-.3-.8-.6-.5-.6-.9-1.2-1.5-1.6zM110.7 14.8c.2-.1.4-.1.4 0 .1.1 0 .2-.2.4-1.8 1.1-4.1 2.8-7.1 4.6 0 .1-.1.3-.2.4-.2.2-.4.2-.5-.1l-.6-1.4c-.1-.3-.1-.4.2-.5.7-.3 1.8-.7 3-1.2V8.4H103c-.2 0-.4-.1-.4-.3-.1-.2 0-.3.2-.4H105.6V1c0-.2.1-.3.3-.4h.1l1.7.2c.3 0 .5.3.3.5s-.5.2-.7.3v6.1h.9l.8-1.1c.2-.2.3-.2.5-.1.4.3 1 .8 1.4 1.3.2.2.2.4 0 .5-.1.1-.3.1-.5.1h-3.2v7.9l3.5-1.5zm15 6.2c0 .9-1.1 1.1-6.5 1.1h-3.8c-2.5 0-3.3-.5-3.3-2.2V10l-2.8 1.1c-.2.1-.4 0-.5-.1-.1-.1-.1-.3 0-.4l.1-.1 3.2-1.2V2.4c0-.3.2-.4.4-.4l1.6.2c.3 0 .5.3.3.5s-.4.3-.7.3v5.6l3.4-1.3V.5c0-.2.1-.3.3-.4h.1l1.6.2c.3 0 .4.2.3.4-.2.2-.4.3-.7.3v5.6l3.4-1.3.2-.1.6-.7c.1-.2.3-.2.5-.1l1.3 1c.2.2.3.4 0 .5-.3.1-.4.1-.6.2-.1 6.6-.4 9-1.2 9.9-.5.5-1.1.7-1.7.8-.3 0-.4-.1-.4-.4 0-.3-.1-.6-.3-.8-.3-.2-.6-.3-1-.4-.2-.1-.3-.2-.3-.3s.2-.2.4-.2c.5.1 1.2.1 1.5.1s.5-.1.7-.2c.5-.5.7-3 .8-8.7l-3.9 1.5V18c0 .2-.7.6-1.3.6-.2 0-.3-.2-.3-.4V8.1l-3.4 1.3v10.2c0 .8.3 1 1.9 1h3.7c1.8 0 3 0 3.6-.1.3 0 .5-.1.7-.4.4-1.1.7-2.3.9-3.5 0-.2.2-.4.3-.4.1 0 .2.2.2.4v3.5c.5.4.7.5.7.9zM110.1 45.4c-1.5 1-3.6 2.5-6.3 4.2 0 .1-.1.3-.2.4-.2.2-.4.1-.5-.1l-.7-1.4c-.1-.3 0-.4.2-.5.7-.2 1.7-.6 2.9-1.1V38H103c-.2 0-.4-.1-.4-.3 0-.2.1-.4.3-.4h2.6V31c0-.2.1-.3.3-.4h.1l1.7.2c.3 0 .5.3.3.5s-.5.3-.7.3v5.8h.5l.9-1.1c.1-.2.3-.2.4-.1 0 0 .1 0 .1.1.4.3.9.8 1.4 1.3.2.2.3.4.1.5-.1.1-.3.1-.5.1h-2.9v8.3c.9-.4 1.9-.8 2.8-1.2.2-.1.4-.1.4 0 0-.2-.1 0-.3.1zm7.5 1c-1.9.8-4.5 2-7.9 3.3 0 .1-.1.3-.2.4-.2.2-.4.1-.5-.1l-.6-1.2c-.1-.2 0-.4.2-.5 1.8-.4 5.2-1.3 8.8-2.3.2-.1.4 0 .4.1.1 0 0 .2-.2.3zm8 6.3c-.6.6-1.8-.1-2.7-1.1-1.2-1.3-2.1-2.7-2.7-4.4-2.1 2.4-4.7 4.3-7.7 5.4-.2.1-.4 0-.4-.1-.1-.1 0-.3.2-.4 3-1.5 5.5-3.7 7.4-6.4-1-3.4-1.5-6.8-1.6-10.3h-7.9c-.2 0-.4-.1-.4-.3-.1-.2 0-.3.2-.4h8.2c-.1-1.3-.1-2.5-.1-3.8 0-.2.1-.3.3-.4h.1l1.6.2c.3 0 .5.3.3.4-.2.2-.5.3-.7.3v3.3h3.2l.9-1.1c.1-.2.3-.2.5-.1.4.3 1 .8 1.4 1.3.2.2.3.4.1.5-.1.1-.3.1-.5.1h-5.6c.1 2.9.5 5.8 1.2 8.6 1-2 1.8-4 2.4-6.2 0-.2.2-.3.4-.3h.1l1.6.5c.3.1.4.4.2.5-.2.1-.5.1-.7.1-.7 2.6-1.8 5-3.3 7.2.5 1.6 1.4 3 2.6 4.2.3.3.5.4.7-.1.3-.8.6-1.5.8-2.4.1-.3.2-.4.3-.4.1 0 .2.2.1.4l-.4 3.6c0 .7.2 1.3-.1 1.6zm-10.4-7.8V44H112v1.5c0 .1-.5.5-1.2.5-.1 0-.2-.2-.2-.4V38c0-.2.1-.3.2-.3h.2l1.2.5h2.8l.5-.5c.1-.1.4-.1.5 0l1 .8c.2.2.3.4 0 .5-.1.1-.3.1-.4.1v5.5c0 .2 0 .3-.2.4-.3.2-.6.3-1 .3h-.1c0-.1-.1-.2-.1-.4zm0-6H112v4.3h3.2v-4.3zm5.8-7.7c3.4.9 2.6 3.2 1.3 2.7-.2-.1-.2-.2-.3-.4-.3-.7-.7-1.4-1.2-1.9-.2-.2-.3-.3-.2-.4s.1 0 .4 0zM111.8 79.6c0-.1.1-.2.4-.2 4.2 0 9.1-1.9 9.1-6.9 0-4.4-3.2-6.4-6.6-6.4-.3 0-.7 0-1 .1v1.3c0 7.3-3 10.7-5.4 10.7-1.6 0-2.9-1.4-2.9-4.2 0-5.6 5.1-8.9 9.7-8.9 3.9 0 7.6 2.3 7.6 7.3s-3.9 7.6-8.8 7.6c-.6 0-1.2 0-1.8-.1-.2-.1-.3-.2-.3-.3zm-3.4-3.4c1.9 0 4.7-3.1 4.6-10-3.6.7-6.2 3.8-6.2 7.5-.1 1.6.6 2.5 1.6 2.5zM123.5 93.6c.4.3 1.2.9 1.8 1.5.2.2.3.4.1.5-.1.1-.3.1-.5.1h-12.1c-.1 1.6-.3 3.2-.5 4.6h7.3l.7-.8c.1-.1.3-.2.5 0l1.3 1.1c.2.2.2.4 0 .5-.2.1-.4.1-.7.2-.3 5.3-1 9.7-2.2 10.8-.7.6-1.6 1-2.6 1-.2 0-.4-.1-.4-.3v-.1c0-.4-.2-.7-.5-.8-.9-.4-1.8-.6-2.7-.7-.2 0-.4-.2-.4-.3s.2-.2.4-.2c1.4.2 3.4.3 4 .3.4 0 .7-.1 1-.3.9-.7 1.4-4.8 1.7-9.6h-7.6c-1 5.2-3.3 9.2-8.8 12-.2.1-.4.1-.4 0-.1-.1 0-.3.2-.4 5.9-4.1 7.4-9.6 7.7-16.9h-7.7c-.2 0-.4-.1-.4-.3 0-.2.1-.4.3-.4h10.1v-4.5c0-.3.2-.4.4-.4l1.7.2c.3 0 .5.3.3.5s-.4.3-.7.3v3.9h7.1l1-1.3c.1-.3.3-.4.6-.2-.1-.1-.1-.1 0 0zM119.3 120.4c2 .5 3.7 1.7 5 3.2.4.5.6 1.1.6 1.7.1.5-.3 1.1-.8 1.1h-.2c-.5 0-.9-.3-1.2-1-.8-1.8-2.1-3.3-3.7-4.4-.2-.2-.3-.3-.2-.5.2-.1.3-.2.5-.1zM115.8 151.1c-.2.1-.5.1-.7.2 2.2 3.2 6.2 5.9 10.5 7.8.2.1.3.2.3.3s-.1.2-.3.3c-.5.2-.9.5-1.1.9-.1.2-.3.3-.4.2h-.1c-3.9-2.2-7.6-5.6-9.3-9.2-3 4.3-7 7.8-11.7 10.2-.2.1-.4.1-.4 0-.1-.1 0-.3.2-.4 4-2.5 8.8-7.4 10.3-11 .1-.2.3-.3.5-.2l2.2.6c.1-.1.2.2 0 .3zm7.3 19c.4.3 1.2.9 1.8 1.5.2.2.3.4 0 .5-.1.1-.3.1-.5.1h-20.7c-.2 0-.4-.1-.4-.3-.1-.2.1-.4.3-.4h9.5v-5.4h-6.2c-.2 0-.4-.1-.4-.3 0-.2.1-.4.3-.4h6.3v-4.8h-5.9c-.2 0-.4-.1-.4-.3-.1-.2 0-.3.2-.4h11.5l.9-1.1c.2-.2.3-.2.5-.1.4.3 1 .8 1.5 1.2.2.2.3.4.1.5-.1.1-.3.1-.5.1h-6.2v4.8h4.4l1-1.2c.1-.1.3-.2.5-.1l.1.1c.4.3 1.1.8 1.6 1.3.2.2.3.4.1.5-.1.1-.3.1-.5.1h-7.1v5.4h6.8l1-1.3c.1-.2.3-.3.4-.2-.1.1 0 .2 0 .2zM124.8 182.5c-.2.1-.5.2-.8.3v19.5c-.3.4-.8.6-1.4.7-.2 0-.3-.2-.3-.4v-1.3h-16.8v1.1c0 .2-.6.7-1.3.7-.2 0-.3-.2-.3-.4v-21.4c0-.2.1-.3.3-.3h.2l1.3.7h16.4l.7-.8c.1-.2.3-.2.5-.1l1.4 1.1c.3.3.3.5.1.6zm-2.4-.1h-16.8v18.1h16.8v-18.1zm-2.5 13.5c.4.3 1 .8 1.4 1.2.2.2.3.4.1.5-.1.1-.3.1-.5.1h-13.6c-.2 0-.4-.1-.4-.3-.1-.2 0-.3.2-.4H113.2v-5.6h-4.3c-.2 0-.4-.1-.4-.3-.1-.1 0-.3.1-.4h4.5v-4.5h-5.3c-.2 0-.4-.1-.4-.3 0-.2.1-.4.3-.4h10.2l.9-1.1c.1-.2.3-.2.5-.1l1.4 1.2c.2.2.3.4.1.5-.1.1-.3.1-.5.1h-5.7v4.5h2.7l.8-1c.1-.2.3-.2.5-.1l.1.1c.3.3.9.7 1.4 1.2.2.2.3.4.1.5-.2.1-.3.1-.5.1h-5v5.6h3.9l.8-1c0-.2.2-.3.4-.2 0 0 .1 0 .1.1zm-3.3-3.7c3.8 1.6 2.9 4.1 1.6 3.5-.2-.1-.2-.2-.3-.4-.4-1-.9-1.9-1.6-2.7-.2-.2-.2-.3-.1-.4 0-.1.2-.1.4 0zM111.8 229.6c0-.1.1-.2.4-.2 4.2 0 9.1-1.9 9.1-6.9 0-4.4-3.2-6.4-6.6-6.4-.3 0-.7 0-1 .1v1.3c0 7.3-3 10.7-5.4 10.7-1.6 0-2.9-1.4-2.9-4.2 0-5.6 5.1-8.9 9.7-8.9 3.9 0 7.6 2.3 7.6 7.3s-3.9 7.6-8.8 7.6c-.6 0-1.2 0-1.8-.1-.2 0-.3-.2-.3-.3zm-3.4-3.4c1.9 0 4.7-3.1 4.6-10-3.6.7-6.3 3.9-6.2 7.6-.1 1.6.6 2.4 1.6 2.4zM123.5 243.6c.4.3 1.2.9 1.8 1.5.2.2.3.4.1.5-.1.1-.3.1-.5.1h-12.1c-.1 1.6-.3 3.2-.5 4.6h7.3l.7-.8c.1-.1.3-.2.5 0l1.3 1.1c.2.2.2.4 0 .5-.2.1-.4.1-.7.2-.3 5.3-1 9.7-2.2 10.8-.7.6-1.6 1-2.6 1-.2 0-.4-.1-.4-.3v-.1c0-.4-.2-.7-.5-.8-.9-.4-1.8-.6-2.7-.8-.2 0-.4-.2-.4-.3s.2-.2.4-.2c1.4.2 3.4.3 4 .3.4 0 .7-.1 1-.3.9-.7 1.4-4.8 1.7-9.6h-7.6c-1 5.2-3.3 9.2-8.8 12-.2.1-.4.1-.4 0-.1-.1 0-.3.2-.4 5.9-4.1 7.4-9.6 7.7-16.9h-7.7c-.2 0-.4-.1-.4-.3 0-.2.1-.4.3-.4h10.1v-4.4c0-.2.1-.3.3-.4h.1l1.7.2c.3 0 .5.3.3.4-.2.2-.4.3-.7.3v3.9h7.1l1-1.3c.1-.2.2-.3.4-.2.1.1.1.1.2.1zM119.3 270.5c2 .5 3.7 1.7 5 3.2.4.5.6 1.1.6 1.7.1.5-.3 1.1-.8 1.1h-.2c-.5 0-.9-.3-1.2-1.1-.8-1.8-2.1-3.3-3.7-4.4-.2-.1-.3-.3-.2-.5.2-.1.4-.1.5 0zM80.3 17.1c0-1.2.4-2.4 1.1-3.4.1-.1.2-.2.4-.2.1 0 .2 0 .2.2 0 .1-.1.3-.2.4-.4.8-.7 1.7-.7 2.6 0 1.2.5 2.1 1.7 2.1 2.4 0 3.6-1.6 3.6-3.2 0-1.7-1.4-3.2-3.1-3.2h-.2c-.9 0-1.7.2-2.5.6-1 .5-1.9 1-2.8 1.6 0 1 .1 2.2.2 3.5.1 1.5-.5 2.4-1.3 2.4-.5 0-.9-.3-1.1-.7-.5-.8-1.2-1.5-2-2-.5.4-1.1.6-1.7.7-1 0-1.5-.5-1.5-1s.5-.9 1.5-.9c.4 0 .9.1 1.3.3.9-.6 2.2-1.6 3.5-2.5v-4.1c-.7.3-1.4.4-2.2.4-.8 0-1.7-.3-2.2-1-.1-.1-.2-.3-.3-.5 0-.1.1-.2.3-.2.1 0 .3 0 .4.1.5.4 1.2.6 1.9.7.7 0 1.5-.2 2.1-.6-.1-2.6-.3-4.5-.9-4.9-.3-.1-.4-.4-.5-.7 0-.3.2-.5.4-.5h.1c.3 0 .6.1.9.3 1 .6 1.2 1.2 1.1 2.9.6.4 1.2.6 1.9.7.9.2 1.3.5 1.3 1 0 .4-.4.8-1.1 1.1-.8.3-1.6.7-2.3.9v3.7c.9-.6 1.7-1.1 2.7-1.6 1-.5 2.1-.8 3.2-.9 2.3 0 4.2 1.8 4.2 4.1v.2c0 2.2-1.6 4.4-5.2 4.3-1.6 0-2.2-1.3-2.2-2.7zm-7.6.1c-.2-.1-.5-.1-.8-.1-.3 0-.5.1-.5.2s.2.2.5.2c.3-.1.6-.2.8-.3zm3.8 1.1c.2 0 .3-.1.3-.5v-2.5c-.9.7-1.7 1.4-2.5 1.9.8.4 1.5.8 1.6.9.2.1.4.2.6.2zm2.2-10c.2-.1.3-.2.3-.3 0-.1-.1-.2-.3-.4-.3-.2-.5-.4-.8-.6l-.1 1.7.9-.4zm6.8-.7c-.5 0-1.1.2-1.5.6-.1.1-.2.2-.4.2-.1 0-.2-.1-.2-.2s.1-.3.2-.4c.6-.8 1.5-1.2 2.5-1.2s2 .4 2.8 1.1c.2.2.4.6.4.9 0 .4-.3.7-.7.8h-.1c-.4 0-.8-.3-1-.6-.4-.6-1.1-1.1-2-1.2zM89.4 44.3c.4.3 1.2 1 1.8 1.5.2.2.3.4.1.5-.2.1-.3.1-.5.1h-8.9v6c0 .1-.6.6-1.4.6-.2 0-.3-.2-.3-.4v-6.2h-11c-.2 0-.4-.1-.4-.3 0-.2.1-.4.3-.4H73v-6.9c0-.3.2-.4.4-.3l1.6.7h5.2v-4.7h-5.8c-1.5 2.2-3.3 4.1-5.5 5.6-.2.2-.3.1-.4 0-.1-.1 0-.2.1-.4 2.6-2.8 4.6-6.1 6-9.7 0-.2.2-.3.4-.2h.1l1.8.7c.3.1.4.4.1.5-.2.1-.4.2-.7.1-.4.9-.9 1.8-1.5 2.6h12l1-1.3c.2-.2.3-.2.5 0 .4.3 1.2.9 1.8 1.5.2.2.3.4.1.5-.2.1-.3.1-.5.1h-7.9v4.7h4.4l1-1.2c.1-.2.3-.2.5-.1.4.3 1.1.9 1.7 1.4.2.2.3.4.1.5-.1.1-.3.1-.5.1h-7.2v5.8h5.9l1.1-1.3c.2-.1.4-.2.6-.1-.1 0 0 0 0 0zm-9.3-4.4h-5.5v5.8h5.5v-5.8zM89.5 70.7l1.7 1.4c.2.2.3.4.1.5-.1.1-.3.1-.5.1h-4v8c0 1.2-.3 2-2.4 2.3-.3 0-.4-.1-.5-.3-.1-.3-.3-.6-.5-.8-.7-.3-1.4-.5-2.1-.6-.2 0-.4-.1-.4-.2s.2-.2.4-.2c.8.1 2.7.2 3.2.2s.6-.2.6-.5v-7.9H69.3c-.2 0-.4-.1-.4-.3-.1-.2 0-.3.2-.4H88l1-1.2c.1-.2.3-.2.5-.1zm-18.8-4.3c-.6.4-1.5.4-1.8-.2-.2-.5.1-1.1.6-1.3h.1c1.1-.7 1.7-1.8 1.7-3.1 0-.3.1-.4.2-.4s.3.1.3.3c.1.3.1.6.2.9h7.1v-2.2c0-.2.1-.3.3-.4h.1l1.7.2c.3 0 .5.3.3.5s-.4.3-.7.3v1.7h7.7l.8-.8c.1-.1.3-.2.5 0l1.3 1.3c.2.2.2.4-.1.5h-.6c-.7.8-1.6 1.5-2.5 2.1-.2.1-.3.1-.4 0-.1-.1-.1-.2 0-.4.3-.6.6-1.3.9-2H72.1c.1 1.2-.4 2.3-1.4 3zm9.1 1.5c9.8.9 7.6 4.4 5.9 3.2-1.9-1.3-4.1-2.3-6.4-2.7-1.1 1.2-3.4 2.2-8 3-.2 0-.3 0-.5-.2-.1-.1 0-.2.4-.3 4.8-1 6.6-2.4 7.2-4h-5.9c-.2 0-.4-.1-.4-.3-.1-.2 0-.3.2-.4h6.4c.1-.6.2-1.2.2-1.9 0-.3.1-.4.4-.4l1.7.2c.3 0 .5.3.2.5-.1.1-.3.2-.5.2 0 .5-.1 1-.2 1.5h4.6l.8-1c.1-.1.3-.2.4-.1 0 0 .1 0 .1.1.4.3 1 .7 1.4 1.2.2.2.3.4.1.5-.1.1-.3.1-.5.1h-7.2c0 .2-.2.5-.4.8zM81.1 80c-.4.2-.8.3-1.2.4-.2 0-.3-.2-.3-.4v-.6h-5.3v1.3c-.4.3-.9.5-1.4.5-.2 0-.3-.2-.3-.4v-6.3c0-.2.1-.3.2-.3s.2 0 .2.1l1.3.6h4.9l.6-.7c.1-.1.3-.2.5 0l1.3 1c.1.1.2.2.1.4 0 .1-.1.1-.1.1-.2.1-.4.1-.6.2v3.9c.3 0 .3.1.1.2zm-1.4-4.5h-5.3v3.2h5.3v-3.2zM75.5 110.6c0-.1.2-.3.6-.3 3.8-.4 7.7-2.9 8-7.7v-.8c0-3.5-2.1-5.2-4.1-5.2-1.9 0-3.6 1.5-3.6 4.1 0 1 .2 2 .6 3 .1.3.2.6.2.9 0 .6-.3.8-.6.8s-.7-.2-.8-.5c-.5-1-.9-2-1.1-3.1-.1-.4-.1-.9-.1-1.3 0-2.1.7-3.7.7-5.2 0-.7-.2-1.4-.7-2-.1-.1-.2-.3-.2-.5 0-.3.3-.5.6-.5s.5.1.8.3c.7.5 1 1.2 1 2 0 1.4-.8 2.9-1 3.9v.1s0 .2.1.2.1-.1.2-.2c.6-1.9 2.4-3.1 4.3-3.2 2.6 0 5.3 2.3 5 7.1-.3 4.9-4.5 8.6-9.3 8.4-.4 0-.6-.1-.6-.3zM71.8 140.7c-.4 0-.6-.3-.7-.6 0-.2.1-.4.2-.6 2.2-2.9 3.9-6.1 5.2-9.5-1.3.7-2.2 1.6-3.4 1.6-.2 0-.4 0-.7-.1-.8-.3-1.1-.6-1.1-.9s.4-.5 1.2-.5h.4c1.2-.1 2.4-.4 3.5-1l.5-.2c.2-.8.4-1.7.4-2.6 0-.5-.1-1-.3-1.5-.1-.2-.2-.4-.2-.7 0-.2.1-.4.4-.5h.1c.3 0 .6.2.9.5.3.4.5 1 .5 1.6 0 .9-.2 1.8-.5 2.7.6-.2 1.1-.3 1.7-.3 2.2 0 3.3 1.8 3.3 4.2-.1 2.6-1.1 5.1-2.8 7-.2.4-.6.6-1.1.6-.5 0-.9-.3-1.2-.6-.4-.5-.9-.9-1.5-1.2-.4-.2-.5-.4-.5-.6 0-.2.1-.2.4-.2h.4c.6.3 1.3.5 2 .6.3 0 .6-.1.8-.4 1.4-1.6 2.2-3.5 2.3-5.6 0-1.6-.7-2.8-2.4-2.8-.6 0-1.2.1-1.8.4-1.4 3.7-3.2 7.3-5.2 10.7-.1.2-.4.5-.8.5zm13.5-6.6c-.2 0-.4-.2-.4-.4s.2-.3.6-.3c1.5 0 2.3-.5 2.3-1.3s-.6-1.8-1.8-3.2c-.1-.1-.2-.3-.2-.5s.1-.2.2-.2c.2 0 .4.1.6.2 1.6 1 2.7 2.6 2.9 4.5v.3c0 .8-.5 1.3-1.4 1.3-1-.1-2-.2-2.8-.4zM76.2 170.7c0-.1.2-.3.6-.3 6.6.1 9.3-3 9.3-5.5.1-1.6-1.2-2.9-2.8-3H83c-1.6 0-3.8.9-6.3 3.5-.4.5-1.1.8-1.7.9-.9 0-1.5-.8-1.4-2 .1-1.7.5-4.3.8-6.3.3-2 2.2-2.1 4.2-2.4.1 0 .2-.1.3-.3 0-.1 0-.2-.1-.3-.6-.8-1.4-1.4-2.3-1.7-.3-.1-.4-.3-.4-.4s.2-.3.4-.3c2.5.1 3.3.8 4 1.9.3.4.4.8.5 1.3 0 .5-.3.9-1 .9-.3 0-.5 0-.8-.1-.6-.2-1.2-.3-1.9-.3-.9-.1-1.7.5-1.8 1.4v.3c0 .6-.4 3.6-.6 5v.3c0 .6.2.8.6.8.4-.1.8-.2 1.2-.5 2.7-1.9 5-2.7 6.7-2.7 2.7 0 4.2 1.8 4.2 3.8 0 2.8-2.8 6.2-9.3 6.2-.4 0-.9 0-1.3-.1-.7 0-.8.1-.8-.1zM89.3 188.1l1.7 1.4c.2.2.3.4.1.5-.2.1-.3.1-.5.1H78c-.7 1.2-1.6 2.4-2.5 3.4l1.1.5h9.5l.7-.7c.1-.1.3-.2.5-.1l.1.1 1.4 1.1c.2.2.3.4 0 .5-.2.1-.5.2-.7.3v7.1c0 .2 0 .3-.2.4-.4.2-.8.3-1.2.4-.2 0-.3-.2-.3-.4v-1.3h-10v1.2c0 .2-.6.6-1.4.6-.2 0-.3-.2-.3-.4v-8.2c-1.7 1.8-3.6 3.3-5.8 4.4-.2.1-.4.1-.4 0-.1-.1 0-.2.2-.4 3.1-2.2 5.7-5.1 7.5-8.4h-6.9c-.2 0-.4-.1-.4-.3-.1-.2 0-.4.3-.4h7.4c.6-1.2 1.2-2.5 1.6-3.8 0-.2.2-.3.4-.2h.1l1.8.7c.3.1.4.4.1.5-.2.1-.5.1-.7.1-.4 1-.9 1.9-1.4 2.9h9.3l1-1.3c0-.2.2-.3.4-.3 0-.1 0 0 .1 0zm.3-6.2 1.6 1.4c.2.2.2.4.1.5-.2.1-.3.1-.5.1h-6.2v2.1c0 .2-.6.5-1.4.5-.2 0-.3-.2-.3-.4v-2.3h-6.1v2.3c0 .2-.8.5-1.4.5-.2 0-.3-.2-.3-.4v-2.3H69c-.2 0-.4-.1-.4-.3 0-.3.1-.4.4-.4h6.2v-2.6c0-.2.1-.3.3-.4h.1l1.7.2c.3 0 .5.2.3.4s-.4.3-.7.3v2.1H83v-2.6c0-.2.1-.3.3-.4h.1l1.7.2c.3 0 .5.3.3.4-.2.2-.4.3-.7.3v2.1H88l1-1.2c.1-.2.3-.2.5-.1h.1zm-13.3 18.7h10v-5.8h-10v5.8zM89.4 217.1c.4.3 1.1.9 1.7 1.4.2.2.3.4.1.5-.1.1-.3.1-.5.1h-8.4c-1.5 1.2-3.2 2.2-4.9 3.2h8l.7-.8c.1-.1.3-.2.5 0l1.4 1.1c.2.2.3.4 0 .5-.2.1-.5.2-.8.3v8.8c0 .2 0 .3-.2.4-.4.2-.8.3-1.2.4-.1 0-.3-.2-.3-.4v-1h-9.4v1c0 .2-.7.6-1.4.6-.1 0-.2-.2-.2-.4v-9c-1.9 1-3.9 1.8-5.9 2.5-.2.1-.4 0-.4-.1-.1-.1 0-.3.3-.4 2.1-.9 4.1-1.9 6.1-3v-.8c0-.2.1-.3.2-.3h.2l.7.3c1.5-.9 2.9-1.9 4.2-2.9H69.1c-.2 0-.4-.1-.4-.3-.1-.2 0-.3.2-.4h8.7v-3.8h-5.9c-.2 0-.4-.1-.4-.3-.1-.2 0-.3.2-.4h6.1v-3.3c0-.3.2-.4.4-.4l1.6.2c.3 0 .5.3.3.5l-.6.3v2.8H82l.9-1.2c.1-.2.3-.2.5-.1h.1c.4.3 1.1.9 1.6 1.3l.3.3c.9-1 1.7-2 2.4-3 .1-.2.3-.2.5-.1h.1l1.5 1.1c.2.2.3.5 0 .5-.2 0-.4 0-.7-.2-1.7 2.1-3.7 4.1-5.9 5.8H88l1-1.2c.1-.2.3-.2.4-.1zm-13.1 9.3h9.4V223h-9.4v3.4zm9.4.7h-9.4v3.7h9.4v-3.7zm-.6-12.6c-.1 0-.2.1-.3.1h-5.5v3.8H81c1.4-1.2 2.8-2.5 4.1-3.9zM81 257.9c-.3 2-2.3 3-4.1 3s-3.4-.9-3.4-2.5c0-1.7 1.8-2.5 4-2.5.7 0 1.4.1 2.2.2 0-1.4.1-2.7.1-3.9-1.9.1-3.7-.2-5.4-1-.4-.2-.5-.4-.5-.6s.2-.3.4-.3c.1 0 .2 0 .4.1 1.3.4 2.6.6 3.9.6.4 0 .9 0 1.3-.1v-3l-2.7.3c-1.4.1-2.7-.3-3.8-1.2-.2-.1-.4-.4-.5-.7 0-.1.1-.3.3-.3.2 0 .4.1.5.2 1.1.5 2.3.8 3.5.8.9 0 1.8-.1 2.7-.3-.1-1.6-.3-2.6-.9-3.2-.2-.2-.3-.4-.3-.7 0-.2.1-.4.4-.4h.1c.4 0 .7.2 1 .4.9.5 1.1 1.1 1.1 2.5v1.1c1-.3 2-.6 3-1 .2-.1.5-.1.7-.2.7 0 1.3.5 1.3.9 0 .2-.2.5-.7.6-1.7.5-3 .8-4.3 1 .9 1.1 2.2 1.7 3.6 1.9.5 0 .8.3.8.6s-.3.6-.8.8c-1.3.5-2.6.8-4 1v4.2c1.1.3 2.1.8 3 1.6.5.4.8.9.9 1.5 0 .3-.2.6-.5.7h-.1c-.3 0-.5-.2-.7-.4-.8-.5-1.6-1.2-2.5-1.7zm-4.3 1.9c1.4 0 3-.8 3-2.4-.9-.3-1.8-.4-2.7-.5-1.5 0-2.6.5-2.6 1.4.1.9 1.1 1.5 2.3 1.5zm6.4-9.2c.2 0 .3-.1.3-.2s-.1-.2-.3-.3c-.8-.4-1.5-.9-2-1.6 0 .7-.1 1.5-.1 2.4.7 0 1.4-.1 2.1-.3zM83.1 290c-4.4 0-5.1-2.3-5.1-6.1 0-3.9 1.4-6 2.7-7.3-3 1-5.5 2.5-7.3 2.5-.4 0-.8-.1-1.2-.3-.5-.2-.9-.8-1-1.4 0-.2.2-.4.4-.5h.1c.2 0 .4.1.5.2.4.2.9.3 1.4.3 3 0 7.7-2.9 13-2.9 1 0 1.6.6 1.6 1 0 .3-.3.5-1 .5-.6-.1-1.3-.2-2-.2-.9 0-1.7.1-2.6.3-2.1 1.5-3.7 2.9-3.7 8.2 0 3 .7 4.2 3.1 4.2h1.5c1 0 1.7.5 1.7 1 0 .3-.3.6-.9.6-.4-.1-.8-.1-1.2-.1zm1.3-11.2c-.1-.1-.2-.3-.3-.5 0-.2.1-.3.3-.3.1 0 .2 0 .3.1 1 .4 1.9 1.1 2.5 2.1.1.2.2.4.2.6 0 .3-.2.6-.6.7h-.1c-.4 0-.8-.3-1-.7-.3-.8-.7-1.5-1.3-2zm2.3-.4c-.2-.1-.3-.3-.3-.4 0-.2.2-.3.4-.3h.2c1 .3 1.8.9 2.4 1.7.1.2.1.4.2.6 0 .4-.2.7-.6.7h-.1c-.4 0-.7-.3-.8-.6-.4-.7-.9-1.3-1.4-1.7zM77.7 319.7c0-.1.1-.2.4-.2 4.2-.1 9.1-1.9 9.1-6.9 0-4.4-3.2-6.4-6.6-6.4-.3 0-.7 0-1 .1v1.3c0 7.3-3 10.7-5.4 10.7-1.6 0-2.9-1.4-2.9-4.2 0-5.6 5.1-8.9 9.7-8.9 3.9 0 7.6 2.3 7.6 7.3s-3.9 7.6-8.8 7.6c-.6 0-1.2 0-1.8-.1-.2-.1-.3-.2-.3-.3zm-3.4-3.4c1.9 0 4.7-3.1 4.6-10-3.6.7-6.2 3.8-6.2 7.5 0 1.6.7 2.5 1.6 2.5zM38.5 17.1c.4 1.8-.4 3.7-2 4.6-.7.4-1.6.4-1.9-.2-.3-.6.2-1 .7-1.2 1.4-.5 2.4-1.7 2.7-3.2 0-.2.1-.4.3-.4.1 0 .2.2.2.4zm1.3-14.5-3.9.3c-.2 0-.4-.1-.4-.2 0-.2.1-.3.4-.3 2.7-.4 5.4-1.1 8-2 .2-.1.4 0 .5.1l1.2 1.2c.2.2.2.5-.1.5-.3 0-.5-.1-.8-.2-.9.2-2 .4-3.3.6v2.7h2l.9-1c0-.3.2-.3.3-.2.4.3 1 .8 1.5 1.2.2.2.3.4.1.5-.1.1-.3.2-.4.2h-4.4v2.8h1.4l.6-.7c.1-.1.3-.2.5 0l1.3.9c.1.1.2.3.1.4 0 .1-.1.1-.1.1-.2.1-.4.2-.6.2V14c0 .2 0 .3-.2.4-.3.2-.7.4-1.2.4-.2 0-.3-.2-.3-.4v-.8h-4.8V15c0 .2-.7.5-1.3.5-.1 0-.2-.2-.2-.4V8.4c0-.2.1-.3.2-.3h.2l1.2.6h1.4V5.9h-4c-.2 0-.4-.1-.4-.3-.1-.2 0-.3.2-.4h4.4V2.6zM38.2 13h4.7V9.4h-4.7V13zm14 8.5c0 .8-.8 1-5.5 1h-3.3c-2.2 0-2.6-.3-2.6-1.5v-4.2c0-.3.2-.4.4-.4l1.5.2c.3 0 .5.3.2.5-.1.1-.3.2-.5.2v3.5c0 .4.1.4 1.2.4h6.3c.4 0 .5-.1.6-.3.3-.7.5-1.5.6-2.2 0-.3.2-.4.3-.4s.2.2.2.4l.1 2.3c.5 0 .6.2.5.5zm-7.9-6.2c5 1.3 4.5 4.4 3 3.9-.2 0-.3-.2-.4-.3-.7-1.2-1.6-2.3-2.8-3.2-.2-.2-.3-.3-.2-.4.2-.1.3-.1.4 0zm3 .1c-.2 0-.3-.2-.3-.4V2.8c0-.2.1-.3.3-.3h.2l1.3.6H50c.2-.8.4-1.8.6-2.6 0-.2.2-.3.4-.3h.1l1.9.4s.2.2-.1.4c-.2.1-.4.2-.7.2-.4.6-1.1 1.3-1.6 1.9h3l.7-.7c.1-.1.3-.2.5 0l1.3 1c.2.2.2.4 0 .5-.1.1-.3.2-.6.2v10.5c0 .2-.8.6-1.4.6-.1 0-.2-.2-.2-.4v-1h-5.3v1c0 .2-.6.6-1.3.6zm1.3-9H54V3.8h-5.3l-.1 2.6zm5.4.7h-5.3v2.6h5.4L54 7.1zm0 3.4h-5.3v2.7h5.4l-.1-2.7zm-1.9 6c6.4 1.8 5.8 6 3.9 5.2-.2-.1-.3-.2-.3-.4-.9-1.8-2.2-3.3-3.8-4.4-.2-.2-.3-.3-.2-.4h.4zM37.3 36.7c-.2-.2-.3-.5-.3-.7 0-.2.1-.4.4-.4.3 0 .6.1.8.3 1.5.9 1.6 3.1 1.6 5.2v1.5c0 2.4.2 4.4 2.4 4.3.6 0 .5-1.3 1.2-2.2.1-.1.2-.2.4-.2.1 0 .2.1.2.3 0 .1 0 .2-.1.3-.2.4-.3.9-.3 1.4 0 .3.1.7.3.9.2.2.4.5.5.8 0 .3-.3.6-1.1.6-.4 0-.8 0-1.2-.1-5.7-1.2-2-8.4-4.8-12zm16.4 7.1c-.5 0-.9-.4-.9-.8v-.1c0-.1 0-.3.1-.4.1-.4.2-.7.2-1.1 0-1.3-1-2.4-2.3-2.6-.4-.1-.6-.3-.6-.4s.2-.3.6-.2c1.7.2 4.1 1.4 4.1 3.9 0 1.2-.6 1.7-1.2 1.7zM43.7 79.6c0-.1.1-.2.4-.2 4.2 0 9.1-1.9 9.1-6.9 0-4.4-3.2-6.4-6.6-6.4-.3 0-.7 0-1 .1v1.3c0 7.3-3 10.7-5.4 10.7-1.6 0-2.9-1.4-2.9-4.2 0-5.6 5.1-8.9 9.7-8.9 3.9 0 7.6 2.3 7.6 7.3S50.7 80 45.8 80c-.6 0-1.2 0-1.8-.1-.2-.1-.3-.2-.3-.3zm-3.4-3.4c1.9 0 4.7-3.1 4.6-10-3.6.7-6.2 3.8-6.2 7.5-.1 1.6.6 2.5 1.6 2.5zM42.5 103.6c-1.6 1.1-3.9 2.6-6.8 4.3 0 .2-.1.3-.2.4-.2.2-.4.2-.5-.1l-.7-1.4c-.1-.2 0-.4.2-.5.7-.3 1.7-.7 3-1.2v-7.6H35c-.2 0-.4-.1-.4-.3-.1-.2 0-.3.2-.4h2.7v-6c0-.3.2-.4.4-.4l1.7.2c.3 0 .5.3.3.4-.2.2-.5.3-.8.3V97h.5l.9-1.3c.2-.2.3-.2.5-.1.4.3.9.9 1.4 1.4.2.2.2.4.1.5-.1.1-.3.1-.5.1h-2.9v6.9c1-.4 2.1-.9 3.2-1.4.2-.1.4-.1.4 0 .1.1 0 .3-.2.5zm3.3.1h8.8l.7-.7c.1-.1.3-.2.5 0l1.2 1c.2.2.3.4 0 .5-.2.1-.4.1-.6.2-.3 4.3-1.1 6.9-2.2 7.7-.6.4-1.3.7-2 .7-.3 0-.4-.1-.4-.4 0-.3-.1-.6-.4-.8-.5-.3-1-.5-1.5-.6-.2 0-.3-.1-.3-.3 0-.1.2-.2.4-.2.8.1 2 .2 2.4.2.3 0 .6 0 .9-.2.6-.6 1.3-2.8 1.6-6.5h-2c-1.3 3.7-4.1 6.7-7.6 8.5-.2.1-.4.1-.4 0-.1-.1 0-.3.2-.4 2.8-1.9 4.9-4.7 6-8h-2c-1.8 3.2-4.6 5.8-8 7.3-.2.1-.4.1-.5 0s0-.3.2-.4c2.8-1.7 5-4 6.6-6.9h-2.1c-1.4 1.5-3.2 2.8-5.1 3.7-.2.1-.4.1-.4 0-.1-.1 0-.3.2-.4 2.3-1.5 4.1-3.6 5.3-6h-3.5c-.2 0-.4-.1-.4-.3-.1-.2 0-.3.2-.4H54.5l.9-1.4c.1-.2.3-.2.5-.1.4.3 1.1.9 1.6 1.4.2.2.3.4.1.5-.1.1-.3.1-.5.1h-9.9c-.5.8-.9 1.5-1.4 2.2zm-1.5-3.8c-.1 0-.2-.2-.2-.4v-8.4c0-.2.1-.3.2-.3s.2 0 .2.1l1.3.6h6.9l.7-.7c.1-.2.3-.2.5-.1l1.4 1.1c.2.2.3.4 0 .5-.2.1-.5.2-.7.3V99c0 .2 0 .3-.2.4-.4.2-.8.4-1.2.4-.2 0-.3-.2-.3-.4v-.7h-7.3v.8c0 .1-.7.4-1.3.4zm1.3-5.3h7.2v-2.5h-7.2v2.5zm7.3.8h-7.2v2.5h7.2v-2.5zM45.7 141.2c-3.2 0-5.1-1.3-5.1-3.1 0-1.6 1.5-3.5 5-5.1-.2-1.3-.9-2.2-2-2.2s-2.3.8-3.9 2.6c-.2.3-.6.6-1 .6s-.8-.3-.8-.7c0-.4.2-.7.5-.9 2.7-2.2 4.5-4.3 5.2-6.1-.5.2-1 .2-1.6.3-.4 0-.9-.1-1.3-.3-.4-.2-.7-.7-.8-1.2 0-.3.2-.5.5-.6h.1c.2 0 .3 0 .5.1.5.3 1 .4 1.5.4s1-.1 1.4-.3c0-.5-.2-.9-.5-1.3-.2-.1-.3-.3-.3-.6s.2-.5.5-.5c.4 0 .7.2.9.5l1.5.3c.3.1.5.2.5.5 0 .2-.1.5-.2.7-.4.7-.9 1.2-1.6 1.5-.6 1.6-1.4 3.1-2.5 4.4 0 .1-.1.1-.1.2s.1.1.3 0c.4-.2.9-.3 1.4-.3.8 0 1.6.4 2.1 1 2.2-2.7 4.4-3.7 5.8-3.7 1 0 1.6.5 1.6 1.2 0 1.2-1.7 3.1-6.3 4.7.1.4.1.9.1 1.4 0 .5-.1 1-.2 1.6-.2.8-.7 1.1-1.1 1.1-.4 0-.7-.3-.7-.8v-.1c0-.2 0-.4.1-.5.2-.7.3-1.4.4-2.1-2.6 1.3-4 2.9-4 4.1 0 1 1 1.7 2.9 1.7 1.4 0 2.8-.3 4.1-.7.2-.1.5-.1.7-.1.8 0 1.4.4 1.4.8s-.3.6-1 .8c-1.3.5-2.6.7-4 .7zm-.1-17.2c.1-.1.1-.1.1-.2s-.1-.1-.2-.2c-.2-.1-.4-.1-.6-.2.1.3.2.6.2.9.1-.1.3-.2.5-.3zm6.1 5c0-.3-.3-.4-.6-.4-1 0-3 1-4.7 3.3.1.2.2.4.3.7 3.7-1.7 5-3 5-3.6zM20.5 2.9l-.9.3V22c0 .2 0 .3-.2.4-.4.3-.8.5-1.3.5-.2 0-.3-.2-.3-.4V21H6v1.4c0 .2-.6.6-1.4.6-.2 0-.3-.1-.3-.3v-21c0-.2.1-.3.2-.3h.2l1.4.7h11.5l.8-.9c.1-.2.4-.2.5 0l1.6 1.2c.2.2.2.4 0 .5zM6 8h12V2.8H6V8zm0 6h12V8.7H6V14zm11.9.8H6v5.4h12v-5.4zM5.8 41.5l3.5-1.2c.2-.1.4-.1.4 0 .1.1 0 .3-.2.4-1 .5-2.3 1.2-3.7 1.9v8c0 1.3-.3 2-2 2.3-.3 0-.4-.1-.5-.3-.1-.3-.2-.6-.4-.8-.5-.3-1-.5-1.6-.6-.2 0-.4-.1-.4-.3s.2-.2.4-.2c.7 0 2 .1 2.3.1s.6-.1.6-.5v-7.1c-.9.5-1.8.9-2.8 1.4-.1.1-.1.3-.2.4-.2.2-.4.1-.5-.1l-.6-1.3c-.1-.2 0-.4.1-.4h.1c1-.2 2.3-.6 3.9-1.2v-5.5H.9c-.2 0-.4-.1-.4-.3-.1-.3.1-.4.3-.4h3.4v-5.3c0-.3.2-.4.4-.4l1.6.2c.3 0 .5.3.3.5s-.4.2-.7.3v4.8h1l.8-1.1c.1-.2.3-.2.5-.1h.1c.3.3.9.8 1.4 1.3.1.2.2.4.1.5-.1.1-.3.2-.5.2H5.8v4.8zm17.5-2.8c0 .8-.9 1-6.1 1h-3.8c-2.4 0-2.9-.3-2.9-1.7v-7.4c0-.2.1-.3.3-.4h.1l1.5.2c.3 0 .5.3.3.5-.2.1-.4.2-.6.2v4.1c2.7-.9 5.3-2.2 7.7-3.7.1-.1.4-.1.5 0l1.5 1.1c.2.2.3.4 0 .5-.3 0-.5 0-.8-.1-2.8 1.3-5.8 2.2-8.9 2.8v2c0 .5.2.6 1.5.6h7.1c.5 0 .5-.1.6-.3.3-.7.5-1.4.7-2.1.1-.3.2-.4.3-.4s.2.2.2.4l.1 2.1c.6.1.7.3.7.6zM21 41.4l1.4 1c.1.1.2.2.1.4 0 .1-.1.1-.1.1-.2.1-.5.2-.7.3v9.1c0 .2-.8.6-1.4.6-.2 0-.3-.2-.3-.4v-1.3h-7.7v1.3c0 .2-.7.6-1.4.6-.1 0-.2-.2-.2-.4V41.9c0-.2.1-.3.2-.3s.2 0 .2.1l1.3.6h7.3l.7-.7c.2-.3.4-.3.6-.2zm-8.6 4.9h7.7v-3.4h-7.7v3.4zm7.7.7h-7.7v3.4h7.7V47zM11.1 81.2c-2.6 0-4.6-1.7-4.6-5.1v-.9c.5-5.6 1-8.1 1-9.4 0-.5-.1-1-.3-1.4-.2-.1-.2-.3-.2-.5s.1-.4.3-.4c.2 0 .3.1.5.2.9.4 1.4 1.3 1.3 2.3 0 1.6-.8 4.3-1.2 9.2v.6c0 2.6 1.5 3.9 3.7 3.9s5.1-1.3 7.9-4c.1-.1.3-.2.5-.2.1 0 .2.1.2.2 0 .2-.1.3-.2.4-2.8 3.4-6.2 5.1-8.9 5.1zM14.9 109.9c-4.4 0-5.2-2.3-5.2-6.1 0-3.9 1.4-6 2.7-7.3-3 1-5.4 2.5-7.3 2.5-.4 0-.8-.1-1.2-.3-.5-.2-.9-.8-1-1.4.1-.1.3-.3.5-.3h.1c.1 0 .3 0 .5.1.4.2.9.3 1.4.3 3 0 7.7-2.9 13-2.9 1 0 1.5.6 1.5 1s-.3.5-.9.4c-.6-.1-1.3-.2-1.9-.2-.9 0-1.7.1-2.6.3-2.1 1.5-3.6 2.9-3.6 8.2 0 3 .7 4.2 3.1 4.2h1.5c1.1 0 1.6.5 1.6 1 0 .3-.3.6-.9.6-.5 0-.9 0-1.3-.1zM3.2 126.7c-.2-.2-.3-.4-.3-.7 0-.2.1-.4.4-.4.3 0 .6.1.8.3 1.5.9 1.6 3.1 1.6 5.2v1.5c0 2.4.2 4.4 2.4 4.3.6 0 .5-1.3 1.2-2.2.1-.1.2-.2.4-.2.1 0 .2.1.2.3 0 .1 0 .2-.1.3-.2.4-.3.9-.3 1.4 0 .3.1.7.3.9.2.2.4.5.5.8 0 .3-.3.6-1.1.6-.4 0-.8 0-1.2-.1-5.6-1.1-1.9-8.3-4.8-12zm16.4 7.2c-.5 0-.9-.4-.9-.8v-.1c0-.1 0-.3.1-.4.1-.4.2-.7.2-1.1 0-1.3-1-2.4-2.3-2.6-.4-.1-.6-.3-.6-.4s.2-.3.6-.2c1.7.2 4.1 1.4 4.1 3.9.1 1.1-.6 1.7-1.2 1.7zM12.2 171.1c-4.4 0-6.3-1.7-6.3-3.4s1.9-3.3 5-3.3c1 0 1.9.2 2.9.4h.3c.2 0 .3-.1.3-.3v-.3l-1.2-3.1c-1.1.3-2.3.4-3.5.5-1.4.1-2.8-.3-4-1.1-.3-.2-.4-.4-.4-.5s.2-.3.4-.3c.1 0 .3 0 .4.1 1 .5 2.2.8 3.3.8 1.1 0 2.2-.2 3.3-.6-.4-1.1-.8-2.1-1.2-3-.6.1-1.2.1-1.8.2-.9 0-1.7-.1-2.6-.4-.3-.2-.4-.3-.4-.5s.2-.3.4-.3c.1 0 .2 0 .2.1.5.2 1 .3 1.6.3.7 0 1.4-.1 2.1-.4-.4-1-1.1-1.8-2.1-2.4-.7-.3-1-.6-1-.8 0-.2.3-.4.8-.4.2 0 .5 0 .7.1 1.2.3 1.7.8 2.7 3 .5-.2.9-.4 1.2-.6.2-.1.4-.2.7-.2.5 0 1 .3 1 .6 0 .4-.2.5-.6.7-.4.2-.7.4-1.1.5 1.5.4 3 .7 4.6.9.6.1.9.4.9.8 0 .3-.2.6-.5.8-1.2.7-2.6 1.2-3.9 1.7.5 1 .9 2.2 1.5 3.5.2.3.2.7.3 1 .1.7-.4 1.3-1.1 1.3H15c-.3 0-.6-.1-.9-.3-1-.7-2.2-1.1-3.5-1.2-2.1 0-3.8 1.3-3.8 2.4 0 1 1.1 1.8 4 1.8.8 0 1.7-.1 2.5-.2h.4c1 0 1.5.5 1.5.9 0 .5-.3.7-1 .7-.7.5-1.5.5-2 .5zm4-12.3c.1-.1.2-.2.2-.3s-.1-.2-.4-.3c-1.1-.3-2.2-.6-3.3-1.1l1.1 2.7c.9-.3 1.6-.6 2.4-1zM12.9 197.9c-.3 2-2.3 3-4.1 3s-3.4-.9-3.4-2.5c0-1.7 1.8-2.5 4-2.5.7 0 1.4.1 2.2.2 0-1.4 0-2.7.1-3.9-1.9.1-3.7-.2-5.4-1-.4-.2-.5-.4-.5-.6 0-.2.2-.3.4-.3.1 0 .2 0 .4.1 1.3.4 2.6.6 3.9.6.4 0 .9 0 1.3-.1v-3l-2.7.3c-1.4.1-2.7-.3-3.8-1.2-.2-.1-.4-.4-.5-.7 0-.1.1-.3.3-.3.2 0 .4.1.5.2 1.1.5 2.3.8 3.5.8.9 0 1.8-.1 2.7-.3-.1-1.6-.3-2.6-.9-3.2-.2-.2-.3-.4-.3-.7 0-.2.1-.4.4-.4h.1c.4 0 .7.2 1 .4.9.5 1.1 1.1 1.1 2.5 0 .3 0 .7-.1 1.1 1-.3 2-.6 3-1 .2-.1.5-.1.7-.2.7 0 1.3.5 1.3.9 0 .2-.2.5-.7.6-1.7.5-3.1.8-4.3 1 .9 1.1 2.2 1.7 3.6 1.9.5 0 .8.3.8.6s-.3.6-.8.8c-1.3.5-2.6.8-4 1v4.2c1.1.3 2.1.8 3 1.6.5.4.8.9.9 1.5 0 .3-.2.6-.5.7H16c-.3 0-.5-.2-.7-.4-.6-.5-1.5-1.2-2.4-1.7zm-4.3 1.8c1.4 0 3-.8 3-2.4-.9-.3-1.8-.4-2.7-.5-1.5 0-2.6.5-2.6 1.4.1 1 1.2 1.5 2.3 1.5zm6.4-9.1c.2 0 .3-.1.3-.2s-.1-.2-.3-.3c-.8-.4-1.5-.9-2-1.6 0 .7-.1 1.5-.1 2.4.7 0 1.4-.1 2.1-.3zM9.6 231.6c-.2 0-.3-.1-.3-.2s.1-.3.4-.4c2.5-1 3.1-3.1 3.1-5.2-.4.4-.9.6-1.5.7-1.2 0-2.3-1.1-2.5-3.6v-.4c-.2-1.5.8-2.8 2.3-3h.3c.5 0 .9.1 1.3.4v-2.3c-3.8.2-6.2 1.1-7.9 1.1-.3 0-.7 0-1-.2-1-.3-1.3-.8-1.3-1.2s.3-.5.6-.5c.2 0 .4 0 .6.1.7.3 1.4.4 2.1.3 1.8 0 4.1-.5 7-.9 0-1-.2-2-.6-2.9-.2-.3-.3-.6-.3-1 0-.2.1-.4.3-.4h.1c.3 0 .6.2.9.4.4.2.6.5.8 1 2.1 1.6 4.6 2.8 7.1 3.5.6.2.8.5.8.7 0 .3-.3.5-.7.5h-.3c-2-.4-4.1-.6-6.2-.6h-.8v1c0 .7 0 1.6.1 2.5.2.5.3 1 .4 1.6v1.4c0 2.8-.6 6.6-4.3 7.6-.3-.1-.4 0-.5 0zm3-9c-.1-1.4-.9-2.1-1.6-2.1-.7 0-1.4.7-1.4 2.1 0 1.8.7 2.5 1.5 2.5s1.5-.8 1.6-2.1l-.1-.4zm4.4-6c.1 0 .2 0 .2-.1s-2-1.2-3.4-2l-.1 2c1.1-.1 2.2 0 3.3.1zM16.3 244.2c0-1.9 1.5-3.5 3.5-3.5s3.5 1.5 3.5 3.5c0 1.9-1.5 3.4-3.4 3.5-2 0-3.6-1.6-3.6-3.5zm.9 0c0 1.4 1.2 2.6 2.6 2.6 1.4 0 2.6-1.2 2.6-2.6 0-1.4-1.2-2.6-2.6-2.6-1.4 0-2.6 1.2-2.6 2.6z"/></svg>
