<svg version="1.1" xmlns="http://www.w3.org/2000/svg" x="0" y="0" viewBox="0 0 651 254" width="651" height="254" style="enable-background:new 0 0 651 254" xml:space="preserve"><style>.st0{fill:#fff}</style><path class="st0" d="M630.7 8.8c-.3.1-.5.1-.8 0-.8 1.3-1.7 2.5-2.7 3.6l.8.3c.3.1.5.4.2.6-.2.1-.4.1-.6.2V28c0 .2 0 .4-.2.5-.4.3-.9.5-1.4.5-.2 0-.4-.2-.4-.5V14.3c-1 1.1-2 2.2-3.1 3.1-.2.2-.4.2-.5.1s-.1-.3.1-.5c2.3-3 4.3-6.2 5.8-9.6.1-.2.3-.3.5-.3.1 0 .1 0 .1.1l2 1c.4.1.5.5.2.6zm-.2-6.4c-.2 0-.5 0-.7-.1-2.1 2.4-4.4 4.6-7 6.5-.2.2-.4.2-.6 0s-.1-.3.2-.5c2.1-2.2 4-4.7 5.5-7.4.1-.2.3-.3.5-.2h.1l1.9 1.1c.3.2.4.5.1.6zm12.2 20c-2.7.9-6.4 2-11.4 3.5-.1.2-.2.3-.3.5-.2.1-.4.1-.6-.1 0 0 0-.1-.1-.1l-.9-1.7c-.2-.3-.1-.6.3-.6 1.2-.2 3-.4 5.1-.8v-4.8h-4.1c-.2 0-.5-.2-.5-.4-.1-.2 0-.4.2-.5h4.4v-3.9c0-.2.1-.4.4-.4h.1l1.7.2c.3 0 .6.3.3.5-.2.1-.4.2-.6.2v3.4h2.1l1.1-1.4c.1-.2.4-.3.6-.1 0 0 .1 0 .1.1.4.3 1.2 1 1.8 1.6.2.2.3.4.1.6-.2.1-.4.2-.6.2h-5.1v4.5c1.9-.3 3.9-.6 5.9-1 .3 0 .5 0 .5.2-.1 0-.3.2-.5.3zm-8-20.6c0-.2.1-.4.4-.4h.1l1.9.2c.3 0 .6.3.3.6-.2.2-.5.2-.8.3v3.4h1.5l1.1-1.3c.1-.2.4-.3.6-.1.4.4 1.2 1 1.8 1.6.2.2.3.4.1.6-.2.1-.4.2-.6.2h-4.5v4.9h2.1l1.1-1.4c.1-.2.4-.3.6-.1 0 0 .1 0 .1.1.4.4 1.2 1 1.8 1.6.2.2.3.4.1.6-.2.1-.4.2-.6.2h-11.6c-.3 0-.5-.2-.5-.4-.1-.2 0-.4.2-.5h4.8V6.6h-3.9c-.3 0-.5-.2-.5-.4-.1-.2 0-.4.2-.5h4.2V1.8zm14.1 6.9c.5.4 1.3 1.1 2 1.7.2.2.3.4.1.6-.2.1-.4.2-.6.2h-2.8v14.6c0 1.5-.4 2.7-2.8 3-.3.1-.5-.1-.6-.4-.1-.4-.3-.8-.6-1.1-.7-.4-1.6-.7-2.4-.8-.3 0-.4-.2-.4-.3 0-.2.2-.2.5-.2 1 .1 3.1.2 3.6.2s.7-.2.7-.6V11.1h-3.2c-.3 0-.5-.2-.5-.4-.1-.2 0-.4.2-.5h5l1.2-1.5c.1-.1.4-.2.6 0zM642 4.2c-.1-.2 0-.4.2-.5h4.4l1.1-1.5c.1-.2.4-.3.6-.1h.1c.5.4 1.3 1.1 2 1.7.2.2.3.4.1.6-.2.1-.4.2-.6.2h-7.3c-.3 0-.5-.2-.6-.4zM636.2 63.8c-3.9 0-6.4-1.6-6.4-3.8 0-1.9 1.9-4.3 6.1-6.3-.3-1.6-1.1-2.7-2.5-2.7s-2.9.9-4.9 3.3c-.3.4-.8.7-1.3.7s-1-.3-1-.8v-.1c0-.5.3-.9.7-1.1 3.3-2.7 5.6-5.4 6.4-7.6-.6.2-1.3.3-2 .3-.6 0-1.1-.1-1.6-.4-.6-.3-.9-.8-1-1.4 0-.4.2-.7.6-.7h.1c.2 0 .4.1.6.2.6.3 1.2.5 1.9.5.6 0 1.2-.1 1.8-.3 0-.6-.2-1.2-.6-1.6-.1-.2-.2-.4-.2-.7 0-.3.3-.6.6-.6.4 0 .9.2 1.1.6.6.1 1.3.2 1.9.3.4.1.6.3.6.6s-.1.6-.2.8c-.5.8-1.2 1.5-2 1.8-.7 2-1.7 3.9-3 5.5 0 .1-.1.1-.1.2s.1.1.3 0c.5-.3 1.2-.4 1.8-.4 1 0 2 .5 2.6 1.3 2.7-3.4 5.4-4.6 7.1-4.6 1.2 0 2 .6 2 1.5 0 1.5-2.1 3.8-7.8 5.9l-.1.1c.1.6.2 1.1.2 1.7 0 .6-.1 1.3-.2 1.9-.2 1-.8 1.4-1.3 1.4s-.9-.5-.9-1c0-.2 0-.4.1-.7.3-.8.4-1.7.4-2.6-3.2 1.6-5 3.6-5 5.1 0 1.2 1.2 2.1 3.6 2.1 1.7-.1 3.4-.3 5.1-.8.3-.1.6-.1.8-.1 1 0 1.7.5 1.7 1 0 .3-.4.7-1.3 1-1.3.3-3 .5-4.7.5zm-.1-21.4c.1-.1.1-.2.1-.3 0-.1-.1-.1-.3-.2-.3-.1-.5-.1-.8-.2.1.3.2.7.2 1.1.3 0 .6-.2.8-.4zm7.6 6.2c0-.3-.3-.5-.8-.5-1.2 0-3.7 1.2-5.8 4.2.1.2.3.5.4.8 4.6-2.1 6.2-3.7 6.2-4.5zM626.4 100.3c-.4 0-.8-.4-.8-.8 0-.3.1-.5.3-.8 2.7-3.6 4.9-7.6 6.5-11.8-1.6.8-2.8 2-4.2 2-.3 0-.5 0-.8-.1-.9-.3-1.4-.8-1.4-1.2 0-.4.5-.7 1.5-.6h.5c1.5-.1 3-.5 4.3-1.2l.6-.3c.3-1 .5-2.1.5-3.2 0-.6-.1-1.3-.4-1.9-.2-.3-.3-.5-.3-.8 0-.3.2-.5.4-.6h.1c.4 0 .8.3 1.1.6.4.6.6 1.2.6 1.9 0 1.1-.3 2.3-.6 3.4.7-.2 1.4-.4 2.1-.4 2.8 0 4.1 2.2 4.1 5.2-.1 3.2-1.3 6.2-3.4 8.7-.3.5-.8.7-1.3.8-.6 0-1.1-.3-1.5-.8-.5-.6-1.2-1.2-1.9-1.5-.4-.2-.7-.5-.7-.7s.1-.3.4-.3c.2 0 .3 0 .5.1.8.4 1.6.6 2.5.7.4 0 .8-.1 1-.4 1.7-1.9 2.7-4.4 2.8-6.9 0-2-.9-3.5-3-3.5-.8 0-1.5.2-2.2.4-1.8 4.6-3.9 9.1-6.5 13.3 0 .5-.4.7-.8.7zm16.7-8.1c-.3 0-.5-.2-.5-.5 0-.2.2-.4.7-.4 1.9-.1 2.8-.6 2.8-1.6s-.7-2.2-2.2-4c-.2-.2-.3-.4-.3-.6 0-.2.1-.2.3-.2.3 0 .5.1.7.3 2 1.2 3.3 3.2 3.6 5.6v.4c0 1-.6 1.6-1.7 1.6-1.2-.2-2.3-.3-3.4-.6zM637.8 134.1c-.4 2.5-2.8 3.7-5.1 3.7s-4.2-1.1-4.2-3c0-2.1 2.3-3 5-3 .9 0 1.8.1 2.7.3 0-1.7.1-3.4.1-4.8-2.3.1-4.6-.3-6.7-1.2-.4-.2-.6-.5-.6-.7s.2-.3.5-.3c.2 0 .3 0 .5.1 1.5.5 3.2.8 4.8.8.5 0 1 0 1.6-.1 0-1.4.1-2.6 0-3.7-1.1.2-2.2.3-3.3.3-1.7.1-3.4-.4-4.7-1.4-.3-.2-.5-.5-.6-.8 0-.2.2-.3.3-.3.2 0 .4.1.7.2 1.3.6 2.8 1 4.3.9 1.1 0 2.2-.1 3.3-.4-.1-2-.4-3.3-1-3.9-.2-.2-.4-.5-.4-.9 0-.3.2-.5.4-.5h.1c.5 0 .9.2 1.3.4 1.1.6 1.4 1.3 1.4 3.1 0 .4 0 .9-.1 1.4 1.3-.4 2.5-.8 3.7-1.3.3-.1.6-.2.9-.2.9 0 1.6.6 1.6 1 0 .3-.3.6-.8.7-2 .6-3.8 1-5.3 1.3 1.1 1.3 2.7 2.2 4.5 2.4.6 0 1 .4 1 .8s-.3.7-1 1c-1.6.6-3.2 1-4.9 1.2v5.3c1.4.4 2.6 1 3.7 1.9.6.4 1 1.1 1.1 1.8 0 .4-.3.8-.7.8h-.1c-.3 0-.7-.2-.9-.5-.9-1-1.9-1.8-3.1-2.4zm-5.3 2.3c1.7 0 3.7-.9 3.8-3-1.1-.4-2.2-.5-3.3-.6-1.8 0-3.2.7-3.2 1.8s1.2 1.8 2.7 1.8zm7.9-11.3c.3-.1.4-.1.4-.3s-.1-.3-.4-.4c-1-.5-1.8-1.2-2.5-2 0 .9-.1 1.9-.1 3 .8 0 1.7-.1 2.6-.3zM635.6 175.4c-3.3 0-5.7-2.1-5.7-6.3 0-.3 0-.7.1-1.1.7-7 1.2-10 1.2-11.7 0-.6-.1-1.2-.5-1.7-.2-.2-.3-.4-.3-.7 0-.2.2-.4.4-.5.2 0 .4.1.6.2 1.1.5 1.8 1.6 1.7 2.8 0 2-1 5.3-1.5 11.5v.7c0 3.3 1.9 4.9 4.6 4.9s6.3-1.6 9.9-4.9c.1-.2.3-.3.6-.3.1 0 .2.1.2.2 0 .2-.1.4-.2.5-3.6 4.3-7.8 6.4-11.1 6.4zM643.1 186.8c3.4 1.1 5.2 2.6 6.2 4 .4.6.7 1.3.7 2 .1.7-.4 1.3-1.1 1.4h-.2c-.7 0-1.1-.4-1.5-1.3-1-2.2-2.6-4.1-4.6-5.5-.3-.2-.3-.4-.2-.6.3-.1.5-.1.7 0zM575 11.4c.7-.1 1.5-.2 2.5-.3V3.7c0-.3.2-.5.5-.4l1.8.2c.3 0 .6.3.3.6-.2.2-.5.2-.7.3V11l2.7-.4V1c0-.2.1-.4.3-.4h.1l2 .2c.3 0 .6.3.3.6-.3.2-.6.3-.9.4v3.7h1.8l1.1-1.4c.1-.2.3-.3.5-.2l.1.1c.4.4 1.2 1 1.7 1.6.2.2.3.4.1.6-.2.1-.4.2-.6.2h-4.7v3.9l4.8-.7c.3 0 .5 0 .5.2s-.1.3-.4.4c-3 .8-7.1 1.9-12.5 3.2-.1.2-.2.3-.3.5-.2.2-.5.1-.6-.2l-.7-1.5c-.2-.5-.1-.8.3-.8zm.7 16.5c2.6-1.4 4.9-3.1 7-5.2.1-.2.4-.3.6-.1l1.7 1.1c.3.2.3.6 0 .6-.2 0-.5 0-.7-.1-2.6 1.9-5.4 3.3-8.5 4.2-.3.1-.4.1-.5-.1-.1-.2 0-.3.4-.4zM594 16.6c8.4 1.8 8.3 6.3 6.1 5.8-.2-.1-.4-.2-.5-.3-.5-.8-1.2-1.5-1.9-2.1-2.4.2-5.1.4-8.2.7v7.7c-.5.4-1.1.6-1.7.6-.2 0-.4-.2-.4-.5v-7.6c-3.1.2-6.5.5-10.4.7-.1.2-.2.3-.4.4-.2.2-.5 0-.6-.3l-.7-1.5c-.1-.3 0-.6.3-.6 2 0 5 0 8.5-.1 2.8-1.8 5.3-3.9 7.6-6.3.1-.2.4-.3.7-.2l1.8.8c.3.2.4.5.1.6-.2.1-.5.1-.7 0a45.9 45.9 0 0 1-7.9 5l11-.3c-1-.8-2-1.5-3.1-2.1-.3-.2-.4-.3-.3-.4h.7zm-5.1-4h-.7c-1.3 1.1-2.7 2.1-4.2 2.9 1.9 1.4 1.4 3.1.1 2.8-.2 0-.4-.2-.5-.4-1.1-1.4-2.5-2.6-4.2-3.4-.3-.2-.4-.3-.3-.4.1-.1.2-.2.5-.1 1.2.1 2.5.5 3.6 1 1.1-1.1 2.1-2.4 3-3.6.1-.2.4-.3.7-.2l1.9.8c.3.2.4.6.1.6zm13.4-1.6c0 .9-1 1.2-5.7 1.2h-3.3c-2.4 0-2.9-.4-2.9-2V1c0-.2.1-.4.3-.4h.1l1.8.2c.3 0 .6.3.3.6-.2.1-.4.2-.7.3v4.6c2.1-.9 4.1-2 5.9-3.4.2-.2.5-.2.7 0l1.6 1.2c.3.2.3.6 0 .6s-.7 0-1-.1c-2.3 1.1-4.7 1.9-7.2 2.5v3c0 .5.1.6 1.3.6h3c1.4 0 2.5 0 2.9-.1.2 0 .5-.1.6-.3.3-.9.6-1.8.8-2.7.1-.3.2-.4.3-.4.1 0 .2.2.2.5l.1 2.7c.7.1.8.3.9.6zm-9.8 11.7c8.4 1.5 8.5 6 6.3 5.5-.2-.1-.4-.2-.5-.3-1.7-1.9-3.8-3.5-6.1-4.6-.3-.2-.4-.3-.3-.4s.2-.2.6-.2zM574.8 45c5.6 1 4.7 4.7 2.8 4-.2-.1-.3-.3-.4-.5-.6-1.2-1.5-2.2-2.6-3-.3-.2-.3-.4-.3-.5s.2-.1.5 0zm8.2-1.2c-1.3 3.9-3.7 10.6-4.1 12.1-.3.9-.4 1.8-.5 2.7 0 1.4.9 2.9.8 5.4-.1 1.3-.7 2.1-1.7 2.1-.5 0-.8-.4-.9-1.2v-.6c.4-3.1.2-5.4-.5-5.8-.3-.2-.7-.4-1.1-.4-.3-.1-.4-.2-.4-.4s.2-.4.5-.4h.9c.4 0 .5 0 .8-.6.5-1.1.5-1.1 5.6-13.1.1-.3.3-.4.5-.4.2.1.2.3.1.6zm-6-5.7c5.9 1.1 5.1 5 3.1 4.3-.2-.1-.3-.2-.4-.4-.8-1.3-1.8-2.4-2.9-3.4-.3-.2-.4-.4-.3-.5.1-.1.2-.1.5 0zm23.3 13c-.3.1-.6.1-.8.1-1 3.1-2.7 6-4.9 8.4 2.4 2 5.3 3.4 8.3 4.3.3.1.4.2.4.3 0 .1-.2.2-.4.2-.6.2-1.2.6-1.5 1.2-.2.3-.3.4-.6.3-2.8-1.1-5.4-2.8-7.5-5-2.9 2.5-6.3 4.2-10 5.2-.3.1-.4.1-.5-.1-.1-.2 0-.3.3-.4 3.5-1.2 6.6-3.2 9.2-5.8-1.9-2.6-3.3-5.6-4-8.7h-1.9c-.2 4.7-1 10.6-5 15-.2.2-.4.3-.5.2-.2-.1-.2-.3 0-.6 3.2-5.1 3.5-11.1 3.5-16.6v-6.5c0-.3.2-.5.5-.4l1.8.8h4.7v-4.5c0-.2.1-.4.4-.4h.1l2.1.2c.3 0 .5.3.3.6-.3.2-.6.4-1 .4v3.8h5.4l1-1c.2-.2.4-.2.6 0l1.7 1.7c.3.2.3.5-.1.6-.2 0-.5.1-.7.1-.7.9-2 2.4-2.9 3.4-.2.2-.3.3-.5.2s-.2-.2-.1-.5c.3-1 .7-2.4 1-3.5h-5.6V50h3.8l1-1c.2-.2.5-.2.7 0l1.5 1.5c.5.1.5.4.2.6zm-9-1.2v-6.2h-5.1v6.2h5.1zm1.9 8.5c1.8-2.2 3.1-4.8 3.9-7.5h-8.4c.9 2.8 2.5 5.4 4.5 7.5zM588.2 101c-3.9 0-6.4-1.6-6.4-3.8 0-1.9 1.9-4.3 6.1-6.3-.3-1.6-1.1-2.7-2.5-2.7s-2.9.9-4.9 3.3c-.3.4-.8.7-1.3.7s-1-.3-1-.8v-.1c0-.5.3-.9.7-1.1 3.3-2.7 5.6-5.4 6.4-7.6-.6.2-1.3.3-2 .3-.6 0-1.1-.1-1.6-.4-.6-.3-.9-.8-1-1.4 0-.4.2-.7.6-.7h.1c.2 0 .4.1.6.2.6.3 1.2.5 1.9.5.6 0 1.2-.1 1.8-.3 0-.6-.2-1.2-.6-1.6-.2-.2-.3-.4-.3-.7 0-.3.3-.6.6-.6.4 0 .9.2 1.1.6.6.1 1.3.2 1.9.3.4.1.6.3.6.6s-.1.6-.1.9c-.5.8-1.2 1.4-2 1.8-.7 2-1.7 3.9-3 5.5 0 .1-.1.1-.1.2s.1.1.3 0c.5-.3 1.2-.4 1.8-.4 1 0 2 .5 2.6 1.3 2.7-3.4 5.4-4.6 7.1-4.6 1.2 0 2 .6 2 1.5 0 1.5-2.1 3.8-7.8 5.9l-.1.1c.1.6.2 1.1.2 1.7 0 .6-.1 1.3-.2 1.9-.2 1-.8 1.4-1.3 1.4s-.9-.5-.9-1c0-.2 0-.4.1-.7.3-.8.4-1.7.4-2.6-3.2 1.6-5 3.6-5 5.1 0 1.2 1.2 2.1 3.6 2.1 1.7-.1 3.4-.3 5.1-.8.3-.1.6-.1.8-.1 1 0 1.7.5 1.7 1 0 .3-.4.7-1.3 1-1.4.3-3.1.5-4.7.4zm-.1-21.4c.1-.1.1-.2.1-.3 0-.1-.1-.1-.3-.2-.3-.1-.5-.1-.8-.2.1.3.2.7.2 1.1.3 0 .5-.2.8-.4zm7.6 6.2c0-.3-.3-.5-.8-.5-1.2 0-3.7 1.2-5.8 4.2.1.2.3.5.4.8 4.5-2.1 6.2-3.7 6.2-4.5zM588.5 138.4c-.2 0-.3-.1-.3-.2s.2-.3.5-.4c6.5-2.7 9-6.5 9-9.6 0-3.1-2.5-5.6-5.6-5.5h-.3c-2.8.1-5.4 1.3-7.3 3.2-.1 1.9-.1 4.1-.1 6.6 0 1.3.1 2.8.1 4.3 0 1.1-.5 1.9-1.1 1.9-.6 0-1.1-.6-1.5-2-.5-1.9-1.1-3.7-1.9-5.4-.5.8-1 1.7-1.5 2.6-.6 1.1-1.3 1.6-1.7 1.6-.4 0-.6-.3-.6-.8 0-.6.3-1.1.6-1.6.8-1.3 1.7-2.4 2.5-3.4-.5-1.1-1-2-1.2-2.4-.2-.4-.3-.8-.3-1.2 0-.6.4-1.2.9-1.6 1.3-1 2.9-1.8 4.5-2.4 0-2.7-.3-4.1-1.2-5.1-.3-.3-.5-.7-.6-1.1 0-.3.2-.4.6-.4.8.1 1.6.6 2.1 1.2.6.7.7 1.9.7 4.1v1.2c.4.1.6.4.6.7-.1.6-.2 1.1-.6 1.6 2.9-2.2 5.6-3.1 7.8-3.1 3.8-.1 6.9 2.9 7 6.7v.3c0 3.9-3 8.4-10.6 10.1-.3.1-.4.1-.5.1zm-5.5-12.7.1-1.6c-.5 0-1.6.4-3.6 1.5-.4.2-.7.6-.7 1.1 0 .2.1.4.2.6.2.3.5.8.9 1.7.9-1.2 2-2.3 3.1-3.3zm-.4 8.5c.1 0 .2-.1.2-.3 0-2.5.1-4.6.2-6.4l-2.4 3c.5.9 1.1 2.1 1.7 3.6 0 0 .1.1.3.1zM578.4 174.7c-.4 0-.8-.4-.8-.8 0-.3.1-.5.3-.8 2.7-3.6 4.9-7.6 6.5-11.8-1.6.8-2.8 2-4.2 2-.3 0-.5 0-.8-.1-.9-.3-1.4-.8-1.4-1.2s.5-.7 1.5-.6h.5c1.5-.1 3-.5 4.3-1.2l.6-.3c.3-1 .5-2.1.5-3.2 0-.6-.1-1.3-.4-1.9-.2-.3-.3-.5-.3-.8 0-.3.2-.5.4-.6h.1c.4 0 .8.3 1.1.6.4.6.6 1.2.6 1.9 0 1.1-.3 2.3-.6 3.4.7-.2 1.4-.4 2.1-.4 2.8 0 4.1 2.2 4.1 5.2-.1 3.2-1.3 6.2-3.4 8.7-.3.5-.8.7-1.3.8-.6 0-1.1-.3-1.5-.8-.5-.6-1.2-1.2-1.9-1.5-.4-.2-.7-.5-.7-.7 0-.2.1-.3.4-.3.2 0 .3 0 .5.1.8.4 1.6.6 2.5.7.4 0 .8-.1 1-.4 1.7-1.9 2.7-4.4 2.8-6.9 0-2-.9-3.5-3-3.5-.8 0-1.5.2-2.2.4-1.8 4.6-3.9 9.1-6.5 13.3-.1.4-.4.7-.8.7zm16.7-8.2c-.3 0-.5-.2-.5-.5 0-.2.2-.4.7-.4 1.9-.1 2.8-.6 2.8-1.6s-.7-2.2-2.2-4c-.2-.2-.3-.4-.3-.6 0-.2.1-.3.3-.3.3 0 .5.1.7.3 2 1.2 3.3 3.2 3.6 5.6v.4c0 1-.6 1.6-1.7 1.6-1.2 0-2.3-.2-3.4-.5zM585.6 213.1c-.3 0-.4-.2-.4-.3 0-.1.2-.4.5-.5 3.1-1.3 3.8-3.8 3.9-6.5-.5.5-1.2.8-1.9.8-1.5 0-2.9-1.3-3.1-4.4v-.5c0-2.4 1.6-3.7 3.2-3.7.6 0 1.1.2 1.6.5v-2.8c-4.7.3-7.7 1.4-9.8 1.4-.4 0-.9-.1-1.3-.2-1.2-.4-1.6-1-1.6-1.5 0-.4.3-.6.7-.6.2 0 .5.1.7.2.8.3 1.7.4 2.5.4 2.2 0 5.1-.6 8.7-1.1 0-1.2-.3-2.5-.8-3.6-.2-.4-.3-.8-.4-1.2 0-.3.1-.5.4-.5h.1c.4.1.8.2 1.1.4.5.3.8.7.9 1.2 2.7 2 5.7 3.5 8.8 4.4.7.2 1 .6 1 .9s-.3.6-.9.6h-.4c-2.5-.5-5.1-.7-7.7-.7h-1v1.3c0 .9 0 2 .1 3.1.3.6.4 1.3.5 1.9 0 .5.1 1.1.1 1.7 0 3.4-.8 8.2-5.3 9.4.1-.1 0-.1-.2-.1zm3.8-11.2c-.1-1.7-1.1-2.5-2-2.5s-1.7.8-1.7 2.5c0 2.2.9 3.1 1.8 3.1s1.8-.9 1.9-2.6v-.5zm5.5-7.5c.1 0 .2-.1.2-.2s-2.5-1.5-4.3-2.5l-.1 2.5c1.4 0 2.8 0 4.2.2zM594 228.7c0-2.4 1.9-4.3 4.3-4.3s4.3 1.9 4.3 4.3-1.9 4.3-4.3 4.3c-2.4-.1-4.3-2-4.3-4.3zm1 0c-.1 1.8 1.3 3.3 3 3.4 1.8.1 3.3-1.3 3.4-3v-.4c.1-1.8-1.3-3.3-3-3.4-1.8-.1-3.3 1.3-3.4 3v.4zM495.6 5.6c.3.2.8.7 1.2 1 .1.1.2.3.1.4-.1.1-.2.1-.4.1h-9.2c-.5 1-1 1.9-1.7 2.8l.4.1h7.5l.5-.5c.1-.1.2-.1.4 0l1 .8c.1.1.2.3 0 .4-.2.1-.3.1-.5.2v5c0 .1 0 .2-.1.3-.3.2-.6.3-.9.3-.1 0-.2-.1-.2-.3v-1h-7.9v1c-.2.3-.6.4-1 .4-.1 0-.2-.1-.2-.3v-5.2c-1.1 1.2-2.4 2.2-3.8 3-.1.1-.3.1-.3 0-.1-.1 0-.2.1-.3 2.3-1.8 4.1-4.1 5.2-6.8h-4.9c-.1 0-.3-.1-.3-.2 0-.2 0-.3.2-.3h13.7l.7-.9c0-.1.2-.1.4 0-.1 0 0 0 0 0zm-12.7-.1c-.1 0-.2-.1-.2-.3V.9c0-.1.1-.2.2-.3h.1l1.2.1c.2 0 .4.2.2.3-.2.1-.3.2-.5.2v2.5h4.3V.3c0-.1.1-.2.2-.3h.1l1.2.1c.2 0 .3.2.2.3-.1.1-.3.2-.5.2v3.2h4.3V.9c0-.1.1-.2.2-.3h.1l1.2.1c.2 0 .3.2.2.3-.1.1-.3.2-.5.2V5c0 .1-.5.4-1 .4-.1 0-.2-.1-.2-.3v-.7h-9.8v.8c0 .1-.5.3-1 .3zm2.8 9h7.9v-4h-7.9v4zM495.7 28.5c.5.3.9.6 1.3 1 .1.1.2.3.1.4-.1.1-.2.1-.3.1h-7.3v4.4c0 .9-.3 1.6-2 1.8-.2 0-.3-.1-.3-.2-.1-.3-.2-.5-.5-.6-.5-.3-1.1-.4-1.7-.4-.2 0-.3-.1-.3-.2s.1-.1.3-.1c.7.1 2.3.2 2.7.2s.5-.2.5-.5V30h-7.5c-.1 0-.3-.1-.3-.2-.1-.2 0-.3.2-.3h7.6V26h-6.3c-.1 0-.3-.1-.3-.2 0-.2.1-.3.2-.3h6.4v-3.3c-2.1.2-4.3.4-6.5.5-.2 0-.3-.1-.3-.2s.1-.2.3-.2c4.1-.3 8.1-1.1 12-2.3.1 0 .3 0 .4.1l1 .9c.1.1.1.3-.1.3s-.5 0-.7-.1c-1.4.3-3 .6-4.9.9v3.5h4.1l.7-.9c.1-.1.2-.2.3-.1l1.2 1c.1.1.2.3 0 .4-.1.1-.2.1-.3.1h-6.2v3.5h5.2l.8-.9c.2-.3.4-.3.5-.2zM480.9 55.3c1.6-1 3-2.4 4.2-3.9.1-.1.2-.2.3-.1h.1l1.1.6c.2.1.2.3 0 .3h-.4c-1.4 1.5-3.2 2.6-5.1 3.4-.2.1-.3.1-.3 0s-.1-.2.1-.3zm14.7-6.3c.3.2.8.7 1.2 1 .1.1.2.3.1.4-.1.1-.2.1-.4.1h-7.1v5.2c0 .1-.4.3-1 .3-.1 0-.2-.1-.2-.3v-5.3H483v.7c0 .2-.5.4-.9.4-.1 0-.2-.1-.2-.3v-9.9c0-.1.1-.2.2-.3h.1l1.2.1c.2 0 .3.2.2.3-.2.1-.3.2-.5.2V50h11.4l.8-.9c0-.2.1-.2.3-.1zm-10 .1c-.1 0-.2-.1-.2-.3v-8.6c0-.2.1-.3.3-.2l.9.5h6.1l.5-.6c.1-.1.2-.1.3 0l1 .8c.2.1.2.3 0 .4-.2.1-.3.2-.5.2v7.4c-.3.3-.6.4-1 .4-.1 0-.2-.1-.2-.3V48h-6.3v.8c.1 0-.4.3-.9.3zm1-6.4h6.4V41h-6.3l-.1 1.7zm6.3.6h-6.3v1.8h6.4l-.1-1.8zm0 2.3h-6.3v1.8h6.4l-.1-1.8zm-1.5 5.8c5.7 1.6 5.6 4.5 4.2 4.1-.1 0-.2-.1-.3-.2-1.1-1.4-2.5-2.6-4.1-3.6-.2-.1-.2-.2-.2-.3.1-.1.2-.1.4 0zM480.9 65.7c.4 0 .9-.1 1.4-.2v-4.3c0-.1.1-.2.2-.3h.1l1 .1c.2 0 .3.2.2.3-.1.1-.3.1-.4.1v3.8l1.6-.2v-5.5c0-.1.1-.2.2-.3h.1l1.2.1c.2 0 .3.2.2.3-.1.1-.3.2-.5.2v2.1h1l.6-.8c.1-.1.2-.1.3-.1l.1.1c.3.2.7.6 1 .9.1.1.2.3.1.3-.1.1-.2.1-.4.1H486V65l2.8-.4c.2 0 .3 0 .3.1s-.1.2-.2.2c-1.8.5-4.1 1.1-7.3 1.8 0 .1-.1.2-.2.3-.1.1-.3 0-.4-.1l-.4-.9c-.1-.1-.1-.2-.1-.3h.4zm.3 9.6c1.5-.8 2.9-1.8 4.1-3 .1-.1.3-.1.4-.1l1 .6c.2.1.2.3 0 .4-.1 0-.3 0-.4-.1-1.5 1.1-3.1 1.9-4.9 2.5-.2.1-.3 0-.3-.1-.1 0 0-.2.1-.2zm10.7-6.6c4.9 1.1 4.8 3.7 3.5 3.4-.1 0-.2-.1-.3-.2-.3-.5-.7-.9-1.1-1.2-1.4.1-2.9.3-4.7.4v4.5c-.3.2-.6.4-1 .3-.1 0-.2-.1-.2-.3v-4.4c-1.8.1-3.8.3-6.1.4-.1.1-.1.2-.2.3-.1.1-.3 0-.3-.1l-.4-.9c-.1-.2 0-.3.2-.3h4.9c1.6-1.1 3.1-2.3 4.4-3.7.1-.1.3-.2.4-.1l1.1.5c.2.1.3.3.1.4h-.4c-1.4 1.1-2.9 2.1-4.6 2.9l6.4-.2c-.6-.5-1.2-.9-1.8-1.2-.2-.1-.2-.2-.2-.2.1-.2.1-.3.3-.3zm-3-2.3h-.4c-.7.6-1.6 1.2-2.4 1.7 1.1.8.8 1.8.1 1.6-.1 0-.2-.1-.3-.2-.7-.8-1.5-1.5-2.4-2-.2-.1-.2-.2-.2-.3.1-.1.1-.1.3 0 .7.1 1.4.3 2.1.6l1.8-2.1c.1-.1.2-.2.4-.1l1.1.5c.1.1.1.3-.1.3zm7.8-.9c0 .5-.6.7-3.3.7h-1.9c-1.4 0-1.7-.3-1.7-1.1v-5.4c0-.2.1-.3.3-.3l1 .1c.2 0 .3.2.2.3-.1.1-.3.1-.4.2v2.6c1.2-.5 2.4-1.2 3.4-2 .1-.1.3-.1.4 0l.9.7c.2.1.2.3 0 .3s-.4 0-.6-.1c-1.3.6-2.7 1.1-4.1 1.5v1.8c0 .3.1.3.7.3h3.5c.3 0 .3 0 .3-.2.2-.5.3-1 .4-1.6 0-.2.1-.3.2-.3s.1.1.1.3l.1 1.6c.4.3.5.4.5.6zm-5.7 6.8c4.9.8 5 3.4 3.7 3.2-.1 0-.2-.1-.3-.2-1-1.1-2.2-2-3.5-2.7-.2-.1-.2-.2-.2-.3h.3zM480.8 83.4c3.3.6 2.7 2.8 1.6 2.3-.1-.1-.2-.1-.2-.3-.4-.7-.9-1.3-1.5-1.8-.1-.1-.2-.2-.1-.3-.1.1 0 .1.2.1zm4.7-.7c-.8 2.3-2.1 6.2-2.4 7-.2.5-.3 1-.3 1.6.2 1 .4 2.1.5 3.1 0 .8-.4 1.2-1 1.2-.3 0-.5-.3-.5-.7v-.3c.2-1.8.1-3.1-.3-3.4-.2-.1-.4-.2-.6-.2-.2 0-.3-.1-.3-.2s.1-.2.3-.2h.5c.2 0 .3 0 .5-.4.3-.7.3-.7 3.3-7.6.1-.2.2-.2.3-.2s.1.1 0 .3zm-3.5-3.3c3.4.7 3 2.9 1.8 2.5-.1 0-.2-.1-.2-.3-.4-.8-1-1.4-1.7-1.9-.1-.1-.2-.2-.1-.3s.1 0 .2 0zm13.6 7.5c-.2 0-.3.1-.5.1-.6 1.8-1.6 3.5-2.9 4.9 1.4 1.2 3.1 2 4.8 2.5.2.1.3.1.2.2 0 .1-.1.1-.3.1-.4.1-.7.4-.9.7-.1.2-.2.2-.4.2-1.6-.6-3.1-1.6-4.3-2.9-1.7 1.4-3.7 2.5-5.8 3-.2 0-.3 0-.3-.1-.1-.1 0-.2.2-.3 2-.7 3.8-1.9 5.3-3.4-1.1-1.5-1.9-3.2-2.3-5.1h-1.1c-.1 2.8-.6 6.2-2.9 8.7-.1.1-.2.1-.3.1s-.1-.2 0-.3c1.8-2.9 2.1-6.4 2.1-9.6V82c0-.2.1-.3.3-.2l1.1.5h2.7v-2.6c0-.1.1-.3.2-.3h.1l1.2.1c.2 0 .3.2.2.3-.1.1-.3.2-.6.2v2.2h3.1l.6-.6c.1-.1.2-.1.4 0l1 1c.2.1.2.3-.1.4h-.4c-.4.5-1.1 1.4-1.7 2-.1.1-.2.2-.3.1-.1 0-.1-.1-.1-.3.2-.6.4-1.4.6-2h-3.2v3.6h2.2l.6-.6c.1-.1.3-.1.4 0l.9.9c.3 0 .4.2.2.2zm-5.2-.6v-3.6h-3v3.6h3zm1.1 4.9c1-1.3 1.8-2.8 2.3-4.4H489c.4 1.7 1.3 3.2 2.5 4.4zM488.2 100l1 .8c.1.1.2.3 0 .4-.2.1-.4.1-.5.2v11.2c0 .1 0 .2-.1.3-.2.2-.5.3-.8.3-.1 0-.2-.1-.2-.3v-1.1h-5.2v1.4c0 .1-.4.4-.9.4-.1 0-.2-.1-.2-.3v-13c0-.2.1-.3.3-.2l.9.4h4.9l.5-.5c0-.1.1-.2.3 0-.1-.1 0 0 0 0zm-5.9 5.8h2v-4.7h-2v4.7zm2 5.3v-4.9h-2v4.9h2zm1.1-5.3h2.1v-4.7h-2.1v4.7zm2.1.5h-2.1v4.9h2.1v-4.9zm8.4-6.4c.3.2.8.7 1.3 1 .1.1.2.3 0 .4-.1.1-.2.1-.3.1h-2.7v12.2c0 .9-.2 1.6-1.7 1.8-.2 0-.3 0-.3-.2-.1-.2-.2-.5-.4-.6-.4-.3-.9-.4-1.4-.5-.2 0-.3-.1-.3-.2s.1-.1.3-.1c.6 0 1.8.1 2.1.1.3 0 .5-.1.5-.4v-12.1h-3.2c-.1 0-.3-.1-.3-.2s0-.3.1-.3H494.8l.7-.9c.1-.2.2-.3.4-.1-.1-.1 0-.1 0 0zM487.1 132.8c0-.1.1-.2.3-.2 3 0 6.6-1.3 6.6-5 .1-2.4-1.7-4.5-4.2-4.6h-1.2v1c0 5.3-2.2 7.7-3.9 7.7-1.1 0-2.1-1-2.1-3 0-4 3.7-6.4 7-6.4 2.8 0 5.5 1.6 5.5 5.3 0 3.6-2.8 5.5-6.3 5.5-.4 0-.9 0-1.3-.1-.3-.1-.4-.1-.4-.2zm-2.4-2.5c1.3 0 3.4-2.3 3.3-7.2-2.6.5-4.5 2.8-4.5 5.4 0 1.2.4 1.8 1.2 1.8zM482.3 139.3l1.2.1c.2 0 .3.2.2.3-.1.1-.3.2-.5.2v14.4c0 .2-.5.5-.9.5-.1 0-.2-.1-.2-.3v-15c0-.1.1-.2.2-.3-.1.1 0 .1 0 .1zm14 1.5c-.2.1-.4.2-.7.2v13.1c-.3.3-.6.4-1 .4-.1 0-.2-.1-.2-.3V153h-6.9v1.2c0 .2-.4.5-1 .5-.1 0-.2-.1-.2-.3V140c0-.1.1-.2.2-.2h.2l.9.5h6.6l.5-.6c.1-.1.3-.1.4 0l1.1.9c.3 0 .3.1.1.2zm-8.7 5.5h6.9v-5.5h-6.9v5.5zm6.9.5h-6.9v5.7h6.9v-5.7zM495.5 160.1c.3.2.8.7 1.2 1 .1.1.2.3.1.4-.1.1-.2.1-.4.1h-12.9v3.9c0 2.8-.2 6.5-2.7 9.1-.1.1-.2.2-.3.1s-.1-.2 0-.3c1.6-2.6 1.8-5.8 1.8-8.9v-4.7c0-.2.1-.3.3-.2l1.1.5h4.9v-2.3c0-.1.1-.2.2-.3h.1l1.2.1c.2 0 .3.2.2.3-.1.1-.3.2-.5.2v2h4.7l.7-.9c0-.2.1-.2.3-.1-.1 0 0 0 0 0zm-.2 3.9c.3.2.8.7 1.2 1 .1.1.2.3 0 .3-.1.1-.2.1-.3.1h-5.3v7.6c0 .9-.3 1.6-1.9 1.8-.2 0-.3-.1-.3-.2-.1-.3-.2-.5-.4-.6-.5-.3-1-.4-1.6-.5-.2 0-.3-.1-.3-.2s.1-.1.3-.1c.6 0 2.1.1 2.5.1.4 0 .5-.1.5-.4v-7.6h-5.3c-.1 0-.3-.1-.3-.2s0-.2.1-.3h10l.7-.9c.1 0 .2 0 .4.1 0-.1 0 0 0 0zM489.9 178.8c-.1.1-.3.1-.5.1 2.1 2.1 4.7 3.6 7.5 4.6.1.1.2.1.2.2s-.1.1-.2.2c-.3.1-.6.3-.7.6-.1.2-.2.2-.4.1-2.7-1.2-5-3.1-6.7-5.5-2.3 2.6-5.1 4.7-8.3 6.2-.2.1-.3 0-.3 0s0-.2.2-.3c2.8-1.5 6.2-4.5 7.3-6.7.1-.1.2-.2.3-.2l1.5.4c.2.1.3.3.1.3zm4.8 7c.3.2.8.6 1.2 1 .1.1.2.3.1.4-.1.1-.2.1-.4.1h-13.7c-.1 0-.3-.1-.3-.2-.1-.2 0-.3.2-.3h6.2v-2.3h-3.3c-.1 0-.3-.1-.3-.2-.1-.1 0-.2.1-.3h3.5v-2c0-.2.1-.3.3-.3l1.2.2c.2 0 .3.2.2.3-.1.1-.3.2-.4.2v1.5h1.8l.6-.7c.1-.1.3-.1.4 0 .2.2.7.5 1 .9.1.1.2.3.1.4-.1.1-.2.1-.3.1h-3.5v2.3h4.3l.7-.8c0-.1.2-.2.3-.2-.1-.2 0-.2 0-.1zm-1.2 2.5 1.1.8c.1.1.2.3 0 .4-.2.1-.3.1-.5.2v4.4c0 .1 0 .2-.1.3-.3.2-.6.2-.9.3-.1 0-.2-.1-.2-.3v-.9H485v.9c0 .1-.5.4-1 .4-.1 0-.2-.1-.2-.3v-5.8c0-.2.1-.3.3-.2l1 .4h7.7l.5-.5c-.1-.1.1-.1.2-.1zm-.7 1.1h-7.9v3.5h7.9v-3.5zM482.9 212.7c-.3 0-.5-.2-.5-.5 0-.2.1-.3.2-.5 1.6-2.1 2.8-4.4 3.8-6.8-.9.5-1.6 1.1-2.5 1.1-.2 0-.3 0-.5-.1-.5-.2-.8-.4-.8-.7 0-.2.3-.4.9-.3h.3c.9-.1 1.7-.3 2.5-.7l.3-.2c.2-.6.3-1.2.3-1.9 0-.4-.1-.7-.2-1.1-.1-.1-.1-.3-.2-.5 0-.2.1-.3.3-.3h.1c.2 0 .5.1.6.3.2.3.4.7.3 1.1 0 .7-.2 1.4-.4 2 .4-.1.8-.2 1.2-.2 1.6 0 2.4 1.3 2.4 3-.1 1.8-.8 3.6-2 5-.2.3-.5.4-.8.4-.3 0-.6-.2-.9-.5-.3-.4-.7-.7-1.1-.9-.3-.1-.4-.3-.4-.4 0-.1.1-.2.3-.2.1 0 .2 0 .3.1.5.2.9.3 1.4.4.2 0 .4-.1.6-.2 1-1.1 1.6-2.5 1.6-4 0-1.2-.5-2-1.7-2-.4 0-.9.1-1.3.3-1 2.7-2.3 5.3-3.8 7.7.1.5-.1.6-.3.6zm9.7-4.7c-.2 0-.3-.2-.3-.3s.1-.2.4-.2c1.1 0 1.6-.3 1.6-.9-.2-.9-.6-1.7-1.3-2.3-.1-.1-.1-.2-.2-.3 0-.1.1-.2.1-.2.1 0 .3.1.4.2 1.2.7 1.9 1.9 2.1 3.2v.2c0 .6-.4.9-1 .9-.5-.1-1.2-.1-1.8-.3zm-.1-6.8c-.1-.1-.2-.2-.2-.3 0-.1.1-.2.2-.2h.2c.8.2 1.4.8 1.8 1.5.1.1.1.3.1.5 0 .3-.2.5-.4.5-.3 0-.6-.2-.7-.5-.2-.6-.6-1.1-1-1.5zm1.7-.3c-.1-.1-.2-.2-.2-.3 0-.1.1-.2.3-.2h.2c.7.2 1.3.6 1.7 1.2.1.1.1.3.1.4 0 .3-.2.5-.5.5s-.5-.2-.6-.5c-.3-.4-.6-.8-1-1.1zM492.6 217.9c1.4.4 2.7 1.2 3.6 2.3.3.3.4.8.4 1.2 0 .4-.2.8-.6.8h-.1c-.4 0-.6-.2-.9-.8-.6-1.3-1.5-2.4-2.6-3.2-.2-.1-.2-.2-.1-.3h.3zM446.3 10.6c.2-.1.3 0 .3 0s0 .2-.2.3c-1.3.8-3 2-5.1 3.3 0 .1-.1.2-.1.3-.1.2-.3.1-.4-.1l-.5-1c-.1-.2 0-.3.2-.4.5-.2 1.3-.5 2.1-.8V5.9h-1.9c-.1 0-.3-.1-.3-.2s0-.3.2-.3h2V.6c0-.1.1-.2.2-.3h.1l1.2.1c.2 0 .3.2.2.3-.1.2-.3.3-.5.3v4.4h.6l.6-.8c.1-.2.2-.2.4 0s.7.6 1 .9c.1.1.2.3 0 .4-.1.1-.2.1-.3.1h-2.3v5.7l2.5-1.1zm10.8 4.4c0 .6-.8.8-4.7.8h-2.7c-1.8 0-2.4-.4-2.4-1.6V7.1l-2 .8c-.1.1-.3 0-.4-.1-.1-.1-.1-.2 0-.3l.1-.1 2.3-.9V1.6c0-.1.1-.2.2-.3h.1l1.2.1c.2 0 .3.2.2.3-.1.1-.3.2-.5.2v4l2.4-.9V.3c0-.1.1-.2.2-.3h.1l1.2.1c.2 0 .3.2.2.3-.1.1-.3.2-.5.2v4.1l2.5-.9.2-.1.5-.5c.1-.1.2-.1.4 0l.9.7c.1.1.2.3 0 .4l-.5.1c-.1 4.7-.3 6.5-.9 7.1-.3.3-.8.5-1.2.6-.2 0-.3-.1-.3-.3 0-.2-.1-.4-.2-.6-.2-.1-.4-.2-.7-.3-.1 0-.2-.1-.2-.2s.1-.2.3-.1c.4 0 .8.1 1.1.1.2 0 .4 0 .5-.2.4-.4.5-2.1.6-6.3l-2.8 1v7.5c0 .2-.5.5-.9.5-.1 0-.2-.1-.2-.3V5.7l-2.4.9V14c0 .5.2.7 1.3.7h2.7c1.3 0 2.2 0 2.6-.1.2 0 .4-.1.5-.3.3-.8.5-1.6.6-2.5 0-.2.1-.3.2-.3s.1.1.1.3v2.5c.2.3.3.5.3.7zM445.9 30.8c-1.1.7-2.6 1.8-4.5 3 0 .1-.1.2-.1.3-.1.1-.3.1-.4-.1l-.5-1c-.1-.2 0-.3.1-.4.5-.2 1.2-.5 2-.8v-6.4h-1.8c-.1 0-.3-.1-.3-.2 0-.2.1-.3.2-.3h1.9v-4.6c0-.1.1-.2.2-.3h.1l1.2.1c.2 0 .3.2.2.3-.1.1-.3.2-.5.2v4.2h.4l.6-.8c.1-.1.2-.1.3-.1l.1.1c.3.2.6.6 1 .9.1.1.2.3.1.4-.1.1-.2.1-.3.1h-2.1v5.9c.7-.3 1.3-.6 2-.9.2-.1.3-.1.3 0-.1.2-.1.3-.2.4zm5.4.7c-1.4.6-3.3 1.4-5.7 2.4 0 .1-.1.2-.2.3-.1.1-.3.1-.4-.1l-.4-.8c-.1-.2 0-.3.1-.3 1.3-.3 3.7-1 6.3-1.7.2 0 .3 0 .3.1.2-.1.1 0 0 .1zM457 36c-.4.4-1.3-.1-1.9-.8-.9-.9-1.6-2-2-3.2-1.5 1.7-3.4 3.1-5.6 3.9-.1 0-.3 0-.3-.1-.1-.1 0-.2.2-.3 2.1-1 4-2.6 5.3-4.6-.7-2.4-1.1-4.9-1.2-7.4h-5.7c-.1 0-.3-.1-.3-.2-.1-.2.1-.3.2-.3h5.8c-.1-.9-.1-1.8-.1-2.8 0-.1.1-.2.2-.3h.1l1.1.2c.2 0 .3.2.2.3-.1.1-.3.2-.5.2V23h2.3l.6-.8c0-.1.2-.2.3-.2h.1c.3.2.7.6 1 .9.1.1.2.3.1.4-.1.1-.2.1-.3.1h-4c.1 2.1.3 4.2.8 6.2.7-1.4 1.3-2.9 1.7-4.5 0-.1.1-.2.3-.2h.1l1.1.4c.2.1.3.3.1.3-.2.1-.3.1-.5.1-.5 1.8-1.3 3.6-2.3 5.2.3 1.1 1 2.2 1.8 3 .2.2.4.3.5 0 .2-.5.4-1.1.6-1.7.1-.2.1-.3.2-.3s.1.1.1.3l-.3 2.6c.3.6.4 1 .2 1.2zm-7.4-5.6v-.7h-2.3v1.1c0 .1-.3.3-.8.3-.1 0-.2-.1-.2-.3v-5.4c0-.1.1-.2.2-.2h.2l.8.4h2l.4-.4c.1-.1.3-.1.4 0l.7.5c.1.1.2.3 0 .4-.1 0-.2.1-.3.1v3.9c0 .1 0 .2-.1.3-.2.1-.5.2-.7.2h-.1c-.2.1-.2 0-.2-.2zm0-4.3h-2.3v3.1h2.3v-3.1zm4.1-5.5c2.5.6 1.8 2.3.9 1.9-.1-.1-.2-.1-.2-.3-.2-.5-.5-1-.9-1.4-.1-.1-.2-.2-.1-.3.1 0 .2 0 .3.1zM448.5 54.8c-2.3 0-3.7-.9-3.7-2.2 0-1.1 1.1-2.5 3.6-3.7-.2-.9-.7-1.6-1.4-1.6-.8 0-1.7.5-2.8 1.9-.2.2-.4.4-.7.4-.3 0-.5-.2-.6-.5 0-.3.2-.5.4-.7 1.6-1.1 2.9-2.6 3.7-4.4-.4.1-.8.2-1.1.2-.3 0-.6-.1-.9-.2-.3-.2-.5-.5-.6-.8 0-.2.1-.4.3-.4h.1c.1 0 .2 0 .3.1.3.2.7.3 1.1.3.3 0 .7-.1 1-.2 0-.3-.1-.7-.3-.9-.1-.1-.2-.2-.2-.4s.2-.3.4-.3c.3 0 .5.1.7.3.3 0 .8.1 1.1.2.3.1.3.2.3.3 0 .2-.1.3-.1.5-.2.5-.6.8-1.1 1.1-.4 1.2-1 2.2-1.8 3.2 0 .1-.1.1-.1.1s.1.1.2 0c.3-.2.7-.2 1-.2.6 0 1.2.3 1.5.8 1.6-1.9 3.1-2.7 4.1-2.7.7 0 1.1.3 1.1.8 0 .9-1.2 2.2-4.5 3.4h-.1c.1.3.1.7.1 1 0 .4 0 .8-.1 1.1-.1.6-.5.8-.8.8-.3 0-.5-.3-.5-.6 0-.1 0-.3.1-.4l.3-1.5c-1.9.9-2.9 2.1-2.9 3 0 .7.7 1.2 2.1 1.2 1 0 2-.2 3-.5.2 0 .3-.1.5-.1.6 0 1 .3 1 .6s-.2.4-.7.6c-1 .2-2 .4-3 .4zm-.1-12.5.1-.1c0-.1-.1-.1-.1-.1-.1 0-.3-.1-.5-.1.1.2.1.4.1.6.2-.1.3-.2.4-.3zm4.5 3.6c0-.2-.2-.3-.5-.3-1.4.3-2.6 1.2-3.4 2.4.1.1.1.3.2.5 2.7-1.2 3.7-2.2 3.7-2.6zM447.5 73c-.2 0-.3 0-.3-.2s.1-.2.4-.2c4.1-.7 5.8-3.1 5.8-4.9.1-1.2-.9-2.3-2.1-2.3h-.2c-1.3 0-3 .8-5 2.7-.5.5-1.1.7-1.8.8-.4 0-.8-.1-1.1-.3-.7-.4-.9-.7-.9-.9s.1-.3.3-.3h.2c.3.1.6.1.9.1.8-.1 1.5-.4 2.1-.9 1.5-1.2 3.3-1.9 5.3-2 1.7-.2 3.3 1.1 3.4 2.9v.3c0 2.2-2.1 4.8-7 5.2zM443.1 91.2c-.2 0-.4-.3-.4-.7 0-.3.1-.6.2-.9.9-2 1.7-3.5 2.2-4.8-.6 0-1.2-.2-1.7-.5-.1-.1-.2-.2-.2-.3 0-.1.1-.2.2-.2h.2c.5.3 1.2.4 1.8.3.2-.5.3-1.1.4-1.6 0-.2 0-.5-.1-.7 0-.1-.1-.3-.1-.4 0-.2.1-.4.3-.4s.4.1.6.5c.2.3.3.6.3 1 .5.2 1.3.5 1.8.7.2.1.4.3.4.5s-.2.4-.5.5c-.8.3-1.7.5-2.6.6-.8 1.8-1.5 3.6-2.1 5.4-.2.7-.5 1-.7 1zm4.3-7.7.1-.1s0-.1-.1-.1c-.3-.2-.5-.3-.8-.4-.1.4-.2.7-.4 1.1.4-.1.8-.2 1.2-.5zm3.5 8.2v.7c-.2 1.2-1.5 2-2.7 1.8-.9-.2-1.6-.9-1.8-1.8 0-1.2 1.1-1.8 2.7-1.8h.9v-1.8c0-.8.1-1.6.5-2.3.1-.2.2-.3.3-.3s.1.1.1.2 0 .2-.1.3c-.2.5-.3 1-.3 1.5 0 .8.1 1.6.2 2.5.9.2 1.7.5 2.5.9.4.2.6.5.6.9 0 .3-.1.5-.4.5-.1 0-.2 0-.3-.1-.6-.6-1.4-1-2.2-1.2zm-2.3 1.6c.7.1 1.3-.5 1.4-1.2v-.8c-.3-.1-.7-.1-1.1-.2-1 0-1.6.4-1.6 1 0 .7.6 1.2 1.3 1.2zm3.2-7.4c-.1 0-.2 0-.2-.1s.1-.2.2-.2c.3-.1.6-.1.9-.2.1 0 .2-.1.2-.2s0-.1-.1-.2c-.4-.5-1-1-1.6-1.4-.2-.1-.3-.2-.3-.3 0-.1.1-.1.2-.1h.2c1.2.3 2.3 1 3 2 .1.1.1.3.1.4 0 .3-.3.5-.7.5h-.3c-.4-.1-1-.2-1.6-.2zM446.3 107.9c-.2-.2-.3-.5-.3-.8 0-.2.1-.4.1-.6 1.7-3.2 3.6-4.3 3.4-5.4v-.3c0-.3.2-.4.3-.4.2 0 .3.1.4.3.3.3.4.7.4 1.1 0 .4-.2.8-.6 1.1-1.4 1.1-2.5 2.4-3.3 4-.2.2-.1.6.1.7 2 2.3 2.9 3.4 3.5 6v.3c0 .3-.2.6-.5.6s-.6-.2-.7-.7c-.3-2.2-1.3-4.2-2.8-5.9zm5.5-4.1c-.1-.1-.2-.2-.2-.3 0-.1.1-.2.2-.2h.2c.8.2 1.4.8 1.8 1.5.1.1.1.3.1.5 0 .3-.2.5-.4.5-.3 0-.6-.2-.7-.5-.3-.6-.6-1.1-1-1.5zm1.6-.3c-.1-.1-.2-.2-.2-.3 0-.1.1-.2.3-.2h.2c.7.2 1.3.6 1.7 1.2.1.1.1.3.1.4 0 .3-.2.5-.5.5s-.5-.2-.6-.5c-.2-.4-.6-.8-1-1.1zM447.3 132.2c-.1-.1-.2-.2-.2-.3-.4-.9-1.1-1.7-1.9-2.3v5.3c0 .1-.5.4-.9.4-.1 0-.2-.1-.2-.2v-4.8c-.9 1.4-2 2.6-3.3 3.6-.1.1-.3.1-.3 0s0-.2.1-.3c1.3-1.4 2.3-3.1 3-4.9H441c-.1 0-.3-.1-.3-.2-.1-.2.1-.3.2-.3h3.2v-1.7c0-.1.1-.3.2-.3h.1l1.1.1c.2 0 .3.2.2.3-.1.1-.3.2-.5.2v1.4h1.7l.6-.8c.1-.1.2-.1.4 0 .3.2.7.6 1 .9.1.1.2.2 0 .4-.1.1-.2.1-.4.1h-3.4v.8c3.9.7 3.4 3.1 2.2 2.6zm-6.9-6.7c0-.2.1-.3.2-.3h4.5c.4-1 .7-2.1.9-3.2 0-.1.1-.2.3-.2h.1l1.2.4c.2.1.3.2.1.4-.1.1-.3.1-.5.1-.5.9-1 1.8-1.6 2.6h1.5l.7-.8c.1-.1.2-.1.3 0 .3.2.7.6 1.1.9.1.1.2.3.1.4-.1.1-.2.1-.3.1h-8.1c-.3-.2-.4-.3-.5-.4zm.6-4.3h3v-2.1c0-.1.1-.2.2-.3h.1l1.2.1c.2 0 .3.2.2.3-.1.1-.3.2-.5.2v1.8h1.4l.6-.8c.1-.1.2-.1.3-.1l.1.1c.3.2.7.6 1.1.9.1.1.2.3.1.4-.1.1-.2.1-.4.1h-7.3c-.1 0-.3-.1-.3-.2-.1-.3.1-.4.2-.4zm1.4.7c2.4 1.7 1.5 3.6.6 3-.1-.1-.2-.2-.2-.3-.1-.8-.4-1.7-.7-2.5-.1-.1-.1-.3 0-.3s.1 0 .3.1zm13.4 2.2c.3.2.8.6 1.2 1 .1.1.2.3.1.4-.1.1-.2.1-.3.1h-2v9.3c-.2.3-.6.4-1 .4-.1 0-.2-.1-.2-.3v-9.4H451v.5c0 3.2-.4 6.7-3.9 9-.1.1-.2.1-.3 0-.1-.1-.1-.2.1-.3 2.6-2.4 3-5.4 3-8.7v-5.6c0-.2.1-.3.3-.2l1 .4c1.4-.5 2.7-1.1 4-1.8.1-.1.3-.1.4 0l1 .8c.2.1.2.3-.1.4-.2 0-.4 0-.6-.1-1.6.5-3.2.9-4.9 1.2v3.9h3.9l.7-.9c0-.2.2-.2.2-.1zM448.1 153.7c-1.9 0-3.3-1.2-3.3-3.7v-.6c.4-4 .7-5.8.7-6.8 0-.4-.1-.7-.3-1-.1-.1-.2-.2-.2-.4 0-.1.1-.3.2-.3s.2 0 .3.1c.7.3 1.1.9 1 1.6 0 1.2-.6 3.1-.9 6.7v.4c-.2 1.4.8 2.6 2.2 2.8h.5c1.6 0 3.7-.9 5.7-2.8.1-.1.2-.1.3-.2.1 0 .1.1.1.1 0 .1 0 .2-.1.3-1.8 2.6-4.2 3.8-6.2 3.8zM442.5 163.1c-.1-.1-.2-.3-.2-.5s.1-.2.3-.2c.2 0 .4.1.6.2 1.1.7 1.2 2.2 1.2 3.8v1.1c0 1.7.1 3.2 1.7 3.1.4 0 .4-.9.9-1.6.1-.1.2-.2.3-.2.1 0 .1.1.1.2s0 .2-.1.2c-.1.3-.2.7-.2 1 0 .2.1.5.2.7.2.2.3.4.3.6 0 .2-.2.4-.8.4-.3 0-.6 0-.9-.1-4-.9-1.4-6.1-3.4-8.7zm11.8 5.1c-.3 0-.6-.3-.6-.6v-.4c.1-.3.2-.5.2-.8 0-.9-.7-1.7-1.6-1.9-.3-.1-.4-.2-.4-.3 0-.1.2-.2.4-.2 1.2.1 3 1 3 2.8-.1 1.1-.6 1.4-1 1.4zM440.7 182.3c3.2.6 2.7 2.8 1.6 2.4-.1 0-.2-.1-.2-.3-.4-.7-.9-1.3-1.5-1.8-.1-.1-.2-.2-.1-.3s.1 0 .2 0zm4.7-.4c-.8 2.3-2.3 6.1-2.5 6.9-.2.5-.3 1-.3 1.6.2 1 .4 2.1.4 3.1 0 .8-.4 1.2-.9 1.2-.3 0-.5-.3-.5-.8v-.3c.2-1.8.1-3.1-.3-3.4-.2-.1-.4-.2-.6-.2-.2 0-.3-.1-.3-.3 0-.1.1-.2.3-.2h.5c.2 0 .3 0 .5-.4.3-.6.3-.6 3.3-7.4.1-.2.2-.2.3-.2s.2.2.1.4zm-3.4-3.6c3.4.8 2.9 3 1.7 2.5-.1 0-.2-.1-.2-.3-.4-.8-1-1.5-1.7-2-.1-.1-.2-.2-.1-.3 0 .1.2.1.3.1zm14.3 14.4.9.9c.1.1.1.3 0 .3-.1.1-.2.1-.4.1h-12.9c-.1 0-.3-.1-.3-.2s0-.2.1-.3H445.4v-6.1c0-.2.1-.3.3-.2l1 .4h7.1l.4-.6c.1-.1.2-.2.3-.1h.1l1.1.8c.2.1.2.3 0 .4-.2.1-.4.1-.6.1v5.2h.2l.5-.8c.2 0 .3-.1.5.1zm-9.8-6.3c-.1 0-.2-.1-.2-.3V179c0-.2.1-.3.3-.2l1 .4h5.8l.4-.5c.1-.1.2-.1.4 0l.8.7c.2.1.2.3 0 .4-.1.1-.3.1-.5.1v6c-.3.2-.6.4-1 .3-.1 0-.2-.1-.2-.3v-.7h-6.1v.7c.2.2-.2.5-.7.5zm1.8 7.1v-5.4h-1.8v5.4h1.8zm-.9-11.5h6.1v-2.2h-6.1v2.2zm6.1.5h-6.1v2.3h6.1v-2.3zm-4.1 5.6v5.4h1.8v-5.4h-1.8zm2.8 5.4h1.9v-5.4h-1.9v5.4zM440.7 202c3.3.6 2.8 2.9 1.7 2.4-.1-.1-.2-.1-.2-.3-.4-.7-.9-1.4-1.6-1.9-.2-.1-.2-.2-.2-.2h.3zm4.8-.6c-.8 2.3-2.2 6.3-2.5 7.1-.2.5-.3 1-.3 1.6.2 1 .4 2.1.5 3.1 0 .8-.4 1.2-1 1.2-.3 0-.5-.3-.5-.7v-.3c.2-1.8.1-3.1-.3-3.4-.2-.1-.4-.2-.6-.2-.2 0-.3-.1-.3-.2s.1-.2.3-.2h.5c.2 0 .3 0 .4-.4.3-.7.3-.7 3.4-7.7.1-.2.2-.2.3-.2.1 0 .2.1.1.3zm-3.4-3.2c3.5.8 2.9 3.1 1.7 2.6-.1 0-.2-.1-.2-.3-.4-.8-1-1.5-1.7-2-.1-.1-.2-.2-.1-.3s.1 0 .3 0zm9.8 3.8c-.1 0-.3.1-.4.1a13 13 0 0 0 5.8 4.8c.2.1.2.2.2.2 0 .1-.1.1-.2.2-.3.1-.6.3-.7.6-.1.2-.2.2-.3.1-2.2-1.4-4-3.4-5-5.7-1.6 2.6-3.8 4.8-6.5 6.3-.2.1-.3.1-.3 0s0-.2.1-.3c2.4-1.7 4.3-4.1 5.5-6.8 0-.1.2-.2.3-.2l1.5.4c.1 0 .2.2 0 .3zm-6.4.9c1.2-1.3 2.1-2.8 2.8-4.4 0-.1.2-.2.3-.2l1.2.6c.2.1.3.3.1.4h-.4c-1 1.5-2.3 2.8-3.8 3.9-.1.1-.3.1-.3 0 0-.2 0-.2.1-.3zm8.9 4.2.9.7c.1.1.2.3 0 .4-.1.1-.3.1-.4.1v5.8c-.3.2-.6.4-1 .3-.1 0-.2-.1-.2-.3V213H448v1.1c0 .1-.3.4-.9.4-.1 0-.2-.1-.2-.3v-6.8c0-.2.1-.3.3-.2l1 .4h5.4l.4-.5c0-.1.2-.1.4 0-.1-.1 0 0 0 0zm-.7 1.1H448v4.4h5.7v-4.4zm-1.4-9.8c5 1.9 4.6 4.8 3.3 4.2-.1 0-.2-.1-.2-.2-.8-1.4-1.9-2.7-3.2-3.7-.2-.1-.2-.2-.1-.3 0 0 .1-.1.2 0zM457.2 233.2c0 .5-.7.7-4 .7h-2.3c-1.6 0-2-.3-2-1.3v-5.7l-1.6.6c-.1.1-.3 0-.4-.1l-.2-.2c-.2 3.7-.6 5.7-1.2 6.4-.4.4-.9.7-1.5.7-.1 0-.3-.1-.3-.2v-.1c0-.2-.1-.4-.3-.5-.3-.2-.7-.3-1.1-.4-.2 0-.2-.1-.2-.2s.1-.2.3-.2c.6.1 1.4.1 1.7.1.2 0 .5 0 .6-.2.5-.5.8-3 1-7.5h-2c-.2 3.3-.9 6.5-3.1 9-.1.1-.2.2-.3.1-.1-.1-.1-.3 0-.4 2.3-3.4 2.3-7.8 2.3-11.9h-1.9c-.1 0-.3-.1-.3-.2s0-.2.1-.3h2.9v-3.1c0-.1.1-.2.2-.3h.1l1.2.1c.2 0 .3.2.2.3-.1.1-.3.2-.4.2v2.7h1.2l.7-.9c.1-.1.2-.1.3 0 .3.2.8.6 1.2 1 .1.1.2.3 0 .3-.1.1-.2.1-.3.1h-3.9c0 .9 0 1.8-.1 2.7h1.8l.5-.5c.1-.1.2-.1.4 0l.9.7c.1.1.1.2.1.3 0 0 0 .1-.1.1-.2.1-.3.1-.5.1 0 .7 0 1.2-.1 1.8l2.1-.8v-2.8c0-.1.1-.3.2-.3h.1l1 .1c.2 0 .3.2.2.3-.1.1-.3.2-.5.2v2l2-.7v-3c0-.1.1-.2.2-.3h.1l1.1.1c.2 0 .3.2.2.3-.1.1-.3.2-.5.2v2.2l1.9-.7h.1l.4-.5c.1-.1.2-.1.4 0l.9.7c.1.1.2.3 0 .4-.1 0-.3.1-.4.1 0 3.6-.2 4.8-.7 5.3-.3.3-.6.4-1 .4-.2 0-.3-.1-.3-.3 0-.2-.1-.3-.2-.5-.1-.1-.3-.2-.5-.3-.2 0-.2-.1-.2-.2s.1-.2.3-.1h.8c.2 0 .3 0 .4-.1.2-.3.3-1.4.3-4.4l-2.1.8v5.8c0 .1-.5.4-.8.4-.1 0-.2-.1-.2-.3v-5.6l-1.9.7v5.9c0 .4.1.5 1 .5h2.3c1 0 1.9 0 2.1-.1.2 0 .3-.1.4-.2.2-.4.4-.9.5-1.4 0-.2.1-.2.2-.2s.1.1.1.3l.1 1.3c.1.6.3.7.3 1zm-10.1-9.4c1.3-1.7 2.2-3.6 2.7-5.7 0-.1.1-.2.3-.2h.1l1.3.4c.2 0 .3.2.1.3-.2.1-.3.1-.5.1-.3.7-.6 1.5-1 2.1h4.6l.7-.9c.1-.1.2-.2.3-.1.4.3.8.6 1.2 1 .1.1.2.3.1.4-.1.1-.2.1-.3.1h-6.9c-.6 1-1.4 1.9-2.3 2.6-.1.1-.2.1-.3 0-.3 0-.2 0-.1-.1zM446.7 240.2c.3.2.7.6 1 .9.1.1.2.2.1.4-.1.1-.2.1-.3.1h-6.7c-.1 0-.3-.1-.3-.2s0-.2.1-.3h5.1l.6-.8c0-.1.2-.2.3-.2 0 0 .1 0 .1.1zm-5.5 5.7c0-.1 0-.2.1-.3h3.4l.6-.7c.1-.1.2-.2.3-.1.2.2.6.5 1 .9.1.1.2.2 0 .3-.1.1-.2.1-.3.1h-4.9s-.2-.1-.2-.2 0-.1 0 0zm4.3 7.4c-.1 0-.2-.1-.2-.3v-.7h-3v1.2c0 .1-.5.4-.9.4-.1 0-.2-.1-.2-.3v-6c0-.2.1-.3.3-.2l.9.4h2.7l.5-.5c.1-.1.3-.1.4 0l1 .7c.2.1.2.3 0 .4-.2.1-.3.1-.5.2v4.3c0 .1-.6.3-1 .4zm-.1-10.7c.1-.1.2-.2.4-.1l.9.8c.1.1.2.3.1.4-.1.1-.2.1-.3.1h-4.9c-.1 0-.3-.1-.3-.2-.1-.1 0-.2.1-.3h3.5l.5-.7zm-4.1-3.5c-.1-.2.1-.3.2-.3h3.3l.6-.7c.1-.1.2-.1.3 0 .3.2.7.6 1 .9.1.1.2.3.1.4-.1.1-.2.1-.4.1h-4.9c-.1-.2-.2-.3-.2-.4 0-.1 0-.1 0 0zm4 9.3h-3v3.4h3v-3.4zm10.3-2.2c-.2.1-.3.1-.5.1-.6 1.6-1.6 3.1-2.8 4.3 1.4 1 3 1.8 4.7 2.2.2.1.3.1.2.2 0 0-.1.1-.2.1-.4.1-.7.4-.8.7 0 .1-.2.2-.3.2-1.6-.6-3.1-1.5-4.3-2.7-1.6 1.2-3.4 2.2-5.3 2.7-.2.1-.3 0-.3-.1s0-.2.2-.2c1.8-.7 3.4-1.7 4.8-3-1-1.3-1.8-2.9-2.2-4.5h-1.1c-.1 0-.3-.1-.3-.2-.1-.2 0-.3.2-.3h6.1l.6-.6c.1-.1.2-.1.4 0l.9.8c.2.1.2.3 0 .3zm-8.4-1.5c1.2-1.2 1.9-2.9 1.7-4.7v-1.8c0-.1.1-.2.2-.2h.2l1 .5h2.4l.4-.5c.1-.1.2-.1.3 0l.8.7c.2.1.2.3 0 .4-.1 0-.2.1-.4.1v3.7c0 .2 0 .2.4.2h1.5c.1 0 .2-.1.3-.2.1-.3.3-1.1.4-1.9 0-.2.1-.2.2-.2s.1.1.1.3l.1 1.9c.3.1.4.3.4.5 0 .5-.5.7-2.1.7h-1c-1 0-1.2-.3-1.2-1V239H450v1c.2 2-.8 4-2.6 5-.2.1-.3.1-.3 0-.1-.1-.1-.2.1-.3zm4.4 5.2c1-1.1 1.7-2.4 2.2-3.8h-4.6c.5 1.5 1.3 2.8 2.4 3.8zM403 11c0-2.6 1-4.8 1-6.2 0-.3-.1-.6-.2-.9-.1-.1-.2-.3-.2-.5s.1-.2.2-.2.5.2.8.6c.2.3.3.6.3 1 0 1.4-1.3 3.1-1.4 6.1 0 .2.1.3.1.3l.2-.2c.1-.4.3-.7.6-1 .2-.2.3-.3.4-.3.1 0 .1.1.1.1 0 .1-.1.2-.1.3-.2.6-.4 1.1-.4 1.8 0 .8.2 1.6.4 2.4 0 .1.1.3.1.4 0 .3-.2.5-.4.6h-.1c-.4 0-.7-.3-.8-.6-.4-1.3-.6-2.5-.6-3.7zm9.3 3.1c-1.5.1-2.9-.5-3.9-1.7-.1-.1-.1-.2-.1-.3 0-.1.1-.2.2-.2s.2 0 .3.1c.7.6 1.7.9 2.6.9.8 0 1.6-.1 2.4-.3h.3c.5 0 .9.3.9.6s-.2.5-.7.6c-.7.3-1.3.3-2 .3zm-1.1-8.6c-.8 0-1.7-.2-2.4-.6-.2-.1-.3-.2-.3-.3 0-.1.1-.1.2-.1h.2c.5.1 1 .2 1.5.2.8 0 1.5-.2 2.3-.4h.3c.3 0 .5.2.5.4s-.2.4-.5.6c-.6.2-1.2.2-1.8.2zM415.5 34c.3.2.9.7 1.3 1.1.1.1.2.3.1.4-.1.1-.2.1-.3.1h-15.7c-.1 0-.3-.1-.3-.2-.1-.1 0-.2.1-.3h7.3v-5.2h-5.2c-.1 0-.3-.1-.3-.2 0-.2.1-.3.2-.3h5.2v-4.6h-4.1c-.9 1.5-1.9 2.8-3.2 4-.1.1-.2.1-.3.1-.1-.1-.1-.2 0-.3 1.7-2.3 3-5 3.8-7.8 0-.1.1-.2.3-.2h.1l1.3.4c.2.1.3.2.1.3-.2.1-.3.1-.5.1-.4 1-.8 1.9-1.3 2.8h3.7v-4c0-.1.1-.2.2-.3h.1l1.3.1c.2 0 .3.2.2.3-.1.1-.3.2-.5.2v3.6h4.1l.8-.9c.1-.1.2-.1.4 0s.8.6 1.3 1c.1.1.2.3.1.4-.1.1-.2.1-.4.1h-6.2v4.5h3.4l.8-.9c.1-.1.2-.1.4 0s.8.7 1.3 1c.1.1.2.3.1.4-.1.1-.2.1-.3.1h-5.6V35h5.1l.8-1c-.1-.2.1-.2.3 0-.1-.1-.1-.1 0 0zM409.4 52.3c-.3 1.3-1.6 2.3-3 2.1-1.3 0-2.4-.6-2.4-1.8s1.3-1.8 2.9-1.8c.5 0 1 .1 1.5.2 0-1 0-2 .1-2.8-1.3.1-2.7-.2-3.9-.7-.3-.1-.4-.3-.4-.4 0-.1.1-.2.3-.2h.3c.9.3 1.8.4 2.8.4h.9v-2.1c-.6.1-1.3.2-1.9.2-1 0-1.9-.3-2.7-.8-.2-.1-.3-.3-.3-.5 0-.1.1-.2.2-.2s.3 0 .4.1c.8.4 1.6.5 2.5.5.6 0 1.3-.1 1.9-.2.1-.8-.2-1.6-.6-2.3-.1-.1-.2-.3-.2-.5 0-.1.1-.3.2-.3h.1c.3 0 .5.1.8.3.6.3.8.8.8 1.8v.8c.7-.2 1.4-.5 2.1-.8.2-.1.3-.1.5-.1.5 0 .9.3.9.6s-.2.3-.5.4c-1.2.3-2.2.6-3.1.7.7.8 1.6 1.3 2.6 1.4.4 0 .6.2.6.5s-.2.4-.6.6c-.9.4-1.9.6-2.9.7v3c.8.2 1.5.6 2.2 1.1.3.3.6.6.6 1.1 0 .2-.2.5-.4.5s-.4-.1-.5-.3c-.5-.3-1.1-.8-1.8-1.2zm-3.1 1.4c1.1.1 2-.7 2.2-1.7-.6-.2-1.3-.3-1.9-.3-1.1 0-1.9.4-1.9 1s.8 1 1.6 1zm4.6-6.6c.1 0 .2-.1.2-.2s-.1-.2-.2-.2c-.6-.3-1.1-.7-1.5-1.1 0 .5-.1 1.1-.1 1.8.6-.1 1.1-.2 1.6-.3zM403.9 70.3c-.4.5-.8 1.1-1.2 1.7-.4.6-.6.7-.8.7-.2 0-.3-.2-.3-.5s.1-.5.3-.8c.6-.8 1.2-1.6 1.7-2.2-.4-1.2-.8-2.1-1-2.5-.1-.2-.2-.5-.2-.7 0-.4.2-.7.5-.9.7-.5 1.6-.8 2.5-.9.1-.9-.2-1.7-.7-2.4-.2-.2-.3-.4-.3-.7 0-.2.1-.3.3-.3.5.1.9.3 1.2.7.3.3.4 1.1.4 2.3v.6c.2.1.3.4.3.6 0 .3-.1.7-.3 1 2-1.9 3.4-2.7 4.4-2.7 1.2 0 1.7 1 1.7 2.1 0 .3 0 .6-.1.9-.3 1.2-.4 2.4-.4 3.7 0 1.8.5 2.3 1.2 2.3 1-.2 1.8-.7 2.5-1.4.1-.1.2-.2.4-.2.1 0 .1 0 .1.1s-.1.2-.2.3c-.7 1.1-1.8 1.8-3.1 2-1 0-1.8-.9-1.8-3.5 0-1.1.1-2.3.3-3.4v-.5c0-.8-.4-1.3-1-1.3-.9 0-2.3.8-4 2.7 0 1-.1 2.2-.1 3.5v2.5c0 .6-.3 1.1-.6 1.1s-.6-.3-.8-1.1c-.3-.8-.6-1.8-.9-2.8zm1.5-3.2v-1.7c-.1-.1-.3-.2-.5-.2-.5 0-1.1.2-1.5.5-.2.1-.4.4-.4.6 0 .1 0 .2.1.3.1.2.3.9.8 2.1.4-.5 1-1 1.5-1.6zm-.3 4.7c.1 0 .1-.1.1-.1 0-1.2.1-2.3.1-3.2-.3.4-.7.9-1.1 1.4l.7 1.9h.2zM413.3 89.8c-.2 0-.4.1-.5.1-.8 1.2-1.8 2.2-3 2.9 2.3.9 4.7 1.4 7.2 1.5.2 0 .3.1.3.1 0 .1-.1.1-.2.2-.4.1-.6.4-.7.8-.1.2-.2.2-.3.2-2.5-.2-4.9-1-7.1-2.3-2.5 1.2-5.2 2-8 2.3-.2 0-.3 0-.3-.1s.1-.2.2-.2c2.6-.4 5-1.2 7.3-2.5-.8-.7-1.6-1.5-2.2-2.4-1.2 1-2.6 1.8-4.1 2.3-.1.1-.3.1-.3 0s0-.2.2-.3c2.2-1.2 4.1-2.9 5.4-5 .1-.1.2-.2.4-.1l1.3.4c.2.1.3.3.1.3h-.5c-.3.4-.6.7-.9 1h4.2l.7-.6c.1-.1.3-.1.4 0l.9.8c-.3.4-.3.6-.5.6zm-12.8-8.1c0-.1 0-.2.1-.3H408v-1.9c0-.1.1-.2.2-.3h.1l1.2.1c.2 0 .3.2.2.3-.1.1-.3.2-.5.2v1.5h5.1l.7-.9c.1-.1.2-.1.4 0 .3.2.8.7 1.2 1 .1.1.2.3.1.4-.1.1-.2.1-.4.1h-5v4.3c0 .9-.2 1.4-1.5 1.6-.2 0-.3 0-.3-.2s-.1-.4-.3-.5c-.3-.2-.7-.3-1.1-.4-.2 0-.3-.1-.3-.2s.1-.1.3-.1c.5 0 1.4.1 1.7.1s.4-.1.4-.3v-4.3h-2.4c-.2 2.9-.9 5.2-5.8 6.8-.1.1-.3 0-.3-.1-.1-.1 0-.2.2-.3 4.2-1.7 4.6-3.9 4.7-6.5h-5.8c-.1.1-.2 0-.3-.1zm4.6 2.1h-.4c-1 1-2.2 1.9-3.6 2.5-.1.1-.3.1-.3 0-.1-.1 0-.2.1-.3 1.1-.8 2.1-1.9 2.8-3 .1-.1.2-.2.4-.1l.9.5c.3.1.3.3.1.4zm1 6.4c.7.9 1.6 1.6 2.6 2.1 1-.7 1.9-1.6 2.6-2.6h-4.7c-.1.2-.3.4-.5.5zm6.4-7.2c4.7 1.2 4.4 4 3.1 3.6-.1 0-.2-.1-.2-.3-.8-1.2-1.8-2.2-3-3-.2-.1-.2-.2-.2-.3s.1 0 .3 0zM408.7 114.3c-.1 0-.2 0-.2-.1s.1-.2.3-.3c3.8-1.6 5.2-3.8 5.2-5.6 0-1.8-1.5-3.2-3.3-3.2h-.2c-1.6.1-3.1.8-4.3 1.9 0 1.1-.1 2.4-.1 3.9v2.5c0 .7-.3 1.1-.7 1.1-.4 0-.6-.3-.9-1.2-.3-1.1-.6-2.1-1.1-3.2l-.9 1.5c-.3.5-.7.9-1 .9-.3 0-.4-.2-.4-.5.1-.3.2-.6.4-.9.5-.7 1-1.4 1.4-2-.3-.7-.6-1.1-.7-1.4-.1-.2-.2-.4-.2-.7 0-.4.2-.7.5-.9.8-.6 1.7-1.1 2.6-1.4 0-1.5-.2-2.4-.7-3-.2-.2-.3-.4-.3-.6 0-.2.1-.3.3-.3.5.1.9.3 1.2.7.4.7.5 1.5.4 2.4v.7c.2 0 .4.2.3.4 0 .3-.1.6-.3.9 1.3-1.1 2.9-1.7 4.5-1.8 2.2 0 4 1.7 4.1 3.9v.2c0 2.3-1.8 4.9-6.2 5.9.4.1.3.2.3.2zm-3.2-7.4v-.9c-.8.1-1.5.4-2.1.9-.3.1-.4.4-.4.7 0 .1 0 .2.1.3.1.2.3.5.5 1 .6-.8 1.2-1.4 1.9-2zm-.3 4.9c.1 0 .1-.1.1-.2 0-1.4.1-2.7.1-3.7-.5.5-.9 1.1-1.4 1.7.3.5.6 1.2 1 2.1.1 0 .1.1.2.1zM405.5 133.5c0-.1.2-.2.4-.2 3-.1 5.5-2.5 5.8-5.5v-.6c0-2.5-1.5-3.7-2.9-3.7-1.5 0-2.7 1.3-2.6 2.8v.2c0 .7.2 1.4.4 2.1.1.2.1.4.1.6 0 .4-.2.6-.5.6-.2 0-.5-.2-.6-.4-.4-.7-.7-1.4-.8-2.2 0-.3-.1-.6-.1-.9 0-1.5.5-2.7.5-3.7 0-.5-.2-1-.5-1.4-.1-.1-.2-.2-.2-.3 0-.2.2-.3.4-.3s.4.1.6.2c.5.3.8.9.7 1.5-.1.9-.4 1.9-.7 2.8v.1c0 .1 0 .1.1.1s.1 0 .1-.1c.5-1.3 1.7-2.3 3.1-2.3 1.9 0 3.8 1.7 3.6 5.1-.2 3.5-3.2 6.2-6.7 6-.1-.3-.2-.4-.2-.5zM409.4 151.3c-.3 1.3-1.6 2.3-3 2.1-1.3 0-2.4-.6-2.4-1.8 0-1.1 1.3-1.8 2.9-1.8.5 0 1 .1 1.5.2 0-1 0-2 .1-2.8-1.3.1-2.7-.2-3.9-.7-.3-.1-.4-.3-.4-.4 0-.1.1-.2.3-.2h.3c.9.3 1.8.4 2.8.4h.9v-2.1c-.6.1-1.3.2-1.9.2-1 0-1.9-.3-2.7-.8-.2-.1-.3-.3-.3-.5 0-.1.1-.2.2-.2s.3 0 .4.1c.8.4 1.6.5 2.5.5.6 0 1.3-.1 1.9-.2.1-.8-.2-1.6-.6-2.3-.1-.1-.2-.3-.2-.5 0-.1.1-.3.2-.3h.1c.3 0 .5.1.8.3.6.3.8.8.8 1.8v.8c.7-.2 1.4-.5 2.1-.8.2-.1.3-.1.5-.1.5 0 .9.3.9.6s-.2.3-.5.4c-1.2.3-2.2.6-3.1.7.7.8 1.6 1.3 2.6 1.4.4 0 .6.2.6.5s-.2.4-.6.6c-.9.4-1.9.6-2.9.7v3c.8.2 1.5.6 2.2 1.1.3.3.6.6.6 1.1 0 .2-.2.5-.4.5s-.4-.1-.5-.3c-.5-.3-1.1-.8-1.8-1.2zm-3.1 1.4c1.1.1 2-.7 2.2-1.7-.6-.2-1.3-.3-1.9-.3-1.1 0-1.9.4-1.9 1s.8 1 1.6 1zm4.6-6.6c.1 0 .2-.1.2-.2s-.1-.2-.2-.2c-.6-.3-1.1-.7-1.5-1.1 0 .5-.1 1.1-.1 1.8.6-.1 1.1-.2 1.6-.3zM407 173.8c-.2 0-.2-.1-.2-.2s.1-.2.3-.3c1.5-.6 2.4-2.1 2.3-3.8-.3.3-.7.5-1.1.5-.8 0-1.7-.8-1.8-2.6v-.3c-.1-1.1.7-2 1.7-2.1h.1c.3 0 .7.1 1 .3v-1.6c-2.7.2-4.5.8-5.7.8-.3 0-.5 0-.7-.1-.7-.2-1-.6-1-.9s.2-.4.4-.4c.1 0 .3 0 .4.1.5.2 1 .3 1.5.2 1.3 0 3-.4 5-.6 0-.7-.2-1.4-.4-2.1-.1-.2-.2-.5-.2-.7 0-.1.1-.3.2-.3h.1c.2 0 .5.1.7.3.3.1.5.4.5.7 1.5 1.2 3.3 2 5.1 2.6.4.1.6.3.6.5s-.2.3-.5.3h-.2c-1.5-.3-3-.4-4.5-.4h-.6v2.6c.2.4.2.7.3 1.1v1c-.1 2-.6 4.7-3.3 5.4zm2.2-6.5c-.1-1-.6-1.5-1.1-1.5s-1 .5-1 1.5c0 1.3.5 1.8 1.1 1.8.5 0 1.1-.5 1.1-1.5l-.1-.3zm3.2-4.4c.1 0 .1 0 .1-.1-.8-.5-1.6-1-2.5-1.5l-.1 1.5c.9 0 1.7.1 2.5.1zM411.9 181.1c0-1.4 1.1-2.5 2.5-2.5s2.5 1.1 2.5 2.5-1.1 2.5-2.5 2.5c-1.4-.1-2.5-1.2-2.5-2.5zm.6 0c0 1 .8 1.9 1.9 1.9s1.9-.8 1.9-1.9c0-1-.8-1.9-1.9-1.9-1.1 0-1.9.8-1.9 1.9 0-.1 0-.1 0 0zM320.7 4.2c3.2.6 2.7 2.8 1.6 2.4-.1 0-.2-.1-.2-.3-.4-.7-.9-1.3-1.5-1.8-.1-.1-.2-.2-.1-.3-.1 0 0-.1.2 0zm4.6-.5c-.8 2.3-2.3 6.1-2.5 6.9-.2.5-.3 1-.3 1.6.2 1 .4 2.1.4 3.1 0 .8-.4 1.2-.9 1.2-.3 0-.5-.3-.5-.8v-.3c.2-1.8.1-3.1-.3-3.4-.2-.1-.4-.2-.6-.2-.2 0-.3-.1-.3-.3s.1-.2.3-.2h.5c.2 0 .3 0 .5-.4.3-.6.3-.6 3.3-7.4.1-.2.2-.2.3-.2.2.1.2.2.1.4zM321.9.2c3.4.8 2.9 3 1.7 2.5-.1 0-.2-.1-.2-.3-.4-.8-1-1.5-1.7-2-.1-.1-.2-.2-.1-.3s.2 0 .3.1zm14.3 14.3.9.9c.1.1.1.3 0 .3-.1.1-.2.1-.4.1h-12.9c-.1 0-.3-.1-.3-.2s0-.2.1-.3H325.3V9.2c0-.2.1-.3.3-.2l1 .4h7.1l.4-.6c.1-.1.2-.2.3-.1h.1l1.1.8c.2.1.2.3 0 .4-.2.1-.4.1-.6.2v5.2h.2l.5-.8c.2-.2.3-.2.5 0zm-9.8-6.3c-.1 0-.2-.1-.2-.3V.8c0-.2.1-.3.3-.2l1 .4h5.8l.4-.5c.1-.1.2-.1.4 0l.8.7c.2.1.2.3 0 .4-.1.1-.3.1-.5.1v6c-.3.2-.6.4-1 .3-.1 0-.2-.1-.2-.3v-.6h-6.1v.7c.2.1-.1.4-.7.4zm1.9 7.1V9.9h-1.8v5.4h1.8zm-1-11.5h6.1V1.6h-6.1v2.2zm6.1.5h-6.1v2.3h6.1V4.3zm-4.1 5.6v5.4h1.8V9.9h-1.8zm2.8 5.4h1.9V9.9h-1.9v5.4zM320.7 23.8c3.3.6 2.8 2.9 1.7 2.4-.1-.1-.2-.2-.2-.3-.4-.7-.9-1.4-1.6-1.9-.2-.1-.2-.2-.2-.3 0 .1.1.1.3.1zm4.7-.6c-.8 2.3-2.2 6.3-2.5 7.1-.2.5-.3 1-.3 1.6.2 1 .4 2.1.5 3.1 0 .8-.4 1.2-1 1.2-.3 0-.5-.3-.5-.7v-.3c.2-1.8.1-3.1-.3-3.4-.2-.1-.4-.2-.6-.2-.2 0-.3-.1-.3-.2s.1-.2.3-.2h.5c.2 0 .3 0 .4-.4.3-.7.3-.7 3.4-7.7.1-.2.2-.2.3-.2.2 0 .2.1.1.3zM322 20c3.5.8 2.9 3.1 1.7 2.6-.1 0-.2-.1-.2-.3-.4-.8-1-1.5-1.7-2-.1-.1-.2-.2-.1-.3s.1 0 .3 0zm9.8 3.8c-.1 0-.3.1-.4.1a13 13 0 0 0 5.8 4.8c.2.1.2.2.2.2 0 .1-.1.1-.2.2-.3.1-.6.3-.7.6-.1.2-.2.2-.3.1-2.2-1.4-4-3.4-5-5.7-1.6 2.6-3.8 4.8-6.5 6.3-.2.1-.3.1-.3 0-.1-.1 0-.2.1-.3 2.4-1.7 4.3-4.1 5.5-6.8 0-.1.2-.2.3-.2l1.5.4c.1 0 .2.2 0 .3zm-6.3.8c1.2-1.3 2.1-2.8 2.8-4.4 0-.1.2-.2.3-.2l1.2.6c.2.1.3.3.1.4h-.4c-1 1.5-2.3 2.8-3.8 3.9-.1.1-.3.1-.3 0s-.1-.1.1-.3zm8.8 4.3.9.7c.1.1.2.3 0 .4-.1.1-.3.1-.4.1v5.8c-.3.2-.6.4-1 .3-.1 0-.2-.1-.2-.3v-1.1h-5.7v1.1c0 .1-.3.4-.9.4-.1 0-.2-.1-.2-.3v-6.8c0-.2.1-.3.3-.2l1 .4h5.4l.4-.5c.1-.1.3-.1.4 0zm-.7 1.1H328v4.4h5.7V30zm-1.4-9.8c5 1.9 4.6 4.8 3.3 4.2-.1 0-.2-.1-.2-.2-.8-1.4-1.9-2.7-3.2-3.7-.2-.1-.2-.2-.1-.3 0-.1.1 0 .2 0zM327.4 48.3c0-.7.6-1.2 1.2-1.2.7 0 1.2.6 1.2 1.2 0 .7-.5 1.2-1.2 1.2-.6.1-1.1-.5-1.2-1.2 0 .1 0 0 0 0zM326.1 74.8c-.1 0-.1 0-.1-.1s.1-.2.2-.3c3.4-1.8 4.1-3.8 4.3-8.1-1.1 0-2.1 0-2.8.1l.1 2.5c0 .7-.2 1-.5 1s-.6-.3-.6-1v-2.5c-1.7.2-2.6.3-3.2.3-.5 0-.9-.2-1.3-.5-.2-.1-.3-.3-.3-.5s.2-.3.5-.3h.2c.7.2 1.4.4 2.1.3h2c0-2.1-.1-2.6-.6-2.9-.1-.1-.3-.2-.3-.4s.2-.3.3-.3c.1 0 .2 0 .3.1 1 .4 1.1.8 1.1 1.5 0 .4 0 .9.1 1.9l2.9-.1v-1.7c.1-.8-.1-1.6-.7-2.1-.1-.1-.2-.2-.3-.4 0-.1.1-.2.3-.2.1 0 .2 0 .4.1.8.2 1.4.9 1.4 1.8 0 .4-.1.8-.1 1.2v1.3h.6c.9 0 1.6-.3 2.2-.3.3 0 .5.1.8.2.3.1.5.4.6.8 0 .2-.1.3-.4.3h-.2c-.9-.2-1.8-.2-2.7-.2h-.9c-.3 6-2.1 7.2-5.2 8.5h-.2zM323.5 94.6c-.2 0-.3-.1-.3-.2s.2-.2.5-.3c4.2-.8 8.1-3.1 8.3-9.2 0-.1-.1-.3-.2-.3h-.1c-1.4.1-3.8.2-5.5.2.1.7.1 1.3.3 2.1v.3c0 .5-.2.7-.5.7s-.6-.3-.6-1c0-1.8-.2-2.7-.6-3-.2-.1-.2-.2-.2-.3s.1-.3.4-.3h.3c.5.2.8.3.9.7h2.3v-.9c0-.8-.1-1.1-.5-1.4-.1-.1-.2-.2-.3-.4 0-.1.1-.3.4-.3h.3c.9.2 1.1.6 1 1.2-.1.6-.2 1.1-.2 1.7 1.1-.1 2.3-.1 3.2-.3h.2c.6 0 .8.3.8.9v.3c-.6 3.9-1.9 8.9-9.9 9.8zM326 114.4c-.1 0-.1-.1-.1-.2s.1-.2.1-.3c2.2-2.6 2.7-4.5 2.9-8.2-2.8.3-4 .6-4.7.6-.4 0-.7-.1-1-.4-.2-.2-.3-.4-.3-.7 0-.2.1-.3.3-.3h.1c.1 0 .2 0 .3.1.6.3 1.3.4 2 .4 1.1 0 2.2-.2 3.4-.3v-1.9c0-.7-.2-1.4-.6-2-.2-.2-.3-.4-.3-.6 0-.2.1-.3.4-.3.1 0 .3 0 .4.1 1 .3 1.3.9 1.3 1.4v.3c0 .2-.1.4-.1.7v2.3c.6-.1 1.4-.2 2.1-.3.8-.1 1.1-.2 1.6-.2.3 0 .6 0 .8.1.6.2.8.5.8.7 0 .2-.2.4-.7.3-.6-.1-1.2-.2-1.8-.2h-.5c-.9 0-1.7.1-2.4.2-.1 3.7-1.1 6.3-3.7 8.6-.1 0-.2 0-.3.1zM328.4 134c-2.3 0-3.7-.9-3.7-2.2s1.1-2.5 3.6-3.7c-.2-.9-.7-1.6-1.4-1.6-.8 0-1.7.5-2.8 1.9-.2.2-.4.4-.7.4-.3 0-.5-.2-.6-.5 0-.3.2-.5.4-.7 1.6-1.1 2.9-2.6 3.7-4.4-.4.1-.8.2-1.1.2-.3 0-.6-.1-.9-.2-.3-.2-.5-.5-.6-.8 0-.2.1-.4.3-.4h.1c.1 0 .2 0 .3.1.3.2.7.3 1.1.3.3 0 .7-.1 1-.2 0-.3-.1-.7-.3-1-.1-.1-.2-.2-.2-.4s.2-.4.4-.4c.3 0 .5.1.7.4.3 0 .8.1 1.1.2.3.1.3.2.3.3 0 .2-.1.3-.1.5-.3.5-.7.8-1.2 1.1-.4 1.2-1 2.2-1.8 3.2 0 .1-.1.1-.1.1s.1.1.2 0c.3-.2.7-.2 1-.2.6 0 1.2.3 1.5.8 1.6-1.9 3.1-2.7 4.1-2.7.7 0 1.1.3 1.1.8 0 .9-1.2 2.2-4.5 3.4h-.1c.1.3.1.7.1 1 0 .4 0 .8-.1 1.1-.1.6-.5.8-.8.8-.3 0-.5-.3-.5-.6 0-.1 0-.3.1-.4l.3-1.5c-1.9.9-2.9 2.1-2.9 3 0 .7.7 1.2 2.1 1.2 1 0 2-.2 3-.5.2 0 .3 0 .5-.1.6 0 1 .3 1 .6s-.2.4-.7.6c-.9.3-1.9.4-2.9.5zm0-12.5.1-.1c0-.1-.1-.1-.1-.1-.2 0-.3-.1-.5-.1.1.2.1.4.1.6.1-.1.2-.2.4-.3zm4.4 3.6c0-.2-.2-.3-.5-.3-1.4.3-2.6 1.2-3.4 2.4.1.1.1.3.2.5 2.7-1.2 3.7-2.2 3.7-2.6zM322.6 149.9c0-.4 0-.8.1-1.1.5-1.7.8-3.4.9-5.2 0-.3-.1-.7-.2-1-.2-.2-.3-.4-.3-.7 0-.2.1-.3.3-.3.3 0 .6.2.8.5.2.4.3.8.3 1.2-.2 1.9-.6 3.8-1.1 5.6v.2c0 .2.1.3.2.3s.2-.1.3-.4c.3-1.1.8-2.1 1.4-3.1.1-.2.2-.3.3-.3.1 0 .1.1.1.2s0 .2-.1.2c-.7 1.5-1.2 3.2-1.4 4.9 0 .2 0 .4.1.7.1.2.1.5.1.7 0 .5-.2.7-.5.7s-.6-.3-.9-.9c-.2-.6-.4-1.4-.4-2.2zm9.6 1.2c0 1.4-1.5 2.1-2.8 2.1s-2.4-.6-2.4-1.8c0-1.2 1.2-1.8 2.7-1.8.5 0 1.1 0 1.6.2v-4.3c-1.2 0-2.3-.4-3.2-1.2-.1-.1-.2-.2-.2-.4 0-.1.1-.2.2-.2s.3 0 .4.1c.8.5 1.8.8 2.8.7 0-1.1-.1-2.2-.4-3.3l-.3-.6c0-.2.1-.3.3-.3.2 0 .4.1.5.2.6.3 1 .9.9 1.6v1c.4.2.8.4 1.2.4.4.1.7.3.7.5s-.3.6-.9.9c-.3.2-.7.3-1.1.4 0 .6-.1 1.3-.1 2.1s0 1.6.1 2.5c.8.2 1.6.7 2.2 1.3.2.2.4.6.4.9 0 .2-.1.4-.4.5-.2 0-.5-.2-.8-.6-.4-.2-.9-.6-1.4-.9zm-3.1 1.3c1 0 2.2-.5 2.2-1.7-.6-.2-1.2-.3-1.8-.3-1.1 0-1.8.4-1.8 1.1-.1.6.6.9 1.4.9zm3.7-8.2.1-.1c0-.1-.1-.1-.1-.2-.2-.1-.4-.3-.5-.4l-.1 1 .6-.3zM328.1 173.5c-1.9 0-3.3-1.2-3.3-3.7v-.6c.4-4.1.7-5.8.7-6.8 0-.4-.1-.7-.3-1-.1-.1-.2-.3-.2-.4 0-.1.1-.3.2-.3s.2 0 .3.1c.7.3 1.1.9 1 1.6 0 1.2-.6 3.1-.9 6.7v.4c-.2 1.4.8 2.6 2.2 2.8h.5c1.6 0 3.7-.9 5.7-2.8.1-.1.2-.1.3-.2.1 0 .1 0 .1.1s0 .2-.1.3c-1.8 2.6-4.3 3.8-6.2 3.8zm2-10.8c-.1-.1-.2-.2-.2-.3 0-.1.1-.2.2-.2h.2c.8.2 1.4.8 1.8 1.5.1.1.1.3.1.5 0 .3-.2.5-.4.5-.3 0-.5-.2-.6-.5-.4-.6-.7-1.1-1.1-1.5zm1.6-.3c-.1-.1-.2-.2-.2-.3 0-.1.1-.2.2-.2h.2c.7.2 1.3.7 1.7 1.3.1.1.1.3.1.4 0 .3-.2.5-.5.5-.2 0-.4-.1-.6-.5-.2-.4-.5-.8-.9-1.2zM328.2 193.2c-.2 0-.2-.1-.2-.2s.1-.2.3-.2c3.6-.4 5.8-3.1 5.8-5.4 0-1.9-1.4-3.6-4.4-3.8-.3 1.6-.9 3.1-1.6 4.5.2.2.4.4.4.7 0 .3-.2.5-.5.5-.2 0-.4-.1-.5-.2-.9 1.5-2 2.6-3.1 2.6-1.3 0-2-1.1-2-2.6.1-1.8.9-3.6 2.3-4.8-.3-.7-.7-1.4-1.3-1.9-.2-.1-.2-.3-.2-.3 0-.1.1-.2.2-.2s.2 0 .3.1c.7.5 1.3 1.1 1.6 1.9 1.1-.7 2.4-1.2 3.7-1.2v-.5c0-.5-.1-.9-.3-1.4-.1-.1-.2-.3-.2-.5s.1-.3.3-.3c.3 0 .5.1.7.3.4.4.5.9.5 1.5 0 .3 0 .6-.1.9 3.4.2 5.2 2.5 5.2 4.8-.1 2.5-2.2 5.3-6.9 5.7zm-1.3-4.6c-.9-1-1.5-2.3-1.9-3.6-1 1-1.7 2.3-1.7 3.7 0 1.1.4 1.9 1.2 1.9s1.7-.8 2.4-2zm2-5c-1.2 0-2.3.3-3.3 1 .5 1.1 1.1 2.1 1.9 3 .6-1.3 1.1-2.6 1.4-4zM332.5 198.2c1.4.4 2.7 1.2 3.6 2.3.3.3.4.8.4 1.2 0 .4-.2.8-.6.8h-.1c-.4 0-.6-.2-.9-.8-.6-1.3-1.5-2.4-2.6-3.2-.2-.1-.2-.2-.1-.3 0 0 .1-.1.3 0zM281.2 12.9c-.2 0-.2-.1-.2-.1s.1-.2.3-.2c2.8-.7 5.1-2.5 6.4-5.1.1-.1.1-.2.1-.2 0-.1 0-.2-.1-.2-.2-.2-.4-.3-.6-.4-.2-.1-.4-.2-.4-.3 0-.1.2-.2.4-.2 1.4 0 2.1.8 2.1 1.5 0 .2-.1.4-.2.6-1.8 2.6-4.6 4.4-7.7 4.9l-.1-.3zM291.9 7c-.1-.1-.2-.2-.2-.3 0-.1.1-.2.2-.2h.2c1.6.7 2.9 1.9 3.7 3.4.1.2.2.5.2.7 0 .4-.3.7-.6.7h-.1c-.5 0-.9-.4-1-.8-.5-1.3-1.3-2.6-2.4-3.5zM288 32.3v-.7c.2-3.2.3-5.1.3-6.4 0-1.1-.1-2.1-.5-3.1 0-.1-.1-.3-.1-.4 0-.3.1-.5.3-.5.2 0 .5.2.7.6.3.4.5.9.4 1.4 0 1.1-.5 2.7-.5 6 0 .8 0 1.7.1 2.7 0 .7.1 1.5.3 2.2v.2c0 .3-.2.6-.5.6s-.6-.3-.6-.8c.1-.6.1-1.2.1-1.8zM288 44c0-1.5-.2-2-.6-2.4-.2-.1-.3-.3-.3-.5s.2-.3.5-.3h.2c1 .2 1.1.7 1.1 1.1v.3c-.1.4-.1.9-.1 1.3v2.8c1.8 0 3.4.8 4.5 2.2.2.2.3.5.3.8 0 .4-.3.7-.6.7-.4 0-.7-.3-.9-.7-.9-1.7-1.8-2.4-3.3-2.5 0 1.9.1 3.9.3 6.3.1 1-.3 1.4-.7 1.4s-.8-.5-.7-1.3c.1-4.9.3-7.6.3-9.2zm3.6.4c-.1-.1-.2-.2-.2-.3 0-.1.1-.2.3-.2h.2c.8.2 1.4.8 1.8 1.5.1.1.1.3.1.5 0 .3-.2.5-.4.5-.3 0-.6-.2-.7-.5-.3-.7-.7-1.1-1.1-1.5zm1.7-.3c-.1-.1-.2-.2-.2-.3 0-.1.1-.2.3-.2h.2c.7.2 1.3.6 1.7 1.2.1.1.1.2.1.4 0 .3-.2.5-.5.5s-.5-.2-.6-.4c-.3-.5-.6-.9-1-1.2zM286.1 74.8c-.1 0-.1 0-.1-.1s.1-.2.2-.3c3.4-1.8 4.1-3.8 4.3-8.1-1.1 0-2.1 0-2.8.1l.1 2.5c0 .7-.2 1-.5 1s-.6-.3-.6-1v-2.5c-1.7.2-2.6.3-3.2.3-.5 0-.9-.2-1.3-.5-.2-.1-.3-.3-.3-.5s.2-.3.5-.3h.2c.7.2 1.4.4 2.1.3h2c0-2.1-.1-2.6-.6-2.9-.1-.1-.3-.2-.3-.4s.2-.3.3-.3c.1 0 .2 0 .3.1 1 .4 1.1.8 1.1 1.5 0 .4 0 .9.1 1.9l2.9-.1v-1.7c.1-.8-.1-1.6-.7-2.1-.1-.1-.2-.2-.3-.4 0-.1.1-.2.3-.2.1 0 .2 0 .4.1.8.2 1.4.9 1.4 1.8 0 .4-.1.8-.1 1.2v1.3h.6c.9 0 1.6-.3 2.2-.3.3 0 .5.1.8.2.3.1.5.4.6.8 0 .2-.1.3-.4.3h-.2c-.9-.2-1.8-.2-2.7-.2h-.9c-.3 6-2.1 7.2-5.2 8.5h-.2zM289.5 87.4c0-1.1-.3-1.4-.6-1.5-2 1.6-4.2 3-6.6 4h-.2c-.1 0-.2 0-.2-.1s.1-.2.2-.3c3.2-1.7 6-4 8.4-6.7.2-.2.4-.5.4-.8 0-.1 0-.3-.1-.4v-.2c0-.2.1-.3.4-.3.3 0 .6.1.8.3.3.2.5.4.5.8-.1.4-.3.8-.6 1-.9.9-1.7 1.6-2.5 2.3.6 0 1.1.5 1.1 1.1v.5c-.1 1-.2 2-.2 3 0 1.3.1 2.5.2 3.5 0 .7-.3 1-.6 1s-.6-.3-.6-1c.1-1.4.2-4.8.2-6.2zM283.3 114c-.1 0-.2 0-.2-.1s.1-.2.3-.3c3.5-1.7 5.6-3.4 6.9-5.5-.4-.6-.9-1.1-1.6-1.4-.2-.1-.3-.2-.3-.3 0-.1.1-.1.2-.1h.2c.7.3 1.3.6 1.9 1 .6-1.1 1-2.2 1.3-3.4v-.1c0-.1-.1-.2-.2-.2h-.1c-1.2.1-2.3.2-3.3.2-.9 2-2.6 3.7-4.6 4.6-.1 0-.1.1-.2.1s-.1 0-.1-.1.1-.2.2-.3c1.8-1.2 3.3-3 4.1-5 .1-.3.2-.5.2-.8 0-.2-.1-.5-.3-.7-.2-.1-.3-.3-.3-.5 0-.1.1-.2.3-.2.1 0 .2 0 .3.1.8.3 1 .7 1 1.1 0 .3-.1.6-.2.9l-.1.3c1.2 0 2.4-.1 3.6-.3h.3c.5 0 .7.3.7.6s-.1.6-.2.9c-.5 1.2-1.2 2.4-1.8 3.5.4.3.7.7.9 1.1.1.2.2.4.2.7 0 .3-.2.6-.5.6-.5-.1-.9-.4-1-.8l-.3-.6c-1.8 2.4-4.4 4.2-7.3 5.1.1-.1 0-.1 0-.1zm9.2-13.2c-.1-.1-.2-.2-.2-.3 0-.1.1-.2.2-.2h.2c.8.2 1.4.8 1.8 1.5.1.1.1.3.1.5s-.2.5-.4.5h-.1c-.3 0-.6-.2-.7-.5-.1-.6-.5-1.1-.9-1.5zm1.6-.2c-.1-.1-.2-.2-.2-.3 0-.1.1-.2.2-.2h.2c.7.2 1.3.6 1.7 1.2.1.1.1.3.1.4 0 .3-.2.5-.5.5s-.5-.2-.6-.5c-.1-.4-.4-.8-.9-1.1zM288 131.3v-.7c.2-3.2.3-5.1.3-6.4 0-1.1-.1-2.1-.5-3.1 0-.1-.1-.3-.1-.4 0-.3.1-.5.3-.5.2 0 .5.2.7.6.3.4.5.9.4 1.4 0 1.1-.5 2.7-.5 6 0 .8 0 1.7.1 2.7 0 .7.1 1.5.3 2.2v.2c0 .3-.2.6-.5.6s-.6-.2-.6-.8c.1-.6.1-1.2.1-1.8zM296.6 150.2h-.3c-.7.5-1.5.9-2.3 1.2.7 1 1.8 1.8 3 2.3.2.1.2.1.2.2s-.1.1-.2.1c-.3.1-.5.3-.6.6 0 .2-.2.2-.3.1-2-1.1-3.1-3.1-3.7-5.8h-.3c-.4.4-.8.8-1.2 1.1v3c.8-.1 1.6-.3 2.4-.5.2 0 .3 0 .3.1s0 .2-.2.2c-1 .5-2.5 1-4.3 1.7 0 .1-.1.2-.2.3-.1.1-.3.1-.4-.1l-.4-.8c-.1-.1-.1-.2 0-.3h.1c.4-.1.9-.2 1.5-.3v-2.5c-.7.4-1.4.8-2.2 1.1-.2.1-.3 0-.3-.1l-.1-.1v2.4c0 .1 0 .2-.1.3-.2.2-.5.3-.8.3-.1 0-.2-.1-.2-.3v-1.1h-4.5v1.2c0 .1-.4.4-.8.4-.1 0-.2-.1-.2-.3v-12c0-.2.2-.3.3-.2l.8.4h.6v-2.5h-1.8c-.1 0-.3-.1-.3-.2s0-.2.1-.3H285.4l.6-.8c.1-.1.2-.2.3-.1.3.2.7.6 1.1.9.1.1.2.2.1.4-.1.1-.2.1-.3.1h-2.3v2.5h.8l.4-.5c.1-.1.2-.1.3 0l.9.7c.2.1.2.2.2.2.9-.5 1.6-1.2 2.3-1.9.1-.1.3-.2.4-.1l.9.5c.2.1.2.3 0 .3h-.4c-1 .7-2.1 1.3-3.3 1.6-.1.1-.2 0-.3-.1v-.2c-.1.1-.3.1-.4.1v8.2c1.3-.7 2.4-1.6 3.4-2.7h-3c-.1 0-.3-.1-.3-.2 0-.2.1-.3.2-.3h2.1v-1.5h-1.3c-.1 0-.3-.1-.3-.2s0-.2.1-.3h1.5v-1.3h-1.7c-.1 0-.3-.1-.3-.2s0-.2.1-.3H289.1v-1.3c0-.1.1-.3.2-.3h.1l.9.1c.2 0 .3.2.2.3-.1.1-.2.1-.3.1v1h2v-1.3c0-.1.1-.2.2-.3h.1l.9.1c.2 0 .3.2.2.3-.1.1-.2.1-.3.1v1h.6l.5-.6c.1-.1.2-.2.3-.1.2.2.6.5.9.8.1.1.2.2.1.4-.1.1-.2.1-.4.1H294v1.3h.5l.5-.6c.1-.1.2-.1.4 0 .2.2.6.5.9.7.1.1.2.3 0 .4-.1.1-.2.1-.3.1h-2v1.4h.9l.6-.7c.1-.1.2-.1.3-.1.3.2.7.5 1 .8.1.1.2.2.1.4-.1.1-.2.1-.3.1h-3.7c.2.8.6 1.5 1 2.1.6-.5 1.1-1.1 1.6-1.7.1-.1.3-.1.4-.1l.7.5c.1.4.1.6 0 .6zm-10.4-.3v-2.2H285c-.7 0-.8-.3-.8-.8v-3.5h-.9v.9c.2 1.7-.4 3.3-1.6 4.5v1.2l4.5-.1zm-4.5-1.9c.6-1.2.9-2.5.8-3.9v-.8h-.8v4.7zm4.5 2.4h-4.5v2.5h4.5v-2.5zm-1.9-7.6v-2.5h-.9v2.5h.9zm.9 3.8c0 .2 0 .2.2.2H286.3v-3.5h-1.1v3.3zm6.1-7.7c0-.1.1-.3.2-.3h.1l1.1.1c.2 0 .3.2.2.3-.1.1-.3.2-.5.2v1.2h2.2l.6-.8c.1-.1.2-.1.4 0 .3.2.7.6 1.1.9.1.1.2.2.1.3-.1.1-.2.1-.4.1H288c-.1 0-.3-.1-.3-.2 0-.2.1-.3.2-.3h3.3l.1-1.5zm1.7 7.7v-1.3h-2v1.3h2zm0 1.9v-1.4h-2v1.4h2zm.1-7.1c3.9.5 3.9 2.4 2.9 2.3-.1 0-.2-.1-.3-.2-.8-.7-1.8-1.3-2.7-1.8-.2-.1-.2-.2-.2-.3s.1-.1.3 0zM289.9 173.3c2 0 4.7 0 6.8-.1.2 0 .3.1.3.1l-.2.2c-.3.1-.5.4-.6.7 0 .1-.2.3-.3.2H290c-3.3 0-4.7-.4-6-2.5-.8.9-1.7 1.7-2.6 2.5v.2c-.1.2-.3.1-.3-.1l-.6-1c-.1-.1-.1-.2 0-.3h.1c.7-.3 1.7-.9 2.6-1.4v-5.3h-2.4c-.2 0-.3-.1-.3-.3 0-.2.1-.3.3-.3h2.2l.5-.7c.1-.1.2-.1.3 0l1.1.9c.1.1.2.3 0 .4-.2.1-.4.1-.6.2v4.8c1.2 1.5 2.5 1.8 5.6 1.8zm-8.4-14.3c3.9 1.4 3.2 4 1.9 3.4-.1 0-.2-.1-.2-.3-.4-1.1-1.1-2-1.9-2.8-.1-.1-.2-.3-.1-.3s.2-.1.3 0zm6.1 2.7c-.4.7-.9 1.4-1.6 2-.1.1-.2.1-.3.1s-.1-.2 0-.3c.8-1.4 1.3-3 1.7-4.5 0-.1.1-.2.3-.2h.1l1.2.4c.2.1.3.2.1.4-.1.1-.3.1-.4.1-.2.6-.4 1.1-.7 1.6h2.5v-2.5c0-.1.1-.2.2-.3h.1l1.2.1c.2 0 .3.2.2.3-.1.1-.3.2-.5.2v2h2.3l.7-.8c.1-.1.2-.2.3-.1.4.3.8.6 1.2 1 .1.1.2.2.1.4-.1.1-.2.1-.4.1h-4.2v2.7h2.9l.7-.9c.1-.1.2-.1.3-.1.3.2.8.6 1.2 1 .1.1.2.3.1.4-.1.1-.2.1-.3.1h-11c-.1 0-.3-.1-.3-.2s0-.2.1-.3h5.1v-2.7h-2.9zm6.3 10.2v-.9H288v.9c0 .1-.5.4-1 .4-.1 0-.2-.1-.2-.3v-5.6c0-.2.1-.3.3-.2l.9.4h5.7l.5-.5c.1-.1.3-.1.4 0l1 .7c.2.1.2.3 0 .4-.1.1-.3.1-.4.2v4.3c0 .1 0 .2-.1.3-.3.2-.6.3-.9.3h-.1c-.1-.2-.2-.3-.2-.4zm0-4.8H288v3.4h5.9v-3.4zM280.6 194.5c-.1.1-.2.2-.3.1-.1-.1-.1-.2 0-.3 1.3-2.6 1.4-5.7 1.4-8.5v-3.4c0-.2.2-.3.3-.2l1 .5h3.2l.5-.5c.1-.1.3-.1.4 0l1 .7c.2.1.2.3 0 .4-.2.1-.3.2-.5.2v4.6c0 .1 0 .2-.1.3-.3.2-.6.2-.9.3-.1 0-.2-.1-.2-.3v-.8h-3.6c.1 2.5-.7 4.9-2.2 6.9zm0-14.6c0-.1 0-.2.1-.3h6l.7-.8c.1-.1.2-.2.3-.1.3.2.8.6 1.1 1 .1.1.2.2.1.4-.1.1-.2.1-.4.1h-7.7c-.1 0-.2-.1-.2-.3zm2.3 5.9v1.2h3.6v-3.8h-3.6v2.6zm12.9-2.6c.3.2.8.6 1.1 1 .1.1.2.2.1.4-.1.1-.2.1-.3.1h-2v9.7c-.2.3-.6.4-1 .4-.1 0-.2-.1-.2-.3v-9.8h-2.8c0 3.2-.4 7.1-4.1 9.8-.1.1-.2.1-.3 0-.1-.1-.1-.2.1-.3 2.7-2.8 3.2-6.2 3.2-9.5v-4.5c0-.2.1-.3.3-.2l.9.3c1.4-.5 2.8-1.1 4.2-1.9.1-.1.3-.1.4 0l1.1.9c.2.1.2.3-.1.3-.2 0-.4 0-.6-.1-1.6.5-3.3.9-5 1.2v3.4h4.1l.6-.8c0-.1.1-.1.3-.1-.1 0-.1 0 0 0zM292.4 198.2c1.4.4 2.7 1.2 3.6 2.3.3.3.4.8.4 1.2 0 .4-.2.8-.6.8h-.1c-.4 0-.6-.2-.9-.8-.6-1.3-1.5-2.4-2.6-3.2-.2-.1-.2-.2-.1-.3.1 0 .2-.1.3 0zM251.1 11.9c-3.2.1-4.6.4-5.4.4-.5 0-.9-.1-1.3-.5-.2-.2-.3-.4-.4-.7 0-.2.1-.3.3-.3.1 0 .2 0 .4.1.6.3 1.2.4 1.9.4.9 0 2.1-.1 4.4-.3.3 0 .6-.1.9-.1.3-1.7.3-2.8.5-4.3v-.1c0-.2-.1-.2-.2-.2-4.2.2-5.9.4-6.8.4-.4.1-.9-.1-1.1-.5-.2-.2-.3-.4-.3-.7 0-.2.1-.3.3-.3.2 0 .3.1.5.2.6.4 1.3.5 2.1.5 1.2 0 2.9-.2 5.7-.5h.4c.6 0 .8.2.8.7 0 .2 0 .4-.1.6-.2.9-.5 2.6-.8 4.5.2 0 .3.1.4.1.4.2.5.4.5.6 0 .2-.2.4-.4.4-.1 0-.2 0-.3-.1-.8-.2-1.4-.3-2-.3zM243.3 25c-.3-.1-.4-.2-.4-.3s.2-.3.4-.2c1.2 0 2.2.5 3.1 1.3.3.2.4.5.5.8 0 .3-.3.6-.6.6s-.6-.2-.8-.4c-.7-.8-1.4-1.4-2.2-1.8zm.7 7.3V32c.1-.3.2-.4.3-.4s.2.1.3.4c.1.3.3.3.5.3 2.8 0 7.1-3.7 9.9-7.5.1-.1.2-.2.4-.3.1 0 .1.1.1.2s0 .2-.1.2c-2.6 4.6-7.5 8.7-10.4 8.7-.6-.1-1-.7-1-1.3zM249.8 53.4c-4.1 0-4.5-1.3-4.4-3.2.1-1.9.1-3.2.1-4.3 0-1.5-.1-2.4-.5-2.7-.2-.1-.3-.3-.3-.5s.2-.3.6-.3c1.2.1 1.4.6 1.4 1.3v.6c-.2 1-.3 2-.3 3 2-.4 3.9-1.2 5.6-2.3.2-.1.3-.3.3-.5 0-.1 0-.2-.1-.3-.1-.1-.1-.2-.1-.3 0-.2.1-.3.3-.3.2 0 .4.1.6.2.3.2.5.5.5.9 0 1.5-4.5 2.9-7.2 3.2 0 .7-.1 1.4-.1 2.2-.1 1.8 1.1 2.4 2.5 2.4h.6c2.4 0 2.9-.6 3.8-.6s1.3.3 1.3.7c0 .3-.2.4-.7.5-1.6.2-2.9.3-3.9.3zm2.8-11.6c-.1-.1-.2-.2-.2-.3 0-.1.1-.2.3-.2h.2c.8.3 1.4.8 1.8 1.5.1.1.1.3.1.4 0 .3-.2.5-.4.5-.3 0-.6-.2-.7-.5-.3-.5-.6-1-1.1-1.4zm1.7-.2c-.1-.1-.2-.2-.2-.3 0-.1.1-.2.2-.2h.2c.7.2 1.3.6 1.7 1.2.1.1.1.3.1.4 0 .3-.2.5-.5.5-.2 0-.4-.1-.6-.5-.2-.4-.5-.8-.9-1.1zM252.3 70.8c-4 0-6.4.5-8 .5-.7.1-1.5-.1-2-.7-.2-.2-.3-.4-.3-.6 0-.2.2-.3.4-.3.1 0 .2 0 .3.1.9.5 1.9.7 2.9.6 1.3 0 3.2-.1 6.1-.5.6-.1 1.3-.2 1.9-.2.4 0 .7.1 1.1.2.4.2.6.5.6.7s-.3.5-.8.4c-.8-.1-1.5-.2-2.2-.2zm-1.3-5h-.9c-2.9 0-3.9.3-4.6.3-.4 0-.7-.1-1-.4-.4-.3-.5-.5-.5-.7 0-.1.1-.3.2-.3s.1 0 .2.1c.7.3 1.5.5 2.3.4.8 0 2.1 0 3.9-.1.6 0 1.1-.2 1.4-.2.2 0 .5.1.7.2.3.1.5.3.5.6 0 .2-.2.3-.6.3-.4-.2-1-.2-1.6-.2zM242.3 90.7c0-.2.2-.3.4-.3h.3c.6.3 1.3.4 2 .4s1.8-.1 3.7-.2v-1.2c0-1.2-.1-2.2-.1-2.8 0-.4-.2-.7-.5-1-.7.1-1.5.2-2.2.2-.4 0-.8-.1-1.1-.3-.4-.3-.5-.5-.5-.7s.1-.2.3-.2h.3c.4.2.9.3 1.4.3.8 0 2.1-.2 5.1-.5.7-.1 1.1-.1 1.4-.1.2 0 .3 0 .5.1.4.1.6.4.7.7 0 .1-.1.3-.2.3H253.5c-.4-.1-.9-.2-1.4-.1h-.6l-2 .3c.4.2.5.4.5.6 0 .2 0 .3-.1.5-.2 1.3-.3 2.7-.3 4l2.9-.2c.8-.1 1.4-.2 1.9-.2.3 0 .6.1.9.2.4.2.6.5.6.7s-.2.3-.6.2c-.6-.1-1.2-.1-1.8-.1h-.9c-5.6.2-7.4.6-8.3.6-.5 0-.9-.2-1.3-.5-.5-.3-.6-.5-.7-.7zM243.3 104.2c-.3-.1-.4-.2-.4-.3 0-.1.2-.3.4-.2 1.2 0 2.2.5 3.1 1.3.3.2.4.5.5.8 0 .3-.3.6-.6.6s-.6-.2-.8-.4c-.7-.8-1.4-1.4-2.2-1.8zm.7 7.3v-.3c.1-.3.2-.4.3-.4s.2.1.3.4c.1.3.3.3.5.3 2.8 0 7.1-3.7 9.9-7.5.1-.1.2-.2.4-.3.1 0 .1.1.1.2s0 .2-.1.2c-2.6 4.6-7.5 8.7-10.4 8.7-.5-.2-1-.7-1-1.3zM242.1 133.2c-.1 0-.2 0-.2-.1s.1-.2.3-.3c4.9-2.7 7.1-5.4 8.8-9 0-.1.1-.1.1-.2 0-.2-.1-.3-.4-.2-1.2.4-2.4.6-3.7.7-.5.1-1-.1-1.3-.5-.2-.2-.3-.5-.3-.7 0-.2.1-.4.3-.4.1 0 .2 0 .3.1.6.3 1.3.5 2 .5 1 0 1.9-.2 2.8-.6.2-.1.5-.1.7-.1.6 0 1 .3 1 .9 0 .3-.1.5-.2.8-.8 1.4-1.8 2.7-2.8 4 1.7.3 3.1 1.4 3.9 2.9.1.2.2.4.2.6 0 .3-.2.7-.6.7h-.1c-.4 0-.8-.3-.9-.7-.5-1.3-1.5-2.4-2.8-3.1-1.9 2.1-4.3 3.7-6.9 4.8-.1-.1-.2-.1-.2-.1zM242.1 153c-.1 0-.2 0-.2-.1s.1-.2.3-.3c4.9-2.7 7.1-5.4 8.8-9 0-.1.1-.1.1-.2 0-.2-.1-.2-.4-.2-1.2.4-2.4.6-3.7.7-.5.1-1-.1-1.3-.5-.2-.2-.3-.5-.3-.7 0-.2.1-.4.3-.4.1 0 .2 0 .3.1.6.3 1.3.5 2 .5 1 0 1.9-.2 2.8-.6.2-.1.5-.1.7-.1.6 0 1 .3 1 .9 0 .3-.1.5-.2.8-.8 1.4-1.8 2.7-2.8 4 1.7.3 3.1 1.4 3.9 2.9.1.2.2.4.2.6 0 .3-.2.7-.6.7h-.1c-.4 0-.8-.3-.9-.7-.5-1.3-1.5-2.4-2.8-3.1-1.9 2.1-4.3 3.7-6.9 4.8-.1-.1-.2-.1-.2-.1zM247.8 162.8c0-1.5-.2-2-.7-2.4-.2-.1-.3-.3-.3-.5s.2-.3.5-.3h.3c1 .2 1.1.7 1.1 1.1v.3c-.1.4-.1.9-.1 1.3v2.9c1.8 0 3.4.8 4.5 2.2.2.2.3.5.3.8 0 .4-.3.7-.6.7-.4 0-.8-.3-.9-.7-.9-1.7-1.8-2.4-3.3-2.5 0 1.9.1 3.9.3 6.3.1 1-.3 1.4-.7 1.4s-.8-.5-.7-1.3c.1-5 .3-7.7.3-9.3zM244.6 193.4c-.1 0-.1-.1-.1-.1 0-.1.1-.2.2-.3 2.4-1.5 3.7-4.2 3.7-7 .1-1.1-.3-2.3-1-3.1-.1-.1-.2-.2-.2-.4-.8.1-1.5.2-2.3.2-.6.1-1.1-.1-1.5-.5-.2-.2-.3-.4-.4-.7 0-.2.1-.4.3-.4.1 0 .2 0 .3.1.5.4 1.1.6 1.8.6 1.2 0 3.2-.4 7.7-1h.3c.7 0 1 .4 1 .7 0 .3-.1.5-.3.7-1.3 1.7-2.9 3-4.8 4-.3 3.1-1.5 5.2-4.5 7 0 .2-.1.2-.2.2zm7.9-11.1c0-.1.1-.1.1-.2s-.1-.2-.2-.2h-.1c-1.7.1-3.1.3-4.2.5l.4.2c.7.4 1 .8 1 2.3v1c1.3-.9 2.3-2.1 3-3.6zM252.4 198.2c1.4.4 2.7 1.2 3.6 2.3.3.3.4.8.4 1.2 0 .4-.2.8-.6.8h-.1c-.4 0-.6-.2-.9-.8-.6-1.3-1.5-2.4-2.6-3.2-.2-.1-.2-.2-.1-.3 0 0 .2-.1.3 0zM206.2 13.6c-.8 0-1.1-.6-1.1-1.4 0-2.5.1-4.1.1-5.2 0-1.6-.1-1.9-.4-2.2-.1-.1-.2-.3-.2-.4 0-.2.2-.3.5-.3h.2c1.1.2 1.3.6 1.3 1 0 .2-.1.3-.1.5 0 .3-.1.6-.1.9-.1 1.1-.1 2.5-.1 3.9v1.2c0 .3.2.5.3.5.1 0 .1 0 .2-.1 3-1.2 5-3 8-6.2.1-.1.2-.2.3-.2.1 0 .2.1.2.2s0 .2-.1.3c-1.9 2.7-4.4 5.1-7.2 6.9-.6.3-1.2.6-1.8.6zM202 34.2c-.1 0-.2 0-.2-.1s.1-.2.3-.3c4.9-2.7 7.1-5.4 8.8-9 0-.1.1-.1.1-.2 0-.2-.1-.3-.4-.2-1.2.4-2.4.6-3.7.7-.5.1-1-.1-1.3-.5-.2-.2-.3-.5-.3-.7 0-.2.1-.4.3-.4.1 0 .2 0 .3.1.6.3 1.3.5 2 .5 1 0 1.9-.2 2.8-.6.2-.1.5-.1.7-.1.6 0 1 .3 1 .9 0 .3-.1.5-.2.8-.8 1.4-1.8 2.7-2.8 4 1.7.3 3.1 1.4 3.9 2.9.1.2.2.4.2.6 0 .3-.2.7-.6.7h-.1c-.4 0-.8-.3-.9-.7-.5-1.3-1.5-2.4-2.8-3.1-1.9 2.1-4.3 3.8-6.9 4.9 0-.2-.1-.2-.2-.2zM207.7 44c0-1.5-.2-2-.7-2.4-.2-.1-.3-.3-.3-.5s.2-.3.5-.3h.3c1 .2 1.1.7 1.1 1.1v.3c-.1.4-.1.9-.1 1.3v2.8c1.8 0 3.4.8 4.5 2.2.2.2.3.5.3.8 0 .4-.3.7-.6.7-.4 0-.8-.3-.9-.7-.9-1.7-1.8-2.4-3.3-2.5 0 1.9.1 3.9.3 6.3.1 1-.3 1.4-.7 1.4s-.8-.5-.7-1.3c.1-4.9.3-7.6.3-9.2zM204.1 74.6c-.1 0-.2 0-.2-.1s.1-.2.2-.2c3.9-1.6 6.9-4.4 7.7-8.4v-.1c0-.1-.1-.2-.3-.2-3.2.3-4.6.6-5.5.6-.5 0-.9-.1-1.3-.5-.4-.3-.5-.6-.5-.8 0-.2.2-.3.3-.3.1 0 .2 0 .3.1.6.3 1.3.5 2 .5 1.1 0 2.5-.2 4.7-.5h.4c.8 0 1.3.3 1.3 1 0 .1 0 .3-.1.4-1.3 4.2-4.7 7.5-8.9 8.6 0-.1 0-.1-.1-.1zm6.4-11.8h-.7c-1.3.1-2.4.4-3.2.4-.4 0-.7-.1-1-.3-.3-.3-.4-.5-.4-.7s.1-.2.3-.2h.3c.5.2 1 .3 1.5.2.8 0 1.6-.1 2.4-.3.4-.1.8-.2 1.2-.2.3 0 .5.1.8.2.6.3.8.5.8.7s-.2.3-.5.3h-.3c-.5-.1-.8-.1-1.2-.1zM203.2 84.4c-.3-.1-.4-.2-.4-.3 0-.1.2-.3.4-.2 1.2 0 2.2.5 3.1 1.3.3.2.4.5.5.8 0 .3-.3.6-.6.6s-.6-.2-.8-.4c-.6-.8-1.3-1.4-2.2-1.8zm.8 7.3v-.3c.1-.3.2-.4.3-.4s.2.1.3.4c.1.3.3.3.5.3 2.8 0 7.1-3.7 9.9-7.5.1-.1.2-.2.4-.3.1 0 .1.1.1.2s0 .2-.1.2c-2.6 4.6-7.5 8.7-10.4 8.7-.6-.1-1.1-.7-1-1.3zM202.9 111c-.2 0-.4-.3-.4-.7 0-.3.1-.6.2-.9.9-2 1.7-3.6 2.2-4.8-.6 0-1.2-.2-1.7-.5-.1-.1-.2-.2-.2-.3 0-.1.1-.2.2-.2h.2c.5.3 1.2.4 1.8.3.2-.5.3-1.1.4-1.6 0-.2 0-.5-.1-.7 0-.1-.1-.3-.1-.4 0-.2.1-.4.3-.4.2 0 .4.1.6.5.2.3.3.6.3 1 .5.2 1.3.5 1.8.7.2.1.4.3.4.5s-.2.4-.5.5c-.8.3-1.7.5-2.6.6-.8 1.8-1.5 3.6-2.1 5.4-.2.7-.4 1-.7 1zm4.3-7.6.1-.1s0-.1-.1-.1c-.3-.2-.5-.3-.8-.4-.1.4-.2.7-.4 1.1.5-.2.9-.3 1.2-.5zm3.6 8.1v.7c-.2 1.2-1.4 2.1-2.6 1.8-.9-.2-1.7-.9-1.8-1.8 0-1.2 1.1-1.8 2.7-1.8.3 0 .6 0 .9.1v-1.8c0-.8.1-1.6.5-2.3.1-.2.2-.3.3-.3.1 0 .1.1.1.2s0 .2-.1.3c-.2.5-.3 1-.3 1.5 0 .8.1 1.6.2 2.5.9.2 1.7.5 2.5.9.4.2.6.5.6.9 0 .3-.1.5-.4.5-.1 0-.2 0-.3-.1-.7-.6-1.5-1-2.3-1.3zm-2.4 1.7c.7.1 1.3-.5 1.4-1.2v-.8c-.4-.1-.8-.1-1.2-.1-1.1 0-1.6.4-1.6 1 0 .5.7 1.1 1.4 1.1zm3.3-7.4c-.1 0-.2 0-.2-.1s.1-.2.2-.2c.3-.1.6-.1.9-.2.1 0 .2-.1.2-.2s0-.1-.1-.2c-.4-.5-1-1-1.6-1.4-.2-.1-.3-.2-.3-.3 0-.1.1-.1.2-.1h.2c1.2.3 2.3 1 3 2 .1.1.1.3.1.4 0 .3-.3.5-.7.5h-.3c-.5-.1-1-.2-1.6-.2zM209.1 133.1c-2.8 0-4.3-1-4.3-2.3 0-1.1 1-2.5 3-3.8-1.8-1.1-1.1-4.7-2.2-5.3-.3-.1-.4-.3-.4-.4s.1-.2.4-.2c.2 0 .5.1.7.2.9.4 1 1.2 1 2.2v1.2c-.1.8.2 1.7.8 2.2.9-.5 1.8-1 2.8-1.4.3-.1.5-.4.5-.7 0-.2-.1-.3-.2-.5 0-.1-.1-.2-.1-.3 0-.1.1-.2.3-.2.2 0 .4.1.6.2.4.2.6.5.6.9 0 .5-.4 1.1-1.3 1.4-4.3 1.7-5.9 3.4-5.9 4.5 0 .9 1.1 1.5 2.8 1.5 1.1 0 2.3-.2 3.3-.6.1 0 .2-.1.4-.1.5 0 1 .3 1 .7s-.2.4-.6.5c-.9.1-2 .3-3.2.3zm3.4-11.4c-.1-.1-.2-.2-.2-.3 0-.1.1-.2.2-.2h.2c.8.2 1.4.8 1.8 1.5.1.1.1.3.1.5 0 .3-.2.5-.4.5-.3 0-.6-.2-.7-.5-.2-.6-.5-1.1-1-1.5zm1.7-.3c-.1-.1-.2-.2-.2-.3 0-.1.1-.2.2-.2h.2c.7.2 1.3.6 1.7 1.2.1.1.1.2.1.4 0 .3-.2.5-.5.5s-.5-.2-.6-.4c-.2-.5-.5-.9-.9-1.2zM126.1 10.6c.2-.1.3 0 .3 0s0 .2-.2.3c-1.3.8-3 2-5.1 3.3 0 .1-.1.2-.1.3-.1.2-.3.1-.4-.1l-.5-1c-.1-.2 0-.3.2-.4.5-.2 1.3-.5 2.1-.8V5.9h-1.9c-.1 0-.3-.1-.3-.2s0-.3.2-.3h2V.6c0-.1.1-.2.2-.3h.1l1.2.1c.2 0 .3.2.2.3-.1.2-.3.3-.5.3v4.4h.6l.6-.8c.1-.2.2-.2.4 0 .1.2.7.6 1 .9.1.1.2.3 0 .4-.1.1-.2.1-.3.1h-2.3v5.7l2.5-1.1zm10.8 4.4c0 .6-.8.8-4.7.8h-2.7c-1.8 0-2.4-.4-2.4-1.6V7.1l-2 .8c-.1.1-.3 0-.4-.1-.1-.1-.1-.2 0-.3l.1-.1 2.3-.9V1.6c0-.1.1-.2.2-.3h.1l1.2.1c.2 0 .3.2.2.3-.1.1-.3.2-.5.2v4l2.4-.9V.3c0-.1.1-.2.2-.3h.1l1.2.1c.2 0 .3.2.2.3-.1.1-.3.2-.5.2v4.1l2.5-.9.2-.1.5-.5c.1-.1.2-.1.4 0l.9.7c.1.1.2.3 0 .4l-.5.1c-.1 4.7-.3 6.5-.9 7.1-.3.3-.8.5-1.2.6-.2 0-.3-.1-.3-.3 0-.2-.1-.4-.2-.6-.2-.1-.4-.2-.7-.3-.1 0-.2-.1-.2-.2s.1-.2.3-.1c.4 0 .8.1 1.1.1.2 0 .4 0 .5-.2.4-.4.5-2.1.6-6.3l-2.8 1v7.5c0 .2-.5.5-.9.5-.1 0-.2-.1-.2-.3V5.7l-2.4.9V14c0 .5.2.7 1.3.7h2.7c1.3 0 2.2 0 2.6-.1.2 0 .4-.1.5-.3.3-.8.5-1.6.6-2.5 0-.2.1-.3.2-.3s.1.1.1.3v2.5c.2.3.3.5.3.7zM125.7 30.8c-1.1.7-2.6 1.8-4.5 3 0 .1-.1.2-.1.3-.1.1-.3.1-.4-.1l-.5-1c-.1-.2 0-.3.1-.4.5-.2 1.2-.5 2.1-.8v-6.4h-1.8c-.1 0-.3-.1-.3-.2 0-.2.1-.3.2-.3h1.9v-4.6c0-.1.1-.2.2-.3h.1l1.2.1c.2 0 .3.2.2.3-.1.1-.3.2-.5.2v4.2h.4l.6-.8c.1-.1.2-.1.3-.1l.1.1c.3.2.6.6 1 .9.1.1.2.3.1.4-.1.1-.2.1-.3.1h-2.1v5.9c.7-.3 1.3-.6 2-.9.2-.1.3-.1.3 0-.1.2-.2.3-.3.4zm5.4.7c-1.4.6-3.3 1.4-5.7 2.4 0 .1-.1.2-.2.3-.1.1-.3.1-.4-.1l-.4-.8c-.1-.2 0-.3.1-.3 1.3-.3 3.7-1 6.3-1.7.2 0 .3 0 .3.1.2-.1.1 0 0 .1zm5.7 4.5c-.4.4-1.3-.1-1.9-.8-.9-.9-1.6-2-2-3.2-1.5 1.7-3.4 3.1-5.6 3.9-.1 0-.3 0-.3-.1-.1-.1 0-.2.2-.3 2.1-1 4-2.6 5.3-4.6-.7-2.4-1.1-4.9-1.2-7.4h-5.7c-.1 0-.3-.1-.3-.2-.1-.2 0-.3.2-.3h5.8c-.1-.9-.1-1.8-.1-2.8 0-.1.1-.2.2-.3h.1l1.1.2c.2 0 .3.2.2.3-.1.1-.3.2-.5.2V23h2.3l.6-.8c0-.1.2-.2.3-.2h.1c.3.2.7.6 1 .9.1.1.2.3.1.4-.1.1-.2.1-.3.1h-4c.1 2.1.3 4.2.8 6.2.7-1.4 1.3-2.9 1.7-4.5 0-.1.1-.2.3-.2h.1l1.1.4c.2.1.3.3.1.3-.2.1-.3.1-.5.1-.5 1.8-1.3 3.6-2.3 5.2.3 1.1 1 2.2 1.8 3 .2.2.4.3.5 0 .2-.5.4-1.1.6-1.7.1-.2.1-.3.2-.3s.1.1.1.3l-.3 2.6c.3.6.4 1 .2 1.2zm-7.4-5.6v-.7h-2.3v1.1c0 .1-.3.3-.8.3-.1 0-.2-.1-.2-.3v-5.4c0-.1.1-.2.2-.2h.2l.8.4h2l.4-.4c.1-.1.3-.1.4 0l.7.5c.1.1.2.3 0 .4-.1 0-.2.1-.3.1v3.9c0 .1 0 .2-.1.3-.2.1-.5.2-.7.2h-.1c-.2.1-.2 0-.2-.2zm0-4.3h-2.3v3.1h2.3v-3.1zm4.1-5.5c2.5.6 1.8 2.3.9 1.9-.1-.1-.2-.1-.2-.3-.2-.5-.5-1-.9-1.4-.1-.1-.2-.2-.1-.3.1 0 .2 0 .3.1zM126.9 53.6c0-.1.1-.2.3-.2 3 0 6.6-1.3 6.6-5 .1-2.4-1.7-4.5-4.2-4.6h-1.2v1c0 5.3-2.2 7.7-3.9 7.7-1.1 0-2.1-1-2.1-3 0-4.1 3.7-6.4 7-6.4 2.8 0 5.5 1.6 5.5 5.3 0 3.6-2.8 5.5-6.3 5.5-.4 0-.9 0-1.3-.1s-.4-.1-.4-.2zm-2.5-2.5c1.3 0 3.4-2.3 3.3-7.2-2.6.5-4.5 2.8-4.5 5.4 0 1.2.5 1.8 1.2 1.8zM135.3 61.8c.3.2.9.7 1.3 1.1.1.1.2.3.1.4-.1.1-.2.1-.4.1h-8.7c-.1 1.2-.2 2.3-.4 3.3h5.2l.5-.6c.1-.1.3-.1.4 0l.9.8c.2.1.2.3 0 .4-.2 0-.3.1-.5.1-.2 3.8-.7 7-1.6 7.8-.5.5-1.2.7-1.9.7-.1 0-.3-.1-.3-.2 0-.2-.2-.5-.4-.6-.6-.3-1.3-.5-1.9-.5-.2 0-.3-.1-.3-.2s.1-.1.3-.1c1 .1 2.5.2 2.9.2.3 0 .6 0 .8-.2.6-.5 1-3.5 1.2-6.9H127c-.5 3.8-2.9 7-6.3 8.6-.2.1-.3.1-.3 0-.1-.1 0-.2.2-.3 4.2-3 5.3-6.9 5.5-12.2h-5.5c-.1 0-.3-.1-.3-.2 0-.2 0-.3.2-.3h7.3v-3.2c0-.1.1-.2.2-.3h.1l1.3.1c.2 0 .3.2.2.3-.1.1-.3.2-.5.2v2.8h5.1l.7-.9c.1-.2.3-.3.4-.2zM132.3 79.3c1.4.4 2.7 1.2 3.6 2.3.3.3.4.8.4 1.2 0 .4-.2.8-.6.8h-.1c-.4 0-.6-.2-.9-.8-.6-1.3-1.5-2.4-2.6-3.2-.2-.1-.2-.2-.1-.3h.3zM129.8 99.6c-.2.1-.3.1-.5.1 2 2.5 4.6 4.5 7.6 5.6.2 0 .2.1.2.2s-.1.1-.2.2c-.3.1-.6.4-.8.7 0 .1-.2.2-.3.1-2.8-1.5-5.2-3.8-6.7-6.6-2.2 3.1-5.1 5.6-8.4 7.3-.2.1-.3 0-.3 0s0-.2.2-.3c2.9-1.8 6.3-5.3 7.4-7.9.1-.2.2-.2.3-.2l1.6.4c-.1.2 0 .3-.1.4zm5.3 13.7c.3.2.8.7 1.3 1 .1.1.2.3 0 .3-.1.1-.2.1-.4.1h-14.9c-.1 0-.3-.1-.3-.2 0-.2 0-.3.2-.3h6.8v-3.9h-4.5c-.2 0-.3-.1-.3-.2 0-.2 0-.3.2-.3h4.6v-3.4h-4.2c-.1 0-.3-.1-.3-.2s0-.2.1-.3h8.2l.7-.8c.1-.2.2-.2.4 0s.7.6 1.1.9c.1.1.2.3.1.4-.1.1-.2.1-.3.1h-4.5v3.4h3.2l.7-.8c.1-.1.2-.1.3 0 .3.2.8.6 1.2.9.1.1.2.3.1.4-.1.1-.2.1-.4.1H129v3.9h4.9l.8-.9c.1-.2.2-.2.4-.2-.1 0-.1 0 0 0zM136.2 120.5c-.2.1-.4.1-.5.2v14.1c-.3.3-.6.4-1 .5-.1 0-.2-.1-.2-.3v-1h-12.1v.8c0 .2-.4.5-.9.5-.1 0-.2-.1-.2-.3v-15.4c0-.2.2-.3.3-.2l1 .5h11.8l.5-.6c.1-.1.2-.1.4 0l1 .8c.1.1.1.3-.1.4zm-1.7-.1h-12.1v13.1h12.1v-13.1zm-1.8 9.7c.3.2.7.6 1 .9.1.1.2.3.1.4-.1.1-.2.1-.3.1h-9.7c-.1 0-.3-.1-.3-.2s0-.2.1-.3h4.3v-4h-3.1c-.1 0-.3-.1-.3-.2s0-.3.1-.3h3.2v-3.2H124c-.1 0-.3-.1-.3-.2 0-.2.1-.3.2-.3h7.3l.6-.8c.1-.1.2-.1.3-.1l1 .9c.1.1.2.3 0 .4-.1.1-.2.1-.3.1h-4.1v3.2h2l.6-.7c.1-.1.2-.1.3 0 .2.2.6.5 1 .8.1.1.2.3.1.4-.1.1-.2.1-.4.1h-3.6v4h2.8l.6-.8c.3-.3.5-.3.6-.2zm-2.4-2.7c2.7 1.1 2.1 2.9 1.2 2.5-.1-.1-.2-.1-.2-.3-.3-.7-.7-1.4-1.2-1.9-.1-.2-.2-.2-.1-.3.1-.1.2-.1.3 0zM126.9 152.6c0-.1.1-.2.3-.2 3 0 6.6-1.3 6.6-5 .1-2.4-1.7-4.5-4.2-4.6h-1.2v1c0 5.3-2.2 7.7-3.9 7.7-1.1 0-2.1-1-2.1-3 0-4.1 3.7-6.4 7-6.4 2.8 0 5.5 1.6 5.5 5.3 0 3.6-2.8 5.5-6.3 5.5-.4 0-.9 0-1.3-.1s-.4-.1-.4-.2zm-2.5-2.5c1.3 0 3.4-2.3 3.3-7.2-2.6.5-4.5 2.8-4.5 5.4 0 1.2.5 1.8 1.2 1.8zM135.3 160.8c.3.2.9.7 1.3 1 .1.1.2.3.1.4-.1.1-.2.1-.4.1h-8.7c-.1 1.2-.2 2.3-.4 3.3h5.2l.5-.6c.1-.1.3-.1.4 0l.9.8c.2.1.2.3 0 .4-.2 0-.3.1-.5.1-.2 3.8-.7 7-1.6 7.8-.5.5-1.2.7-1.9.7-.1 0-.3-.1-.3-.2 0-.2-.2-.5-.4-.6-.6-.3-1.3-.5-1.9-.5-.2 0-.3-.1-.3-.2s.1-.1.3-.1c1 .1 2.5.2 2.9.2.3 0 .6 0 .8-.2.6-.5 1-3.5 1.2-6.9H127c-.5 3.8-2.9 7-6.3 8.6-.2.1-.3.1-.3 0-.1-.1 0-.2.2-.3 4.2-3 5.3-6.9 5.5-12.2h-5.5c-.1 0-.3-.1-.3-.2 0-.2 0-.3.2-.3h7.3v-3.2c0-.1.1-.2.2-.3h.1l1.3.1c.2 0 .3.2.2.3-.1.1-.3.2-.5.2v2.8h5.1l.7-.9c.1-.1.3-.2.4-.1zM132.3 178.3c1.4.4 2.7 1.2 3.6 2.3.3.3.4.8.4 1.2 0 .4-.2.8-.6.8h-.1c-.4 0-.6-.2-.9-.8-.6-1.3-1.5-2.4-2.6-3.2-.2-.1-.2-.2-.1-.3h.3zM88.7 12.2c0-.9.3-1.7.8-2.4.1-.1.2-.1.3-.2.1 0 .1 0 .1.1s0 .2-.1.3c-.3.6-.5 1.2-.5 1.9 0 .9.4 1.5 1.2 1.5 1.3.1 2.4-.8 2.6-2.1v-.2c0-1.3-1-2.3-2.2-2.3h-.1c-.6 0-1.2.2-1.8.4-.7.3-1.4.7-2 1.2 0 .8.1 1.6.1 2.5.1 1.1-.4 1.7-.9 1.7-.3 0-.6-.2-.8-.5-.4-.6-.9-1.1-1.4-1.5-.4.3-.8.4-1.2.5-.7 0-1.1-.4-1.1-.7 0-.3.4-.7 1.1-.7.3 0 .6.1.9.2.7-.4 1.5-1.1 2.5-1.8V7.2c-.5.2-1 .3-1.6.3-.6 0-1.2-.2-1.6-.7-.1-.1-.2-.2-.2-.4 0-.1.1-.2.2-.2s.2 0 .3.1c.4.5.9.7 1.4.7.5 0 1-.2 1.5-.4-.1-1.9-.2-3.3-.7-3.6-.2-.1-.3-.3-.3-.5s.2-.3.4-.3.4.1.6.2c.7.4.9.9.8 2.1.4.3.9.4 1.4.5.6.1 1 .4 1 .7 0 .3-.3.6-.8.8-.5.2-1.1.5-1.6.7v2.7c.6-.4 1.3-.8 1.9-1.1.7-.4 1.5-.6 2.3-.6 1.7 0 3 1.3 3 3v.1c0 1.6-1.2 3.2-3.8 3.1-1.2-.3-1.7-1.2-1.7-2.2zm-5.5 0h-.6c-.2 0-.3.1-.3.1s.1.1.4.1c.2 0 .4 0 .5-.2zm2.8.8c.1 0 .2-.1.2-.4v-1.7c-.7.5-1.3 1-1.8 1.4l1.2.6c.1.1.2.1.4.1zm1.5-7.2c.2-.1.2-.2.2-.2s0-.2-.2-.3c-.1-.1-.3-.3-.5-.4l-.1 1.3.6-.4zm4.9-.5c-.4 0-.8.2-1.1.4-.1.1-.2.1-.3.1-.1 0-.1 0-.1-.1s.1-.2.1-.3c.4-.5 1.1-.9 1.8-.8.7 0 1.5.3 2 .8.2.2.3.4.3.6 0 .3-.2.5-.5.6h-.1c-.3 0-.6-.2-.7-.5-.2-.4-.7-.7-1.4-.8zM95.2 30c.3.2.9.7 1.3 1.1.1.1.2.3.1.4-.1.1-.2.1-.4.1h-6.4v4.3c-.3.3-.6.4-1 .4-.1 0-.2-.1-.2-.3v-4.5h-8c-.1 0-.3-.1-.3-.2 0-.2 0-.3.2-.3h2.8v-5c0-.2.1-.3.3-.2l1.1.5h3.8V23h-4.1c-1.1 1.6-2.4 2.9-3.9 4-.1.1-.2.1-.3 0s0-.2.1-.3c1.9-2 3.3-4.4 4.3-7 0-.1.1-.2.3-.2h.1l1.3.5c.2.1.3.3.1.4-.1.1-.3.1-.5.1-.3.6-.7 1.3-1.1 1.9h8.6l.8-.9c.1-.1.2-.1.3 0 .3.2.8.7 1.3 1 .1.1.2.3 0 .4-.1.1-.2.1-.4.1h-5.7v3.4H93l.7-.8c.1-.1.2-.2.3-.1.3.2.8.6 1.2 1 .1.1.2.3.1.4-.1.1-.2.1-.4.1h-5.2v4H94l.8-1c.1-.1.3-.1.4 0zm-6.6-3.2h-4V31h4v-4.2zM95.3 47.2l1.2 1c.1.1.2.3.1.4-.1.1-.2.1-.4.1h-2.9v5.8c0 .9-.2 1.5-1.7 1.7-.2 0-.3 0-.3-.2-.1-.2-.2-.4-.4-.5-.5-.2-1-.4-1.5-.4-.2 0-.3-.1-.3-.2s.1-.1.3-.1c.6.1 2 .2 2.3.2.3 0 .5-.1.5-.4v-5.8H80.7c-.1 0-.3-.1-.3-.2-.1-.1 0-.2.1-.3h13.7l.7-.8c.1-.4.3-.4.4-.3zm-13.5-3.1c-.4.3-1.1.3-1.3-.1s.1-.7.5-.9c.8-.5 1.2-1.3 1.2-2.2 0-.2.1-.3.2-.3s.2.1.2.2c.1.2.1.4.1.7h5.1v-1.6c0-.1.1-.2.2-.3h.1l1.2.1c.2 0 .3.2.2.3-.1.1-.3.2-.5.2v1.2h5.5l.6-.6c.1-.1.2-.1.3 0l.9.9c.2.1.2.3 0 .4h-.4c-.5.6-1.1 1.1-1.8 1.5-.1.1-.2.1-.3 0s-.1-.1 0-.3c.2-.5.4-.9.6-1.4H82.8c.1.9-.3 1.7-1 2.2zm6.6 1c7 .6 5.5 3.2 4.3 2.3-1.4-1-2.9-1.6-4.6-1.9-.8.9-2.4 1.6-5.7 2.2-.2 0-.3 0-.3-.1-.1-.1 0-.2.3-.2 3.5-.7 4.7-1.7 5.2-2.9h-4.3c-.1 0-.3-.1-.3-.2-.1-.1 0-.2.1-.3h4.6c.1-.4.1-.9.1-1.4 0-.2.1-.3.3-.3l1.2.1c.2 0 .3.2.2.3-.1.1-.2.1-.4.1 0 .4-.1.7-.1 1h3.3l.6-.7c.1-.1.2-.1.3 0 .3.2.7.5 1 .8.1.1.2.3.1.4-.1.1-.2.1-.3.1h-5.2c-.2.3-.3.5-.4.7zm1 8.7-.9.3c-.1 0-.2-.1-.2-.3v-.5h-3.8v.9c-.3.2-.6.4-1 .4-.1 0-.2-.1-.2-.3v-4.5c0-.1.1-.2.2-.2h.2l.9.4h3.5l.5-.5c.1-.1.2-.1.4 0l.9.7c.1.1.2.3 0 .4-.1.1-.3.1-.4.1v2.8c-.1.2-.1.3-.1.3zm-1-3.2h-3.9v2.3h3.8l.1-2.3zM85.3 74.1c0-.1.2-.2.4-.2 3-.1 5.5-2.5 5.8-5.5v-.6c0-2.5-1.5-3.7-2.9-3.7-1.5 0-2.7 1.3-2.6 2.8v.2c0 .7.2 1.4.4 2.1.1.2.1.4.1.6 0 .4-.2.6-.5.6-.2 0-.5-.2-.6-.4-.4-.7-.7-1.4-.8-2.2 0-.3-.1-.6-.1-.9 0-1.5.5-2.7.5-3.7 0-.5-.1-1-.5-1.5-.1-.1-.2-.2-.2-.3 0-.2.2-.3.4-.3s.4.1.6.2c.5.3.8.9.7 1.5-.1.9-.4 1.9-.7 2.8v.1c0 .1 0 .1.1.1s.1-.1.1-.1c.5-1.3 1.7-2.2 3.1-2.3 1.9 0 3.8 1.7 3.6 5.1-.2 3.5-3.2 6.2-6.7 6-.1-.2-.2-.3-.2-.4zM82.6 93.9c-.3 0-.5-.2-.5-.5 0-.2.1-.3.2-.5 1.6-2.1 2.8-4.4 3.8-6.8-.9.5-1.6 1.1-2.5 1.1-.2 0-.3 0-.5-.1-.5-.2-.8-.4-.8-.7 0-.2.3-.4.9-.3h.3c.9 0 1.7-.3 2.5-.7l.3-.2c.2-.6.3-1.2.3-1.9 0-.4-.1-.7-.2-1.1-.1-.1-.2-.3-.2-.5s.1-.3.3-.3h.1c.2 0 .5.1.6.3.2.3.4.7.3 1.1 0 .7-.1 1.4-.4 2 .4-.1.8-.2 1.3-.2 1.6 0 2.4 1.3 2.4 3-.1 1.8-.8 3.6-2 5-.2.3-.5.4-.8.4-.3 0-.6-.2-.9-.5-.3-.4-.7-.7-1.1-.9-.3-.1-.4-.3-.4-.4 0-.1.1-.2.3-.2h.3c.5.2.9.4 1.4.4.2 0 .4-.1.6-.3 1-1.1 1.6-2.5 1.6-4 0-1.2-.5-2-1.7-2-.4 0-.9.1-1.3.3-1 2.7-2.3 5.3-3.7 7.7-.1.7-.3.8-.5.8zm9.7-4.7c-.1 0-.3-.1-.3-.3 0-.1.1-.2.4-.2 1.1 0 1.6-.3 1.6-.9-.2-.9-.6-1.7-1.3-2.3-.1-.1-.1-.2-.2-.4 0-.1 0-.2.1-.2s.3.1.4.2c1.2.7 1.9 1.9 2.1 3.2v.2c0 .6-.3.9-1 .9-.5.1-1.2 0-1.8-.2zM85.7 113.8c0-.1.1-.2.4-.2 4.8 0 6.7-2.2 6.7-3.9 0-1.1-.9-2.1-2-2.1h-.1c-1.2 0-2.7.7-4.6 2.5-.3.4-.8.6-1.2.6-.6 0-1.1-.5-1-1.4 0-1.2.3-3.1.5-4.5s1.6-1.5 3-1.7c.1 0 .2-.1.2-.2v-.2c-.4-.6-1-1-1.7-1.2-.2-.1-.3-.2-.3-.3 0-.1.1-.2.3-.2 1.8.1 2.3.5 2.9 1.3.2.3.3.6.3.9 0 .4-.2.6-.7.6-.2 0-.4 0-.6-.1-.4-.1-.9-.2-1.3-.2-.6-.1-1.2.4-1.3 1v.2c0 .4-.3 2.6-.5 3.6v.2c0 .4.2.6.4.6.3 0 .6-.2.9-.4 1.4-1.1 3.1-1.8 4.8-1.9 1.5-.1 2.8.9 3 2.4v.3c0 2-2 4.4-6.7 4.4h-.9c-.3.1-.5 0-.5-.1zM95.1 124.5l1.2 1c.1.1.2.3 0 .4-.1.1-.2.1-.4.1h-9c-.5.9-1.1 1.7-1.8 2.5l.8.3h6.8l.5-.5c.1-.1.2-.1.3 0l1 .8c.2.1.2.3 0 .4-.2.1-.3.2-.5.2v5.1c0 .1 0 .2-.1.3-.3.2-.6.3-.9.3-.1 0-.2-.1-.2-.3V134h-7.2v.9c0 .1-.4.4-1 .4-.1 0-.2-.1-.2-.3v-5.9c-1.2 1.3-2.6 2.3-4.2 3.2-.2.1-.3.1-.3 0-.1-.1 0-.2.2-.3 2.2-1.6 4.1-3.6 5.4-6h-5c-.1 0-.3-.1-.3-.2 0-.2 0-.3.2-.3h5.3c.5-.9.9-1.8 1.2-2.8 0-.1.2-.2.3-.2h.1l1.3.5c.2.1.3.3.1.3h-.5c-.3.7-.6 1.4-1 2.1h6.6l.7-.9c0-.1.1-.3.2-.3s.4.1.4.3zm.2-4.5 1.2 1c.1.1.2.3 0 .4-.1.1-.2.1-.4.1h-4.4v1.5c0 .1-.4.4-1 .4-.1 0-.2-.1-.2-.3v-1.6h-4.4v1.6c0 .2-.5.3-1 .3-.1 0-.2-.1-.2-.3v-1.7h-4.4c-.1 0-.3-.1-.3-.2 0-.2.1-.3.3-.3H85V119c0-.1.1-.2.2-.3h.1l1.2.1c.2 0 .3.2.2.3-.1.1-.3.2-.5.2v1.5h4.4v-1.9c0-.1.1-.2.2-.3h.1l1.2.1c.2 0 .3.2.2.3-.1.1-.3.2-.5.2v1.5h2.5l.7-.9c0 .2.2.1.3.2zm-9.5 13.5H93v-4.2h-7.2v4.2zM95.3 143.5c.3.2.8.6 1.2 1 .1.1.2.2 0 .4-.1.1-.2.1-.3.1h-6c-1.1.8-2.3 1.6-3.5 2.3h5.7l.5-.5c.1-.1.3-.1.4 0l1 .8c.2.1.2.3 0 .4-.2.1-.4.1-.5.2v6.3c0 .1 0 .2-.1.3l-.9.3c-.1 0-.2-.1-.2-.3v-.7h-6.8v.8c0 .1-.5.4-1 .4-.1 0-.2-.1-.2-.3v-6.5c-1.4.7-2.8 1.3-4.3 1.8-.2 0-.3 0-.3-.1s0-.2.2-.3c1.5-.6 3-1.4 4.4-2.2v-.6c0-.1.1-.2.2-.2h.2l.5.2c1.1-.7 2.1-1.4 3-2.1h-7.8c-.1 0-.3-.1-.3-.2 0-.2.1-.3.2-.3h6.1v-2.7h-4.3c-.1 0-.3-.1-.3-.2s0-.2.1-.3H86.6v-2.4c0-.1.1-.2.2-.3h.1l1.2.1c.2 0 .3.2.2.3-.1.1-.3.2-.5.2v2h2l.7-.8c.1-.1.2-.2.3-.1.3.2.8.6 1.2 1l.2.2c.6-.7 1.2-1.4 1.8-2.2.1-.1.2-.2.3-.1h.1l1 .8c.2.1.2.4 0 .4s-.3 0-.5-.1c-1.3 1.5-2.7 2.9-4.2 4.1h3.4l.7-.9c.1 0 .3-.1.5 0-.1 0-.1 0 0 0zm-9.5 6.7h6.8v-2.4h-6.8v2.4zm6.7.5h-6.8v2.6h6.8v-2.6zm-.4-9h-4.2v2.7h1.3c1-.8 2-1.7 2.9-2.7zM89.2 171.2c-.3 1.4-1.6 2.3-3 2.1-1.3 0-2.4-.6-2.4-1.8s1.3-1.8 2.9-1.8c.5 0 1 .1 1.5.2 0-1 0-2 .1-2.8-1.3.1-2.7-.2-3.9-.7-.3-.1-.4-.3-.4-.4 0-.1.1-.2.3-.2h.3c.9.3 1.8.5 2.8.4h.9v-2.1c-.6.1-1.3.2-1.9.2-1 0-1.9-.3-2.7-.8-.2-.1-.3-.3-.3-.5 0-.1.1-.2.2-.2s.3 0 .4.1c.8.4 1.6.5 2.5.5.6 0 1.3-.1 1.9-.2.1-.8-.2-1.6-.6-2.3-.1-.1-.2-.3-.2-.5 0-.1.1-.3.2-.3h.1c.3 0 .5.1.8.2.6.4.8.8.8 1.8v.8c.7-.2 1.4-.5 2.1-.8.2-.1.3-.1.5-.1.5 0 .9.3.9.6s-.2.3-.5.4c-1.2.3-2.2.6-3.1.7.7.8 1.6 1.3 2.6 1.4.4 0 .6.2.6.5 0 .2-.2.4-.6.6-.9.4-1.9.6-2.9.7v3c.8.2 1.6.5 2.2 1 .3.3.6.6.6 1.1 0 .2-.2.5-.4.5s-.4-.1-.5-.3c-.5-.3-1.1-.7-1.8-1zm-3.1 1.3c1.1.1 2-.7 2.2-1.7-.6-.2-1.3-.3-1.9-.3-1.1 0-1.9.4-1.9 1s.8 1 1.6 1zm4.6-6.6c.1 0 .2-.1.2-.2s-.1-.2-.2-.2c-.6-.3-1.1-.7-1.5-1.1 0 .5 0 1.1-.1 1.8.6-.1 1.1-.2 1.6-.3zM90.7 192.4c-3.2 0-3.7-1.6-3.7-4.4-.1-1.9.6-3.8 2-5.2-2.2.7-3.9 1.8-5.2 1.8-.3 0-.6-.1-.9-.2-.4-.2-.7-.6-.7-1 0-.2.1-.3.3-.3h.1c.1 0 .3.1.4.1.3.1.7.2 1 .2 2.1 0 5.5-2.1 9.3-2.1.7 0 1.1.4 1.1.7s-.2.4-.7.3c-.5-.1-.9-.1-1.4-.1-.6 0-1.2.1-1.8.2-1.5 1.1-2.7 2.1-2.7 5.9 0 2.2.5 3 2.2 3h1.1c.8 0 1.2.4 1.2.7s-.2.4-.6.5-.7-.1-1-.1zm.9-8.1c-.1-.1-.2-.2-.2-.3 0-.1.1-.2.2-.2s.1 0 .2.1c.8.3 1.4.8 1.8 1.5.1.1.1.3.1.5s-.2.5-.4.5h-.1c-.3 0-.6-.2-.7-.5-.1-.7-.4-1.2-.9-1.6zm1.7-.3c-.1-.1-.2-.2-.2-.3 0-.1.1-.2.3-.2h.2c.7.2 1.3.6 1.7 1.2.1.1.1.3.1.4 0 .3-.2.5-.4.5h-.1c-.3 0-.5-.2-.6-.4-.3-.5-.6-.9-1-1.2zM86.8 212c0-.1.1-.2.3-.2 3 0 6.6-1.3 6.6-5 .1-2.4-1.8-4.5-4.2-4.6h-1.2v1c0 5.3-2.2 7.7-3.9 7.7-1.1 0-2.1-1-2.1-3 0-4 3.7-6.4 7-6.4 2.8 0 5.5 1.6 5.5 5.3 0 3.6-2.8 5.4-6.3 5.4-.4 0-.9 0-1.3-.1-.3 0-.4 0-.4-.1zm-2.4-2.5c1.3 0 3.4-2.3 3.3-7.2-2.6.5-4.5 2.8-4.5 5.4 0 1.2.5 1.8 1.2 1.8zM43.1 12.2c.3 1.3-.3 2.7-1.5 3.4-.5.3-1.2.3-1.3-.2-.1-.4.1-.8.5-.9 1-.4 1.8-1.3 1.9-2.3 0-.2.1-.3.2-.3s.2.1.2.3zM44 1.8c-.9.1-1.9.1-2.8.2-.2 0-.3-.1-.3-.2s.1-.2.3-.2c2-.3 3.9-.8 5.8-1.4.1-.1.3 0 .4.1l.7.7c.1.2.1.3-.1.3s-.4 0-.5-.1c-.7.1-1.5.3-2.4.4v2h1.4l.6-.8c.1-.1.2-.1.3-.1.3.2.7.6 1.1.9.1.1.2.3.1.4-.1.1-.2.1-.3.1h-3.2v2h1l.4-.5c.1-.1.2-.1.4 0l.9.7c.1.1.2.3 0 .4-.1.1-.3.1-.4.1V10c0 .1 0 .2-.1.3-.3.2-.5.2-.8.3-.1 0-.2-.1-.2-.3v-.5h-3.4v1c0 .1-.5.4-1 .4-.1 0-.2-.1-.2-.3V6c0-.2.1-.3.3-.2l.9.4h1v-2h-2.8c-.1 0-.3-.1-.3-.2s0-.2.1-.3H44V1.8zm-1.1 7.4h3.4V6.7h-3.4v2.5zM53 15.3c0 .5-.6.7-3.9.7h-2.5c-1.6 0-1.9-.2-1.9-1.1v-3c0-.1.1-.3.2-.3h.1l1.1.1c.2 0 .3.2.2.3-.1.1-.2.1-.3.2v2.5c0 .3.1.3.8.3h4.5c.3 0 .3-.1.4-.2.2-.5.4-1.1.5-1.6 0-.2.1-.3.2-.3s.1.1.1.3v1.6c.4.2.5.4.5.5zm-5.7-4.4c3.6.9 3.3 3.1 2.1 2.8-.1 0-.2-.1-.3-.2-.5-.9-1.2-1.6-2.1-2.2v-.4h.3zm2.1.1c-.1 0-.2-.1-.2-.3V1.9c0-.2.2-.3.3-.2l.9.4h.8c.1-.5.3-1.3.4-1.9.1-.1.3-.2.4-.2h.1l1.4.3c.2 0 .3.2.1.3-.1.1-.3.1-.5.2-.3.4-.8.9-1.1 1.4h2.2l.5-.5c.1-.1.2-.1.4 0l.9.7c.1.1.2.3 0 .4-.2.1-.3.1-.5.2v7.6c0 .1-.6.4-1 .4-.1 0-.2-.1-.2-.3v-.8h-3.9v.7c0 .1-.5.4-1 .4zm1-6.5h3.9V2.6h-3.9v1.9zm3.9.5h-3.9v1.9h3.9V5zm0 2.4h-3.9v1.9h3.9V7.4zm-1.4 4.4c4.6 1.3 4.1 4.3 2.8 3.8-.1-.1-.2-.2-.2-.3-.6-1.3-1.6-2.4-2.8-3.2-.1-.1-.2-.2-.1-.3h.3zM42.2 24.4c-.1-.1-.2-.3-.2-.5s.1-.3.3-.3c.2 0 .4.1.6.2 1.1.7 1.2 2.2 1.2 3.8v1.1c0 1.7.1 3.2 1.7 3.1.4 0 .4-.9.9-1.6.1-.1.2-.2.3-.2.1 0 .1.1.1.2v.2c-.1.3-.2.7-.2 1 0 .2.1.5.2.7.2.2.3.4.3.6 0 .2-.2.4-.8.4-.3 0-.6 0-.9-.1-4.1-.7-1.4-5.9-3.5-8.6zM54 29.6c-.3 0-.6-.3-.6-.6v-.3c.1-.3.2-.5.2-.8 0-.9-.7-1.7-1.6-1.9-.3-.1-.4-.2-.4-.3 0-.1.2-.2.4-.2 1.2.1 3 1 3 2.8-.1 1-.5 1.3-1 1.3zM46.8 53.6c0-.1.1-.2.3-.2 3 0 6.6-1.3 6.6-5 .1-2.4-1.7-4.5-4.2-4.6h-1.2v1c0 5.3-2.2 7.7-3.9 7.7-1.1 0-2.1-1-2.1-3 0-4.1 3.7-6.4 7-6.4 2.8 0 5.5 1.6 5.5 5.3 0 3.6-2.8 5.5-6.3 5.5-.4 0-.9 0-1.3-.1-.3-.1-.4-.1-.4-.2zm-2.4-2.5c1.3 0 3.4-2.3 3.3-7.2-2.6.5-4.5 2.8-4.5 5.4 0 1.2.4 1.8 1.2 1.8zM46 69c-1.2.8-2.8 1.9-4.9 3.1 0 .1-.1.2-.1.3-.1.2-.3.1-.4-.1l-.5-1c-.1-.1 0-.2.1-.3h.1c.5-.2 1.2-.5 2.1-.8v-5.4h-1.8c-.1 0-.3-.1-.3-.2 0-.2.1-.3.2-.3h1.9v-4.4c0-.1.1-.2.2-.3h.1l1.2.1c.2 0 .3.2.2.3-.2.1-.3.2-.5.2v4h.4l.6-.9c.1-.2.2-.2.4 0 .1.2.7.6 1 1 .1.1.2.3 0 .3-.1.1-.2.1-.3.1h-2v5c.7-.3 1.5-.6 2.3-1 .2-.1.3-.1.3 0-.1.2-.2.2-.3.3zm2.3.1h6.3l.5-.5c.1-.1.2-.1.4 0l.9.7c.2.1.2.3 0 .4-.1.1-.3.1-.5.1-.2 3.1-.8 5-1.6 5.6-.4.3-.9.5-1.5.5-.2 0-.3-.1-.3-.3 0-.2-.1-.4-.3-.5-.3-.2-.7-.3-1.1-.4-.2 0-.2-.1-.2-.2s.1-.1.3-.1c.6 0 1.4.1 1.7.1.2 0 .4 0 .6-.2.5-.4.9-2 1.1-4.7h-1.4c-1 2.7-2.9 4.9-5.5 6.1-.2.1-.3.1-.3 0-.1-.1 0-.2.1-.3 2.1-1.4 3.6-3.4 4.3-5.8h-1.5c-1.3 2.3-3.3 4.2-5.7 5.3-.2.1-.3.1-.3 0-.1-.1 0-.2.2-.3 2-1.2 3.6-2.9 4.7-5h-1.5c-1 1.1-2.3 2-3.7 2.7-.2.1-.3.1-.3 0-.1-.1 0-.2.1-.3 1.6-1.1 2.9-2.6 3.8-4.4h-2.5c-.1 0-.3-.1-.3-.2s0-.3.1-.3h9.2l.7-.8c.1-.1.2-.1.4 0 .4.3.8.6 1.1.9.1.1.2.3.1.4-.1.1-.2.1-.3.1H49c0 .5-.3.9-.7 1.4zm-1-2.7c-.1 0-.2-.1-.2-.3V60c0-.1.1-.2.2-.2h.2l.9.4h5l.5-.5c.1-.1.2-.1.4 0l1 .7c.2.1.2.3 0 .4-.3.1-.5.2-.7.2v4.6c0 .1 0 .2-.1.3-.3.1-.5.2-.8.2-.1 0-.2-.1-.2-.3v-.5h-5.2v.7c-.1.2-.6.4-1 .4zm1-3.8h5.2v-1.8h-5.2v1.8zm5.2.5h-5.3v1.8h5.2l.1-1.8zM48.3 94.4c-2.3 0-3.7-.9-3.7-2.2 0-1.1 1.1-2.5 3.6-3.7-.2-.9-.7-1.6-1.4-1.6-.8 0-1.7.5-2.8 1.9-.2.2-.4.4-.7.4-.3 0-.5-.2-.6-.5 0-.3.2-.5.4-.7 1.6-1.1 2.9-2.6 3.7-4.4-.4.1-.8.2-1.1.2-.3 0-.6-.1-.9-.2-.3-.2-.5-.5-.6-.8 0-.2.1-.4.3-.4h.1c.1 0 .2 0 .3.1.3.2.7.3 1.1.3.3 0 .7-.1 1-.2 0-.3-.1-.7-.3-.9-.1-.1-.2-.2-.2-.4s.2-.3.4-.3c.3 0 .5.1.7.3.3 0 .8.1 1.1.2.3.1.3.2.3.3 0 .2-.1.3-.1.5-.2.5-.6.8-1.1 1.1-.4 1.2-1 2.2-1.8 3.2v.1s.1.1.2 0c.3-.2.7-.2 1-.2.6 0 1.2.3 1.5.8 1.5-1.9 3.1-2.7 4.1-2.7.7 0 1.1.3 1.1.8 0 .9-1.2 2.2-4.5 3.4h-.1c.1.3.1.7.1 1 0 .4 0 .8-.1 1.1-.1.6-.5.8-.8.8-.3 0-.5-.3-.5-.6 0-.1 0-.3.1-.4l.3-1.5c-1.9.9-2.9 2.1-2.9 3 0 .7.7 1.2 2.1 1.2 1 0 2-.2 3-.5.2 0 .3-.1.5-.1.6 0 1 .3 1 .6s-.2.4-.7.6c-1.2.2-2.2.4-3.1.4zm-.1-12.5.1-.1c0-.1 0-.1-.1-.1s-.3-.1-.5-.1c.1.2.1.4.1.6.1-.1.3-.2.4-.3zm4.4 3.6c0-.2-.2-.3-.5-.3-1.4.3-2.6 1.2-3.4 2.4.1.1.1.3.2.5 2.7-1.2 3.7-2.2 3.7-2.6zM14.6 2c-.2.1-.4.2-.6.2v13.5c0 .1 0 .2-.1.3-.3.2-.6.3-.9.3-.1 0-.2-.1-.2-.3v-1H4.2v1c0 .2-.5.5-1 .5-.1 0-.2-.1-.2-.3V1.1c0-.2.1-.3.3-.2l1 .5h8.4l.5-.6c.1-.1.3-.1.4 0l1.1.9c.1 0 .1.2-.1.3zM4.2 5.7h8.6V1.9H4.2v3.8zm0 4.3h8.6V6.2H4.2V10zm8.6.6H4.2v3.9h8.6v-3.9zM4.1 27.9l2.5-.9c.2-.1.3-.1.3 0s0 .2-.2.3c-.7.4-1.6.9-2.6 1.4v5.8c0 .9-.2 1.5-1.5 1.7-.1 0-.3-.1-.3-.2 0-.2-.1-.4-.3-.6-.3-.2-.7-.4-1.1-.4-.2 0-.3-.1-.3-.2s.1-.1.3-.1c.5 0 1.4.1 1.7.1s.4-.1.4-.4v-5.1c-.6.3-1.3.7-2 1 0 .1-.1.2-.2.3-.1.1-.3.1-.4-.1l-.4-1c0-.1 0-.2.1-.3.7-.2 1.6-.5 2.8-.8v-3.9H.5c-.1 0-.3-.1-.3-.2s0-.3.1-.3h2.6v-3.8c0-.1.1-.2.2-.3h.1l1.2.1c.2 0 .3.2.2.3-.2.1-.3.2-.5.2v3.4h.7l.6-.8c0-.1.2-.2.3-.1h.1c.3.2.7.6 1 .9.1.1.2.3 0 .3-.1.1-.2.1-.3.1H4.1v3.6zM16.6 26c0 .6-.6.7-4.4.7H9.6c-1.7 0-2.1-.2-2.1-1.2v-5.4c0-.1.1-.3.2-.3h.1l1.1.2c.2 0 .3.2.2.3-.1.1-.3.1-.4.2v3c2-.7 3.8-1.6 5.6-2.7.1-.1.3-.1.4 0l1 .8c.2.1.2.3 0 .3s-.4 0-.6-.1c-2 .9-4.2 1.6-6.4 2.1v1.4c0 .3.1.4 1.1.4H15c.4 0 .4 0 .5-.2.2-.5.4-1 .5-1.5 0-.2.1-.3.2-.3s-.2.1-.2.3l.1 1.5c.4.1.5.2.5.5zM15 27.9l1 .7c.2.1.2.3 0 .4-.2.1-.3.1-.5.2v6.5c0 .1-.6.4-1 .4-.1 0-.2-.1-.2-.3v-.9H8.8v.9c0 .1-.5.4-1 .4-.1 0-.2-.1-.2-.3v-7.8c0-.1.1-.2.2-.2H8l.9.4h5.3l.5-.5s.1 0 .3.1zm-6.3 3.5h5.6V29H8.8l-.1 2.4zm5.6.5H8.8v2.5h5.6l-.1-2.5zM7.9 54.7c-1.9 0-3.3-1.2-3.3-3.7v-.6c.4-4 .7-5.8.7-6.8 0-.4-.1-.7-.3-1-.1-.1-.2-.2-.2-.4 0-.1.1-.2.2-.2s.2 0 .3.1c.7.3 1.1.9 1 1.6 0 1.2-.6 3.1-.9 6.7v.4c-.2 1.4.8 2.6 2.2 2.8h.5c1.6 0 3.7-.9 5.7-2.8.1-.1.2-.1.3-.2.1 0 .1.1.1.1 0 .1 0 .2-.1.3-1.8 2.5-4.3 3.7-6.2 3.7zM10.6 73.6c-3.2 0-3.7-1.6-3.7-4.4-.1-1.9.6-3.8 1.9-5.2-2.2.7-4 1.8-5.2 1.8-.3 0-.6-.1-.9-.2-.4-.2-.7-.6-.7-1 0-.2.1-.3.3-.3h.1c.1 0 .3.1.4.1.3.1.7.2 1 .2 2.1 0 5.5-2.1 9.4-2.1.7 0 1.1.4 1.1.7 0 .3-.2.4-.7.3-.5-.1-.9-.1-1.4-.1-.6 0-1.2.1-1.9.2-1.5 1.1-2.6 2.1-2.6 5.9 0 2.2.5 3 2.2 3H11c.8 0 1.2.4 1.2.7 0 .3-.2.4-.6.5s-.7-.1-1-.1zM2.2 83.9c-.1-.2-.2-.4-.2-.5 0-.2.1-.3.3-.3.2 0 .4.1.6.2 1 .7 1.1 2.2 1.1 3.8v1.1c0 1.7.1 3.2 1.7 3.1.4 0 .4-.9.9-1.6.1-.1.2-.2.3-.2.1 0 .1 0 .1.2 0 .1 0 .2-.1.2-.1.3-.2.7-.2 1 0 .2.1.5.2.7.2.2.3.4.3.6 0 .2-.2.4-.8.4-.3 0-.6 0-.9-.1-3.9-.8-1.3-6-3.3-8.6zM14 89c-.3 0-.6-.3-.6-.6V88c.1-.3.2-.5.2-.8 0-.9-.7-1.7-1.6-1.9-.3-.1-.4-.2-.4-.3 0-.1.2-.2.4-.2 1.2.1 3 1 3 2.8-.1 1.1-.6 1.4-1 1.4zM8.6 114.1c-3.2 0-4.6-1.2-4.6-2.4s1.3-2.4 3.6-2.4c.7 0 1.4.1 2.1.3h.2c.2 0 .2-.1.2-.2v-.2l-.7-2.2c-.8.2-1.7.3-2.5.4-1 0-2-.2-2.9-.8-.2-.1-.3-.3-.3-.4 0-.1.1-.2.3-.2.1 0 .2 0 .3.1.7.4 1.6.6 2.4.6.8 0 1.6-.1 2.4-.4-.3-.8-.6-1.5-.9-2.2-.4.1-.9.1-1.3.1-.6 0-1.3-.1-1.8-.3-.2-.1-.3-.2-.3-.3 0-.1.1-.2.3-.2h.2c.4.1.7.2 1.1.2.5 0 1-.1 1.5-.3-.3-.7-.8-1.3-1.5-1.7-.5-.2-.7-.4-.7-.6 0-.2.2-.3.6-.3.2 0 .3 0 .5.1.9.2 1.2.6 1.9 2.2.3-.2.6-.3.9-.4.2-.1.3-.1.5-.1.4 0 .7.2.7.4 0 .3-.1.3-.4.5-.3.1-.5.3-.8.4 1.1.3 2.2.5 3.3.7.4 0 .7.3.7.6 0 .2-.2.5-.4.6-.9.5-1.8.9-2.8 1.2.3.7.7 1.6 1.1 2.5.1.2.2.5.2.7.1.5-.3.9-.8 1h-.1c-.2 0-.5-.1-.7-.2-.7-.5-1.6-.8-2.5-.8-1.5 0-2.7.9-2.7 1.8s.8 1.3 2.9 1.3c.5 0 1.1 0 1.8-.1h.3c.7 0 1.1.3 1.1.7 0 .3-.2.5-.7.5-.7-.3-1.3-.2-1.7-.2zm2.9-8.9c.1 0 .1-.1.2-.2 0-.1-.1-.1-.3-.2-.8-.2-1.6-.5-2.4-.8l.8 1.9c.6-.2 1.2-.4 1.7-.7zM9.2 131.5c-.3 1.4-1.6 2.3-3 2.1-1.3 0-2.4-.6-2.4-1.8 0-1.1 1.3-1.8 2.9-1.8.5 0 1 .1 1.5.2 0-1 0-2 .1-2.8-1.3.1-2.7-.2-3.9-.7-.3-.1-.4-.3-.4-.4 0-.1.1-.2.3-.2h.3c.9.3 1.8.5 2.8.4h.9v-2.1c-.6.1-1.3.2-1.9.2-1 0-1.9-.3-2.7-.8-.2-.1-.3-.3-.3-.5 0-.1.1-.2.2-.2s.3 0 .4.1c.8.4 1.6.5 2.5.5.6 0 1.3-.1 1.9-.2.1-.8-.2-1.6-.6-2.3-.1-.1-.2-.3-.2-.5 0-.1.1-.3.2-.3h.1c.3 0 .5.1.8.3.6.3.8.8.8 1.8v.8c.7-.2 1.4-.5 2.1-.8.2-.1.3-.1.5-.1.5 0 .9.3.9.6s-.2.3-.5.4c-1.2.3-2.2.6-3.1.7.7.8 1.6 1.3 2.6 1.4.4 0 .6.2.6.5s-.2.4-.6.6c-.9.4-1.9.6-2.9.7v3c.8.2 1.5.6 2.2 1.1.3.3.6.6.6 1.1 0 .2-.2.5-.4.5s-.4-.1-.5-.3c-.6-.3-1.2-.8-1.8-1.2zm-3.1 1.4c1.1.1 2-.6 2.2-1.7-.6-.2-1.3-.3-1.9-.3-1.1 0-1.9.4-1.9 1s.7 1 1.6 1zm4.5-6.6c.1 0 .2-.1.2-.2s-.1-.2-.2-.2c-.6-.3-1.1-.7-1.5-1.1 0 .5 0 1.1-.1 1.8.6-.1 1.1-.2 1.6-.3zM6.8 154c-.2 0-.2-.1-.2-.2s.1-.2.3-.3c1.5-.6 2.4-2.1 2.3-3.8-.3.3-.7.5-1.1.5-.8 0-1.7-.8-1.8-2.6v-.3c-.1-1.1.6-2 1.7-2.1h.1c.3 0 .7.1 1 .3v-1.6c-2.7.2-4.5.8-5.7.8-.3 0-.5 0-.7-.1-.7-.2-1-.6-1-.9 0-.3.2-.4.4-.4.1 0 .3 0 .4.1.5.2 1 .3 1.5.2 1.3 0 3-.4 5-.6 0-.7-.2-1.4-.4-2.1-.1-.2-.2-.5-.2-.7 0-.1.1-.3.2-.3h.1c.2 0 .5.1.7.2.3.2.5.4.5.7 1.5 1.2 3.3 2 5.1 2.6.4.1.6.3.6.5s-.2.3-.5.3h-.2c-1.5-.3-3-.4-4.5-.4h-.8v.8c0 .5 0 1.1.1 1.8.2.4.2.7.3 1.1v1c0 2-.5 4.8-3.1 5.4l-.1.1zm2.1-6.5c-.1-1-.6-1.5-1.1-1.5s-1 .5-1 1.5c0 1.3.5 1.8 1.1 1.8s1.1-.5 1.1-1.5l-.1-.3zm3.2-4.4c.1 0 .1 0 .1-.1-.8-.5-1.6-1-2.5-1.5v1.5c.8 0 1.6.1 2.4.1zM11.6 161.3c0-1.4 1.1-2.5 2.5-2.5s2.5 1.1 2.5 2.5-1.1 2.5-2.5 2.5c-1.3-.1-2.5-1.2-2.5-2.5zm.6 0c0 1 .8 1.9 1.9 1.9s1.9-.8 1.9-1.9c0-1-.8-1.9-1.9-1.9-1 0-1.9.8-1.9 1.9 0-.1 0-.1 0 0z"/></svg>
