<svg xmlns="http://www.w3.org/2000/svg" viewBox="0 0 78 47" width="78" height="47" style="enable-background:new 0 0 78 47" xml:space="preserve"><path d="M.2 36.5c1 0 1.4-.1 1.9-.1h3.4c.1 0 .2-.1.2-.1 0-.1-.1-.2-.2-.3l-1-.8-.8.9H-.1l.3.4zm.5 1.8h4.1c.1 0 .2 0 .2-.1 0-.2 0-.3-.1-.3l-.9-.7-.6.8H.7v.3zm0 1.9h4.1c.1 0 .2-.1.2-.2s-.1-.2-.1-.2l-.8-.6-.6.7H.7v.3zm.1 1v5.4c0 .1.1.1.1.2.2 0 .4-.1.5-.2.1 0 .2-.2.2-.3v-1.2h2.1v.9c0 .1.1.2.2.2.3 0 .6-.1.7-.4v-3.2l.4-.2c.1 0 .1-.1.2-.2 0-.1-.1-.2-.2-.3l-.9-.8-.4.6H1.8l-1-.5zm.9 3.6v-2.6h2.1v2.6H1.7zM.9 34.6h4c.1 0 .1-.1.1-.2s-.1-.2-.2-.3l-.9-.7-.6.7H.9v.5zm4.5 7.9.2.5c.9 0 1.3-.1 1.9-.1h1.2v3.7c0 .1.1.2.2.2.2 0 .3-.1.5-.2s.3-.2.3-.4v-3.4h4.1c.1 0 .2-.1.2-.2s-.1-.2-.2-.3l-1.1-.9-1 1H9.6V40h3.3c.1 0 .2-.1.2-.2s-.1-.2-.1-.2l-1-.8-.8.9H9.6v-2.5h3.8c.1 0 .1-.1.1-.1 0-.1-.1-.2-.1-.3l-1-.8-.8.9H10l1.5-2.1.3-.1c.1 0 .2-.1.2-.2s-.1-.2-.2-.3l-1.1-.6-1.3 3.3H6.6l-1.1-.1.2.5c1 0 1.4-.1 1.8-.1h1.1v2.5H6.9l-1.1-.1.2.5c1 0 1.4-.1 1.9-.1h.8v2.5H5.4zm1-8.8c.5.6.8 1.3.9 2.1.1.4.2.6.5.6.4 0 .7-.3.7-.7 0-.9-.7-1.6-1.9-2.1l-.2.1zm13.7 1.8L20 42v.2c-.1.9.1 1.7.6 2.4.6.6 1.4.9 2.3.9 1 0 2.1-.3 3-.8.7-.4 1.3-.9 1.9-1.5.5-.5 1-1 1.4-1.6 0-.1-.1-.2-.2-.2-.2.1-.4.2-.5.4-1.5 1.6-3.5 2.6-5.7 2.7-.6.1-1.2-.2-1.6-.6-.3-.4-.4-1-.4-1.5s0-1.2.1-1.7l.2-4.4c0-.2.1-.5.2-.6.1-.1.1-.2.2-.3-.1-.3-.3-.4-.5-.5-.3-.3-.6-.4-1-.5-.3 0-.6.1-.8.2-.2 0-.3.2-.3.3.4.1.7.2 1.1.3.1 0 .1 0 .1.3zm20.7-1.2c.4.1.7.3.9.6-.1.2-.3.4-.5.6-1 .8-1.9 1.6-2.5 2-2.1 1.7-2.2 1.8-2.3 1.9-.2.1-.3.3-.3.6s.1.3 1.2 1.1c1.8 1.3 3.3 2.9 4.6 4.6.4.6.5.8.8.8.4 0 .6-.3.6-.7 0-.4-.5-1-1.6-2-1.3-1.2-2.6-2.3-4-3.3-.3-.1-.6-.4-.7-.7.1-.2.2-.4.5-.5 2.3-1.7 2.3-1.7 3.4-2.4.6-.5 1.3-.9 2-1.2.2 0 .3-.2.3-.3-.2-.4-.5-.8-.8-1.1-.3-.2-.6-.4-.9-.4-.3-.1-.6.1-.8.3l.1.1zm14.1 7.5c-.3 2.8-1.2 3.8-4.7 4.9-.1 0-.2.1-.3.2 0 .1.1.1.1.1.3 0 .6-.1.8-.1.9-.2 1.8-.4 2.6-.8 1.5-.8 2.1-1.9 2.4-4.3h1.3v4c.1.7.2.8 2.5.8 1 .1 2.1 0 3.1-.2.4 0 .7-.2.7-.6 0-.1 0-.2-.2-.2s-.4-.2-.4-.5l.1-2-.2-.1-.3 1.8c-.2.8-.2.8-3 .8h-1.1c-.1 0-.1 0-.1-.3v-3.5h1.5v.8c0 .1 0 .2.2.2h.1c.2 0 .4-.1.6-.1.1 0 .2-.1.2-.3v-7.6l.4-.1c.1 0 .2-.1.2-.2s-.1-.2-.1-.2l-1-.9-.5.6h-6.2l-1.2-.7v9.6c0 .1.1.2.2.2.3 0 .6-.1.8-.4v-.8h1.5v-.1zm-1.5-.4v-2.1h6.4v2.1h-6.4zm0-2.5v-2.1h6.4v2.1h-6.4zm0-2.5v-2h6.4v2h-6.4zM74.5 35l-4.3 4.7-.5.5-.6.6c-.3.3-.7.6-.8.7-.3.1-.4.4-.4.7 0 .2.2.4.4.5h.1c.2 0 .3-.1.4-.3.7-.9 1.6-1.7 2.5-2.4.8-.6 1.7-.9 2.7-.9 1.4-.2 2.7.9 2.9 2.3v.4c0 1.4-1 2.7-2.4 3-.1-.7-.4-1.3-1-1.7-.4-.3-1-.5-1.5-.5-.8-.1-1.6.4-1.7 1.2 0 1.1 1.3 2 2.9 2 1 0 2.1-.3 2.9-.9 1.1-.6 1.7-1.7 1.7-3 0-1.9-1.6-3.3-3.7-3.3-.9 0-1.9.2-2.7.6l3.1-3.1c.3-.4.8-.7 1.3-.9.2 0 .3-.1.3-.3 0-.3-.2-.5-1-1-.3.3-.7.5-1.1.5l-2.6.6c-.2 0-.4.1-.6.1-.5 0-1-.3-1.3-.7-.2.1-.3.3-.3.5.3.6.8 1 1.4 1.4.1 0 .2-.1.2-.1.2-.2.5-.3.8-.4l2.9-.8zm-.9 10.1c-.1 0-.3.1-.4.1-1.2 0-2.2-.6-2.2-1.3.1-.4.5-.7.9-.7 1 0 1.8.9 1.7 1.9z" style="fill-rule:evenodd;clip-rule:evenodd"/><path style="fill:#040000" d="m40.2 1.1-5.9 6.4 6 6.6-1.1 1.1-7-7.7 7-7.5z"/></svg>
