<svg xmlns="http://www.w3.org/2000/svg" viewBox="0 0 46 46" width="46" height="46" style="enable-background:new 0 0 46 46" xml:space="preserve"><path d="M.2 35.1c.5.3.8.8 1 1.3.1.5.2.7.5.7s.6-.3.6-.6v-.1c0-.4-.3-.8-.7-1.1-.4-.2-.9-.4-1.3-.4l-.1.2zm0 3.9c.9.2 1.2.4 1.2.9 0 .1-.1.5-.1.8 0 .2-.1.4-.1.6 0 .3.2.6.6.7h.1c.3 0 .6-.3.6-.6v-.1c0-.3 0-.6-.1-.8-.1-.2-.1-.5-.1-.7 0-.3.1-.6.3-.9l2-4.3-.2-.1-2.7 4.4c-.4-.1-.9-.1-1.3-.2l-.2.3zm6 3.8H3c-.6 0-.7 0-3-.1l.2.5c.5 0 1.1 0 2.8-.1h3.2v2.6c0 .1 0 .2.1.2.2 0 .3-.1.5-.1s.3-.2.3-.4v-2.3h6.1c.1 0 .2 0 .2-.1v-.1c0-.1-.1-.2-.2-.2l-1.2-.9-.9 1h-4v-.7l.4-.2c.1-.1.1-.2.2-.3 0-.1-.1-.2-.2-.3l-1.2-.1-.1 1.6zm-4.8-9.7c.4.2.7.6.9 1 0 .3.2.5.4.7.1.1.2.2.3.2.3 0 .5-.3.5-.6 0-.7-.9-1.3-2-1.4l-.1.1zm4.7 1.8c.3-.6.4-.7.6-1.2l.4-.2c.1 0 .2-.1.2-.2 0-.2-.1-.3-.3-.3l-1-.5c-.5 1.9-1.3 3.7-2.5 5.3-.1.1-.2.2-.2.4 0 .1.1.1.1.1.7-.5 1.3-1.1 1.7-1.8v5.2c0 .1 0 .1.1.1.2 0 .4-.1.6-.2.1 0 .2-.1.2-.3v-.5h7.2c.1 0 .2-.1.2-.2s-.1-.2-.2-.3l-1-.8-.8.9H9.2V39H12c.1 0 .2-.1.2-.2s0-.2-.1-.2l-.9-.7-.8.8H9.2v-1.5h3c.1 0 .1-.1.1-.2s0-.1-.1-.2l-1-.8-.7.8H9.2v-1.5h3.7c.1 0 .1 0 .2-.1 0-.1 0-.1-.1-.2l-1.1-1-.7.9H8.9l.1-.2c.1-.1.2-.3.4-.6.1-.1.1-.2.3-.5l.4-.2c.1 0 .2-.1.2-.3 0-.1-.1-.2-.2-.2l-1.2-.4c-.1.8-.3 1.6-.5 2.3l-2.3.1zM6 40.5V39h2.4v1.5H6zm0-1.9v-1.5h2.4v1.5H6zm0-1.8v-1.5h2.4v1.5H6zm14.6-3.1c.1 0 .2-.2.2-.3 0-.1-.1-.2-.2-.2l-1.4-.6c-.3 2.7-1.1 5.4-2.5 7.8-.2.2-.3.4-.4.6 0 .1 0 .1.1.1.2-.1.3-.2.4-.4.7-.8 1.3-1.7 1.7-2.6v7.5c0 .1.1.2.2.2.3 0 .7-.2.7-.5v-8l.2-.1c.1-.1.2-.2.2-.3 0-.1-.1-.2-.3-.3l-.3-.1c.4-.9.7-1.8.9-2.7l.5-.1zm.5 2.3c0 1.6.1 2.3.1 3.2 0 3.3-.2 4.4-1.3 6.1v.1c0 .1 0 .1.1.1s.3-.1.3-.3c.7-.8 1.2-1.7 1.5-2.6.2-1.2.3-2.4.3-3.6 0-.6 0-1-.1-2h8.2c.1 0 .2-.1.2-.2s0-.2-.1-.2l-1-.7-.8.8h-6.3l-1.1-.7zm5-1v1.1c0 .1.1.2.2.2.3.1.6-.1.7-.4V35h3.1c.1 0 .2-.1.2-.2s-.1-.2-.2-.3l-1-.7-.8.8H27v-1.1l.3-.1c.2 0 .3-.2.3-.3 0-.2-.1-.3-.3-.3l-1.2-.1v1.9h-1.5v-1.1l.3-.3c.1-.1.2-.2.2-.3 0-.1-.1-.3-.3-.3l-1.2-.1v1.9h-1c-.6 0-1 0-2-.1l.2.5h2.8v1.1c0 .1.1.2.2.2.3 0 .6-.1.7-.3v-1l1.6.2zm-3.3 2.5v8.1c0 .1.1.2.2.2h.1c.3.1.6-.1.7-.4v-3.3h1.8v3.2c0 .1.1.2.2.2.2 0 .4-.1.6-.2.1-.1.1-.1.1-.2v-3h1.9V44c0 .3-.2.4-.8.4h-.7v.2l.8.2c.3.1.4.1.4.3 0 .2.1.3.2.4.3-.1.5-.2.7-.4.3-.2.4-.5.3-.8v-5.7l.2-.1c.1 0 .2-.1.2-.2 0-.2-.1-.3-.3-.4l-.8-.6-.4.6H24l-1.2-.4zm1 4.3v-1.5h1.8v1.5h-1.8zm0-1.9v-1.5h1.8v1.5h-1.8zm2.7 1.9v-1.5h1.9v1.5h-1.9zm0-1.9v-1.5h1.9v1.5h-1.9zm8.1-4.7v6.5c0 .1.1.2.2.2.3 0 .7-.2.8-.5v-.8h3.7v4.7c0 .1 0 .2.2.3h.1c.4.1.7-.1.9-.4v-4.5h3.9v.8c0 .1.1.2.3.2.4 0 .7-.2.8-.5v-4.5l.3-.1c.1 0 .2-.1.2-.2s-.1-.2-.2-.3l-1-.8-.5.7h-3.8v-2.4l.3-.2c.2-.1.3-.2.3-.4s-.2-.3-.4-.3l-1.3-.1v3.3h-3.6l-1.2-.7zm1.1 5.2v-4.1h3.7v4.1h-3.7zm4.8 0v-4.1h3.9v4.1h-3.9z" style="fill-rule:evenodd;clip-rule:evenodd"/><path d="M18.5 14.5 25.1 8l-6.6-6.9L19.6 0l7.8 8-7.8 7.7z"/></svg>
