<svg xmlns="http://www.w3.org/2000/svg" viewBox="0 0 30 130" width="30" height="130" style="enable-background:new 0 0 30 130" xml:space="preserve"><path d="M.9 5.5c1 .7 1.8 1.7 2.1 2.9.3 1.2.5 1.4 1.1 1.4.7 0 1.2-.6 1.2-1.3v-.1c0-1-.6-1.8-1.4-2.3C3 5.6 2 5.3 1 5.1l-.1.4zm0 8.5c2 .5 2.5.8 2.5 1.9 0 .3-.1 1-.2 1.7-.1.4-.1.9-.1 1.3 0 .7.5 1.4 1.3 1.4h.1c.7 0 1.3-.6 1.3-1.3v-.2c0-.6-.1-1.2-.2-1.8-.1-.5-.2-1-.2-1.5.1-.7.3-1.4.6-2l4.3-9.2-.5-.2L4 13.7c-1-.2-2-.3-2.9-.4l-.2.7zm12.9 8.3H6.9c-1.3 0-1.5 0-6.4-.2l.4 1.1c1 0 2.3 0 5.9-.1h6.9v5.7c0 .2.1.4.3.4.4-.1.7-.2 1.1-.3.4-.1.7-.4.6-.8v-5h13.1c.2 0 .4-.2.5-.4v-.1c0-.2-.2-.4-.4-.5l-2.7-1.9-1.9 2.1h-8.7v-1.5l.7-.4c.2-.1.3-.4.4-.6 0-.3-.2-.5-.5-.5l-2.6-.3c.2-.1.2 3.3.2 3.3zM3.5 1.3c.9.5 1.6 1.2 2 2.1.6 1.4.6 1.4.8 1.5.2.2.4.3.7.3.6 0 1.1-.6 1-1.2v-.1c0-1.6-1.9-2.8-4.4-3l-.1.4zm10 3.9c.7-1.3.7-1.5 1.4-2.7l.9-.4c.2-.1.4-.3.5-.5 0-.3-.3-.6-.6-.7L13.4 0c-1.6 5.3-3 8.4-5.4 11.5-.3.2-.5.5-.5.8 0 .1.1.3.3.3.4 0 1.9-1.7 3.7-4v11.2c0 .2.1.4.3.4.4-.1.8-.2 1.2-.4.2-.1.4-.4.4-.6V18h15.5c.2 0 .4-.1.4-.3v-.1c0-.2-.2-.5-.4-.6l-2.2-1.7-1.7 2h-4.6V14h6.1c.2 0 .4-.2.5-.4 0-.2-.1-.4-.3-.5l-2-1.5-1.6 1.6h-2.7V10h6.5c.1 0 .3-.2.3-.3 0-.2-.1-.4-.2-.5l-2.1-1.6-1.6 1.6h-2.9V5.9h7.8c.2 0 .3-.1.3-.2v-.1c0-.1-.1-.2-.2-.3l-2.4-2.1-1.6 2h-4.6l.2-.5c.1-.1.4-.6.8-1.3.1-.2.3-.5.6-1l.8-.4c.2-.1.4-.3.5-.5 0-.3-.2-.5-.5-.6L19.5.1c-.2 1.7-.6 3.5-1.1 5.1h-4.9zm-.2 12.1V14h5.2v3.3h-5.2zm0-4.1V10h5.2v3.2h-5.2zm0-4V5.9h5.2v3.2c0 .1-5.2.1-5.2.1zM9 39.5c.3-.1.5-.3.5-.6 0-.2-.1-.4-.4-.5l-2.9-1.2C5.6 43.1 3.7 48.8.8 54c-.3.4-.6.8-.8 1.3 0 .1.1.3.2.3.4-.2.7-.4.9-.8 1.5-1.7 2.7-3.6 3.7-5.6v16.1c-.1.3.1.5.4.6h.1c.8.1 1.5-.4 1.6-1.2V47.3l.5-.2c.3-.2.4-.4.4-.7-.1-.3-.3-.5-.6-.5l-.7-.2c.8-1.9 1.4-3.9 1.9-5.9l.6-.3zm1.1 4.9c.1 3.5.1 5 .1 7 0 7.1-.5 9.5-2.8 13.2 0 .1-.1.1-.1.2s.1.3.2.3c.3-.1.5-.3.7-.6 1.5-1.7 2.6-3.6 3.2-5.7.5-2.6.7-5.2.6-7.9 0-1.2 0-2.2-.1-4.3h17.6c.2 0 .3-.2.3-.4s-.1-.4-.3-.5l-2.1-1.5-1.7 1.7H12.3l-2.2-1.5zm10.7-1.9v2.3c0 .3.2.5.5.5.6.1 1.3-.3 1.5-.9v-1.9h6.6c.3 0 .4-.2.4-.5 0-.2-.2-.4-.3-.5l-2.1-1.6-1.8 1.8h-2.7v-2.4l.6-.3c.3-.1.6-.4.6-.7 0-.3-.3-.6-.6-.6l-2.6-.2v4.2h-3.3v-2.3l.7-.6c.2-.1.4-.3.4-.5 0-.3-.3-.6-.6-.6l-2.5-.2v4.2h-2.2c-1.3 0-2.1 0-4.3-.1l.5 1c1.9-.1 2.6-.1 3.8-.1h2.2v2.3c0 .3.2.5.4.5h.1c.6.1 1.2-.2 1.5-.8v-2h3.2zm-7 5.3v17.6c0 .2.1.5.4.5h.1c.6.1 1.3-.3 1.5-.9v-7.2h3.8v6.9c0 .3.2.5.5.5.4 0 .9-.2 1.3-.4.1-.1.2-.3.2-.5v-6.4h4.1v4.2c0 .7-.3.9-1.7.9h-1.5v.5l1.6.5c.7.2.7.3.8.7.1.6.3.9.5.9.5-.1 1-.4 1.4-.8.6-.4.9-1 .7-1.7V50.7l.4-.2c.2-.1.4-.3.5-.5-.1-.4-.3-.7-.6-.8l-1.7-1.3-.8 1.2h-9.1l-2.4-1.3zm2 9.3v-3.3h3.8v3.3h-3.8zm0-4v-3.3h3.8v3.3h-3.8zm5.8 4v-3.3h4.1v3.3h-4.1zm0-4v-3.3h4.1v3.3h-4.1zM3.4 79.9v14.2c0 .3.2.5.5.5H4c.8 0 1.7-.5 1.7-1v-1.7h8v10.3c-.1.3.1.5.4.6h.1c1 0 1.9-.4 1.9-1v-9.9h8.3v1.8c0 .3.3.5.6.5h.1c.8.1 1.5-.4 1.7-1.2v-9.9l.7-.2c.2-.1.4-.3.4-.5 0-.3-.2-.5-.4-.7l-2.2-1.8-1.1 1.5H16v-5.2l.7-.4c.3-.1.6-.4.6-.8s-.3-.6-.9-.6l-2.8-.1v7.2H6l-2.6-1.6zm2.3 11.3v-9h8v9h-8zm10.3 0v-9h8.3v9H16z" style="fill-rule:evenodd;clip-rule:evenodd;fill:#666"/><path style="fill:#666" d="M6.3 118.3 15 127l9.1-8.7 1.5 1.5L15 130 4.8 119.8z"/></svg>
