<svg version="1.1" xmlns="http://www.w3.org/2000/svg" x="0" y="0" viewBox="0 0 49 240" width="49" height="240" xml:space="preserve"><style>.st1{fill:#666}</style><path class="st1" d="M9.8 27.5c1 0 2 .1 2.3.1 1 0 1.7.1 2 .1h3.5l1.7-1.9 2 1.7c.2.2.4.4.4.6 0 .2-.1.4-.4.4H14c-.9 0-1.8 0-4 .1l-.2-1.1zm1.5 4H17l1.4-1.5 1.8 1.4c.2.2.3.3.3.5 0 .3-.1.4-.4.4h-8.7v-.8zm0 4H17l1.3-1.5 1.7 1.3c.2.1.3.3.3.5 0 .3-.2.4-.4.4h-8.7v-.7zm2.4 4.1h4l.8-1.3 1.8 1.6c.2.2.3.4.3.5 0 .2-.1.3-.3.4l-.5.3V48c0 .4-.9.8-1.5.8-.3 0-.4-.1-.4-.3v-1.8h-4.4v2.5c0 .3-.2.5-.5.6-.2.1-1 .3-1.2.3-.2 0-.3-.1-.3-.3V38.4l2.2 1.2zm-2-16h5.1l1.4-1.5 2 1.4c.2.1.3.4.3.5 0 .2-.1.4-.3.4h-8.4v-.8zm6.2 22.3v-5.5h-4.4v5.5h4.4zm5.6-4.8c.9 0 1.8.1 2 .1H28V36h-1.7c-1.1 0-1.9 0-3.9.1l-.4-1 2.3.1H28v-5.3h-2.2c-.9 0-1.7 0-3.9.1l-.4-1 2.3.1h6l2.7-6.9 2.3 1.3c.2.1.4.4.4.6 0 .3-.2.4-.4.5l-.5.1-3.3 4.4h3.5l1.6-1.9 2.2 1.8c.2.2.3.4.3.5 0 .2-.1.3-.2.3h-8v5.3h3.1l1.8-1.9 2.2 1.8c.2.2.3.3.3.5s-.2.4-.4.4h-6.9v5.2h4l2.2-2.2 2.4 2c.2.2.3.4.3.5 0 .2-.2.4-.3.4h-8.6V49c0 .4-.2.6-.6.9-.4.2-.8.4-1.1.4-.3 0-.4-.2-.4-.4V42h-2.5c-1.1 0-2 0-3.9.1l-.4-1h1.9zm0-18.8c2.7 1 4.1 2.5 4.1 4.4 0 .8-.7 1.5-1.5 1.5-.5 0-.8-.4-1-1.2-.3-2.1-.7-3.1-1.9-4.4l.3-.3zM17.2 57.4c0-.5-.1-.6-.4-.8-.6-.3-1.1-.4-2.3-.7.2-.4.3-.5.7-.7.5-.2 1.2-.4 1.7-.4.4 0 .9.2 2.1 1.1.9.6 1.1.8 1.1 1.1 0 .2-.1.4-.3.7-.4.5-.4.6-.5 1.3l-.5 9.3c-.1 1.2-.1 2.6-.1 3.7 0 1.6.2 2.5.8 3.2.7.8 1.9 1.3 3.5 1.3 3.9 0 8.4-2.1 12-5.8.6-.6.8-.8 1-.8.2 0 .4.2.4.4 0 .3-1.6 2.1-3 3.5-1.4 1.3-2.9 2.5-4 3.1-1.8 1-4.5 1.7-6.3 1.7-1.9 0-3.9-.8-4.9-1.9-.9-1-1.3-2.8-1.3-5.2V71l.3-13.6zM25.8 86.8l-.2-.1c.1-.4.7-.7 1.6-.7.4 0 1 .3 2 .9.8.5 1.8 1.7 1.8 2.2 0 .3-.3.6-.7.7-.8.2-1.8.8-4.3 2.5-2.1 1.4-2.1 1.4-7.1 5.1-.6.5-1 .8-1 1.1 0 .3.3.5 1.5 1.4 2 1.3 5.2 4 8.4 6.9 2.4 2.1 3.4 3.5 3.4 4.3 0 .8-.6 1.5-1.3 1.5-.5 0-.8-.3-1.7-1.6-2.5-3.5-6-7-9.8-9.8-2.4-1.7-2.6-1.8-2.6-2.4 0-.4.2-.7.6-1.2.3-.3.4-.4 4.9-4 1.3-1 3.1-2.5 5.2-4.3.9-.8 1.2-1 1.2-1.2 0-.3-.7-.8-1.9-1.3zM17.3 134.6v1.8c0 .4-.8.9-1.6.9-.3 0-.4-.2-.4-.4v-20.2l2.6 1.6H31l.9-1.5 2.2 2c.2.2.3.3.3.5s-.1.4-.4.4l-1 .3v16c0 .3-.1.4-.4.6-.3.2-.9.3-1.2.3-.3 0-.5-.2-.5-.5v-1.8h-3.2v7.5c0 .6 0 .6.2.7h2.3c5.9-.1 6-.1 6.3-1.8l.7-3.8.8.1-.1 4.2c0 .5.2.8.8 1 .4.1.5.2.5.5 0 .7-.5 1.1-1.6 1.3-1.2.2-1.2.2-6.6.3-4.8 0-5.1-.1-5.3-1.6v-8.4H23c-.7 5.1-2 7.5-5.1 9.1-1.3.6-3 1.2-5.5 1.7-1 .2-1.6.3-1.8.3s-.4-.1-.4-.3c0-.2.2-.3.5-.4 7.4-2.2 9.4-4.4 10-10.3h-3.4zm13.6-11.2v-4.3H17.4v4.3h13.5zm0 5.3v-4.4H17.4v4.4h13.5zm0 5.1v-4.4H17.4v4.4h13.5zM20.9 153.7c-.5.1-1.2.4-1.6.8-.2.1-.4.2-.5.2-.5 0-2.9-2.3-2.9-2.9 0-.2.1-.4.7-1 .9 1.2 1.7 1.6 2.7 1.6.2 0 .4 0 1.2-.2l5.6-.9c1-.2 1.1-.2 2.4-1.2 1.7 1.2 2.1 1.6 2.1 2.2 0 .3-.2.4-.7.6-.8.1-1.3.5-2.8 1.8l-6.5 6.5c2.9-1.1 4.1-1.3 5.8-1.3 4.6 0 7.9 2.9 7.9 7 0 2.6-1.2 4.7-3.7 6.3-1.8 1.2-4.1 1.9-6.2 1.9-3.6 0-6.2-1.8-6.2-4.1 0-1.5 1.5-2.6 3.6-2.6 1.1 0 2.2.4 3.2 1.1 1.1.9 1.6 1.8 2 3.7 3.3-1.1 5.1-3.4 5.1-6.4 0-3.5-2.4-5.7-6.1-5.7-2 0-3.9.6-5.7 1.8-1.6 1-2.4 1.8-5.3 5-.4.4-.6.5-.9.5-.6 0-1-.4-1-1 0-.8.1-.9.8-1.5.2-.2.9-.8 1.6-1.4.4-.4.9-.9 1.3-1.2.5-.5 1.1-1 1.1-1.1l9.1-9.9-6.1 1.4zm.6 15.9c-1.1 0-1.9.6-1.9 1.4 0 1.5 2.1 2.8 4.7 2.8.4 0 .4 0 .9-.1-.3-2.5-1.7-4.1-3.7-4.1zM15.5 210.1l8.4 8 8.7-8.1 1.5 1.5-10.2 9.5-9.9-9.5 1.5-1.4z"/></svg>
