<svg xmlns="http://www.w3.org/2000/svg" viewBox="0 0 23 461" width="23" height="461" style="enable-background:new 0 0 23 461" xml:space="preserve"><path d="M17.7 16.3H2.9l-2.5-.1.2.8c3.6-.1 3.8-.1 4.5-.1h16.5c.3 0 .5-.1.5-.3 0-.2-.1-.4-.3-.5l-2.3-1.9-1.8 2.1zM16 2H4.7l-2.2-.1.3.8c2.3-.1 3-.1 3.9-.1h13.1c.3 0 .4-.1.4-.4 0-.1-.1-.2-.2-.3L17.7 0 16 2zm-4.8 23.7C5.5 25.6.7 30.1.6 35.8c-.1 5.7 4.5 10.4 10.3 10.5 5.8.1 10.5-4.4 10.6-10.1V36c0-5.6-4.6-10.2-10.3-10.3zm-.3.9c5.3-.1 9.6 4.1 9.7 9.3.1 5.2-4.1 9.5-9.4 9.5-5.3.1-9.6-4.1-9.7-9.3V36c0-5.1 4.2-9.3 9.4-9.4zm6.8 44.9H2.9l-2.5-.1.3.8c3.6-.1 3.8-.1 4.5-.1h16.5c.3 0 .5-.1.5-.3 0-.2-.1-.4-.3-.5l-2.3-1.9-1.9 2.1zM16 57.2H4.7l-2.2-.1.3.8c2.3-.1 3-.1 3.9-.1h13.1c.3 0 .4-.1.4-.4 0-.1-.1-.2-.2-.3l-2.3-1.9-1.7 2zm1.7 41.9H2.9L.4 99l.3.8c3.6-.1 3.8-.1 4.5-.1h16.5c.3 0 .5-.1.5-.3 0-.2-.1-.4-.3-.5L19.6 97l-1.9 2.1zM16 84.8H4.7l-2.2-.1.3.8c2.3-.1 3-.1 3.9-.1h13.1c.3 0 .4-.1.4-.4 0-.1-.1-.2-.2-.3l-2.3-1.9-1.7 2zM4.8 122.2l-2.1-.1L0 122l.4.9 4.4-.1h6.3v6.7c0 .2.2.3.5.3.8 0 1.3-.3 1.3-.9v-6.1h9.6c.1 0 .2-.2.2-.3 0-.2-.1-.3-.2-.4l-2.1-1.6-1.6 1.7h-5.9v-4.8h6.8c.2 0 .3-.1.3-.3 0-.1-.1-.2-.1-.3l-2-1.5-1.4 1.5h-3.6v-4.3h8c.2 0 .3-.2.3-.4 0-.1-.1-.2-.2-.3l-1.9-1.5-1.6 1.6H6.3c.4-.7.9-1.4 1.2-2.2l.6-.2c.4-.1.5-.2.5-.4s-.1-.4-.3-.4l-2.2-1.1c-.9 3.2-2.4 6.3-4.6 8.9C.4 117.9.4 117.9.4 118c0 .1.1.2.2.2.5-.3 1-.7 1.4-1.1 1.5-1.3 2.9-2.9 3.9-4.6H11v4.3H6.9l-2.1-1.1v6.5zm1.6 0v-4.8H11v4.8H6.4zm-.1 18.5c-.2 6.8-1.8 11.2-5.6 15.2-.3.2-.5.4-.6.7 0 .1.1.2.2.2 1-.6 1.9-1.3 2.6-2.2 2.7-2.9 4.2-6.2 5.2-11.9l.8-.4c.2-.1.3-.3.3-.5s-.2-.4-.4-.5l-2.5-.6zm7-2.7H10c-1.1 0-1.7 0-3.3-.1l.2.7h6.7l.1 2.9c.1 5.5 2.6 10.8 6.8 14.4.7-.7 1.6-1.3 2.6-1.5-1.6-.9-3.1-2-4.3-3.3-1.1-1.1-2-2.4-2.6-3.8-1-2.1-1.5-4.4-1.5-6.7 0-.5 0-.9.1-1.4l1.1-.2c.3 0 .5-.2.6-.5-.1-.3-.3-.6-.6-.7l-1.6-1.3-1 1.5zm-7.6 26.2c.1 2.7.1 4 .1 6.2 0 5.8-.2 7.7-1 9.4-1 1.9-2.5 3.4-4.3 4.5-.2 0-.3.1-.3.3 0 .1.1.2.2.2.7-.2 1.5-.5 2.1-.9 1.9-.9 3.4-2.5 4.2-4.4.4-1.1.7-2.2.7-3.4h8.4v5.9c0 .2-.1.3-.4.3h-3.1v.3l2.8.8c.2.1.3.4.3.6 0 .4.1.5.4.5.3 0 .6-.1.9-.2.6-.2.9-.7 1-1.3v-16.2l.5-.2c.2 0 .3-.1.3-.3-.1-.3-.2-.5-.4-.7l-1.5-1.4-.9 1.1h-8l-2-1.1zm1.8 6.2v-4.5h8.4v4.5H7.5zm0 5.1V171h8.4v4.5H7.5zM.3 206.8l1.8 2c.1.1.2.2.3.2.2 0 .4-.1.4-.3l.3-.5 9.6-4.4-.1-.4-7.2 2.2v-11.4l.5-.3c.3-.1.4-.3.4-.6-.1-.2-.3-.4-.5-.4l-2-.3v13.5l-3.5.7zm16-15.3c.1 1.3.1 1.9.1 2.6 0 2.5-.2 5.1-.5 7.6-.4 2.7-1.9 5.2-4.1 6.8-1.9 1.3-4.1 2.2-6.3 2.8-1 .3-1 .3-1 .5 0 .1.1.3.2.3s.3-.1 1.3-.3c2.3-.4 4.5-1.2 6.5-2.3 1.5-.8 2.7-1.9 3.7-3.3 1.6 1.1 2.2 1.8 3.8 4.4.1.4.5.8 1 .8.5-.1.9-.6.9-1.1-.1-.9-.6-1.8-1.3-2.3-1.2-1-2.5-1.8-3.9-2.4 1-1.8 1.4-4.1 1.7-8.2l.1-2.6c0-.2 0-.8.1-1.4l.6-.4c.2-.1.4-.3.4-.5s-.2-.4-.4-.5l-2.9-.5zm-8.6 1.3c1.2.9 2.1 2.2 2.4 3.7.1.5.2 1 .4 1.5.1.2.4.4.7.4.6 0 1.1-.6 1.1-1.2 0-1.8-1.9-3.7-4.4-4.6l-.2.2zm-6.3 26.1v20.8c0 .2.1.4.3.4l.9-.3c.2 0 .3-.2.3-.4v-18.8h3.4c-.6 1.8-1.3 3.6-2.1 5.4 1.7 1.9 2.4 3.3 2.4 5.1 0 1.5-.5 2.1-1.8 2.1-.3 0-.6-.1-1.1-.1v.2l1.2.6c.1.1.3.2.3.3.1.8.1.9.5.9s.8-.2 1.1-.5c.9-.8 1.4-1.9 1.3-3.1 0-1.9-1-3.8-3.3-5.7 1.5-2 2.1-2.8 3-4.3l.6-.1c.2 0 .4-.2.4-.4 0-.1-.1-.2-.1-.3L7 219l-.7 1H3.4l-2-1.1zm11.6-.5c-1.2 2.8-2.9 5.4-5 7.7-.7.7-.7.7-.7.8 0 .1.1.2.2.2.5-.2 1-.5 1.3-.9 1.1-.9 2-1.8 2.9-2.9.6.8 1.3 1.6 2 2.2-1.3 1.3-2.8 2.4-4.4 3.4-1 .5-1 .5-1 .7 0 .1.1.1.2.1.7-.1 1.4-.4 2-.8 1.5-.7 2.8-1.6 4.1-2.6 2 1.4 4.2 2.5 6.6 3.1.5-.6 1.1-1.2 1.7-1.6-3.8-.7-5.6-1.2-7.4-2.3 1.1-.9 2.1-1.8 3.1-2.8h.7c.4 0 .6-.1.6-.3 0-.1-.1-.3-.2-.4l-1.4-1.5-.9.8h-4.3c.4-.5.4-.6.8-1.1l.6-.1c.2 0 .4-.2.4-.4s-.1-.3-.2-.4l-1.7-.9zm4.2 3.5c-.9 1-1.8 2-2.9 2.9-.9-.6-1.6-1.2-2.3-2l.4-.5.3-.4h4.5zM10.8 235c-.9-.1-1.9-.1-2.8-.1l.3.7h1.3c.4 0 .8 0 1.2-.1H15v4.4c0 .1.1.3.2.3h.1c.5.1.9-.1 1.2-.5v-4.2h5.8c.1 0 .3-.1.3-.3 0-.2-.1-.3-.2-.4l-1.7-1.4-1.5 1.6h-2.6v-3.6h3.9c.1-.1.2-.2.1-.3 0-.1 0-.2-.1-.3l-1.6-1.2-1.2 1.2h-1.2v-1.2l.5-.4c.1 0 .3-.2.3-.3 0-.2-.1-.4-.3-.4l-1.9-.2v2.5h-2.9c-.5 0-1 0-1.5-.1H8.8l.2.7h1.7l.1 3.6zm1.4 0v-3.6H15v3.6h-2.8zm5.9 18.5c-.2.1-.5.1-.7.1H15l-.1-3.3v-.3c0-.2.1-.5.2-.6.2-.1.3-.3.3-.5 0-.4-.2-.6-1.3-1-.3-.1-.7-.2-1-.4-.1 0-.2-.1-.3-.1-.4.2-.8.5-1.1.8.2 0 .4.1.5.2 1.1.5 1.1.6 1.2 1v4.3c-2.7.2-3.6.3-4.9.5V251l.2-.2c.2-.1.4-.4.4-.6-.3-.5-.8-.8-1.4-.9-.4-.2-.9-.4-1.4-.4-.2 0-.3.1-1 .8 1.3.4 1.6.5 1.6.7.1.4.1.7.1 1.1v2.8c-.4 0-.8.1-1.1.2-.9.1-1.7.2-2.3.2-.7 0-.8-.1-1.8-1.2l.2-.1c-.2.3-.4.6-.5.9.2.4.6.9.9 1.2.3.4.7.8 1.1 1 .1 0 .2 0 .2-.1 1.1-.5 2.3-.8 3.5-1v3.2c0 .3-.1.6-.2.9-.1.2-.1.3-.1.5.2.5.6.9 1.2 1 .3 0 .5-.2.5-.7l-.1-5.2c2.6-.2 3.4-.3 4.9-.4 0 5.6-1.5 8.4-6.1 11.3-.5.3-.6.3-.6.5 0 .1.1.2.2.2.6-.2 1.2-.5 1.8-.8 2.7-1.2 4.7-3.5 5.6-6.2.4-1.2.5-1.7.6-5.1 1.5 0 3 .1 4.5.4.4.1.9.2 1.3.2.2 0 .4-.2.4-.4 0-.6-.4-.9-2.2-1.8l-.8.5zm-6.2 24.2c.2-.1.4-.3.5-.6 0-.4-1.8-1.6-2.4-1.6-.4 0-.8.3-1 .6 1.1.4 1.3.6 1.3 1.6v12c.1.8 0 1.7-.1 2.5-.1.2-.1.3-.1.5.1.6.6 1 1.2 1 .4 0 .7-.5.7-1.3V290.7l-.1-13zm2.7 26.7c.9.5 1.5 1.2 2 2.1.3.6.5.7.8.7.4 0 .7-.3.7-.7-.1-.8-.7-1.5-1.5-1.8-.6-.3-1.2-.5-1.9-.6l-.1.3zm2-1.6c.9.4 1.7.9 2.2 1.7.6.8.7.8 1.1.8.3 0 .6-.2.6-.5v-.1c0-1.2-1.5-2.2-3.2-2.2-.2 0-.4 0-.6.1l-.1.2zm-9.4 9c2.8-.6 5.6-1.3 8.4-2.2 1.3-.4 1.3-.4 1.3-.7s-.2-.5-.9-1.2c-1-.9-1-.9-1.3-.9-.4 0-.7.1-1 .3.4.2.8.6 1 1 0 .4-2.1 1.2-7.4 2.9l.1-4.5c0-.3.2-.5.4-.6.2-.1.3-.2.3-.4-.1-.4-.4-.7-.8-.8-.6-.4-1.2-.7-1.9-.9-.5.1-.9.3-1.2.7 1.4.6 1.5.7 1.5 1v10.7c0 1.8.3 2.7 1.2 3.1.6.4 2.4.6 4.9.6 1.6 0 4.6-.2 5-.2.4 0 .8-.4.8-.8 0-.3-.1-.5-.3-.6-.2-.2-.5-.3-.7-.4-.2 0-.4.1-.6.2-1.6.4-3.2.5-4.8.4-3.8 0-4.1-.2-4.1-1.7l.1-5zm8.5 20.9-.8.7-8.2 1.2h-.6c-.6-.1-1.1-.6-1.3-1.1-.3.2-.5.5-.5.9 0 .3.3.7 1.1 1.6.2.2.4.4.7.5.3 0 .5-.1.7-.3.3-.2.6-.3.9-.4 1.1-.2 1.5-.3 2.5-.5 1.5-.4 3-.6 4.6-.8-3.5 6.3-6.4 9.5-12 12.9-.7.3-.8.4-.8.6 0 .1.1.2.2.2.8-.2 1.5-.5 2.2-.9 3-1.6 5.6-3.8 7.8-6.4 2.3 1.4 4.3 3.2 5.9 5.4.2.5.6.8 1.1.9.5 0 .8-.4.8-.9 0-1.7-2.8-3.9-7.4-5.9 1.4-1.7 2.6-3.5 3.8-5.3l.6-.1c.3 0 .5-.1.5-.4-.1-.3-.2-.5-.4-.7l-1.4-1.2zM1.2 356.8v21.1c0 .2.1.3.3.3h.1c.3 0 .6-.1.9-.2.3-.1.4-.3.4-.6v-13.6h5.6v.9c0 .2.2.4.4.4.3 0 .6-.1.8-.3.2 0 .4-.3.4-.5v-5.4l.3-.2c.1-.1.2-.1.2-.2s-.1-.2-.1-.2L9 356.9l-.6.9h-5l-2.2-1zm1.7 6.5v-2.2h5.6v2.2H2.9zm0-2.8v-2.1h5.6v2.1H2.9zm5.5 9.6h-3l-1.6-.1.2.8c1.5-.1 2.2-.1 3-.1h1.4c-.1 3-1.2 4.7-4.2 6.3-.2 0-.3.1-.3.3 0 .1.1.2.3.2.9-.3 1.8-.7 2.6-1.2 2.3-1.4 2.9-2.5 3.2-5.6h2.8v6.4c0 .2.1.3.3.3.3 0 .5-.1.8-.2.2-.1.4-.3.4-.5v-6H19c.1 0 .3-.1.3-.2v-.1c0-.1 0-.2-.1-.3l-1.8-1.4-1.2 1.4h-1.9v-3h3.6c.1 0 .3-.1.2-.3 0-.2-.1-.3-.3-.4l-1.6-1.1-1 1.2H4.7l.3.7 1.9-.1h1.6l-.1 3zm1.5 0v-3h2.7v3H9.9zm2.7-13.3v7.7c0 .2.1.5.3.5h.1c.5.1.9-.2 1.1-.6v-.6h5.5v11.3c0 .8-.1.9-.7.9h-.1l-2.3-.1-.1.4 2.1.7c.3.1.5.3.4.6 0 .3.1.4.3.4.3 0 .6-.1.9-.3.7-.2 1.1-.8 1-1.5v-17.1l.4-.2c.1 0 .2-.1.2-.2 0-.2-.1-.3-.2-.4l-1.6-1.5-.7 1h-5l-1.6-1zm1.5 6.5v-2.2h5.5v2.2h-5.5zm0-2.8v-2.1h5.5v2.1h-5.5zM.4 391.2c.9-.1 1.8-.1 2.7-.1-.4 3-1 6-1.8 8.9 0 .1-.1.3-.1.4.3.3.7.5 1.1.4.4 0 .5-.2.9-2.1.6.3 1.2.7 1.8 1.2-1 2.2-2.4 4.1-4.3 5.6-.1 0-.2.1-.2.2s.1.2.2.2c1-.4 1.9-1 2.7-1.7 1.1-.9 2-2.1 2.7-3.3.6.5 1.1 1.2 1.5 1.8.2.3.5.5.8.5.5-.1.8-.5.8-.9 0-.9-.8-1.8-2.4-2.8 1.1-2.4 1.7-4.9 1.9-7.5l.4-.2c.2 0 .4-.2.4-.4s-.1-.3-.2-.4l-1.5-1.4-.8.9H4.7c.3-2 .4-2.3.7-4.6l.6-.3c.2-.1.4-.3.4-.5 0-.3-.2-.6-.5-.6l-1.9-.3c-.4 3.2-.5 4-.8 6.3-1.3 0-1.5 0-3-.1l.2.8zm6.7-.1c-.1 2.7-.6 5.3-1.6 7.8-.9-.3-1.1-.4-2.1-.7.7-3.3.9-4.4 1.3-7.1h2.4zm2.7 3.7c0 .2.2.4.5.4.2 0 .4-.1.5-.3l.4-.5c3.2-.3 4.2-.5 8.6-1.2.3.5.6 1 .8 1.5.1.4.5.7.9.8.5-.1.9-.5.9-1 0-1.9-2.8-4.3-5.8-5.1l-.1.4c1.1.7 2.1 1.6 2.9 2.7-3.6.3-4.1.4-6.6.5 1.4-2.9 1.9-4.1 3-6.7l.5-.1c.3 0 .6-.3.5-.6 0-.3-.2-.5-.5-.5l-2-.8c-.4 1.6-.9 3.2-1 3.7l-.8 2.6-.7 2.4h-1.1c-.6 0-1.2 0-1.9.1l1 1.7zm1.3 1.1v9.5c0 .2.2.4.4.4.3 0 .6-.1.9-.3.3-.1.4-.3.4-.6v-.8H19v1c0 .2.2.3.5.3.5.1 1-.2 1.1-.7V398.3l.5-.1c.3 0 .4-.3.5-.5 0-.2-.1-.4-.2-.5l-1.7-1.3-.7 1h-6l-1.9-1zm1.6 7.6v-6H19v6h-6.3zM7 416c1.8 1 3.1 2.6 3.8 4.5H5.3c-1.6 0-3.2 0-4.8-.2l.3.8h9.6v9.4c0 .4-.1.5-.7.5h-3l-.1.4 2.9.7c.2.1.3.2.3.6-.1.3.1.5.4.6h.1c.4-.1.7-.2 1-.4.7-.2 1-.9.9-1.6v-10.2H19c-1.3 1.5-2.7 2.9-4.2 4.2l.2.4c1.9-1 3.7-2.2 5.4-3.5h1c.3.1.6-.1.7-.4v-.1l-.3-.6-1.9-1.8-1 1.2H12c.3-.2.4-.5.4-.8-.1-.5-.2-.9-.5-1.3 2.2-1.5 3.1-2 4.8-3.3h.9c.5 0 .7-.1.7-.4-.1-.3-.2-.5-.5-.7l-1.6-1.5-1.1 1.1H7.9c-1.8 0-2.5 0-4.8-.1l.3.8c2.1-.1 3-.1 4.5-.1h7.2c-1.6 1.8-2.2 2.4-3.5 3.8-1.2-1.2-2.8-2-4.5-2.3l-.1.3zm-2.3 34c-.4 4.6-1.8 8-4.4 10.7-.1 0-.1.1-.1.2 0 0 .1.1.2.1h.2c1-.7 2-1.5 2.8-2.5.9-1.2 1.7-2.5 2.2-3.9.6 1.2 1.4 2.2 2.3 3.1 1.7 1.4 3.7 2.2 5.9 2.4 1.2.1 3.7.2 5.5.2h1.4c.1-.3.3-.5.3-.6.1-.1.3-.4.7-.8.2-.2.3-.4.5-.6-2.4.2-3.8.2-5.9.2-1.4 0-2.8 0-4.2-.2v-5h7.4c.2 0 .3-.1.4-.2v-.1c0-.2-.1-.3-.2-.4l-1.8-1.4-1.4 1.5H12v-4.8h6.4c.2-.1.3-.2.2-.4 0-.2-.1-.3-.2-.4l-1.7-1.3-1.4 1.5H8.2c-1.8 0-2.5 0-4.8-.1l.5.8c2-.1 2.6-.1 4.3-.1h2v9.8c-1.9-.7-2.9-1.6-4.5-3.8.2-.7.4-1.3.6-2l.5-.3c.2-.1.3-.3.4-.5 0-.2-.2-.4-.4-.5l-2.1-.6zm-1.9-8.6v.3c0 1.2-.5 2.3-1.4 3.1-.4.2-.7.6-.8 1.1 0 .5.5.9 1 .9.9-.1 1.6-.7 1.8-1.6.2-.6.3-1.3.2-2h15.1l-1 2.5.3.2 2.1-1.3h1.1c.7-.1.7-.1.7-.5 0-.1-.1-.3-.2-.4l-2.3-2.1-1 1H12V441l.7-.5c.2-.1.3-.2.3-.4s-.1-.4-.3-.4h-.1l-2.3-.3v3.2H3.5c0-.5-.2-.9-.4-1.3l-.3.1z" style="fill-rule:evenodd;clip-rule:evenodd;fill:#99b3d2"/></svg>
