<svg version="1.1" xmlns="http://www.w3.org/2000/svg" x="0" y="0" viewBox="0 0 255 154" width="255" height="154" style="enable-background:new 0 0 255 154" xml:space="preserve"><style>.st0{fill:#231815}</style><path class="st0" d="M135.4 117.5c1 0 2.6-.6 4-1.1.5-.2.9-.3 1.3-.5.2-.1.3-.1.4-.1 0 .1-.1.1-.2.3-.2.3-.5.6-.8.9-1.4 1.6-3.4 3.9-3.4 6.7 0 2.2 1.3 4.6 4.9 4.7h.4c3.9 0 6.7-2.8 7.7-7.8.6 2.4 1.7 4.2 3.5 5.6.8.6 1.7.9 2.4.8.4-.1.6-.2.8-.5.2-.2.2-.5.1-.7-.1-.5-.7-1-1.7-1.6-2.4-1.3-3.7-3.6-3.7-6.3 0-1.6.3-2.8.6-3.6.1-.5.3-.9.3-1.3 0-.9-.5-1.5-1.3-1.5-.9 0-1.1.8-1.2 1.5-.1.6-.1 1.8-.1 3.1-.5 4.6-1.7 7.7-3.6 9.3-1.1.9-2.4 1.2-3.9 1.1-1.9-.2-3-1.4-3-3 0-2.9 2.6-5.3 3.7-6.4.1-.1.2-.2.3-.2.4-.4.9-.7 1.3-1 .6-.4 1.1-.8 1.1-1.2 0-.3-.2-.6-.6-.8-.5-.3-1.2-.5-1.7-.3-.2.1-.4.2-.7.4-.3.2-.7.4-1.1.6-1.6.7-3.4 1.1-5.1 1.1-.5 0-1.2-.1-2-.4-.3-.1-.6-.1-.7 0-.1.1-.2.3-.1.6 0 .6.9 1.6 2.1 1.6zM153.8 135c-.3 0-.6.1-.6.4-.1.2 0 .4.3.6.6.3 1.4.9 2 1.4.5.5.8.7 1.3.7.6 0 1-.4 1-1 0-1.3-2.4-2.1-4-2.1zM151.6 137c-.3 0-.5.1-.6.3-.1.2 0 .4.2.6l.3.2c.5.4 1 .8 1.4 1.2l.4.4c.4.4.6.7 1.2.7.5 0 1.1-.3 1.1-1-.2-1.2-2.2-2.3-4-2.4zM147.7 139.6c-3 0-5.8 1.3-8.2 2.4-.7.3-1.3.6-1.8.8-.2.1-1.1.4-1.8.4-.5 0-1-.5-1.3-1l-.3-.3c-.2-.2-.4-.2-.6-.2-.2.1-.4.2-.4.4-.1.4-.1.9.1 1.4.3 1.1 1.5 2 2.8 2.1 1.1 0 3.2-1.2 4.4-1.9.1-.1.3-.2.5-.3 1.4-.9 4.1-2.5 6.8-2.5 3.2 0 4.7 2 4.7 3.8 0 3.9-5.8 6.6-11.4 6.9-.6 0-.8.3-.8.5s.2.5.8.5c7.6-.2 13.9-3.6 13.9-7.7-.2-2.9-3.3-5.3-7.4-5.3zM100 122.5c0 2 1.1 4.1 3 4.1 1.6 0 4-1.7 5.6-3.4.5.2 1 .3 1.3.3.5 0 .9-.3.9-.8 0-.4-.4-.9-.8-1.2 1.2-1.7 2.2-3.5 2.9-5.3 2.6.7 4.1 2.5 4.1 5 0 2.8-3.1 5.2-8 6.1-.5.1-.7.4-.7.6 0 .2.3.4.7.4h.1c4-.2 6.4-1.4 7.7-2.5 1.6-1.3 2.6-2.9 2.6-4.4 0-3.4-2.2-5.8-6-6.6.4-1.2.7-2.5.7-2.9 0-.7-1.6-1.4-2.8-1.4-.4 0-.8 0-1.3.2-.2.1-.3.3-.3.4 0 .1.1.3.3.5.2.1.3.2.5.2.2.1.5.2.7.4.3.3.5.4.4.9 0 .5-.1 1.1-.2 1.6h-.5c-.7 0-3.4.1-5.9 1.4l-.1-.2c-.3-.9-.6-1.9-1.1-2.6-.4-.5-1.2-.9-1.9-1-.5-.1-.7 0-.8.2-.1.1-.1.3.1.6 1.3 1.3 1.6 2.6 2 4v.1c-1.9 1.3-3.2 3.4-3.2 5.3zm5.3-5.1c1.6-1 3.3-1.5 5-1.5h.5c-.5 1.6-1.4 3.2-2.5 4.7-.6-.3-1.1-.7-1.5-1.1-.6-.6-1.1-1.3-1.5-2.1zm-3.3 4.5c0-1.1.7-2.3 1.8-3.3.4.8 1 1.7 1.5 2.2.6.6 1.1 1.1 1.6 1.4-1.1 1-2.6 2.1-3.5 2.1-.7 0-1.4-.9-1.4-2.4zM114.6 138.9c-.7-2.5-1.9-3.8-3.5-3.8-2.3 0-4 3.5-4.3 7-.7.6-1.3 1.2-2 2-.3.3-.5.6-.8.9-.7.9-1.5 1.8-1.8 1.8-.4 0-1-.6-1-1.6s.5-1.8 1-2.7c.4-.8.8-1.5.8-2.2 0-1.4-1-2.7-2.8-3.6-.4-.2-.7-.2-.9 0-.2.2-.1.4 0 .7.1.1.2.3.3.4.5.7 1 1.4 1 2.2 0 .8-.3 1.7-.5 2.6-.3.9-.6 1.9-.6 2.9 0 2.4 1.6 4.2 3 4.2.9 0 1.2-.6 1.8-1.7.2-.3.4-.7.6-1.1.6-1 1.2-1.9 1.9-2.6.2 3.1 1.6 4.8 4.2 5.3-1.1 1.4-2.7 2.4-4.8 3.3-.5.2-.7.6-.6.8.1.2.3.4.6.4.1 0 .2 0 .4-.1 3.1-.8 5.3-2.2 6.7-4.2 5.4-.1 7.9-2.9 7.9-5.7-.1-3-2.9-5.2-6.6-5.2zm4.2 5c0 2.1-1.7 3.5-4.6 3.8.5-1.4.8-2.9.8-4.7 0-1-.1-1.9-.2-2.7 2.5.1 4 1.5 4 3.6zm-10.1-3.3c.3-2 1.3-4.2 2.3-4.2.9 0 1.3 1.4 1.6 2.7-1.4.3-2.7.8-3.9 1.5zm4.2 2.6c0 1.7-.3 3.2-.9 4.5-2.8-.3-3.4-1.9-3.4-5.3 1.3-1 2.7-1.7 4.1-2 .1 1 .2 1.9.2 2.8zM210.6 43.9c.3.4 1.1 1.5 1.6 2.4 24.3-1.9 42.9-13 42.9-26.3 0-8-6.7-15.2-17.3-20 6.2 4.4 9.8 9.8 9.8 15.7 0 12.5-16.5 23-38.7 25.8-1.2.2-2.5.3-3.7.4-2.6.2-5.3.3-8.1.3-8 0-15.2-1-21.9-2.7-1-.3-2.4-.2-3.4.2-.2.1-.2.3 0 .4 8.8 4 20.3 6.4 32.8 6.4.6 0 1.1.2 1.4.5.3.3.3.9.3 1.3-.6 7.6-8.7 14.2-20.5 18-2.8.9-5.9 1.6-9.1 2.2-4.1.7-8.4 1.1-12.9 1.1-6.1 0-11.7-.8-17-2-1-.2-2.1-.1-3.1.3-.2.1-.2.4 0 .5 7.3 3 16.4 4.8 26.4 4.8 1 0 2 0 3-.1.7 0 1.2.8.8 1.4-8.1 11.8-29.7 20.3-55 20.3-3 0-6-.1-8.8-.4-20.6-1.9-35.8-9.7-39.6-21.4-.2-.6.4-1.2 1-1.1 4.3.8 8.9 1.2 13.8 1.2 10 0 19.2-1.8 26.4-4.9.2-.1.2-.4 0-.5-1-.4-2.1-.6-3.1-.3-5.2 1.2-10.9 2-17 2-22.7 0-41.2-9.3-42.5-21.1 0-.4-.1-1 .2-1.4.3-.4.8-.5 1.4-.5 12.5 0 23.9-2.4 32.7-6.3.3-.1.2-.5 0-.6-1-.3-2.2-.4-3.2-.2-6.8 1.8-13.9 2.8-22 2.8-2.7 0-5.4-.1-8-.3-1.3-.1-2.5-.2-3.7-.4-22.4-2.6-39-13.1-39-25.7 0-5.9 3.7-11.3 9.8-15.7C6.7 4.9 0 12 0 20c0 13.3 18.6 24.3 42.9 26.3.4-.9 1.2-2 1.6-2.4l.4-.4c0 .1-.3.4-.3.4-.6.9-1.1 2.1-1.3 2.5-.6 1.4-.8 2.9-.8 4.4 0 9.4 11 17.4 26.6 20.7 2.4 15.9 27.7 28.4 58.4 28.4s55.9-12.5 58.4-28.3c0-.4.2-1.8.2-2.8v-.5c0-.1.1.3.2.6.1.4.2 1.7.1 2.6 15.4-3.4 26.2-11.3 26.2-20.6 0-1.5-.3-3-.8-4.5-.2-.4-.7-1.6-1.3-2.5 0 0-.2-.3-.3-.4l.4.4z"/></svg>
