<svg xmlns="http://www.w3.org/2000/svg" viewBox="0 0 35 210" width="35" height="210" style="enable-background:new 0 0 35 210" xml:space="preserve"><path d="m18.3 19.3-1.1.2c-2.3.3-2.5.3-4.1.6h-.5c-.5-.1-.9-.4-1.1-.8-.2.2-.3.5-.3.8.1.3.3.5.6.7.2.2.5.4.8.5.1 0 .1 0 .2-.1.7-.3 1.4-.6 2.2-.6 1.1-.3 2.2-.4 3.2-.5v1.7c-.2-.2-.5-.3-.8-.3-1.3.1-2.3 1.2-2.2 2.5-.1.9.6 1.7 1.5 1.8h.2c.5 0 1-.2 1.4-.6-.1 1.6-1 3.1-2.3 4.1-.1.1-.3.2-.3.3 0 .1.1.1.1.1.5-.2 1-.5 1.5-.9 1.4-1 2.2-2.7 2.2-4.4 0-.7-.1-1.3-.3-2l.1-2.5c.9-.1 1.8-.1 2.7-.1.9 0 1.9.1 2.8.3h.2c.2 0 .3-.2.3-.3-.1-.3-.3-.5-.5-.7-.2-.2-.5-.4-.8-.5-.1 0-.1 0-.2.1s-.3.2-.5.2h-.4c-1 0-1.7.1-3.6.2v-1.3c-.1-.3 0-.6.2-.8.1-.1.2-.2.2-.4 0-.1 0-.1-.5-.4-.5-.3-1-.5-1.5-.6-.4 0-.7.2-.9.5 1.4.4 1.6.4 1.6 1l-.1 2.2zm-.9 2.8c.6 0 1 .5 1 1.1v.1c.1.8-.4 1.6-1.3 1.8-.7 0-1.2-.6-1.2-1.3v-.1c.1-.8.7-1.5 1.5-1.6zm2 14.7c.6.4 1 .9 1.3 1.6.2.4.3.5.5.5.3 0 .5-.2.5-.5 0-.7-1-1.5-2.3-1.7v.1zm1.6-.9c.7.4 1.3 1 1.7 1.7.1.1.2.2.3.2.3 0 .5-.2.5-.5v-.1c0-.8-1-1.4-2.4-1.6l-.1.3zm-5.6 4.2c.3-.4.7-.7 1.2-.8.5.1.9.3 1.2.6l5.9 4c.3.2.7.4 1 .5.3 0 .5-.3.5-.6 0-.5-.3-.8-1.7-1.4-1.8-.9-3.5-1.9-5.2-3-.5-.4-1.1-.7-1.8-.8-.6.1-1.2.4-1.6.9L13 41.3c-.1.2-.4.3-.6.4-.4-.2-.8-.5-1-.9-.2.2-.3.4-.4.6.4.8 1.2 1.3 2 1.6.2 0 .2-.1.3-.4 0-.2.1-.3.2-.4l1.9-2.1zm-2.1 16.2h-.2c-.2 0-.4-.1-1.1-.8-.1.1-.1.2-.2.3-.1.1-.1.3-.1.4.1.2.3.4.5.6.3.3.6.6 1.1.8.1 0 .3-.1.4-.2.4-.4 2.7-1 5-1.4-1.3 1.2-2 2.8-2.1 4.5 0 1.9 1.1 3.7 2.9 4.3.7.3 1.5.5 2.2.5.3.1.7-.1.8-.5v-.2c0-.5-.2-.6-.9-.7-.7 0-1.4-.2-2.1-.5-1.4-.6-2.3-1.9-2.2-3.4 0-1.1.5-2.2 1.3-3 .7-.8 1.6-1.4 2.7-1.6.3 0 1.7-.2 1.8-.2H24c.2 0 .5-.2.5-.4-.1-.2-.2-.4-.5-.5-.4-.2-.8-.4-1.2-.4-.2 0-.4.1-.5.3 0 .1-.1.1-.2.1H22l-8.7 2zM18 73.8c1.3-.2 2.7.2 3.7 1 .9.7 1.4 1.8 1.4 2.9 0 1.8-1.1 3.5-2.7 4.2-.7.4-1.5.7-2.3.9-.1.2-.2.2-.2.3 0 .1.1.2.2.2.2 0 .5-.1.7-.1 1.1-.3 2.2-.7 3.1-1.2 1.5-.7 2.4-2.2 2.5-3.9 0-2.6-2.5-4.8-5.6-4.8-1.8 0-3.6.7-4.9 2-1.1 1.1-1.8 2.5-1.9 4.1 0 .7.2 1.3.5 1.8.3.4.6.7 1 1.1.2.2.4.4.7.4.4 0 .6-.1 1.2-1 1-1.6 1.9-3.4 2.6-5.2.1-.6.4-1.1.7-1.6 0 0 .1-.1.1-.2-.2-.4-.4-.7-.8-.9zm-1.1.3c.1 0 .2 0 .2.1.2.1.3.2.3.4-.1.6-.3 1.2-.5 1.8-.4 1.5-1.1 2.9-1.8 4.2-.2.4-.5.8-1 .9-.3 0-.5-.2-.7-.5-.3-.5-.4-1.1-.4-1.8 0-1.3.4-2.6 1.4-3.6.7-.7 1.5-1.2 2.5-1.5zm-5.7 18.6h6.3c.1 0 .1-.1.1-.2s-.1-.3-.2-.3l-1.1-.8-.9 1h-2.3c-.8 0-1.1 0-2.2-.1l.3.4zm.7-2h4.8c.1 0 .2 0 .3-.2v-.1c0-.1-.1-.2-.2-.3l-1.1-.8-.8.9h-3v.5zm0 6h4.7c.2 0 .3 0 .3-.2 0-.1-.1-.2-.2-.2l-1.1-.8-.7.9h-3v.3zm0-2h4.7c.1 0 .3-.1.3-.2v-.1c0-.1-.1-.2-.2-.2l-1-.7-.7.8h-3.1v.4zm.1 3v5.8c0 .1.1.2.2.2.3 0 .6-.1.7-.4v-1.5h2.4v1.2c0 .1.1.1.2.1.3 0 .6-.1.7-.4v-3.6l.2-.1c.1 0 .2-.1.2-.2s0-.2-.1-.2l-.9-1-.4.7h-2.1l-1.1-.6zm1 3.8v-2.8h2.4v2.8H13zm5.2-10.4c1.6-.1 1.6-.1 2-.1H23v4.8h-3.4l-1.3-.7v6.6c-.1.5.1 1 .5 1.2.8.2 1.6.3 2.5.2 3.5 0 4.3-.2 4.3-.9 0-.2-.1-.2-.3-.3-.1 0-.2-.1-.2-.1-.1-.2-.1-.4-.1-.6v-2h-.3l-.4 2.1c0 .4-.3.7-.7.7-.5.1-1.4.1-2.3.1-1.8 0-1.8 0-1.8-.5v-5.4H23v1.2c0 .1.1.2.2.2.3 0 .6-.1.8-.4v-5.6l.2-.1c.1 0 .2-.1.2-.2s-.1-.2-.1-.3l-1-1.1-.6.7H20c-.7 0-1.1 0-2.2-.1l.4.6zm-7.1 26.1c1.7-.1 2.3-.1 3-.1h3.5v1.4h-2.2c-.8 0-1.3 0-2.8-.1l.2.5c1.3-.1 1.9-.1 2.6-.1h2.2v1.6c0 .2-.1.2-.3.2h-.4l-1.5-.1v.3l1.3.3c.2 0 .3.1.4.1 0 .1.1.2 0 .3 0 .3.1.4.3.4.6 0 1.1-.4 1.2-1v-2.2H22v.8c0 .1.1.2.2.2.3.1.7-.1.8-.5v-2.3h2.4c.1 0 .1-.1.1-.1 0-.1-.1-.2-.1-.3l-1-1-.8 1H23v-1.1l.2-.1c.1 0 .2-.1.2-.2s-.1-.2-.2-.3l-.8-.7-.4.6h-3.4v-1.4h3.1v.4c0 .1.1.2.2.2.3 0 .6-.1.7-.4v-1.7l.2-.1c.1 0 .2-.1.2-.2s-.1-.2-.1-.3l-.9-.7-.4.6h-3v-1.3h6.5c.1 0 .2-.1.2-.2s-.1-.2-.1-.2l-1.2-1-.9 1h-4.4v-1.1l.4-.2c.1-.1.2-.1.2-.3 0-.2-.1-.3-.3-.3l-1.3-.1v2h-3.5c-.8 0-1.4 0-3.1-.1l.2.6c1.8-.1 2.3-.1 2.9-.1h3.5v1.3h-2.9l-1.1-.6v3.3c0 .1.1.2.3.2.3.1.6-.1.7-.5v-.3h3v1.4h-2.1c-.8 0-1.4 0-2.8-.1l.2.5c1.3-.1 1.9-.1 2.6-.1h2.1v1.4H14c-.8 0-1.5 0-3.2-.1l.3 1zm3.4-4v-1.4h3v1.4h-3zm4.1 5.3v-1.4H22v1.4h-3.4zm0-1.8v-1.4H22v1.4h-3.4zm0-3.5v-1.4h3.1v1.4h-3.1zm-2.1 16.1c-.4 0-.6.1-.9.1-1.4 0-1.8-.1-2.4-.8-.2.1-.3.2-.3.2.1.3.3.6.5.8.2.4.6.6 1 .6s1.1 0 1.7-.1l-1.8 2.7c-.3.4-.6.8-1 1.1-.2.1-.4.2-.5.4-.2.2-.2.4-.2.7-.1.3.1.5.4.6h.1c.3 0 .5-.2.7-.4l.9-1.1c.3-.4.7-.7 1.1-.9.5-.4 1.1-.6 1.7-.7.3 0 .6.1.8.4.2.4.3.8.2 1.2-.7.4-1.4.8-2 1.3-1.1.8-1.5 1.4-1.5 2.2 0 1.5 1.4 2.2 4.2 2.2.8 0 2.4-.1 3.2-.2.4.1.8-.2 1-.6 0-.4-.3-.7-.7-.8-.1 0-.2 0-.3.1-1.2.3-2.5.5-3.7.5-2.1 0-2.9-.3-2.9-1.3 0-.5.4-1.1 1.4-1.7.5-.3 1-.6 1.6-.9l-.1 1.9c.1.4.1.5.3.5.2 0 .4-.1.5-.2.2-.1.2-.3.2-.5v-2.1c1.5-.6 3-1.2 4.5-1.6.6-.2.6-.2.8-.2.2-.1.3-.2.3-.4-.1-.5-.5-.9-1-1-.3-.2-.7-.3-1-.4-.2 0-.4.2-.6.3.8.3 1 .4 1 .5-.1.1-.2.2-.4.3l-3.7 1.7c0-.3-.1-.6-.2-.8-.3-.5-.8-.8-1.4-.8-.8 0-1.5.2-2.2.6l-.3.1 1.9-2.6h.3c3.1-.4 3.5-.5 3.5-1-.1-.4-.5-.7-.9-.6-.1 0-.2 0-.2.1-.3.3-.8.4-1.2.5-.2.1-.3.1-.5.1-.1 0-.2 0-.3.1l.7-.9.2-.2.2-.2c.1-.1.1-.2.1-.2-.1-.3-.2-.5-.5-.6-.4-.3-.8-.5-1.2-.6-.3 0-.5.2-.6.4.8.3.9.4.9.6 0 .1 0 .2-.1.3l-1.3 1.3zm-.1 24.2c-.3 3-1.3 4-5 5.2-.1 0-.2.1-.3.2 0 .1.1.1.1.2.3 0 .6-.1.9-.2.9-.2 1.9-.4 2.7-.8 1.6-.8 2.2-2 2.6-4.5h1.3v4.2c.1.8.2.8 2.7.8 1.1.1 2.2 0 3.3-.2.4 0 .7-.3.8-.6 0-.1-.1-.2-.2-.2-.2 0-.4-.2-.4-.5l.1-2.1-.4-.1-.3 1.9c-.2.9-.2.9-3.2.9H20c-.1 0-.1-.1-.1-.3v-3.7h1.6v.9c0 .1.1.2.2.3h.1c.2 0 .4-.1.6-.1.1 0 .2-.2.2-.3v-8l.4-.1c.1 0 .2-.1.2-.2s-.1-.2-.2-.2l-1.1-1-.4.7H15l-1.3-.8V155c0 .1.1.2.2.2.3 0 .7-.1.8-.4v-.9l1.7-.4zm-1.7-.4V151h6.8v2.2h-6.8zm0-2.5v-2.2h6.8v2.2h-6.8zm0-2.7v-2.1h6.8v2.1h-6.8zm4.8 16.9-4.5 5-.6.6-.6.6c-.3.3-.7.6-.8.7-.3.1-.4.4-.4.7 0 .3.2.5.4.5s.4-.1.5-.3c.8-.9 1.7-1.8 2.7-2.5.8-.6 1.8-.9 2.9-.9 1.5-.2 2.9.9 3 2.5v.4c0 1.5-1.1 2.8-2.6 3.2-.1-.7-.5-1.4-1-1.8-.5-.3-1-.5-1.6-.5-.8-.1-1.6.4-1.8 1.3 0 1.2 1.3 2.1 3.1 2.1 1.1 0 2.2-.3 3.1-.9 1.1-.6 1.8-1.9 1.8-3.2 0-2.1-1.6-3.5-4-3.5-1 0-2 .3-2.9.7l3.3-3.2c.3-.5.8-.8 1.4-.9.2-.1.3-.1.3-.3 0-.3-.2-.5-1.1-1.1-.3.3-.7.5-1.2.6l-2.8.4c-.2 0-.4.1-.6.1-.6 0-1.1-.3-1.4-.8-.2.1-.3.3-.3.5.3.6.9 1.1 1.5 1.4.1 0 .2-.1.2-.1.2-.2.5-.3.8-.4l3.2-.9zm-.9 10.7c-.1 0-.3.1-.4.1-1.3 0-2.3-.6-2.3-1.4.1-.5.5-.8.9-.7 1.1 0 1.9.9 1.8 2z" style="fill-rule:evenodd;clip-rule:evenodd;fill:#666"/><path d="m12.1 188.1 6.3 6.5 6.5-6.6 1.1 1.2-7.6 7.8-7.4-7.8 1.1-1.1z" style="fill:#666"/></svg>
