<svg xmlns="http://www.w3.org/2000/svg" viewBox="0 0 52 390" width="52" height="390" xml:space="preserve"><path d="m26 28.8-2.3.3c-4.7.6-5.2.6-8.4 1.1-.3.1-.6.1-.9.1-.8 0-1.4-.4-2.2-1.6-.4.5-.6 1-.6 1.6 0 .3.3.6 1.2 1.3.5.5 1.1.8 1.7 1 .1 0 .3-.1.4-.1 1-.6 1.4-.6 4.4-1.3 2.2-.5 4.4-.9 6.6-1.1v3.4c-.4-.4-1-.5-1.6-.5-2.6.2-4.6 2.3-4.6 4.9-.2 1.8 1.2 3.4 3 3.6h.3c1 0 2.1-.4 2.8-1.1-.1 2.9-1.6 5.6-4.6 8.1-.3.1-.5.4-.7.7 0 .1.1.2.3.2 1.1-.4 2.1-1 3-1.8 2.8-2.1 4.4-5.3 4.4-8.8 0-1.3-.2-2.7-.6-3.9l.1-5c1.8-.2 3.7-.2 5.5-.2 1.9-.1 3.8.1 5.7.5.2.1.3.1.5.1.4 0 .6-.3.6-.7 0-.4-.3-.7-1.1-1.4-.5-.4-1.1-.8-1.7-1-.1 0-.3.1-.4.2-.3.3-.7.4-1 .4H35c-2.1.1-3.4.2-7.2.5v-2.5c-.1-.6.1-1.1.5-1.6.2-.2.3-.4.4-.7 0-.3 0-.3-1.1-.9-.9-.6-2-1-3.1-1.1-.7.1-1.4.5-1.8 1.1 2.9.7 3.2.9 3.2 2.1l.1 4.1zm-1.8 5.5c1.2 0 2 1 2 2.5 0 2.1-1.1 3.5-2.6 3.5-1.4-.1-2.4-1.2-2.4-2.5v-.1c0-1.8 1.3-3.2 3-3.4zm4 29.4c1.2.8 2.1 1.9 2.7 3.2.4.8.6 1 1.1 1 .6 0 1-.4 1-1v-.1c0-1.5-2-3-4.6-3.4l-.2.3zm3.2-1.9c1.4.8 2.6 1.9 3.5 3.3.1.3.4.4.7.4.5 0 1-.4 1-.9v-.1c0-1.5-2-2.8-5-3.1l-.2.4zm-11.3 8.6c.6-.8 1.5-1.4 2.5-1.7.5 0 .7.1 2.4 1.2l12 7.9c.6.5 1.3.8 2.1 1 .6 0 1.1-.5 1-1.1v-.1c0-1-.7-1.5-3.5-2.9-3.6-1.8-7.1-3.8-10.5-5.9-1.9-1.2-2.7-1.5-3.7-1.5-1.1 0-1.7.4-3.3 1.9l-3.9 3.7c-.3.4-.7.6-1.2.7-.9-.3-1.6-.9-2.1-1.8-.4.3-.7.7-.8 1.2 0 .9 3 3.1 4.2 3.1.4 0 .5-.2.7-.8.1-.3.2-.6.5-.9l3.6-4zm-4.4 32.3c-.3 0-.4.1-.5.1-.5 0-.8-.2-2.2-1.6-.1.2-.3.4-.4.6-.1.3-.2.5-.3.8 0 .2.1.2 1 1.1 1.3 1.1 1.8 1.6 2.2 1.6.3 0 .6-.2.8-.4.9-.8 5.5-2.1 10.2-2.9-2.6 2.3-4.2 5.6-4.3 9.1-.1 3.8 2.3 7.3 5.9 8.7 1.5.6 3 1 4.6 1 1.1 0 1.6-.4 1.6-1.3s-.5-1.2-1.9-1.4c-1.5 0-2.9-.3-4.2-.9-2.8-1.1-4.6-3.8-4.6-6.8 0-2.3 1-4.5 2.7-6.1 1.4-1.6 3.3-2.7 5.4-3.2.6-.1 3.4-.4 3.7-.4.3 0 .7 0 1.1.1.3 0 .6.1.7.1.5 0 .9-.3 1-.8-.1-.5-.5-.9-.9-1-.8-.4-1.6-.7-2.4-.9-.4.1-.7.3-.9.6-.1.1-.2.2-.4.3-.1 0-.2.1-.3.1l-17.6 3.5zm9.7 35.1c.4-.1.9-.1 1.3-.1 2.3-.1 4.5.7 6.3 2.1 1.8 1.4 2.9 3.5 2.9 5.8 0 3.6-2.2 6.9-5.5 8.4-1.5.7-3.1 1.3-4.7 1.8-.4.1-.6.2-.6.4s.1.3.3.3c.5 0 .9-.1 1.4-.2 2.2-.5 4.4-1.3 6.4-2.4 3-1.5 5-4.5 5.1-7.8 0-5.2-5.1-9.6-11.3-9.6-3.7.1-7.3 1.5-10 4-2.3 2.1-3.7 5.1-3.9 8.2 0 1.3.3 2.6 1 3.7.6.8 1.3 1.5 2.1 2.1 1 .8 1 .9 1.4.9.8 0 1.1-.3 2.3-2 2.1-3.3 3.9-6.7 5.3-10.4 1-2.6 1-2.7 1.4-3.2.1-.1.2-.2.2-.3-.3-.7-.9-1.4-1.6-1.7h.2zm-2.3.5c.2 0 .3.1.5.2.3.1.5.5.5.8-.2 1.2-.6 2.5-1 3.7-.9 2.9-2.1 5.8-3.7 8.4-.8 1.2-1.4 1.8-2 1.8-.6-.1-1.1-.4-1.3-1-.6-1.1-.9-2.3-.8-3.5-.1-2.7.9-5.3 2.8-7.2 1.3-1.5 3-2.6 5-3.2zm-11.6 37.3c1.6 0 2.4-.1 4.1-.1h8.8c.1-.1.2-.2.2-.4 0-.3-.1-.5-.4-.7l-2.2-1.6-1.8 2h-4.7c-1.6 0-2.3 0-4.4-.1l.4.9zm1.3-4.1h9.8c.2.1.5-.1.5-.3v-.1c0-.2-.1-.4-.3-.5l-2.2-1.7-1.6 1.9h-6.2v.7zm.1 12h9.6c.4 0 .5-.1.5-.4 0-.2-.1-.4-.3-.5l-2.2-1.6-1.5 1.7h-6.2l.1.8zm0-4h9.6c.3.1.5-.1.6-.4v-.1c0-.2-.1-.4-.3-.5l-2.1-1.5-1.5 1.7h-6.3v.8zm.2 6v11.6c0 .3.2.4.5.4.6.1 1.1-.2 1.5-.7v-2.9h5v2.3c.1.2.3.3.5.2.6.1 1.2-.3 1.5-.8v-7.2l.4-.2c.2-.1.3-.2.4-.4 0-.1 0-.3-.2-.4l-1.9-2.1-.9 1.3h-4.3l-2.5-1.1zm2 7.7v-5.7h5v5.7h-5zm10.7-20.8c3.2-.1 3.3-.1 4.1-.1h5.8v9.6h-7l-2.6-1.3v13.1c0 1.5.2 2.1 1 2.4.7.3 1.6.4 5 .4 7.2 0 8.7-.3 8.7-1.7 0-.3-.2-.4-.7-.6-.2-.1-.3-.2-.5-.3-.1-.1-.1-.2-.1-1.2l-.1-3.9h-.6l-.9 4.1c-.2 1-.6 1.4-1.3 1.4-1.1.1-2.8.2-4.7.2-3.8 0-3.8 0-3.8-1v-10.8h7.4v2.4c0 .3.2.5.5.5h.1c.7.1 1.3-.3 1.5-.9v-11.3l.4-.1c.3 0 .5-.2.5-.5 0-.2-.1-.4-.3-.5l-2-2.2-1.1 1.4h-5.5c-1.3 0-2.2 0-4.4-.1l.6 1zm-14.6 52.1c3.4-.1 4.6-.2 6.1-.2h7.2v2.9h-4.6c-1.5 0-2.7 0-5.6-.2l.4 1.1c2.7-.1 3.8-.1 5.3-.1h4.6v3.1c0 .4-.1.5-.7.5H23l-3-.1-.1.6 2.7.7c.3.1.6.1.8.2h.1c.1.2.1.4.1.6-.1.4.1.7.5.8h.1c1.1 0 2.4-1.1 2.4-2V228h6.9v1.5c0 .2.2.4.5.4.7.1 1.3-.3 1.5-.9v-4.6h4.9c.1 0 .2-.1.2-.3 0-.2-.1-.4-.3-.6l-2.1-2-1.6 2.1h-1.2v-2.1l.4-.2c.2 0 .4-.2.5-.4 0-.3-.2-.5-.4-.6l-1.7-1.4-.8 1.2h-6.8v-2.7h6.2v.9c0 .2.2.4.4.4.6 0 1.2-.3 1.5-.8v-3.4l.4-.1c.2-.1.3-.2.4-.4 0-.2-.1-.4-.3-.5l-1.8-1.4-.8 1.1h-6v-2.5h13.2c.2 0 .4-.2.4-.4s-.1-.4-.3-.5l-2.5-2-1.8 2h-8.9v-2.1l.9-.4c.2-.1.3-.3.4-.5 0-.3-.3-.6-.6-.6h-.1l-2.6-.3v4h-7c-1.6 0-2.9 0-6.4-.2l.4 1.1c3.6-.1 4.7-.2 6-.2h7v2.5h-5.8l-2.3-1.2v6.7c.1.2.3.4.6.4.6.1 1.3-.3 1.4-.9v-.6h6.2v2.7h-4.4c-1.7 0-2.8 0-5.7-.2l.4 1.1c2.7-.1 3.9-.1 5.3-.1h4.4v2.8h-7.2c-1.7 0-3.1 0-6.5-.2l.1.9zm7.1-8v-2.8h6.2v2.8h-6.2zm8.3 10.7v-2.9h6.9v2.9h-6.9zm0-3.7v-2.8h6.9v2.8h-6.9zm0-7v-2.8h6.2v2.8h-6.2zm-4.3 32.3c-.9.1-1.3.1-1.9.1-2.9 0-3.6-.2-5-1.6-.5.2-.6.3-.6.5.2.6.5 1.1 1 1.5.5.7 1.3 1.1 2.1 1.1.9 0 2.2-.1 3.5-.2l-3.7 5.4c-.6.8-1.3 1.6-2.1 2.3-.4.2-.7.5-1 .8-.3.4-.5.9-.5 1.4-.1.5.2 1 .7 1.1h.2c.6 0 1.1-.3 1.3-.8l1.9-2.1c.6-.8 1.3-1.4 2.2-1.9 1-.8 2.2-1.3 3.5-1.4.6-.1 1.2.2 1.6.7.3.4.3.5.4 2.3-1.4.8-2.8 1.6-4.1 2.6-2.2 1.5-3.1 2.8-3.1 4.4 0 2.9 2.8 4.4 8.5 4.4 1.7 0 5-.2 6.5-.4 1.3-.2 2-.6 2-1.1-.1-.8-.7-1.4-1.5-1.6-.2 0-.5.1-.7.2-2.5.6-5 1-7.6.9-4.3 0-6-.7-6-2.6 0-1.1.8-2.1 2.8-3.4 1-.7 2.1-1.3 3.2-1.8l-.1 3.9v.1c.1.8.2.9.7.9.4 0 .8-.2 1.1-.5.3-.2.5-.7.4-1.1v-4.3c3-1.3 6-2.3 9.1-3.3 1.2-.4 1.2-.4 1.5-.4.4-.1.7-.5.7-.9 0-.7-.6-1.4-2-2-.7-.3-1.3-.6-2.1-.7-.4.1-.8.3-1.1.7 1.6.6 2 .7 2 1-.2.3-.5.5-.8.5l-7.5 3.4c0-.6-.2-1.1-.4-1.6-.5-1-1.7-1.6-2.8-1.6-1.6 0-3.1.5-4.4 1.2l-.5.3 3.9-5.3.6-.1c6.2-.8 7.1-1.1 7.1-1.9 0-.7-.8-1.2-1.9-1.2-.2 0-.4.1-.5.2-.8.6-.9.6-2.5.9-.4.1-.7.2-1.1.3-.2 0-.4 0-.6.1l1.4-1.8.5-.5.4-.4c.1-.1.2-.3.2-.5-.1-.5-.5-1-1-1.2-.7-.6-1.6-1-2.5-1.2-.4 0-.7.2-1.2.9 1.7.7 1.9.9 1.9 1.2 0 .2-.1.5-.2.7l-1.9 3.4zm-.2 48.4c-.6 5.9-2.6 8.1-10.2 10.3-.3 0-.5.2-.6.4 0 .2.1.3.3.3h.1l1.8-.3c1.9-.3 3.8-.9 5.6-1.7 3.2-1.6 4.5-4 5.2-9.1H27v8.4c.2 1.5.5 1.6 5.4 1.6 5.5-.1 5.5-.1 6.8-.3 1.1-.2 1.6-.6 1.6-1.3 0-.3-.1-.4-.5-.5-.5-.1-.9-.5-.8-1l.1-4.2-.8-.1-.7 3.8c-.4 1.7-.4 1.7-6.4 1.8h-2.4c-.1-.1-.2-.1-.2-.7v-7.4h3.3v1.8c0 .2.1.5.4.5h.1c.4 0 .8-.1 1.2-.3.3-.1.5-.3.5-.6v-16.1l.8-.3c.2 0 .4-.2.4-.4s-.1-.4-.3-.5l-2.3-1.9-.9 1.5H19.2l-2.6-1.6v20.2c0 .2.2.4.4.4.8 0 1.6-.4 1.6-.9v-1.8h3.5zm-3.4-.8V292h13.8v4.4H18.7zm0-5.2v-4.4h13.8v4.4H18.7zm0-5.2v-4.3h13.8v4.3H18.7zm9.8 33.8-9.2 9.9c0 .1-.6.6-1.1 1.1-.4.4-.8.8-1.3 1.2-.7.6-1.4 1.2-1.7 1.4-.6.3-.9.9-.8 1.5 0 .5.3.9.9 1h.1c.4 0 .7-.2.9-.5 3-3.2 3.9-4 5.4-5 1.7-1.2 3.7-1.8 5.8-1.8 3.8 0 6.2 2.2 6.2 5.7 0 3-1.9 5.3-5.2 6.4-.5-1.9-.9-2.8-2.1-3.7-.9-.7-2.1-1.1-3.2-1.1-2.1 0-3.7 1.1-3.7 2.6 0 2.4 2.7 4.1 6.4 4.1 2.3 0 4.5-.7 6.4-1.9 2.3-1.3 3.7-3.7 3.8-6.3 0-4.1-3.4-7-8.1-7-1.7 0-2.9.3-5.9 1.3l6.7-6.5c1.4-1.3 2-1.7 2.8-1.8.5-.1.7-.3.7-.6 0-.6-.4-1-2.2-2.2-.7.7-1.5 1.1-2.4 1.1l-5.7.9c-.4.1-.8.1-1.2.2-1.1 0-2.2-.6-2.8-1.6-.3.2-.6.6-.7 1 0 .5 2.4 2.9 3 2.9.2 0 .3-.1.5-.2.5-.4 1-.6 1.6-.8l6.1-1.3zM26.6 341c-.3.1-.6.1-.9.1-2.6 0-4.8-1.3-4.8-2.8 0-.8.8-1.4 2-1.4 2.1 0 3.6 1.7 3.7 4.1z" fill-rule="evenodd" clip-rule="evenodd" fill="#666"/><path d="m16.8 360.1 8.8 8 9.1-8.1 1.5 1.5-10.5 9.5-10.4-9.5 1.5-1.4z" fill="#666"/></svg>
