<svg version="1.1" xmlns="http://www.w3.org/2000/svg" x="0" y="0" viewBox="0 0 51 75" width="51" height="75" style="enable-background:new 0 0 51 75" xml:space="preserve"><style>.st0{fill-rule:evenodd;clip-rule:evenodd;fill:#fff}</style><path class="st0" d="M46.7 6.1c.2.5.5.9.9 1.2.3.3.8.4 1.2.4.5 0 1.1-.2 1.4-.7.4-.6.5-1.2.5-1.9V1.7h-.2c0 .2 0 .4-.1.7 0 .1-.1.3-.3.3-.2.1-.4.1-.6.1h-6.6c-.2 0-.4 0-.6-.1-.2 0-.3-.1-.3-.2-.1-.2-.1-.4-.1-.7 0 0 0-.1-.1-.1s-.1 0-.1.1V5.5c0 .5.1 1.1.3 1.6.2.4.5.8 1 1.1.4.3.9.4 1.4.4.6 0 1.2-.2 1.6-.7.4-.4.6-1.1.7-1.8zM50.3 5c0 .4-.1.8-.4 1.1-.4.3-.8.4-1.3.4s-1-.1-1.4-.4c-.4-.3-.6-.8-.5-1.2v-.6h2.7c.3 0 .5 0 .8.2.1 0 .2.3.1.5zm-8.3.3c0-.2 0-.5.1-.7 0-.1.2-.3.3-.3.2-.1.3-.1.5-.1h3.5V5c0 .6-.2 1.2-.6 1.6-.5.4-1.1.6-1.7.6-.9.1-1.8-.5-2-1.4-.1-.1-.1-.3-.1-.5zm-.1 15.5c0-.3.2-.5.4-.7.4-.3.9-.6 1.4-.8l7-3.4s.1-.1 0-.1v-.1l-6.9-3-1.2-.6c-.2-.1-.4-.3-.6-.5-.1-.2-.2-.4-.2-.7 0-.1 0-.1-.1-.1 0 0-.1 0-.1.1v3.2s0 .1.1.1c0 0 .1 0 .1-.1 0-.3.1-.7.3-1 .2-.2.5-.4.8-.4.3 0 .5.1.8.2l1.5.7V17L43 18c-.2.1-.5.2-.7.2-.1 0-.3-.1-.3-.2-.1-.2-.1-.4-.1-.6 0 0 0-.1-.1-.1h-.1v3.3s0 .1.1.1c0 .1 0 .1.1.1zm7-5.6-3.3 1.6v-3.1l3.3 1.5zm1.4 9.9c0 .2 0 .4-.1.6 0 .1-.1.2-.2.3H42.8c-.2 0-.4 0-.6-.1-.1-.1-.2-.2-.3-.4-.1-.3-.1-.5-.1-.8h-.2V28.6h.2c0-.3 0-.5.1-.8 0-.1.1-.3.3-.3.2-.1.4-.1.6-.1h6.6c.2 0 .4 0 .6.1.1 0 .2.1.2.3.1.2.1.4.1.6 0 .5-.2 1-.5 1.4-.4.4-1 .6-1.6.7v.2h1.5c.6 0 1 .1 1.3.1 0 0 .1 0 .1-.1 0 0 0-.1-.1-.1s-.3-.2-.3-.3c-.1-.3-.1-.5-.1-.8v-5.6c0-.5.1-.8.3-.8 0 0 .1 0 .1-.1 0 0 0-.1-.1-.1-.3 0-.7 0-1.3-.1s-1.1-.1-1.4-.1v.2c.6.1 1.2.4 1.6.9.3.3.5.8.5 1.3zm-8.4 17.7c0-.2 0-.5.1-.7 0-.1.1-.3.3-.3.2-.1.4-.1.6-.1h6.6c.2 0 .4 0 .6.1l.3.3c.1.2.1.5.1.7h.2v-3.7s0-.1-.1-.1-.1 0-.1.1c0 .3 0 .5-.1.8 0 .1-.2.3-.3.3-.2.1-.4.1-.6.1h-2.9v-4.8h2.9c.2 0 .4 0 .6.1l.3.3c.1.2.1.5.1.8h.2V33.1h-.2c0 .2 0 .5-.1.7 0 .1-.1.3-.3.3-.2.1-.4.1-.6.1h-6.6c-.2 0-.4 0-.6-.1-.2-.1-.3-.2-.3-.3-.1-.2-.1-.5-.1-.7h-.2V36.7h.2c0-.3 0-.5.1-.8 0-.1.1-.3.3-.3.2-.1.4-.1.6-.1h3.3v4.8h-3.3c-.2 0-.4 0-.6-.1l-.3-.3c-.1-.3-.1-.5-.1-.8 0 0 0-.1-.1-.1s-.1 0-.1.1v3.7h.2c-.1 0 0 0 0 0z"/><path class="st0" d="M3 21.7c-.8-.2-1.7-.2-2.6-.2v.8c1.7.1 2.7 1.3 2.7 3.1 0 .4 0 .9-.1 1.3-.3 2.5-.3 2.5-.3 2.7 0 1.2.5 1.8 1.5 1.8 1.1-.1 1.9-1 1.9-2.1 0-.5-.1-1.1-.2-1.6-.3-1.3-.5-2.6-.5-4 0-1 .2-1.9.5-2.8L11 5.8l-.8-.3L3 21.7zM.7 8.4c.9.8 1.6 1.8 2 3 .4 1.8.4 1.8.5 2 .2.3.5.6.9.6.9-.1 1.6-.9 1.5-1.8 0-1.8-1.9-3.4-4.8-4l-.1.2zm2.4-8c1.2.7 2 1.8 2.4 3.1.6 2 .7 2.2 1.5 2.2.7 0 1.4-.5 1.4-1.3v-.1C8.4 2 6.4.4 3.2 0l-.1.4zm4.1 30.3c.9 0 1.8 0 4.3-.1h22c.2 0 .4-.2.4-.4s-.1-.5-.3-.7l-2.1-2.2-1.9 2.5h-.4v-8.9l.8-.3c.2-.1.4-.3.4-.5s-.2-.4-.3-.5L28 17.3l-1 1.5H13l-2.5-1.3v12.1c-1.6 0-1.9-.1-3.7-.1l.4 1.2zm5.6-1v-10h3.3v10h-3.3zm5.4 0v-10h3.3v10h-3.3zm5.4 0v-10H27v10h-3.4zM12.4.5v15.7c0 .4.1.5.4.5.4 0 .7-.1 1.1-.3.4 0 .7-.3.6-.7V13.8H26v1.6c.1.3.3.4.6.4.4 0 .7-.1 1.1-.3.3-.1.6-.4.6-.7V4l.6-.2c.3 0 .5-.3.5-.6 0-.2-.1-.4-.3-.5L27 .6l-1.3 1.5H15.2L12.4.5zM14.5 13V8.4H26V13H14.5zm0-5.5V3H26v4.5H14.5zM0 64.5v.7c1.5.4 2 .7 2.3 1.1.5.7.7 1.7.6 2.6 0 .4 0 .7-.1 1.1-.1 1.3-.2 2.2-.2 2.6-.1.8.5 1.5 1.4 1.6h.1c1 0 1.8-.7 1.9-1.7v-.1c0-.2 0-.4-.1-.6-1-4.7-1-4.7-1-5.5 0-1 .2-2 .6-2.9L10.9 49l-.6-.3-7.7 15.8H0zm0-12.6c.9.6 1.6 1.5 1.9 2.5.8 2.8.8 2.8 1.8 2.8.8 0 1.4-.7 1.3-1.4v-.2c0-1.8-2.1-3.7-4.7-4.2l-.3.5zm1.7-8c1 .5 1.9 1.4 2.3 2.5.3.8.6 1.6 1 2.4.2.3.6.5 1 .5.8 0 1.4-.6 1.4-1.4v-.1c0-2.1-2-3.7-5.5-4.3l-.2.4zM19 49.5C17.1 55.8 13.1 61.3 7.7 65c-.9.6-.9.6-.9.8 0 .2.1.3.3.3.2 0 .5-.1.7-.2.4-.3.7-.4.7-.4 5.4-3.1 9.2-7.1 12.4-13.2 2.1 4.8 5.6 8.8 10.1 11.5.7-1 1.7-1.8 2.8-2.3-5.6-2.1-9.8-5.5-12.1-9.6l.5-.3c.2-.1.4-.3.4-.6-.1-.3-.3-.5-.6-.6l-3-.9zm-4.1-5.9c-1.1 4.5-3 8.7-5.7 12.4-.1.1-.2.3-.3.5 0 .1.1.3.3.3.4 0 1.9-1.6 3.3-3.2 1.4-1.7 2.1-2.8 4.4-7l.9-.3c.4 0 .7-.3.8-.7-.1-.4-.4-.7-.7-.8l-3-1.2zm-1.3 18.5v12.4c0 .2.1.4.3.5h.1c.4 0 .8-.1 1.1-.3.4-.1.7-.4.7-.8v-1.3h9.5v1.5c0 .5.1.7.5.7 1 0 1.9-.5 1.9-1v-8.7l.7-.3c.2 0 .3-.2.4-.4-.1-.3-.3-.6-.5-.8l-2-1.8-1.1 1.5h-8.7l-2.9-1.2zm2.3 9.7v-7.6h9.5v7.6h-9.5zm6.2-27.2c2.8 1.6 5 4 6.4 6.8.5 1.1.8 1.4 1.5 1.4s1.3-.5 1.3-1.2v-.1c0-1.6-1.2-3.4-3.1-4.8-1.8-1.2-3.8-2-5.9-2.5l-.2.4z"/></svg>
