<svg version="1.1" xmlns="http://www.w3.org/2000/svg" x="0" y="0" viewBox="0 0 64 390" width="64" height="390" xml:space="preserve"><style>.st0{fill-rule:evenodd;clip-rule:evenodd;fill:#fff}</style><path class="st0" d="M14.7 3.8c-5.6 2.1-8.2 2.9-9 2.9-1.2-.2-2.2-.8-3-1.7-.4.3-.7.7-.8 1.2.1.5.3.8.7 1.1C4.4 9.2 5.1 9.6 6 9.6c.8-.1 1.6-.4 2.2-.9 1.7-1.1 3.6-2 5.7-2.4-1.8 1.9-3.3 3.9-4.6 6.1C7.2 15.9 6 20 5.9 24.1c0 7.2 4.3 11.8 11 11.8 4 .1 7.8-1.8 10.1-5 2.1-2.8 3.2-7 3.2-12.2 0-2.8-.1-3.9-1.2-10.2 1.8 3.8 3.9 7.5 6.3 11.1 2.4 3.5 3.3 4.6 4.3 4.6 1-.1 1.7-.9 1.7-1.9v-.1c0-.8-.1-1-1.1-1.8C35 15.8 30.3 8.5 29.6 4c0-.3-.2-.7-.4-.9-.7-.4-1.5-.7-2.4-.7-.6-.1-1.2.3-1.2.9v.2c.1.9.4 1.7.9 2.4.7 1.3.8 1.6 1.1 4 .3 2.2.5 4.5.6 6.8 0 10.1-4.1 16.2-11 16.2-5.5 0-8.9-4-8.9-10.2 0-4.7 1.8-9 5.8-13.6C15.9 7 17 6 18.3 5.4c.9-.4 1.2-.6 1.2-1.2s-.3-1.1-.8-1.3c-.8-.4-1.8-.6-2.7-.7l-1.3 1.6zm12 48.3c1.6 1.4 3 3.1 4 5 .1.5.6.8 1.1.9.9 0 1.5-.7 1.6-1.6 0-1.8-1.9-3.4-6.2-4.8l-.5.5zm4.2-2.2c1.9.9 3.4 2.3 4.3 4.2.9 1.5 1 1.5 1.4 1.5.8-.1 1.5-.8 1.5-1.7 0-2.4-3.2-4.3-7.1-4.4l-.1.4zM1 64.2c-.6.7-1 1.5-1 2.4 0 .4 0 .4 1.2 1.3 2.2 1.8 3.1 2.4 4 2.4.7 0 1.1-.2 2.6-1.9 2.3-2.3 4.8-4.2 7.6-5.8 2.7-1.8 5.8-2.8 9-2.9 3 0 5.8 1 8.1 2.9 1.7 1.7 2.7 4 2.6 6.4 0 4-2.7 7.8-7.1 9.8-3.5 1.5-7.2 2.4-11 2.7-.9.1-1.2.2-1.2.6 0 .4.3.6.8.6 3.6-.1 7.2-.7 10.7-1.6 7.4-2.2 11.5-6.4 11.5-11.7-.1-3.1-1.6-6.1-4-8.1-2.7-2.3-6.2-3.5-9.8-3.3-4 .1-7.9 1.1-11.3 3-3 1.5-5.9 3.2-8.7 5-.4.3-.8.5-1.3.6-.5-.1-1.5-1-2.7-2.4zm16 61.1c2.5-4.2 4.5-8.6 6-13.2 1.7-.1 3.5.2 5.1.9 3.9 1.5 6.5 5.2 6.5 9.3 0 6-4.6 10.7-13.4 13.5-1.5.5-1.6.5-1.6.8 0 .3.2.5.5.5.2 0 .3 0 .5-.1.3 0 .7-.1 1-.2 2.7-.5 5.4-1.4 8-2.6 5.6-2.7 8.7-7 8.7-12.1 0-4.7-2.8-8.5-7.8-10.5-2.2-.8-4.5-1.2-6.8-1.1l1-2.9c.2-.6.6-1.2 1.2-1.5.1-.1.2-.3.2-.4 0-1.3-3.3-4.2-4.9-4.2-.7 0-1.4.5-1.6 1.2 1.4.7 2.4 1.6 2.4 2.2-.1.6-.2 1.3-.4 1.9l-1.1 3.8c-3.5.6-6.8 2.1-9.6 4.3-.7-1.8-1.1-3.7-1.2-5.6v-1.1c0-.7-1.1-1.5-3.4-2.4-.2-.1-.3-.1-.5-.2-.1-.1-.3-.1-.4-.1-.7.2-1.4.7-1.8 1.3 2 .8 2.5 1.1 2.7 2l2.7 7.7c-1 .9-2 1.9-2.8 2.9-2.2 2.6-3.4 5.9-3.5 9.3 0 3.1 1.7 5.4 4 5.4 2.6 0 5.7-2.3 8.6-6.4 1.5 1.5 2.4 2.2 3.1 2.2.7-.1 1.2-.8 1.2-1.5 0-.9-.2-1.2-2.1-2.9l-.5-.2zm-7.3-7.1c1.1 2.7 2.5 5.3 4.1 7.7-2.6 3.7-4.9 5.8-6.4 5.8-1 0-1.9-1.7-1.9-3.9.2-3.5 1.6-7 4.2-9.6zm1.8-1.5c2.4-2.2 5.4-3.7 8.6-4.4-1.8 5.8-2.5 7.6-4.7 11.4-1.9-2.2-2.5-3.3-3.9-7zm7.3 38.7c1.8-1.2 2.3-1.4 3.3-1.4.6-.1 1.2.2 1.6.6.3.8.3 1.6.3 2.4v3.5c-6.6 1.2-13.7 7.7-18.1 16.6-.3-1.3-.5-2.7-.5-4.1 0-3.3.8-6.6 2.5-9.5.2-.4.4-.7.5-1.2 0-1.1-3.4-4.6-4.5-4.6-.6.1-1.2.3-1.7.7 1.9 1.5 2.6 2.4 2.6 3.5-.1 1-.2 2.1-.6 3.1-.7 2.7-1.1 5.5-1.2 8.3 0 5.6 1.5 9.5 3.7 9.5.5.1 1-.2 1.2-.6.1-.7.2-1.3.1-2-.1-1.6.5-3.3 2.4-6.9 3.5-6.2 7.7-9.6 13.5-11v10.6l-.1 3c0 .2-.1.8-.2 1.7l-.1.7c-3.2-.5-6.8-3.5-8.2-7.2-.4-.9-.5-1-.7-1-.3 0-.4.3-.4.5.4 1.8 1.1 3.5 2.2 5.1 1.4 2.4 3.8 4.1 6.6 4.8-1.2 3.8-3.9 7-7.5 8.8-1 .6-1.1.6-1.1.9 0 .2.2.4.4.4 1.2-.3 2.3-.8 3.4-1.4 3.4-1.7 6.1-4.6 7.5-8.2.5.1 1.1.1 1.6.1 2.3-.1 4.5-.7 6.5-1.9 3-1.7 4.9-4.9 4.9-8.3 0-3.5-1.7-6.7-4.4-8.8-2.1-1.4-4.5-2.1-7-2h-.6l.2-2.7c.1-.5.2-1 .4-1.5s.3-.9.4-1.4c0-1.2-1.9-2.4-4-2.4-1.9 0-3.5.8-5.4 2.7l.5.6zm7.5 23.3c.4-2.2.6-4.3.6-6.5l-.1-5.9V162c1.5 0 3 .4 4.4 1.1 2.7 1.5 4.3 4.3 4.3 7.4.1 2.6-1.2 5-3.2 6.5-1.5 1-3.3 1.6-5.2 1.7h-.8zm-13.4 39.7c-1.9 3.8-3.7 7.8-5.2 11.8-.6-1.3-.9-2.8-.8-4.3-.1-3.1.5-6.3 1.7-9.2.7-2.1 1.5-4.1 2.6-6 .3-.4.5-.8.6-1.3 0-1.4-3-4.9-4.1-4.9-.6.1-1.2.3-1.8.6 1.8 1.7 2.3 2.4 2.3 3.5-.1.9-.3 1.8-.6 2.6-2.1 7.1-2.7 10.5-2.7 15.9 0 7.3 1.3 11.4 3.7 11.4.8 0 1.2-.6 1.2-1.8 0-.4 0-.7-.1-1.3-.1-.6-.1-1.1-.1-1.7 0-2.9 1.5-8 4.4-15.1l-1.1-.2zM37.3 232c-.4 0-.8.1-1.3.1-2.3.3-4.6.5-6.9.5-2 .1-4.1-.1-6-.6-3.1-.9-4.7-2.7-4.7-5.4 0-1.2.2-2.4.6-3.6.1-.1.1-.3.1-.5 0-.3-.2-.5-.5-.5-.7 0-1.8 3.2-1.8 5.4 0 2.3 1.1 4.5 3 5.9 2 1.6 5.9 2.4 11.4 2.4 2.3 0 4.7-.1 6.9-.6.7-.1 1.2-.6 1.3-1.3-.1-1-1-1.8-2.1-1.8zm-16.8-12.3c2.5-2.2 5.1-4.1 7.9-5.9 3.1-1.8 3.3-1.9 6.1-2.2 1.5-.1 2-.4 2-1.2-.1-.5-.4-1-.8-1.2-.7-.5-1.4-.9-2.3-1.2-.3 0-.5.1-.8.2-3.5 1-7.1 1.5-10.7 1.7-1.4 0-2.2-.2-4.8-1.4l-.3.6c.1.6.5 1.1 1.1 1.4 1.8 1.2 2.7 1.6 3.9 1.6 1 0 3.4-.3 5.7-.6-.7.7-1.4 1.3-2.1 1.9-2 1.7-3.9 3.6-5.6 5.6l.7.7zM1 267.1c-.6.7-1 1.5-1 2.4 0 .3 0 .3 1.2 1.3 2.2 1.8 3.1 2.4 4 2.4.7 0 1.1-.2 2.6-1.9 2.3-2.3 4.8-4.2 7.6-5.8 2.7-1.8 5.8-2.8 9-2.9 3 0 5.8 1 8.1 2.9 1.7 1.7 2.7 4 2.6 6.4 0 4-2.7 7.8-7.1 9.8-3.5 1.5-7.2 2.4-11 2.7-.9.1-1.2.2-1.2.6 0 .4.3.6.8.6 3.6-.1 7.2-.7 10.7-1.6 7.4-2.2 11.5-6.4 11.5-11.7-.1-3.1-1.6-6.1-4-8.1-2.7-2.3-6.2-3.5-9.8-3.3-4 .1-7.9 1.1-11.3 3-3 1.5-5.9 3.2-8.7 5-.4.3-.8.5-1.3.6-.5-.1-1.5-1-2.7-2.4zm.6 42.8s.1.1.5.3c.3.2.6.4 1 .7 1.5 1.1 1.8 1.4 1.8 2.5 0 .7-.1 1.5-.2 2.2-.3 2.1-.4 4.2-.4 6.4 0 5.6.8 9.8 2.4 12.4 1.3 2.1 3.8 4.2 5.2 4.2.7 0 1.3-.6 1.3-1.3 0-.3-.1-.7-.2-1-.1-.4-.3-.9-.3-1.3.5-2 1.2-3.9 2.2-5.7.9-1.9 1.2-2.3 4.4-7.9.8-1.3.8-1.4.8-1.6 0-.2-.2-.4-.4-.4-.3 0-.5.2-1.2 1.1-2.3 2.9-4.4 6-6.4 9.2-1.6 2.6-2.2 3.4-2.5 3.4-.3 0-.6-.4-1.1-1.2-1.1-2-1.6-4.4-1.6-8.3 0-4.9.4-7.4 1.3-9.2.3-.4.4-.9.5-1.3 0-.6-.4-1.1-1.4-1.9-1.2-1-2.6-1.7-4.1-2.2-.7-.1-1.4.3-1.6.9zm24.5 2.4c5.1 3.3 8.4 8.9 9.4 16.1.2 1.3.6 1.9 1.7 1.9 1.2 0 2-1.2 2-3 0-2.6-1.5-6.2-3.8-9.2-2.2-3-5.4-5.3-8.9-6.4l-.4.6zM6.3 363.8c-.4 0-.6.1-.7.1-.7 0-1.2-.3-3.1-2.3-.2.2-.4.5-.6.8-.2.4-.3.8-.4 1.2 0 .2.1.4 1.5 1.7 1.8 1.7 2.6 2.3 3.1 2.3.4-.1.8-.2 1.2-.5 1.3-1.2 7.9-3 14.5-4.2-3.8 3.5-6.2 8.6-6.2 13.1-.1 5.5 3.2 10.5 8.4 12.5 2.1.9 4.3 1.4 6.5 1.5 1.5 0 2.3-.6 2.3-1.9 0-1.3-.6-1.8-2.7-1.9-2.1-.1-4.1-.5-6-1.3-4-1.6-6.6-5.5-6.5-9.7 0-3.1 1.3-5.9 3.8-8.7 2.5-2.6 5.1-4.2 7.7-4.6.8-.1 4.8-.6 5.3-.6.4 0 .9 0 1.6.1.3 0 .7.1 1 .1.7.1 1.3-.4 1.4-1.1v-.1c0-.5-.4-.9-1.3-1.5-1.1-.6-2.2-1-3.4-1.3-.5.1-1 .4-1.3.9-.2.3-.6.4-.9.5l-25.2 4.9z"/><path class="st0" d="M48.5 17.3c0-.5.3-.9.6-1.2.7-.6 1.5-1 2.4-1.4l11.9-5.9c.1 0 .1-.1.1-.2s0-.2-.1-.2L51.7 3.2c-.7-.3-1.4-.6-2-1-.4-.2-.7-.5-1-.9-.2-.3-.3-.7-.3-1.1.1-.2 0-.2-.1-.2s-.1.1-.1.1v5.7c0 .1.1.1.2.1s.1-.1.1-.1c0-.6.1-1.2.4-1.7.3-.4.8-.6 1.3-.6s.9.1 1.3.3L54.1 5v5.8l-3.7 1.8c-.4.2-.8.4-1.2.4-.2 0-.4-.1-.5-.3-.1-.3-.2-.7-.2-1 0-.1 0-.1-.1-.1s-.1 0-.1.1v5.7c0 .1.1.1.2.1-.1-.1 0-.2 0-.2zm11.8-9.6-5.6 2.8V5.2l5.6 2.5zm-3.6 19.8c.3.8.8 1.6 1.5 2.1.6.5 1.3.7 2.1.7.9 0 1.8-.4 2.3-1.1.6-1 .9-2.1.8-3.3v-1.5c0-.5-.1-1-.1-1.4v-3h-.2c0 .4 0 .8-.1 1.1-.1.2-.3.4-.5.5-.3.1-.7.2-1.1.2H50.1c-.4 0-.7 0-1.1-.2-.2-.1-.4-.3-.5-.5-.1-.4-.1-.8-.1-1.2 0-.1 0-.1-.1-.1s-.1 0-.1.1V24.8c0 .6-.1 1.1-.1 1.6 0 .9.2 1.9.6 2.7.4.8.9 1.4 1.6 1.9.7.5 1.5.7 2.3.7 1 0 2-.4 2.8-1.2.7-.7 1.2-1.8 1.3-3zm6.2-1.9c0 .7-.2 1.4-.7 1.9-.6.5-1.4.7-2.1.7-.9 0-1.7-.2-2.4-.7-.6-.5-1-1.3-.9-2.1v-1h4.6c.4-.1.9 0 1.3.3.1.1.2.5.2.9zm-14.2.6c0-.4 0-.8.2-1.2.1-.2.2-.4.5-.6.3-.1.6-.2.9-.2H56v1.4c.1 1-.3 2.1-1.1 2.8-.8.7-1.9 1-2.9 1-2.2 0-3.3-1.1-3.3-3.2zm-.8 17.5c0 1.5.4 2.9 1.1 4.2.7 1.3 1.7 2.3 2.9 3.1 1.2.8 2.6 1.2 4 1.2 1.3 0 2.6-.3 3.7-.9 1.2-.6 2.2-1.5 2.8-2.7.7-1.2 1.1-2.6 1.1-4s-.3-2.8-.9-4c-.6-1.3-1.5-2.4-2.7-3.2-1.3-.9-2.7-1.3-4.3-1.3-1.4 0-2.7.3-3.9 1-1.2.6-2.2 1.5-2.9 2.7-.6 1.1-.9 2.5-.9 3.9zm.6.8c0-1.1.4-2.2 1.1-3 .8-.9 1.8-1.7 2.9-2.1 1.3-.5 2.7-.8 4.2-.8 1.7-.1 3.3.4 4.7 1.3 1.1.9 1.7 2.2 1.7 3.6 0 1.1-.3 2.3-1 3.2-.7.9-1.7 1.7-2.8 2.1-1.3.5-2.6.8-4 .7-1.2 0-2.5-.2-3.6-.7-.9-.4-1.7-1-2.3-1.8-.7-.6-.9-1.5-.9-2.5zm11.8 24.4h-6.8c-1.2.1-2.5-.3-3.5-1.2-1.7-1.9-1.7-4.8.1-6.5 1.2-.9 2.8-1.3 4.3-1.2h6.9c.4 0 .7 0 1.1.1.2.1.4.3.5.5.1.4.1.8.1 1.2 0 .1 0 .1.1.1s.1 0 .1-.1v-6c0-.1 0-.1-.1-.1s-.1 0-.1.1c0 .4 0 .8-.1 1.2-.1.2-.2.4-.5.5-.3.1-.7.2-1.1.1h-7.8c-1.1 0-2.1.2-3 .8-.9.5-1.5 1.2-2 2.1-.5 1-.7 2-.7 3.1s.2 2.1.7 3.1c.4.9 1.1 1.6 2 2.1.9.5 2 .8 3 .7h6.8c.7 0 1.4.1 2 .5.5.3.7.9.7 1.5 0 0 0 .1.1.1s.1 0 .1-.1v-4.9s0-.1-.1-.1-.1 0-.1.1c0 .6-.2 1.2-.7 1.6-.6.5-1.3.7-2 .7zm2.5 10c0 .3 0 .7-.1 1-.1.2-.2.4-.4.4-.3.1-.6.1-.9.1H50.1c-.4 0-.7 0-1.1-.2-.2-.1-.4-.3-.5-.6-.1-.5-.1-.9-.1-1.4 0 0 0-.1-.1-.1s-.1 0-.1.1v6.6c0 .1 0 .1.1.1s.1 0 .1-.1c0-.5 0-.9.1-1.4.1-.3.2-.5.5-.6.3-.1.7-.2 1.1-.2h11.1c.3 0 .6 0 1 .1.2.1.4.2.4.4.1.3.1.7.1 1 0 .9-.3 1.8-.9 2.4-.8.7-1.7 1.1-2.7 1.1-.1 0-.1.1-.1.2s0 .1.1.1c.6 0 1.4 0 2.5.1 1 .1 1.8.1 2.3.1.1 0 .1 0 .1-.1s0-.1-.1-.1c-.2-.1-.4-.3-.5-.5-.1-.4-.1-.9-.1-1.3v-4.6c0-1.8 0-3.4.1-4.8 0-.9.2-1.3.5-1.3.1 0 .1 0 .1-.1s0-.1-.1-.1c-.5 0-1.2 0-2.2-.1-1-.1-1.8-.2-2.4-.2 0 0-.1 0-.1.1v.1c1 .2 2 .7 2.7 1.5.6.5.9 1.4.9 2.3z"/></svg>
