<svg version="1.1" xmlns="http://www.w3.org/2000/svg" x="0" y="0" viewBox="0 0 50 153" width="50" height="153" style="enable-background:new 0 0 50 153" xml:space="preserve"><style>.st0{fill-rule:evenodd;clip-rule:evenodd;fill:#fff}</style><path class="st0" d="M49.8 9.7V7h-.2c0 .3-.1.6-.4.8-.3.2-.7.3-1.2.3h-5L49 3l.5-.3c.1 0 .2-.1.2-.2 0 0 .1-.1.1-.2V-.1h-.2c0 .2-.1.5-.2.7-.2.3-.4.5-.6.7h-6.2c-.4 0-.8-.1-1.1-.3-.3-.2-.4-.6-.4-.9h-.2V2.8h.2c0-.3.1-.7.4-.9.3-.2.7-.3 1.1-.3h5.8l-7.7 6.6v.1s0 .1.1.1h7.3c.4 0 .8.1 1.2.3.3.2.4.5.4.9 0 .2 0 .2.1.1 0 .1.1.1 0 0zm-6.6 8.5c-1.1-.2-1.9-1.2-1.8-2.4v-.7c0-.2 0-.5.2-.6.2-.1.4-.2.7-.2h3.2v1.3c0 1.1-.4 1.6-1.2 1.6v.2H46.9v-.2c-.7 0-1-.5-1-1.5v-1.4h2.9c.2 0 .5.1.6.2.1.2.2.5.2.7v.6c.1 1-.6 1.8-1.6 2v.2h1.8c.1 0 .1 0 .1-.1V12h-.2c0 .2 0 .5-.1.7 0 .1-.1.2-.3.3H42.1c-.2 0-.4 0-.6-.1-.1 0-.2-.2-.3-.3-.1-.2-.1-.5-.1-.7h-.2v6.3h.2c.7 0 1.3.1 2 .1.1 0 .1 0 .1-.1 0 .1 0 0 0 0zm6.6 15.3v-2.7h-.2c0 .2-.1.5-.2.7-.2.2-.4.2-.6.2-.2 0-.5-.1-.7-.1l-5.4-2.1 3.7-1.7 1.8.7c.4.1.8.4 1.1.7.2.2.4.5.4.8h.2v-2h-.2c0 .2-.1.4-.3.4h-.1c-.3 0-.7-.1-1-.3l-1.3-.5 1.6-.8c.3-.2.6-.3.9-.3.1 0 .1 0 .2.1 0 .1.1.2 0 .3h.2v-2.5h-.2c0 .2-.1.4-.2.5-.2.2-.5.3-.8.5l-3.3 1.5-2.6-1 5.8-2.7c.2-.1.5-.2.8-.3.1 0 .2.1.3.2.1.2.1.4.1.5h.2V20.6h-.2c0 .2-.1.4-.2.6-.2.2-.5.4-.8.5L41 25.2c-.1.1-.1.2 0 .3l3.9 1.5-3.9 1.8c-.1.1-.1.2 0 .3l7.2 2.7c.4.1.8.4 1.1.7.2.2.4.6.4.9 0 .1 0 .1.1.1 0 0 .1 0 0 0zm-1.5 3.6c.4 0 .7.1 1 .4.3.3.4.6.4 1 0 .6-.2 1.1-.7 1.4-.5.3-1 .6-1.6.8v.1s0 .1.1.1h1.9c.1 0 .2-.1.3-.2.1-.3.2-.5.2-.8.1-.3.1-.6.1-1 0-.5-.1-.9-.2-1.4-.2-.4-.4-.8-.8-1.1-.4-.3-.8-.4-1.2-.4-.4 0-.7.1-1 .3-.3.2-.5.4-.8.6-.2.3-.5.6-.7 1.1-.3.5-.5.8-.8 1.1-.2.3-.5.5-.8.7-.4.1-.7.2-1.1.2-.4 0-.8-.1-1.1-.4-.2-.3-.3-.6-.3-1 0-.6.3-1.2.8-1.5.6-.4 1.2-.8 1.9-1.1 0 0 .1 0 .1-.1 0 0 0-.1-.1-.1l-2.2.1c-.1 0-.2.1-.3.1-.2.3-.3.6-.4 1-.1.4-.2.8-.2 1.2 0 .5.1 1.1.3 1.6.2.4.5.8.9 1.1.4.3.8.4 1.3.4.4 0 .8-.1 1.1-.3.3-.2.6-.4.8-.7.2-.3.5-.7.8-1.1.3-.4.5-.8.7-1 .2-.3.4-.5.7-.6.3-.4.6-.5.9-.5z"/><path class="st0" d="M23.2 13.6c-5.4.3-9.2.6-15.7 1.4-3.6.4-3.6.4-3.7.4-.8 0-1.3-.3-3.1-1.7-.2.4-.4.8-.5 1.3.4.9 1 1.7 1.7 2.3 1.3 1 1.3 1 1.5 1 .2 0 .3-.1.5-.2 1.8-1.1 10.8-2.2 17.3-2.2 1.9-.1 3.8.1 5.7.5.2.1.5.1.8.1.5 0 .9-.5.8-.9 0-.5-.5-1-1.8-1.8-.7-.4-1.4-.7-2.2-.8l-1.3.6zM19.3 3 8.1 4.3c-.5.1-1 .1-1.5.1-.5.1-.6 0-2.3-1.3l-.2-.2c-.4.3-.6.8-.7 1.2.1.5.4.9.8 1.1 1.5 1.3 2 1.7 2.5 1.7.2 0 .4-.1.5-.1 3.2-1.2 7-1.7 12.1-1.7.8 0 1.5 0 2 .1.6.1 1.3.1 1.9.1.5.1 1-.3 1.1-.8 0-.7-1.5-1.7-3.6-2.4l-1.4.9zm.3 54.1c-3.1.1-5.1.3-11 .8H8c-.6 0-.8-.1-1.9-1.1l-.2-.1c-.3.2-.4.5-.5.8 0 .6 2.2 3 2.7 3 .1 0 .3-.1.4-.2 1.3-.9 7.5-1.6 14.5-1.6 1.7-.1 3.4.1 5.1.6.2.1.4.1.5.1.4 0 .7-.4.7-.8 0-.5-.4-.9-1.5-1.7-.5-.3-1-.6-1.6-.9l-1 .8h-4l1.9-7.3c1.1-.5 1.3-.7 1.3-1 0-.4-.7-1.1-1.8-1.9l-.6-.3-.3-.2-.9 1.2-6.6.5c-1.1.1-1.8.2-2.1.2h-.6c-.7-.1-1.4-.5-1.8-1.1-.1-.1-.1-.2-.2-.3-.6.8-.7.9-.7 1.2.5 1.1 1.3 1.9 2.3 2.5.1 0 .3-.1.4-.1.2-.4 3.6-.9 8.5-1.3l.7-.1-1.1 8.3zm-4.7 29.4c.7-.6.8-.7.8-.9 0-.6-2.7-2.4-3.6-2.4-.6 0-1.1.4-1.4.9 1.7.7 1.9.9 1.9 2.3l-.1 18.2c.1 1.3 0 2.5-.2 3.8-.1.2-.1.5-.1.7.2.9 1 1.5 1.9 1.5.7 0 1.1-.8 1.1-1.9v-1.4c0-.5 0-.9-.1-1.2l-.2-19.6zm5.5 43.1-1.1 1.2-12.2 1.7c-.8.1-.8.1-.9.1-.6 0-1.3-.5-1.9-1.7-.8 1.1-.8 1.1-.8 1.4 0 .4.4.9 1.7 2.3.7.7.8.8 1 .8.4 0 .7-.2 1-.4.4-.3.8-.5 1.3-.6 1.7-.4 2.2-.5 3.7-.8 2.2-.6 4.5-1 6.8-1.2-5.2 9.5-9.6 14.3-18 19.4-.9.5-1.1.7-1.1.9 0 .2.2.3.4.3 1.2-.3 2.3-.8 3.3-1.4 4.5-2.4 8.4-5.7 11.7-9.6 2.6 1.3 7.6 6 8.8 8.1.7 1.1 1.1 1.4 1.6 1.4.7-.1 1.3-.7 1.2-1.4 0-2.6-4.1-5.9-11-8.9 2.1-2.5 3.9-5.1 5.6-7.9l.9-.2c.4 0 .7-.2.8-.6-.1-.4-.3-.8-.7-1l-2.1-1.9z"/></svg>
