<svg version="1.1" id="ttl-whisking-01-sp.svg" xmlns="http://www.w3.org/2000/svg" x="0" y="0" viewBox="0 0 37 479" width="37" height="479" style="enable-background:new 0 0 37 479" xml:space="preserve"><style>.st0{fill-rule:evenodd;clip-rule:evenodd;fill:#fff}</style><path id="WHISKING" class="st0" d="M24.1 369.8v-4.7c0-.1 0-.1-.1-.1s-.1 0-.1.1c0 .4-.1.8-.4 1.1-.3.3-.6.4-1 .4s-.8-.1-1.2-.2l-9.1-3.5 6.2-3 3 1.2c.7.2 1.4.6 1.9 1.1.4.4.6.9.6 1.4 0 .1 0 .1.1.1s.1 0 .1-.1v-3.5h-.3c.1.3-.2.7-.5.7h-.2c-.6 0-1.2-.2-1.7-.4l-2.3-.8 2.7-1.3c.5-.3 1-.5 1.6-.6.1 0 .2 0 .3.1.1.2.1.4.1.6h.3v-4.3h-.3c0 .3-.1.7-.4.9-.4.3-.8.6-1.3.8l-5.5 2.6-4.4-1.7 9.7-4.6c.4-.2.9-.4 1.3-.4.2 0 .4.1.5.3.1.3.2.6.1.9 0 .1.1.1.2.1 0 0 .1 0 .1-.1v-5.1c0-.1 0-.1-.1-.1s-.1 0-.1.1c0 .4-.1.7-.3 1-.4.3-.9.6-1.4.9l-12.9 6c-.1.2-.1.4 0 .6l6.6 2.5-6.6 3.1c-.1 0-.1.1-.1.2 0 .2 0 .3.1.3l12.1 4.7c.7.2 1.4.6 1.9 1.2.4.4.6.9.6 1.5 0 .1 0 .1.1.1s0 0 .1-.1zM9.4 389c0-.4 0-.8.1-1.2.1-.3.2-.5.5-.6.3-.1.7-.1 1.1-.1h11c.4 0 .7 0 1 .1.2.1.4.3.5.6.1.4.2.8.1 1.2 0 .1 0 .1.1.1s.1 0 .1-.1V382.8c0-.1 0-.1-.1-.1s-.1 0-.1.1c0 .4 0 .9-.1 1.3-.1.2-.3.4-.5.5-.3.1-.7.2-1.1.2h-4.9v-8.3H22c.4 0 .7.1 1.1.2.2.1.4.3.5.6.1.4.2.9.1 1.3h.3v-6.3h-.3c0 .4 0 .9-.1 1.3-.1.2-.3.4-.5.5-.3.1-.7.2-1 .2h-11c-.4 0-.7-.1-1.1-.2-.2-.1-.4-.3-.5-.5-.1-.4-.1-.9-.1-1.3 0-.1-.1-.1-.2-.1 0 0-.1 0-.1.1v6.3h.3c0-.4 0-.9.1-1.3.1-.3.2-.5.5-.6.3-.1.7-.2 1.1-.2h5.5v8.3h-5.5c-.4 0-.7-.1-1.1-.2-.2-.1-.4-.3-.5-.5-.1-.4-.1-.9-.1-1.3 0-.1 0-.1-.1-.1s-.1 0-.1.1v6.2c0 .1 0 .1.1.1s.1 0 .1-.1zm1.7 7.8h11c.4 0 .7.1 1.1.2.2.1.4.3.5.5.1.4.2.7.1 1.1 0 .1 0 .1.1.1s.1 0 .1-.1v-5.9c0-.1 0-.1-.1-.1s-.1 0-.1.1c0 .4 0 .8-.1 1.2-.1.2-.3.4-.5.5-.3.1-.7.1-1 .1h-11c-.4 0-.7 0-1.1-.1-.2-.1-.4-.3-.5-.5-.1-.4-.1-.8-.1-1.2 0-.1 0-.1-.1-.1s-.1 0-.1.1v5.9c0 .1 0 .1.1.1s.1 0 .1-.1c0-.4 0-.7.1-1.1 0-.3.2-.5.5-.5.2-.1.6-.2 1-.2zm10.4 8.7c.6 0 1.2.2 1.7.6.4.5.7 1.1.6 1.7 0 1-.4 1.9-1.2 2.5-.8.5-1.7.9-2.6 1.2 0 .1-.1.1 0 .2 0 .1 0 .1.1.1h3.2c.2 0 .4-.2.5-.4.2-.5.3-.9.4-1.4.1-.5.2-1.1.2-1.6 0-.8-.1-1.6-.4-2.3-.2-.7-.7-1.4-1.3-1.9-.6-.4-1.3-.7-2.1-.7-.6 0-1.2.2-1.8.5-.5.3-.9.7-1.3 1.1-.5.6-.9 1.2-1.3 1.8-.5.8-.9 1.4-1.3 1.9-.4.4-.8.8-1.3 1.1-.6.3-1.2.5-1.8.5-.7.1-1.4-.2-1.9-.7-.4-.5-.6-1.1-.6-1.7 0-1 .4-2 1.3-2.6 1-.8 2.1-1.4 3.2-1.9.1 0 .1 0 .1-.1s0-.1-.1-.1l-3.6.1c-.2 0-.4.1-.5.3-.3.5-.5 1-.6 1.6-.2.7-.3 1.4-.3 2.1 0 .9.2 1.8.5 2.6.3.7.8 1.4 1.5 1.8.7.4 1.4.6 2.2.6.6 0 1.3-.1 1.9-.4.5-.4.9-.8 1.3-1.2.4-.5.8-1.2 1.3-2 .5-.7.9-1.3 1.2-1.8.3-.4.7-.8 1.2-1.1.5-.3 1.1-.4 1.6-.4zM9.4 431.3c0-.4 0-.9.2-1.3.3-.5.7-1 1.1-1.3 1-.9 2-1.7 3.1-2.5l4.7-3.5 3.1 3c.6.7 1.2 1.5 1.6 2.3.4.8.6 1.6.6 2.4h.3v-6h-.3c0 .4 0 .8-.2 1.1-.1.2-.3.4-.6.4-.5-.1-.9-.4-1.2-.8l-4.7-4.7h5c.4 0 .7.1 1.1.2.2.1.4.3.5.5.1.4.2.7.1 1.1 0 .1 0 .1.1.1s.1 0 .1-.1V416.3h-.3c0 .4 0 .8-.1 1.2-.1.2-.3.4-.5.5-.3.1-.7.1-1 .1h-11c-.4 0-.7 0-1.1-.1-.2-.1-.4-.3-.5-.5-.1-.4-.1-.8-.1-1.2 0-.1-.1-.1-.2-.1 0 0-.1 0-.1.1v5.9c0 .1 0 .1.1.1s.1 0 .1-.1c0-.4 0-.7.1-1.1 0-.3.2-.5.5-.5.3-.1.7-.2 1.1-.2h5.2l.6.6-4.3 3.4-1.3 1c-.7.5-1.2.9-1.5 1.1-.2.2-.4.4-.5.6-.1.1-.2.3-.1.5v3.7h.3zm1.7 7h11c.4 0 .7.1 1.1.2.3 0 .5.2.5.5.1.4.2.7.1 1.1 0 .1 0 .1.1.1s.1 0 .1-.1v-6h-.3c0 .4 0 .8-.1 1.2-.1.3-.2.5-.5.6-.2 0-.6.1-1 .1h-11c-.5 0-.8-.1-1.1-.1-.2-.1-.4-.3-.5-.6-.1-.4-.1-.8-.1-1.2h-.3v6c0 .1 0 .1.1.1s.1 0 .1-.1c0-.4 0-.8.1-1.2.1-.2.2-.4.5-.5.3 0 .7-.1 1.2-.1zm13 21.9v-4.6h-.3c0 .6-.2 1.1-.7 1.5-.6.4-1.3.5-1.9.5h-8.5l10.1-8.7.8-.5c.1-.1.2-.2.4-.3.1-.1.1-.2.1-.3v-4.1h-.3c0 .4-.1.8-.3 1.1-.2.5-.6.9-1 1.2H12c-.7 0-1.4-.1-1.9-.5s-.7-1-.7-1.6c0-.1 0-.1-.1-.1s-.1 0-.1.1v4.7c0 .1 0 .1.1.1s.1 0 .1-.1c0-.6.2-1.1.7-1.4.6-.4 1.2-.6 1.9-.5h9.7l-13 11.2v.2c0 .1 0 .1.1.1h12.3c.7 0 1.4.1 1.9.5.4.4.7.9.7 1.5 0 .1 0 .1.1.1s.2 0 .3-.1zM8.9 472.4c0 1.8.3 3.6.7 5.4 0 .1 0 .1.1.2 0 .1.1.1.2.1.2-.1.4-.1.6-.1.5-.1 1-.1 1.5-.1.6 0 1.3 0 1.9.1.3 0 .5.1.7.2.1.2.2.5.2.7 0 .1.1.1.2.1 0 0 0-.1.1-.1 0-.9-.1-1.7-.1-2.5s0-1.9.1-3.2c0 0 0-.1-.1-.1h-.1c-.1 0-.2 0-.2.1 0 .6 0 1.1-.2 1.7-.1.3-.3.6-.7.7-.6.1-1.2.1-1.7.1-.6 0-1.2-.1-1.8-.2-.4-.2-.7-.5-.9-.9-.2-.5-.3-1.1-.2-1.6 0-1.3.3-2.5 1-3.6s1.6-1.9 2.8-2.4c1.2-.6 2.6-.9 3.9-.9 1.2 0 2.5.3 3.6.8 2 .9 3.3 2.9 3.2 5.1.1 1.3-.4 2.6-1.3 3.5-.7.8-1.7 1.5-2.8 1.8-.1 0-.1.1-.1.2s0 .1.1.1l3.1-.3h.4c.1-.1.1-.2.2-.3.3-.6.4-1.2.5-1.8.1-.8.2-1.6.2-2.4 0-1.6-.3-3.2-1-4.7-.6-1.3-1.5-2.5-2.7-3.3-1.2-.8-2.6-1.2-4.1-1.2-1.4 0-2.7.3-3.9 1-1.2.8-2.2 1.8-2.8 3.1-.3 1.4-.7 3.1-.6 4.7z"/><path id="ウィスキング" class="st0" d="M28.8 7.2 27 8.8c-2.8 0-5.7.2-8.5.6V4.7c-.2-.5.1-1 .5-1.2.3-.2.5-.4.6-.8-.1-.5-.4-1-.8-1.3-1.3-.6-2.6-1-4-1.4-1 .1-1.8.7-2.4 1.5 2.5.6 3.2 1.1 3.2 1.9V9.7h-.9c-.7.1-1.5.2-2.1.2l-2.8.3-1.2.1c-.1 0-.4 0-.7-.1l-.6-.4C4.8 8 4.8 8 4.3 8c-.6 0-2 .7-2 1.1v.1c.5.1 1 .3 1.4.7 1.1.7 1.1.7 1.1 2.2l.3 8.3v.4c0 .2 0 .5-.1.7-.1.2-.1.5-.1.7.1 1.1.9 1.9 2 2.1.6 0 1.2-.5 1.2-1.2v-.6l-.7-10.7c.3.4.7.8 1.2.9h.3c5.3-1.2 10.7-1.8 16.2-1.8h2.2c-3.5 13-8.6 20.5-17.7 25.6-.3.1-.6.3-.6.6 0 .2.2.4.4.4 1-.3 2-.7 2.9-1.2 5.6-3 10.2-7.5 13.3-13 2.1-3.5 3.7-7.2 4.8-11.1 1.7-.5 2-.6 2-1.2-.1-.5-.3-1-.7-1.3l-2.9-2.5zm-4.3 64.1c.7-.4.9-.6.9-.9 0-.3-.2-.5-1.2-.8 3-2.6 3-2.7 6.3-5.9 1.2-.2 1.6-.4 1.6-1s-.2-.9-1.9-2.3c-1.6-1.3-1.9-1.5-2.5-1.5-.6-.1-1.1.2-1.4.7 0 .2.2.4.4.5.6.3 1.1.8 1.3 1.4 0 .7-4.9 6-8.2 8.8-3.5 3-7.3 5.6-11.3 7.7-1.2.7-1.3.7-1.3 1 0 .2.2.4.4.5 1.8-.5 3.6-1.2 5.2-2.2 3.3-1.7 6.3-3.7 9.2-6l-.1 8.2V81l-.1 3.7c0 .3 0 .6-.1.9-.1.7-.2 1.2-.2 1.3.3.7 1 1.2 1.8 1.3.4-.1.8-.3 1.1-.6.2-.5.2-.9.2-1.4l-.1-14.9zm1.2 44.1-1.4 1.5-15.4 2.2c-1 .1-1 .1-1.1.1-.8 0-1.6-.7-2.4-2.1-1 1.4-1 1.4-1 1.8 0 .5.5 1.2 2.1 2.9.8.9 1 1 1.3 1 .5-.1.9-.3 1.2-.6.5-.4 1.1-.6 1.6-.7 2.1-.5 2.8-.6 4.6-1 2.8-.7 5.7-1.2 8.6-1.5-6.5 12.1-12.1 18.2-22.6 24.7-1.1.7-1.3.9-1.3 1.2 0 .2.2.4.5.4 1.5-.4 2.9-1 4.1-1.8 5.6-3.1 10.6-7.2 14.7-12.2 3.2 1.7 9.6 7.6 11 10.4.9 1.4 1.3 1.8 2 1.8.9-.1 1.6-.9 1.6-1.8 0-3.3-5.2-7.5-13.8-11.3 2.6-3.2 5-6.5 7.1-10l1.1-.2c.5 0 .9-.3 1-.8-.1-.5-.4-1-.8-1.3l-2.7-2.7zm-9 60.6-.9-4.6c0-.3-.1-.5-.1-.8 0-.2.1-.4.2-.6.2-.2.3-.5.3-.8-.1-.5-.5-.9-1-1-1.5-.6-3-1.1-4.6-1.4-.6 0-2.2 1.2-2.1 1.6v.1c2.7.4 3.8 1.2 4.3 3l1.3 5.2-7.5 2c-.6.2-1.1.3-1.7.4-.9 0-1.9-.7-3-1.9-.4.4-.6.9-.8 1.5 0 1 2.8 3.4 4.1 3.4.4 0 .4 0 1.6-.6 2.6-1.1 5.2-2.1 8-2.8l1.9 7.6c-2.8.7-4.3 1.2-6.5 1.8-5.1 1.6-5.1 1.6-6 1.6-.7 0-.7 0-2.9-1.6l-.2-.1c0-.1-.1-.1-.2-.2-.3.5-.5 1-.6 1.6 0 .5.2.8 1.4 1.8 1.3 1.2 2.1 1.8 2.7 1.8.6-.1 1.1-.4 1.6-.7 2.7-1.5 5.2-2.4 11.3-4.1l3 12.7c0 .8.7 1.4 1.4 1.4 1.1-.1 1.9-1 1.9-2-.1-.9-.3-1.7-.7-2.4-1.1-3-2.4-7.1-3.2-10.2 4.1-1 8.3-1.7 12.5-2h1c.4 0 .8.1 1.2 0 .9 0 1.4-.4 1.4-1.1 0-.7-.4-1.2-1.5-1.6-.9-.4-1.8-.8-2.7-1-.4.1-.8.3-1.1.7-.6.6-1.4.9-2.2 1-1.7.3-5.5 1.1-9.2 2l-2-7.6c3.1-.8 6.2-1.3 9.3-1.7h1.3c.5.1 1.1-.2 1.2-.7v-.2c0-.7-.5-1.2-1.6-1.7-.8-.3-1.6-.6-2.5-.7-.4.1-.7.3-.8.6-.2.3-.5.6-.8.8-.3 0-.9.2-1.3.3l-5.2 1.2zm-7.9 77.6c7-3.4 12.5-7.5 19.8-14.7 3.7-3.6 6.5-7 6.5-7.6 0-.2-.2-.4-.4-.5-.4.1-.7.3-.9.7C27.3 238 20 243.6 12 248.2c-1.9 1.1-3.9 2-5.9 2.7-.6 0-1.6-.7-2.9-2-.4.5-.6 1.1-.8 1.8 0 .5.3.8 1.9 2.4 1.6 1.6 2.6 2.3 3.3 2.3.4-.2.6-.4 1.2-1.8zm-6.6-27c2.9 1.6 5.2 4.1 6.4 7.2.7 1.8 1.1 2.2 1.8 2.2 1.2-.2 2-1.3 1.9-2.4 0-2.1-1.7-4.3-4.5-5.8-1.7-.9-3.5-1.5-5.3-1.9l-.3.7zm24.4 53.1c1.6 1.1 2.9 2.4 3.9 4.1.9 1.4 1.3 1.8 1.8 1.8.8-.2 1.4-.9 1.4-1.8 0-1.3-1.1-2.6-3.3-3.6-1.1-.6-2.4-1-3.6-1.2l-.2.7zm3.1-2.9c1.9.9 3.4 2.3 4.5 4 .2.6.8 1 1.4 1 .8-.1 1.4-.7 1.4-1.5 0-1.2-1.1-2.4-3.1-3.3-1.2-.6-2.6-.9-4-.9l-.2.7zm-4.2 7.8c-.8.1-1.6.2-2.3.2-.3 0-1.5 0-2.7.1l-2.7.1h-1.2c.5-.9.9-1.4 1.2-2 .2-.6.8-1.1 1.4-1.3.4-.1.7-.4.7-.8 0-.5-.3-.9-.7-1-2-1.4-3.4-2.2-4.1-2.2s-2.2.7-2.2 1c0 .1.1.1.1.2.2.1.4.2.7.3 1.2.6 1.7 1 1.7 1.3 0 .6-2.3 5.1-3.8 7.4-2.7 4.4-6.3 8.7-8.8 10.8-.7.6-.8.7-.8.9 0 .2.2.4.4.4.5 0 2.5-1.4 4.4-3.2 3.4-3 6.4-6.4 8.8-10.2l.7.7h.5c3-.6 6-.9 9.1-.9-4.8 11.5-10.7 18.7-20.4 24.7-.3.1-.6.4-.7.7 0 .3.2.5.5.5 1-.3 2-.8 2.9-1.4 7.4-4.4 11-7.6 14.9-13 2.1-3 4-6.3 5.5-9.6.2-.5.2-.5 1.1-.7.4 0 .8-.3.9-.7 0-.6-1.1-1.8-3.3-3.6l-1.8 1.3z"/></svg>
