<svg version="1.1" xmlns="http://www.w3.org/2000/svg" x="0" y="0" viewBox="0 0 60 260" width="60" height="260" xml:space="preserve"><style>.st0{fill-rule:evenodd;clip-rule:evenodd;fill:#fff}</style><path class="st0" d="M31.7 11.8c-.4.1-.9.1-1.3.1s-.8 0-1.2-.1h-1.1c-.5 0-.6 0-2.2.1l-.2-6.4V5c-.1-.5.1-.9.5-1.2.4-.2.6-.6.7-1.1 0-.8-.5-1.1-2.5-1.8-1.2-.5-1.2-.5-1.9-.8-.2 0-.4-.1-.7-.1-.4 0-.7.2-2.1 1.4.4.1.7.3 1 .5 2.1 1 2.1 1 2.2 1.8 0 .2 0 .7.1 1.8l.1 6.7c-5.2.4-6.9.6-9.4.9l.1-5.1v-.9c.1-.2.2-.3.3-.5.4-.3.6-.6.7-1.1 0-.5-1-1.2-2.6-1.8-.7-.5-1.6-.7-2.5-.8-.3 0-.5.1-1.8 1.4 2.5.8 3 1 3.1 1.4.1.1.1.3.1 2.2l.1 5.4c-1.7.2-1.7.2-2.1.3-1.4.2-2.9.4-4.3.4-1.3 0-1.6-.2-3.4-2.2l-.4-.3c-.4.5-.8 1.1-1 1.7.4.9 1 1.8 1.8 2.5C3 17.1 3.6 17.6 4 17.6c.2 0 .3-.1.4-.1 2.1-1 4.4-1.7 6.7-2v6.2c0 .6-.1 1.2-.3 1.8-.1.3-.2.6-.2.9.2 1.1 1.2 2 2.3 2.1.6-.1 1.1-.6 1-1.2v-.1L13.7 15c4.9-.6 6.6-.7 9.3-.9.1 10.9-2.8 16.4-11.6 22-.9.5-1.1.7-1.1 1 0 .2.2.4.4.4 1.2-.4 2.3-.9 3.4-1.5 5.7-3.1 9-6.8 10.6-12 .7-2.3.9-3.4 1.2-9.9 2.9-.1 5.7.1 8.6.7.8.2 1.7.3 2.6.4.4 0 .7-.3.7-.7 0-1.2-.7-1.8-4.2-3.6l-1.9.9zm-9.8 60.3c1.1-.7 1.2-.9 1.2-1.3 0-.5-.3-.6-1.6-1 1.7-1.5 2.9-2.6 6.9-6.4l.9-.8c1.8-.6 2.3-.8 2.3-1.5 0-.8-1.1-2-2.9-3.2-1.7-1.2-1.9-1.2-2.2-1.2-.4 0-.7.2-1 .4-.2.1-.4.2-.7.3-.1 0-.2.1-.2.2s-.1.2 0 .2c1.3.5 2.2 1.3 2.2 2-.1.4-.3.8-.7 1.1-.4.5-.8.9-1.2 1.3-7.4 8.2-15.9 15-23.4 18.7-1.3.7-1.4.8-1.4 1.1 0 .3.2.5.5.5 2-.7 3.9-1.5 5.8-2.5 4.4-2.3 8.6-5 12.5-8.1v9.8c0 5.5-.1 7.3-.6 9.1-.1.2-.1.4-.1.6.2 1 1.1 1.6 2 1.7.8 0 1.5-.6 1.5-1.5v-.2l.2-19.3zm5.6 41.9c1.9 1.1 3.4 2.7 4.5 4.6.1.5.5.8 1 .8.8 0 1.4-.7 1.4-1.5 0-1.2-.7-2-2.4-3.1-1.3-.8-2.8-1.4-4.4-1.6l-.1.8zm3.7-2.5c1.7.8 3.2 2 4.2 3.6.3.6.8.9 1.4.9.8 0 1.3-.7 1.3-1.5 0-1.1-1.3-2.3-3.6-3.2-1-.4-2.1-.6-3.3-.6v.8zm-4.5 7.5-8.2.6h-.2c-.5 0-1-.1-1.4-.1.3-.6.3-.7.6-1.1l.6-1.2c.1-.4.4-.7.8-.8.3 0 .6-.3.6-.7 0-.6-.4-1-1.9-2-1-.6-2-1.1-3.2-1.4-.3 0-.7.3-2 1.3.7.3.9.5 1.5.7.6.1 1.1.7 1.2 1.3 0 .7-1.9 4.7-3.7 7.7-2 3.8-4.6 7.2-7.6 10.3-.8.8-1 1-1 1.3 0 .2.1.3.3.4 1 0 5.9-4.6 8.4-7.9 3.2 1.2 6.2 2.9 8.9 5.1-3.9 5.8-8.9 10.7-14.8 14.5-1.2.7-1.3.8-1.3 1.1 0 .2.2.4.5.4.7 0 2.6-1 5.3-2.8 4.6-3 8.7-6.8 12-11.2.5.5 1 1 1.4 1.6.9 1.1 1.2 1.4 1.9 1.4.8 0 1.5-.6 1.6-1.4 0-1.2-.7-2.1-3-4.2 1.9-3 3.7-6.1 5.3-9.2 1.8-.6 2.1-.7 2.1-1.1 0-.4-1.1-1.6-3.5-3.8l-1.2 1.2zm-.1 1.9c-1.3 3.2-2.9 6.3-4.6 9.3-3-1.7-6.2-3-9.6-3.8 1.3-1.7 2.5-3.4 3.5-5.3.2.4.5.6.9.6.2 0 .6-.1.9-.1 2.9-.4 5.9-.7 8.9-.7zm.3 52.4c.4-.4.7-.9.8-1.4 0-.4-.4-.8-1.2-1.2-1.3-.7-2.6-1.2-4-1.5-.6 0-1 .3-2 1.5 1.9.5 3.3 1.3 3.3 1.8v9.4c-.4 8.2-1.5 12.3-4.6 15.7-2.5 2.7-5.5 4.8-9 6.1-2 .9-2.1.9-2.1 1.3 0 .2.2.4.4.4 1.5-.3 2.9-.8 4.3-1.4 4.6-1.8 8.5-4.7 10.4-7.6 2-3.1 3.3-8.7 3.4-14.2l.3-8.9zm-16.5 2.1v12.2c0 .4 0 .8-.1 1.1-.1.5-.2.9-.2.9.2 1 1 1.8 2 2 .7 0 1.3-.6 1.3-1.4 0-.5-.1-1-.1-1.4-.1-.7-.1-1.4-.1-2v-11.9c.6-.3 1-.8 1.2-1.4-.1-.4-.4-.7-.7-.8-1.2-.8-2.6-1.4-4-1.7-.6 0-1.1.4-1.9 1.5 2.3.9 2.6 1.2 2.6 1.9v1zm9.5 53.5c.9-.7 1-.9 1-1.2 0-.8-3.4-3.1-4.6-3.1-.8 0-1.5.5-1.8 1.2 2.2.8 2.5 1.2 2.5 3l-.1 23.4c0 3.4-.1 4.3-.3 4.9-.1.3-.2.6-.2.9.3 1.1 1.2 1.9 2.4 2 .8 0 1.4-1 1.4-2.5v-1.9c0-.6 0-1.1-.1-1.5l-.2-25.2z"/><path class="st0" d="M60 10.3c0-1.6-.3-3.2-1-4.6-.6-1.3-1.6-2.5-2.8-3.3-1.2-.8-2.6-1.2-4.1-1.2-1.4 0-2.9.4-4.1 1.1-1.2.8-2.2 1.9-2.8 3.2-.7 1.5-1 3-1 4.6 0 1.6.3 3.2.9 4.6 0 .1.1.2.2.3.1.1.2.1.4.1l2.9.3s.1 0 .1-.1v-.1c-1.1-.4-2.2-1.2-3-2.1-.6-.8-1-1.9-.9-3 0-1.1.3-2.3.9-3.2.7-1 1.6-1.8 2.7-2.3 1.2-.6 2.5-.9 3.9-.8 1.3 0 2.7.2 3.9.8 1 .5 1.9 1.2 2.5 2.2.6.9.9 2.1.9 3.2s-.3 2.2-1 3.1c-.8.9-1.9 1.6-3 1.9-.1 0-.1.1-.1.2s0 .1.1.1l3.2-.3c.1 0 .3 0 .4-.1l.2-.2c.4-1.4.6-2.9.6-4.4zM46.5 23.8h11.2c.4 0 .7 0 1.1.1.2.1.4.3.5.5.1.4.2.8.1 1.2 0 .1 0 .1.1.1s.1 0 .1-.1v-6.1c0-.1 0-.1-.1-.1s-.1 0-.1.1c0 .4 0 .8-.1 1.2-.1.2-.2.4-.5.5-.3.1-.7.2-1.1.1H46.5c-.4 0-.7 0-1.1-.1-.2 0-.4-.2-.4-.5-.1-.4-.1-.8-.1-1.2 0-.1 0-.1-.1-.1s-.1 0-.1.1V25.6c0 .1 0 .1.1.1s.1 0 .1-.1c0-.4 0-.8.1-1.2.1-.2.2-.4.5-.5.3-.1.7-.2 1-.1zm-2 12.5c0 1.4.3 2.8 1 4.1.6 1.2 1.6 2.2 2.8 2.9 1.3.7 2.7 1.1 4.2 1.1 1.3 0 2.6-.3 3.8-1.1 1.1-.7 2.1-1.8 2.6-3 .7-1.4 1-2.9 1-4.4v-1.6c0-.7-.1-1.3-.1-2v-3s0-.1-.1-.1-.1 0-.1.1c0 .4 0 .8-.1 1.2-.1.2-.2.4-.5.5-.3.1-.7.2-1.1.1H46.5c-.4 0-.7 0-1.1-.1-.2-.1-.4-.3-.5-.5-.1-.4-.1-.8-.1-1.2h-.2v5.2c-.1.7-.1 1.3-.1 1.8zm.5-.3c-.1-.7.1-1.4.4-2 .4-.4.9-.6 1.4-.5h10.9c.4 0 .7.1 1 .3.2.2.4.5.4.8.1.5.1 1.1.1 1.6 0 1.1-.3 2.1-1 2.9-.7.9-1.6 1.5-2.7 2-1.2.5-2.5.7-3.8.7-1.3 0-2.6-.2-3.7-.7-1-.4-1.8-1.1-2.4-2-.4-1-.7-2-.6-3.1zm3.4 23.3c-1.9-.4-3.3-2.2-3.2-4.1V54c0-.4.1-.8.3-1.1.3-.2.7-.3 1.1-.3h5.5v2.3c0 1.8-.7 2.7-2.1 2.7V57.9c.3 0 .7 0 1.3-.1h3.2s.1 0 .1-.1 0-.1-.1-.1c-1.2 0-1.8-.9-1.8-2.7v-2.3h5c.4 0 .8.1 1.1.4.2.4.4.8.3 1.2v1c.1 1.7-1.1 3.2-2.8 3.4 0 0-.1.1 0 .2 0 .1 0 .1.1.1h3.2c.1 0 .2-.1.2-.2V48.4c0-.1 0-.1-.1-.1s-.1 0-.1.1c0 .4 0 .8-.1 1.2-.1.2-.2.4-.5.5-.3.1-.7.2-1.1.1H46.5c-.4 0-.7 0-1.1-.1-.2-.1-.4-.3-.4-.5-.1-.4-.1-.8-.1-1.2 0-.1 0-.1-.1-.1s-.1 0-.1.1V59c0 .1 0 .2.1.3.1.1.2.1.3.1 1.1 0 2.3.1 3.4.2 0 0 .1 0 .1-.1v-.1l-.2-.1zm-3.5 20.2c0-.7.3-1.5.7-2 .7-.9 1.5-1.7 2.4-2.4 1.1-.9 2.6-2 4.6-3.3.4.8 1 1.5 1.7 2s1.5.8 2.4.7c.9 0 1.8-.4 2.3-1.2.6-1 .9-2.1.8-3.3v-1.8c0-.6-.1-1.2-.1-1.7v-3h-.2c0 .4 0 .8-.1 1.2-.1.2-.2.4-.5.5-.3.1-.7.1-1.1.1H46.5c-.4 0-.7 0-1.1-.2-.2 0-.4-.1-.4-.4-.1-.4-.1-.8-.1-1.2 0-.1 0-.1-.1-.1s-.1 0-.1.1V69.6h.2c0-.4 0-.8.1-1.2.1-.2.2-.4.5-.5.4-.1.7-.1 1.1-.1H52v2.1c-1.9 1.1-3.7 2.4-5.4 3.7-1.3 1-1.9 1.7-1.9 2.1v3.9c0 .1 0 .1.1.1s.1-.2.1-.2zm7.7-11.8h5.1c.5-.1.9.1 1.3.4.3.4.4.9.4 1.3 0 .7-.2 1.4-.8 1.9-.8.5-1.8.8-2.7.7-.9.1-1.8-.2-2.5-.7-.6-.6-.9-1.4-.8-2.3-.1-.3-.1-.8 0-1.3zm7.1 28.5v-5.1s0-.1-.1-.1-.1 0-.1.1c.1.6-.2 1.2-.8 1.3h-.3c-.6 0-1.2-.3-1.7-.6l-4-2.5 5.4-3.5c.2-.2.5-.3.8-.3.5 0 .7.3.7 1h.2V81.1s0-.1-.1-.1-.1 0-.1.1c0 .4-.2.8-.5 1.2-.5.6-1.1 1-1.8 1.4l-5.6 3.7h-5c-.4 0-.7 0-1.1-.2-.2-.1-.4-.3-.5-.5-.1-.4-.1-.8-.1-1.2 0 0 0-.1-.1-.1s-.1 0-.1.1V91.6c0 .1 0 .1.1.1s.1 0 .1-.1c0-.4 0-.8.1-1.2.1-.2.2-.4.5-.5.4-.1.7-.2 1.1-.1H52l4.5 2.8c.8.5 1.5 1.1 2.1 1.8.5.5.8 1.1.8 1.8H59.7z"/></svg>
