<svg version="1.1" id="ttl-access-01-pc.svg" xmlns="http://www.w3.org/2000/svg" x="0" y="0" viewBox="0 0 50 155" width="50" height="155" style="enable-background:new 0 0 50 155" xml:space="preserve"><style>.st0{fill-rule:evenodd;clip-rule:evenodd;fill:#fff}</style><path id="アクセス" class="st0" d="M24.7 5.6c1.1-.7 1.9-1.2 2.6-1.6h.6c.9 0 1.2-.2 1.2-.6s-.3-.8-1.5-1.8c-.5-.4-1-.9-1.6-1.3l-1.3 1c-6.9.5-8 .6-13.9 1.2-1.4.3-2.7.4-4.1.5-.4.1-.7.2-.9.2-.2 0-.4.1-.6.1-.7 0-1.3-.5-2-1.5-.6.2-1 .8-.9 1.4 0 .3.5.9 1.6 2 .3.4.8.8 1.3 1 .1 0 .2-.1.3-.2 2.3-1.4 5.7-1.9 18.8-3-2.5 2.2-3.6 3.1-7 5.7-1.2-1-2.5-1.8-4-2.2-1.2.9-1.3 1-1.3 1.2 0 .2.1.2.5.3 1.4.3 1.9.9 1.9 1.9-.1 3-.8 6-1.9 8.8-1.4 2.8-3.6 5.2-6.3 6.8-.3.1-.5.3-.6.6 0 .2.1.3.3.3.6 0 3.9-2.2 5.4-3.6 3.3-3 4.9-6.8 5.4-12.6C19 9 19.4 8.8 22.4 7l2.3-1.4zm-3.1 42.1c-.5.1-.8.1-1 .1l-2.6.1-2.1.1h-1.3c.3-.5.4-.7.7-1.1.3-.6.4-.8.5-.8.2-.2.4-.4.7-.5.4 0 .7-.3.8-.7-.1-.5-.4-.9-.9-1-2.4-1.5-2.4-1.5-2.9-1.5-.7.1-1.3.4-1.8.8 0 .1.1.2.5.4.6.1 1.1.5 1.4 1.1C11.4 50.1 8 55 3.7 58.9c-.3.1-.5.4-.6.8 0 .2.1.3.3.3 1.3-.6 2.5-1.5 3.5-2.5 2.7-2.3 5-5 6.9-8l.5.5c2.5-.5 5-.7 7.5-.7-3.7 9-8.5 14.7-16.1 19.4-.3.1-.4.3-.5.5 0 .2.2.4.4.4 1.2-.6 2.4-1.3 3.6-2.1 4.8-3 7.2-5.2 10-8.9 1.8-2.6 3.5-5.3 4.8-8.2.1-.3.3-.6.6-.6.8-.3 1.1-.4 1.1-.7-.1-.3-.3-.7-.6-.9-.2-.1-.3-.3-.5-.4-.5-.5-1-1-1.7-1.3l-1.3 1.2zm-9.5 45.9.2-3.8c0-.4.2-.7.5-1 .3-.2.5-.5.5-.9-.1-.4-.4-.6-.8-.7-2.1-1.2-3.1-1.6-3.9-1.6-.4 0-.6.1-1.3 1.2 2.3.8 2.8 1.2 2.8 2v1.4L9.9 94l-6 1.1c-.9.2-1.3.3-1.3.3-.3 0-.5-.2-2-1.7-.3.5-.5 1-.6 1.5.1.4.3.8.7 1 .3.2.5.5.7.8 1 1.1 1.4 1.4 1.8 1.4.4-.1.7-.2.9-.5.6-.6 1.9-1.1 5.8-2l-.2 6.9v1.2c0 3.2.3 4.4 1.4 5.2 1.2.7 3.5 1.1 8.1 1.1 1.9.1 3.8-.1 5.6-.5.5-.1.8-.5.9-1-.1-.8-.8-1.5-1.7-1.6-.4 0-.8.2-1.2.3-1.4.5-2.7.6-5.8.6-5.1 0-5.3-.2-5.3-4.6v-1.6l.3-6.6 1.2-.2c3.2-.7 6.5-1.3 9.7-1.7-2.5 3.1-5.3 5.9-8.4 8.5l.3.4c3.7-2.1 7.2-4.6 10.4-7.5.2-.2.3-.3.5-.4h.7c.9 0 1.4-.2 1.4-.6 0-.5-1.5-2-3.1-3l-1 .9-11.6 1.9zm9.6 38-1.1 1.2-12.1 1.7c-.8.1-.8.1-.9.1-.6 0-1.3-.5-1.9-1.7C5 134 5 134 5 134.3c0 .4.4.9 1.7 2.3.6.7.8.8 1 .8.4 0 .7-.2 1-.4.4-.3.8-.5 1.3-.6 1.7-.4 2.2-.5 3.6-.8 2.2-.6 4.5-1 6.8-1.2-5.1 9.5-9.5 14.3-17.8 19.3-.9.5-1 .7-1 .9 0 .2.2.3.4.3 1.2-.3 2.2-.8 3.2-1.4 4.4-2.4 8.4-5.7 11.6-9.6 2.6 1.3 7.5 6 8.7 8.1.7 1.1 1 1.4 1.6 1.4.7-.1 1.3-.7 1.2-1.4 0-2.6-4.1-5.9-10.9-8.9 2-2.5 3.9-5.1 5.6-7.9l.9-.2c.4 0 .7-.2.8-.6-.1-.4-.3-.8-.6-1l-2.4-1.8z"/><path id="ACCESS" class="st0" d="M41.3 10.1c0-.3.1-.5.4-.7.3-.4.8-.6 1.3-.8l6.9-3.4c.1-.1.1-.2.1-.2v-.1l-6.8-3-1.2-.6c-.2-.1-.4-.3-.6-.5-.1-.2-.2-.4-.2-.7l-.1-.1s-.1 0-.1.1v3.2l.1.1s.1 0 .1-.1c0-.3.1-.7.3-1 .2-.2.5-.3.7-.3.3 0 .5.1.8.2l1.5.7v3.4l-2.2 1.1c-.2.1-.5.2-.7.2-.1 0-.3-.1-.3-.2-.1-.2-.1-.4-.1-.6 0 0 0-.1-.1-.1s-.1 0-.1.1v3.3c.1 0 .1.1.3 0-.1 0-.1 0 0 0zm6.8-5.6-3.3 1.6V3l3.3 1.5zM50 17.4c0-.9-.2-1.8-.6-2.7-.4-.8-.9-1.4-1.6-1.9-.7-.5-1.5-.7-2.4-.7-.8 0-1.7.2-2.4.7-.7.4-1.3 1.1-1.6 1.8-.4.8-.6 1.8-.6 2.7 0 .9.2 1.8.5 2.7 0 .1.1.1.1.1.1 0 .1.1.2 0l1.7.2v-.2c-.7-.3-1.3-.7-1.7-1.2-.4-.5-.6-1.1-.5-1.7 0-.7.2-1.3.5-1.9.4-.6.9-1 1.5-1.3.7-.3 1.5-.5 2.2-.5.8 0 1.5.1 2.2.5.6.3 1.1.7 1.5 1.3.3.5.5 1.2.5 1.8 0 .7-.2 1.3-.6 1.8-.5.5-1.1.9-1.8 1.1 0 0-.1.1 0 .1 0 0 0 .1.1.1l1.9-.2h.2l.1-.1c.5-.8.6-1.6.6-2.5zm0 11c0-.9-.2-1.8-.6-2.7-.4-.8-.9-1.4-1.6-1.9-.7-.5-1.5-.7-2.4-.7-.8 0-1.7.2-2.4.7-.7.4-1.3 1.1-1.6 1.8-.4.8-.6 1.8-.6 2.7 0 .9.2 1.8.5 2.7 0 .1.1.1.1.2h.2l1.7.2v-.2c-.7-.3-1.2-.7-1.7-1.2-.4-.5-.6-1.1-.5-1.7 0-.7.2-1.3.5-1.9.4-.6.9-1 1.5-1.3.7-.3 1.5-.5 2.2-.5.8 0 1.5.1 2.2.4.6.3 1.1.7 1.5 1.3.3.5.5 1.2.5 1.8 0 .7-.2 1.3-.6 1.8-.5.5-1.1.9-1.8 1.1 0 0-.1.1 0 .1 0 0 0 .1.1.1l1.9-.2h.2l.1-.1c.5-.8.6-1.6.6-2.5zm-6.7 11.9c-1.1-.2-1.9-1.2-1.8-2.4v-.7c0-.2 0-.5.2-.6.2-.1.4-.2.6-.2h3.2v1.3c0 1-.4 1.6-1.2 1.6v.2H46.9v-.2c-.7 0-1-.5-1-1.5v-1.3h2.9c.2 0 .5.1.6.2.1.2.2.5.2.7v.6c.1 1-.6 1.8-1.6 2v.2h1.8c.1 0 .1 0 .1-.1v-5.8h-.2c0 .2 0 .5-.1.7 0 .1-.1.2-.3.3-.2.1-.4.1-.6.1h-6.5c-.2 0-.4 0-.6-.1-.1 0-.2-.2-.3-.3-.1-.2-.1-.5-.1-.7H41v6.3h.2c.7 0 1.3.1 1.9.1.2-.3.2-.3.2-.4zm5.1 4.6c.4 0 .7.1 1 .4.3.3.4.6.4 1 0 .6-.2 1.1-.7 1.4-.5.3-1 .6-1.5.8v.1s0 .1.1.1h1.9c.1 0 .2-.1.3-.2.1-.3.2-.5.2-.8.1-.3.1-.6.1-1 0-.5-.1-.9-.2-1.4-.1-.4-.4-.8-.7-1.1-.4-.3-.8-.4-1.2-.4-.4 0-.7.1-1 .3-.3.2-.5.4-.7.7-.3.3-.5.7-.7 1.1-.3.5-.6.8-.8 1.1-.2.3-.5.5-.8.7-.3.2-.7.3-1.1.3-.4 0-.8-.1-1.1-.4-.2-.3-.3-.6-.3-1 0-.6.3-1.2.7-1.5.6-.4 1.2-.8 1.9-1.1 0 0 .1-.1 0-.1 0 0 0-.1-.1-.1l-2.1.1c-.1 0-.2 0-.3.1-.2.3-.3.6-.4.9-.1.4-.2.8-.2 1.2 0 .5.1 1.1.3 1.6.2.4.5.8.9 1.1.4.3.8.4 1.3.4.4 0 .8-.1 1.1-.3.3-.2.6-.4.8-.7.2-.3.5-.7.8-1.1.3-.4.5-.8.7-1.1.2-.3.4-.5.7-.6 0-.5.3-.6.7-.5zm0 8.5c.4 0 .7.1 1 .4.3.3.4.6.4 1 0 .6-.2 1.1-.7 1.4-.5.3-1 .6-1.5.8v.1c0 .1 0 .1.1.1h1.9c.1 0 .2-.1.3-.2.1-.3.2-.5.2-.8.1-.3.1-.6.1-1 0-.5-.1-.9-.2-1.4-.1-.4-.4-.8-.7-1.1-.4-.3-.8-.4-1.2-.4-.4 0-.7.1-1 .3-.3.2-.5.4-.7.6-.2.3-.4.6-.7 1.1-.3.5-.6.8-.8 1.1-.2.3-.5.5-.8.7-.3.2-.7.3-1.1.3-.4 0-.8-.1-1.1-.4-.2-.3-.3-.6-.3-1 0-.6.3-1.2.7-1.5.6-.4 1.2-.8 1.9-1.1 0 0 .1-.1 0-.1h-.1l-2.1.1c-.1 0-.2.1-.3.1-.2.3-.3.6-.4 1-.1.4-.2.8-.2 1.2 0 .5.1 1.1.3 1.6.2.4.5.8.9 1.1.4.2.8.4 1.3.4.4 0 .8-.1 1.1-.3.3-.2.6-.4.8-.7.2-.3.5-.7.8-1.1.3-.4.5-.8.7-1 .2-.3.4-.5.7-.6 0-.6.3-.7.7-.7z"/></svg>
