<svg version="1.1" xmlns="http://www.w3.org/2000/svg" x="0" y="0" viewBox="0 0 48 317" width="48" height="317" style="enable-background:new 0 0 48 317" xml:space="preserve"><style>.st0{fill-rule:evenodd;clip-rule:evenodd;fill:#fff}</style><path class="st0" d="M39 10.1c0-.3.1-.5.4-.7.4-.3.9-.6 1.4-.8l6.9-3.4s.1-.1 0-.1V5l-6.8-3-1.2-.6c-.2-.1-.4-.3-.6-.5-.1-.4-.1-.6-.1-.8 0-.1-.1-.1-.1-.1s-.1 0-.1.1v3.2s0 .1.1.1c0 0 .1 0 .1-.1 0-.3.1-.7.3-1 .1-.2.4-.3.7-.3.3 0 .5.1.8.2l1.5.7v3.4l-2.2 1.1c-.2.1-.5.2-.7.2-.1 0-.3-.1-.3-.2-.1-.2-.1-.4-.1-.6 0 0 0-.1-.1-.1h-.1V10s0 .1.1.1c0 .1 0 .1.1 0-.1.1 0 0 0 0zm6.9-5.6-3.3 1.6V3l3.3 1.5zm-2.2 11.9c.2.5.5.9.9 1.2.3.3.8.4 1.2.4.5 0 1-.2 1.3-.7.4-.6.5-1.2.5-1.9V12h-.2c0 .2 0 .5-.1.7 0 .1-.1.3-.3.3-.2.1-.4.1-.6.1h-6.5c-.2 0-.4 0-.6-.1l-.3-.3v-.6h-.2V15.8c0 .5.1 1.1.3 1.6.2.4.5.8.9 1.1.4.3.9.4 1.3.4.6 0 1.2-.2 1.6-.7.5-.5.8-1.1.8-1.8zm3.7-1.1c0 .4-.1.8-.4 1.1-.4.3-.8.4-1.2.4-.5 0-1-.1-1.4-.4-.4-.3-.6-.8-.5-1.3v-.6h2.7c.3 0 .5 0 .7.2 0 .1.1.4.1.6zm-8.3.3c0-.2 0-.5.1-.7 0-.1.1-.3.3-.3.2-.1.3-.1.5-.1h3.4v.8c0 .6-.2 1.2-.6 1.6-.5.4-1.1.6-1.7.6-.9.1-1.8-.5-2-1.4-.1-.2-.1-.3 0-.5zm-.5 10.6c0 .9.2 1.7.6 2.4.4.7 1 1.4 1.7 1.8.7.4 1.5.7 2.3.7.8 0 1.5-.2 2.2-.5.7-.4 1.3-.9 1.7-1.5.4-.7.6-1.5.6-2.3 0-.8-.2-1.6-.5-2.3-.3-.8-.9-1.4-1.5-1.9-.7-.5-1.6-.8-2.5-.7-.8 0-1.6.2-2.3.6-.7.4-1.3.9-1.7 1.6-.4.5-.6 1.3-.6 2.1zm.4.5c0-.6.2-1.3.6-1.8.4-.6 1-1 1.7-1.2.8-.3 1.6-.5 2.4-.4 1-.1 1.9.2 2.7.8.7.5 1 1.3 1 2.1 0 .7-.2 1.3-.6 1.9-.4.5-1 1-1.6 1.2-.7.3-1.5.4-2.3.4-.7 0-1.4-.1-2.1-.4-.5-.2-1-.6-1.3-1.1-.4-.4-.5-1-.5-1.5zm6.9 14.6H42c-.8.1-1.5-.2-2.1-.7-1-1.1-1-2.8.1-3.8.7-.5 1.6-.8 2.5-.7h4c.2 0 .4 0 .6.1l.3.3c.1.2.1.5.1.7h.2V33.8h-.2c0 .2 0 .5-.1.7 0 .1-.1.2-.3.3-.2.1-.4.1-.6.1H42c-.6 0-1.2.1-1.8.4-.5.3-.9.7-1.2 1.2-.3.6-.4 1.2-.4 1.8 0 .6.1 1.2.4 1.8.3.5.7.9 1.2 1.2.5.3 1.2.4 1.8.4h3.9c.4 0 .8.1 1.1.3.3.2.4.5.4.8h.2V40h-.2c0 .4-.1.7-.4.9-.3.3-.7.4-1.1.4zm1.4 6.2c0 .2 0 .4-.1.6 0 .1-.1.2-.2.3-.2.1-.4.1-.5.1H40c-.2 0-.4 0-.6-.1-.1-.1-.2-.2-.3-.4-.1-.4-.1-.6-.1-.9h-.2V51h.2c0-.3 0-.5.1-.8 0-.1.1-.3.3-.3.2-.1.4-.1.6-.1h6.5c.2 0 .4 0 .6.1.1 0 .2.1.2.3.1.2.1.4.1.6 0 .5-.2 1-.5 1.4-.4.4-1 .6-1.6.7v.2h1.4c.6 0 1 .1 1.3.1 0 0 .1 0 .1-.1 0 0 0-.1-.1-.1s-.3-.2-.3-.3c-.1-.3-.1-.5-.1-.8v-5.6c0-.5.1-.8.3-.8 0 0 .1 0 .1-.1 0 0 0-.1-.1-.1-.3 0-.7 0-1.3-.1s-1-.1-1.4-.1v.2c.6.1 1.2.4 1.6.9.3.2.5.7.5 1.3z"/><path class="st0" d="M11.5 1.9C7.1 3.6 5 4.3 4.4 4.3c-.9-.2-1.7-.7-2.3-1.4-.3.2-.6.6-.7 1 .1.3.4.6.6.8 1.4 1.5 2 1.8 2.7 1.8.6-.1 1.2-.3 1.7-.7 1.3-.9 2.8-1.5 4.4-1.9-1.3 1.4-2.5 3-3.6 4.7-1.6 2.8-2.5 6-2.6 9.2 0 5.6 3.4 9.2 8.6 9.2 3.1.1 6.1-1.4 7.9-3.9 1.6-2.2 2.5-5.5 2.5-9.5 0-2.2-.1-3.1-.9-7.9 1.4 3 3 5.9 4.9 8.7 1.8 2.8 2.6 3.6 3.4 3.6.8 0 1.4-.7 1.3-1.5v-.1c0-.6-.1-.8-.8-1.4-4.1-3.7-7.7-9.4-8.3-12.9 0-.3-.1-.5-.3-.7-.6-.4-1.3-.6-1.9-.6-.5-.1-.9.3-1 .7v.2c0 .7.3 1.3.7 1.8.5 1 .8 2 .9 3.1.2 1.9.4 3.6.4 5.4 0 7.9-3.2 12.7-8.6 12.7-4.3 0-7-3.1-7-8 0-3.6 1.4-7 4.5-10.6.9-1.2 2-2.2 3.3-3 .7-.3.9-.5.9-.9s-.2-.8-.6-1.1c-.7-.3-1.4-.5-2.1-.5l-.9 1.3zm9.4 39.7c1.3 1.1 2.3 2.4 3.1 3.9.1.4.4.7.8.7.7 0 1.2-.6 1.2-1.2 0-1.4-1.5-2.6-4.8-3.8l-.3.4zm3.2-1.8c1.5.7 2.6 1.8 3.4 3.3.7 1.2.8 1.2 1.1 1.2.7-.1 1.2-.6 1.2-1.3 0-1.8-2.5-3.4-5.6-3.5l-.1.3zM.8 51c-.5.5-.8 1.2-.8 1.9 0 .3 0 .3.9 1 1.7 1.4 2.4 1.9 3.1 1.9.6 0 .8-.2 2.1-1.5 1.8-1.8 3.7-3.3 5.9-4.5 2.1-1.4 4.5-2.2 7.1-2.3 2.3 0 4.5.8 6.3 2.3 1.3 1.3 2.1 3.1 2.1 5 0 3.1-2.1 6.1-5.6 7.7-2.7 1.2-5.6 1.9-8.6 2.1-.7.1-.9.2-.9.4s.2.4.6.4c2.8-.1 5.6-.5 8.3-1.3 5.8-1.7 9-5 9-9.1-.1-2.5-1.2-4.8-3.1-6.3-2.1-1.8-4.9-2.7-7.6-2.6-3.1 0-6.1.8-8.9 2.3-2.3 1.2-4.6 2.5-6.8 3.9-.3.2-.6.4-1 .4-.4.1-1.2-.6-2.1-1.7zm12.5 49.7c1.9-3.3 3.5-6.7 4.7-10.3 1.4-.1 2.7.2 4 .7 3 1.2 5 4.1 5.1 7.3 0 4.7-3.6 8.3-10.5 10.6-1.2.4-1.2.4-1.2.7 0 .2.2.4.4.4.1 0 .2 0 .4-.1.3 0 .5-.1.8-.2 2.1-.4 4.2-1.1 6.2-2 4.3-2.1 6.8-5.5 6.8-9.5 0-3.7-2.2-6.7-6.1-8.2-1.7-.7-3.5-.9-5.3-.9l.8-2.2c.2-.5.5-.9.9-1.2.1-.1.2-.2.2-.3 0-1-2.6-3.3-3.8-3.3-.6 0-1.1.4-1.2.9 1.1.5 1.9 1.2 1.9 1.7l-.3 1.5-.8 3c-2.7.5-5.3 1.7-7.5 3.4-.5-1.4-.9-2.9-.9-4.4v-.8c0-.6-.8-1.2-2.7-1.9-.1-.1-.3-.1-.4-.1-.1-.1-.2-.1-.3-.1-.6.2-1.1.5-1.4 1 1.6.6 1.9.9 2.1 1.6l2.1 6.1c-.8.7-1.5 1.5-2.2 2.3-1.7 2.1-2.6 4.6-2.7 7.3 0 2.5 1.3 4.2 3.1 4.2 2.1 0 4.5-1.8 6.7-5 1.2 1.2 1.9 1.7 2.4 1.7.6-.1 1-.6.9-1.2 0-.7-.1-.9-1.6-2.2l-.6-.5zm-5.7-5.5c.9 2.1 2 4.1 3.2 6.1-2.1 2.9-3.8 4.5-5 4.5-.8 0-1.4-1.3-1.4-3 0-2.9 1.2-5.6 3.2-7.6zM9 93.9c1.9-1.7 4.2-2.9 6.7-3.4-.8 3.1-2.1 6.1-3.7 8.9-1.4-1.6-2.4-3.4-3-5.5zm5.7 32.2c1.4-.9 1.8-1.1 2.6-1.1.5 0 .9.1 1.2.5.2.6.3 1.3.2 1.9v2.7c-5.1.9-10.7 6-14.1 13-.3-1-.4-2.1-.4-3.2 0-2.6.6-5.2 1.9-7.4.2-.3.3-.6.4-.9 0-.9-2.7-3.6-3.5-3.6-.5.1-.9.3-1.3.6 1.5 1.2 2.1 1.9 2.1 2.7 0 .8-.2 1.6-.4 2.4-.5 2.1-.8 4.3-.9 6.5 0 4.4 1.2 7.4 2.9 7.4.4.1.8-.1.9-.5.1-.5.1-1 .1-1.6-.1-1.2.4-2.6 1.9-5.4 2.7-4.8 6-7.5 10.6-8.6v8.3l-.1 2.3c0 .2-.1.7-.2 1.3l-.1.6c-2.5-.4-5.3-2.8-6.4-5.6-.3-.7-.4-.8-.5-.8-.2 0-.3.2-.3.4.3 1.4.9 2.8 1.7 4 1.1 1.9 3 3.2 5.1 3.7-.9 3-3 5.5-5.8 6.9-.8.4-.8.5-.8.7 0 .2.1.3.3.3.9-.3 1.8-.6 2.6-1.1 2.7-1.4 4.7-3.6 5.9-6.4.4.1.8.1 1.3.1 1.8-.1 3.5-.6 5.1-1.5 2.4-1.3 3.8-3.8 3.8-6.5s-1.3-5.3-3.5-6.9c-1.6-1.1-3.5-1.6-5.5-1.6H21l.2-2.1.3-1.2c.2-.4.3-.7.3-1.1 0-.9-1.5-1.8-3.1-1.8-1.6.1-3.2.8-4.2 2.1l.2.5zm5.8 18.2c.3-1.7.5-3.4.5-5.1l-.1-4.6v-3.3c1.2 0 2.4.3 3.4.9 2.1 1.2 3.4 3.4 3.4 5.8 0 2-.9 3.9-2.5 5.1-1.2.8-2.6 1.3-4 1.3l-.7-.1zm-10.4 32.9c-1.5 3-2.9 6.1-4 9.2-.5-1-.7-2.2-.7-3.3 0-2.5.4-4.9 1.3-7.2.5-1.6 1.2-3.2 2-4.7.2-.3.4-.6.4-1 0-1.1-2.3-3.8-3.2-3.8-.5.1-1 .2-1.4.5 1.4 1.3 1.8 1.9 1.8 2.7-.1.7-.2 1.4-.5 2.1-1.7 5.5-2.1 8.2-2.1 12.4 0 5.7 1 8.9 2.9 8.9.6 0 .9-.5.9-1.4 0-.3 0-.5-.1-1-.1-.4-.1-.9-.1-1.3 0-2.3 1.2-6.3 3.4-11.8l-.6-.3zm19 10.7c-.3 0-.7.1-1 .1-1.8.2-3.6.4-5.4.4-1.6.1-3.2-.1-4.7-.5-2.5-.7-3.7-2.1-3.7-4.3 0-1 .2-1.9.4-2.8 0-.1.1-.2.1-.4s-.2-.4-.4-.4c-.5 0-1.4 2.5-1.4 4.2 0 1.8.8 3.5 2.3 4.6 1.6 1.2 4.6 1.9 8.9 1.9 1.8 0 3.6-.1 5.4-.4.5-.1 1-.5 1-1 .1-.8-.6-1.5-1.5-1.4zM16 178.2c1.9-1.7 4-3.2 6.2-4.6 2.4-1.4 2.6-1.5 4.7-1.7 1.2-.1 1.6-.3 1.6-.9-.1-.4-.3-.7-.7-.9-.5-.4-1.1-.7-1.8-.9-.2 0-.4.1-.6.2-2.7.8-5.5 1.2-8.3 1.3-1.1 0-1.7-.2-3.7-1.1-.1.1-.2.3-.2.5.1.5.4.9.9 1.1.8.8 1.9 1.2 3.1 1.3.8 0 2.7-.2 4.5-.5-.5.5-1.1 1-1.6 1.5-1.6 1.3-3 2.8-4.3 4.4l.2.3zm-15.2 39c-.5.5-.8 1.2-.8 1.9 0 .3 0 .3.9 1 1.7 1.4 2.4 1.9 3.1 1.9.6 0 .8-.2 2.1-1.5 1.8-1.8 3.7-3.3 5.9-4.5 2.1-1.4 4.5-2.2 7.1-2.3 2.3 0 4.5.8 6.3 2.3 1.3 1.3 2.1 3.1 2.1 5 0 3.1-2.1 6.1-5.6 7.7-2.7 1.2-5.6 1.9-8.6 2.1-.7.1-.9.2-.9.4s.2.4.6.4c2.8-.1 5.6-.5 8.3-1.3 5.8-1.7 9-5 9-9.1-.1-2.5-1.2-4.8-3.1-6.3-2.1-1.8-4.9-2.7-7.6-2.6-3.1 0-6.1.8-8.9 2.3-2.3 1.2-4.6 2.5-6.8 3.9-.3.2-.6.4-1 .4s-1.2-.6-2.1-1.7zm.4 35.2.4.3c.3.2.5.3.8.5 1.2.8 1.4 1.1 1.4 1.9 0 .6-.1 1.1-.1 1.7-.2 1.7-.3 3.3-.3 5 0 4.4.6 7.7 1.8 9.7 1 1.7 3 3.3 4.1 3.3.5 0 1-.5 1-1 0-.3 0-.5-.1-.8-.1-.3-.2-.7-.3-1 .4-1.5.9-3 1.7-4.4.7-1.5.9-1.8 3.4-6.2.3-.4.5-.8.6-1.2 0-.2-.2-.3-.3-.3-.2 0-.4.2-.9.9-1.8 2.3-3.5 4.7-5 7.2-1.3 2.1-1.7 2.7-1.9 2.7-.4-.2-.7-.5-.8-.9-.9-1.6-1.2-3.5-1.2-6.5 0-3.8.3-5.8 1.1-7.2.2-.3.3-.7.4-1 0-.5-.3-.9-1.1-1.5-1-.8-2-1.3-3.2-1.7-.8-.2-1.3.1-1.5.5zm19.2 2c4 2.6 6.5 7 7.3 12.6.1 1 .5 1.5 1.3 1.5.9 0 1.6-.9 1.6-2.3 0-2-1.2-4.9-3-7.2-1.7-2.4-4.2-4.1-7-5l-.2.4zM4.9 296.5c-.3 0-.5.1-.5.1-.5 0-.9-.3-2.4-1.8-.2.2-.3.4-.4.6l-.3.9c0 .2.1.3 1.2 1.3 1.4 1.3 2 1.8 2.4 1.8.3 0 .6-.2.9-.4 1-.9 6.1-2.4 11.3-3.3-2.9 2.6-4.6 6.3-4.8 10.3-.1 4.3 2.5 8.3 6.6 9.8 1.6.7 3.3 1.1 5.1 1.2 1.2 0 1.8-.5 1.8-1.5 0-1.1-.5-1.4-2.1-1.5-1.6-.1-3.2-.4-4.7-1-3.1-1.2-5.1-4.3-5.1-7.6.1-2.6 1.1-5 3-6.8 1.6-1.8 3.7-3.1 6-3.6.6-.1 3.8-.4 4.1-.4.3 0 .7 0 1.2.1.3 0 .6.1.8.1.6 0 1-.4 1.1-.9-.1-.5-.5-1-1-1.2-.8-.5-1.7-.8-2.7-1-.4.1-.8.3-1 .7-.1.1-.2.2-.4.3-.1.1-.2.1-.3.1l-19.8 3.7z"/></svg>
