<svg version="1.1" xmlns="http://www.w3.org/2000/svg" x="0" y="0" viewBox="0 0 43 201" width="43" height="201" xml:space="preserve"><style>.st0{fill-rule:evenodd;clip-rule:evenodd;fill:#fff}</style><path class="st0" d="M22 140c.3.8.8 1.5 1.5 2.1.6.5 1.3.8 2.1.8.9 0 1.8-.4 2.3-1.1.6-1 .9-2.1.8-3.3V137c0-.5-.1-1-.1-1.4v-3h-.2c0 .4 0 .8-.1 1.1-.1.2-.3.4-.5.5-.3.1-.7.2-1 .1H15.5c-.4 0-.7 0-1.1-.1-.2-.1-.4-.3-.5-.5-.1-.4-.1-.8-.1-1.2 0 0 0-.1-.1-.1s-.1 0-.1.1v4.8c0 .6-.1 1.2-.1 1.6 0 .9.2 1.9.6 2.7.4.8.9 1.4 1.6 1.9.7.4 1.5.7 2.3.7 1 0 2-.4 2.7-1.2.7-.7 1.2-1.8 1.3-3zm6.2-1.9c0 .7-.2 1.4-.7 1.9-.6.5-1.4.7-2.1.7-.9 0-1.7-.2-2.4-.7-.6-.5-1-1.3-.9-2.1v-1h4.6c.4 0 .9 0 1.3.3.1.1.2.5.2.9zm-14.2.6c0-.4 0-.8.2-1.2.1-.2.2-.4.5-.6.3-.1.6-.2.9-.1h5.9v1.4c.1 1-.3 2.1-1.1 2.8-.8.7-1.9 1-2.9 1-2.4-.1-3.5-1.2-3.5-3.3zm-.2 25.7c0-.5.3-.9.6-1.2.7-.6 1.5-1 2.4-1.4l11.9-5.9c.1 0 .1-.1.1-.2s0-.2-.1-.2L17 150.3c-.7-.3-1.4-.6-2-1-.4-.2-.7-.5-1-.9-.2-.3-.3-.7-.3-1.1 0-.1-.1-.1-.2-.1s-.1.1-.1.1v5.7c0 .1.1.1.2.1s.1-.1.1-.1c0-.6.1-1.2.4-1.7.3-.4.8-.6 1.3-.6s.9.1 1.3.3l2.6 1.2v5.8l-3.7 1.8c-.4.2-.8.4-1.2.4-.2 0-.4-.1-.5-.3-.1-.3-.2-.7-.2-1 0-.1 0-.1-.1-.1s-.1 0-.1.1v5.7c0 .1.1.1.2.1.1-.1.1-.2.1-.3zm11.9-9.5-5.6 2.8v-5.3l5.6 2.5zm2.4 16.4c0 .3 0 .6-.1 1-.1.2-.2.3-.4.4-.3.1-.6.1-.9.1H15.5c-.4 0-.7 0-1.1-.2-.2-.1-.4-.3-.5-.6-.1-.5-.1-.9-.1-1.4h-.2v6.6s0 .1.1.1.1 0 .1-.1c0-.5 0-.9.1-1.4.1-.3.2-.5.5-.6.4-.1.7-.2 1.1-.1h11.1c.3 0 .6 0 1 .1.2.1.4.2.4.4.1.3.1.7.1 1 0 .9-.3 1.8-.9 2.4-.8.7-1.7 1.1-2.7 1.1-.1 0-.1.1-.1.2s0 .1.1.1c.6 0 1.4 0 2.5.1 1 0 1.8.1 2.3.1.1 0 .1 0 .1-.1s0-.1-.1-.1c-.2-.1-.4-.3-.5-.5-.1-.4-.1-.9-.1-1.3V174c0-1.8 0-3.5.1-4.8 0-.9.2-1.3.5-1.3.1 0 .1 0 .1-.1s0-.1-.1-.1c-.5 0-1.2 0-2.2-.1-1-.1-1.8-.2-2.4-.2 0 0-.1 0-.1.1v.1c1 .2 2 .7 2.7 1.5.5.5.8 1.3.8 2.2zm-14.3 29.6c0-.4 0-.8.1-1.3.1-.2.2-.4.5-.5.3-.1.7-.2 1.1-.1h11.2c.4 0 .7 0 1.1.1.2.1.4.3.5.5.1.4.2.8.1 1.3 0 0 0 .1.1.1s.1 0 .1-.1v-6.3s0-.1-.1-.1-.1 0-.1.1c0 .4 0 .9-.1 1.3-.1.3-.3.5-.5.6-.3.1-.7.2-1.1.1h-4.9v-8.2h4.9c.4 0 .7 0 1.1.2.2.1.4.3.5.6.1.4.2.9.1 1.3h.2v-6.3h-.2c0 .4 0 .8-.1 1.2-.1.2-.2.5-.5.6-.3.1-.7.2-1.1.1H15.5c-.4 0-.7 0-1.1-.1-.2-.1-.4-.3-.5-.6-.1-.4-.1-.8-.1-1.3h-.2V190.5h.2c0-.4 0-.9.1-1.3.1-.3.2-.5.5-.6.3-.1.7-.2 1.1-.1h5.6v8.2h-5.6c-.4 0-.7 0-1.1-.1-.2-.1-.4-.3-.5-.6-.1-.4-.1-.9-.1-1.3 0 0 0-.1-.1-.1s-.1 0-.1.1v6.3s0 .1.1.1c.1-.1.1-.1.1-.2z"/><path class="st0" d="M3.8 27.7c-1.1-.2-2.2-.3-3.2-.3v1c2.2.2 3.4 1.6 3.4 4 0 .6 0 1.1-.1 1.7-.4 3.2-.4 3.2-.4 3.4 0 1.5.7 2.3 1.9 2.3 1.4-.1 2.4-1.3 2.4-2.6 0-.7-.1-1.4-.3-2-.5-1.8-.8-3.5-.8-5.2 0-1.2.2-2.4.6-3.5l6.5-19.1-1-.4-9 20.7zm-2.9-17c1.2 1 2.1 2.3 2.5 3.8.6 2.3.6 2.3.7 2.5.2.4.7.7 1.2.7 1.1-.1 2-1.2 1.9-2.3 0-2.4-2.4-4.4-6.1-5.1l-.2.4zM4 .5c1.5.9 2.6 2.3 3 4 .7 2.5.9 2.7 1.9 2.7 1 0 1.8-.7 1.8-1.6v-.2c0-2.9-2.6-5-6.6-5.4L4 .5zm5.1 38.6c1.1 0 2.2 0 5.5-.1h27.8c.3 0 .6-.2.6-.5v-.1c0-.3-.2-.6-.4-.8l-2.7-2.8-2.4 3.1H37V26.5l1-.4c.3-.1.5-.3.6-.6-.1-.3-.2-.5-.4-.7l-2.8-2.7-1.3 1.9H16.5l-3.1-1.6v15.5c-2 0-2.4-.1-4.7-.2l.4 1.4zm7-1.3V25.1h4.2v12.7h-4.2zm6.9 0V25.1h4.2v12.7H23zm6.9 0V25.1h4.3v12.7h-4.3zM15.7.7v20c0 .5.1.7.6.7s.9-.1 1.4-.3c.5 0 .8-.4.8-.9v-2.5H33v2c.1.3.4.6.7.5.5 0 .9-.2 1.3-.4.4-.1.7-.5.7-.9V5.1l.7-.2c.4-.1.6-.4.6-.7 0-.2-.2-.5-.3-.7L34 .8l-1.6 1.9H19.2l-3.5-2zm2.7 15.9v-5.9H33v5.9H18.4zm0-7V3.8H33v5.8H18.4zM0 82.3v.8c1.9.6 2.5.8 3 1.4.6 1 .8 2.2.7 3.3 0 .5 0 .9-.1 1.4-.2 1.7-.3 2.9-.3 3.4-.1 1 .7 1.9 1.7 2h.1c1.3 0 2.3-.9 2.4-2.2v-.1c0-.3 0-.5-.1-.8-1.2-6-1.2-6-1.2-7 0-1.3.3-2.5.7-3.7l6.8-18.3-.7-.4-9.8 20.2H0zm0-16.2c1.1.8 2 1.9 2.5 3.2 1 3.6 1 3.6 2.2 3.6 1 0 1.7-.8 1.7-2 0-2.4-2.7-4.7-6-5.3l-.4.5zM2.2 56c1.3.7 2.4 1.8 3 3.2.4 1.1.8 2.1 1.2 3.1.3.4.8.6 1.2.6 1 0 1.7-.8 1.7-1.8v-.2c0-2.7-2.5-4.7-7-5.5l-.1.6zM24 63.2c-2.9 8.6-7.1 14.5-14.2 19.7-1.1.7-1.1.7-1.1 1 0 .2.2.3.4.4.3 0 .6-.1.8-.3.5-.3.8-.5.9-.6 6.9-4 11.7-9.1 15.7-16.8 2.7 6.1 7.1 11.2 12.8 14.7.9-1.3 2.1-2.3 3.5-2.9-7-2.7-12.4-7-15.3-12.2l.7-.4c.3-.2.5-.4.6-.7-.1-.4-.4-.7-.8-.7l-4-1.2zm-5.1-7.7c-1.3 5.7-3.8 11.1-7.3 15.8-.2.2-.3.4-.3.7 0 .2.2.3.4.4.5 0 2.5-2 4.2-4.1 1.8-2.2 2.7-3.6 5.6-8.9l1.2-.4c.7-.2 1-.5 1-.9-.1-.5-.4-.9-.9-1l-3.9-1.6zm-1.7 23.7V95c-.1.3.1.5.4.6h.2c.5 0 1-.2 1.4-.4.5-.1.9-.5.9-1v-1.6h12v1.9c0 .7.2.8.6.8 1.2 0 2.4-.6 2.4-1.3V82.9l.8-.4c.2-.1.4-.2.5-.5-.1-.4-.3-.7-.6-1l-2.5-2.3-1.4 1.9H20.8l-3.6-1.4zm2.9 12.4v-9.7h12v9.7h-12zm7.8-34.8c3.5 2.1 6.3 5.1 8.1 8.7.6 1.4 1 1.8 1.8 1.8.9 0 1.6-.7 1.6-1.6v-.1c0-2-1.5-4.3-3.9-6.1-1.7-1.2-3.6-2-7.5-3.2l-.1.5z"/></svg>
