<svg version="1.1" xmlns="http://www.w3.org/2000/svg" x="0" y="0" viewBox="0 0 38 292" width="38" height="292" xml:space="preserve"><style>.st0{fill-rule:evenodd;clip-rule:evenodd;fill:#fff}</style><path class="st0" d="M25.8 240.2v-4.7s0-.1-.1-.1-.1 0-.1.1c0 .6-.2 1.1-.7 1.4-.6.4-1.3.5-2 .5h-8.7l10.4-8.6.8-.6c.1-.1.3-.2.4-.3.1-.1.1-.2.1-.3v-4.1s0-.1-.1-.1-.1 0-.1.1c0 .4-.1.8-.3 1.1-.3.5-.6.9-1 1.2h-11c-.7 0-1.4-.2-2-.6-.5-.4-.7-1-.7-1.6 0-.1 0-.1-.1-.1s-.1 0-.1.1v4.8s0 .1.1.1.1 0 .1-.1c0-.6.2-1.1.7-1.5.6-.4 1.3-.5 2-.5h10L10 237.8v.2c0 .1 0 .1.1.1h12.7c.7 0 1.4.1 2 .5.5.4.7.9.7 1.5h.1l.2.1zm-11.5 13.9c-2-.4-3.3-2.1-3.2-4.1v-1.2c0-.4.1-.8.3-1.1.3-.2.7-.3 1.1-.3h5.6v2.3c0 1.8-.7 2.7-2.1 2.7v.2h4.6l.1-.1s0-.1-.1-.1c-1.2 0-1.8-.9-1.8-2.6v-2.3h5c.4 0 .8.1 1.1.4.2.4.4.8.3 1.2v1c.1 1.7-1.1 3.2-2.8 3.3 0 0-.1.1 0 .2 0 .1 0 .1.1.1l3.2-.1c.1 0 .2-.1.2-.2v-10.1s0-.1-.1-.1-.1 0-.1.1c0 .4 0 .8-.1 1.2-.1.2-.2.4-.5.5-.4.1-.7.1-1.1.1H12.4c-.4 0-.7 0-1.1-.1-.2-.1-.4-.3-.5-.5-.1-.4-.1-.8-.1-1.2 0 0 0-.1-.1-.1s-.1 0-.1.1v10.4c0 .1 0 .2.1.3.1.1.2.1.3.1 1.1 0 2.3.1 3.4.2 0 0 .1 0 .1-.1-.1 0-.1 0-.1-.1zm11.5 25.3V274.6s0-.1-.1-.1-.1 0-.1.1c0 .4-.1.8-.4 1.1-.3.3-.7.4-1.1.4-.4 0-.8-.1-1.2-.2l-9.4-3.5 6.4-3 3 1.2c.7.2 1.4.6 2 1.1.4.4.6.9.6 1.4 0 0 0 .1.1.1s.1 0 .1-.1v-3.5c0-.1 0-.1-.1-.1s-.1 0-.1.1c.1.3-.2.7-.6.7h-.2c-.6-.1-1.2-.2-1.7-.4l-2.3-.9 2.8-1.3c.5-.3 1.1-.5 1.6-.6.1 0 .2 0 .3.2.1.2.1.4.1.5 0 .1 0 .1.1.1s.1 0 .1-.1v-4.3c0-.1 0-.1-.1-.1s-.1 0-.1.1c0 .3-.2.7-.4.9-.4.3-.9.6-1.3.8l-5.7 2.6-4.6-1.7 10-4.6c.4-.2.9-.4 1.4-.4.2 0 .4.1.5.3.1.3.2.6.1.9 0 .1 0 .1.1.1s.1 0 .1-.1v-5.1c0-.1 0-.1-.1-.1s-.1 0-.1.1c0 .4-.1.7-.3 1-.4.4-.9.6-1.4.9l-13.3 6.1c-.1.1-.1.2-.1.3 0 .2 0 .3.1.3l6.8 2.5-6.8 3.1c-.1 0-.1.1-.1.3 0 .1 0 .2.1.3l12.5 4.7c.7.2 1.4.7 1.9 1.2.4.4.7 1 .7 1.6h.1c.1 0 .1 0 .1-.1zm-2.6 5.6c.6 0 1.3.2 1.7.6.4.5.7 1.1.6 1.7.1 1-.4 1.9-1.2 2.4-.8.5-1.8 1-2.7 1.3 0 0-.1.1 0 .2 0 .1 0 .1.1.1l3.3-.1c.2 0 .4-.2.5-.4.2-.4.3-.9.4-1.4.1-.5.2-1.1.2-1.6 0-.8-.1-1.6-.4-2.3-.3-.7-.7-1.3-1.3-1.8-.6-.5-1.4-.7-2.2-.7-.6 0-1.3.1-1.8.5-.5.3-.9.7-1.3 1.1-.4.4-.8 1-1.3 1.8s-1 1.4-1.3 1.9c-.4.5-.8.9-1.4 1.2-.6.3-1.2.5-1.9.5-.7.1-1.4-.2-1.9-.7-.4-.5-.6-1.1-.6-1.7 0-1 .5-2 1.3-2.6 1-.8 2.1-1.4 3.3-1.8.1 0 .1-.1.1-.2s0-.1-.1-.1l-3.7.2c-.2 0-.4.1-.5.2-.3.5-.5 1-.7 1.6-.2.7-.3 1.4-.3 2.1 0 .9.2 1.8.6 2.7.3.7.9 1.4 1.5 1.8.7.4 1.4.6 2.2.6.7 0 1.3-.2 1.9-.5.5-.3 1-.7 1.4-1.2.4-.5.8-1.1 1.4-1.9l1.2-1.8c.3-.4.7-.8 1.2-1.1.6-.4 1.1-.6 1.7-.6z"/><path class="st0" d="M30.1 14.7c-6.9.4-11.9.8-20.4 1.8-4.7.4-4.7.4-4.8.4-1 0-1.6-.4-4.1-2.2-.3.5-.5 1.1-.7 1.6 0 .6 1.1 1.9 2.3 2.9C4 20.5 4 20.5 4.3 20.5l.6-.3c2.4-1.4 14-2.9 22.3-2.9 2.5-.1 5 .2 7.4.7.3.1.7.1 1 .1.6-.1 1.1-.6 1.1-1.2 0-.7-.7-1.3-2.4-2.3-.9-.5-1.9-.8-2.9-1l-1.3 1.1zM25 1.2 10.5 2.9c-.6 0-1.3.1-2 .1-.6 0-.8 0-2.9-1.6l-.3-.3c-.5.4-.8.9-.9 1.5 0 .4.2.7 1 1.4C7.3 5.7 8 6.1 8.6 6.1c.2 0 .5-.1.7-.1 4.1-1.5 9-2.2 15.7-2.2 1.1 0 1.9.1 2.5.1.8.1 1.6.2 2.5.2.7.1 1.3-.4 1.4-1 0-.9-2-2.2-4.7-3.1L25 1.2zm.3 68.8c-4.1.2-6.6.4-14.2 1-.3 0-.5.1-.8.1-.8 0-1-.2-2.5-1.4l-.2-.2c-.3.3-.6.6-.7 1.1 0 .8 2.8 3.8 3.5 3.8.2 0 .3-.1.5-.2 1.7-1.2 9.7-2 18.8-2 2.2-.1 4.5.1 6.6.8.2.1.5.1.7.1.5 0 1-.5.9-1 0-.6-.5-1.2-1.9-2.1-.6-.4-1.3-.8-2-1.1l-1.3 1H29l-1.6.1 2.4-9.3c1.4-.7 1.6-.9 1.6-1.3 0-.5-.8-1.4-2.3-2.4l-.7-.6-.3-.4-1.2 1.5-8.5.7c-.9.1-1.8.1-2.7.2-.2 0-.5.1-.8.1-.9-.1-1.8-.6-2.3-1.4l-.3-.3c-.8 1-.8 1.1-.8 1.5 0 .7 2.4 3.2 3 3.2.2 0 .4-.1.5-.2.3-.5 4.7-1.1 11-1.6l.9-.1L25.3 70zm-6.1 37.3c.9-.7 1-.9 1-1.2 0-.8-3.5-3-4.7-3-.8 0-1.5.5-1.8 1.2 2.2.8 2.5 1.2 2.5 2.9l-.1 23.1c0 3.4-.1 4.2-.3 4.8-.1.3-.2.6-.2.9.3 1.1 1.3 1.9 2.4 1.9.8 0 1.4-1 1.4-2.4v-1.8c0-.6 0-1.1-.1-1.5l-.1-24.9zm7.2 54.8-1.5 1.5-15.8 2.2c-1 .1-1 .1-1.1.1-.8 0-1.6-.7-2.5-2.1-1 1.4-1 1.4-1 1.8 0 .5.6 1.2 2.2 2.9.8.9 1 1 1.3 1 .5-.1.9-.3 1.3-.6.5-.4 1.1-.6 1.7-.7 2.2-.5 2.9-.6 4.8-1 2.9-.7 5.9-1.2 8.9-1.5-6.7 12.1-12.4 18.2-23.3 24.7-1.2.6-1.4.8-1.4 1.1 0 .2.2.4.5.4 1.5-.4 2.9-1 4.2-1.8 5.8-3.1 10.9-7.2 15.1-12.2 3.3 1.7 9.9 7.6 11.4 10.4.9 1.4 1.4 1.8 2.1 1.8.9-.1 1.6-.9 1.6-1.8 0-3.3-5.4-7.5-14.2-11.3 2.7-3.2 5.1-6.5 7.3-10l1.2-.2c.5 0 1-.3 1-.8-.1-.5-.4-1-.8-1.3l-3-2.6z"/></svg>
