<svg version="1.1" xmlns="http://www.w3.org/2000/svg" x="0" y="0" viewBox="0 0 52 418" width="52" height="418" style="enable-background:new 0 0 52 418" xml:space="preserve"><style>.st0{fill-rule:evenodd;clip-rule:evenodd;fill:#fff}</style><path class="st0" d="M44.2 4.4h6.4c.2 0 .4 0 .6.1.1 0 .2.1.3.2.1.2.1.3.1.5 0 .5-.2 1.1-.6 1.4-.5.4-1.1.6-1.7.5-.6 0-1.2-.1-1.7-.5-.4-.3-.6-.8-.6-1.2 0-.2 0-.3.1-.5h-.2c-.1.2-.1.4-.1.7 0 .5.1 1 .3 1.5.2.5.5.9.9 1.2.4.3 1 .5 1.5.5.7.1 1.4-.3 1.8-.8.4-.7.6-1.4.6-2.2V2.1h-.2c0 .2 0 .5-.1.7 0 .1-.1.2-.3.3-.2-.1-.4 0-.6-.1h-6.5c-.2 0-.4 0-.6-.1-.1 0-.2-.2-.3-.3-.1-.2-.1-.5-.1-.7h-.1c-.1 0-.1.1-.1.1v3.9h.2c0-.3 0-.6.1-.9 0-.2.1-.3.3-.4.2-.2.4-.2.6-.2zm-1 15.6c0-.4.2-.8.4-1.2.4-.5.9-1 1.4-1.4.6-.5 1.5-1.2 2.7-1.9.2.5.6.9 1 1.1.4.3.9.4 1.4.4.5 0 1-.2 1.3-.7.4-.6.5-1.2.5-1.9v-3.7h-.2c0 .2 0 .5-.1.7 0 .1-.1.2-.3.3-.2.1-.4.1-.6.1h-6.5c-.2 0-.4 0-.6-.1l-.3-.3c-.1-.2-.1-.5-.1-.7H43V14.1h.2c0-.2 0-.5.1-.7 0-.1.1-.2.3-.3.2-.1.4-.1.6-.1h3.1v1.2c-1.1.7-2.1 1.4-3.2 2.1-.5.3-.9.7-1.1 1.2V20c0 .1.1.1.2 0 0 .1 0 .1 0 0zm4.5-6.8h3c.3 0 .5.1.7.2.2.2.2.5.2.8 0 .4-.1.8-.5 1.1-.5.3-1 .4-1.6.4-.5 0-1-.1-1.5-.4-.3-.3-.5-.8-.5-1.3.1-.2.2-.5.2-.8zM44.2 24h6.5c.2 0 .4 0 .6.1l.3.3c.1.2.1.5.1.7h.2v-3.5h-.2c0 .2 0 .5-.1.7 0 .1-.1.2-.3.3-.2.1-.4.1-.6.1h-6.5c-.2 0-.4 0-.6-.1l-.3-.3c-.1-.2-.1-.5-.1-.7H43V25h.2c0-.2 0-.5.1-.7 0-.1.1-.2.3-.3h.6zm7.6 12.1v-3h-.2c0 .3-.1.6-.2.8-.1.2-.4.3-.6.3-.2 0-.4 0-.6-.1l-5.3-2 5.6-2.6c.2-.1.3-.1.5-.1.4 0 .6.3.6.9h.2V26.8h-.2c0 .2-.1.4-.2.6-.2.2-.5.4-.8.5L43 31.5c-.1 0-.1.1-.1.2s0 .1.1.2l7.2 2.7c.4.1.8.4 1.1.7.2.2.4.6.4.9 0-.1 0 0 .1-.1 0 .1 0 0 0 0zm-8.6 11c0-.3.2-.5.4-.7.4-.3.9-.6 1.4-.8l7-3.4s.1-.1 0-.1V42l-6.8-3-1.2-.6c-.2-.1-.4-.3-.6-.5-.1-.2-.2-.4-.2-.7l-.1-.1s-.1 0-.1.1v3.2l.1.1s.1 0 .1-.1c0-.3.1-.7.3-1 .2-.2.5-.4.7-.4.3 0 .5.1.8.2l1.5.7v3.4l-2.2 1.1c-.2.1-.5.2-.7.2-.1 0-.3-.1-.3-.2-.1-.2-.1-.4-.1-.6 0 0 0-.1-.1-.1s-.1 0-.1.1v3.3s.1.1.2 0zm6.9-5.6-3.3 1.6V40l3.3 1.5zM52 54c0-.9-.2-1.8-.6-2.7-.4-.8-.9-1.4-1.6-1.9-.7-.5-1.5-.7-2.4-.7-.8 0-1.7.2-2.4.7-.7.4-1.3 1.1-1.6 1.8-.4.8-.6 1.8-.6 2.7 0 .9.2 1.8.5 2.7 0 .1.1.1.1.1h.2l1.7.2v-.2c-.7-.3-1.3-.7-1.7-1.2-.4-.5-.6-1.1-.5-1.7 0-.7.2-1.3.6-1.9.4-.6.9-1 1.5-1.3.7-.3 1.5-.5 2.3-.5.8 0 1.5.1 2.2.4.6.3 1.1.7 1.5 1.3.3.5.5 1.2.5 1.8 0 .6-.2 1.3-.6 1.8-.5.5-1.1.9-1.8 1.1 0 0-.1.1 0 .1 0 0 0 .1.1.1l1.9-.2c.1 0 .1 0 .2-.1l.1-.1c.3-.5.4-1.4.4-2.3zm-.2 13.5V64.6h-.2c.1.3-.1.7-.5.8h-.2c-.4 0-.7-.1-1-.4l-2.4-1.4 3.1-2c.1-.1.3-.2.5-.2.3 0 .4.2.4.6h.2v-3.1h-.2c0 .2-.1.5-.3.7-.3.3-.7.6-1 .8l-3.3 2.1H44c-.2 0-.4 0-.6-.1l-.3-.3c-.1-.2-.1-.5-.1-.7h-.2V64.8h.2c0-.2 0-.5.1-.7 0-.1.1-.2.3-.3.2-.1.4-.1.6-.1h3.2l2.6 1.6c.5.3.9.6 1.2 1.1.3.3.4.7.5 1.1h.3zm-7.6 8.2h6.4c.2 0 .4 0 .6.1.1 0 .2.1.3.2.1.2.1.3.1.5 0 .5-.2 1.1-.6 1.4-.5.4-1.1.6-1.7.5-.6 0-1.2-.1-1.7-.5-.4-.3-.6-.8-.6-1.2 0-.2 0-.3.1-.5h-.2c-.1.2-.1.4-.1.7 0 .5.1 1 .3 1.5.2.5.5.9.9 1.2.4.3 1 .5 1.5.5.7.1 1.4-.3 1.8-.8.4-.7.6-1.4.6-2.2v-3.7h-.2c0 .2 0 .5-.1.7 0 .1-.1.2-.3.3-.2.1-.4.1-.6.1h-6.5c-.2 0-.4 0-.6-.1-.1 0-.2-.2-.3-.3-.1-.2-.1-.5-.1-.7H43v3.8h.2c0-.3 0-.6.1-.9 0-.2.1-.3.3-.4.2-.2.4-.2.6-.2zm-1.3 11c0 .9.2 1.7.6 2.4.4.7 1 1.4 1.7 1.8.7.4 1.5.7 2.4.7.8 0 1.5-.2 2.2-.5.7-.4 1.3-.9 1.7-1.5.4-.7.6-1.5.6-2.3 0-.8-.2-1.6-.5-2.3-.3-.8-.9-1.4-1.6-1.9-.7-.5-1.6-.8-2.5-.7-.8 0-1.6.2-2.3.6-.7.4-1.3.9-1.7 1.6-.4.5-.7 1.3-.6 2.1zm.3.5c0-.6.2-1.3.6-1.8.4-.5 1-1 1.7-1.2.8-.3 1.6-.5 2.4-.4 1-.1 1.9.2 2.7.8.7.5 1 1.3 1 2.1 0 .7-.2 1.3-.6 1.9-.4.5-1 1-1.6 1.2-.7.3-1.5.4-2.3.4-.7 0-1.4-.1-2.1-.4-.5-.2-1-.6-1.3-1.1-.4-.5-.5-1-.5-1.5zm7.5 9c.2 0 .4 0 .6.1.1 0 .2.2.3.3.1.2.1.5.1.7h.2V93.9h-.2c0 .2 0 .5-.1.7 0 .1-.1.2-.3.3-.2.1-.4.1-.6.1h-6.5c-.2 0-.4 0-.6-.1-.1 0-.2-.2-.3-.3-.1-.2-.1-.5-.1-.7H43v6.8h.2c.6 0 1.3 0 2.2.1v-.2c-.6-.1-1.1-.4-1.5-.9-.4-.5-.6-1.1-.6-1.7v-.8c0-.2 0-.4.1-.6 0-.1.1-.2.2-.2.2-.1.4-.1.6-.1l6.5-.1zm-6.5 8.8h6.5c.2 0 .4 0 .6.1l.3.3c.1.2.1.5.1.7h.2v-3.5h-.2c0 .2 0 .5-.1.7 0 .1-.1.2-.3.3-.2.1-.4.1-.6.1h-6.5c-.2 0-.4 0-.6-.1l-.3-.3c-.1-.2-.1-.5-.1-.7H43V106h.2c0-.2 0-.5.1-.7 0-.1.1-.2.3-.3.1.1.4 0 .6 0zm7.8 8.7c0-.9-.2-1.8-.6-2.7-.4-.8-.9-1.4-1.6-1.9-.7-.5-1.5-.7-2.4-.7-.8 0-1.7.2-2.4.7-.7.4-1.3 1.1-1.6 1.8-.4.8-.6 1.8-.6 2.7 0 .9.2 1.8.5 2.7 0 .1.1.1.1.1h.2l1.7.2v-.2c-.7-.3-1.3-.7-1.7-1.2-.4-.5-.6-1.1-.5-1.7 0-.7.2-1.3.6-1.9.4-.6.9-1 1.5-1.3.7-.3 1.5-.5 2.3-.5.8 0 1.5.1 2.2.4.6.3 1.1.7 1.5 1.3.3.5.5 1.2.5 1.8 0 .6-.2 1.3-.6 1.8-.5.5-1.1.9-1.8 1.1 0 0-.1.1 0 .1 0 0 0 .1.1.1l1.9-.2c.1 0 .1 0 .2-.1l.1-.1c.3-.6.4-1.4.4-2.3zm-.2 13.4V124.2h-.2c.1.3-.1.7-.5.8h-.2c-.4 0-.7-.1-1-.4l-2.4-1.4 3.1-2c.1-.1.3-.2.5-.2.3 0 .4.2.4.6h.2v-3.1h-.2c0 .2-.1.5-.3.7-.3.3-.7.6-1 .8l-3.3 2.1H44c-.2 0-.4 0-.6-.1l-.3-.3c-.1-.2-.1-.5-.1-.7h-.2V124.4h.2c0-.2 0-.5.1-.7 0-.1.1-.2.3-.3.2-.1.4-.1.6-.1h3.2l2.6 1.6c.5.3.9.6 1.2 1.1.3.3.4.7.5 1.1.2.1.2.1.3 0 0 .1 0 .1 0 0z"/><path class="st0" d="M27.4 0c-1.9 0-3.5 1.5-3.6 3.4 0 1.9 1.5 3.5 3.4 3.5s3.5-1.5 3.6-3.4v-.1c0-1.8-1.5-3.4-3.4-3.4zm-.1 1c1.3 0 2.4 1 2.5 2.4 0 1.3-1.1 2.4-2.4 2.5-1.3 0-2.4-1-2.5-2.4 0-1.4 1.1-2.4 2.4-2.5zM21 6.1c-3.6.2-5.4.4-5.8.4L8.7 7l-2.9.3C5 7.3 4.7 7.1 3 5.6c-.3.4-.6.9-.7 1.4 0 .6 2.8 3.2 3.5 3.2.3 0 .6-.1.8-.3C8 9 8.2 9 18.1 7.9l2.4-.3h.7c-.9 3.7-2.4 7.3-4.5 10.5-2.1 3.1-4.9 5.4-10.3 8.4-.7.4-.9.5-.9.8 0 .2.2.4.4.4 1.3-.4 2.6-1 3.7-1.7 5.4-2.8 8-5 10.3-8.9 1.6-2.5 2.9-5.3 3.7-8.2.9-.3 1.2-.5 1.2-.8 0-.4-.8-1.1-3.3-3l-.5 1zm1.8 47.3-11.7 1c-3 .3-4.6.4-4.6.4-.8 0-1.1-.2-2.6-1.5-.3.4-.5.8-.7 1.3 0 .6 2.4 3 2.9 3 .3-.1.5-.2.7-.4.3-.5 1.6-.7 6.4-1.4l9.7-.9c-3 7-8.4 12.8-15.1 16.4-1.4.7-1.5.8-1.5 1.1 0 .2.2.3.4.4.7-.2 1.4-.5 2-.8 5.5-2.6 7.7-4.1 10.5-7.1 2.5-2.6 3.7-4.2 6.4-8.9 1-.4 1.3-.6 1.3-1 0-.5-1.2-1.6-2.9-2.6l-1.2 1zm-2.9-6.8-8.7.7c-.7.1-1.6.1-2.3.1-1.1 0-1.1 0-2.7-1.4-.3.3-.6.8-.7 1.2.1.4.3.7.6.9.6.7 1.3 1.2 2.1 1.7.1 0 .2-.1.3-.1 1-.5 2.1-.8 3.2-.8 3-.4 6.1-.6 9.2-.6.3 0 .7 0 1 .1.5.1 1 .1 1.6.1.5-.1.8-.5.8-1 0-.6-.7-1-3.1-2l-1.3 1.1zm-2.3 52.9c.8-.6.9-.7.9-1 0-.4-.2-.5-1.2-.8 1.3-1.2 2.2-2 5.4-5l.7-.6c1.4-.4 1.8-.6 1.8-1.2s-.8-1.5-2.2-2.5c-1.3-.9-1.5-.9-1.7-.9-.3 0-.6.1-.8.3-.1.1-.3.1-.5.2-.1 0-.1.1-.2.2 0 .1-.1.1 0 .2.8.2 1.4.8 1.7 1.6-.1.3-.2.6-.5.9-.3.4-.6.7-.9 1-5.8 6.3-12.4 11.6-18.3 14.5-1.1.5-1.1.6-1.1.8 0 .2.2.4.4.4 1.6-.5 3.1-1.2 4.5-1.9 3.4-1.8 6.7-3.9 9.8-6.3v7.6c0 4.3-.1 5.7-.4 7.1 0 .2-.1.3-.1.5.2.7.8 1.3 1.6 1.3.6 0 1.1-.5 1.1-1.1V99.5zm2.5 34.8c1.3.9 2.4 2.2 3.2 3.6.1.6.8.9 1.3.8.5-.1.9-.7.8-1.2 0-1.7-2.1-3.1-5.2-3.6l-.1.4zm3.8-1.9c1.3.7 2.4 1.8 3.2 3 .6.8.8 1 1.3 1 .6 0 1-.6 1-1.2 0-1.6-2.1-3-5.3-3.3l-.2.5zM8.3 138c1.3.9 1.6 1.2 1.6 1.4 0 .1 0 .2-.1.3-.1.2-.2.4-.3.5-3.1 5.5-5.4 8.5-9 11.5-.3.1-.5.4-.5.7 0 .2.2.3.3.3 1.4-.6 2.6-1.4 3.7-2.5 3.1-2.6 5.8-5.6 8.1-8.9 1.1 0 1.5-.2 1.5-.8 0-.4-.4-.9-1.6-1.9-.6-.7-1.4-1.2-2.3-1.4-.6.2-1.1.5-1.4.8zm8.6.1c-.2 0-.4.2-.4.4s.1.4.8.8c1.4.8 2.7 1.9 3.8 3 2.3 2.2 3.2 3.6 5.4 8 .6 1.4.8 1.6 1.4 1.6.9-.1 1.5-.9 1.5-1.8 0-2.5-3.3-6.6-7.7-9.4-1.5-1.1-3.1-1.9-4.8-2.6zM2.6 183.8c1.8.7 3.4 1.9 4.4 3.6.8 1.2 1.2 1.6 1.7 1.6.7-.1 1.3-.7 1.2-1.4 0-1.9-2.9-3.7-7.1-4.3l-.2.5zM5.5 195c-.4.3-.6.8-.5 1.3 0 .8.5 1.5 1.6 2.4 1.7 1.3 2.4 1.8 2.9 1.8.4 0 .8-.3.9-.7.4-.8.5-.8 2-1.7.8-.5 3.6-2.6 5.5-4.2 2.3-2 4.5-4.1 6.6-6.3 2.9-3.2 4.5-5 4.5-5.5 0-.2-.1-.3-.3-.4-.2 0-.4.1-1.2 1-2.8 3-5.8 5.7-9.1 8.2-3.9 2.9-9.1 6.2-10 6.2-.6.1-2-.9-2.9-2.1zm1.1-18.2c1.9.8 3.4 2.1 4.6 3.8.9 1.3 1.1 1.5 1.6 1.5.7-.2 1.2-.8 1.1-1.5 0-2-3.2-3.9-7.1-4.3l-.2.5zm9.4 44c.7-.6.8-.7.8-.9 0-.6-2.7-2.4-3.6-2.4-.6 0-1.1.4-1.4.9 1.7.6 1.9.9 1.9 2.3l-.1 18.1c.1 1.3 0 2.5-.2 3.8-.1.2-.1.5-.1.7.2.9 1 1.5 1.8 1.5.7 0 1.1-.8 1.1-1.9v-1.4c0-.5 0-.9-.1-1.2l-.1-19.5zm9.2 38.8c-1.9 0-3.5 1.5-3.6 3.5 0 1.9 1.5 3.5 3.5 3.5 1.9 0 3.5-1.5 3.6-3.5-.1-2-1.6-3.5-3.5-3.5zm-.1 1.1c1.3 0 2.4 1 2.5 2.3 0 1.3-1 2.4-2.4 2.5-1.3 0-2.4-1-2.5-2.3v-.1c0-1.3 1.1-2.4 2.4-2.4zm-11 9.6v12.4c0 1 0 1.4-.2 1.4-.4-.1-.7-.3-1-.5l-4.1-2.8-.4.4 4.5 4.6c.3.2.4.6.4.9 0 1 .3 1.5.8 1.5.6-.1 1.2-.5 1.6-1 .5-.4.8-1.1.7-1.7v-.3l-.4-15c3-.1 3.7-.2 4.5-.2 2.1 0 4.1.2 6.1.5.5.1 1 .2 1.6.3.5 0 .9-.3.9-.8 0-.7-1.5-1.9-3.1-2.5l-1.6.9c-2.1 0-2.9.1-3.2.1-1.3 0-2.6.1-3.9.2l-1.2.1v-3.6c-.1-.4.1-.9.4-1.2.3-.1.5-.4.5-.7 0-.4-.4-.7-1.4-1.2-1-.5-2-.8-3.1-1-.6.2-1.1.6-1.3 1.2 2.3.6 2.7.9 2.7 2.1l.1 4.4-5.7.4c-1.2.1-2.7.2-3.3.2-1.2 0-1.6-.3-3.1-2.1-.4.4-.7 1-.8 1.6 0 .8 2.5 3.2 3.2 3.2.2 0 .4-.1.6-.3.6-.5 1.4-.6 5.2-1.2l4-.3zm-6.5 2.9c-.5 3.1-2.2 6-4.7 8-1.1.8-1.2 1-1.2 1.7s.5 1.3 1.2 1.3c1.2 0 2.3-1.1 3.6-3.4 1.2-2.1 1.8-4.5 1.8-7v-.5l-.7-.1zm11.6.5c2.8 2.3 4.9 5.3 6.1 8.7.5 1.4.7 1.8 1.3 1.8.9-.1 1.6-.8 1.5-1.7 0-3.1-4-7.3-8.6-9.2l-.3.4zm2.2 33.9c.3-.3.6-.7.7-1.1-.1-.5-.5-.8-.9-.9-1-.5-2.1-.9-3.2-1.2-.4 0-.8.3-1.6 1.2 1.4.4 2.6 1 2.6 1.4v7.3c-.3 6.3-1.2 9.5-3.6 12.2-1.9 2.1-4.3 3.7-7 4.7-1.6.7-1.6.7-1.6 1 0 .2.1.3.3.3 1.2-.3 2.3-.6 3.4-1.1 3.6-1.4 6.6-3.6 8.1-5.9 1.5-2.4 2.6-6.7 2.6-11l.2-6.9zm-12.8 1.6v9.4c0 .3 0 .6-.1.9-.1.4-.1.7-.1.7.2.8.8 1.4 1.6 1.6.6 0 1-.5 1.1-1.1 0-.4-.1-.7-.1-1.1-.1-.5-.1-1.1-.1-1.6v-9.2c.4-.2.8-.6.9-1.1-.1-.3-.3-.5-.6-.6-1-.6-2-1.1-3.1-1.3-.6.1-1.2.6-1.5 1.2 1.8.7 2.1.9 2 1.4v.8zm-6 47.7c1.8.7 3.4 1.9 4.4 3.6.8 1.2 1.2 1.6 1.7 1.6.7-.1 1.3-.7 1.2-1.4 0-1.9-2.9-3.7-7.1-4.3l-.2.5zm2.9 11.3c-.3.3-.5.8-.5 1.3 0 .8.5 1.5 1.6 2.4 1.7 1.3 2.4 1.8 2.9 1.8.4 0 .8-.3.9-.7.4-.8.5-.8 2-1.7.8-.5 3.6-2.6 5.5-4.2 2.3-2 4.5-4.1 6.6-6.3 2.9-3.2 4.5-5 4.5-5.5 0-.2-.1-.3-.3-.4-.2 0-.4.1-1.2 1-2.8 3-5.8 5.7-9.1 8.2-3.9 2.9-9.1 6.2-10 6.2-.6 0-2-1-2.9-2.1zm1.1-18.3c1.9.8 3.4 2.1 4.6 3.8.9 1.3 1.1 1.5 1.6 1.5.7-.2 1.2-.8 1.1-1.5 0-2-3.2-3.9-7.1-4.3l-.2.5zM16 394c.7-.6.8-.7.8-.9 0-.6-2.7-2.4-3.6-2.4-.6 0-1.1.4-1.4.9 1.7.6 1.9.9 1.9 2.3l-.1 18.1c.1 1.3 0 2.5-.2 3.8-.1.2-.1.5-.1.7.2.9 1 1.5 1.8 1.5.7 0 1.1-.8 1.1-1.9v-1.4c0-.5 0-.9-.1-1.2L16 394z"/></svg>
