<svg version="1.1" id="ttl-whisking-01-pc.svg" xmlns="http://www.w3.org/2000/svg" x="0" y="0" viewBox="0 0 47 245" width="47" height="245" style="enable-background:new 0 0 47 245" xml:space="preserve"><style>.st0{fill-rule:evenodd;clip-rule:evenodd;fill:#fff}</style><path id="whisking" class="st0" d="M46.8 12.9v-2.7h-.2c0 .2-.1.5-.2.6-.1.2-.3.2-.5.2s-.5-.1-.7-.1l-5.3-2 3.6-1.7 1.7.7c.4.1.8.4 1.1.6.2.2.3.5.3.8h.2v-2h-.2c0 .2-.1.4-.3.4h-.1c-.3 0-.7-.1-1-.3L44 6.9l1.6-.8c.3-.2.6-.3.9-.3.1 0 .1 0 .2.1 0 .1.1.2 0 .3h.2V3.7h-.2c0 .2-.1.4-.2.5-.2.2-.5.3-.7.5l-3.2 1.5-2.6-1 5.6-2.7c.2-.1.5-.2.8-.3.1 0 .2.1.3.2.1.2.1.4.1.5h.2V-.1h-.2c0 .2-.1.4-.2.6-.3.4-.6.5-.9.7l-7.5 3.5-.1.1c0 .1 0 .1.1.2L42 6.5l-3.8 1.8c-.1 0-.1.1-.1.2s0 .1.1.1l7 2.7c.4.1.8.4 1.1.7.2.2.4.6.4.9 0 0 0 .1.1 0 0 .1.1 0 0 0zm-8.5 11.6c0-.2 0-.5.1-.7 0-.1.1-.3.3-.3.2-.1.4-.1.6-.1h6.4c.2 0 .4 0 .6.1l.3.3c.1.2.1.5.1.7h.2v-3.7h-.2c0 .3 0 .5-.1.8 0 .1-.1.3-.3.3-.2.1-.4.1-.6.1h-2.8v-4.8h2.8c.2 0 .4 0 .6.1l.3.3c.1.3.1.5.1.8h.2v-3.7h-.2c0 .2 0 .5-.1.7 0 .1-.1.3-.3.3-.2.1-.4.1-.6.1h-6.4c-.2 0-.4 0-.6-.1l-.3-.3c-.1-.2-.1-.5-.1-.7h-.2v3.7h.2c0-.3 0-.5.1-.8 0-.1.1-.3.3-.3.2-.1.4-.1.6-.1h3.2V22h-3.2c-.2 0-.4 0-.6-.1l-.3-.3c-.1-.3-.1-.5-.1-.8h-.2v3.7h.2zm1 4.9h6.4c.2 0 .4 0 .6.1.1 0 .2.2.3.3.1.2.1.5.1.7h.2V27.1h-.2c0 .2 0 .5-.1.7 0 .1-.1.2-.3.3-.2-.1-.4-.1-.6-.1h-6.4c-.2 0-.4 0-.6-.1l-.3-.3c-.1-.2-.1-.5-.1-.7h-.2V30.3h.2c0-.2 0-.5.1-.7 0-.1.1-.2.3-.3.2.1.4.1.6.1zm6.1 5.4c.4 0 .7.1 1 .4.2.3.4.6.4 1 0 .6-.2 1.1-.7 1.4-.5.3-1 .6-1.5.8v.1s0 .1.1.1h1.9c.1 0 .2-.1.3-.2.1-.3.2-.5.2-.8.1-.3.1-.6.1-1 0-.5-.1-.9-.2-1.4-.1-.4-.4-.8-.7-1.1-.3-.3-.8-.4-1.2-.4-.4 0-.7.1-1 .3-.3.2-.5.4-.7.6-.3.3-.5.7-.7 1-.3.4-.5.8-.7 1.1-.2.3-.5.5-.8.7-.3.2-.7.3-1.1.3-.4 0-.8-.1-1.1-.4-.2-.3-.3-.6-.3-1 0-.6.3-1.2.7-1.5.6-.4 1.2-.8 1.9-1 0 0 .1-.1 0-.1 0 0 0-.1-.1-.1l-2.1.1c-.1 0-.2 0-.3.1-.2.3-.3.6-.4.9-.4.3-.4.7-.4 1.2s.1 1.1.3 1.5c.2.4.5.8.9 1 .4.2.8.4 1.3.4.4 0 .8-.1 1.1-.3.3-.2.6-.4.8-.7.2-.3.5-.6.8-1.1.3-.4.5-.8.7-1 .2-.3.4-.5.7-.6.1-.2.4-.3.8-.3zm-7.1 15.3c0-.3 0-.5.1-.8.2-.3.4-.6.7-.8.4-.3 1-.8 1.8-1.4l2.7-2.1 1.8 1.8c.4.4.7.8.9 1.3.2.4.3.9.3 1.4h.2V46.1h-.2c0 .2 0 .4-.1.6-.1.1-.2.2-.3.2-.3-.1-.5-.2-.7-.4l-2.7-2.7h2.9c.2 0 .4 0 .6.1.1 0 .2.2.3.3.1.2.1.5.1.7h.2V41.5h-.2c0 .2 0 .5-.1.7 0 .1-.1.2-.3.3-.2.1-.4.1-.6.1h-6.4c-.2 0-.4 0-.6-.1-.1 0-.2-.2-.3-.3-.1-.2-.1-.5-.1-.7h-.2V44.9s0 .1.1.1.1 0 .1-.1c0-.2 0-.5.1-.7 0-.1.1-.2.3-.3.2-.1.4-.1.6-.1h3.1l.4.4-2.5 2-.8.6c-.4.3-.7.5-.9.7l-.3.3c-.1.1-.1.2-.1.3v2.1l.1-.1c0 .1 0 .1 0 0zm1 4.5h6.4c.2 0 .4 0 .6.1l.3.3c.1.2.1.4.1.7h.2V52.3h-.2c0 .2 0 .5-.1.7 0 .1-.1.2-.3.3-.2.1-.4.1-.6.1h-6.4c-.2 0-.4 0-.6-.1-.1 0-.2-.2-.3-.3-.1-.2-.1-.5-.1-.7h-.2V55.7h.2c0-.2 0-.5.1-.7 0-.1.1-.2.3-.3.2-.1.4-.1.6-.1zm7.5 13.1V65h-.2c0 .3-.1.6-.4.8-.3.2-.7.3-1.1.3h-4.9l5.9-5 .4-.3c.1-.1.2-.1.2-.2 0 0 .1-.1.1-.2V58h-.2c0 .2-.1.5-.2.6-.2.3-.4.5-.6.7h-6.1c-.4 0-.8-.1-1.1-.3-.3-.2-.4-.6-.4-.9H38V60.8h.2c0-.3.1-.6.4-.9.3-.2.7-.3 1.1-.3h5.6l-7.6 6.6v.1s0 .1.1.1H45c.4 0 .8.1 1.1.3.3.2.4.5.4.9.2.1.2.1.3.1zM38 75.1c0 1.1.1 2.1.4 3.2 0 0 0 .1.1.1h.4c.3 0 .6-.1.9 0h1.1c.2 0 .3 0 .4.1.1.1.1.3.1.4 0 0 0 .1.1.1h.1v-1.5c0-.5 0-1.1.1-1.9h-.1c-.1 0-.1 0-.1.1 0 .3 0 .7-.1 1-.1.2-.2.3-.4.4-.3.1-.7.1-1 .1-.4 0-.7 0-1.1-.2-.2-.1-.4-.3-.5-.5-.1-.3-.2-.6-.1-.9 0-.7.2-1.5.6-2.1.4-.6 1-1.1 1.6-1.4.7-.3 1.5-.5 2.3-.5.7 0 1.4.1 2.1.5.6.3 1.1.7 1.4 1.3.3.5.5 1.1.5 1.8s-.2 1.5-.7 2c-.4.5-1 .9-1.6 1.1 0 0-.1 0 0 .1 0 0 0 .1.1.1l1.8-.2h.2l.1-.1c.2-.3.3-.7.3-1.1.1-.5.1-.9.1-1.4 0-1-.2-1.9-.6-2.8-.3-.8-.9-1.4-1.6-1.9-.7-.5-1.5-.7-2.4-.7-.8 0-1.6.2-2.3.6-.7.4-1.3 1-1.6 1.8-.4.5-.6 1.5-.6 2.4z"/><path id="ウィスキング" class="st0" d="M22.4 6.4 21 7.7c-2.2 0-4.4.2-6.6.4V4.4c-.1-.4.1-.8.4-1 .2-.1.4-.3.5-.6-.1-.4-.3-.8-.6-1-1-.5-2.1-.8-3.1-1.1-.8.1-1.4.5-1.9 1.2 1.9.5 2.5.9 2.5 1.5v4.9h-.7c-.6.1-1.1.1-1.7.2l-2.1.2-1 .1c-.1 0-.3 0-.5-.1l-.5-.3C3.7 7 3.7 7 3.4 7c-.6 0-1.2.3-1.5.8V8c.4 0 .7.2 1.1.5.8.6.8.6.9 1.7l.2 6.5v.3c0 .2 0 .4-.1.5v.6c0 .9.7 1.6 1.5 1.7.5 0 .9-.4.9-.9v-.5L5.8 10c.2.3.5.6.9.7h.2c4.1-.9 8.4-1.4 12.6-1.4h1.7c-2.7 10.2-6.7 16-13.8 20-.2.1-.4.2-.5.5 0 .2.1.3.3.3.8-.2 1.5-.5 2.2-.9 4.3-2.3 7.9-5.8 10.4-10.2 1.6-2.7 2.9-5.6 3.7-8.6 1.4-.4 1.6-.5 1.6-.9s-.3-.8-.6-1l-2.1-2.1zm-3.3 50.1c.6-.3.7-.4.7-.7 0-.3-.2-.4-1-.6 2.4-2.1 2.4-2.1 4.9-4.6 1-.1 1.3-.3 1.3-.8s-.2-.7-1.5-1.8c-1.2-1-1.5-1.2-1.9-1.2-.4 0-.8.1-1.1.5 0 .2.1.3.3.4.5.2.8.6 1 1.1 0 .6-3.8 4.7-6.4 6.9-2.7 2.3-5.7 4.4-8.8 6-1 .5-1 .5-1 .8 0 .2.1.3.3.4 1.4-.4 2.8-1 4.1-1.7 2.5-1.3 5-2.9 7.2-4.7l-.1 6.5v1.2L17 67c0 .2 0 .5-.1.7-.1.5-.2.9-.2 1 .3.6.8.9 1.4 1 .3-.1.6-.2.9-.5.1-.4.2-.7.1-1.1V56.5zM20 91l-1.1 1.2-12 1.7c-.7.1-.7.1-.9.1-.6 0-1.2-.5-1.9-1.7-.7 1.1-.7 1.1-.7 1.4 0 .4.4.9 1.7 2.3.6.7.8.8 1 .8.4 0 .7-.2 1-.4.4-.3.8-.5 1.3-.6 1.6-.4 2.2-.5 3.6-.8 2.2-.6 4.4-1 6.7-1.2-5.1 9.4-9.5 14.2-17.7 19.3-.9.5-1 .7-1 .9 0 .2.2.3.4.3 1.1-.3 2.2-.8 3.2-1.4 4.4-2.4 8.3-5.6 11.4-9.5 2.5 1.3 7.5 6 8.6 8.1.7 1.1 1 1.4 1.6 1.4.7-.1 1.2-.7 1.2-1.4 0-2.6-4.1-5.9-10.8-8.9 2-2.5 3.9-5.1 5.5-7.8l.9-.2c.4 0 .7-.2.8-.6-.1-.4-.3-.8-.6-1L20 91zm-7 47.4-.7-3.6c0-.2-.1-.4-.1-.6 0-.2.1-.3.2-.5s.2-.4.2-.6c-.1-.4-.4-.7-.7-.8-1.2-.5-2.4-.9-3.6-1.1-.7.2-1.3.6-1.7 1.3v.1c2.1.3 3 .9 3.4 2.3l1 4.1-5.9 1.6c-.4.2-.9.3-1.4.3-.9-.2-1.8-.7-2.3-1.5-.3.3-.5.7-.6 1.2 0 .8 2.2 2.6 3.2 2.6.5 0 .9-.2 1.2-.5 2-.9 4.1-1.6 6.2-2.2l1.5 5.9c-2.2.6-3.4.9-5.1 1.4C4 149 4 149 3.3 149c-.6 0-.6 0-2.3-1.3l-.1-.1c0-.1-.1-.1-.1-.1-.3.4-.4.8-.5 1.3 0 .4.2.6 1.1 1.4.5.7 1.3 1.1 2.1 1.4.4-.1.9-.3 1.2-.5 2.1-1.2 4-1.9 8.8-3.2l2.4 9.9c0 .6.5 1.1 1.1 1.1.8-.1 1.5-.8 1.5-1.6-.1-.7-.3-1.3-.6-1.9-.9-2.3-1.9-5.6-2.5-8 3.2-.8 6.5-1.3 9.7-1.6H26.8c.5.1 1-.2 1.1-.7v-.2c0-.6-.5-1.2-1.1-1.3-.7-.3-1.4-.6-2.1-.8-.3.1-.7.2-.9.5-.5.5-1.1.7-1.7.8-1.4.2-4.3.8-7.2 1.6l-1.5-5.9c2.4-.6 4.8-1 7.2-1.3h1c.4.1.8-.2.9-.6v-.1c0-.5-.4-.9-1.3-1.3-.6-.3-1.3-.4-1.9-.6-.3 0-.5.2-.6.5-.1.3-.4.5-.6.6-.2 0-.7.2-1 .3l-4.1 1.1zM6.9 199c5.4-2.6 9.8-5.8 15.4-11.5 2.9-2.8 5.1-5.4 5.1-6 0-.2-.1-.3-.3-.4-.3.1-.6.2-.7.5-5.1 5.1-10.8 9.5-17 13.1-1.5.8-3 1.5-4.6 2.1-.5 0-1.2-.5-2.2-1.6-.3.4-.5.9-.6 1.4 0 .4.2.6 1.5 1.9 1.3 1.3 2 1.8 2.6 1.8.1 0 .3-.2.8-1.3zm-5.2-21.1c2.3 1.2 4 3.2 5 5.6.5 1.4.8 1.7 1.4 1.7.9-.1 1.6-1 1.5-1.9 0-1.6-1.3-3.4-3.5-4.6-1.3-.7-2.7-1.2-4.1-1.5l-.3.7zm19.1 41.6c1.2.8 2.2 1.9 3 3.2.7 1.1 1 1.4 1.4 1.4.6-.1 1.1-.7 1.1-1.4 0-1-.9-2-2.6-2.8-.9-.4-1.8-.7-2.8-.9l-.1.5zm2.4-2.3c1.4.7 2.7 1.8 3.5 3.2.2.4.6.7 1.1.8.6 0 1.1-.6 1.1-1.2 0-.9-.9-1.9-2.4-2.6-1-.5-2-.7-3.1-.7l-.2.5zm-3.3 6.1c-.6.1-1.2.2-1.8.1-.2 0-1.1 0-2.1.1l-2.1.1H13c.4-.7.7-1.1.9-1.6.2-.5.6-.9 1.1-1 .3 0 .5-.3.5-.6 0-.4-.2-.7-.6-.8-1.6-1.1-2.7-1.7-3.2-1.7-.7 0-1.3.3-1.7.8 0 0 0 .1.1.1.2.1.3.2.5.3.9.4 1.3.8 1.3 1-.8 2-1.8 4-2.9 5.8-1.9 3.1-4.2 6-6.9 8.4-.3.1-.5.4-.6.7 0 .2.1.3.3.3 1.3-.6 2.4-1.5 3.5-2.5 2.6-2.3 5-5 6.8-8l.5.5h.4c2.3-.4 4.7-.7 7.1-.7-3.7 9-8.4 14.6-15.9 19.3-.3.1-.5.3-.5.6 0 .2.2.4.4.4.8-.3 1.6-.6 2.3-1.1 5.8-3.5 8.6-5.9 11.6-10.2 1.7-2.4 3.1-4.9 4.3-7.5.1-.4.1-.4.9-.5.3 0 .6-.2.7-.5 0-.5-.9-1.4-2.6-2.8l-1.4 1z"/></svg>
