<svg version="1.1" xmlns="http://www.w3.org/2000/svg" x="0" y="0" viewBox="0 0 43 481" width="43" height="481" xml:space="preserve"><style>.st0{fill-rule:evenodd;clip-rule:evenodd;fill:#fff}</style><path class="st0" d="M28.2 364.6c0-1.6-.3-3.1-1-4.6-.6-1.3-1.6-2.4-2.8-3.2-1.2-.8-2.6-1.2-4.1-1.2-1.4 0-2.9.4-4.1 1.1-1.2.8-2.2 1.9-2.8 3.1-.7 1.4-1 3-1 4.6 0 1.6.3 3.1.9 4.6 0 .1.1.2.2.3.1.1.2.1.4.1l2.9.3s.1 0 .1-.1v-.1c-1.1-.4-2.2-1.1-3-2.1-.6-.8-1-1.9-.9-2.9 0-1.1.3-2.2.9-3.2.7-1 1.6-1.7 2.6-2.2 1.2-.6 2.5-.8 3.9-.8 1.3 0 2.6.2 3.9.8 1 .5 1.9 1.2 2.5 2.1.6.9.9 2 .9 3.1s-.3 2.2-1 3.1c-.8.9-1.9 1.5-3 1.9-.1 0-.1.1-.1.2s0 .1.1.1l3.2-.3c.1 0 .3 0 .4-.1l.2-.2c.5-1.5.8-2.9.7-4.4zm-15.6 16.9c0 1.5.4 2.9 1.1 4.2.7 1.3 1.7 2.3 2.9 3.1 1.2.8 2.6 1.2 4 1.2 1.3 0 2.6-.3 3.7-.9 1.2-.6 2.2-1.5 2.8-2.7.7-1.2 1.1-2.6 1.1-4s-.3-2.7-.9-4c-.6-1.3-1.5-2.4-2.7-3.2-1.3-.9-2.7-1.3-4.3-1.2-1.4 0-2.7.3-3.9.9-1.2.6-2.2 1.5-2.8 2.7-.7 1.1-1 2.5-1 3.9zm.6.8c0-1.1.4-2.2 1.1-3 .8-.9 1.8-1.7 2.9-2.1 1.3-.5 2.7-.8 4.2-.8 1.6-.1 3.3.4 4.6 1.3 1.1.9 1.7 2.2 1.7 3.6 0 1.1-.3 2.3-1 3.2-.7.9-1.7 1.7-2.8 2.1-1.3.5-2.6.8-4 .7-1.2 0-2.5-.2-3.6-.7-.9-.4-1.7-1-2.3-1.8-.6-.7-.9-1.6-.8-2.5zM28 410.1v-4.7h-.2c0 .6-.2 1.1-.7 1.4-.6.4-1.3.5-2 .5h-8.6l10.2-8.6.8-.6c.1-.1.3-.2.4-.3.1-.1.1-.2.1-.3v-4.1h-.2c0 .4-.1.8-.3 1.1-.3.5-.6.9-1 1.2H15.8c-.7 0-1.4-.2-2-.6-.5-.4-.7-1-.7-1.6 0 0 0-.1-.1-.1s-.1 0-.1.1v4.8h.2c0-.6.2-1.1.7-1.5.6-.4 1.3-.5 2-.5h9.8l-13.2 11.3v.2c0 .1 0 .1.1.1H25c.7 0 1.4.1 2 .5.5.4.7.9.7 1.5h.1c.1.2.2.2.2.2zm-.5 7.2c0 .3 0 .6-.1 1-.1.2-.2.4-.4.4-.3.1-.6.1-.9.1H14.8c-.4 0-.7 0-1.1-.2-.2-.1-.4-.3-.5-.6-.1-.5-.1-.9-.1-1.4h-.2v6.6s0 .1.1.1.1 0 .1-.1c0-.5 0-.9.1-1.4.1-.3.2-.5.5-.6.4-.1.7-.2 1.1-.1H26c.3 0 .6 0 1 .1.2.1.4.2.4.4.1.3.1.7.1 1 0 .9-.3 1.8-.9 2.4-.8.7-1.7 1.1-2.7 1.1-.1 0-.1.1-.1.2s0 .1.1.1c.6 0 1.4 0 2.5.1 1 0 1.8.1 2.3.1.1 0 .1 0 .1-.1s0-.1-.1-.1c-.2-.1-.4-.3-.5-.5-.1-.4-.1-.9-.1-1.3V420c0-1.8 0-3.5.1-4.8 0-.9.2-1.3.5-1.3.1 0 .1-.1.1-.1 0-.1-.1-.1-.1-.1-.5 0-1.2 0-2.2-.1-1-.1-1.8-.2-2.4-.2 0 0-.1 0-.1.1v.1c1 .2 2 .7 2.7 1.5.5.5.8 1.3.8 2.2zm-14.3 29.2c0-.5.3-.9.6-1.2.7-.6 1.5-1 2.4-1.4l11.9-5.9c.1 0 .1-.1.1-.2s0-.2-.1-.2l-11.7-5.2c-.7-.3-1.4-.6-2-1-.4-.2-.7-.5-1-.9-.2-.3-.3-.7-.3-1.1 0-.1-.1-.1-.2-.1s-.1.1-.1.1V435c0 .1.1.1.2.1s.1-.1.1-.1c0-.6.1-1.2.4-1.7.3-.4.8-.6 1.3-.6s.9.1 1.3.3l2.6 1.2v5.8l-3.7 1.8c-.4.2-.8.3-1.2.4-.2 0-.4-.1-.5-.3-.1-.3-.2-.7-.2-1 0-.1 0-.1-.1-.1s-.1 0-.1.1v5.7c0 .1.1.1.2.1 0-.1 0-.1.1-.2zm11.8-9.6-5.6 2.8v-5.3l5.6 2.5zm3.2 21.5c0-1.6-.3-3.1-1-4.6-.6-1.3-1.6-2.4-2.8-3.2-1.2-.8-2.6-1.2-4.1-1.2-1.4 0-2.9.4-4.1 1.1-1.2.8-2.2 1.9-2.8 3.1-.7 1.4-1 3-1 4.6 0 1.6.3 3.1.9 4.6 0 .1.1.2.2.3.1.1.2.1.4.1l2.9.3s.1 0 .1-.1v-.1c-1.1-.4-2.2-1.1-3-2.1-.6-.8-1-1.9-.9-2.9 0-1.1.3-2.2.9-3.2.7-1 1.6-1.7 2.6-2.2 1.2-.6 2.5-.8 3.9-.8 1.3 0 2.6.2 3.9.8 1 .5 1.9 1.2 2.5 2.1.6.9.9 2 .9 3.1s-.3 2.2-1 3.1c-.8.9-1.9 1.5-3 1.9-.1 0-.1.1-.1.2s0 .1.1.1l3.2-.3c.1 0 .3 0 .4-.1l.2-.2c.5-1.4.8-2.9.7-4.4zm-.8 13.2c0 .3 0 .6-.1 1-.1.2-.2.4-.4.4-.3.1-.6.1-.9.1H14.8c-.4 0-.7 0-1.1-.2-.2-.1-.4-.3-.5-.6-.1-.5-.1-.9-.1-1.4H13c-.1 0-.1 0-.1.1v6.6s0 .1.1.1.1 0 .1-.1c0-.5 0-.9.1-1.4.1-.3.2-.5.5-.6.4-.1.7-.2 1.1-.1H26c.3 0 .6 0 1 .1.2.1.4.2.4.4.1.3.1.7.1 1 0 .9-.3 1.8-.9 2.4-.8.7-1.7 1.1-2.7 1.1-.1 0-.1.1-.1.2s0 .1.1.1c.6 0 1.4 0 2.5.1 1 0 1.8.1 2.3.1.1 0 .1 0 .1-.1s0-.1-.1-.1c-.2-.1-.4-.3-.5-.5-.1-.4-.1-.9-.1-1.3v-4.6c0-1.8 0-3.5.1-4.8 0-.9.2-1.3.5-1.3.1 0 .1-.1.1-.1 0-.1-.1-.1-.1-.1-.5 0-1.2 0-2.2-.1-1-.1-1.8-.2-2.4-.2 0 0-.1 0-.1.1v.1c1 .2 2 .7 2.7 1.5.5.3.8 1.2.7 2.1z"/><path class="st0" d="m8.1 30.3.4-.5c3.4 3.1 3.7 3.5 3.6 5.1 0 1.2.4 1.9 1.1 1.9.9-.2 1.6-.7 2.1-1.4.6-.6.9-1.4.9-2.3v-1.2l-.2-9.1c5-3.3 8.2-4.5 12.2-4.5 5 0 8.4 2.7 8.4 6.7 0 3.5-2.5 5.8-6.2 5.8-2.1.1-4.1-.7-5.6-2.2-1.2-1.1-2.2-2.2-3.2-3.5-.6-.9-.8-1.1-1-1.1-.2 0-.4.2-.5.5 0 .8 2.1 4 3.7 5.7 2 2.1 4.7 3.3 7.6 3.4 4.4.1 8.1-3.4 8.2-7.8v-.2c0-5.3-4.3-8.9-10.6-8.9-4 0-7.3 1.1-13.2 4.3v-9.2c.5-.1 1-.3 1.4-.4l2.4-.6 2.2-.6c.7-.1 1.4-.3 2-.6.4-.2.7-.5.7-1 0-1-1.2-1.8-3.1-2-.2.1-.4.3-.6.5-.3.3-.6.6-1 .9-1.3.5-2.5 1-3.8 1.3l.1-2.6c0-.8.3-1.7.8-2.3.3-.3.4-.6.5-1 0-1-3.7-3.4-5.2-3.4-.8.1-1.6.5-2.1 1.2.2.1.5.2.7.3.5.1.9.3 1.2.6 1.2.6 1.4 1 1.4 2V10c-2 .6-4 1-6 1.2-1.1 0-1.6-.3-3.9-2.3-.1.2-.3.7-.3 1.1.4 1.1 1.2 2 2.1 2.7.5.5 1.1.7 1.7.7 1.2-.1 2.4-.3 3.6-.6 1-.2 1.8-.3 3-.6v10.2c-2.7 1.8-5.3 3.8-7.8 5.9-.1.2-.4.3-.6.3-.5 0-.8-1-.8-2.9-1.4.5-1.5.8-1.5 3.5 0 .8.3 1.5.9 1.9.5.6 1.2 1 1.9 1.1.8-.1 1.4-.6 1.9-1.2l.5-.7zM9 29c1.4-1.6 2.9-3.1 4.6-4.4v5.3c0 .6 0 1.2-.1 1.8L9 29zm19.5-15.5c2.5-.9 5-1.5 7.6-1.7.6 0 1.3.2 1.8.5.3.2.6.3.9.3.7.1 1.3-.4 1.4-1.1 0-1.7-2-3.9-5-5.4-1.9-.9-4-1.5-6.2-1.6-.3 0-.6.2-.6.5v.1c0 .2.1.3.6.4 2.6.6 5.1 2.3 5.9 4.2-2.3 1-4.6 2-6.8 3.3l.4.5zm-25.8 40v40.1c0 .4.1.6.4.6.6-.1 1.2-.3 1.8-.6.5-.1.9-.6.8-1.1V68.3h10v2.2c-.1.2.1.5.3.5h.1c.7-.1 1.3-.2 1.9-.5.4-.2.6-.6.5-1V57.9l.7-.3c.2-.1.4-.3.5-.6 0-.3-.2-.6-.5-.9l-2.8-2.6-1.5 2H6.5l-3.8-2zm3 13.7v-4.8h10v4.8h-10zm0-5.9v-4.6h10v4.6h-10zm7.2 11.9v15.6c-.1.3.1.6.4.6h.1c.7-.1 1.3-.2 1.9-.5.3-.1.5-.4.5-.7v-3.9h10.7v2.9c-.1.3.1.5.4.6h.2c.6 0 1.2-.2 1.8-.4.4-.1.7-.5.6-.9v-9.4l.7-.1c.3-.1.5-.4.6-.7 0-.3-.2-.6-.5-.8l-2.6-2.4-1.5 1.9h-9.9l-3.4-1.8zm2.9 10v-7.1h10.7v7.1H15.8zm7.9-29.5v16.8c-.1.3.2.7.5.7h.1c.4 0 .8-.1 1.2-.2.8-.2 1-.4 1-1v-1.6h9.8V89c0 1-.1 1-2.8 1-.4 0-1.2 0-2.5-.1h-1.3v.8l4.6 1.4c.5 0 1 .5.9 1 .1.7.3 1.1.8 1.1.9-.2 1.7-.6 2.3-1.2.7-.5 1.1-1.4 1-2.3V58.4l.9-.4c.3-.1.5-.4.5-.7 0-.3-.1-.6-.4-.8l-2.9-2.9-1.7 2h-8.6l-3.4-1.9zm2.8 13.5v-4.8h9.8v4.8h-9.8zm0-5.9v-4.6h9.8v4.6h-9.8zM2.5 116s.1.1.5.3c.3.2.6.4 1 .6 1.5 1.1 1.8 1.4 1.8 2.5 0 .7-.1 1.4-.2 2.2-.3 2.1-.4 4.2-.4 6.4 0 5.6.8 9.8 2.4 12.3 1.3 2.1 3.8 4.1 5.2 4.1.7 0 1.3-.6 1.2-1.3 0-.3-.1-.7-.2-1-.1-.4-.3-.9-.3-1.3.5-2 1.2-3.9 2.2-5.7.9-1.9 1.2-2.3 4.4-7.9.8-1.3.8-1.4.8-1.6 0-.2-.2-.4-.4-.4-.3 0-.5.2-1.2 1.1-2.3 2.9-4.4 6-6.4 9.2-1.6 2.6-2.2 3.4-2.5 3.4-.3 0-.6-.4-1.1-1.2-1.1-2-1.6-4.4-1.6-8.2 0-4.9.4-7.4 1.3-9.2.3-.4.4-.9.5-1.3 0-.6-.4-1.1-1.4-1.9-1.2-1-2.6-1.7-4.1-2.2-.6.1-1.2.5-1.5 1.1zm24.5 2.5c5.1 3.3 8.4 8.9 9.3 16.1.2 1.3.6 1.9 1.7 1.9 1.2 0 2-1.2 2-2.9 0-2.6-1.5-6.2-3.8-9.2-2.2-3-5.4-5.3-8.9-6.4l-.3.5zm-8.1 44c-4 9.7-9.2 16.6-17.2 22.7-1.6 1.1-1.7 1.2-1.7 1.4 0 .2.2.3.4.3 1 0 5.7-3 9.3-6 4.9-4 5.9-5.2 11.8-14.4 3.6 7.9 9.5 14.5 17 19 1.4-1.7 1.9-2.1 4.4-3.2-9.3-3.4-16.3-9.1-20.2-16.4l.4-.3c.2-.1.3-.3.4-.5 0-.3-.2-.5-.5-.6l-4.1-2zm-11 24.6v17.7c0 .3.2.6.5.7h.2c.5 0 1-.1 1.4-.2.9-.3 1.2-.6 1.2-1.3v-2h19.3v2.3c0 .3.2.6.5.6h.1c1.5 0 2.7-.7 2.7-1.6v-11.1l.9-.5c.3-.2.6-.5.7-.8-.1-.3-.3-.7-.6-.9l-3.1-2.4-1.5 1.9H11.8l-3.9-2.4zm3.3 13.8v-10.4h19.3v10.4H11.2zm-.8-18.1h2.8c1.6 0 2.6-.1 2.8-.1h14.6c.3-.1.6-.4.6-.7 0-.3-.2-.6-.5-.8l-3.2-2.6-2.7 3H13.3l-3.3-.1.4 1.3zm-4.3 66.7L10 254c.5.5.7 1.1.6 1.8 0 2.2.1 2.5.8 2.5.6 0 1-.3 1.8-1.4.7-.7 1.1-1.5 1.1-2.5l-.1-1.3-.3-13.1c3.8-4.1 9.1-6.6 13.8-6.6 5.2 0 8.7 2.9 8.7 7.3 0 3.3-1.9 6.5-5.7 9.3-2.4 1.6-5.1 2.9-7.8 3.7-1.4.5-1.5.6-1.5.9 0 .2.2.4.4.5h.1c1-.2 1.9-.4 2.8-.6 3.6-.8 7-2.2 10-4.2 3.2-2.1 5.3-5.6 5.5-9.4 0-5.3-4.8-9.4-10.9-9.4-5.4 0-9.8 1.7-15.3 6l.2-3.4 2-2.2c.1-.1.2-.3.3-.5-.3-.6-.8-1.1-1.5-1.4h-.2l-.5.2.3-4.6c-.1-.7.2-1.4.8-1.7.2-.2.4-.4.4-.7 0-.8-4.2-3.4-5.6-3.4-.5 0-.9.3-1.8 1.4 2.8 1.1 3.2 1.4 3.4 2.5l-.1 7.4-4 1.2c-.5.2-.9.3-1.4.4-.7 0-1.8-.8-2.8-2.1-.4.4-.8 1-.9 1.6 0 .8 3 3.5 3.7 3.5.3-.1.5-.2.7-.4.5-.4 1-.7 1.5-.9l3.1-1.1v5.1l-5.9 7.3c-.7 1.2-1.7 2.2-2.7 3.1-.3.1-.6.4-.7.7-.2.6-.4 1.2-.4 1.8 0 1 .4 1.7 1 1.7.6-.1 1-.4 1.3-.9l1.9-2.6zm.7-.8 4.9-6.1-.3 9.6-4.6-3.5zm5.1 41.7-5.5 1.3c-.4.1-.8.2-1.2.2-1 0-1.9-.6-3.2-2.4-.6.4-1 1.1-1.1 1.8 0 .3 0 .3 1.4 2 .7.8 1.6 1.5 2.6 1.8.4-.1.9-.2 1.2-.5 1.8-.9 3.8-1.5 5.7-1.9v8.7c0 4.4.6 6.2 2.7 7.5 2 1.3 5.6 1.9 11.5 1.9 3.5 0 7.8-.3 8.7-.7.6-.2.9-.7.9-1.3 0-.2-.1-.5-.2-.7-.5-.6-1.1-1-1.9-1.2-.3 0-.6.1-.8.2-1.4.6-5.2.9-9.3.9-8 0-9.2-.9-9.2-6.9v-9.2c4.1-1 8.2-1.7 12.4-2.1v3c.1 1.8-.1 3.6-.5 5.3-.1.2-.3.3-.5.3-.6-.1-1.2-.3-1.8-.6l-6.9-3.2-.4.6 7.7 5.2c.4.3.7.9.6 1.4.1 1.2.3 1.4.8 1.4.9 0 1.9-.9 2.5-2.2.9-1.9 1-2.7 1-10v-1.6c1.9-.1 3.1-.2 4.9-.2 1.8 0 3 0 4 .1 2.3.2 2.3.2 2.5.2.7.1 1.3-.4 1.3-1.1v-.2c0-.6-.2-.8-1.2-1.4-.8-.5-1.7-.9-2.6-1.1-.3 0-.6.2-.8.3-.5.4-1.1.6-1.7.6-.4 0-1.4.1-3.2.3l-2.4.3c-.1 0-.5 0-.9.1l-.1-7.1c.4-.5.8-1.1.9-1.7 0-.8-3.8-2.9-5.2-2.9-.4 0-.7.2-1 .5-.2.1-.3.3-.5.4-.1.1-.3.2-.4.4-.1.1-.2.3-.2.5h.1c.4 0 .9.1 1.3.2.9.2 1.6.8 2 1.6.2 1 .4 2.1.4 3.2l.1 5.2c-2.8.4-8.9 1.4-12.5 2.2l.1-3.7c-.1-.8.2-1.6.6-2.2.3-.4.5-.8.6-1.2 0-.5-.7-1.1-2.2-1.9-1-.6-2-1-3.1-1.3-.9.3-1.7.8-2.3 1.5.9.3 1.8.6 2.7 1.1.7.4.8.6.8 2.2l.8 6.1z"/></svg>
