<svg version="1.1" xmlns="http://www.w3.org/2000/svg" x="0" y="0" viewBox="0 0 39 271" width="39" height="271" xml:space="preserve"><style>.st0{fill-rule:evenodd;clip-rule:evenodd;fill:#fff}</style><path class="st0" d="M23.8 186.6c.6 0 1.3.2 1.7.6.4.5.7 1.1.6 1.7.1 1-.4 1.9-1.2 2.4-.8.5-1.8 1-2.7 1.3-.1 0-.1.1 0 .2 0 .1 0 .1.1.1l3.3-.1c.2 0 .4-.2.5-.4.2-.4.3-.9.4-1.4.1-.5.2-1.1.2-1.6 0-.8-.1-1.6-.4-2.3-.3-.7-.7-1.3-1.3-1.8-.6-.5-1.4-.7-2.2-.7-.6 0-1.3.1-1.8.5-.5.3-.9.7-1.3 1.1-.4.4-.8 1-1.3 1.8s-1 1.4-1.3 1.9c-.4.5-.8.9-1.4 1.2-.6.3-1.2.5-1.9.5-.7.1-1.4-.2-1.9-.7-.4-.5-.6-1.1-.6-1.7 0-1 .5-2 1.3-2.6 1-.8 2.1-1.4 3.3-1.8.1 0 .1-.1.1-.1 0-.1 0-.1-.1-.1l-3.7.1c-.2 0-.4.1-.5.2-.3.5-.5 1.1-.7 1.6-.2.7-.3 1.4-.3 2.1 0 .9.2 1.8.6 2.7.3.7.9 1.4 1.5 1.8.7.4 1.4.6 2.2.6.7 0 1.3-.2 1.9-.5.5-.3 1-.7 1.4-1.2.5-.6.9-1.3 1.4-1.9.5-.8.9-1.4 1.2-1.8.3-.4.7-.8 1.2-1.1.6-.4 1.2-.6 1.7-.6zm-12.4 27.2c0-.5.3-.9.7-1.2.7-.6 1.6-1 2.4-1.4l12.2-5.9c.1 0 .1-.1.1-.2s0-.2-.1-.2l-11.9-5.2c-.7-.3-1.4-.7-2.1-1-.4-.2-.7-.5-1-.9-.2-.3-.3-.7-.3-1.1 0-.1-.1-.1-.2-.1s-.1.1-.1.1V202.3c0 .1.1.1.2.1s.1-.1.1-.1c0-.6.1-1.2.4-1.7.3-.4.8-.6 1.3-.6s.9.1 1.3.3l2.7 1.2v5.8l-3.8 1.8c-.4.2-.8.4-1.3.4-.2 0-.4-.1-.5-.3-.1-.3-.2-.7-.2-1 0-.1 0-.1-.1-.1s-.1 0-.1.1v5.7c0 .1.1.1.2.1 0-.1.1-.1.1-.2zm12-9.6-5.7 2.8v-5.3l5.7 2.5zm0 25.2h-6.9c-1.3.1-2.6-.3-3.7-1.2-1.8-1.9-1.7-4.8.1-6.5 1.3-.9 2.8-1.3 4.4-1.2h7c.4 0 .7 0 1.1.1.2.1.4.3.5.5.1.4.2.8.1 1.2 0 0 0 .1.1.1s.1 0 .1-.1v-6s0-.1-.1-.1-.1 0-.1.1c0 .4 0 .8-.1 1.2-.1.2-.3.4-.5.5-.3.1-.7.2-1.1.2h-7.9c-1.1 0-2.1.2-3.1.8-.9.5-1.6 1.2-2 2.1-.5 1-.7 2-.7 3.1s.2 2.1.7 3.1c.5.9 1.2 1.6 2 2.1.9.5 2 .8 3.1.7h6.9c.7 0 1.4.1 2 .5.5.3.7.9.7 1.5h.2v-4.9H26c0 .6-.2 1.2-.7 1.6-.4.4-1.1.6-1.9.6zm3 22.2v-4.7h-.2c0 .6-.2 1.1-.7 1.4-.6.4-1.3.6-2 .5h-8.7l10.4-8.7.8-.6c.1-.1.3-.2.4-.3.1-.1.1-.2.1-.3v-4.1h-.2c0 .4-.1.8-.3 1.1-.3.5-.6.9-1 1.2H14c-.7 0-1.4-.2-2-.6-.5-.4-.7-1-.7-1.6 0 0 0-.1-.1-.1s-.1 0-.1.1v4.8h.2c0-.6.2-1.1.7-1.5.6-.4 1.3-.5 2-.5h10L10.6 249v.2c0 .1 0 .1.1.1h12.7c.7 0 1.4.1 2 .5.5.4.7.9.7 1.5h.1c.1 0 .2.3.2.3zm-15 19.3c0-.5.3-.9.7-1.2.7-.6 1.6-1 2.4-1.4l12.2-5.9c.1 0 .1-.1.1-.2s0-.2-.1-.2l-11.9-5.2c-.7-.3-1.4-.6-2.1-1-.4-.2-.7-.5-1-.9-.2-.3-.3-.7-.3-1.1 0-.1-.1-.1-.2-.1s-.1.1-.1.1v5.7c0 .1.1.1.2.1s.1-.1.1-.1c0-.6.1-1.2.4-1.7.3-.4.8-.6 1.3-.6s.9.1 1.3.3l2.7 1.2v5.8l-3.8 1.8c-.4.2-.8.4-1.3.4-.2 0-.4-.1-.5-.3-.1-.3-.2-.7-.2-1 0-.1 0-.1-.1-.1s-.1 0-.1.1v5.7c0 .1.1.1.2.1 0-.2.1-.3.1-.3zm12-9.6-5.7 2.8v-5.3l5.7 2.5z"/><path class="st0" d="M32.9 11.7c-.4.1-.9.1-1.3.1H27l-.2-6.4V5c-.1-.5.1-.9.5-1.2.4-.2.6-.6.7-1.1 0-.7-.5-1.1-2.5-1.8-1.2-.5-1.2-.5-1.9-.7-.3-.1-.5-.2-.7-.2-.4 0-.7.2-2.2 1.4.4.1.7.3 1 .5 2.1 1 2.2 1 2.3 1.8 0 .2 0 .7.1 1.7l.1 6.6c-5.3.4-7 .6-9.6.9l.1-5.1v-.9c.1-.2.2-.3.3-.5.4-.3.6-.6.8-1.1 0-.5-1-1.2-2.6-1.8-.8-.4-1.7-.6-2.6-.7-.4.1-.6.2-1.9 1.5 2.5.8 3 1 3.2 1.4 0 .1 0 .3.1 2.2l.1 5.4c-1.7.2-1.7.2-2.2.3-1.4.2-2.9.4-4.4.4-1.3 0-1.6-.2-3.5-2.2l-.3-.3c-.4.5-.8 1.1-1 1.7.4.9 1 1.8 1.8 2.5 1.2 1.3 1.8 1.8 2.2 1.8.2 0 .3-.1.4-.1 2.2-1 4.5-1.7 6.8-2v6.1c0 .6-.1 1.2-.3 1.8-.1.3-.2.6-.2.9.2 1.1 1.2 1.9 2.3 2.1.6-.1 1.1-.6 1-1.2V25l-.1-10c5-.6 6.6-.7 9.5-.9.1 10.8-2.8 16.2-11.8 21.7-.9.5-1.1.7-1.1 1 0 .2.2.4.4.4 1.2-.4 2.4-.9 3.4-1.5 5.8-3.1 9.1-6.7 10.8-11.9.8-2.3.9-3.4 1.2-9.8 2.9-.1 5.8.1 8.7.7.9.2 1.7.3 2.6.4.4 0 .8-.3.8-.7 0-1.2-.8-1.8-4.2-3.6l-2 .9zm-1.6 50.7L29.4 64c-2.9 0-5.9.2-8.8.6v-4.7c-.2-.5.1-1 .6-1.2.3-.2.5-.4.6-.8-.1-.5-.4-1-.8-1.3-1.3-.6-2.7-1.1-4.1-1.4-1 .1-1.9.7-2.5 1.5 2.5.6 3.3 1.1 3.3 1.9V64.9h-.9c-.8.1-1.5.2-2.2.2l-2.9.3-1.3.1c-.1 0-.4 0-.7-.1l-.5-.4c-2.6-1.8-2.6-1.8-3.1-1.8-.7 0-2 .7-2 1.1v.1c.5.1 1 .4 1.5.7 1.1.7 1.1.7 1.2 2.2l.3 8.4v.4c0 .2 0 .5-.1.7-.1.2-.1.5-.1.7.1 1.1 1 2 2.1 2.1.7 0 1.2-.5 1.2-1.2v-.6L9.3 67c.3.4.7.8 1.2.9h.3c5.5-1.2 11.1-1.8 16.7-1.8h2.3c-3.6 13.1-8.9 20.5-18.2 25.6-.3.1-.6.3-.7.6 0 .2.2.4.4.4 1-.3 2-.7 3-1.2 5.7-3 10.5-7.5 13.7-13 2.1-3.5 3.8-7.2 5-11.1 1.8-.5 2.1-.6 2.1-1.2-.1-.5-.3-1-.8-1.3l-3-2.5zm1.4 59.3h-.9l-4.3.3-4.2.3-1.3.1v-5.3c-.1-.8.1-1.6.5-2.2.1-.2.2-.4.2-.7-.2-.4-.5-.8-.9-1-1.4-.8-2.9-1.4-4.5-1.8-.7.2-1.3.6-1.7 1.2-.2.2-.3.4-.3.7 1.7.2 3.7 1.4 3.4 2.1 0 .2 0 1 .1 2.4v4.8l-9.7 1c-1.1.1-2.6.2-3.7.2-1.5.2-3-.5-3.8-1.8-.2-.2-.4-.4-.7-.5-.2 0-.4.4-.9 1.9.6 1.4 3.4 4 4.4 4 .3 0 .5-.1.8-.3 1.1-.7 1.4-.8 4.2-1.3 3.1-.6 6.2-1 9.4-1.2-.4 11.3-2.5 15.6-10.4 21.5-.8.5-1 .7-1 1 0 .2.2.4.4.4 1.1-.3 2.1-.8 3-1.5 3.8-2.1 7-5.4 8.9-9.2 1.5-3.1 1.9-5.5 2.3-12.4 1.8-.1 2.9-.2 5-.2 3-.1 6 .1 9 .6.5.1 1 .2 1.5.2s1-.4 1-.9v-.1c0-1.2-1.7-2.5-4.1-3.2l-1.7.9z"/></svg>
