<svg version="1.1" xmlns="http://www.w3.org/2000/svg" x="0" y="0" viewBox="0 0 49 109" width="49" height="109" xml:space="preserve"><style>.st0{fill-rule:evenodd;clip-rule:evenodd;fill:#fff}</style><path class="st0" d="M7.3 9.6c3.4 1.4 6.3 4.1 8.7 8.1.7 1.3 1 1.6 1.6 1.6.7-.1 1.2-.8 1.2-1.5-.2-1-.6-2-1.2-2.8-.6-.9-1.4-1.7-2.2-2.4 3.8-2.3 7.4-4.9 10.8-7.7h.8c.9 0 1.3-.2 1.3-.6 0-.7-1.6-2.7-2.9-3.6l-1.2.9-1 .1c-4.6.5-6.2.7-7.7.9L5.6 4.2c-2.5.3-2.5.3-2.7.3-.5 0-1-.4-2.2-1.7-.3.4-.6.8-.7 1.3 0 .5 2.6 3.4 3.1 3.4.2 0 .3-.1.4-.2.3-.1.5-.3.8-.5l.4-.2c1-.4 2.1-.6 3.1-.8 5.2-1.2 10.5-2 15.8-2.5-2.7 3.2-5.8 6.1-9.1 8.6-2-1.5-4.4-2.5-6.8-3l-.4.7zm-.4 36.3c1.3.9 2.2 2.2 2.5 3.8.4 1.6.7 1.9 1.4 1.9S12 51 12 50.3v-.1c0-1.8-1.7-3.6-4.8-4.8l-.3.5zm15.8-1.7c.6.4 1.1.9 1.3 1.6 0 1.2-2.4 5.7-4.7 8.7-2.4 3-5.5 5.4-9 7-.7.3-.8.4-.8.7 0 .2.2.3.4.3.8 0 5-2.1 7-3.6 4-3 7.1-6.9 9.3-11.4.8-.3 1-.4 1-.7 0-.8-2.3-3.2-3-3.2-.2 0-.3.1-.5.1-.3.3-.5.4-1 .5zm-9.9-.2c1.5 1.1 2.6 2.7 3.1 4.5.4 1.2.6 1.4 1.3 1.4.7 0 1.2-.5 1.2-1.2v-.1c0-2.1-2.3-4.4-5.3-5.1l-.3.5zm13.7 37.2c-1.9 0-3.5 1.5-3.5 3.4s1.5 3.5 3.4 3.6 3.5-1.5 3.5-3.4v-.1c0-1.9-1.5-3.5-3.4-3.5zm-.1 1c1.3 0 2.4 1.1 2.5 2.4 0 1.3-1 2.4-2.4 2.5-1.3 0-2.4-1.1-2.5-2.4 0-1.4 1.1-2.4 2.4-2.5zm-6.3 5.1c-3.6.2-5.4.4-5.8.4l-6.5.5c-2.8.3-2.8.3-2.9.3-.8 0-1-.2-2.7-1.6-.4.4-.6.8-.7 1.3 0 .6 2.8 3.2 3.5 3.2.3 0 .6-.1.8-.3 1.4-.8 1.6-.9 11.5-1.9l2.3-.3h.7c-.9 3.8-2.4 7.3-4.4 10.6-2.1 3.2-4.8 5.4-10.2 8.4-.7.4-.9.5-.9.8 0 .2.2.4.4.4 1.3-.4 2.6-1 3.7-1.7 5.4-2.8 8-5 10.3-8.9 1.6-2.6 2.9-5.3 3.7-8.2.9-.3 1.2-.5 1.2-.8 0-.4-.8-1.1-3.3-3l-.7.8z"/><path class="st0" d="M40.3 11.3c0-.2 0-.5.1-.7 0-.1.1-.2.3-.3.2-.1.4-.1.6-.1l6.4-.3c.3 0 .6.1.8.3.2.3.3.6.2 1h.2V9.1c0-.1 0-.2-.1-.2-.1-.1-.2-.1-.3-.2l-6.4-2.8 6-3.1c.2-.1.4-.2.6-.4.1-.1.1-.2.1-.3V0h-.2c0 .2-.1.5-.2.7-.2.2-.4.4-.7.6l-6-.1c-.4 0-.8-.1-1.1-.3-.3-.2-.4-.6-.4-.9H40V2.8s0 .1.1.1.1 0 .1-.1c0-.3.1-.7.4-.9.3-.2.7-.3 1.1-.3l5.3.1-6.9 3.5-.1.1s0 .1.1.1l7 3-6 .3h-.2c-.2 0-.4 0-.6-.2-.1-.3-.2-.5-.1-.8H40V11.1c.1.2.1.2.3.2-.1 0 0 0 0 0zm0 11.7c0-.3.2-.5.4-.7.4-.3.9-.6 1.4-.8L49 18s.1-.1 0-.1v-.1l-6.8-3-1.2-.6c-.2-.1-.4-.3-.6-.5-.1-.2-.2-.4-.2-.7l-.1-.1s-.1 0-.1.1v3.2l.1.1s.1 0 .1-.1c0-.3.1-.7.3-1 .2-.2.5-.4.7-.4.3 0 .5.1.8.2l1.5.7v3.4l-2.2 1.1c-.2.1-.5.2-.7.2-.1 0-.3-.1-.3-.2-.1-.2-.1-.4-.1-.6 0 0 0-.1-.1-.1s-.1 0-.1.1v3.3c.1.2.1.2.3.1-.1.1-.1.1 0 0zm6.9-5.6L43.9 19v-3l3.3 1.4zm-5.9 10h6.4c.2 0 .4 0 .6.1.1 0 .2.1.3.3.1.2.1.3.1.5 0 .5-.2 1.1-.6 1.4-1 .7-2.4.7-3.5 0-.4-.3-.6-.8-.6-1.2 0-.2 0-.3.1-.5h-.2c-.1.2-.1.4-.1.7 0 .5.1 1 .3 1.5.2.5.5.9.9 1.2.4.3 1 .5 1.5.5.7.1 1.4-.3 1.8-.8.4-.7.6-1.4.6-2.2v-3.7h-.2c0 .2 0 .5-.1.7 0 .1-.1.2-.3.3-.1-.2-.4-.2-.6-.2h-6.5c-.2 0-.4 0-.6-.1-.1 0-.2-.2-.3-.3-.1-.2-.1-.5-.1-.7H40v3.8h.2c0-.3 0-.6.1-1 0-.2.1-.3.3-.4.2.1.5.1.7.1z"/></svg>
