<svg version="1.1" id="ttl-map-01-sp.svg" xmlns="http://www.w3.org/2000/svg" x="0" y="0" viewBox="0 0 37 334" width="37" height="334" style="enable-background:new 0 0 37 334" xml:space="preserve"><style>.st0{fill-rule:evenodd;clip-rule:evenodd;fill:#fff}</style><path id="ACCESS" class="st0" d="M11.4 256.1c0-.5.2-1 .6-1.3.8-.5 1.5-1 2.4-1.4l11.8-5.8c0-.1.1-.1.1-.2s0-.2-.1-.2L14.6 242c-.7-.3-1.4-.6-2-1-.4-.2-.7-.5-.9-.9-.2-.4-.3-.8-.3-1.2 0-.1-.1-.1-.2-.1 0 0-.1 0-.1.1v5.7c0 .1.1.1.2.1 0 0 .1 0 .1-.1 0-.6.1-1.2.4-1.7.3-.4.8-.6 1.3-.6.4 0 .9.1 1.3.3l2.6 1.1v5.9l-3.7 1.8c-.4.2-.8.4-1.2.4-.2 0-.4-.1-.5-.3-.1-.4-.2-.7-.2-1.1 0-.1-.1-.1-.2-.1 0 0-.1 0-.1.1v5.7c0 .1.1.1.3 0-.1.1-.1 0 0 0zm11.7-9.6-5.6 2.8V244l5.6 2.5zm3.1 21.5c0-1.6-.3-3.2-1-4.6-.6-1.3-1.6-2.4-2.8-3.2-2.4-1.6-5.6-1.6-8 0-1.2.7-2.1 1.8-2.7 3.1-.7 1.4-1 3-1 4.6 0 1.6.3 3.1.9 4.6 0 .1.1.2.2.2.1.1.2.1.4.1l2.9.3s.1 0 .1-.1v-.1c-1.1-.4-2.1-1.2-2.9-2.1-.6-.8-1-1.9-.9-2.9 0-1.1.3-2.3.9-3.2.7-1 1.6-1.7 2.6-2.2 1.2-.6 2.5-.9 3.8-.8 1.3 0 2.6.2 3.8.7 1 .4 1.9 1.2 2.5 2.2.6.9.9 2 .9 3.1s-.3 2.2-1 3.1c-.8.9-1.8 1.5-3 1.8-.1 0-.1.1-.1.2s0 .1.1.1l3.1-.3c.2 0 .4-.1.5-.3.5-1.4.8-2.8.7-4.3zm0 18.2c0-1.6-.3-3.2-1-4.6-.6-1.3-1.6-2.4-2.8-3.2-2.4-1.6-5.6-1.6-8 0-1.2.7-2.1 1.8-2.7 3.1-.7 1.4-1 3-1 4.6 0 1.6.3 3.1.9 4.6 0 .1.1.2.2.2.1.1.2.1.4.1l2.9.3s.1 0 .1-.1v-.1c-1.1-.4-2.1-1.2-2.9-2.1-.6-.8-1-1.9-.9-2.9 0-1.1.3-2.3.9-3.2.6-1 1.5-1.8 2.6-2.2 1.2-.6 2.5-.9 3.8-.9 1.3 0 2.6.3 3.8.8 1 .4 1.9 1.2 2.5 2.2.6.9.9 2 .9 3.1s-.3 2.2-1 3.1c-.8.9-1.8 1.5-3 1.8-.1 0-.1.1-.1.2s0 .1.1.1l3.1-.3c.1 0 .3 0 .4-.1.1 0 .1-.1.2-.2.4-1.4.7-2.8.6-4.3zM14.8 306c-1.9-.4-3.2-2.1-3.1-4.1v-1.2c0-.4.1-.7.3-1 .3-.2.7-.3 1.1-.3h5.4v2.2c0 1.8-.7 2.7-2.1 2.7 0 .1-.1.1 0 .2v.1h1.2l1.1-.1 2.1.1c.1 0 .1-.1.1-.2s0-.1-.1-.1c-1.2 0-1.8-.9-1.8-2.6v-2.3h5c.4 0 .8.1 1 .3.2.4.3.8.3 1.2v1c.2 1.7-1.1 3.1-2.7 3.3 0 .1-.1.1 0 .2 0 .1 0 .1.1.1h3.1c.1 0 .2-.1.2-.3v-9.9c0-.1 0-.1-.1-.1s-.1 0-.1.1c0 .4 0 .7-.1 1.1 0 .3-.2.5-.5.5-.3.1-.7.2-1 .2H13c-.4 0-.7-.1-1.1-.2-.3 0-.4-.2-.5-.5-.1-.4-.1-.7-.1-1.1 0-.1 0-.1-.1-.1s-.1 0-.1.1v10.4c0 .1 0 .2.1.3h.3c1.1 0 2.2.1 3.3.3 0 0 0-.1.1-.1v-.1l-.1-.1zm8.6 7.1c.6 0 1.2.2 1.7.6.4.5.7 1.1.6 1.8 0 .9-.4 1.8-1.2 2.4-.8.5-1.7.9-2.6 1.3 0 0-.1 0 0 .1 0 .1 0 .1.1.1h3.2c.2 0 .4-.2.5-.4.2-.5.3-.9.4-1.4.1-.5.2-1.1.2-1.6 0-.8-.1-1.6-.4-2.3-.2-.7-.7-1.4-1.3-1.8-.6-.5-1.3-.7-2.1-.7-.6 0-1.2.1-1.8.4-.5.3-.9.7-1.3 1.1-.3.5-.8 1.1-1.3 1.8-.5.8-.9 1.4-1.3 1.9-.4.4-.8.8-1.3 1.1-.6.3-1.2.5-1.8.5-.7.1-1.4-.2-1.9-.7-.4-.5-.6-1.1-.6-1.7 0-1 .4-2 1.3-2.6 1-.8 2.1-1.4 3.2-1.8.1 0 .1-.1.1-.2s0-.1-.1-.1l-3.6.1c-.2 0-.3.1-.5.3-.3.5-.5 1-.6 1.6-.2.7-.3 1.4-.3 2.1 0 .9.2 1.8.5 2.6.3.7.8 1.4 1.5 1.8.6.5 1.4.7 2.2.7.7 0 1.3-.2 1.9-.5.5-.4.9-.8 1.3-1.2.5-.6.9-1.3 1.3-2 .4-.6.8-1.2 1.2-1.7.3-.5.7-.9 1.2-1.1.5-.3 1.1-.5 1.6-.5zm0 14c.6 0 1.2.2 1.7.6.4.5.7 1.1.6 1.7.1 1-.4 1.9-1.2 2.4-.8.6-1.7 1-2.6 1.3 0 0-.1.1 0 .2 0 .1 0 .1.1.1l3.2-.1c.2 0 .4-.1.5-.3.2-.5.3-.9.4-1.4.1-.5.2-1.1.2-1.6 0-.8-.1-1.6-.4-2.4-.3-.7-.7-1.3-1.3-1.8-.6-.4-1.3-.7-2.1-.7-.6 0-1.2.2-1.8.5-.5.3-.9.7-1.3 1.1-.5.6-.9 1.2-1.3 1.8-.5.8-.9 1.4-1.3 1.9-.4.4-.8.8-1.3 1.1-.6.3-1.2.5-1.8.5-.7 0-1.4-.2-1.9-.7-.4-.5-.6-1.2-.6-1.8 0-1 .5-2 1.3-2.6 1-.7 2.1-1.3 3.2-1.8.1 0 .1 0 .1-.1s0-.1-.1-.1l-3.6.1c-.2 0-.4.1-.5.3-.3.5-.5 1-.6 1.6-.2.7-.3 1.3-.3 2 0 .9.2 1.8.5 2.7.3.7.8 1.4 1.5 1.8.7.4 1.4.6 2.2.6.7 0 1.3-.1 1.9-.5.5-.3 1-.7 1.3-1.2.5-.6.9-1.2 1.3-1.9.5-.7.9-1.3 1.2-1.8.3-.4.7-.8 1.2-1.1.6-.3 1.1-.4 1.6-.4z"/><path id="アクセス" class="st0" d="M31.4 6.6c1.4-.8 2.5-1.5 3.3-2 .3.1.5.1.8.1 1.1 0 1.6-.3 1.6-.8s-.4-1-2-2.3C33.5.3 33.5.3 33.1 0l-1.6 1.3c-8.9.6-10.2.7-17.8 1.5-1.8.2-3.5.3-5.1.5-.4.1-.8.2-1.2.2-.3 0-.5.1-.7.1-.9 0-1.6-.7-2.6-2-.8.3-1.3 1.1-1.2 1.9 0 .3.6 1.1 2 2.5.5.5 1 1 1.6 1.3.1 0 .3-.1.4-.2 2.9-1.8 7.2-2.4 23.9-3.8-3.2 2.8-4.6 4-8.8 7.2-1.5-1.3-3.2-2.2-5.1-2.8-1.6 1.1-1.7 1.2-1.7 1.5 0 .2.2.2.7.4 1.7.3 2.5 1.1 2.5 2.4-.1 3.8-1 7.6-2.4 11.2-1.8 3.6-4.6 6.6-8 8.7-.6.4-.8.5-.8.8 0 .2.2.4.4.4.7 0 5-2.9 6.9-4.7 4.2-3.8 6.3-8.7 6.8-16 2.9-1.5 3.5-1.9 7.2-4.1l2.9-1.7zm-4 53.6c-.4.1-.8.1-1.2.1l-3.2.2-2.7.1h-1.7c.4-.6.5-.8.9-1.4.2-.3.4-.7.6-1 .2-.4.5-.6.9-.7.7-.3 1-.5 1-.9 0-.5-.3-.8-1.1-1.3-3.1-2-3.1-2-3.7-2-.8.1-1.6.5-2.2 1 0 .2.1.3.7.5 1 .4 1.8 1 1.8 1.4-1 2.5-2.2 4.9-3.7 7.2-2.4 4.1-5.4 7.8-8.9 11-.6.5-.8.6-.8.9 0 .2.2.4.4.4.5 0 2.7-1.6 4.4-3.2 3.4-3 6.4-6.4 8.8-10.2l.7.7c3.1-.6 6.3-.9 9.5-.9-5.1 11.5-11.1 18.8-20.8 24.7-.3.1-.6.4-.6.7 0 .3.2.5.5.5.4 0 2.1-.9 4.6-2.5 6.1-3.8 9.2-6.5 12.7-11.3 2.4-3.3 4.4-6.7 6.1-10.4.1-.4.4-.7.8-.8 1-.3 1.4-.5 1.4-.8-.1-.5-.3-.9-.7-1.1l-.6-.6c-.6-.7-1.3-1.2-2.1-1.7l-1.8 1.4zm-12.1 58.5.2-4.8c0-.5.3-1 .6-1.3.3-.3.6-.7.7-1.1-.1-.5-.5-.8-1-.9-2.7-1.5-4-2-4.9-2-.5 0-.7.2-1.6 1.5 3 1 3.5 1.5 3.5 2.6v1.8l-.2 4.7-7.6 1.4c-.5.2-1.1.3-1.6.3-.3 0-.7-.2-2.6-2.1-.4.6-.7 1.3-.8 2 0 .3.2.5.9 1.3l.9.9c1.3 1.4 1.7 1.8 2.2 1.8.5-.1.9-.3 1.2-.7.8-.8 2.4-1.3 7.4-2.6l-.2 8.8v1.5c0 4.1.4 5.7 1.8 6.6 1.5.9 4.5 1.3 10.3 1.3 2.4.1 4.8-.1 7.1-.6.6-.2 1-.6 1.1-1.2-.2-1.1-1-1.9-2.1-2-.5.1-1.1.2-1.6.4-1.7.6-3.4.8-7.4.8-6.5 0-6.7-.2-6.7-5.8v-2l.3-8.4 1.5-.3c7-1.4 8-1.6 12.3-2.2-3.2 4-5 5.9-10.6 10.8l.4.4c4.7-2.7 9.1-5.9 13.2-9.5.2-.2.4-.4.7-.5h.9c1.1 0 1.8-.3 1.8-.8 0-.6-2-2.5-4-3.8l-1.3 1.2-14.8 2.5zm12.3 48.5-1.4 1.5-15.4 2.2H9.7c-.8 0-1.6-.6-2.4-2.1-1 1.5-1 1.5-1 1.8 0 .5.5 1.2 2.1 3 .8.8 1 1 1.3 1 .5-.1.9-.3 1.2-.6.5-.3 1.1-.6 1.6-.7 2.1-.5 2.8-.6 4.6-1 4.9-1.1 5.8-1.3 8.6-1.5-6.5 12-12.1 18.1-22.6 24.6-1.1.7-1.3.9-1.3 1.2 0 .2.2.4.5.4 1.5-.4 2.8-1 4.1-1.8C12 192.1 17 188 21.1 183c3.2 1.7 9.6 7.6 11 10.4.9 1.3 1.3 1.7 2 1.7.9-.1 1.6-.9 1.6-1.8 0-3.3-5.2-7.5-13.8-11.3 2.6-3.2 5-6.5 7.1-10l1.1-.3c.6-.1 1-.3 1-.8-.1-.5-.4-.9-.8-1.2l-2.7-2.5z"/></svg>
