<svg version="1.1" xmlns="http://www.w3.org/2000/svg" x="0" y="0" viewBox="0 0 49 116" width="49" height="116" style="enable-background:new 0 0 49 116" xml:space="preserve"><style>.st0{fill-rule:evenodd;clip-rule:evenodd;fill:#fff}</style><path class="st0" d="M47.4 4.4c.4 0 .7.1 1 .4.3.3.4.6.4 1 0 .6-.2 1.1-.7 1.4-.5.3-1 .6-1.6.8v.1s0 .1.1.1h1.9c.1 0 .2-.1.3-.2.1-.3.2-.5.2-.8V6.1c0-.5-.1-.9-.2-1.4-.2-.4-.4-.8-.8-1.1-.4-.3-.8-.4-1.2-.4-.4 0-.7.1-1 .3-.3.2-.5.4-.7.6-.3.3-.5.7-.7 1.1-.3.5-.6.8-.8 1.1-.3.3-.6.5-.9.7-.3.2-.7.3-1.1.3-.4 0-.8-.1-1.1-.4-.2-.3-.3-.6-.3-1 0-.6.3-1.2.7-1.5.6-.4 1.2-.8 1.9-1.1 0 0 .1 0 0-.1 0 0 0-.1-.1-.1l-2.1.1c-.1 0-.2.1-.3.1-.2.3-.3.6-.4.9-.1.4-.2.8-.2 1.2.2.6.3 1.1.5 1.6.2.4.5.8.9 1.1.4.3.8.4 1.3.4.4 0 .8-.1 1.1-.3.3-.2.5-.4.7-.7.2-.3.5-.7.8-1.1.2-.4.5-.7.7-1 .2-.3.4-.5.7-.7.3-.2.6-.3 1-.3zm-7.2 16.3c0-.3.2-.5.4-.7.4-.3.9-.6 1.4-.8l7-3.5s.1-.1 0-.1v-.1l-6.8-3-1.2-.6c-.2-.1-.4-.3-.6-.5-.1-.2-.2-.4-.2-.7l-.1-.1s-.1 0-.1.1v3.2l.1.1s.1 0 .1-.1c0-.3.1-.7.3-1 .2-.2.5-.4.7-.4.3 0 .5.1.8.2l1.5.7v3.4l-2.2 1.1c-.2.1-.5.2-.7.2-.1 0-.2-.1-.3-.2-.1-.2-.1-.4-.1-.6 0 0 0-.1-.1-.1s-.1 0-.1.1v3.4h.2zm6.9-5.7-3.3 1.6v-3.1l3.3 1.5zm0 15.1h-4c-.8.1-1.5-.2-2.1-.7-1-1.1-1-2.8.1-3.8.7-.5 1.6-.8 2.5-.7h4c.2 0 .4 0 .6.1l.3.3c.1.2.1.5.1.7h.2V22.6h-.2c0 .2 0 .5-.1.7 0 .1-.1.3-.3.3-.2.1-.4.1-.6.1h-4.5c-.6 0-1.2.1-1.8.4-.5.3-.9.7-1.2 1.3-.3.6-.4 1.2-.4 1.8 0 .6.1 1.3.4 1.8.3.5.7.9 1.2 1.2.5.3 1.2.4 1.8.4h4c.4 0 .8.1 1.1.3.3.2.4.5.4.9h.2V29h-.2c0 .4-.1.7-.4.9-.3.1-.7.3-1.1.2zm1.7 13.4V40.8h-.2c0 .3-.1.7-.4.8-.3.2-.7.3-1.1.3h-5l6-5.1.5-.3c.1 0 .2-.1.2-.2 0 0 .1-.1.1-.2v-2.4h-.2c0 .2-.1.5-.2.7-.2.3-.4.5-.6.7h-6.2c-.4 0-.8-.1-1.1-.3-.3-.2-.4-.6-.4-.9H40v2.9h.2c0-.3.1-.7.4-.9.3-.2.7-.3 1.1-.3h5.7l-7.7 6.6v.1s0 .1.1.1h7.3c.4 0 .8.1 1.1.3.3.2.4.5.4.9.1-.1.1-.1.2-.1 0 0 .1 0 0 0zm-8.6 11.7c0-.3.2-.5.4-.7.4-.3.9-.6 1.4-.8l7-3.5s.1-.1 0-.1V50l-6.8-3-1.2-.6c-.2-.1-.4-.3-.6-.5-.1-.2-.2-.4-.2-.7l-.1-.1s-.1 0-.1.1v3.2l.1.1s.1 0 .1-.1c0-.3.1-.7.3-1 .2-.2.5-.4.7-.4.3 0 .5.1.8.2l1.5.7v3.4l-2.2 1.1c-.2.1-.5.2-.7.2-.1 0-.3-.1-.3-.2-.1-.2-.1-.4-.1-.6 0 0 0-.1-.1-.1s-.1 0-.1.1v3.3c0 .1.1.1.2.1zm6.9-5.7-3.3 1.6V48l3.3 1.5z"/><path class="st0" d="M25.2 9.2c-.3.1-.7.1-1 .1h-3.5l-.1-5v-.4c-.1-.4.1-.7.4-.9.3-.2.5-.5.5-.8 0-.6-.4-.8-2-1.4-.9-.4-.9-.4-1.4-.6-.2-.1-.4-.2-.5-.2-.3 0-.5.2-1.7 1.1.3.1.5.2.8.4 1.6.8 1.7.8 1.7 1.4 0 .2 0 .6.1 1.4l.1 5.2c-4.1.3-5.4.4-7.4.7l.1-4v-.7c.1-.1.2-.3.3-.4.3-.2.5-.5.6-.8 0-.4-.8-.9-2-1.4-.6-.3-1.3-.5-2-.6-.3 0-.4.1-1.4 1.1 1.8.6 2.2.8 2.3 1.1.1.5.1 1.1.1 1.7l.1 4.2c-1.3.2-1.3.2-1.7.2-1.1.2-2.2.3-3.4.3-1 0-1.2-.2-2.7-1.7L1.3 9c-.3.4-.6.8-.8 1.3.3.7.8 1.4 1.4 2 .9 1 1.4 1.5 1.7 1.5.1 0 .2 0 .3-.1 1.7-.8 3.4-1.3 5.3-1.6v4.8c0 .5-.1 1-.3 1.4-.1.2-.1.5-.1.7.2.9.9 1.5 1.8 1.6.5-.1.8-.5.8-1v-.1l-.1-7.8c3.8-.4 5.1-.6 7.3-.7.1 8.5-2.2 12.8-9.1 17.1-.7.4-.9.5-.9.8 0 .2.1.3.3.3.9-.3 1.8-.7 2.6-1.2 4.5-2.4 7-5.3 8.3-9.3.6-1.8.7-2.7.9-7.7 2.2-.1 4.5.1 6.7.5.7.1 1.3.2 2 .3.3 0 .6-.2.6-.6 0-.9-.6-1.4-3.3-2.8l-1.5.8zM24 49.1l-1.4 1.3c-2.3 0-4.5.2-6.7.4v-3.7c-.1-.4.1-.8.4-1 .2-.1.4-.3.5-.6-.1-.4-.3-.8-.7-1-1-.5-2.1-.8-3.2-1.1-.8.1-1.5.5-1.9 1.2 2 .5 2.6.9 2.5 1.5v5L13 51c-.6.1-1.2.2-1.7.2l-2.3.2-1 .1c-.1 0-.3 0-.5-.1L7 51c-2-1.4-2-1.5-2.4-1.5-.6.1-1.2.4-1.6.9v.1c.4.1.8.3 1.1.5.8.6.8.6.9 1.7l.3 6.6v.3c0 .2 0 .4-.1.5-.1.2-.1.4-.1.6.1.9.7 1.5 1.6 1.6.5 0 .9-.4.9-.9v-.5l-.7-8.5c.2.3.6.6.9.7h.3c4.2-.9 8.5-1.4 12.8-1.5h1.7c-2.8 10.3-6.8 16.1-14 20.2-.3.1-.5.3-.5.5s.1.3.3.3c.8-.2 1.6-.5 2.3-.9 4.4-2.3 8.1-5.9 10.5-10.2 1.6-2.7 2.9-5.7 3.8-8.7 1.4-.4 1.6-.5 1.6-.9s-.3-.8-.6-1l-2-1.8zm1.1 46.6h-.7l-3.3.3-3.2.2-1 .1v-4.1c-.1-.6.1-1.2.4-1.7.1-.2.2-.3.2-.5-.1-.3-.4-.6-.7-.8-1.1-.6-2.3-1.1-3.5-1.4-.5.1-1 .5-1.3.9-.2.1-.2.3-.2.5 1.3.1 2.8 1.1 2.6 1.6 0 .1 0 .8.1 1.9v3.7l-7.5.9c-.9.1-2 .1-2.9.1-1.2.1-2.3-.4-2.9-1.4-.1-.2-.3-.3-.5-.4-.2 0-.3.3-.7 1.5.5 1.1 2.6 3.1 3.4 3.1.2 0 .4-.1.6-.2.8-.5 1.1-.6 3.3-1 2.4-.5 4.8-.8 7.2-1-.3 8.9-1.9 12.3-8 16.9-.4.1-.7.4-.8.8 0 .2.1.3.3.3.8-.3 1.6-.7 2.3-1.2 3-1.7 5.3-4.2 6.8-7.3 1.1-2.5 1.4-4.4 1.7-9.7 1.4-.1 2.2-.1 3.8-.1 2.3-.1 4.6.1 6.9.5.4.1.7.2 1.1.2.4 0 .8-.3.8-.7v-.1c0-.9-1.3-2-3.2-2.5l-1.1.6z"/></svg>
