<svg version="1.1" xmlns="http://www.w3.org/2000/svg" x="0" y="0" viewBox="0 0 54 243" width="53" height="243" xml:space="preserve"><style>.st0{fill-rule:evenodd;clip-rule:evenodd;fill:#fff}</style><path class="st0" d="M53.7 7c0-.9-.2-1.8-.6-2.7-.4-.8-.9-1.4-1.6-1.9-.7-.4-1.5-.6-2.4-.6-.8 0-1.7.2-2.4.7-.7.4-1.3 1.1-1.6 1.8-.4.8-.6 1.8-.6 2.7 0 .9.2 1.8.5 2.7 0 .1.1.1.1.1.1 0 .1.1.2 0l1.7.2v-.2c-.7-.3-1.3-.7-1.7-1.2-.3-.4-.5-1-.4-1.6 0-.7.2-1.3.6-1.9.4-.6.9-1 1.5-1.3.7-.3 1.5-.5 2.3-.5.8 0 1.5.1 2.3.4.6.3 1.1.7 1.5 1.3.3.5.5 1.2.5 1.8 0 .6-.2 1.3-.6 1.8-.5.5-1.1.9-1.8 1.1 0 0-.1.1 0 .1 0 0 0 .1.1.1l1.7-.2c.1 0 .1 0 .2-.1l.1-.1c.3-.7.5-1.6.4-2.5zm-9.1 9.9c0 .9.2 1.7.6 2.4.4.7 1 1.4 1.7 1.8.7.4 1.5.7 2.4.7.8 0 1.5-.2 2.2-.5.7-.4 1.3-.9 1.7-1.5.4-.7.6-1.5.6-2.3 0-.8-.2-1.6-.5-2.3-.3-.8-.9-1.4-1.6-1.9-.7-.5-1.6-.8-2.5-.7-.8 0-1.6.2-2.3.6-.7.4-1.3.9-1.7 1.6-.4.5-.6 1.3-.6 2.1zm.3.4c0-.6.2-1.3.6-1.8.4-.5 1-1 1.7-1.2.8-.3 1.6-.5 2.4-.4 1-.1 1.9.2 2.7.7.7.5 1 1.3 1 2.1 0 .7-.2 1.3-.6 1.9-.4.5-1 1-1.6 1.2-.7.3-1.5.4-2.3.4-.7 0-1.4-.1-2.1-.4-.5-.2-1-.6-1.3-1.1-.3-.3-.5-.8-.5-1.4zm8.7 16.3V30.9h-.2c0 .3-.1.6-.4.8-.3.2-.7.3-1.2.3h-5l6-5 .5-.3c.1 0 .2-.1.2-.2 0 0 .1-.1.1-.2v-2.4h-.2c0 .2-.1.5-.2.7-.2.3-.4.5-.6.7h-6.2c-.4 0-.8-.1-1.1-.3-.3-.2-.4-.6-.4-.9h-.2V26.8h.2c0-.3.1-.7.4-.9.3-.2.7-.3 1.1-.3h5.8l-7.7 6.6v.1s0 .1.1.1h7.3c.4 0 .8.1 1.2.3.3.2.4.5.4.9h.1zm-.3 4.2c0 .2 0 .4-.1.6 0 .1-.1.2-.2.3-.2.1-.4.1-.5.1H46c-.2 0-.4 0-.6-.1-.1-.1-.2-.2-.3-.4-.1-.3-.1-.5-.1-.8h-.2v3.8h.2c0-.3 0-.5.1-.8 0-.1.1-.3.3-.3.2-.1.4-.1.6-.1h6.5c.2 0 .4 0 .6.1.1 0 .2.1.2.3.1.2.1.4.1.6 0 .5-.2 1-.5 1.4-.4.4-1 .6-1.6.7 0 0-.1.1 0 .1v.1h1.4c.6 0 1 .1 1.3.1 0 0 .1 0 .1-.1 0 0 0-.1-.1-.1s-.3-.2-.3-.3c-.1-.3-.1-.5-.1-.8v-5.6c0-.5.1-.8.3-.8 0 0 .1 0 .1-.1 0 0 0-.1-.1-.1-.3 0-.7 0-1.3-.1-.6 0-1.1-.1-1.4-.1v.2c.6.1 1.2.4 1.6.8.3.4.5.9.5 1.4zm-8.4 17c0-.3.2-.5.4-.7.4-.3.9-.6 1.4-.8l7-3.4s.1-.1 0-.1v-.1l-6.8-3-1.2-.6c-.2-.1-.4-.3-.6-.5-.1-.2-.2-.4-.2-.7l-.1-.1s-.1 0-.1.1v3.2l.1.1s.1 0 .1-.1c0-.3.1-.7.3-1 .2-.2.5-.4.7-.4.3 0 .5.1.8.2l1.5.7V51L46 52.1c-.2.1-.5.2-.7.2-.1 0-.3-.1-.3-.2-.1-.2-.1-.4-.1-.6 0 0 0-.1-.1-.1s-.1 0-.1.1v3.3c.1 0 .1.1.2 0 0 .1 0 0 0 0zm7-5.6-3.3 1.6v-3.1l3.3 1.5zm1.8 12.5c0-.9-.2-1.8-.6-2.7-.4-.8-.9-1.4-1.6-1.9-.7-.5-1.5-.7-2.4-.7-.8 0-1.7.2-2.4.7-.7.4-1.3 1.1-1.6 1.8-.4.8-.6 1.8-.6 2.7 0 .9.2 1.8.5 2.7 0 .1.1.1.1.1.1 0 .1.1.2 0l1.7.2v-.2c-.7-.3-1.3-.7-1.7-1.2-.4-.5-.6-1.1-.5-1.7 0-.7.2-1.3.6-1.9.4-.6.9-1 1.5-1.3.7-.3 1.5-.5 2.3-.5.8 0 1.5.1 2.3.4.6.3 1.1.7 1.5 1.3.3.5.5 1.2.5 1.8 0 .6-.2 1.3-.6 1.8-.5.5-1.1.9-1.8 1.1 0 0-.1.1 0 .1 0 0 0 .1.1.1l1.9-.2c.1 0 .1 0 .2-.1l.1-.1c.2-.5.4-1.4.3-2.3zm-.4 7.7c0 .2 0 .4-.1.6 0 .1-.1.2-.2.3-.2.1-.4.1-.5.1H46c-.2 0-.4 0-.6-.1-.3-.2-.4-.3-.4-.5-.1-.3-.1-.5-.1-.8h-.2v3.8h.2c0-.3 0-.5.1-.8 0-.1.1-.3.3-.3.2-.1.4-.1.6-.1h6.5c.2 0 .4 0 .6.1.1 0 .2.1.2.3.1.2.1.4.1.6 0 .5-.2 1-.5 1.4-.4.4-1 .6-1.6.7 0 0-.1.1 0 .1v.1h1.4c.6 0 1 .1 1.3.1 0 0 .1 0 .1-.1 0 0 0-.1-.1-.1s-.3-.2-.3-.3c-.1-.3-.1-.5-.1-.8v-5.6c0-.5.1-.8.3-.8 0 0 .1 0 .1-.1 0 0 0-.1-.1-.1-.3 0-.7 0-1.3-.1-.6 0-1.1-.1-1.4-.1v.2c.6.1 1.2.4 1.6.8.4.5.6 1 .6 1.5z"/><path class="st0" d="m6.3 23.7.3-.4c2.7 2.4 2.9 2.7 2.8 4 0 1 .3 1.5.9 1.5.7-.1 1.3-.5 1.7-1.1.5-.5.7-1.1.7-1.8V25l-.2-7.1c4-2.6 6.5-3.5 9.6-3.5 3.9 0 6.6 2.1 6.6 5.2 0 2.7-1.9 4.5-4.8 4.5-1.6 0-3.2-.6-4.4-1.7-.9-.8-1.8-1.7-2.5-2.7-.2-.4-.4-.7-.8-.8-.2 0-.3.2-.4.4 0 .6 1.6 3.1 2.9 4.4 1.5 1.7 3.7 2.6 6 2.6 3.5.1 6.4-2.7 6.4-6.1v-.1c0-4.1-3.4-7-8.3-7-3.1 0-5.7.8-10.4 3.3V9.2c.4-.1.8-.2 1.1-.3.6-.1 1.2-.3 1.9-.5l1.7-.5c.5-.1 1.1-.3 1.6-.5.3-.1.5-.4.5-.8 0-.8-1-1.4-2.5-1.5-.2.1-.3.2-.5.4-.2.3-.5.5-.8.7-1 .4-2 .8-3 1l.1-2c0-.7.2-1.3.7-1.8.2-.2.3-.5.4-.8 0-.8-2.9-2.7-4.1-2.7-.4.2-1 .5-1.4 1 .1.1.3.2.5.3.4.1.7.2 1 .4.9.5 1.1.8 1.1 1.5v4.6c-1.5.5-3.1.8-4.7 1-.9 0-1.2-.3-3.1-1.8-.2.3-.4.6-.4 1 .3.8.9 1.5 1.6 2.1.4.4.8.6 1.3.6 1-.1 1.9-.2 2.8-.5.8-.1 1.4-.3 2.3-.4v8c-2.1 1.4-4.2 3-6.1 4.6-.1.2-.3.2-.5.3-.4 0-.6-.8-.7-2.2-1.1.4-1.2.6-1.2 2.7 0 .6.3 1.1.7 1.5.4.4.9.8 1.5.9.6-.1 1.1-.4 1.5-.9l.6-.9zm.8-1c1.1-1.3 2.3-2.4 3.6-3.4v4.2c0 .5 0 .9-.1 1.4l-3.5-2.2zm15.2-12.1c1.9-.7 3.9-1.1 6-1.4.5 0 1 .2 1.4.4.2.1.4.2.7.3.5.1 1-.3 1.1-.8 0-1.3-1.6-3-3.9-4.2-1.5-.7-3.2-1.2-4.9-1.3-.2 0-.5.2-.5.4v.1c0 .2.1.3.4.3 2 .4 3.7 1.6 4.7 3.3-1.8.7-3.6 1.6-5.3 2.6l.3.3zM2.1 41.8v31.3c0 .3.1.5.3.5.5-.1 1-.2 1.4-.4.4-.1.7-.5.6-.9V53.4h7.8v1.7c0 .2.1.4.3.4h.1c.5-.1 1-.2 1.5-.4.3-.1.5-.5.4-.8v-9.1l.6-.2c.2-.1.3-.3.4-.5 0-.3-.2-.5-.4-.7l-2.2-2-1.2 1.6H5.1l-3-1.6zm2.4 10.8v-3.7h7.8v3.7H4.5zm0-4.7v-3.6h7.8v3.6H4.5zm5.6 9.4v12.2c0 .2.1.4.3.5h.1c.5-.1 1-.2 1.5-.4.3-.1.4-.3.4-.6v-3.1h8.4v2.3c0 .2.1.4.3.5h.1c.5 0 1-.1 1.4-.3.3-.1.5-.4.5-.7v-7.3l.6-.1c.2-.1.4-.3.4-.5 0-.3-.2-.5-.4-.6l-2-1.9-1.2 1.4h-7.8l-2.6-1.4zm2.3 7.7v-5.5h8.4V65h-8.4zm6.2-23v13.1c0 .3.1.5.4.6h.1c.3 0 .6-.1.9-.2.7-.2.8-.3.8-.8v-1.3h7.7v16.2c0 .8-.1.8-2.2.8-.3 0-1 0-1.9-.1h-1v.6L27 72c.4 0 .8.4.7.8.1.6.3.9.6.9.7-.1 1.3-.5 1.8-.9.6-.4.9-1.1.8-1.8V45.7l.7-.3c.2-.1.4-.3.4-.6 0-.2-.1-.5-.3-.6L29.4 42l-1.3 1.5h-6.8L18.6 42zm2.2 10.6v-3.7h7.7v3.7h-7.7zm0-4.7v-3.6h7.7v3.6h-7.7zM2 90.7s.1.1.4.3c.3.2.5.3.8.5 1.2.8 1.4 1.1 1.4 1.9 0 .6-.1 1.1-.1 1.7-.2 1.6-.3 3.3-.3 5 0 4.4.7 7.7 1.9 9.6 1 1.7 3 3.2 4.1 3.2.5 0 1-.5 1-1 0-.3-.1-.5-.1-.8-.1-.3-.2-.7-.3-1 .4-1.5 1-3 1.7-4.4.7-1.5.9-1.8 3.4-6.2.3-.4.5-.8.6-1.2 0-.2-.2-.3-.3-.3-.2 0-.4.1-.9.9-1.8 2.3-3.5 4.7-5 7.2-1.3 2.1-1.7 2.7-1.9 2.7-.4-.2-.7-.5-.8-.9-.9-1.6-1.2-3.5-1.2-6.4 0-3.8.3-5.8 1.1-7.2.2-.3.4-.7.4-1 0-.5-.3-.9-1.1-1.5-1-.8-2.1-1.3-3.2-1.7-1-.2-1.4.1-1.6.6zm19.2 1.9c4 2.6 6.6 6.9 7.3 12.6.1 1 .5 1.5 1.3 1.5.9 0 1.6-.9 1.6-2.3 0-2-1.2-4.9-3-7.2-1.7-2.4-4.2-4.1-7-5l-.2.4zm-6.4 34.5c-2.7 7-7.4 13.2-13.5 17.7-1.3.9-1.3.9-1.3 1.1 0 .1.1.3.3.3.8 0 4.5-2.4 7.3-4.7 3.8-3.1 4.7-4.1 9.3-11.2 2.8 6.2 7.5 11.4 13.3 14.8.9-1.2 2.1-2.1 3.5-2.5-7.3-2.6-12.8-7.1-15.9-12.8l.3-.2c.2-.1.3-.2.3-.4s-.2-.4-.4-.4l-3.2-1.7zm-8.6 19.2v13.8c0 .3.1.5.4.5h.1c.4 0 .8-.1 1.1-.2.5 0 1-.5.9-1V158H24v1.8c0 .2.2.4.4.4h.1c1.2 0 2.1-.5 2.1-1.2v-8.7l.7-.4c.3-.1.5-.4.5-.6-.1-.3-.2-.5-.4-.7l-2.4-1.9-1.2 1.5H9.3l-3.1-1.9zm2.6 10.8V149H24v8.1H8.8zM8.2 143h2.2c1.2 0 2.1-.1 2.2-.1h11.5c.3-.1.4-.3.4-.5 0-.3-.2-.5-.4-.6l-2.5-2.1-2.1 2.3h-9l-2.6-.1.3 1.1zm-3.4 52.1 3.1 3.5c.4.4.5.9.5 1.4 0 1.7.1 1.9.7 1.9.4 0 .8-.3 1.4-1.1.5-.5.8-1.2.8-1.9v-1l-.2-10.2c2.8-3.1 6.7-4.9 10.8-5.1 4.1 0 6.8 2.3 6.8 5.7 0 2.6-1.5 5.1-4.5 7.3-1.9 1.3-4 2.2-6.1 2.9-1.1.4-1.2.4-1.2.7 0 .2.1.3.3.4.7-.1 1.5-.3 2.2-.5 2.8-.6 5.5-1.8 7.9-3.3 2.5-1.6 4.1-4.4 4.3-7.3 0-4.1-3.8-7.4-8.5-7.4-4.2 0-7.7 1.4-12 4.7l.1-2.7 1.6-1.7c.1-.1.2-.2.2-.4-.2-.5-.6-.9-1.2-1.1h-.2l-.4.1.3-3.6c-.1-.5.2-1.1.6-1.4.2-.1.3-.3.3-.6 0-.6-3.3-2.6-4.4-2.6-.4 0-.7.3-1.4 1.1 2.2.8 2.5 1.1 2.7 1.9l-.1 5.8-3.1.9c-.4.1-.7.2-1.1.3-.9-.2-1.7-.8-2.2-1.6-.4.3-.6.8-.7 1.2 0 .6 2.3 2.8 2.9 2.8.2 0 .4-.1.6-.3.4-.3.8-.5 1.2-.7l2.4-.9v4L4.6 192c-.7.8-1.4 1.6-2.3 2.3-.3.1-.5.3-.6.6-.2.4-.3.9-.3 1.4 0 .8.3 1.3.8 1.3.4-.1.8-.3 1-.7l1.6-1.8zm.5-.7 3.9-4.8-.2 7.5-3.7-2.7zm4.1 32.7-4.3 1c-.3.1-.6.1-.9.1-.8 0-1.5-.5-2.5-1.9-.5.3-.8.8-.9 1.4 0 .2 0 .2 1.1 1.5.5.7 1.3 1.1 2.1 1.4.3 0 .7-.2 1-.4 1.4-.7 3-1.2 4.5-1.5v6.8c0 3.5.5 4.9 2.1 5.9s4.4 1.5 9 1.5c2.3.1 4.6-.1 6.9-.5.4-.2.7-.6.7-1 0-.2-.1-.4-.1-.5-.4-.5-.9-.8-1.5-.9-.2 0-.4.1-.7.2-2.4.6-4.8.8-7.3.7-6.3 0-7.2-.7-7.2-5.4v-7.2c3.2-.8 6.5-1.3 9.7-1.6v2.3c.1 1.4-.1 2.8-.4 4.2-.1.1-.2.2-.4.2-.5-.1-.9-.2-1.4-.4l-5.5-2.5-.3.5 6.1 4c.3.3.5.7.5 1.1.1.9.2 1.1.6 1.1.9-.2 1.7-.8 2-1.7.7-1.5.8-2.1.8-7.8v-1.2c1.5-.1 2.4-.1 3.9-.1 1.4 0 2.4 0 3.2.1 1.8.1 1.8.1 2 .1.5 0 1-.3 1.1-.9v-.2c0-.4-.2-.6-.9-1.1-.6-.4-1.3-.7-2-.9-.2 0-.5.1-.7.3-.4.3-.8.5-1.3.5-.3 0-1.1.1-2.5.2l-1.9.2c-.1 0-.4 0-.7.1l-.1-5.5c.3-.4.6-.8.7-1.3 0-.6-3-2.3-4.1-2.3-.3 0-.6.1-.8.4-.1.1-.3.2-.4.3l-.3.3c-.1.1-.2.3-.2.4h.1c.3 0 .7 0 1 .2.7.1 1.3.6 1.6 1.3.2.8.3 1.6.3 2.5l.1 4.1c-2.2.3-7 1.1-9.8 1.7l.1-2.9c-.1-.6.1-1.2.5-1.7.2-.3.4-.6.5-1 0-.4-.6-.9-1.7-1.5-.8-.4-1.6-.8-2.5-1-.7.2-1.3.6-1.7 1.2.7.2 1.5.5 2.1.8.5.3.6.4.7 1.7v4.6z"/></svg>
