<svg version="1.1" xmlns="http://www.w3.org/2000/svg" x="0" y="0" viewBox="0 0 47 201" width="47" height="201" style="enable-background:new 0 0 47 201" xml:space="preserve"><style>.st0{fill-rule:evenodd;clip-rule:evenodd;fill:#fff}</style><path class="st0" d="M47 9c0-.9-.2-1.8-.6-2.7-.4-.8-.9-1.4-1.6-1.9-.7-.5-1.5-.7-2.4-.7-.8 0-1.7.2-2.4.7-.7.4-1.3 1.1-1.6 1.8-.4.8-.6 1.7-.6 2.7 0 .9.2 1.8.5 2.7 0 .1.1.1.1.2.1 0 .1 0 .2.1l1.7.2v-.2c-.7-.3-1.3-.7-1.7-1.2-.4-.6-.6-1.2-.6-1.8 0-.7.2-1.3.6-1.9.4-.6.9-1 1.6-1.3.7-.3 1.5-.5 2.3-.5.8 0 1.6.1 2.3.5 1.2.5 2 1.7 2 3.1 0 .6-.2 1.3-.6 1.8-.5.5-1.1.9-1.8 1.1 0 0-.1.1 0 .1 0 0 0 .1.1.1l1.9-.2c.1 0 .2 0 .2-.1l.1-.1c.2-.8.3-1.7.3-2.5zm-7.9 8.1h6.6c.2 0 .4 0 .6.1l.3.3c.1.2.1.5.1.7h.2v-3.5s0-.1-.1-.1-.1 0-.1.1c0 .2 0 .5-.1.7 0 .1-.1.2-.3.3-.2.1-.4.1-.6.1h-6.6c-.2 0-.4 0-.6-.1l-.3-.3c-.1-.2-.1-.5-.1-.7 0 0 0-.1-.1-.1s-.1 0-.1.1V18.1h.2c0-.2 0-.5.1-.7 0-.1.1-.2.3-.3h.6zm-1.2 7.5c0 .8.2 1.6.6 2.3.4.7.9 1.3 1.6 1.7.7.4 1.6.6 2.4.6.8 0 1.5-.2 2.2-.6.7-.4 1.2-1 1.6-1.7.4-.8.6-1.7.6-2.5v-3.7h-.2c0 .2 0 .5-.1.7 0 .1-.1.2-.3.3-.2.1-.4.1-.6.1h-6.6c-.2 0-.4 0-.6-.1l-.3-.3c-.1-.2-.1-.5-.1-.7h-.2v3.9zm.3-.1c0-.4 0-.8.2-1.2.2-.2.5-.3.8-.3h6.4c.2 0 .4 0 .6.1.1.1.2.3.3.5.1.3.1.6.1.9 0 .6-.2 1.2-.6 1.7-.4.5-1 .9-1.6 1.1-.7.3-1.5.4-2.2.4-.8 0-1.5-.1-2.2-.4-.6-.2-1.1-.7-1.4-1.2-.3-.4-.5-1-.4-1.6zm2 13.7c-1.2-.2-2-1.2-1.9-2.4v-.7c0-.2 0-.5.2-.6.2-.1.4-.2.7-.2h3.2v1.3c0 1-.4 1.6-1.2 1.6v.2H43.8v-.2c-.7 0-1.1-.5-1.1-1.5v-1.3h2.9c.2 0 .5.1.6.2.1.2.2.5.2.7v.6c.1 1-.6 1.8-1.6 2v.2h1.9c.1 0 .1 0 .1-.1v-6h-.2c0 .2 0 .5-.1.7 0 .1-.1.2-.3.3h-7.1c-.2 0-.4 0-.6-.1-.1 0-.2-.2-.3-.3-.1-.2-.1-.5-.1-.7h-.2v6.3h.2c.7 0 1.3.1 2 .1.1 0 .1 0 .1-.1zm-2.1 12c0-.4.2-.8.4-1.2.4-.5.9-1 1.4-1.4.6-.5 1.5-1.2 2.7-1.9.2.5.6.8 1 1.1.4.3.9.4 1.4.4.5 0 1-.2 1.4-.7.4-.6.5-1.2.5-1.9v-3.7h-.2c0 .2 0 .5-.1.7 0 .1-.1.2-.3.3-.2.1-.4.1-.6.1h-6.6c-.2 0-.4 0-.6-.1l-.3-.3c-.1-.2-.1-.5-.1-.7h-.2V44.3h.2c0-.2 0-.5.1-.7 0-.1.1-.2.3-.3.2-.1.4-.1.6-.1h3.2v1.2c-1.1.6-2.2 1.4-3.2 2.1-.5.3-.9.7-1.1 1.2V50c-.1.3 0 .3.1.2 0 .1 0 .1 0 0zm4.6-6.7h3c.3 0 .5.1.7.2.2.2.2.5.2.8 0 .4-.1.8-.5 1.1-.5.3-1 .4-1.6.4-.5 0-1.1-.1-1.5-.4-.3-.3-.5-.8-.5-1.3.1-.3.1-.6.2-.8zm4.1 16.7V57.3h-.2c.1.3-.1.7-.5.8h-.2c-.4 0-.7-.1-1-.4l-2.4-1.4 3.2-2c.1-.1.3-.2.5-.2.3 0 .4.2.4.6h.2V51.5h-.2c0 .3-.1.5-.3.7-.3.3-.7.6-1 .8L42 55.2h-2.9c-.2 0-.4 0-.6-.1-.1 0-.2-.2-.3-.3-.1-.2-.1-.5-.1-.7h-.2V57.5s0 .1.1.1.1 0 .1-.1c0-.2 0-.5.1-.7 0-.1.1-.2.3-.3.2-.1.4-.1.6-.1h3.2l2.6 1.6c.5.3.9.6 1.3 1.1.3.3.5.7.5 1.1h.1z"/><path class="st0" d="M25 9.2c-.3.1-.7.1-1 .1h-3.6l-.1-5v-.4c-.1-.4.1-.7.4-.9.3-.2.5-.5.5-.8 0-.6-.4-.8-2-1.4L17.7.2c-.1-.1-.3-.2-.5-.2-.3 0-.5.2-1.7 1.1.3.1.5.2.8.4 1.7.8 1.7.8 1.8 1.4 0 .2 0 .6.1 1.4l.1 5.2c-4.1.3-5.5.4-7.4.7l.1-4v-.7c0-.2.1-.3.2-.5.3-.2.5-.5.6-.8 0-.4-.8-.9-2.1-1.4-.6-.3-1.3-.5-2-.6-.3 0-.4.1-1.5 1.1 2 .6 2.3.8 2.5 1.1.1.6.1 1.2.1 1.8l.1 4.2c-1.3.2-1.4.2-1.7.2-1.1.2-2.3.3-3.4.3-1 0-1.2-.2-2.7-1.7l-.3-.3c-.4.4-.6.8-.8 1.3.3.7.8 1.4 1.4 1.9 1 1 1.4 1.4 1.7 1.4.1 0 .2 0 .3-.1 1.7-.8 3.5-1.3 5.3-1.6v4.8c0 .5-.1.9-.3 1.4-.1.2-.1.4-.1.7.2.9.9 1.5 1.8 1.6.5-.1.8-.5.8-1v-.1l-.1-7.8c3.8-.4 5.2-.6 7.4-.7.1 8.4-2.2 12.7-9.2 17-.7.4-.9.5-.9.8 0 .2.1.3.3.3.9-.3 1.8-.7 2.7-1.2 4.5-2.4 7.1-5.3 8.4-9.3.6-1.8.7-2.6.9-7.7 2.3-.1 4.5.1 6.7.5.7.1 1.3.2 2 .3.3 0 .6-.2.6-.6 0-.9-.6-1.4-3.3-2.8L25 9.2zm-7.7 46.5c.8-.6 1-.7 1-1 0-.4-.2-.5-1.2-.8 1.4-1.2 2.3-2 5.5-5l.7-.7c1.4-.4 1.8-.6 1.8-1.2s-.8-1.5-2.3-2.4c-1.4-.9-1.5-.9-1.7-.9-.3 0-.6.1-.8.3-.1.1-.3.1-.5.2-.1 0-.1.1-.2.2v.2c.8.2 1.5.8 1.7 1.6-.1.3-.2.6-.5.9l-.9 1c-6 6.4-12.7 11.6-18.6 14.5-1.1.5-1.1.6-1.1.8 0 .2.2.4.4.4 1.6-.5 3.1-1.2 4.6-1.9 3.5-1.8 6.8-3.9 9.9-6.3v7.6c0 4.3-.1 5.7-.4 7.1 0 .2-.1.3-.1.5.2.7.8 1.3 1.6 1.3.6 0 1.1-.5 1.1-1.1V55.7zm4.4 32.4c1.5.8 2.7 2.1 3.5 3.6.1.4.4.6.8.7.6 0 1.1-.5 1.1-1.1 0-.9-.5-1.6-1.9-2.4-1-.7-2.2-1.1-3.4-1.2l-.1.4zm2.9-1.9c1.3.6 2.5 1.6 3.3 2.8.2.4.6.7 1.1.7.6 0 1.1-.5 1-1.1 0-.9-1-1.8-2.8-2.5-.8-.3-1.7-.5-2.6-.4v.5zM21.1 92l-6.5.5h-.2c-.4 0-.8 0-1.1-.1.3-.5.3-.5.4-.8l.5-.9c.1-.3.3-.5.6-.6.3 0 .5-.2.5-.5 0-.5-.3-.8-1.5-1.5-.8-.5-1.6-.9-2.5-1.1-.6.2-1.1.5-1.5 1 .5.3.7.4 1.2.5.5.1.9.5 1 1.1-.7 2.1-1.7 4.1-2.9 6-1.6 2.9-3.6 5.6-6 7.9-.4.2-.7.6-.8 1 0 .1.1.3.3.3.8 0 4.6-3.5 6.6-6.1 2.6.9 4.9 2.2 7 3.9-3.1 4.5-7.1 8.3-11.7 11.2-1 .5-1.1.7-1.1.9 0 .2.2.3.4.3.5 0 2.1-.8 4.2-2.2 3.6-2.4 6.8-5.3 9.5-8.7.4.4.8.8 1.1 1.2.7.9 1 1.1 1.5 1.1.6 0 1.2-.5 1.2-1.1 0-.9-.5-1.6-2.4-3.2 1.5-2.3 2.9-4.7 4.2-7.1 1.4-.4 1.6-.5 1.6-.9 0-.3-.9-1.3-2.7-2.9l-.9.8zm-.1 1.4c-1 2.5-2.3 4.9-3.7 7.2-2.4-1.3-4.9-2.3-7.6-2.9 1-1.3 1.9-2.7 2.8-4.1.1.3.4.5.7.5.2 0 .5 0 .7-.1 2.4-.3 4.7-.5 7.1-.6zm.2 40.6c.3-.3.6-.7.7-1.1-.1-.5-.5-.8-1-.9-1-.5-2.1-.9-3.2-1.2-.4 0-.8.3-1.6 1.2 1.5.4 2.6 1 2.6 1.4v7.3c-.3 6.3-1.2 9.5-3.6 12.1-1.9 2.1-4.4 3.7-7.1 4.7-1.6.7-1.6.7-1.6 1 0 .2.1.3.3.3 1.2-.3 2.3-.6 3.4-1.1 3.6-1.4 6.7-3.6 8.2-5.9 1.5-2.4 2.6-6.7 2.7-11l.2-6.8zm-13 1.6v9.4c0 .3 0 .6-.1.9-.1.4-.1.7-.1.7.2.8.8 1.4 1.6 1.6.6 0 1.1-.5 1.1-1.1 0-.4-.1-.7-.1-1.1-.1-.5-.1-1.1-.1-1.6v-9.2c.4-.2.8-.6.9-1.1-.1-.3-.3-.5-.6-.6-1-.6-2-1.1-3.2-1.3-.7.1-1.2.6-1.5 1.2 1.8.7 2.1.9 2.1 1.4v.8zm7.5 41.4c.7-.6.8-.7.8-.9 0-.6-2.7-2.4-3.7-2.4-.6 0-1.2.4-1.4.9 1.7.7 1.9.9 1.9 2.3V195c.1 1.3 0 2.5-.2 3.8-.1.2-.1.5-.1.7.2.9 1 1.5 1.9 1.5.7 0 1.1-.8 1.1-1.9v-1.4c0-.5 0-.9-.1-1.2l-.2-19.5z"/></svg>
