<svg version="1.1" xmlns="http://www.w3.org/2000/svg" x="0" y="0" viewBox="0 0 39 224" width="39" height="224" xml:space="preserve"><style>.st0{fill-rule:evenodd;clip-rule:evenodd;fill:#fff}</style><path class="st0" d="M9.5 11.2c4.4 1.8 8.2 5.2 11.3 10.3.9 1.7 1.3 2 2.1 2 .9-.2 1.6-1 1.6-1.9-.2-1.3-.8-2.5-1.6-3.5-.9-1.1-1.9-2.1-3-3 4.9-2.9 9.6-6.2 14-9.7H35c1.2 0 1.7-.2 1.7-.8 0-.9-2.1-3.4-3.8-4.6l-1.6 1.2-1.3.1c-5.9.6-8.1.8-10 1.2L7.3 4.4c-3.3.4-3.3.4-3.5.4-.7 0-1.4-.5-2.9-2.2-.4.5-.7 1.1-.9 1.7C0 5 3.3 8.6 4 8.6c.2 0 .4-.1.6-.2.4-.2.7-.4 1-.7l.5-.3c1.3-.5 2.7-.8 4-1 6.7-1.5 13.6-2.6 20.5-3.1-3.6 4-7.5 7.7-11.9 10.9C16 12.3 13 11 9.8 10.4l-.3.8zM9 57.4c1.7 1.1 2.8 2.8 3.3 4.8.6 2 .8 2.4 1.8 2.4.9 0 1.6-.7 1.6-1.6v-.1c0-2.4-2.3-4.6-6.3-6.1l-.4.6zm20.6-2.1c1.1.9 1.7 1.6 1.7 2 0 1.6-3.2 7.3-6.2 11.1-3.2 3.8-7.1 6.9-11.7 8.9-.8.4-1 .5-1 .8 0 .2.2.4.5.4 1 0 6.5-2.7 9.1-4.5 4.5-3 9.2-8.7 12-14.5 1-.4 1.3-.6 1.3-.9 0-1-3-4-3.9-4-.2 0-.4.1-.6.2-.4.2-.6.3-1.2.5zM16.7 55c2 1.4 3.4 3.4 4 5.7.5 1.6.8 1.8 1.7 1.8.9 0 1.6-.6 1.6-1.5v-.1c0-2.7-3-5.5-6.9-6.5l-.4.6zm17.8 47.2c-2.5 0-4.6 1.9-4.6 4.4 0 2.5 2 4.5 4.5 4.5s4.6-1.9 4.6-4.4v-.1c0-2.4-2-4.3-4.5-4.4zm-.1 1.3c1.7 0 3.2 1.3 3.2 3s-1.4 3.1-3.1 3.1c-1.7 0-3.2-1.3-3.2-3s1.4-3 3.1-3.1zm-8.2 6.5c-4.7.3-7.1.5-7.6.5l-8.4.7c-3.7.3-3.7.3-3.8.3-1 0-1.3-.2-3.5-2.1-.5.5-.8 1.1-.9 1.7 0 .8 3.6 4.1 4.5 4.1.4 0 .7-.2 1-.4 1.8-1.1 2-1.1 14.9-2.4l3.1-.3h.8c-1.1 4.8-3.1 9.3-5.8 13.5-2.7 4-6.3 6.9-13.3 10.7-.9.5-1.1.7-1.1 1 0 .3.3.5.6.5 1.7-.5 3.3-1.2 4.8-2.1 7-3.6 10.4-6.4 13.4-11.3 2.1-3.2 3.7-6.8 4.8-10.5 1.1-.4 1.5-.6 1.5-1.1 0-.5-1.1-1.4-4.3-3.8l-.7 1z"/><path class="st0" d="M10.2 190.4c0-.4 0-.8.1-1.2.1-.2.2-.4.5-.5.4-.1.7-.2 1.1-.2l11.2-.5c.5-.1 1 .1 1.4.5.3.5.5 1.1.4 1.7h.2V186.9c0-.1 0-.3-.1-.4-.1-.1-.3-.2-.5-.3l-11.2-4.8L24 176c.4-.2.7-.4 1-.6.2-.1.2-.3.2-.5V171.5s0-.1-.1-.1-.1 0-.1.1c0 .4-.1.8-.4 1.2-.3.4-.7.7-1.2 1l-10.6-.2c-.7 0-1.4-.2-2-.6-.5-.4-.7-.9-.7-1.5 0 0 0-.1-.1-.1s-.1 0-.1.1v4.7s0 .1.1.1.1 0 .1-.1c0-.6.2-1.2.7-1.5.6-.4 1.3-.6 2-.5l9.3.2-12.1 6c-.1.1-.1.1-.1.2s0 .2.1.2l12.2 5.1-10.4.5h-.4c-.4.1-.8-.1-1-.4-.2-.4-.3-.9-.2-1.4H10V190.4h.1c.1.1.1 0 .1 0zm0 19.5c0-.5.3-.9.7-1.2.7-.6 1.6-1 2.4-1.4l12.1-5.9c.1 0 .1-.1.1-.2s0-.2-.1-.2l-11.9-5.2c-.7-.3-1.4-.6-2.1-1-.4-.2-.7-.5-1-.9-.2-.3-.3-.7-.3-1.1 0-.1-.1-.1-.2-.1s-.1.1-.1.1v5.7c0 .1.1.1.2.1s.1-.1.1-.1c0-.6.1-1.2.4-1.7.3-.4.8-.6 1.3-.6s.9.1 1.3.3l2.7 1.2v5.8l-3.8 1.8c-.4.2-.8.4-1.3.4-.2 0-.4-.1-.5-.3-.1-.3-.2-.7-.2-1 0-.1 0-.1-.1-.1s-.1 0-.1.1v5.7c0 .1.1.1.2.1.2-.2.2-.3.2-.3zm12.1-9.6-5.7 2.8v-5.3l5.7 2.5zM12 216.7h11.2c.4 0 .7 0 1 .1.2.1.4.2.5.4.1.3.1.6.1.9 0 .9-.3 1.8-1.1 2.5a5.45 5.45 0 0 1-6 0c-.7-.5-1.1-1.3-1.1-2.1 0-.3 0-.6.1-.8v-.1h-.1c-.1 0-.1 0-.1.1-.1.4-.1.8-.1 1.1 0 .9.2 1.7.5 2.5s.9 1.5 1.6 2c.8.5 1.7.8 2.6.8 1.2.1 2.4-.4 3.2-1.4.7-1.1 1.1-2.4 1-3.8 0-.6 0-1.3-.1-1.9 0-.5-.1-1-.1-1.4v-3s0-.1-.1-.1-.1 0-.1.1c0 .4 0 .8-.1 1.2-.1.2-.2.4-.5.5-.4.1-.7.1-1.1.1H11.9c-.4 0-.7 0-1.1-.1-.2-.1-.4-.3-.5-.5-.1-.4-.1-.8-.1-1.2 0 0 0-.1-.1-.1s-.1 0-.1.1v6.6s0 .1.1.1.1 0 .1-.1c0-.5 0-1.1.1-1.6.1-.3.2-.5.5-.7.4-.2.8-.2 1.2-.2z"/></svg>
