<svg version="1.1" id="ttl-food-01-pc.svg" xmlns="http://www.w3.org/2000/svg" x="0" y="0" viewBox="0 0 51 117" width="51" height="117" style="enable-background:new 0 0 51 117" xml:space="preserve"><style>.st0{fill-rule:evenodd;clip-rule:evenodd;fill:#fff}</style><path id="food" class="st0" d="M50.7 6.1c.1 0 .1 0 .1-.1V.1h-.2c0 .2 0 .5-.1.7 0 .1-.1.2-.3.3-.2.1-.4.1-.6.1h-6.5c-.2 0-.4 0-.6-.1l-.3-.3c-.1-.2-.1-.5-.1-.7H42c.1-.1 0-.1 0-.1V4h.2c0-.3 0-.7.1-1 0-.2.1-.3.3-.4.2-.1.4-.1.7-.1h3v1.1c0 1.1-.4 1.6-1.2 1.6v.2h2.5v-.2c-.7 0-1.1-.5-1.1-1.6V2.5h3.1c.2 0 .4.1.6.2.1.2.2.5.2.7V4c.1 1-.6 1.8-1.6 1.9v.2h1.9zm-8.8 7.1c0 .9.2 1.7.6 2.4.4.7 1 1.3 1.7 1.8.7.4 1.5.7 2.3.7.8 0 1.5-.2 2.2-.5.7-.4 1.3-.9 1.7-1.5.4-.7.6-1.5.6-2.3 0-.8-.2-1.6-.5-2.3-.3-.7-.9-1.4-1.6-1.9-.7-.5-1.6-.7-2.5-.7-.8 0-1.6.2-2.3.5-.7.4-1.3.9-1.7 1.6-.3.6-.5 1.4-.5 2.2zm.3.5c0-.6.2-1.3.6-1.8.5-.5 1-1 1.7-1.2.8-.3 1.6-.4 2.4-.4 1-.1 1.9.2 2.7.7.7.5 1 1.3 1 2.1 0 .7-.2 1.3-.6 1.8-.4.5-1 1-1.6 1.2-.7.3-1.5.4-2.3.4-.7 0-1.4-.1-2.1-.4-.5-.2-1-.6-1.3-1-.3-.3-.5-.8-.5-1.4zm-.3 11.6c0 .8.2 1.7.6 2.4.4.7 1 1.3 1.7 1.8.7.4 1.5.7 2.3.7.8 0 1.5-.2 2.2-.5.7-.4 1.3-.9 1.7-1.5.4-.7.6-1.5.6-2.3 0-.8-.2-1.6-.5-2.3-.3-.7-.9-1.4-1.6-1.9-.7-.5-1.6-.8-2.5-.7-.8 0-1.6.2-2.3.5-.7.4-1.3.9-1.7 1.6-.3.6-.5 1.4-.5 2.2zm.3.5c0-.6.2-1.2.6-1.7.4-.5 1-1 1.7-1.2.8-.3 1.6-.5 2.4-.4 1-.1 1.9.2 2.7.7.7.5 1 1.3 1 2.1 0 .7-.2 1.3-.6 1.9-.4.5-1 1-1.6 1.2-.7.3-1.5.4-2.3.4-.7 0-1.4-.1-2.1-.4-.5-.2-1-.6-1.3-1-.3-.5-.5-1.1-.5-1.6zM42 36.7c0 .8.2 1.6.6 2.3.4.7.9 1.3 1.6 1.7.7.4 1.6.6 2.4.6.8 0 1.5-.2 2.2-.6.7-.4 1.2-1 1.5-1.7.4-.8.6-1.7.6-2.5v-3.7h-.2c0 .2 0 .5-.1.7 0 .1-.1.2-.3.3-.2.1-.4.1-.6.1h-6.5c-.2 0-.4 0-.6-.1l-.3-.3c-.1-.2-.1-.5-.1-.7H42v3.9zm.3-.1c0-.4 0-.8.3-1.1.2-.2.5-.3.8-.3h6.3c.2 0 .4 0 .6.1.1.1.2.3.3.5.1.3.1.6.1.9 0 .6-.2 1.2-.6 1.7-.4.5-.9.9-1.6 1.1-.7.3-1.4.4-2.2.4-.7 0-1.5-.1-2.2-.4-.6-.2-1-.7-1.4-1.2-.3-.5-.4-1.1-.4-1.7z"/><path id="お食事" class="st0" d="m6.7 24 .3-.4c2.6 2.4 2.9 2.7 2.8 3.9 0 1 .3 1.5.9 1.5.7-.1 1.3-.5 1.7-1.1.5-.5.7-1.1.7-1.8v-.9l-.2-7.1c4-2.6 6.5-3.5 9.6-3.5 3.9 0 6.6 2.1 6.6 5.2 0 2.7-1.9 4.5-4.8 4.5-1.6 0-3.2-.6-4.3-1.7-.9-.8-1.7-1.7-2.5-2.7-.2-.4-.4-.7-.8-.8-.2 0-.3.2-.4.4 0 .6 1.6 3.1 2.9 4.4 1.5 1.6 3.7 2.6 6 2.6 3.5.1 6.3-2.6 6.4-6.1v-.1c0-4.1-3.4-7-8.3-7-3.1 0-5.7.8-10.4 3.3V9.5c.5-.1 1.1-.3 1.1-.3.6-.1 1.2-.3 1.8-.5l1.7-.5c.5-.1 1.1-.3 1.6-.5.3-.1.5-.4.5-.8 0-.8-1-1.4-2.5-1.5-.2.1-.3.2-.5.4-.2.3-.5.5-.8.7-1 .4-2 .7-3 1l.1-2c0-.6.2-1.3.7-1.8.4-.1.5-.4.6-.7 0-.8-2.9-2.6-4.1-2.6-.6.1-1.2.4-1.6.9.2.1.4.2.6.2.3.1.6.3.9.5.9.5 1.1.8 1.1 1.5v4.6c-1.5.5-3.1.8-4.7 1-.9 0-1.2-.3-3-1.8-.3.2-.4.5-.5.9.4.8 1 1.5 1.7 2.1.4.4.8.6 1.3.6 1-.1 1.9-.2 2.8-.5.8-.1 1.4-.2 2.3-.4v7.9c-2 1.4-4.1 2.9-6 4.6-.1.1-.3.2-.5.2-.4 0-.6-.8-.7-2.2-1.1.4-1.2.6-1.2 2.7 0 .6.3 1.1.7 1.5.4.4.9.7 1.5.9.6-.1 1.1-.4 1.4-.9l.5-.7zm.8-1c1.1-1.3 2.3-2.4 3.6-3.4v4.2c0 .5 0 .9-.1 1.4L7.5 23zm15.2-12.1c1.9-.7 3.9-1.1 5.9-1.4.5 0 1 .2 1.4.4.2.1.4.2.7.2.5.1 1-.3 1.1-.8 0-1.3-1.6-3-3.9-4.2-1.5-.7-3.2-1.1-4.9-1.3-.2 0-.5.2-.5.4v.1c0 .2.1.2.4.3C25 5 26.8 6.3 27.7 8c-1.8.7-3.6 1.6-5.3 2.5l.3.4zM15.1 41c-4.6 6.8-8.8 11.1-13.4 13.6-1.6.9-1.7 1-1.7 1.2 0 .2.2.4.4.4.8 0 4.2-1.8 7.4-3.8v17.8c-1.8 0-1.8 0-4.2.1H2.1l2.4 3.4c.1.2.4.4.6.4.3 0 .6-.2.8-.5l.4-.9 11.8-3c.4-.1.5-.2.5-.3 0-.2-.2-.3-.3-.3-.4 0-.8.1-1.2.1-1.1.2-5.3.6-7 .7V62h4.7c3.1 6.2 7.9 9.8 15.7 12.1.7-1.2 1.6-2.2 2.9-2.9-4.2-.4-8.4-1.6-12.1-3.6l7-3.9 1.2-.2c.4 0 .7-.2.9-.5 0-.2-.1-.4-.3-.5l-2.5-2C25.4 62.8 23 65 20.5 67c-1.8-1.4-3.3-3.1-4.5-5h5.9v1c-.1.3.1.5.4.6h.1c.5-.1 1-.3 1.5-.5.3-.1.5-.5.5-.8v-7.4l.6-.3c.2-.1.4-.3.4-.6s-.2-.7-.5-.8l-2.4-1.5-.9 1.3h-4.4v-2.5l.9-.5c.3-.2.4-.4.5-.7 0-.4-.4-.6-.7-.6l-3-.2V53h-4.3l-2.2-1.1c3.2-2.4 6.1-5 8.7-8 3.4 4.6 8 8.3 13.4 10.5.7-1.3 1.8-2.3 3.2-2.9-6-1-11.4-3.8-15.7-8.1l.4-.2c.2-.1.3-.3.3-.5s-.2-.4-.4-.4L15.1 41zm-5 20.2V58h11.7v3.2H10.1zm0-4.1v-3.3h11.7v3.3H10.1zm-9 48.8c3.7-.1 5.1-.2 6.7-.2h8v3.2h-5.1c-1.7 0-3 0-6.3-.2l.4 1.2c3-.1 4.2-.1 5.8-.1h5.1v3.5c0 .5-.2.6-.8.6h-1l-3.3-.1-.1.6 3 .8c.3.1.6.1.9.2h.1c.1.2.1.4.1.7 0 .6.3.9.7.9 1.2 0 2.7-1.2 2.7-2.2v-5h7.6v1.7c0 .3.3.4.5.4h.1c.9 0 1.7-.5 1.7-1v-5.1h5.4c.1 0 .2-.2.3-.3 0-.2-.1-.5-.3-.6l-2.3-2.2-1.7 2.3H28v-2.4l.5-.2c.3 0 .5-.2.5-.5s-.2-.5-.4-.7l-1.9-1.6-.9 1.4h-7.6v-3H25v1c0 .3.2.5.5.5.8 0 1.7-.5 1.7-.9v-3.8l.4-.1c.2-.1.4-.2.4-.5 0-.2-.1-.4-.3-.6l-2-1.6-.9 1h-6.7v-2.8h14.7c.2 0 .4-.2.4-.4s-.1-.4-.3-.5L30 86.9l-2 2.3h-9.9v-2.4l1-.5c.2-.1.4-.3.4-.6 0-.4-.3-.7-.7-.7l-2.9-.3v4.5H8c-1.7 0-3.3 0-7.1-.2l.4 1.3c4-.1 5.2-.2 6.6-.2h7.8v2.8H9.3l-2.5-1.3v7.5c.1.3.3.4.6.4.7.1 1.4-.3 1.5-1v-.6h6.9v3h-4.9c-1.9 0-3.2 0-6.4-.2l.5 1.2c3-.1 4.3-.1 5.9-.1h4.9v3.1h-8c-1.9 0-3.4 0-7.2-.2l.5 1.2zM8.9 97v-3.2h6.9V97H8.9zm9.2 11.9v-3.2h7.6v3.2h-7.6zm0-4v-3.1h7.6v3.1h-7.6zm0-7.9v-3.2H25V97h-6.9z"/></svg>
