<svg version="1.1" id="ttl-guide-01-sp.svg" xmlns="http://www.w3.org/2000/svg" x="0" y="0" viewBox="0 0 42 373" width="42" height="373" style="enable-background:new 0 0 42 373" xml:space="preserve"><style>.st0{fill-rule:evenodd;clip-rule:evenodd;fill:#fff}</style><path id="GUIDE" class="st0" d="M12.3 304.7c0 1.8.3 3.6.7 5.4 0 .1.1.1.1.2.1 0 .1.1.2 0 .2 0 .4 0 .6-.1.5-.1 1-.1 1.5-.1.9 0 1.6 0 1.9.1.3 0 .5.1.7.2.1.2.2.4.2.7 0 .1.1.1.2.1h.1s.1 0 .1-.1c0-.9-.1-1.7-.1-2.5s0-1.9.1-3.2c0 0 0-.1-.1-.1h-.1c-.1 0-.2 0-.2.1 0 .6 0 1.2-.2 1.7-.1.3-.3.6-.7.6-.6.1-1.2.2-1.7.1-.6 0-1.2-.1-1.8-.3-.4-.1-.7-.5-.9-.8-.2-.5-.3-1.1-.2-1.6 0-1.3.3-2.5 1-3.6s1.7-1.9 2.8-2.4c1.2-.6 2.6-.9 4-.8 1.3 0 2.5.2 3.6.8 1 .5 1.8 1.2 2.4 2.1.6.9.9 2 .8 3 0 1.3-.4 2.5-1.3 3.4-.8.8-1.7 1.5-2.8 1.8-.1 0-.1.1-.1.2s0 .1.1.1l3.2-.3c.1 0 .3 0 .4-.1.1-.1.1-.2.2-.3.3-.6.5-1.2.6-1.9.1-.8.2-1.6.2-2.3 0-1.6-.3-3.2-1-4.7-.6-1.3-1.5-2.5-2.7-3.3-1.2-.8-2.6-1.2-4.1-1.2-1.4 0-2.7.4-3.9 1.1-1.2.7-2.2 1.8-2.8 3.1-.6 1.6-1 3.2-1 4.9zm12.4 22.8H18c-1.3.1-2.6-.3-3.6-1.1-1.7-1.8-1.7-4.7.1-6.5 1.2-.9 2.7-1.3 4.3-1.2h6.8c.4 0 .7 0 1.1.1.2.1.4.3.5.5.1.4.2.8.1 1.2 0 0 0 .1.1.1s.1 0 .1-.1v-5.9s0-.1-.1-.1-.1 0-.1.1c0 .4 0 .8-.1 1.2-.1.2-.2.4-.5.5-.3.1-.7.2-1.1.1H18c-1.1 0-2.1.2-3 .7-.9.5-1.5 1.2-2 2.1-.5 1-.7 2-.7 3.1s.2 2.1.7 3.1c.4.9 1.1 1.6 2 2.1.9.5 2 .8 3 .7h6.7c.7 0 1.4.1 1.9.5.5.3.7.9.7 1.4h.2v-4.8h-.2c0 .6-.2 1.2-.7 1.6-.5.5-1.2.7-1.9.6zm-10.1 10.2h11.1c.4 0 .7 0 1.1.1.2.1.4.3.5.5.1.4.2.8.1 1.2 0 0 0 .1.1.1s.1 0 .1-.1v-5.9s0-.1-.1-.1-.1 0-.1.1c0 .4 0 .8-.1 1.2-.1.2-.2.4-.5.5-.3.1-.7.2-1.1.1H14.6c-.4 0-.7 0-1.1-.1-.2-.1-.4-.3-.5-.5-.1-.4-.1-.8-.1-1.2 0 0 0-.1-.1-.1s-.1 0-.1.1v5.9s0 .1.1.1.1 0 .1-.1c0-.4 0-.8.1-1.2.1-.2.2-.4.5-.5.3-.1.7-.1 1.1-.1zM12.5 350c0 1.4.3 2.8 1 4 .6 1.2 1.6 2.2 2.8 2.9 1.2.7 2.7 1.1 4.1 1.1 1.3 0 2.6-.3 3.7-1s2-1.7 2.6-2.9c.7-1.4 1-2.8 1-4.3v-1.6c0-.6-.1-1.3-.1-1.9v-3h-.2c0 .4 0 .8-.1 1.2-.1.2-.2.4-.5.5-.3.1-.7.1-1.1.1H14.6c-.4 0-.7 0-1.1-.1-.2-.1-.4-.3-.5-.5-.1-.4-.1-.8-.1-1.2h-.2V348.4c-.1.6-.2 1.1-.2 1.6zm.5-.2c-.1-.7.1-1.4.4-2 .4-.4.9-.6 1.4-.5h10.8c.4 0 .7.1 1 .2.2.2.4.5.4.8.1.5.1 1 .1 1.6 0 1.1-.3 2.1-1 2.9-.7.9-1.6 1.5-2.6 1.9-1.2.5-2.5.7-3.7.7-1.3 0-2.5-.2-3.7-.7-1-.4-1.8-1.1-2.3-2-.5-.9-.8-1.9-.8-2.9zm3.4 22.9c-1.9-.4-3.3-2.1-3.1-4.1v-1.2c0-.4.1-.8.3-1.1.3-.2.7-.3 1.1-.3h5.4v2.3c0 1.8-.7 2.7-2.1 2.7v.2h4.4s.1 0 .1-.1 0-.1-.1-.1c-1.2 0-1.8-.9-1.8-2.6v-2.3h4.9c.4 0 .8.1 1.1.4.2.4.4.8.3 1.2v1c.1 1.7-1.1 3.1-2.7 3.3 0 0-.1.1 0 .1 0 .1 0 .1.1.1h3.1c.1 0 .2-.1.2-.2v-10.1s0-.1-.1-.1-.1 0-.1.1c0 .4 0 .8-.1 1.2-.1.2-.2.4-.5.5-.3.1-.7.1-1.1.1H14.6c-.4 0-.7 0-1.1-.1-.2-.1-.4-.3-.5-.5-.1-.4-.1-.8-.1-1.2 0 0 0-.1-.1-.1s-.1 0-.1.1v10.4c0 .1 0 .2.1.3.1.1.2.1.3.1 1.1 0 2.2.1 3.3.2l.1-.1v-.1h-.1z"/><path id="ご利用案内" class="st0" d="M29.8 2.4C31.6 3.5 33.1 5.1 34 7c.6 1.2.8 1.4 1.5 1.4s1.4-.5 1.4-1.3v-.3c0-2.2-3.1-4.4-6.8-5l-.3.6zM33.6.5c2 1.1 3.6 2.8 4.8 4.7.2.6.7 1 1.2 1 .8 0 1.4-.7 1.4-1.5v-.1C41 2.4 37.7.3 33.9 0l-.3.5zm-10.4 31c-5.4 0-9.2-.9-11.6-2.7-1.8-1.4-3.1-3.4-3.7-5.6 0-.2-.2-.4-.4-.4-.4 0-.5.4-.5 1.5.2 2.7 1.5 5.2 3.6 6.9 2.8 2.4 7.2 3.5 13.8 3.5 3.4 0 6.8-.3 10.2-.7.8-.1 1.4-.7 1.6-1.5-.2-1.1-1.1-1.9-2.3-2l-10.7 1zM18.9 9.1c-4.4 2.8-7.3 5.1-7.3 5.9 0 .2.2.4.4.4.5-.1.9-.3 1.2-.7 2.4-1.7 5-3.2 7.8-4.3 1.8-.8 3.7-1.3 5.7-1.5l2.2.1c.6 0 1.2-.3 1.4-.9 0-.6-2-2.9-2.6-2.9-.2.1-.4.1-.6.3-.7.4-4.4.7-7.6.7-3.1.1-6.1-.9-8.6-2.7-.1 0-.1-.1-.2-.1-.5.1-.7.3-.7.6 0 .7 1.6 2.2 3.2 3.2 1.6.9 3.2 1.2 6.4 1.5-.3.1-.4.2-.6.3l-.1.1zM1 68.1c3.9-.1 4.1-.1 5.6-.1h3.5C9.7 72.4 5 81.3.5 86.6c-.2.2-.4.5-.4.7 0 .2.2.3.4.3.5-.2 1-.6 1.4-1 3.1-2.7 4.7-4.6 8.2-9.7V94c-.1.3.1.6.4.6h.1c.6 0 1.2-.2 1.7-.4.4-.1.6-.4.6-.8V74.7c1.6.9 2.8 2.3 3.4 4 1.1 2.3 1.6 2.8 2.4 2.8 1-.2 1.7-1.1 1.6-2.1-.1-1.4-.8-2.7-1.9-3.5-1.4-1.1-2.6-1.6-5.5-2.4V68H22c.2 0 .5-.1.5-.4 0-.3-.2-.5-.4-.6l-3-2.9-2.3 2.8h-4v-7.7c2.3-.6 2.7-.7 5.3-1.5h1.2c.4.1.8-.2.9-.6-.1-.4-.3-.8-.7-1l-2.7-2C12.2 57 10 58 3.2 60.2c-1.5.5-1.6.5-1.6.9 0 .3.2.5.5.5.7-.1 1.4-.2 2.1-.4 1.1-.2 2.3-.5 3.5-.7.4-.1 1.1-.3 2.3-.5v7H6.6c-1.8 0-3.1 0-6.2-.2l.6 1.3zm24-7.5v24.8c0 .4.4.6.7.6h.1c1.1 0 2.3-.7 2.3-1.4V63.4l1-.8c.3-.2.5-.5.5-.8 0-.5-.5-.9-1-.9l-3.6-.3zm4.1 30.5 4.1 1.2c.4 0 .7.2 1 .5 0 0 0 .5.1 1.1 0 .3.2.6.5.6h.1c.8-.1 1.6-.5 2.2-1 .8-.6.9-1 .9-2.5V57.5l1.1-.6c.4-.2.6-.5.6-.9-.1-.5-.5-.8-.9-.8l-4-.4v34.8c0 .7 0 .9-.2 1-.7.1-1.3.1-2 .1H29l.1.4zM6.4 109.6c0 2.8.1 4.8.1 5.8v14.5c0 7.1-2.1 13.8-5.8 18.1-.3.3-.6.7-.7 1.1 0 .2.2.3.4.4.5-.2 1-.5 1.3-.9 2.4-2 4.3-4.5 5.7-7.4 1.3-2.7 1.7-4.3 2.3-8.9h10.8v16.1c0 .3.2.6.5.6h.1c1.5 0 2.4-.6 2.4-1.6v-15.1h11.4v11c0 1.2-.4 1.6-2 1.6h-1l-3.6-.2v.9l4.1 1.5c.6.1 1 .5 1 1.1.1.8.3 1 .7 1 .9-.1 1.8-.5 2.6-1 1.1-.7 1.3-1.4 1.3-3.8v-29.9l.8-.5c.3-.1.5-.4.6-.7-.1-.4-.4-.8-.7-1l-3.2-2.5-1.1 1.9H10.2l-3.8-2.1zm3.3 21.6v-8.6h10.8v8.6H9.7zm0-9.6v-8.7h10.8v8.7H9.7zm13.8 9.6v-8.6h11.4v8.6H23.5zm0-9.6v-8.7h11.4v8.7H23.5zm-7.1 71.6c-4 4.3-8.9 7.7-14.2 10.1-1.8.8-1.8.8-1.8 1.1 0 .2.1.4.3.4 1.9-.5 3.8-1.1 5.6-1.9 4.4-1.9 7.5-3.8 13.1-8.1v9.7c0 .5.1.7.6.7 1.2 0 2.3-.7 2.3-1.6v-9.9c3.7 4.9 8.2 8 15.4 10.5 1.1-1.4 1.7-1.9 4.3-3.2-8.2-1.2-14.2-3.7-18.7-7.9H41c.3-.2.4-.5.4-.8 0-.2-.1-.4-.2-.6l-4-2.8-2.8 3.1H22.2v-2.5l.8-.4c.4 0 .8-.4.8-.8s-.4-.8-.8-.8c-.1 0-.2 0-.3.1l-3.4-.4v4.8H9.4c-2.3 0-4.2 0-9-.2l.6 1.6c4-.2 5.2-.2 8.4-.2h7zM2 177.9c3.8-.2 5.3-.2 7.2-.2h4.1L9 183.2c-.1.1-.2.3-.2.4.1.4.4.7.8.8.5.2 1 .4 1.6.5.3 0 .5-.2.6-.4L13 183c2 .2 3.2.4 7.3 1-3.5 2.1-7.4 3.3-13.3 4.1-2.8.4-2.8.4-2.8.8 0 .3.2.5.5.5h.1c3.5-.2 7.1-.7 10.5-1.4 2.9-.5 5.7-1.6 8.2-3.2.9.3 1.5.5 1.7.6l1 .3c2.2.6 4.4 1.4 6.4 2.6.4.2.8.4 1.2.4.7-.1 1.2-.6 1.2-1.3 0-1.1-.8-1.7-2.8-2.5-1.9-.7-1.9-.7-6.8-1.7 1.4-1.4 2.5-3 3.5-4.8.1-.2.3-.5.5-.7h10.2c.1-.1.2-.2.2-.4s-.1-.3-.2-.4l-3.9-2.9-2.2 2.6h-16l1.7-2.5 1.2-.3c.6-.2.9-.4.9-.7 0-.3-.2-.5-.5-.6l-3.2-1.5-3.5 5.6H9.2c-2 0-3.6 0-7.9-.2l.7 1.5zm14.7-.2h9.1c-1 1.8-2.3 3.5-3.7 5-2.3-.2-2.9-.3-4.2-.4-.7 0-2.1-.1-4.4-.3l3.2-4.3zm-11-10.9c.1 1.3-.4 2.7-1.2 3.7-2.2 2.3-2.2 2.3-2.2 3.1 0 .9.6 1.7 1.5 1.7h.1c1.8 0 3.1-1.9 3.2-5H34l-1.9 4.1.6.3 3.6-2.5h2.2c.7 0 1.1-.3 1.1-.8 0-.3-.2-.6-.4-.8l-3.7-3.3-1.5 1.9H22.4V166l1.2-.7c.3-.2.6-.5.6-.8 0-.4-.4-.8-.8-.9l-4-.5v6.1H7.2l-.2-.6-.1-.6c-.1-.5-.2-1-.4-1.5l-.8.3zm-2.1 58.7v34.6c0 .3.2.7.5.7h.2c1.2 0 2.3-.6 2.3-1.1v-11c7.9-3.6 11.5-7.1 13.6-12.8 3.8 2.5 6.8 6 8.9 10 .7 1.8 1.1 2.3 1.8 2.3 1.1-.2 2-1.2 1.9-2.3 0-1.9-2-4.7-4.7-6.7-2.4-1.7-4.9-3.1-7.6-4.1.5-2 1-4.1 1.2-6.1h13v26c0 .9-.3 1.2-1.1 1.1h-.2l-5.3-.1v.7l4 1.5c1 .4 1.1.5 1.2 1.1.2 1 .3 1.2.7 1.2 1-.3 2-.7 2.9-1.4.8-.4 1.2-1.3 1.1-2.2v-26.2l.6-.3c.5-.1.8-.5.8-1 0-.4-.2-.7-.6-1l-3.4-2.7-1.3 2.1H21.9c.3-2.7.3-3.1.5-5.7l1.2-.8c.4-.2.8-.6.8-1.1 0-.6-.3-.7-1.1-.9l-4.5-.7c0 2 .1 2.9.1 4.1 0 1.7 0 2.9-.2 5.2h-11l-4.1-2.4zm14.9 3.3c-1.2 9.1-4.5 14.3-11.9 18.7v-18.7h11.9z"/></svg>
