<svg version="1.1" xmlns="http://www.w3.org/2000/svg" x="0" y="0" viewBox="0 0 40 793" width="40" height="793" xml:space="preserve"><style>.st0{fill-rule:evenodd;clip-rule:evenodd;fill:#fff}</style><path class="st0" d="M13 582.8h11.2c.4 0 .7 0 1 .1.2.1.4.2.5.4.1.3.1.6.1.9 0 .9-.3 1.8-1.1 2.4-.9.6-1.9 1-3 .9-1.1.1-2.1-.2-3-.9-.7-.5-1.1-1.3-1.1-2.1 0-.3 0-.6.1-.8v-.1h-.1c-.1 0-.1 0-.1.1-.1.4-.1.7-.1 1.1 0 .9.2 1.7.5 2.5s.9 1.5 1.6 2c.8.5 1.7.8 2.6.8 1.2.1 2.4-.4 3.2-1.4.7-1.1 1.1-2.4 1-3.8v-2c0-.5-.1-1-.1-1.3v-2.9s0-.1-.1-.1-.1 0-.1.1c0 .4 0 .8-.1 1.2-.1.2-.3.4-.5.5-.3.1-.7.1-1.1.1H12.9c-.4 0-.7 0-1.1-.1-.2-.1-.4-.3-.5-.5-.1-.4-.1-.8-.1-1.2 0 0 0-.1-.1-.1s-.1 0-.1.1v6.5s0 .1.1.1.1 0 .1-.1c0-.5 0-1.1.1-1.6.1-.3.2-.5.5-.7.5 0 .8-.1 1.2-.1zm-1.8 26.8c0-.7.3-1.4.7-2 .7-.9 1.5-1.7 2.4-2.3 1.1-.9 2.7-2 4.6-3.3.4.8 1 1.5 1.7 2s1.6.7 2.4.7c.9 0 1.8-.4 2.3-1.1.6-1 .9-2.1.8-3.2v-1.8c0-.6-.1-1.2-.1-1.7V594h-.2c0 .4 0 .8-.1 1.2-.1.2-.2.4-.5.5-.3.1-.7.1-1.1.1H12.9c-.4 0-.7 0-1.1-.1-.2-.1-.4-.3-.5-.5-.1-.4-.1-.8-.1-1.2 0 0 0-.1-.1-.1s-.1 0-.1.1v5.9h.2c0-.4 0-.8.1-1.2.1-.2.2-.4.5-.5.4-.1.7-.2 1.1-.1h5.5v2c-1.9 1.1-3.7 2.3-5.5 3.6-1.3 1-2 1.7-2 2.1v3.9s0 .1.1.1.2-.1.2-.2zm7.9-11.6h5.2c.5-.1.9.1 1.3.4.3.4.4.9.4 1.3 0 .7-.2 1.4-.8 1.9-.8.5-1.8.8-2.8.7-.9.1-1.8-.2-2.6-.7-.6-.6-.9-1.4-.8-2.2 0-.5 0-.9.1-1.4zm-6.2 18.4h11.3c.4 0 .7 0 1.1.1.2.1.4.3.5.5.1.4.2.8.1 1.2 0 0 0 .1.1.1s.1 0 .1-.1v-5.9s0-.1-.1-.1-.1 0-.1.1c0 .4 0 .8-.1 1.2-.1.2-.2.4-.5.5-.3.1-.7.2-1.1.1H12.9c-.4 0-.7 0-1.1-.1-.2-.1-.4-.3-.5-.5-.1-.4-.1-.8-.1-1.2 0 0 0-.1-.1-.1s-.1 0-.1.1v5.9s0 .1.1.1.1 0 .1-.1c0-.4 0-.8.1-1.2.1-.2.2-.4.5-.5.4 0 .8-.1 1.1-.1zm13.4 20.7v-5s0-.1-.1-.1-.1 0-.1.1c0 .5-.1.9-.4 1.3-.3.3-.7.5-1.1.4-.4 0-.7-.1-1.1-.2l-9.3-3.5 9.8-4.5c.3-.1.6-.2.9-.2.7 0 1.1.5 1.1 1.5 0 0 0 .1.1.1s.1 0 .1-.1v-5.8s0-.1-.1-.1-.1 0-.1.1c0 .4-.1.8-.4 1-.4.4-.8.7-1.3.9L11 629.2c-.1.1-.1.2-.1.3 0 .1 0 .2.1.3l12.4 4.7c.7.2 1.4.6 1.9 1.2.4.4.7 1 .7 1.6 0 0 0 .1.1.1.1-.2.2-.2.2-.3zm-15.1 18.8c0-.5.3-.9.6-1.2.7-.6 1.6-1 2.4-1.4l12.1-5.9c.1 0 .1-.1.1-.2s0-.2-.1-.2l-11.9-5.2c-.7-.3-1.4-.6-2.1-1-.4-.2-.7-.5-1-.9-.2-.3-.3-.7-.3-1.1 0-.1-.1-.1-.2-.1s-.1.1-.1.1V644.4c0 .1.1.1.2.1s.1-.1.1-.1c0-.6.1-1.2.4-1.7.3-.4.8-.6 1.3-.6s.9.1 1.3.3l2.6 1.2v5.8l-3.8 1.8c-.4.2-.8.3-1.3.4-.2 0-.4-.1-.5-.3-.1-.3-.2-.7-.2-1 0-.1 0-.1-.1-.1s-.1 0-.1.1v5.7c0 .1.1.1.2.1.4-.1.4-.1.4-.2zm12.1-9.6-5.7 2.8v-5.3l5.7 2.5zm3.2 21.5c0-1.6-.3-3.1-1-4.6-.6-1.3-1.6-2.4-2.8-3.2-1.2-.8-2.6-1.2-4.1-1.2-1.5 0-2.9.4-4.1 1.1-1.2.8-2.2 1.9-2.8 3.1-.7 1.4-1 3-1 4.6 0 1.6.3 3.1.9 4.6.1.2.3.4.5.3l2.9.5s.1 0 .1-.1v-.2c-1.2-.4-2.2-1.1-3-2.1-.7-.8-1-1.9-.9-2.9 0-1.1.3-2.2 1-3.2s1.6-1.7 2.7-2.2c1.2-.6 2.6-.8 3.9-.8 1.3 0 2.7.2 3.9.8 1.1.5 1.9 1.2 2.6 2.1.6.9.9 2 .9 3.1s-.3 2.2-1.1 3.1c-.8.9-1.9 1.5-3.1 1.9-.1 0-.1.1-.1.2s0 .1.1.1l3.2-.3c.1 0 .3 0 .4-.1l.2-.2c.5-1.4.8-2.9.7-4.4zm-.2 23v-5.1h-.2c.1.6-.2 1.1-.8 1.3H25c-.6 0-1.2-.2-1.8-.6l-4.1-2.5 5.5-3.5c.2-.2.5-.3.8-.3.5 0 .7.3.7 1 0 0 0 .1.1.1s.1 0 .1-.1V675.7s0-.1-.1-.1-.1 0-.1.1c0 .4-.2.8-.5 1.1-.5.5-1.1 1-1.8 1.4l-5.7 3.7h-5c-.4 0-.7 0-1.1-.1-.2-.1-.4-.3-.5-.5-.1-.4-.1-.8-.1-1.2h-.2v6s0 .1.1.1.1 0 .1-.1c0-.4 0-.8.1-1.2.1-.2.2-.4.5-.5.4-.1.7-.2 1.1-.1h5.5l4.5 2.7c.8.5 1.6 1.1 2.2 1.8.5.5.8 1.1.8 1.8h.1c0 .3.1.2.1.2zM13 704.9h11.2c.4 0 .7 0 1 .1.2.1.4.2.5.4.1.3.1.6.1.9 0 .9-.3 1.8-1.1 2.5-.9.6-1.9 1-3 .9-1.1.1-2.1-.2-3-.9-.7-.5-1.1-1.3-1.1-2.1 0-.3 0-.6.1-.8v-.1h-.1c-.1 0-.1 0-.1.1-.1.4-.1.7-.1 1.1 0 .9.2 1.7.5 2.5s.9 1.5 1.6 2c.8.5 1.7.8 2.6.8 1.2.1 2.4-.4 3.2-1.4.7-1.1 1.1-2.4 1-3.8v-2c0-.5-.1-1-.1-1.3v-3s0-.1-.1-.1-.1 0-.1.1c0 .4 0 .8-.1 1.2-.1.2-.2.4-.5.5-.3.1-.7.1-1.1.1H12.9c-.4 0-.7 0-1.1-.1-.2-.1-.4-.3-.5-.5-.1-.4-.1-.8-.1-1.2 0 0 0-.1-.1-.1s-.1 0-.1.1v6.6c0 .1 0 .1.1.1s.1 0 .1-.1c0-.5 0-1.1.1-1.6.1-.3.2-.5.5-.7.5-.2.8-.2 1.2-.2zm-2.3 18.8c0 1.5.4 2.9 1.1 4.2.7 1.3 1.7 2.3 2.9 3.1 1.2.8 2.6 1.2 4.1 1.2 1.3 0 2.6-.3 3.8-.9 1.2-.6 2.2-1.5 2.9-2.7.7-1.2 1.1-2.6 1.1-4s-.3-2.7-.9-4c-.6-1.3-1.5-2.4-2.7-3.2-1.3-.9-2.8-1.3-4.3-1.3-1.4 0-2.8.3-4 1-1.2.6-2.2 1.5-2.9 2.7-.8 1.1-1.2 2.5-1.1 3.9zm.5.8c0-1.1.4-2.2 1.1-3 .8-.9 1.8-1.7 3-2.1 1.3-.5 2.8-.8 4.2-.8 1.7-.1 3.3.4 4.7 1.3 1.1.9 1.8 2.2 1.7 3.6 0 1.1-.3 2.3-1 3.2-.7.9-1.7 1.7-2.8 2.1-1.3.5-2.7.8-4 .7-1.3 0-2.5-.2-3.7-.7-.9-.4-1.8-1-2.3-1.8-.6-.6-.9-1.5-.9-2.5zM24.3 740c.4 0 .7 0 1.1.1.2.1.4.3.5.5.1.4.2.8.1 1.2 0 0 0 .1.1.1s.1 0 .1-.1v-5.9s0-.1-.1-.1-.1 0-.1.1c0 .4 0 .8-.1 1.2-.1.2-.2.4-.5.5-.3.1-.7.1-1.1.1H12.9c-.4 0-.7 0-1.1-.1-.2-.1-.4-.3-.5-.5-.1-.4-.1-.8-.1-1.2 0 0 0-.1-.1-.1s-.1 0-.1.1v11.2c0 .1 0 .2.1.3.1.1.2.1.3.1 1 0 2.3.1 3.8.2 0 0 .1 0 .1-.1s0-.1-.1-.2c-2.1-.4-3.7-2.3-3.6-4.4v-1.4c0-.3 0-.7.1-1 .1-.2.2-.3.4-.4.3-.1.6-.1 1-.1l11.2-.1zm-11.4 15.1h11.3c.4 0 .7 0 1.1.1.2.1.4.3.5.5.1.4.2.8.1 1.2 0 0 0 .1.1.1s.1 0 .1-.1v-6c0-.1 0-.1-.1-.1s-.1 0-.1.1c0 .4 0 .8-.1 1.2-.1.2-.3.4-.5.5-.3.1-.7.2-1.1.2H12.9c-.4 0-.7 0-1.1-.2-.2-.1-.4-.3-.5-.5-.1-.4-.1-.8-.1-1.2 0-.1 0-.1-.1-.1s-.1 0-.1.1v6s0 .1.1.1.1 0 .1-.1c0-.4 0-.8.1-1.2.1-.2.2-.4.5-.5.4 0 .8-.1 1.1-.1zM26.5 770c0-1.6-.3-3.1-1-4.6-.6-1.3-1.6-2.4-2.8-3.2-1.2-.8-2.7-1.2-4.1-1.2-1.5 0-2.9.4-4.1 1.1-1.2.8-2.2 1.9-2.8 3.2-.7 1.4-1 3-1 4.6 0 1.6.3 3.1.9 4.6 0 .1.1.2.2.3.1.1.2.1.4.1l2.9.3s.1 0 .1-.1v-.1c-1.2-.4-2.2-1.1-3-2.1-.6-.8-1-1.9-.9-2.9 0-1.1.3-2.2 1-3.2s1.6-1.7 2.7-2.2c1.2-.6 2.6-.8 3.9-.8 1.3 0 2.7.2 3.9.8 1.1.5 1.9 1.2 2.6 2.2.6.9.9 2 .9 3.1s-.3 2.2-1.1 3.1c-.8.9-1.9 1.5-3.1 1.9-.1 0-.1.1-.1.2s0 .1.1.1l3.2-.3c.1 0 .3 0 .4-.1l.2-.2c.4-1.7.7-3.2.6-4.6zm-.2 22.9v-5s0-.1-.1-.1-.1 0-.1.1c.1.6-.2 1.1-.8 1.3H25c-.6 0-1.2-.2-1.8-.6l-4.1-2.5 5.5-3.5c.2-.2.5-.3.8-.3.5 0 .7.3.7 1 0 0 0 .1.1.1s.1 0 .1-.1V777.9c0-.1 0-.1-.1-.1s-.1 0-.1.1c0 .4-.2.8-.5 1.1-.5.5-1.1 1-1.8 1.4l-5.7 3.6h-5c-.4 0-.7 0-1.1-.1-.2-.1-.4-.3-.5-.5-.1-.4-.1-.8-.1-1.2 0 0 0-.1-.1-.1s-.1 0-.1.1v6c0 .1 0 .1.1.1s.1 0 .1-.1c0-.4 0-.8.1-1.2.1-.2.2-.4.5-.5.4-.1.7-.1 1.1-.1h5.5l4.5 2.7c.8.5 1.6 1.1 2.2 1.8.5.5.8 1.1.8 1.8 0 0 0 .1.1.1 0 .2.1.2.1.1z"/><path class="st0" d="M35.5 0C33 0 31 1.9 30.9 4.4c0 2.5 2 4.5 4.5 4.5S40 7 40 4.5v-.1C40 2 38 .1 35.5 0zm-.1 1.3c1.7 0 3.2 1.3 3.2 3s-1.4 3.1-3.1 3.1c-1.7 0-3.2-1.3-3.2-3s1.4-3 3.1-3.1zm-8.2 6.5c-4.7.3-7 .5-7.6.5l-8.4.7-3.7.3c-1 0-1.3-.2-3.5-2.1-.5.4-.9 1-1 1.7 0 .8 3.6 4 4.5 4 .4 0 .7-.2 1-.4 1.8-1.1 2-1.1 14.9-2.4l3.1-.3h.8c-1.1 4.8-3.1 9.3-5.8 13.4-2.7 4-6.3 6.9-13.3 10.7-.9.5-1.1.7-1.1 1 0 .3.3.5.6.5 1.7-.5 3.3-1.2 4.8-2.1 7-3.6 10.3-6.4 13.4-11.3 2.1-3.2 3.7-6.8 4.8-10.4 1.1-.4 1.5-.6 1.5-1.1 0-.5-1.1-1.4-4.3-3.8l-.7 1.1zm2.4 60.3-15.2 1.3c-3.9.3-5.9.5-5.9.5-1 0-1.5-.2-3.4-1.9-.4.5-.7 1-.8 1.6 0 .8 3.1 3.9 3.8 3.9.3-.1.6-.3.8-.6.4-.6 2-.9 8.3-1.7L29.7 70c-4 9-10.9 16.4-19.6 20.9-1.8.9-2 1.1-2 1.4 0 .2.2.4.5.5.9-.2 1.8-.6 2.6-1.1 7.1-3.4 10-5.2 13.6-9 3.2-3.3 4.7-5.4 8.3-11.4 1.3-.5 1.6-.8 1.6-1.3 0-.6-1.6-2-3.8-3.3l-1.3 1.4zm-3.8-8.6-11.3.9c-.8.1-2.1.1-3 .1-1.4 0-1.4 0-3.5-1.8-.4.4-.7 1-.8 1.6.1.5.4.9.8 1.2.8.9 1.7 1.6 2.7 2.1.2 0 .3-.1.4-.2.9-.6 1.8-.7 4.2-1 3.9-.5 7.9-.7 11.9-.8.4 0 .8 0 1.3.1.7.1 1.3.2 2 .2.6-.1 1.1-.6 1-1.2 0-.7-.8-1.2-4-2.6l-1.7 1.4zm-3 67.4c1.1-.7 1.2-.9 1.2-1.2 0-.5-.3-.6-1.6-1 1.7-1.5 2.9-2.6 7-6.4l.9-.8c1.8-.6 2.3-.8 2.3-1.5 0-.8-1.1-1.9-2.9-3.1-1.7-1.2-1.9-1.2-2.2-1.2-.4 0-.7.2-1 .4-.2.1-.4.2-.7.3-.1 0-.2.1-.2.2s-.1.2 0 .2c1.3.5 2.2 1.3 2.2 2-.1.4-.3.8-.7 1.1-.4.5-.8.9-1.2 1.3-7.5 8.1-16.1 14.8-23.7 18.5-1.4.7-1.4.7-1.4 1.1 0 .3.2.5.5.5 2-.7 4-1.5 5.9-2.4 4.5-2.3 8.7-5 12.7-8V136.6c0 5.4-.1 7.2-.6 9-.1.2-.1.4-.1.6.2.9 1.1 1.6 2.1 1.7.8 0 1.5-.6 1.5-1.4V126.9zm3.2 44.5c1.7 1.2 3.1 2.8 4.1 4.6.5.8.8 1.1 1.3 1.1.8 0 1.5-.7 1.5-1.5 0-2.1-2.7-4-6.7-4.6l-.2.4zm5-2.5c2.6 1.7 2.8 2 4.2 3.8.8 1 1.1 1.3 1.6 1.3.8-.1 1.3-.7 1.3-1.5 0-2.1-2.8-3.8-6.9-4.2l-.2.6zm-20.3 7.2c1.6 1.2 2.1 1.5 2.1 1.7 0 .1-.1.3-.1.4-.1.2-.2.5-.3.7-4 7-7 10.9-11.6 14.7-.4.2-.6.5-.7.9 0 .2.2.4.4.4.5 0 2.5-1.3 4.8-3.1 3.9-3.2 6.3-5.8 10.5-11.4 1.4 0 1.9-.3 1.9-1 0-.5-.5-1.1-2.1-2.4-1.5-1.2-2.4-1.8-3-1.8-.8.1-1.4.5-1.9.9zm11.1.2c-.3 0-.5.2-.5.5s.2.5 1.1 1c1.8 1.1 3.5 2.4 4.9 3.9 3 2.9 4.2 4.6 7 10.2.8 1.8 1 2.1 1.8 2.1 1.1-.2 2-1.2 1.9-2.3 0-3.1-4.3-8.4-9.9-12.1-2.2-1.6-5.7-3.4-6.3-3.3zM3.4 234.6c2.4.8 4.4 2.5 5.6 4.6 1 1.6 1.5 2.1 2.2 2.1.9-.1 1.6-.9 1.6-1.8 0-2.5-3.8-4.7-9.3-5.5l-.1.6zm3.7 14.3c-.5.4-.7 1-.7 1.7 0 1 .7 1.9 2.1 3.1 2.2 1.7 3.1 2.3 3.7 2.3.6 0 1-.4 1.2-.9.6-1 .7-1 2.6-2.2 1.1-.6 4.7-3.3 7.2-5.3 3-2.5 5.9-5.2 8.6-8.1 3.8-4 5.8-6.4 5.8-7 0-.2-.2-.4-.4-.5-.2 0-.5.2-1.6 1.3-3.6 3.8-7.6 7.3-11.7 10.5-5 3.7-11.8 8-13 8-.8-.2-2.6-1.4-3.8-2.9zm1.4-23.4c2.4 1 4.5 2.7 5.9 4.8 1.2 1.7 1.5 1.9 2.1 1.9.9-.2 1.5-1 1.5-1.9 0-2.5-4.1-5-9.2-5.5l-.3.7zm12.2 56.3c.9-.7 1-.9 1-1.2 0-.8-3.5-3-4.7-3-.8 0-1.5.5-1.8 1.2 2.2.8 2.5 1.2 2.5 2.9l-.1 23.1c0 3.4-.1 4.2-.3 4.8-.1.3-.2.6-.2.9.3 1.1 1.2 1.9 2.4 1.9.8 0 1.4-1 1.4-2.4v-1.8c0-.6 0-1.1-.1-1.5l-.1-24.9zm11.9 49.4c-2.5 0-4.6 2-4.6 4.4s2 4.5 4.5 4.5 4.6-2 4.6-4.4c0-2.5-2-4.5-4.5-4.5zm-.1 1.4c1.7 0 3.2 1.3 3.2 3s-1.3 3.1-3.1 3.1c-1.7 0-3.2-1.3-3.2-3v-.1c0-1.6 1.4-2.9 3.1-3zm-14.3 12.3v15.8c0 1.3 0 1.7-.3 1.7-.5-.2-.9-.4-1.3-.7l-5.3-3.5-.5.5 5.8 5.9c.4.3.6.7.5 1.2 0 1.2.3 1.9 1 1.9.8-.2 1.5-.6 2-1.2.7-.5 1-1.4.9-2.2v-.4l-.5-19.1c3.9-.2 4.8-.2 5.8-.2 2.7 0 5.3.2 7.9.6.7.2 1.3.3 2 .3.6 0 1.2-.4 1.2-1 0-.9-2-2.4-4-3.2l-2 1.1c-2.7 0-3.7.1-4.1.1-1.7 0-3.4.1-5.1.2l-1.6.1v-4.6c-.1-.6.1-1.1.6-1.5.4-.2.6-.5.7-.9 0-.5-.5-.9-1.8-1.5s-2.6-1-4-1.3c-.8.2-1.5.8-1.7 1.6 3 .8 3.5 1.2 3.5 2.7l.1 5.7-7.4.6c-1.5.1-3.5.2-4.2.2-1.6 0-2.1-.3-4-2.6-.6.5-.9 1.3-1 2 0 1 3.2 4.1 4.2 4.1.3 0 .6-.1.8-.3.8-.6 1.8-.8 6.8-1.5l5-.6zm-8.4 3.7c-.7 4-2.9 7.6-6.1 10.2-1.4 1.1-1.6 1.3-1.6 2.1 0 .9.7 1.6 1.6 1.7 1.5 0 3-1.4 4.6-4.3 1.6-2.7 2.4-5.8 2.3-8.9v-.7l-.8-.1zm15.1.6c3.6 3 6.3 6.8 7.9 11.1.6 1.8.9 2.3 1.7 2.3 1.1-.1 2-1.1 1.9-2.2 0-4-5.1-9.3-11.2-11.8l-.3.6zm2.9 43.4c.4-.4.7-.9.8-1.4 0-.4-.4-.8-1.2-1.2-1.3-.7-2.7-1.2-4.1-1.5-.6 0-1 .3-2 1.5 1.9.5 3.3 1.2 3.3 1.7V401c-.4 8.1-1.6 12.1-4.6 15.5-2.5 2.7-5.6 4.7-9.1 6-2 .9-2.1.9-2.1 1.2 0 .2.2.4.4.4 1.5-.3 3-.8 4.4-1.4 4.7-1.8 8.6-4.6 10.5-7.5 2-3 3.3-8.6 3.4-14l.3-8.6zm-16.7 2v12c0 .4 0 .7-.1 1.1-.1.5-.2.9-.2.9.2 1 1 1.8 2 2 .8 0 1.3-.6 1.4-1.4 0-.5-.1-1-.1-1.4-.1-.7-.1-1.3-.1-2v-11.7c.6-.3 1-.8 1.2-1.4-.1-.4-.4-.7-.8-.8-1.2-.8-2.6-1.4-4-1.7-.6 0-1.1.4-1.9 1.5 2.3.9 2.7 1.2 2.6 1.8v1.1zm-7.7 60.9c2.4.8 4.4 2.5 5.6 4.6 1 1.6 1.5 2.1 2.2 2.1.9-.1 1.6-.9 1.6-1.8 0-2.5-3.8-4.7-9.3-5.5l-.1.6zm3.7 14.3c-.5.4-.7 1-.7 1.7 0 1 .7 1.9 2.1 3.1 2.2 1.7 3.1 2.3 3.7 2.3.6 0 1-.4 1.2-.9.6-1 .7-1 2.6-2.2 1.1-.6 4.7-3.3 7.2-5.3 3-2.5 5.9-5.2 8.6-8.1 3.8-4 5.8-6.4 5.8-7 0-.2-.2-.4-.4-.5-.2 0-.5.2-1.6 1.3-3.6 3.8-7.6 7.3-11.7 10.5-5 3.7-11.8 8-13 8-.8-.2-2.6-1.5-3.8-2.9zm1.5-23.4c2.4 1 4.5 2.7 5.9 4.8 1.2 1.7 1.5 1.9 2.1 1.9.9-.2 1.5-1 1.5-1.9 0-2.5-4.1-5-9.2-5.5l-.3.7zm12.1 56.3c.9-.7 1-.9 1-1.2 0-.8-3.5-3-4.7-3-.8 0-1.5.5-1.8 1.2 2.2.8 2.5 1.2 2.5 2.9l-.1 23.1c0 3.4-.1 4.2-.3 4.8-.1.3-.2.6-.2.9.3 1.1 1.2 1.9 2.4 1.9.8 0 1.4-1 1.4-2.4v-1.8c0-.6 0-1.1-.1-1.5l-.1-24.9z"/></svg>
