<svg version="1.1" id="ttl-guide-01-pc.svg" xmlns="http://www.w3.org/2000/svg" x="0" y="0" viewBox="0 0 50 204" width="50" height="204" style="enable-background:new 0 0 50 204" xml:space="preserve"><style>.st0{fill-rule:evenodd;clip-rule:evenodd;fill:#fff}</style><path id="guide" class="st0" d="M40.9 8.5c0 1.1.1 2.1.4 3.1 0 0 0 .1.1.1h.4c.3 0 .6-.1.9 0h1.1c.2 0 .3 0 .4.1.1.1.1.3.1.4 0 0 0 .1.1.1h.1v-1.5c0-.5 0-1.1.1-1.9h-.1c-.1 0-.1 0-.1.1 0 .3 0 .7-.1 1-.1.2-.2.3-.4.4-.3.1-.7.1-1 .1-.4 0-.7 0-1.1-.2-.2-.1-.4-.3-.5-.5-.1-.3-.2-.6-.1-.9 0-.7.2-1.5.6-2.1.4-.6 1-1.1 1.6-1.4.7-.3 1.5-.5 2.3-.5.7 0 1.5.1 2.1.4.6.3 1.1.7 1.4 1.2.3.5.5 1.1.5 1.8s-.2 1.5-.7 2c-.4.5-1 .9-1.6 1.1 0 0-.1 0 0 .1 0 0 0 .1.1.1l1.8-.2h.2l.1-.1c.2-.3.3-.7.3-1.1.1-.5.1-1 .1-1.5 0-.9-.2-1.9-.6-2.7-.3-.8-.9-1.5-1.6-1.9-.7-.5-1.5-.7-2.4-.7-.8 0-1.6.2-2.3.6-.7.4-1.3 1-1.6 1.8-.4.8-.6 1.8-.6 2.7zm7.2 13.7h-3.9c-.8 0-1.5-.2-2.1-.7-1-1.1-1-2.8.1-3.8.7-.5 1.6-.8 2.5-.7h4c.2 0 .4 0 .6.1l.3.3c.1.2.1.5.1.7h.2V14.7h-.2c0 .2 0 .5-.1.7 0 .1-.1.2-.3.3-.2.1-.4.1-.6.1h-4.5c-.6 0-1.2.1-1.8.4-.5.3-.9.7-1.1 1.2-.3.6-.4 1.2-.4 1.8 0 .6.1 1.2.4 1.8.3.5.7.9 1.2 1.2.5.3 1.1.4 1.8.4h3.9c.4 0 .8.1 1.1.3.3.2.4.5.4.8h.2V20.9h-.2c0 .4-.1.7-.4.9-.4.3-.8.4-1.2.4zm-5.9 6.3h6.4c.2 0 .4 0 .6.1.1 0 .2.2.3.3.1.2.1.4.1.7h.2V26.2h-.2c0 .2 0 .5-.1.7 0 .1-.1.2-.3.3-.2.1-.4.1-.6.1h-6.5c-.2 0-.4 0-.6-.1l-.3-.3c-.1-.2-.1-.5-.1-.7h-.2V29.6h.2c0-.2 0-.5.1-.7 0-.1.1-.2.3-.3.3-.1.5-.2.7-.1zM41.1 36c0 .8.2 1.6.6 2.3.4.7.9 1.3 1.6 1.7.7.4 1.6.6 2.4.6.8 0 1.5-.2 2.2-.6.7-.4 1.2-1 1.5-1.7.4-.8.6-1.7.6-2.5v-3.7h-.2c0 .2 0 .5-.1.7 0 .1-.1.3-.3.3-.2.1-.4.1-.6.1h-6.5c-.2 0-.4 0-.6-.1l-.3-.3c-.1-.2-.1-.5-.1-.7h-.2V36zm.2-.1c0-.4 0-.8.2-1.1.2-.2.5-.3.8-.3h6.3c.2 0 .4 0 .6.1.1.1.2.3.3.5.1.3.1.6.1.9 0 .6-.2 1.2-.6 1.7-.4.5-.9.9-1.5 1.1-.7.3-1.4.4-2.2.4-.7 0-1.5-.1-2.2-.4-.6-.2-1-.7-1.4-1.2-.2-.6-.4-1.1-.4-1.7zm2 13.7c-1.1-.2-1.9-1.2-1.8-2.4v-.7c0-.2 0-.5.2-.6.2-.1.4-.2.6-.2h3.2V47c0 1-.4 1.6-1.2 1.6v.2H46.9v-.2c-.7 0-1-.5-1-1.5v-1.3h2.8c.2 0 .4.1.6.2.1.2.2.5.2.7v.6c.1 1-.6 1.8-1.6 1.9v.2h1.8c.1 0 .1 0 .1-.1v-5.8h-.2c0 .2 0 .5-.1.7 0 .1-.1.2-.3.3-.2.1-.4.1-.6.1h-6.5c-.2 0-.4 0-.6-.1-.1 0-.2-.2-.3-.3-.1-.2-.1-.5-.1-.7h-.2v6.3h.2c.6 0 1.3.1 1.9.1.3-.2.3-.2.3-.3z"/><path id="ご利用案内" class="st0" d="M23.3 1.9c1.4.9 2.5 2.1 3.3 3.6.5.9.6 1.1 1.1 1.1.6 0 1.1-.4 1.1-1v-.2c0-1.7-2.4-3.4-5.3-3.9l-.2.4zm3-1.5c1.5.9 2.8 2.2 3.7 3.7.1.4.5.7 1 .7.6 0 1.1-.6 1-1.2v-.1c0-1.7-2.6-3.4-5.6-3.6l-.1.5zm-8.2 24.3c-4.2 0-7.2-.7-9.1-2.1-1.4-1.1-2.5-2.6-2.9-4.4 0-.2-.2-.3-.3-.3-.3 0-.4.3-.4 1.2.1 2.1 1.2 4 2.8 5.4 2.2 1.9 5.6 2.8 10.8 2.8 2.7 0 5.3-.2 7.9-.6.6-.1 1.1-.6 1.2-1.2-.2-.8-.9-1.5-1.8-1.6l-8.2.8zM14.8 7.1c-3.4 2.2-5.7 4-5.7 4.6 0 .2.1.3.3.3.4-.1.7-.3.9-.5 1.9-1.3 3.9-2.5 6.1-3.3 1.4-.6 2.9-1 4.5-1.2l1.7.1c.5 0 .9-.3 1.1-.7-.4-1-1.1-1.8-2-2.3-.2 0-.3.1-.5.2-2 .4-4 .6-6 .5-2.4.1-4.8-.7-6.7-2.1l-.1-.1c-.4.1-.6.3-.6.5 0 .5 1.2 1.8 2.5 2.5 1.2.7 2.5 1 5 1.1-.2.2-.3.3-.4.3l-.1.1zM.8 53.3c3.1-.1 3.2-.1 4.4-.1h2.7C7.6 56.6 4 63.6.4 67.8c-.2.1-.3.3-.3.6 0 .1.1.2.3.2.4-.2.8-.4 1.1-.8 2.4-2.1 3.7-3.6 6.4-7.6v13.4c-.1.2.1.4.3.5h.1c.5 0 .9-.1 1.3-.3.3-.1.5-.3.5-.6V58.4c1.2.7 2.2 1.8 2.7 3.1.9 1.8 1.3 2.2 1.9 2.2.8-.2 1.3-.8 1.3-1.6-.1-1.1-.6-2.1-1.5-2.7-1.3-.9-2.8-1.6-4.3-1.9v-4.4h7.1c.2 0 .4-.1.4-.3 0-.2-.1-.4-.3-.5L15 50.1l-1.8 2.2h-3.1v-6c1.8-.5 2.1-.5 4.1-1.2h.9c.3.1.6-.2.7-.5-.1-.3-.3-.6-.5-.7l-2.1-1.5c-3.3 2.1-7 3.7-10.7 4.8-1.2.4-1.2.4-1.2.7 0 .2.2.4.4.4.5 0 1.1-.2 1.6-.3.9-.2 1.8-.4 2.7-.5.3-.1.9-.2 1.8-.4v5.5H5.1c-1.4 0-2.4 0-4.8-.1l.5.8zm18.7-5.9v19.4c0 .3.3.5.6.5.9 0 1.8-.5 1.8-1.1V49.6l.8-.6c.2-.1.4-.4.4-.6 0-.4-.4-.7-.8-.7l-2.8-.3zm3.3 23.8 3.2 1c.3 0 .6.2.8.4 0 0 0 .4.1.9 0 .2.1.5.4.5h.1c.6-.1 1.2-.4 1.7-.8.6-.5.7-.7.7-2V45l.9-.5c.3-.1.5-.4.5-.7 0-.4-.4-.6-.7-.6l-3.2-.3V70c0 .5 0 .7-.2.8-.5.1-1 .1-1.5.1h-2.8v.3zM5 85.7c0 2.2.1 3.8.1 4.5v11.3c0 5.5-1.7 10.8-4.6 14.2-.3.2-.5.6-.5.9 0 .2.1.3.3.3.4-.1.8-.4 1-.7 1.9-1.6 3.4-3.5 4.5-5.8 1-2.1 1.4-3.4 1.8-6.9H16V116c0 .2.1.5.4.5h.1c1.1 0 1.9-.5 1.9-1.2v-11.8h8.9v8.6c0 1-.3 1.3-1.5 1.3H25l-2.8-.1v.7l3.2 1.2c.4 0 .8.4.8.9.1.6.2.8.5.8.7-.1 1.4-.4 2-.8.9-.6 1-1.1 1-3V89.6l.6-.4c.2-.1.4-.3.5-.6-.1-.3-.3-.6-.6-.8l-2.5-1.9-.9 1.5H8l-3-1.7zm2.6 16.9V96H16v6.7H7.6zm0-7.5v-6.8H16v6.8H7.6zm10.8 7.5V96h8.9v6.7h-8.9zm0-7.5v-6.8h8.9v6.8h-8.9zm-5.6 56c-3.1 3.4-6.9 6-11.1 7.9-1.4.6-1.4.6-1.4.9 0 .2.1.3.3.3 1.5-.4 3-.9 4.4-1.5 3.4-1.5 5.9-3 10.2-6.4v7.6c0 .4.1.5.5.5.8.1 1.6-.4 1.8-1.2v-7.7c2.9 3.8 6.4 6.3 12.1 8.2.9-1.1 2.1-2 3.4-2.5-6.4-.9-11.1-2.9-14.6-6.2H32c.2-.1.3-.4.3-.6 0-.2-.1-.3-.2-.4l-3.1-2.2-2.2 2.4h-9.4v-1.9l.6-.3c.3 0 .6-.3.6-.7 0-.3-.3-.6-.6-.6h-.2l-2.6-.3v3.7H7.4c-1.8 0-3.3 0-7-.2l.5 1.2c3.1-.1 4.1-.2 6.6-.2h5.3v.2zm-11.2-12c2.9-.1 4.2-.2 5.6-.2h3.2L7 143.3c-.1.1-.1.2-.1.3.1.3.3.6.6.6.4.2.8.3 1.2.4.2 0 .4-.2.5-.3l.9-1.1c1.5.2 2.5.3 5.7.8-2.7 1.6-5.8 2.6-10.4 3.2-2.2.3-2.2.3-2.2.6 0 .2.2.4.4.4h.1c2.8-.2 5.5-.6 8.2-1.1 2.3-.4 4.5-1.2 6.4-2.5.7.3 1.2.4 1.4.5l.8.2c1.7.5 3.4 1.1 5 2 .3.2.6.3.9.3.5 0 1-.5 1-1 0-.8-.6-1.4-2.2-2-1.7-.6-3.5-1.1-5.3-1.4 1.1-1.1 2-2.4 2.7-3.7.1-.2.2-.4.4-.5h8c.1-.1.2-.2.2-.3 0-.1 0-.2-.1-.3l-3-2.3-1.7 2H13.6l1.3-1.9.9-.3c.5-.1.7-.3.7-.6 0-.2-.2-.4-.4-.5l-2.5-1.2-2.8 4.4H7.2c-1.5 0-2.8 0-6.2-.2l.6 1.3zm11.4-.2h7.1c-.8 1.4-1.8 2.8-2.9 3.9-1.8-.2-2.3-.2-3.3-.3-.5 0-1.7-.1-3.4-.2l2.5-3.4zm-8.5-8.5c.1 1.1-.3 2.1-.9 2.9-1.7 1.8-1.7 1.8-1.7 2.4 0 .7.5 1.3 1.2 1.3 1.4 0 2.4-1.5 2.5-3.9h21l-1.5 3.2.4.2 2.8-2H30c.6 0 .9-.2.9-.6 0-.2-.1-.4-.3-.6l-2.9-2.6-1.2 1.5h-9v-2.5l.9-.6c.3-.1.4-.4.5-.6 0-.3-.3-.6-.6-.7l-3.1-.4v4.7H5.6l-.1-.5-.1-.4-.3-1.2-.6.4zm-1.7 46v27.1c0 .3.2.5.4.5h.1c1 0 1.8-.4 1.8-.9v-8.6c6.1-2.8 9-5.5 10.6-10 2.9 2 5.3 4.7 6.9 7.8.6 1.4.9 1.8 1.4 1.8.9-.1 1.5-.9 1.5-1.8 0-1.5-1.5-3.7-3.7-5.3-1.8-1.3-3.8-2.4-5.9-3.2.4-1.6.7-3.2 1-4.8H27v20.3c0 .7-.2.9-.9.9H26l-4-.2v.5l3.2 1.2c.8.3.8.4.9.9.1.8.2.9.5.9.8-.2 1.6-.6 2.3-1.1.6-.3 1-1 .8-1.7v-20.5l.5-.2c.4-.1.6-.4.6-.8 0-.3-.2-.6-.4-.8l-2.6-2.1-1 1.6h-9.6c.2-2.1.3-2.4.4-4.5l.9-.6c.3-.2.6-.5.6-.9s-.2-.6-.9-.7l-3.6-.6c0 1.5.1 2.3.1 3.2 0 1.4 0 2.2-.2 4H6l-3.2-1.4zm11.7 2.5c-.9 7.1-3.5 11.2-9.3 14.6v-14.6h9.3z"/></svg>
