<svg version="1.1" id="ttl-food-01-sp.svg" xmlns="http://www.w3.org/2000/svg" x="0" y="0" viewBox="0 0 43 264" width="43" height="264" style="enable-background:new 0 0 43 264" xml:space="preserve"><style>.st0{fill-rule:evenodd;clip-rule:evenodd;fill:#fff}</style><path id="FOOD" class="st0" d="M28.3 205.1c.1 0 .2-.1.2-.2v-10c0-.1-.1-.1-.2-.1 0 0-.1 0-.1.1 0 .4 0 .8-.1 1.2-.1.2-.3.4-.5.5-.3.1-.7.1-1.1.1H15.4c-.4 0-.7 0-1.1-.1-.2-.1-.4-.3-.5-.6-.1-.4-.1-.8-.1-1.2 0-.1 0-.1-.1-.1s-.1 0-.1.1v6.9h.3c0-.6 0-1.1.1-1.7 0-.3.2-.6.5-.8.4-.1.7-.2 1.1-.2h5.2v1.9c0 1.9-.7 2.8-2.1 2.8 0 0-.1 0-.1.1s0 .2.1.2h1.3c.4-.1.7-.1 1.1-.1l2.1.1c0-.1.1-.1 0-.2v-.1c-1.2 0-1.8-.9-1.8-2.7v-2h5.2c.4-.1.8.1 1 .4.3.3.4.8.3 1.2v1c.1 1.7-1.1 3.1-2.8 3.3 0 0-.1.1 0 .1 0 .1 0 .1.1.2l3.2-.1zm-15.2 11.8c0 1.5.4 2.9 1.1 4.2.7 1.3 1.7 2.3 2.9 3.1 1.2.8 2.6 1.1 4 1.1 1.3 0 2.6-.3 3.7-.9 1.2-.6 2.1-1.5 2.8-2.6.7-1.2 1.1-2.6 1.1-4s-.3-2.7-.9-4c-.6-1.3-1.5-2.4-2.7-3.2-1.2-.9-2.7-1.4-4.3-1.3-1.4 0-2.7.3-3.9 1-1.2.6-2.2 1.5-2.8 2.6-.6 1.2-1 2.6-1 4zm.6.8c0-1.1.4-2.1 1.1-3 .8-.9 1.8-1.7 2.9-2.1 1.3-.5 2.7-.7 4.2-.7 1.7-.1 3.3.3 4.6 1.3 1.1.8 1.8 2.2 1.7 3.6 0 1.1-.3 2.2-1 3.1-.7 1-1.6 1.7-2.8 2.1-1.3.5-2.6.8-4 .8-1.2 0-2.5-.2-3.6-.7-.9-.3-1.7-1-2.3-1.8-.5-.8-.8-1.7-.8-2.6zm-.6 19.3c0 1.5.4 2.9 1.1 4.2.7 1.3 1.7 2.3 2.9 3.1 1.2.7 2.6 1.1 4 1.1 1.3 0 2.6-.3 3.7-.9 1.2-.6 2.2-1.5 2.8-2.7.7-1.2 1.1-2.6 1.1-4s-.3-2.7-.9-4c-.6-1.3-1.5-2.4-2.7-3.2-1.3-.8-2.8-1.2-4.3-1.2-1.4 0-2.7.3-3.9.9-1.2.7-2.1 1.6-2.8 2.7-.6 1.3-1 2.6-1 4zm.6.8c0-1.1.4-2.1 1.1-3 .8-.9 1.8-1.7 2.9-2.1 1.3-.5 2.7-.7 4.2-.7 1.6-.1 3.3.3 4.6 1.2 1.1.9 1.7 2.3 1.7 3.7 0 1.1-.3 2.2-1 3.1-.7.9-1.7 1.7-2.8 2.1-1.3.5-2.6.8-4 .8-1.2 0-2.5-.2-3.6-.7-.9-.3-1.7-1-2.3-1.8-.5-.7-.8-1.6-.8-2.6zm-.4 18.2c0 1.4.3 2.8 1 4 .6 1.2 1.6 2.2 2.8 2.9 1.2.8 2.7 1.2 4.1 1.1 1.3 0 2.6-.3 3.7-1s2.1-1.8 2.6-3c.7-1.3 1-2.8 1-4.3v-1.6c0-.7-.1-1.3-.1-2V249.2c0-.1-.1-.1-.2-.1 0 0-.1 0-.1.1 0 .4 0 .8-.1 1.2-.1.2-.3.4-.5.5-.3.1-.7.1-1.1.1h-11c-.4 0-.7 0-1.1-.1-.2-.1-.4-.3-.5-.5-.1-.4-.1-.8-.1-1.2 0-.1 0-.1-.1-.1s-.1 0-.1.1V254.3c-.2.7-.2 1.2-.2 1.7zm.5-.2c-.1-.7.1-1.4.4-2 .4-.4.9-.5 1.4-.5h10.9c.4 0 .7.1 1 .3.3.2.4.5.4.8.1.5.1 1 .1 1.5 0 1-.3 2.1-1 2.9-.7.9-1.6 1.6-2.7 2-1.2.4-2.5.7-3.8.7-1.3 0-2.6-.3-3.7-.8-1-.4-1.8-1.1-2.4-2-.3-.9-.6-1.9-.6-2.9z"/><path id="お食事" class="st0" d="m8.6 30.3.4-.5c3.4 3.2 3.7 3.5 3.6 5.1 0 1.3.4 1.9 1.1 1.9 1.7-.5 2.9-2 3.1-3.7v-1.2l-.2-9c5-3.4 8.2-4.6 12.2-4.6 5 0 8.4 2.7 8.4 6.7 0 3.5-2.5 5.8-6.2 5.8-2.1.1-4.1-.7-5.6-2.2-1.1-1.1-2.2-2.2-3.2-3.4-.6-.9-.8-1.1-1-1.1-.2 0-.4.2-.5.5 0 .8 2.1 4 3.7 5.6 2 2.1 4.7 3.3 7.6 3.4 4.4.1 8.1-3.4 8.2-7.8v-.2c0-5.3-4.3-8.9-10.6-8.9-4 0-7.3 1-13.2 4.3v-9.2l1.4-.4 2.4-.6 2.2-.6c.7-.1 1.4-.3 2-.6.4-.2.6-.6.6-1 0-1-1.2-1.8-3.1-2-.2.1-.4.3-.6.5-.5.4-.8.8-1 .9-.6.2-2.2.8-3.8 1.3l.1-2.6c-.1-.8.2-1.6.8-2.2.3-.3.4-.7.5-1.1.2-.9-3.5-3.4-4.9-3.4-.8.1-1.6.5-2.1 1.2.2.2.5.3.7.3.5.1.9.3 1.2.6 1.2.6 1.4 1 1.4 1.9v6c-2 .6-4 1-6 1.2-1.1 0-1.6-.4-3.9-2.4-.3.4-.5.8-.6 1.3.5 1 1.2 1.9 2.1 2.6.4.5 1.1.8 1.7.8 1.2-.1 2.4-.3 3.6-.6 1-.2 1.8-.3 3-.6v10.2c-2.7 1.8-5.4 3.8-7.8 5.9-.1.2-.4.3-.6.3-.5 0-.8-1-.8-2.9-1.4.6-1.5.9-1.5 3.5 0 .8.3 1.5.9 2 .5.6 1.2 1 1.9 1.1.8-.1 1.4-.6 1.9-1.2l.5-.9zm1-1.2c1.4-1.6 2.9-3.1 4.6-4.4V30c0 .6 0 1.2-.1 1.8l-4.5-2.7zM29 13.6c2.4-.9 5-1.5 7.6-1.8.6 0 1.2.2 1.8.5.3.2.6.3.9.3.7.1 1.3-.3 1.4-1 0-1.7-2-3.9-5-5.4-1.9-1-4-1.6-6.2-1.7-.3 0-.6.3-.6.6s.1.4.6.5c2.6.5 5.1 2.3 5.9 4.2-2.3.9-4.6 2-6.8 3.3l.4.5zM19.3 52C13.5 60.8 8.1 66.3 2.2 69.4.1 70.6 0 70.7 0 71c0 .2.2.4.5.4 1 0 5.4-2.2 9.4-4.9v22.9c-2.1.1-2.2.1-5.3.2H2.7l3 4.4c.2.3.5.5.8.5.4 0 .8-.3 1-.6l.5-1.1 15.1-3.9c.5-.2.6-.3.6-.5s-.2-.3-.5-.3c-.5 0-1 .1-1.5.2-1.4.2-6.7.7-8.9.8v-10h6c4 7.9 10.1 12.6 20.1 15.5.8-1.6 2.1-2.9 3.7-3.8-5.4-.4-10.7-2-15.5-4.6l8.9-4.9 1.5-.3c.5 0 .9-.3 1.1-.7 0-.2-.1-.5-.3-.6l-3.2-2.5c-2.9 3-5.9 5.7-9.1 8.3-2.3-1.8-4.2-3.9-5.7-6.4h7.5v1.3c-.1.4.2.7.5.8h.1c.7-.1 1.3-.3 1.9-.7.4-.2.6-.6.6-1V70l.7-.5c.3-.1.6-.4.6-.7 0-.4-.3-.8-.6-1.1l-3-1.9-1.1 1.7H22v-3.2l1.1-.7c.3-.2.6-.5.6-.9-.1-.5-.5-.8-.9-.8l-3.8-.3v5.9h-5.5L10.6 66c3.8-2.7 6.4-5.2 11.1-10.3 3.7 5.5 9.7 10.2 17.1 13.6.9-1.6 2.4-3 4.1-3.8-8.2-1.6-15-5.1-20-10.5l.5-.2c.2-.1.3-.4.4-.6-.1-.3-.2-.5-.5-.6l-4-1.6zM13 78v-4.1h15V78H13zm0-5.2v-4.3h15v4.3H13zM1.4 135.3c4.8-.2 6.6-.3 8.6-.3h10.2v4.1h-6.5c-2.2 0-3.8 0-8-.2l.6 1.5c3.8-.1 5.4-.2 7.5-.2h6.5v4.5c0 .6-.2.7-1 .7h-1.2l-4.2-.2-.1.9 3.8 1 1.2.3h.1c.1.3.1.6.1.9 0 .8.3 1.2.9 1.2 1.5 0 3.5-1.6 3.5-2.9v-6.4h9.7v2.2c0 .4.3.5.7.5 1.2 0 2.2-.6 2.2-1.3V135h6.9c.2 0 .3-.2.3-.4 0-.3-.2-.6-.4-.8l-3-2.9-2.2 3h-1.7v-3.1l.6-.2c.3-.1.6-.4.6-.7 0-.3-.3-.6-.6-.8L34 127l-1.2 1.8h-9.7v-3.9h8.8v1.2c0 .3.3.6.6.6 1 0 2.1-.6 2.1-1.2v-4.9l.6-.1c.3-.1.5-.3.6-.6 0-.3-.1-.6-.4-.8l-2.6-2.1-1.2 1.6H23V115h18.7c.3 0 .5-.3.5-.6s-.1-.5-.4-.7l-3.6-2.8-2.6 2.9H23.1v-3.1l1.2-.6c.4-.2.6-.7.4-1.2-.2-.3-.5-.5-.9-.5l-3.7-.3v5.7h-10c-2.2 0-4.2 0-9-.2l.6 1.6c5.1-.2 6.7-.2 8.5-.2h10v3.6h-8.3l-3.2-1.7v9.6c.1.4.4.6.8.5 1.1 0 1.9-.5 1.9-1.3v-.8h8.8v3.9H14c-2.5 0-4-.1-8.1-.3l.6 1.6c3.8-.2 5.5-.2 7.5-.2h6.2v4H10c-2.4 0-4.4 0-9.2-.2l.6 1.6zm10-11.5v-4.1h8.8v4.1h-8.8zm11.7 15.3V135h9.7v4.1h-9.7zm0-5.2v-4h9.7v4h-9.7zm0-10.1v-4.1h8.8v4.1h-8.8z"/></svg>
