<svg version="1.1" xmlns="http://www.w3.org/2000/svg" x="0" y="0" viewBox="0 0 34 279" style="enable-background:new 0 0 34 279" width="34" height="279" xml:space="preserve"><style>.st0{fill-rule:evenodd;clip-rule:evenodd}</style><path id="CONTACT" class="st0" d="M22.9 193.5c0-.9-.2-1.8-.6-2.7-.4-.8-.9-1.4-1.6-1.9s-1.5-.7-2.4-.7c-.8 0-1.7.2-2.4.7-.7.4-1.3 1.1-1.6 1.8-.4.8-.6 1.8-.6 2.7s.2 1.8.5 2.7c0 .1.1.1.1.1.1 0 .1.1.2 0l1.7.2v-.2c-.7-.3-1.2-.7-1.7-1.2-.4-.5-.6-1.1-.5-1.7 0-.7.2-1.3.5-1.9.4-.6.9-1 1.5-1.3.7-.3 1.5-.5 2.2-.5.8 0 1.5.1 2.2.4.6.3 1.1.7 1.5 1.3.3.5.5 1.2.5 1.8s-.2 1.3-.6 1.8c-.5.5-1.1.9-1.8 1.1 0 0-.1.1 0 .1 0 0 0 .1.1.1l1.8-.2c.1 0 .1 0 .2-.1l.1-.1c.6-.6.7-1.4.7-2.3zm-9.1 9.8c0 .9.2 1.7.6 2.4.4.7 1 1.4 1.7 1.8.7.4 1.5.7 2.3.7s1.5-.2 2.2-.5c.7-.4 1.2-.9 1.6-1.5.4-.7.6-1.5.6-2.3s-.2-1.6-.5-2.3c-.3-.8-.9-1.4-1.5-1.9-.7-.5-1.6-.8-2.5-.7-.8 0-1.6.2-2.3.6-.7.4-1.3.9-1.7 1.6-.3.5-.5 1.3-.5 2.1zm.3.5c0-.6.2-1.3.6-1.8.4-.5 1-1 1.7-1.2.8-.3 1.6-.5 2.4-.4 1-.1 1.9.2 2.7.7.6.5 1 1.3 1 2.1 0 .7-.2 1.3-.6 1.9-.4.5-1 1-1.6 1.2-.7.3-1.5.4-2.3.4-.7 0-1.4-.1-2.1-.4-.5-.2-1-.6-1.3-1.1-.3-.3-.5-.9-.5-1.4zm8.6 16.2V217.3h-.2c0 .3-.1.6-.4.8s-.7.3-1.1.3h-5l5.9-5 .4-.3c.1 0 .2-.1.2-.2 0 0 .1-.1.1-.2v-2.4h-.2c0 .2-.1.5-.2.7-.2.3-.4.5-.6.7h-6.1c-.4 0-.8-.1-1.1-.3s-.4-.6-.4-.9h-.2V213.2h.2c0-.3.1-.7.4-.9.3-.2.7-.3 1.1-.3h5.7l-7.6 6.6v.1s0 .1.1.1H21c.4 0 .8.1 1.1.3.3.2.4.5.4.9h.2zm-.3 4.2c0 .2 0 .4-.1.6 0 .1-.1.2-.2.3-.2.1-.4.1-.5.1h-6.5c-.2 0-.4 0-.6-.1-.1-.1-.2-.2-.3-.4-.1-.3-.1-.5-.1-.8h-.2v3.8h.2c0-.3 0-.5.1-.8 0-.1.1-.3.3-.3.2-.1.4-.1.6-.1h6.5c.2 0 .4 0 .6.1.1 0 .2.1.2.3.1.2.1.4.1.6 0 .5-.2 1-.5 1.4-.4.4-1 .6-1.6.7v.2h1.4c.6 0 1 .1 1.3.1 0 0 .1 0 .1-.1 0 0 0-.1-.1-.1s-.2-.2-.3-.3c-.1-.3-.1-.5-.1-.8V223c0-.5.1-.8.3-.8 0 0 .1 0 .1-.1 0 0 0-.1-.1-.1-.3 0-.7 0-1.3-.1s-1-.1-1.4-.1v.2c.6.1 1.1.4 1.6.8.3.4.5.9.5 1.4zm-8.3 17c0-.3.1-.5.4-.7.4-.3.9-.6 1.4-.8l6.9-3.4s.1-.1 0-.1v-.1l-6.8-3-1.2-.6c-.2-.1-.4-.3-.6-.5-.1-.2-.2-.4-.2-.7l-.1-.1s-.1 0-.1.1v3.2l.1.1s.1 0 .1-.1c0-.3.1-.7.3-1 .2-.2.5-.4.7-.4.3 0 .5.1.8.2l1.5.7v3.4l-2.2 1.1c-.2.1-.5.2-.7.2-.1 0-.2-.1-.3-.2-.1-.2-.1-.4-.1-.6 0 0 0-.1-.1-.1s-.1 0-.1.1v3.3c.2.1.2.1.3 0 0 .1 0 .1 0 0zm6.9-5.5-3.3 1.6v-3.1l3.3 1.5zm1.9 12.5c0-.9-.2-1.8-.6-2.7-.4-.8-.9-1.4-1.6-1.9s-1.5-.7-2.4-.7c-.8 0-1.7.2-2.4.7-.7.4-1.3 1.1-1.6 1.8-.4.8-.6 1.8-.6 2.7s.2 1.8.5 2.7c0 .1.1.1.1.1.1 0 .1.1.2 0l1.7.2v-.2c-.7-.3-1.2-.7-1.7-1.2-.4-.5-.6-1.1-.5-1.7 0-.7.2-1.3.5-1.9.4-.6.9-1 1.5-1.3.7-.3 1.5-.5 2.2-.5.8 0 1.5.1 2.2.4.6.3 1.1.7 1.5 1.3.3.5.5 1.2.5 1.8s-.2 1.3-.6 1.8c-.5.5-1.1.9-1.8 1.1 0 0-.1.1 0 .1 0 0 0 .1.1.1l1.8-.2c.1 0 .1 0 .2-.1l.1-.1c.6-.6.7-1.4.7-2.3zm-.5 7.7c0 .2 0 .4-.1.6 0 .1-.1.2-.2.3-.2.1-.4.1-.5.1h-6.5c-.2 0-.4 0-.6-.1-.1-.1-.2-.2-.3-.4-.1-.3-.1-.5-.1-.8h-.2v3.8h.2c0-.3 0-.5.1-.8 0-.1.1-.3.3-.3.2-.1.4-.1.6-.1h6.5c.2 0 .4 0 .6.1.1 0 .2.1.2.3.1.2.1.4.1.6 0 .5-.2 1-.5 1.4-.4.4-1 .6-1.6.7v.2h1.4c.6 0 1 .1 1.3.1 0 0 .1 0 .1-.1 0 0 0-.1-.1-.1s-.2-.2-.3-.3c-.1-.3-.1-.5-.1-.8v-5.6c0-.5.1-.8.3-.8 0 0 .1 0 .1-.1 0 0 0-.1-.1-.1-.3 0-.7 0-1.3-.1-.6 0-1-.1-1.4-.1v.2c.6.1 1.1.4 1.6.8.3.3.5.8.5 1.4z"/><path id="ニュース_ひづめゆについて_温浴_サウナ_サイダリー_マップ_お問い合わせ" class="st0" d="m9.7 24.6.2-.3c1.9 1.8 2.1 2 2 2.9 0 .7.2 1.1.6 1.1.5-.1.9-.4 1.2-.8.3-.3.5-.8.5-1.3v-.7l-.1-5.1c2.8-1.9 4.6-2.5 6.9-2.5 2.8 0 4.7 1.5 4.7 3.8.1 1.8-1.3 3.2-3.1 3.3h-.4c-1.2 0-2.3-.4-3.1-1.2-.7-.6-1.3-1.2-1.8-2-.1-.3-.3-.5-.6-.6-.1 0-.2.1-.3.3.5 1.2 1.2 2.3 2.1 3.2 1.1 1.2 2.7 1.9 4.3 1.9 2.5.1 4.5-1.9 4.6-4.4v-.1c0-3-2.4-5-6-5-2.2 0-4.1.6-7.4 2.4v-5.2c.3-.1.5-.1.8-.2.4-.1.9-.2 1.3-.4l1.2-.3c.4-.1.8-.2 1.1-.3.2-.1.4-.3.4-.5 0-.5-.7-1-1.8-1.1l-.3.3-.5.5c-.7.3-1.4.5-2.2.8l.1-1.5c0-.5.1-.9.5-1.3l.3-.6c0-.5-2.1-1.9-2.9-1.9-.5.1-.9.3-1.2.7.1.1.3.1.4.2.3.1.5.2.7.3.5.1.8.6.8 1.1v3.4c-1.1.3-2.2.5-3.4.7-.6 0-.9-.2-2.2-1.3 0-.3-.1 0-.1.2.2.6.7 1.1 1.2 1.5.3.3.6.4 1 .4.7 0 1.4-.2 2-.3s1-.2 1.7-.3v5.7c-1.5 1-3 2.1-4.4 3.3-.1.1-.2.2-.3.2-.3 0-.4-.6-.5-1.6-.8.3-.9.5-.9 2 0 .4.2.8.5 1.1.3.3.7.5 1.1.6.4-.1.8-.3 1-.7l.3-.4zm.6-.7c.8-.9 1.6-1.7 2.6-2.5v3c0 .3 0 .7-.1 1l-2.5-1.5zm10.9-8.8c1.4-.5 2.8-.8 4.3-1 .4 0 .7.1 1 .3.1.1.3.2.5.2.4 0 .7-.2.8-.6 0-.9-1.1-2.2-2.8-3.1-1.1-.5-2.3-.8-3.5-.9-.2 0-.3.1-.3.3 0 .1.1.2.3.2 1.4.3 2.6 1.1 3.3 2.4-1.3.5-2.6 1.2-3.8 1.8l.2.4zm-14.5 20v22.6c0 .2.1.3.2.3.4 0 .7-.2 1-.3s.5-.3.4-.6V43.4H14v1.2c0 .1 0 .3.2.3h.1c.4 0 .7-.1 1.1-.3.2-.1.4-.3.3-.6v-6.6l.4-.2.3-.3c0-.2-.1-.4-.3-.5l-1.6-1.5-.8 1.1H8.8l-2.1-.9zm1.7 7.7v-2.7H14v2.7H8.4zm0-3.3v-2.6H14v2.6H8.4zm4 6.7V55c0 .2.1.3.2.4h.1c.4 0 .7-.1 1.1-.3.2-.1.3-.2.3-.4v-2.2h6v1.6c0 .2.1.3.2.3h.1c.3 0 .7-.1 1-.2.2-.1.4-.3.4-.5v-5.3l.4-.1c.2-.1.3-.2.3-.4s-.1-.3-.3-.4l-1.5-1.4-.9 1h-5.6l-1.8-.9zm1.7 5.6v-4h6v4h-6zm4.4-16.6v9.5c0 .2.1.4.3.4h.1c.2 0 .5-.1.7-.1.5-.1.6-.2.6-.6v-.9h5.5v11.7c0 .5-.1.6-1.6.6-.2 0-.7 0-1.4-.1H22v.4l2.6.8c.3 0 .5.3.5.6.1.4.2.6.4.6.5-.1.9-.3 1.3-.7.4-.3.6-.8.6-1.3V37.9l.5-.2c.2-.1.3-.2.3-.4s-.1-.3-.2-.4l-1.6-1.6-.9 1.1h-4.8l-2.2-1.2zm1.6 7.6v-2.7h5.5v2.7h-5.5zm0-3.3v-2.6h5.5v2.6h-5.5zM6.6 67.8s.1.1.3.2c.2.1.3.2.5.4.9.6 1 .8 1 1.4 0 .4 0 .8-.1 1.2-.1 1.2-.2 2.4-.2 3.6 0 3.1.5 5.5 1.3 7 .7 1.2 2.2 2.3 2.9 2.3.4 0 .7-.3.7-.7 0-.2 0-.4-.1-.5-.1-.2-.1-.5-.2-.7.3-1.1.7-2.2 1.2-3.2.5-1.1.7-1.3 2.4-4.4.2-.3.4-.6.4-.9 0-.1-.1-.2-.2-.2-.3.1-.5.3-.7.6-1.3 1.7-2.5 3.4-3.6 5.2-.9 1.5-1.2 1.9-1.4 1.9-.3-.1-.5-.4-.6-.7-.7-1.4-1-3.1-.9-4.7 0-2.8.2-4.2.8-5.2.2-.2.3-.5.3-.8-.1-.5-.4-.9-.8-1.1-.7-.6-1.5-1-2.3-1.2-.2-.1-.5.1-.7.5zm13.8 1.4c2.9 1.9 4.7 5 5.3 9.1.1.8.4 1.1.9 1.1.7 0 1.1-.7 1.1-1.7-.2-1.9-.9-3.7-2.2-5.2-1.3-1.7-3-3-5-3.6l-.1.3zm-4.6 22.2c-2 5.1-5.3 9.5-9.6 12.8-.9.6-1 .6-1 .8 0 .1.1.2.2.2.6 0 3.2-1.7 5.3-3.4 2.7-2.2 3.3-3 6.7-8.1 2 4.5 5.3 8.2 9.5 10.7.6-.9 1.5-1.5 2.5-1.8-5.2-1.9-9.2-5.1-11.4-9.3l.2-.2c.1-.1.2-.2.2-.3 0-.1-.1-.3-.3-.3l-2.3-1.1zm-6.2 13.9v10c0 .2.1.4.3.4h.1c.3 0 .5-.1.8-.1.4 0 .7-.3.7-.7v-1.1h10.9v1.3c0 .2.1.3.3.3h.1c.7.1 1.3-.3 1.5-.9v-6.3l.5-.3c.2-.1.3-.3.4-.5 0-.2-.2-.4-.3-.5l-1.7-1.4-.9 1.1H11.8l-2.2-1.3zm1.9 7.8v-5.9h10.9v5.9H11.5zm-.4-10.2h1.6c.9 0 1.5-.1 1.6-.1h8.2c.2 0 .3-.2.3-.4s-.1-.3-.3-.4l-1.8-1.5-1.5 1.7h-6.5l-1.9-.1.3.8zM8.6 138l2.2 2.5c.3.3.4.6.3 1 0 1.2.1 1.4.5 1.4.4-.1.8-.4 1-.8.4-.4.6-.9.6-1.4v-.7l-.2-7.4c2-2.2 4.8-3.6 7.7-3.7 2.9 0 4.9 1.7 4.9 4.1 0 1.9-1.1 3.7-3.2 5.3-1.4.9-2.8 1.6-4.4 2.1-.8.3-.9.3-.9.5 0 .1.1.3.2.3.5-.1 1.1-.2 1.6-.4 2-.5 3.9-1.3 5.6-2.4 1.8-1.2 3-3.1 3.1-5.3 0-3-2.7-5.3-6.1-5.3-3 0-5.5 1-8.6 3.4l.1-1.9 1.1-1.2c.1-.1.1-.2.2-.3-.2-.4-.5-.6-.8-.8h-.1l-.3.1.2-2.6c-.1-.4.1-.8.4-1 .1-.1.2-.3.2-.4 0-.5-2.4-1.9-3.1-1.9-.4.1-.8.4-1 .8 1.6.6 1.8.8 1.9 1.4l-.1 4.2-2.2.6c-.3.1-.5.2-.8.2-.7-.2-1.2-.6-1.6-1.2-.3.2-.4.5-.5.9.5.9 1.2 1.6 2.1 2 .2 0 .3-.1.4-.2.3-.2.6-.4.9-.5l1.7-.6v2.9l-3.3 4.1c-.5.6-1 1.2-1.6 1.7-.2.1-.3.2-.4.4-.1.3-.2.7-.2 1 0 .6.2.9.5.9.3-.1.6-.2.7-.5l1.3-1.3zm.4-.5 2.8-3.5-.2 5.4-2.6-1.9zm2.9 20.9-3.1.8c-.2.1-.4.1-.7.1-.5 0-1-.4-1.8-1.4-.3.2-.6.6-.6 1 0 .2 0 .2.8 1.1.4.5.9.8 1.5 1 .2 0 .5-.1.7-.3 1-.5 2.1-.8 3.2-1.1v4.9c0 2.5.4 3.5 1.5 4.2s3.2 1.1 6.5 1.1c1.6 0 3.3-.1 4.9-.4.3-.1.5-.4.5-.8 0-.1 0-.3-.1-.4-.3-.3-.6-.6-1.1-.7-.2 0-.3.1-.5.1-1.7.4-3.5.6-5.2.5-4.5 0-5.2-.5-5.2-3.9V159c2.3-.6 4.6-1 7-1.2V159.5c0 1 0 2-.3 3-.1.1-.2.2-.3.2-.3 0-.7-.2-1-.3l-3.9-1.8-.2.3 4.3 2.9c.2.2.4.5.3.8.1.6.2.8.4.8.7-.1 1.2-.6 1.4-1.2.5-1.1.6-1.5.6-5.6v-.9c1.1-.1 1.7-.1 2.8-.1s1.7 0 2.3.1c1.3.1 1.3.1 1.4.1.4 0 .7-.3.8-.6v-.1c0-.4-.3-.7-.7-.8-.4-.3-.9-.5-1.5-.6-.2 0-.3.1-.5.2-.3.2-.6.3-.9.3-.2 0-.8.1-1.8.2l-1.3.2c-.1 0-.3 0-.5.1l-.1-4c.2-.3.4-.6.5-1 0-.4-2.2-1.7-2.9-1.7-.2 0-.4.1-.5.3-.1.1-.2.2-.3.2-.1.1-.2.1-.2.2-.1.1-.1.2-.1.3h.1c.2 0 .5 0 .7.1.5.1.9.4 1.1.9.1.6.2 1.2.2 1.8l.1 3c-1.6.2-5 .8-7 1.2l.1-2.1c0-.4.1-.9.4-1.2.2-.2.3-.4.4-.7-.2-.5-.7-.9-1.2-1.1-.6-.3-1.2-.6-1.8-.7-.5.2-.9.5-1.3.9l1.5.6c.4.2.4.3.5 1.2l.1 3.5z"/></svg>
