<svg version="1.1" xmlns="http://www.w3.org/2000/svg" x="0" y="0" viewBox="0 0 34 315" width="34" height="315" style="enable-background:new 0 0 34 315" xml:space="preserve"><style>.st0{fill-rule:evenodd;clip-rule:evenodd;fill:#fff}</style><path class="st0" d="M13 200s0 .1 0 0c.1.1.2 0 .2 0 0-.3.1-.7.3-1 .2-.2.5-.4.7-.4.3 0 .5.1.8.2l1.5.7v3.4l-2.2 1.1c-.2.1-.5.2-.7.2-.1 0-.2-.1-.3-.2-.1-.2-.1-.4-.1-.6 0 0 0-.1-.1-.1s-.1 0-.1.1v3.3l.1.1s.1 0 .1-.1c0-.3.1-.5.4-.7.4-.3.9-.6 1.4-.8l6.9-3.4s.1-.1 0-.1v-.1l-6.8-3-1.2-.6c-.2-.1-.4-.3-.6-.5-.1-.2-.2-.4-.2-.7l-.1-.1s-.1 0-.1.1v2.5c.1.3.1.5.1.7zm3.7-.3 3.3 1.5-3.3 1.6v-3.1zM12.9 256v.9c0 .5.1 1.1.3 1.6.2.4.5.8.9 1.1s.9.4 1.3.4c.6 0 1.2-.2 1.6-.7.5-.5.7-1.2.8-1.8.2.5.5.9.8 1.2.3.3.8.4 1.2.4.5 0 1-.2 1.3-.7.4-.6.5-1.2.5-1.9v-3.4h-.2c0 .2 0 .4-.1.7 0 .1-.1.3-.3.3-.2.1-.4.1-.6.1h-6.5c-.2 0-.4 0-.6-.1l-.3-.3c-.1-.2-.1-.4-.1-.7h-.2v2.3c.3.3.3.5.2.6zm5-.4h2.7c.3 0 .5 0 .7.2.1.2.2.4.2.6 0 .4-.1.8-.4 1.1-.4.3-.8.4-1.2.4-.5 0-1-.1-1.4-.4s-.6-.8-.5-1.2l-.1-.7zm-4.7 1.1c0-.2 0-.5.1-.7 0-.1.1-.3.3-.3.2-.1.3-.1.5-.1h3.4v.8c0 .6-.2 1.2-.6 1.6-.5.4-1.1.6-1.7.6-.9.1-1.8-.5-1.9-1.4-.1-.2-.1-.3-.1-.5zm7.9-28.9c.3.2.4.5.4.9h.2V226h-.2c0 .3-.1.6-.4.8-.3.2-.7.3-1.1.3h-5l5.9-5 .4-.3c.1 0 .2-.1.2-.2 0 0 .1-.1.1-.2V219h-.2c0 .2-.1.5-.2.7-.2.3-.4.5-.6.7h-6.1c-.4 0-.8-.1-1.1-.3-.3-.2-.4-.6-.4-.9h-.2v2.7h.2c0-.3.1-.7.4-.9.3-.2.7-.3 1.1-.3h5.7l-7.6 6.6v.1s0 .1.1.1H20c.4-.1.8.1 1.1.3zm-10.3 18s-.1 0 0 0c-.1.2-.1.2-.1.3v.2s0 .1.1.1h12.4c.1 0 .1-.1.1-.3s0-.3-.1-.3H10.8zm10.1-55.6c-.4-.3-.8-.4-1.2-.4-.4 0-.7.1-1 .3s-.5.4-.7.6c-.2.3-.4.6-.7 1-.3.4-.5.8-.8 1.1-.2.3-.5.5-.8.7s-.7.3-1.1.3c-.4 0-.8-.1-1.1-.4-.2-.3-.3-.6-.3-1 0-.6.3-1.2.7-1.5.6-.4 1.2-.8 1.9-1.1 0 0 .1 0 0-.1 0 0 0-.1-.1-.1l-2.1.1c-.1 0-.2.1-.3.1-.2.3-.3.6-.4.9-.1.4-.2.8-.2 1.2 0 .5.1 1.1.3 1.5s.5.8.9 1 .8.4 1.3.4c.4 0 .8-.1 1.1-.3.3-.2.6-.4.8-.7.2-.3.5-.7.8-1.1.3-.4.5-.8.7-1 .2-.3.4-.5.7-.6.3-.2.6-.3.9-.3.4 0 .7.1 1 .4.3.3.4.6.4 1 0 .6-.2 1.1-.7 1.4-.5.3-1 .6-1.5.7v.1s0 .1.1.1h1.9c.1 0 .2-.1.3-.2.1-.3.2-.5.2-.8.1-.3.1-.6.1-1 0-.5-.1-.9-.2-1.4-.3-.3-.6-.7-.9-.9zM15 231.7l-1.2-.6c-.2-.1-.4-.3-.6-.5-.1-.2-.2-.4-.2-.7l-.1-.1s-.1 0-.1.1v3.2l.1.1s.1 0 .1-.1c0-.3.1-.7.3-1 .2-.2.5-.4.7-.3.3 0 .5.1.8.2l1.5.7v3.4l-2.2 1.1c-.2.1-.5.2-.7.2-.1 0-.2-.1-.3-.2-.1-.2-.1-.4-.1-.6 0 0 0-.1-.1-.1s-.1 0-.1.1v3.3l.1.1s.1 0 .1-.1c0-.3.1-.5.4-.7.4-.3.9-.6 1.4-.8l6.9-3.4s.1-.1 0-.1v-.1l-6.7-3.1zm1.7 4.2v-3.1l3.3 1.5-3.3 1.6zm-5.9 9.9v-.1.1zm2.4-31.3c.3.5.7.9 1.2 1.2.5.3 1.1.4 1.8.4H20c.4 0 .8.1 1.1.3.3.2.4.5.4.8h.2v-2.8h-.2c0 .4-.1.7-.4.9-.3.2-.7.4-1.1.3h-3.9c-.8 0-1.5-.2-2.1-.7-1-1.1-1-2.8.1-3.8.7-.5 1.6-.8 2.5-.7h4c.2 0 .4 0 .6.1l.3.3c.1.2.1.5.1.7h.2v-3.4h-.2c0 .2 0 .5-.1.7 0 .1-.1.2-.3.3-.2.1-.4.1-.6.1h-4.5c-.6 0-1.2.1-1.8.4-.5.3-.9.7-1.1 1.2-.3.6-.4 1.2-.4 1.8-.1.8.1 1.4.4 1.9zm8.8 59.2c.1 0 .1 0 0 0 .1-.1 0-.2 0-.2-.3 0-.7 0-1.3-.1-.6 0-1-.1-1.4-.1v.2c.6.1 1.1.4 1.6.8.4.4.5.9.5 1.4 0 .2 0 .4-.1.6 0 .1-.1.2-.2.3-.2.1-.4.1-.5.1h-6.5c-.2 0-.4 0-.6-.1-.1-.1-.2-.2-.3-.4-.1-.3-.1-.5-.1-.8h-.2v3.8h.2c0-.3 0-.5.1-.8 0-.1.1-.3.3-.3.2-.1.4-.1.6-.1h6.5c.2 0 .4 0 .6.1.1 0 .2.1.2.3.1.2.1.4.1.6 0 .5-.2 1-.5 1.4-.4.4-1 .6-1.6.7v.2h1.4c.6 0 1 .1 1.3.1 0 0 .1 0 .1-.1 0 0 0-.1-.1-.1s-.2-.2-.3-.3c-.1-.3-.1-.5-.1-.8v-5.6c0-.5.1-.8.3-.8zm-7-10.1-1.2-.6c-.2-.1-.4-.3-.6-.5-.1-.2-.2-.4-.2-.7l-.1-.1s-.1 0-.1.1v3.2l.1.1s.1 0 .1-.1c0-.3.1-.7.3-1 .2-.2.5-.4.7-.4.3 0 .5.1.8.2l1.5.7v3.4l-2.2 1.1c-.2.1-.5.2-.7.2-.1 0-.2-.1-.3-.2-.1-.2-.1-.4-.1-.6 0 0 0-.1-.1-.1s-.1 0-.1.1v3.3l.1.1s.1 0 .1-.1c0-.3.1-.5.4-.7.4-.3.9-.6 1.4-.8l6.9-3.4s.1-.1 0-.1v-.1l-6.7-3zm1.7 4.2v-3.1l3.3 1.5-3.3 1.6zm5 15.5h-.2c0 .2 0 .5-.1.7 0 .1-.1.3-.3.3-.2.1-.4.1-.6.1H14c-.2 0-.4 0-.6-.1l-.3-.3c-.1-.2-.1-.5-.1-.7h-.2v3.6h.2c0-.3 0-.5.1-.8 0-.1.1-.3.3-.3.2-.1.4-.1.6-.1h3.2v4.8H14c-.2 0-.4 0-.6-.1l-.3-.3c-.1-.3-.1-.5-.1-.8h-.2v3.7h.2c0-.2 0-.5.1-.7 0-.1.1-.3.3-.3.2-.1.4-.1.6-.1h6.5c.2 0 .4 0 .6.1l.3.3c.1.2.1.5.1.7h.2v-3.7h-.2c0 .3 0 .5-.1.8 0 .1-.1.3-.3.3-.2.1-.4.1-.6.1h-2.9v-4.8h2.9c.2 0 .4 0 .6.1l.3.3c.1.2.1.5.1.8h.2v-3.6zM7.6 136.8v.2c0 .3 0 .6-.1.9-.2 1.8-.2 1.8-.2 1.9-.1.6.3 1.2.9 1.3h.2c.8 0 1.4-.7 1.3-1.5 0-.4-.1-.8-.2-1.1-.2-.9-.3-1.9-.3-2.9 0-.7.1-1.4.4-2l3.7-10.8-.5-.2-5.3 11.7c-.6-.1-1.2-.2-1.8-.2v.6c1.1.1 2 1 1.9 2.1zm-.3-9.9c.1.5.2 1 .4 1.4.1.2.4.4.7.4.6-.1 1.1-.7 1.1-1.3 0-1.3-1.4-2.5-3.4-2.9l-.1.2c.6.6 1.1 1.3 1.3 2.2zm2-5.7c.4 1.5.5 1.6 1.1 1.6.5 0 1-.4 1-.9v-.1c0-1.6-1.5-2.8-3.7-3.1l-.1.3c.9.5 1.5 1.3 1.7 2.2zm20.3 19.2c0-.2-.1-.3-.2-.5l-1.5-1.6-1.3 1.8h-.3v-6.4l.6-.2c.2-.1.3-.2.3-.3 0-.2-.1-.3-.2-.4l-1.6-1.5-.7 1.1h-9.9l-1.8-.9v8.7c-1.1 0-1.3-.1-2.7-.1l.3.8c.6 0 1.2 0 3.1-.1h15.7c0-.1.2-.2.2-.4zm-12.8-.3h-2.4v-7.2h2.4v7.2zm3.9 0h-2.4v-7.2h2.4v7.2zm3.9 0h-2.4v-7.2h2.4v7.2zm-10.1-9.3c.3 0 .5-.1.8-.2.3 0 .5-.2.5-.5v-1.4H24v1.1c0 .2.2.3.4.3.3 0 .5-.1.8-.2.2-.1.4-.3.4-.5v-7.8l.4-.1c.2 0 .4-.2.4-.4 0-.1-.1-.3-.2-.4l-1.5-1.5-.9 1.1h-7.5l-2-1.1v11.3c-.1.1 0 .3.2.3zm1.2-9.9h8.2v3.2h-8.2v-3.2zm0 3.8h8.2v3.3h-8.2v-3.3zm-8.2 41c0 .3 0 .5-.1.8-.1 1-.2 1.6-.2 1.9 0 .6.4 1.1 1 1.1.7 0 1.3-.5 1.3-1.2v-.1c0-.1 0-.3-.1-.4-.7-3.4-.7-3.4-.7-3.9 0-.7.1-1.4.4-2.1l3.8-10.3-.4-.2-5.3 11.3H5.4v.4c.6.1 1.2.4 1.7.8.3.6.4 1.2.4 1.9zm-.7-10.4c.6 2 .6 2 1.2 2 .5 0 1-.5.9-1v-.1c0-1.3-1.5-2.7-3.4-3l-.2.3c.7.4 1.2 1 1.5 1.8zm-.2-7.6c.7.4 1.3 1 1.7 1.8.2.6.4 1.2.7 1.7.2.2.4.3.7.3.5 0 1-.5 1-1v-.1c0-1.5-1.4-2.7-3.9-3.1l-.2.4z"/><path class="st0" d="m20.8 153.5.4-.2c.2-.1.3-.2.3-.4s-.2-.4-.4-.4l-2.2-.6c-1.3 4.5-4.2 8.4-8 11.2-.6.4-.6.4-.6.6 0 .1.1.2.2.2.2 0 .3-.1.5-.2.3-.2.5-.3.5-.3 3.8-2.2 6.9-5.5 8.8-9.5 1.5 3.4 4 6.3 7.2 8.3.5-.7 1.2-1.3 2-1.6-3.6-1.4-6.7-3.9-8.7-7.1zm-8.9 3.5c.9-.6 1.7-1.4 2.3-2.3 1.2-1.6 2.3-3.2 3.1-5l.6-.2c.3 0 .5-.2.6-.5 0-.3-.3-.5-.5-.5l-2.1-1c-.7 3.2-2.1 6.2-4.1 8.9-.1.1-.2.2-.2.4.2.1.2.2.3.2z"/><path class="st0" d="M23.8 170c.6.1 1.1-.2 1.3-.7V163l.5-.2c.1 0 .2-.1.3-.3-.1-.2-.2-.4-.4-.6l-1.4-1.3-.8 1.1h-6.2l-2-.9v8.9c0 .2.1.3.2.3h.1c.3 0 .5-.1.8-.2.3 0 .5-.3.5-.5v-.9h6.8v1.1c-.1.4 0 .5.3.5zm-7.1-2.2v-5.5h6.8v5.5h-6.8zm9-14.7c.4.8.6 1 1 1 .5 0 .9-.4.9-.9-.2-1.4-1-2.7-2.2-3.4-1.3-.8-2.7-1.5-4.2-1.8l-.1.3c2 1.1 3.5 2.8 4.6 4.8zM25.5 13l-1 .6c-.2 0-.5.1-.7.1h-2.5l-.1-3.6v-.3c0-.3.1-.5.3-.7.2-.1.3-.4.4-.6 0-.4-.3-.6-1.4-1-.7-.3-.7-.3-1-.4-.1-.1-.2-.1-.3-.1-.5.1-.9.4-1.2.8l.6.3c1.2.5 1.2.6 1.2 1 0 .1 0 .4.1 1l.1 3.7c-2.9.2-3.9.3-5.3.5l.1-2.9v-.5c0-.1.1-.2.2-.3.2-.1.4-.4.4-.6 0-.3-.5-.7-1.5-1-.5-.2-1-.4-1.5-.4-.2 0-.3.1-1 .8 1.4.4 1.7.6 1.7.8.1.4.1.8.1 1.2l.1 3c-.9.1-1 .1-1.2.2-.8.1-1.6.2-2.4.2-.7 0-.9-.1-1.9-1.2l-.2-.2c-.2.3-.4.6-.5 1 .2.5.6 1 1 1.4.3.5.7.8 1.2 1 .1 0 .2 0 .2-.1 1.2-.6 2.5-1 3.8-1.1V19c0 .3-.1.7-.2 1-.1.2-.1.3-.1.5.1.6.6 1.1 1.3 1.2.3 0 .6-.4.6-.7v-.1l-.1-5.6c2.7-.3 3.7-.4 5.2-.5.1 6.1-1.6 9.2-6.5 12.2-.3.1-.5.3-.6.6 0 .1.1.2.2.2.7-.2 1.3-.5 1.9-.9 3.2-1.7 5-3.8 6-6.7.4-1.3.5-1.9.6-5.5 1.6 0 3.2.1 4.8.4.5.1.9.2 1.4.2.2 0 .4-.2.4-.4-.4-.5-.8-.9-2.7-1.9zM14.4 41.1l-1.6.2-.7.1c-.1 0-.2 0-.4-.1l-.3-.3c-1.4-1-1.5-1-1.7-1-.4 0-.9.3-1.1.6v.1c.3.1.6.2.8.4.5.2.8.7.7 1.2l.2 4.7v.2c0 .1 0 .3-.1.4 0 .1-.1.3-.1.4.1.6.5 1.1 1.1 1.2.4 0 .7-.3.7-.7v-.3l-.5-6.1c.2.2.4.4.7.5h.2c3-.7 6.1-1 9.2-1h1.2c-2 7.4-4.9 11.5-10 14.4-.2 0-.3.2-.4.4 0 .1.1.2.2.2.6-.1 1.1-.4 1.6-.7 3.2-1.7 5.8-4.2 7.6-7.3 1.2-2 2.1-4 2.7-6.2 1-.3 1.1-.3 1.1-.7 0-.3-.2-.6-.4-.7l-1.6-1.5-1 .9c-1.6 0-3.2.1-4.8.3V38c-.1-.3 0-.6.3-.7.2-.1.3-.3.3-.4 0-.3-.2-.6-.5-.7-.7-.3-1.5-.6-2.3-.8-.6.1-1 .4-1.4.8 1.4.3 1.8.6 1.8 1.1v3.6h-.5c-.2.1-.6.2-1 .2zm10.8 28.8-.9.5h-.5l-2.4.2-2.3.2-.7.1v-3c-.1-.4 0-.9.3-1.2.1-.1.1-.2.1-.4-.1-.2-.3-.4-.5-.5-.8-.4-1.6-.8-2.5-1-.4.1-.7.3-1 .6-.1.1-.2.2-.2.4 1 .1 2 .8 1.9 1.2 0 .1 0 .5.1 1.4v2.7l-5.4.6c-.6.1-1.5.1-2.1.1-.8.1-1.6-.3-2.1-1-.1-.1-.2-.2-.4-.3-.1 0-.2.2-.5 1.1.5 1 1.4 1.8 2.4 2.2.2 0 .3-.1.4-.2.7-.4 1.5-.7 2.3-.8 1.7-.3 3.4-.6 5.2-.7-.2 6.3-1.4 8.8-5.7 12.1-.3.1-.5.3-.6.5 0 .1.1.2.2.2.6-.2 1.2-.5 1.7-.8 2.1-1.2 3.8-3 4.9-5.2.8-1.8 1-3.1 1.2-7 1-.1 1.6-.1 2.8-.1 1.7-.1 3.3 0 5 .3.3.1.5.1.8.1s.6-.2.6-.5v-.1c.2-.6-.7-1.3-2.1-1.7z"/><path d="M7 101h20v1H7v-1z" style="fill:#fff"/></svg>
