<svg version="1.1" xmlns="http://www.w3.org/2000/svg" x="0" y="0" viewBox="0 0 34 183" width="34" height="183" style="enable-background:new 0 0 34 183" xml:space="preserve"><style>.st0{fill-rule:evenodd;clip-rule:evenodd;fill:#fff}</style><path id="NEWS" class="st0" d="M20.2 140.6v-2.7H20c0 .3-.1.6-.3.8-.3.2-.6.3-1 .3h-4.2l5.1-5 .4-.3c.1 0 .1-.1.2-.2 0 0 .1-.1 0-.2v-2.4H20c0 .2-.1.5-.1.7-.1.3-.3.5-.5.7h-5.2c-.3 0-.7-.1-1-.3-.2-.2-.4-.6-.3-.9h-.2v2.7h.2c0-.3.1-.7.3-.9.3-.2.6-.3 1-.3h4.9l-6.5 6.6v.2h6.2c.3 0 .7.1 1 .3.2.2.4.5.3.9-.1.1-.1.1.1 0-.1.1 0 .1 0 0zm-5.6 8.1c-1-.2-1.6-1.2-1.6-2.4v-.7c0-.2 0-.4.2-.6.2-.1.4-.2.5-.2h2.7v1.3c0 1-.3 1.6-1 1.6v.2h2.2v-.2c-.6 0-.9-.5-.9-1.5v-1.3h2.4c.2 0 .4.1.5.2.1.2.2.5.2.7v.6c.1 1-.5 1.8-1.4 1.9v.2H20c.1 0 .1 0 .1-.1v-5.8h-.2c0 .2 0 .5-.1.7 0 .1-.1.2-.2.3-.2.1-.3.1-.5.1h-5.5c-.2 0-.4 0-.5-.1-.1 0-.2-.2-.2-.3 0-.2-.1-.5-.1-.7h-.2v6.3h.1c.6 0 1.1.1 1.7.1.2-.2.2-.2.2-.3 0 .1 0 0 0 0zm5.6 14.8v-2.7H20c0 .2-.1.5-.2.7s-.3.2-.5.2-.4-.1-.6-.1l-4.5-2 3.1-1.7 1.5.7c.4.1.7.4 1 .7.2.2.3.5.3.8h.2v-2h-.2c0 .2-.1.4-.3.4h-.1c-.3 0-.6-.1-.8-.3l-1.1-.5 1.4-.8c.2-.2.5-.3.8-.3.1 0 .1 0 .1.1v.3h.2v-2.5h-.2c0 .2-.1.4-.2.5-.2.2-.4.3-.6.5l-2.8 1.5-2.2-1 4.9-2.7c.2-.1.4-.2.7-.3.1 0 .2.1.2.2.1.2.1.4.1.5h.2v-3h-.2c0 .2 0 .4-.2.6-.2.2-.4.4-.7.5l-6.5 3.5c-.1.1-.1.2 0 .3l3.3 1.5-3.3 1.8c-.1.1-.1.2 0 .3l6.1 2.7c.4.1.7.4.9.7.2.2.3.6.3.9-.1.1 0 .1.1 0-.1.1 0 .1 0 0zm-1.3 3.3c.3 0 .6.1.8.4.2.3.3.6.3 1 0 .6-.2 1.1-.6 1.4-.4.3-.9.6-1.3.7v.2h1.6c.1 0 .2-.1.2-.2.1-.3.2-.5.2-.8.1-.3.1-.6.1-1 0-.5-.1-.9-.2-1.4-.1-.4-.3-.8-.6-1.1-.3-.3-.7-.4-1.1-.4-.3 0-.6.1-.9.3-.2.2-.5.4-.6.6-.2.3-.4.6-.6 1.1-.2.4-.5.8-.6 1.1-.2.3-.4.5-.7.7s-.6.3-.9.3c-.3 0-.7-.1-.9-.4-.2-.3-.3-.6-.3-1 0-.6.2-1.2.6-1.5.5-.4 1-.8 1.6-1.1v-.2l-1.8.1c-.1 0-.2.1-.2.1-.2.3-.3.6-.3.9-.1.4-.1.8-.1 1.2 0 .5.1 1.1.3 1.5s.4.8.7 1.1c.3.2.7.4 1.1.4.3 0 .7-.1.9-.3.3-.2.5-.4.7-.7s.4-.7.7-1.1c.2-.4.4-.8.6-1 .2-.3.4-.5.6-.6.1-.2.4-.3.7-.3z"/><path class="st0" d="M22.8 20.5c-3.3.2-5.6.4-9.6 1-2.2.3-2.2.3-2.3.3-.5 0-.8-.2-1.9-1.2l-.3.9c.2.7.6 1.2 1.1 1.6.8.8.8.8.9.8.1 0 .2-.1.3-.2 1.1-.8 6.6-1.7 10.5-1.7 1.2 0 2.3.1 3.5.4.2 0 .3.1.5.1.3 0 .5-.3.5-.7 0-.4-.3-.8-1.1-1.3-.4-.3-.9-.5-1.4-.5l-.7.5zm-2.4-7.6-6.8.9c-.3.1-.6.1-.9.1-.3 0-.4-.1-1.4-.9l-.2-.2c-.2.2-.3.5-.4.9.1.3.2.6.5.8.9.9 1.2 1.2 1.5 1.2.1 0 .2 0 .3-.1 2.4-.9 4.9-1.4 7.4-1.2.5 0 .9 0 1.2.1.4.1.8.1 1.2.1.3 0 .6-.2.6-.6 0-.5-.9-1.2-2.2-1.7l-.8.6zm.2 36.2c-1.9.1-3.1.2-6.7.6h-.4c-.4 0-.5-.1-1.2-.8l-.1-.1c-.2.2-.3.4-.3.6.4.9.9 1.6 1.7 2.1.1 0 .2 0 .2-.1.8-.7 4.6-1.1 8.8-1.1 1-.1 2.1.1 3.1.4.1 0 .2.1.3.1.3 0 .5-.3.4-.6 0-.3-.2-.7-.9-1.2-.3-.3-.6-.5-1-.6l-.4.6h-2.5l1.1-5.3c.7-.4.8-.5.8-.7-.2-.6-.6-1.1-1.1-1.4l-.3-.3-.2-.2-.6.9-4 .4c-.6.1-1.1.1-1.3.1h-.4c-.4-.1-.8-.3-1.1-.8 0-.1-.1-.1-.1-.2-.2.2-.4.5-.4.8.3.8.8 1.4 1.4 1.8.1 0 .2-.1.2-.1.1-.3 2.2-.6 5.2-.9l.4-.1-.6 6.1zm-2.9 18.5c.2-.1.4-.4.5-.7 0-.4-1.6-1.7-2.2-1.7-.4 0-.7.3-.9.7 1 .5 1.2.7 1.2 1.7v13.1c0 .9 0 1.8-.1 2.7 0 .2-.1.3-.1.5.1.6.6 1.1 1.1 1.1.4 0 .7-.5.7-1.4v-1.9l-.2-14.1zM21.1 96l-.7.8L13 98l-.5.1c-.5-.1-1-.6-1.2-1.2-.3.3-.4.6-.5 1 0 .3.3.7 1 1.7.1.3.4.5.6.6.2 0 .4-.1.6-.3.2-.2.5-.3.8-.4 1-.3 1.4-.4 2.2-.6 1.4-.4 2.8-.7 4.2-.9-3.1 6.8-5.9 10.3-11 13.9-.6.4-.6.5-.6.6s.1.2.2.2c.7-.2 1.4-.6 2-1 2.7-1.7 5.1-4.1 7.1-6.9 2.1 1.5 3.9 3.5 5.3 5.9.4.8.6 1 1 1 .4-.1.8-.5.8-1 0-1.8-2.5-4.2-6.7-6.4 1.3-1.8 2.4-3.7 3.4-5.7l.6-.1c.2 0 .4-.2.5-.4 0-.3-.2-.6-.4-.7L21.1 96z"/></svg>
