<svg xmlns="http://www.w3.org/2000/svg" viewBox="0 0 34 172" width="34" height="172" style="enable-background:new 0 0 34 172" xml:space="preserve"><path d="M8.5 23.2c-.3 0-.4-.6-.5-1.6-.8.3-.9.5-.9 2 0 .4.2.8.5 1.1.3.3.7.5 1.1.6.4-.1.8-.3 1-.7l.3-.5.2-.3c1.9 1.8 2.1 2 2 2.9 0 .7.2 1.1.6 1.1.5-.1.9-.4 1.2-.8.3-.3.5-.8.5-1.3V25l-.1-5.1c2.8-1.9 4.6-2.5 6.9-2.5 2.8 0 4.7 1.5 4.7 3.8.1 1.8-1.3 3.2-3.1 3.3h-.4c-1.2 0-2.3-.4-3.1-1.2-.7-.6-1.3-1.2-1.8-2-.1-.3-.3-.5-.6-.6-.1 0-.2.1-.3.3.5 1.2 1.2 2.3 2.1 3.2 1.1 1.2 2.7 1.9 4.3 1.9 2.5.1 4.5-1.9 4.6-4.4v-.1c0-3-2.4-5-6-5-2.2 0-4.1.6-7.4 2.4v-5.2c.3-.1.5-.1.8-.2.4-.1.9-.2 1.3-.4l1.2-.3c.4-.1.8-.2 1.1-.3.2-.1.4-.3.4-.5 0-.5-.7-1-1.8-1.1l-.3.3-.5.5c-.7.3-1.4.5-2.2.8l.1-1.5c0-.5.1-.9.5-1.3l.3-.6c0-.5-2.1-1.9-2.9-1.9-.5.1-.9.3-1.2.7.1.1.3.1.4.2.5-.3.7-.2.9-.1.5.1.8.6.8 1.1v3.4c-1.1.3-2.2.5-3.4.7-.6 0-.9-.2-2.2-1.3-.2.2-.3.4-.3.7.2.6.7 1.1 1.2 1.5.3.3.6.4 1 .4.7 0 1.4-.2 2-.3.6-.1 1-.2 1.7-.3v5.7c-1.5 1-3 2.1-4.4 3.3-.1.1-.2.2-.3.2zm4.7-2.3v3c0 .3 0 .7-.1 1l-2.5-1.6c.8-.8 1.7-1.6 2.6-2.4z"/><path d="M21.5 14.6c1.4-.5 2.8-.8 4.3-1 .4 0 .7.1 1 .3.1.1.3.2.5.2.4 0 .7-.2.8-.6 0-.9-1.1-2.2-2.8-3.1-1.1-.5-2.3-.8-3.5-.9-.2 0-.3.1-.3.3 0 .1.1.2.3.2 1.4.3 2.6 1.1 3.3 2.4-1.3.5-2.6 1.2-3.8 1.8l.2.4zM10.8 54.9c-1 .1-2 .1-3 .1h-1l1.7 2.5c.1.2.3.3.5.3s.4-.1.5-.3l.3-.6 8.5-2.2c.3-.1.3-.1.3-.2s-.1-.2-.2-.2c-.3 0-.6 0-.8.1-.8.1-3.8.4-5 .5v-5.7H16c2.2 4.5 5.7 7.1 11.3 8.8.5-.9 1.2-1.6 2.1-2.1-3-.3-6-1.1-8.7-2.6l5-2.8.8-.2c.3 0 .5-.1.6-.4 0-.1-.1-.3-.2-.3L25 48.1c-1.6 1.7-3.3 3.3-5.1 4.7-1.3-1-2.4-2.2-3.2-3.6h4.2v.8c0 .2.1.4.3.4h.1c.4 0 .7-.2 1.1-.4.2-.1.4-.3.3-.6V44l.4-.2c.2-.1.3-.2.3-.4s-.2-.5-.4-.6l-1.7-1.1-.6 1h-3.1v-1.8l.6-.4c.2-.1.3-.3.3-.5 0-.3-.3-.5-.5-.5l-2.2-.2v3.4h-3.1l-1.6-.8c2.3-1.7 4.4-3.7 6.2-5.8 2.5 3.4 5.8 6 9.6 7.6.5-.9 1.3-1.7 2.3-2.1-4.3-.7-8.2-2.8-11.2-5.9l.3-.2c.1-.1.2-.2.2-.3 0-.1-.1-.3-.3-.3l-2.1-.9c-3.3 5-6.3 8.1-9.6 9.9-1.2.7-1.2.7-1.2.9 0 .1.1.3.3.3.6 0 3-1.3 5.3-2.8v12.6zm1.7-11.7h8.4v2.4h-8.4v-2.4zm0 3h8.4v2.3h-8.4v-2.3zM29.2 77.5l-1.7-1.6-1.2 1.7h-.9v-1.7l.3-.2c.2 0 .3-.2.4-.4 0-.2-.1-.4-.3-.5l-1.4-1.1-.6 1h-5.5v-2.2h5v.7c0 .2.2.3.3.3.5 0 1-.2 1.2-.7V70h.2c.2 0 .3-.2.3-.3 0-.2-.1-.3-.2-.4L23.7 68l-.7.9h-4.8v-2.1h10.5c.2 0 .3-.1.3-.3 0-.2-.1-.3-.2-.4l-2-1.6-1.5 1.7h-7.1v-1.7l.7-.4c.2-.1.3-.2.3-.4 0-.3-.2-.5-.5-.5l-2.1-.2v3.2H11c-1.2 0-2.3 0-5.1-.1l.3.9c2.9-.1 3.7-.1 4.8-.1h5.6V69h-4.7l-1.8-1v5.4c0 .2.2.3.4.3.5.1 1-.2 1.1-.8v-.5h4.9v2.2H13c-1.4 0-2.3 0-4.6-.1l.3.9c2.2-.1 3.1-.1 4.2-.1h3.5v2.3h-5.7c-1.3 0-2.4 0-5.2-.2l.5.9c2.7-.1 3.7-.1 4.8-.1h5.7v2.3h-3.6c-1.2 0-2.2 0-4.5-.1l.3.9c2.1-.1 3-.1 4.2-.1h3.6v2.5c0 .3-.1.4-.6.4h-.7l-2.3-.1-.1.5 2.2.5c.2.1.4.1.6.2h.1c.1.2.1.3.1.5-.1.3.1.6.4.7h.1c.9-.1 1.7-.7 2-1.6v-3.6h5.5v1.2c0 .2.2.3.4.3.5.1 1.1-.2 1.2-.8v-3.7h3.9c.1 0 .2-.1.2-.2-.1-.2-.2-.4-.3-.5zm-11-7.9h5v2.3h-5v-2.3zm-1.6 2.2h-4.9v-2.3h4.9v2.3zm7.1 8.7h-5.5v-2.3h5.5v2.3zm0-2.9h-5.5v-2.3h5.5v2.3zM13.3 113.7h.2c0-.3 0-.7.1-1 0-.2.1-.3.3-.4.2-.1.4-.1.7-.1h3v1.1c0 1.1-.4 1.6-1.2 1.6v.2h2.5v-.2c-.7 0-1.1-.5-1.1-1.6v-1.1h3c.2 0 .4.1.6.2.1.2.2.5.2.7v.6c.1 1-.6 1.8-1.6 1.9v.2h1.8c.1 0 .1 0 .1-.1v-5.8h-.2c0 .2 0 .5-.1.7 0 .1-.1.2-.3.3-.2.1-.4.1-.6.1h-6.5c-.2 0-.4 0-.6-.1l-.3-.3c-.1-.2-.1-.5-.1-.7H13V113c.3 0 .3.3.3.7zM20.1 118.9c-.7-.5-1.6-.8-2.5-.7-.8 0-1.6.2-2.3.6-.7.4-1.3.9-1.7 1.6-.4.7-.6 1.5-.6 2.3 0 .9.2 1.7.6 2.4.4.7 1 1.4 1.7 1.8.7.4 1.5.7 2.3.7.8 0 1.5-.2 2.2-.5.7-.4 1.2-.9 1.6-1.5.4-.7.6-1.5.6-2.3 0-.8-.2-1.6-.5-2.3-.1-1-.7-1.7-1.4-2.1zm1.2 5.4c-.4.5-1 1-1.6 1.2-.7.3-1.5.4-2.3.4-.7 0-1.4-.1-2.1-.4-.5-.2-1-.6-1.3-1.1-.3-.4-.5-1-.5-1.5 0-.6.2-1.3.6-1.8.4-.5 1-1 1.7-1.2.8-.3 1.6-.5 2.4-.4 1-.1 1.9.2 2.7.7.7.5 1 1.3 1 2.1s-.2 1.5-.6 2zM20.1 130.6c-.7-.5-1.6-.8-2.5-.7-.8 0-1.6.2-2.3.6-.7.4-1.3.9-1.7 1.6-.4.7-.6 1.5-.6 2.3 0 .9.2 1.7.6 2.4.4.7 1 1.4 1.7 1.8.7.4 1.5.7 2.3.7.8 0 1.5-.2 2.2-.5.7-.4 1.2-.9 1.6-1.5.4-.7.6-1.5.6-2.3 0-.8-.2-1.6-.5-2.3-.1-1-.7-1.6-1.4-2.1zm1.2 5.5c-.4.5-1 1-1.6 1.2-.7.3-1.5.4-2.3.4-.7 0-1.4-.1-2.1-.4-.5-.2-1-.6-1.3-1-.3-.4-.5-1-.5-1.5 0-.6.2-1.3.6-1.8.4-.5 1-1 1.7-1.2.8-.3 1.6-.5 2.4-.4 1-.1 1.9.2 2.7.7.7.5 1 1.3 1 2.1 0 .7-.2 1.4-.6 1.9zM22 143.2v-1.7h-.2c0 .2 0 .5-.1.7 0 .1-.1.2-.3.3-.2.1-.4.1-.6.1h-6.5c-.2 0-.4 0-.6-.1l-.3-.3c-.1-.2-.1-.5-.1-.7h-.2v3.9c0 .8.2 1.6.6 2.3.4.7.9 1.3 1.6 1.7.7.4 1.6.6 2.4.6.8 0 1.5-.2 2.2-.6.7-.4 1.2-1 1.5-1.7.4-.8.6-1.7.6-2.5v-2zm-.8 3.9c-.4.5-.9.9-1.5 1.1-.7.3-1.4.4-2.2.4-.7 0-1.5-.1-2.2-.4-.6-.2-1-.7-1.4-1.2-.3-.5-.5-1.1-.5-1.7 0-.4 0-.8.2-1.1.2-.2.5-.3.8-.3h6.3c.2 0 .4 0 .6.1.1.1.2.3.3.5.1.3.1.6.1.9.1.6-.1 1.2-.5 1.7z"/></svg>