<svg version="1.1" xmlns="http://www.w3.org/2000/svg" x="0" y="0" viewBox="0 0 34 286" width="34" height="286" style="enable-background:new 0 0 34 286" xml:space="preserve"><style>.st0{fill-rule:evenodd;clip-rule:evenodd;fill:#fff}</style><path class="st0" d="m22.8 11.1-1 .9c-1.6 0-3.2.1-4.8.3V9.6c-.1-.3 0-.6.3-.7.2-.1.3-.3.3-.4 0-.3-.2-.6-.5-.7-.7-.3-1.5-.6-2.3-.8-.6.1-1 .4-1.4.8 1.4.3 1.8.6 1.8 1.1V12.5h-.5c-.4.1-.8.1-1.2.1l-1.6.2-.7.1c-.1 0-.2 0-.4-.1l-.3-.3c-1.4-1-1.5-1-1.7-1-.4 0-.9.3-1.1.6v.1c.3.1.6.2.8.4.5.2.8.7.6 1.2l.2 4.7v.2c0 .1 0 .3-.1.4 0 .1-.1.3-.1.4.1.6.5 1.1 1.1 1.2.4 0 .7-.3.7-.7v-.3l-.5-6.1c.2.2.4.4.7.5h.2c3-.7 6.1-1 9.2-1h1.2c-2 7.4-4.9 11.5-10 14.4-.2 0-.3.2-.4.4 0 .1.1.2.2.2.6-.1 1.1-.4 1.6-.7 3.2-1.7 5.8-4.2 7.6-7.3 1.2-2 2.1-4 2.7-6.2 1-.3 1.1-.3 1.1-.7 0-.3-.2-.6-.4-.7l-1.3-1.4zM20.4 44.6c.4-.2.5-.3.5-.5s-.1-.3-.7-.4c1.7-1.5 1.7-1.5 3.6-3.3.7-.1.9-.2.9-.6 0-.4-.1-.5-1.1-1.3-.9-.8-1.1-.9-1.4-.9-.3 0-.6.1-.8.4 0 .1.1.2.2.3.3.2.6.5.8.8 0 .4-2.8 3.4-4.7 5-2 1.7-4.1 3.2-6.4 4.4-.7.4-.8.4-.8.5 0 .1.1.2.2.3 1-.3 2-.7 3-1.2 1.9-1 3.6-2.1 5.3-3.4l-.1 4.7v.8l-.1 2.1c0 .2 0 .3-.1.5-.1.4-.1.7-.1.7.2.4.6.7 1 .7.2 0 .5-.2.6-.4.1-.3.1-.5.1-.8l.1-8.4zM21.1 67l-.8.8-8.8 1.2c-.5.1-.5.1-.6.1-.6-.1-1.2-.6-1.4-1.2-.3.3-.5.6-.5 1 0 .3.3.7 1.2 1.7.2.3.4.5.7.6.3 0 .5-.1.7-.3.3-.2.6-.3.9-.4 1.2-.3 1.6-.4 2.6-.6 1.6-.4 3.2-.7 4.9-.9-3.7 6.8-6.9 10.3-12.8 13.9-.6.4-.8.5-.8.7 0 .1.1.2.3.2.8-.2 1.6-.6 2.3-1 3.2-1.7 6-4.1 8.3-6.9 2.4 1.5 4.6 3.5 6.3 5.9.5.8.8 1 1.1 1 .5-.1.9-.5.9-1 0-1.8-3-4.2-7.9-6.4 1.5-1.8 2.8-3.7 4-5.7l.6-.1c.3 0 .5-.2.6-.4 0-.3-.2-.6-.5-.7L21.1 67zM16 98.6l-.5-2.6c0-.1 0-.3-.1-.4 0-.1.1-.2.1-.3.1-.1.2-.3.2-.5-.1-.3-.3-.5-.5-.6-.8-.4-1.7-.6-2.6-.8-.5.1-1 .4-1.2.9v.1c1.5.2 2.2.6 2.5 1.7l.8 2.9-4.3 1.1c-.3.1-.7.2-1 .2-.7-.1-1.3-.5-1.7-1.1-.2.2-.4.5-.4.8 0 .6 1.6 1.9 2.3 1.9.3 0 .6-.2.9-.4 1.5-.6 3-1.2 4.5-1.6l1.1 4.3c-1.6.4-2.5.7-3.7 1-2.9.9-2.9.9-3.4.9-.4 0-.4 0-1.7-.9l-.1-.1-.1-.1c-.2.3-.3.6-.3.9.1.4.4.8.8 1 .4.5.9.8 1.5 1 .3-.1.6-.2.9-.4 2-1.1 4.2-1.8 6.4-2.3l1.7 7.2c0 .4.4.8.8.8.6 0 1.1-.5 1.1-1.1 0-.5-.2-1-.4-1.4-.6-1.7-1.4-4-1.8-5.8 2.3-.6 4.7-1 7.1-1.1H26.2c.3.1.7-.1.8-.5v-.1c0-.5-.4-.8-.8-.9l-1.5-.6c-.3 0-.5.2-.6.4-.3.3-.8.5-1.2.6-1 .2-3.1.6-5.2 1.1l-1.1-4.3c1.7-.4 3.5-.7 5.3-1h.7c.3.1.6-.1.7-.4V98c-.1-.5-.5-.9-.9-.9-.5-.2-.9-.3-1.4-.4-.2 0-.4.2-.5.3-.1.2-.3.3-.4.4-.2 0-.5.1-.8.2l-3.3 1zM11.5 139.8c4.2-2.1 8-4.9 11.3-8.3 2.1-2.1 3.7-3.9 3.7-4.3 0-.1-.1-.2-.2-.3-.2 0-.4.2-.5.4-3.7 3.7-7.9 6.8-12.4 9.4-1.1.6-2.2 1.1-3.4 1.5-.7-.2-1.2-.6-1.6-1.1-.2.3-.4.6-.4 1 0 .3.2.4 1.1 1.4.9.9 1.5 1.3 1.9 1.3 0-.1.1-.2.5-1zM7.7 124.5c1.7.9 2.9 2.3 3.7 4.1.4 1 .6 1.2 1 1.2.7-.1 1.1-.7 1.1-1.4 0-1.2-1-2.4-2.5-3.3-1-.5-2-.8-3-1.1l-.3.5zM21.6 151.9c.9.6 1.6 1.4 2.2 2.3.5.8.7 1 1 1 .5-.1.8-.5.8-1 0-.7-.6-1.5-1.9-2-.6-.3-1.3-.5-2.1-.6v.3zM23.4 150.3c1.1.5 1.9 1.3 2.6 2.3.1.3.4.5.8.6.4 0 .8-.4.8-.9 0-.7-.6-1.4-1.8-1.9-.7-.3-1.5-.5-2.3-.5l-.1.4zM21 154.7c-.4.1-.9.1-1.3.1-.2 0-.8 0-1.5.1l-1.6.1h-.7c.3-.5.5-.8.7-1.1.1-.4.4-.6.8-.7.2 0 .4-.2.4-.5s-.2-.5-.4-.6c-.7-.6-1.5-1-2.3-1.2-.5 0-.9.2-1.3.6 0 0 0 .1.1.1.1.1.3.1.4.2.4.1.8.4 1 .8-.6 1.5-1.3 2.9-2.1 4.2-1.4 2.3-3.1 4.3-5 6.1-.2.1-.4.3-.4.5 0 .1.1.2.2.2.9-.5 1.8-1.1 2.5-1.8 1.9-1.7 3.6-3.6 5-5.7l.4.4h.3c1.7-.3 3.4-.5 5.1-.5-2.7 6.5-6.1 10.6-11.6 13.9-.2.1-.3.2-.4.4 0 .1.1.3.3.3.6-.2 1.2-.5 1.7-.8 4.2-2.5 6.3-4.3 8.5-7.4 1.2-1.7 2.3-3.5 3.1-5.4.1-.3.1-.3.6-.4.2 0 .4-.2.5-.4 0-.3-.6-1-1.9-2l-1.1.5z"/><path id="WHISKING" class="st0" d="M20.9 202.1v-2.7h-.2c0 .2-.1.5-.2.7-.2.2-.4.2-.6.2-.2 0-.5-.1-.7-.1l-5.3-2 3.6-1.7 1.7.7c.4.1.8.4 1.1.7.2.2.4.5.4.8h.2v-2h-.2c0 .2-.1.4-.3.4h-.1c-.3 0-.7-.1-1-.3l-1.3-.5 1.6-.8c.3-.2.6-.3.9-.3.1 0 .1 0 .2.1 0 .1.1.2 0 .3h.2v-2.5h-.2c0 .2-.1.4-.2.5-.2.2-.5.3-.8.5l-3.2 1.5-2.6-1 5.7-2.7c.2-.1.5-.2.8-.3.1 0 .2.1.3.2.1.2.1.4.1.5h.2V189.3h-.2c0 .2-.1.4-.2.6-.2.2-.5.4-.8.5l-7.6 3.5s-.1.1-.1.2 0 .1.1.2l3.9 1.5-3.9 1.8s-.1.1-.1.2 0 .1.1.2l7.1 2.7c.4.1.8.4 1.1.7.2.2.4.6.4.9 0-.1 0-.1.1-.2 0 .1.1.1 0 0zm-8.5 11.2c0-.2 0-.5.1-.7 0-.1.1-.3.3-.3.2-.1.4-.1.6-.1h6.5c.2 0 .4 0 .6.1l.3.3c.1.2.1.5.1.7h.2v-3.7h-.2c0 .3 0 .5-.1.8 0 .1-.1.3-.3.3-.2.1-.4.1-.6.1H17V206h2.9c.2 0 .4 0 .6.1l.3.3c.1.2.1.5.1.8h.2V203.6h-.2c0 .2 0 .5-.1.7 0 .1-.1.3-.3.3-.2.1-.4.1-.6.1h-6.5c-.2 0-.4 0-.6-.1l-.3-.3c-.1-.2-.1-.5-.1-.7h-.2V207.2h.2c0-.3 0-.5.1-.8 0-.1.1-.3.3-.3.2-.1.4-.1.6-.1h3.2v4.8h-3.2c-.2 0-.4 0-.6-.1l-.3-.3c-.1-.3-.1-.5-.1-.8h-.2v3.7s0 .1.2 0c-.1.1 0 0 0 0zm.9 4.6h6.5c.2 0 .4 0 .6.1l.3.3c.1.2.1.4.1.7h.2v-3.5h-.2c0 .2 0 .5-.1.7 0 .1-.1.2-.3.3-.2.1-.4.1-.6.1h-6.5c-.2 0-.4 0-.6-.1l-.3-.3c-.1-.2-.1-.5-.1-.7h-.2V218.9h.2c0-.2 0-.5.1-.7 0-.1.1-.2.3-.3h.6zm6.2 5c.4 0 .7.1 1 .4.3.3.4.6.4 1 0 .6-.2 1.1-.7 1.4-.5.3-1 .6-1.5.7v.1s0 .1.1.1h1.9c.1 0 .2-.1.3-.2.1-.3.2-.5.2-.8.1-.3.1-.6.1-1 0-.5-.1-.9-.2-1.4-.1-.4-.4-.8-.7-1.1-.4-.3-.8-.4-1.2-.4-.4 0-.7.1-1 .3-.3.2-.5.4-.7.6-.2.3-.4.6-.7 1-.3.4-.5.8-.8 1.1-.2.3-.5.5-.8.7-.3.2-.7.3-1.1.3-.4 0-.8-.1-1.1-.4-.2-.3-.3-.6-.3-1 0-.6.3-1.2.7-1.5.6-.4 1.2-.8 1.9-1.1 0 0 .1 0 0-.1 0 0 0-.1-.1-.1l-2.1.1c-.1 0-.2.1-.3.1-.2.3-.3.6-.4.9-.1.4-.2.8-.2 1.2 0 .5.1 1.1.3 1.5.2.4.5.8.9 1 .4.2.8.4 1.3.4.4 0 .8-.1 1.1-.3.3-.2.6-.4.8-.7.2-.3.5-.7.8-1.1.3-.4.5-.8.7-1 .2-.3.4-.5.7-.6 0 0 .3-.1.7-.1zM12.4 238c0-.3 0-.5.1-.8.2-.3.4-.6.7-.8.4-.3 1-.8 1.8-1.4l2.7-2.1 1.8 1.8c.4.4.7.8.9 1.3.2.4.3.9.3 1.4h.2V234h-.2c0 .2 0 .4-.1.6-.1.1-.2.2-.3.2-.3-.1-.5-.2-.7-.4l-2.8-2.7h3c.2 0 .4 0 .6.1l.3.3c.1.2.1.4.1.7h.2V229.4h-.2c0 .2 0 .5-.1.7 0 .1-.1.2-.3.3-.2.1-.4.1-.6.1h-6.5c-.2 0-.4 0-.6-.1l-.3-.3c-.1-.2-.1-.5-.1-.7h-.2V232.8s0 .1.1.1.1 0 .1-.1c0-.2 0-.5.1-.7 0-.1.1-.2.3-.3.2-.1.4-.1.6-.1h3.1l.4.4-2.5 1.9-.8.6c-.4.3-.7.6-.9.7l-.3.3c-.1.1-.1.2-.1.3v2.1h.2c-.1 0 0 0 0 0zm.9 4h6.5c.2 0 .4 0 .6.1l.3.3c.1.2.1.4.1.7h.2V239.7h-.2c0 .2 0 .5-.1.7 0 .1-.1.2-.3.3-.2.1-.4.1-.6.1h-6.5c-.2 0-.4 0-.6-.1l-.3-.3c-.1-.2-.1-.5-.1-.7h-.2V243.1h.2c0-.2 0-.5.1-.7 0-.1.1-.2.3-.3.2-.1.4-.1.6-.1zm7.6 12.8V252.1h-.2c0 .3-.1.6-.4.8-.3.2-.7.3-1.1.3h-5l5.9-5 .4-.3c.1 0 .2-.1.2-.2 0 0 .1-.1.1-.2v-2.4h-.2c0 .2-.1.5-.2.7-.2.3-.4.5-.6.7h-6.1c-.4 0-.8-.1-1.1-.3-.3-.2-.4-.6-.4-.9H12V248h.2c0-.3.1-.7.4-.9.3-.2.7-.3 1.1-.3h5.7l-7.6 6.6v.1s0 .1.1.1h7.2c.4 0 .8.1 1.1.3.3.2.4.5.4.9h.3zm-8.9 7.1c0 1.1.1 2.1.4 3.2 0 0 0 .1.1.1h.4c.3 0 .6-.1.9 0h1.1c.2 0 .3.1.4.1.1.1.1.3.1.4 0 0 0 .1.1.1h.1v-1.5c0-.5 0-1.1.1-1.9h-.1c-.1 0-.1 0-.1.1 0 .3 0 .7-.1 1-.1.2-.2.3-.4.4-.3.1-.7.1-1 .1-.4 0-.7 0-1.1-.2-.2-.1-.4-.3-.5-.5-.1-.3-.2-.6-.1-.9 0-.7.2-1.5.6-2.1.4-.6 1-1.1 1.6-1.4.7-.3 1.5-.5 2.3-.5.7 0 1.5.1 2.1.5.6.3 1.1.7 1.4 1.2.3.5.5 1.1.5 1.8s-.2 1.5-.7 2c-.4.5-1 .9-1.6 1.1 0 0-.1 0 0 .1 0 0 0 .1.1.1l1.8-.2h.2l.1-.1c.2-.3.3-.7.3-1.1.1-.5.1-.9.1-1.4 0-.9-.2-1.9-.6-2.8-.3-.8-.9-1.4-1.6-1.9-.7-.5-1.5-.7-2.4-.7-.8 0-1.6.2-2.3.6-.7.4-1.3 1-1.6 1.8-.4.6-.6 1.5-.6 2.5z"/></svg>