<svg version="1.1" xmlns="http://www.w3.org/2000/svg" x="0" y="0" viewBox="0 0 34 235" style="enable-background:new 0 0 34 235" width="34" height="235" xml:space="preserve"><style>.st0{fill-rule:evenodd;clip-rule:evenodd}</style><path class="st0" d="M19.7 192.3v.2h1.8c.1 0 .1 0 .1-.1v-5.8h-.2c0 .2 0 .5-.1.7 0 .1-.1.2-.3.3-.2.1-.4.1-.6.1h-6.5c-.2 0-.4 0-.6-.1-.1 0-.2-.2-.3-.3-.1-.2-.1-.5-.1-.7h-.2v6.3h.2c.7 0 1.3.1 1.9.1v-.2c-1.1-.2-1.9-1.2-1.8-2.4v-.7c0-.2 0-.4.2-.6.2-.1.4-.2.6-.2H17v1.3c0 1-.4 1.6-1.2 1.6v.2H18.4v-.2c-.7 0-1-.5-1-1.5V189h2.9c.2 0 .5.1.6.2.1.2.2.5.2.7v.6c.3.8-.4 1.7-1.4 1.8zM21.7 197.9v-2.7h-.2c0 .2 0 .5-.1.7 0 .1-.1.2-.3.3-.2.1-.4.1-.6.1H14c-.2 0-.4 0-.6-.1l-.3-.3c-.1-.2-.1-.5-.1-.7h-.2V198.6h.2c0-.2 0-.5.1-.7 0-.1.1-.2.3-.3s.4-.1.6-.1h3.1v1.2c-1.1.7-2.1 1.4-3.1 2.1-.5.3-.9.7-1.1 1.2v2.3h.2c0-.4.2-.8.4-1.2.4-.5.9-1 1.4-1.4.6-.5 1.5-1.2 2.6-1.9.2.5.6.8 1 1.1s.9.4 1.4.4 1-.2 1.3-.7c.3-.6.5-1.2.5-1.9v-.8zm-.7 1.8c-.5.3-1 .4-1.6.4-.5 0-1-.1-1.5-.4-.3-.3-.5-.8-.5-1.3 0-.3 0-.5.1-.8h3c.3 0 .5.1.7.2.2.2.2.5.2.8.1.4-.1.8-.4 1.1zM15.1 183.5c.7.4 1.6.6 2.4.6s1.5-.2 2.2-.6c.7-.4 1.2-1 1.5-1.7.4-.8.6-1.7.6-2.5v-3.7h-.2c0 .2 0 .5-.1.7 0 .1-.1.2-.3.3-.2.1-.4.1-.6.1h-6.5c-.2 0-.4 0-.6-.1l-.3-.3c-.1-.2-.1-.5-.1-.7h-.2v3.9c0 .8.2 1.6.6 2.3.3.7.9 1.3 1.6 1.7zm-1.9-4.2c0-.4 0-.8.2-1.1.2-.2.5-.3.8-.3h6.3c.2 0 .4 0 .6.1.1.1.2.3.3.5.1.3.1.6.1.9 0 .6-.2 1.2-.6 1.7s-.9.9-1.5 1.1c-.7.3-1.4.4-2.2.4-.7 0-1.5-.1-2.2-.4-.6-.2-1-.7-1.4-1.2-.3-.5-.4-1.1-.4-1.7zM13 173.3s0 .1 0 0h.2c0-.2 0-.5.1-.7 0-.1.1-.2.3-.3s.4-.1.6-.1h6.5c.2 0 .4 0 .6.1l.3.3c.1.2.1.4.1.7h.2V169.9h-.2c0 .2 0 .5-.1.7 0 .1-.1.2-.3.3-.2.1-.4.1-.6.1h-6.5c-.2 0-.4 0-.6-.1l-.3-.3c-.1-.2-.1-.5-.1-.7H13V173.3zM21.7 205.3h-.2c0 .2-.1.5-.3.7-.3.3-.6.6-1 .8l-3.2 2.1h-2.9c-.2 0-.4 0-.6-.1l-.3-.3c-.1-.2-.1-.5-.1-.7h-.2V211.2h.2c0-.2 0-.5.1-.7 0-.1.1-.2.3-.3s.4-.1.6-.1h3.1l2.6 1.6c.5.3.9.6 1.2 1 .3.3.4.7.5 1.1h.2V210.9h-.2c.1.3-.1.7-.5.8h-.2c-.4 0-.7-.1-1-.4l-2.3-1.4 3.1-2c.1-.1.3-.2.4-.2.3 0 .4.2.4.6h.2v-2.6l.1-.4zM19.7 160c-.7-.5-1.5-.7-2.4-.7-.8 0-1.7.2-2.4.7-.7.4-1.3 1.1-1.6 1.8-.4.8-.6 1.8-.6 2.7s.2 1.8.5 2.7c0 .1.1.1.1.1.1 0 .1.1.2 0l1.7.2v-.2c-.7-.3-1.2-.7-1.7-1.2-.4-.5-.6-1.1-.5-1.7 0-.7.2-1.3.5-1.9.4-.6.9-1 1.5-1.3.7-.3 1.5-.5 2.2-.5.8 0 1.5.1 2.2.4.6.3 1.1.7 1.5 1.3.3.5.5 1.2.5 1.8s-.2 1.3-.6 1.8c-.5.5-1.1.9-1.8 1.1 0 0-.1.1 0 .1 0 0 0 .1.1.1l1.8-.2c.1 0 .1 0 .2-.1l.1-.1c.3-.8.5-1.6.4-2.5 0-.9-.2-1.8-.6-2.7-.1-.6-.6-1.3-1.3-1.7zM8.9 17.4c.1 0 .2 0 .2-.1 1.2-.6 2.5-1 3.8-1.1v3.4c0 .3-.1.7-.2 1-.1.2-.1.3-.1.5.1.6.6 1.1 1.3 1.2.3 0 .6-.4.6-.7v-.1l-.1-5.6c2.7-.3 3.7-.4 5.2-.5.1 6.1-1.6 9.2-6.5 12.2-.3.1-.5.3-.6.6 0 .1.1.2.2.2.7-.2 1.3-.5 1.9-.9 3.2-1.7 5-3.8 6-6.7.4-1.3.5-1.9.6-5.5 1.6 0 3.2.1 4.8.4.5.1.9.2 1.4.2.2 0 .4-.2.4-.4 0-.7-.4-1-2.3-2l-1 .6c-.2 0-.5.1-.7.1h-2.5l-.1-3.6v-.3c0-.3.1-.5.3-.7.2-.1.3-.4.4-.6 0-.4-.3-.6-1.4-1-.7-.3-.7-.3-1-.4-.1-.1-.2-.1-.3-.1-.5.1-.9.4-1.2.8l.6.3c1.2.5 1.2.6 1.2 1 0 .1 0 .4.1 1l.1 3.7c-2.9.2-3.9.3-5.3.5l.1-2.9v-.5c0-.1.1-.2.2-.3.2-.1.4-.4.4-.6 0-.3-.5-.7-1.5-1-.5-.2-1-.4-1.5-.4-.2 0-.3.1-1 .8 1.4.4 1.7.6 1.7.8.1.4.1.8.1 1.2v3c-.9.1-1 .1-1.2.2-.8.1-1.6.2-2.4.2-.7 0-.9-.1-1.9-1.2l-.4-.1c-.2.3-.4.6-.5 1 .2.5.6 1 1 1.4.2.4.6.7 1.1 1zM17.4 45v5.4c.1 1.7 0 3.4-.3 5.1 0 .1 0 .2-.1.3.1.5.6.9 1.1 1 .4 0 .8-.4.8-.8V45.1c.6-.4.7-.5.7-.7 0-.3-.2-.4-.9-.5 1-.8 1.6-1.5 3.9-3.6l.5-.5c1-.3 1.3-.5 1.3-.8 0-.4-.6-1.1-1.6-1.8-.3-.3-.8-.6-1.2-.7-.2 0-.4.1-.6.2-.1.1-.2.1-.4.2-.1 0-.1.1-.1.1v.1c.6.1 1 .6 1.2 1.1 0 .2-.2.5-.4.6-.2.3-.4.5-.7.7-3.7 4.2-8.1 7.8-13.1 10.4-.8.4-.8.4-.8.6 0 .1.1.3.3.3 1.1-.4 2.2-.8 3.2-1.4 2.6-1.1 5-2.7 7.2-4.4zM24.7 66.4c-.7-.5-1.6-.8-2.4-.9l-.1.4c1.1.6 1.9 1.5 2.5 2.6.1.3.3.4.6.5.5 0 .8-.4.8-.8-.1-.7-.5-1.2-1.4-1.8zM28 66.2c0-.6-.7-1.3-2-1.8-.6-.2-1.2-.3-1.8-.3l-.1.4c1 .4 1.8 1.1 2.4 2 .1.3.4.5.8.5.4.1.8-.3.7-.8 0 .1 0 .1 0 0zM22.4 68l-.7.7-4.6.3H17c-.3 0-.5 0-.8-.1.2-.3.2-.4.3-.6l.3-.7c.1-.2.2-.4.4-.4s.3-.2.3-.4c0-.3-.2-.6-1-1.1-.5-.4-1.1-.6-1.8-.8-.4.1-.8.4-1.1.7.4.2.5.3.8.4.4.1.6.4.7.8-.5 1.5-1.2 3-2.1 4.3-1.1 2.1-2.6 4-4.3 5.7-.3.2-.5.4-.5.7 0 .1.1.2.2.2.5 0 3.3-2.5 4.7-4.4 1.8.7 3.5 1.6 5 2.8-2.2 3.2-5 6-8.3 8.1-.7.4-.8.5-.8.6s.1.2.3.2c1.1-.3 2.1-.9 3-1.6 2.6-1.7 4.8-3.8 6.7-6.3.3.3.6.6.8.9.2.4.6.7 1 .8.5 0 .8-.3.9-.8 0-.7-.4-1.2-1.7-2.3 1.1-1.7 2.1-3.4 3-5.1 1-.3 1.2-.4 1.2-.6.1-.1-.5-.8-1.8-2zm-.8 1.8c-.8 1.8-1.6 3.5-2.6 5.2-1.7-1-3.5-1.7-5.4-2.1.7-.9 1.4-1.9 2-2.9.1.2.3.3.5.3s.3 0 .5-.1c1.6-.2 3.3-.4 5-.4zM21.5 94.9c-.7-.4-1.5-.7-2.3-.8-.5.1-.9.4-1.1.8 1 .3 1.8.7 1.8 1v5.2c-.2 4.6-.9 6.8-2.5 8.8-1.4 1.5-3.1 2.7-5 3.4-1.1.5-1.2.5-1.2.7 0 .1.1.2.2.2.8-.2 1.6-.4 2.4-.8 2.3-.8 4.3-2.3 5.8-4.3 1.3-2.4 1.9-5.2 1.9-7.9l.1-4.9c.2-.2.4-.5.5-.8 0-.2-.2-.5-.6-.6z"/><path class="st0" d="M14.8 96.5c-.1-.2-.2-.4-.4-.4-.7-.4-1.4-.8-2.2-1-.5.1-.9.4-1.1.8 1.3.5 1.5.6 1.5 1V104.3c0 .2 0 .4-.1.6-.1.3-.1.5-.1.5.1.6.6 1 1.1 1.1.4 0 .7-.4.8-.8 0-.3 0-.5-.1-.8-.1-.4-.1-.8-.1-1.1v-6.6c.3-.1.6-.3.7-.7zM18.4 124.2c0-.4-1.9-1.7-2.6-1.7-.4 0-.8.3-1 .7 1.2.5 1.4.7 1.4 1.7l-.1 13.1c0 .9 0 1.8-.2 2.7-.1.2-.1.3-.1.5.1.6.7 1.1 1.3 1.1.5 0 .8-.5.8-1.4v-1c0-.3 0-.6-.1-.9l-.1-14.1c.4-.2.6-.4.7-.7z"/></svg>
