<svg version="1.1" xmlns="http://www.w3.org/2000/svg" x="0" y="0" viewBox="0 0 34 305" style="enable-background:new 0 0 34 305" width="34" height="305" xml:space="preserve"><style>.st0{fill-rule:evenodd;clip-rule:evenodd;fill:#fff}</style><path class="st0" d="M13.1 253.5v.1zM13 246.8c0 .1 0 .1 0 0 .1.1.2 0 .2 0 0-.3.1-.7.3-1 .2-.2.5-.4.7-.4.3 0 .5.1.8.2l1.5.7v3.4l-2.2 1.1c-.2.1-.5.2-.7.2-.1 0-.2-.1-.3-.2-.1-.2-.1-.4-.1-.6 0 0 0-.1-.1-.1s-.1 0-.1.1v3.3l.1.1s.1 0 .1-.1c0-.3.1-.5.4-.7.4-.3.9-.6 1.4-.8l6.9-3.4s.1-.1 0-.1v-.1l-6.8-3-1.2-.6c-.2-.1-.4-.3-.6-.5-.1-.2-.2-.4-.2-.7l-.1-.1s-.1 0-.1.1v2.5c.1.3.1.6.1.7zm3.7-.3L20 248l-3.3 1.6v-3.1zM15.1 273.2c.7.4 1.5.7 2.3.7s1.5-.2 2.2-.5c.7-.4 1.2-.9 1.6-1.5.4-.7.6-1.5.6-2.3s-.2-1.6-.5-2.3c-.3-.8-.9-1.4-1.5-1.9-.7-.5-1.6-.8-2.5-.7-.8 0-1.6.2-2.3.6s-1.3.9-1.7 1.6-.6 1.5-.6 2.3c0 .9.2 1.7.6 2.4.5.5 1.1 1.1 1.8 1.6zm-2-3.8c0-.6.2-1.3.6-1.8.4-.5 1-1 1.7-1.2.8-.3 1.6-.5 2.4-.4 1-.1 1.9.2 2.7.7.7.5 1 1.3 1 2.1 0 .7-.2 1.3-.6 1.9-.4.5-1 1-1.6 1.2-.7.3-1.5.4-2.3.4-.7 0-1.4-.1-2.1-.4-.5-.2-1-.6-1.3-1-.3-.4-.5-.9-.5-1.5zM12.9 258v.9c0 .5.1 1.1.3 1.6.2.4.5.8.9 1.1.4.3.9.4 1.3.4.6 0 1.2-.2 1.6-.7.5-.5.7-1.2.8-1.8.2.5.5.9.8 1.2.3.3.8.4 1.2.4.5 0 1-.2 1.3-.7.4-.6.5-1.2.5-1.9V255.1h-.2c0 .2 0 .4-.1.7 0 .1-.1.3-.3.3-.2.1-.4.1-.6.1h-6.5c-.2 0-.4 0-.6-.1l-.3-.3c-.1-.2-.1-.4-.1-.7h-.2v2.3c.3.3.3.5.2.6zm5-.4h2.7c.3 0 .5 0 .7.2.1.2.2.4.2.6 0 .4-.1.8-.4 1.1-.4.3-.8.4-1.2.4-.5 0-1-.1-1.4-.4s-.6-.8-.5-1.2l-.1-.7zm-4.7 1.1c0-.2 0-.5.1-.7 0-.1.1-.3.3-.3.2-.1.3-.1.5-.1h3.4v.8c0 .6-.2 1.2-.6 1.6-.5.4-1.1.6-1.7.6-.9.1-1.8-.5-1.9-1.4-.1-.2-.1-.3-.1-.5zM22.1 294.7c-.1 0-.2-.2-.3-.3-.1-.3-.1-.5-.1-.8V288c0-.5.1-.8.3-.8 0 0 .1 0 .1-.1 0 0 0-.1-.1-.1-.3 0-.7 0-1.3-.1-.6 0-1-.1-1.4-.1v.2c.6.1 1.1.4 1.6.8.4.4.5.9.5 1.4 0 .2 0 .4-.1.6 0 .1-.1.2-.2.3-.2.1-.4.1-.5.1h-6.5c-.2 0-.4 0-.6-.1-.1-.1-.2-.2-.3-.4-.1-.3-.1-.5-.1-.8h-.2v3.8h.2c0-.3 0-.5.1-.8 0-.1.1-.3.3-.3.2-.1.4-.1.6-.1h6.5c.2 0 .4 0 .6.1.1 0 .2.1.2.3.1.2.1.4.1.6 0 .5-.2 1-.5 1.4-.4.4-1 .6-1.6.7v.2h1.4c.6 0 1 .1 1.3.1v-.2c0 .1 0 .1 0 0 0 .1 0 0 0 0zM13.2 282.4c.3.5.7.9 1.2 1.2.5.3 1.1.4 1.8.4H20c.4 0 .8.1 1.1.3.3.2.4.5.4.8h.2V282.3h-.2c0 .4-.1.7-.4.9-.3.2-.7.4-1.1.3h-3.9c-.8 0-1.5-.2-2.1-.7-1-1.1-1-2.8.1-3.8.7-.5 1.6-.8 2.5-.7h4c.2 0 .4 0 .6.1l.3.3c.1.2.1.5.1.7h.2V276h-.2c0 .2 0 .5-.1.7 0 .1-.1.2-.3.3-.2.1-.4.1-.6.1h-4.5c-.6 0-1.2.1-1.8.4-.5.3-.9.7-1.1 1.2-.3.6-.4 1.2-.4 1.8-.1.7.1 1.3.4 1.9zM28.9 20c0-.4-.2-.8-.6-1-2.9-2.7-5.6-6.8-6-9.3 0-.2-.1-.4-.2-.5-.4-.2-.9-.4-1.3-.4-.3 0-.6.2-.7.5v.1c0 .5.2.9.5 1.3.4.7.6 1.5.6 2.3.2 1.3.3 2.5.3 3.8 0 5.7-2.3 9.2-6.2 9.2-3.1 0-5-2.2-5-5.7 0-2.6 1-5 3.2-7.6.6-.9 1.5-1.6 2.4-2.1.5-.2.7-.4.7-.6 0-.3-.2-.6-.5-.8-.5-.2-1-.3-1.5-.4l-.6.8c-1.6.7-3.3 1.3-5.1 1.7-.7-.1-1.2-.5-1.7-1-.2.1-.4.4-.4.7.1.2.2.4.4.6 1 1.1 1.4 1.3 1.9 1.3.5-.1.9-.2 1.2-.5 1-.6 2-1.1 3.2-1.4-1 1-1.9 2.2-2.6 3.4-1.2 2-1.8 4.3-1.9 6.6 0 4.1 2.4 6.7 6.2 6.7 2.2.1 4.4-1 5.7-2.8 1.3-2 1.9-4.4 1.8-6.9 0-1.9-.2-3.8-.7-5.7 1 2.2 2.2 4.2 3.5 6.2s1.9 2.6 2.4 2.6c.6 0 1.1-.5 1-1.1 0 .1 0 0 0 0zM20.7 36.8c.9.8 1.7 1.7 2.2 2.8.1.3.3.5.6.5.5 0 .9-.4.9-.9 0-1-1.1-1.9-3.5-2.7l-.2.3zM25.5 37.9c.5.8.5.9.8.9.5-.1.8-.5.8-.9 0-1.3-1.8-2.4-4-2.5l-.1.2c1.1.5 1.9 1.3 2.5 2.3zM6.4 45.8c1.2 1 1.7 1.4 2.2 1.4.4 0 .6-.1 1.5-1.1 1.3-1.3 2.7-2.4 4.2-3.3 1.5-1 3.3-1.6 5.1-1.6 1.7 0 3.3.6 4.6 1.6 1 .9 1.5 2.2 1.5 3.6-.1 2.5-1.7 4.6-4 5.5-2 .8-4 1.4-6.2 1.5-.5.1-.6.1-.6.3s.2.3.4.3c2-.1 4-.4 6-.9 4.2-1.2 6.5-3.6 6.5-6.6-.1-1.8-.9-3.4-2.3-4.5-1.5-1.3-3.5-1.9-5.5-1.9-2.2 0-4.4.6-6.4 1.7-1.7.8-3.3 1.8-4.9 2.8-.2.2-.4.3-.7.3-.6-.2-1.2-.7-1.5-1.3-.4.4-.6.9-.6 1.4 0 .2 0 .2.7.8zM9.2 74.9c-1.2 1.5-1.9 3.3-2 5.3 0 1.8.9 3 2.2 3 1.5 0 3.2-1.3 4.8-3.6.4.6 1 1 1.7 1.2.4-.1.7-.4.6-.9 0-.5-.1-.7-1.2-1.6L15 78c1.4-2.4 2.5-4.8 3.4-7.4 1-.1 2 .1 2.9.5 2.2.8 3.6 2.9 3.6 5.3 0 3.4-2.6 6-7.5 7.6-.9.3-.9.3-.9.5 0 .1.1.3.3.3.1 0 .2 0 .3-.1.2 0 .4-.1.6-.1 1.5-.3 3-.8 4.5-1.5 3.1-1.5 4.9-4 4.9-6.8 0-2.7-1.6-4.8-4.4-5.9-1.2-.5-2.5-.7-3.8-.6l.6-1.6c.1-.4.4-.7.7-.8.1-.1.1-.1.1-.2 0-.8-1.9-2.3-2.8-2.3-.4 0-.8.3-.9.7.6.2 1.1.6 1.4 1.2 0 .4-.1.7-.2 1.1l-.6 2.2c-2 .4-3.8 1.2-5.4 2.4-.4-1-.6-2.1-.7-3.2V68.7c0-.4-.6-.8-1.9-1.4-.1 0-.2-.1-.3-.1s-.2-.1-.2-.1c-.4.1-.8.4-1 .7 1.1.4 1.4.6 1.5 1.1l1.5 4.4c-.4.5-1 1-1.5 1.6zm3-1.7c1.4-1.3 3-2.1 4.8-2.5-.6 2.2-1.5 4.4-2.6 6.4-1-1-1.8-2.4-2.2-3.9zm-1 .9c.6 1.5 1.4 3 2.3 4.4-1.5 2.1-2.7 3.2-3.6 3.2-.6 0-1-1-1-2.2 0-2 .8-3.9 2.3-5.4zM25 98.9c-1.2-.8-2.5-1.2-3.9-1.1h-.3l.1-1.5c0-.3.1-.6.2-.9s.2-.5.2-.8c0-.7-1.1-1.3-2.3-1.3-1.2.1-2.3.6-3 1.5l.3.4c.5-.5 1.2-.8 1.9-.8.3 0 .7.1.9.3.1.4.2.9.2 1.4v2c-3.7.7-7.7 4.3-10.2 9.3-.2-.8-.3-1.5-.3-2.3 0-1.9.5-3.7 1.4-5.4l.3-.6c-.5-1.1-1.4-2-2.5-2.6-.3 0-.7.2-.9.4 1.1.9 1.5 1.4 1.5 2s-.1 1.2-.3 1.7c-.4 1.5-.6 3.1-.6 4.7 0 3.1.9 5.3 2.1 5.3.3 0 .6-.1.7-.4.1-.4.1-.7.1-1.1-.1-.9.3-1.9 1.4-3.9 2-3.5 4.3-5.4 7.6-6.2v6l-.1 1.7c0 .1-.1.5-.1.9l-.4.4c-2.1-.5-3.8-2-4.6-4.1-.2-.5-.3-.6-.4-.6-.1 0-.2.1-.2.3.2 1 .6 2 1.2 2.9.8 1.4 2.1 2.3 3.7 2.7-.7 2.1-2.2 3.9-4.2 5-.5.3-.6.3-.6.5 0 .1.1.2.2.2.7-.2 1.3-.5 1.9-.8 1.9-1 3.4-2.6 4.2-4.6.3 0 .6.1.9.1 1.3 0 2.5-.4 3.6-1.1 1.7-.9 2.8-2.7 2.7-4.7.1-2-.9-3.8-2.4-4.9zm-1.2 8.3c-.9.6-1.9.9-2.9 1h-.4c.2-1.2.4-2.5.3-3.7l-.1-3.3v-2.4c.9 0 1.7.2 2.5.6 1.5.8 2.4 2.4 2.4 4.2.1 1.4-.6 2.8-1.8 3.6zM13 130.6c-1.1 2.2-2.1 4.4-2.9 6.6-.4-.7-.5-1.6-.5-2.4 0-1.8.3-3.5.9-5.2.4-1.2.9-2.3 1.5-3.4.2-.2.3-.5.3-.7 0-.8-1.7-2.8-2.3-2.8-.4 0-.7.2-1 .3 1 .9 1.3 1.4 1.3 2 0 .5-.1 1-.3 1.5-1 2.9-1.5 5.9-1.5 8.9 0 4.1.7 6.4 2.1 6.4.4 0 .7-.4.7-1 0-.2 0-.4-.1-.8 0-.3-.1-.6-.1-.9 0-1.6.8-4.5 2.5-8.5H13zM26.7 138.3c-.2 0-.5 0-.7.1-1.3.2-2.6.3-3.8.3-1.1 0-2.3-.1-3.4-.3-1.8-.5-2.7-1.5-2.7-3.1 0-.7.1-1.4.3-2 0-.1.1-.2.1-.3s-.1-.3-.3-.3c-.4 0-1 1.8-1 3 0 1.3.6 2.6 1.7 3.3 1.1.9 3.3 1.4 6.4 1.4 1.3 0 2.6-.1 3.9-.3.4 0 .7-.3.7-.7-.1-.7-.6-1.2-1.2-1.1zM17 131l.3.3c1.4-1.2 2.9-2.3 4.4-3.3 1-.8 2.2-1.2 3.4-1.2.9-.1 1.1-.2 1.1-.7 0-.3-.2-.5-.5-.7-.4-.3-.8-.5-1.3-.7-.2 0-.3.1-.4.1-2 .6-4 .9-6 .9-.9 0-1.9-.3-2.7-.8-.1.1-.1.2-.2.4.1.3.3.6.6.8.6.6 1.4.9 2.2.9 1.1-.1 2.2-.2 3.2-.3-.5.5-.6.6-1.2 1.1-.9 1-2 2.1-2.9 3.2zM10.1 160.4c1.3-1.3 2.7-2.4 4.2-3.3 1.5-1 3.3-1.6 5.1-1.6 1.7 0 3.3.6 4.6 1.6 1 .9 1.5 2.2 1.5 3.6-.1 2.5-1.7 4.6-4 5.5-2 .8-4 1.4-6.2 1.5-.5.1-.6.1-.6.3s.2.3.4.3c2-.1 4-.4 6-.9 4.2-1.2 6.5-3.6 6.5-6.6-.1-1.8-.9-3.4-2.3-4.5-1.5-1.3-3.5-1.9-5.5-1.9-2.2 0-4.4.6-6.4 1.7-1.7.8-3.3 1.8-4.9 2.8-.2.2-.4.3-.7.3-.6-.2-1.2-.7-1.5-1.3-.4.4-.6.9-.6 1.4 0 .2 0 .2.6.7 1.2 1 1.7 1.4 2.2 1.4.5.1.7 0 1.6-1zM6.9 182.3c.2.1.3.2.5.4.9.6 1 .8 1 1.4 0 .4 0 .8-.1 1.2-.1 1.2-.2 2.4-.2 3.6 0 3.1.5 5.5 1.3 7 .7 1.2 2.2 2.3 2.9 2.3.4 0 .7-.3.7-.7 0-.2 0-.4-.1-.5-.1-.2-.1-.5-.2-.8.3-1.1.7-2.2 1.2-3.2.5-1.1.6-1.3 2.4-4.4.2-.3.4-.6.4-.9 0-.1-.1-.2-.2-.2-.3.1-.5.3-.6.6-1.3 1.7-2.5 3.4-3.6 5.2-.9 1.5-1.2 1.9-1.4 1.9-.3-.1-.5-.4-.6-.7-.7-1.4-1-3.1-.9-4.7 0-2.8.2-4.2.8-5.2.2-.2.3-.5.3-.8-.1-.5-.4-.9-.8-1.1-.7-.6-1.5-1-2.3-1.2-.4 0-.7.2-.9.5.1.2.2.2.4.3zM20.5 183.2l-.1.3c2.9 1.9 4.7 5 5.3 9.1.1.8.4 1.1.9 1.1.7 0 1.1-.7 1.1-1.7-.2-1.9-.9-3.7-2.2-5.2-1.2-1.6-3-2.9-5-3.6zM26.5 209.8c-.6-.3-1.2-.6-1.9-.7-.3.1-.6.2-.8.5-.1.1-.2.2-.3.2-.1 0-.2.1-.2.1l-14.1 2.8c-.2 0-.3.1-.4.1-.4 0-.7-.2-1.7-1.3-.1.1-.2.3-.3.4-.1.2-.2.4-.2.7.2.4.5.7.8.9 1 .9 1.5 1.3 1.7 1.3s.5-.1.6-.3c.7-.6 4.4-1.7 8.1-2.3-2.1 1.9-3.3 4.6-3.5 7.4-.1 3.1 1.8 5.9 4.7 7.1 1.2.5 2.4.8 3.7.8.6.1 1.1-.2 1.2-.8v-.3c0-.8-.4-1-1.5-1.1-1.2 0-2.3-.3-3.4-.7-2.2-.9-3.7-3.1-3.7-5.5 0-1.9.8-3.6 2.2-4.9 1.1-1.3 2.6-2.2 4.3-2.6.4-.1 2.7-.3 3-.3.2 0 .5 0 .9.1.2 0 .4.1.6.1.4 0 .7-.3.8-.6.1-.7-.2-1-.6-1.1z"/></svg>
