<svg version="1.1" xmlns="http://www.w3.org/2000/svg" x="0" y="0" viewBox="0 0 34 222" width="34" height="222" style="enable-background:new 0 0 34 222" xml:space="preserve"><style>.st0{fill-rule:evenodd;clip-rule:evenodd}</style><path class="st0" d="M21.7 200.5h-.2c0 .2 0 .5-.1.7 0 .1-.1.2-.3.3-.2.1-.4.1-.6.1H14c-.2 0-.4 0-.6-.1-.1 0-.2-.2-.3-.3-.1-.2-.1-.5-.1-.7h-.2v6.3h.2c.7 0 1.3.1 1.9.1v-.2c-1.1-.2-1.9-1.2-1.8-2.4v-.7c0-.2 0-.4.2-.6.2-.1.4-.2.6-.2h3.2v1.3c0 1-.4 1.6-1.2 1.6v.2h2.6v-.2c-.7 0-1-.5-1-1.5v-1.3h2.9c.2 0 .5.1.6.2.1.2.2.5.2.7v.6c.1 1-.6 1.8-1.6 1.9v.2h1.8c.1 0 .1 0 .1-.1v-5.9h.2zm0-27.7h-.2c0 .2 0 .5-.1.7 0 .1-.1.2-.3.3-.2.1-.4.1-.6.1H16c-.6 0-1.2.1-1.8.4-.5.3-.9.7-1.1 1.2-.3.6-.4 1.2-.4 1.8s.1 1.2.4 1.8c.3.5.7.9 1.2 1.2s1.1.4 1.8.4H20c.4 0 .8.1 1.1.3.3.2.4.5.4.8h.2V179h-.2c0 .4-.1.7-.4.9s-.7.4-1.1.3h-3.9c-.8 0-1.5-.2-2.1-.7-1-1.1-1-2.8.1-3.8.7-.5 1.6-.8 2.5-.7h4c.2 0 .4 0 .6.1l.3.3c.1.2.1.5.1.7h.2v-2.7l-.1-.6zm0 11.1s0-.1 0 0h-.2c0 .2 0 .5-.1.7 0 .1-.1.2-.3.3-.2.1-.4.1-.6.1H14c-.2 0-.4 0-.6-.1l-.3-.3c-.1-.2-.1-.5-.1-.7h-.2v3.4h.2c0-.2 0-.5.1-.7 0-.1.1-.2.3-.3s.4-.1.6-.1h6.5c.2 0 .4 0 .6.1l.3.3c.1.2.1.4.1.7h.2v-3.4zm-2-21.3c-.7-.5-1.5-.7-2.4-.7-.8 0-1.6.2-2.3.6-.7.4-1.3 1-1.6 1.8-.4.9-.6 1.8-.6 2.8 0 1.1.1 2.1.4 3.1 0 0 0 .1.1.1h.4c.3 0 .6-.1.9 0h1.1c.2 0 .3.1.4.1.1.1.1.3.1.4 0 0 0 .1.1.1h.1v-1.5c0-.5 0-1.1.1-1.9h-.1c-.1 0-.1 0-.1.1 0 .3 0 .7-.1 1-.1.2-.2.3-.4.4-.3.1-.7.1-1 .1-.4 0-.7 0-1.1-.2-.2-.1-.4-.3-.5-.5-.1-.3-.2-.6-.1-.9 0-.7.2-1.5.6-2.1.4-.6 1-1.1 1.6-1.4.7-.3 1.5-.5 2.3-.5.7 0 1.5.1 2.1.5.6.3 1.1.7 1.4 1.2s.5 1.1.5 1.8-.2 1.5-.7 2c-.4.5-1 .9-1.6 1.1 0 0-.1 0 0 .1 0 .1 0 .1.1.1l1.8-.2h.2l.1-.1c.2-.3.3-.7.3-1.1.1-.5.1-.9.1-1.4 0-.9-.2-1.9-.6-2.8-.3-1-.9-1.6-1.6-2.1zm2 28.7v-1.7h-.2c0 .2 0 .5-.1.7 0 .1-.1.2-.3.3-.2.1-.4.1-.6.1H14c-.2 0-.4 0-.6-.1l-.3-.3c-.1-.2-.1-.5-.1-.7h-.2v3.9c0 .8.2 1.6.6 2.3.4.7.9 1.3 1.6 1.7.7.4 1.6.6 2.4.6s1.5-.2 2.2-.6c.7-.4 1.2-1 1.5-1.7.4-.8.6-1.7.6-2.5v-2zm-.8 3.9c-.4.5-.9.9-1.5 1.1-.7.3-1.4.4-2.2.4-.7 0-1.5-.1-2.2-.4-.6-.2-1-.7-1.4-1.2-.3-.5-.5-1.1-.5-1.7 0-.4 0-.8.2-1.1.2-.2.5-.3.8-.3h6.3c.2 0 .4 0 .6.1.1.1.2.3.3.5.1.3.1.6.1.9.1.6-.1 1.2-.5 1.7zm3.7-183.5c.3.7.5.8.8.8.4 0 .8-.3.8-.7v-.2c0-1.2-1.7-2.5-3.8-2.8l-.2.2c1 .7 1.8 1.6 2.4 2.7zm2.5-1c.1.3.4.5.7.5.4 0 .8-.4.7-.9 0-1.2-1.9-2.4-4-2.6l-.1.3c1.1.6 2 1.6 2.7 2.7zM11.3 25.3c1.6 1.4 4.1 2 7.8 2 1.9 0 3.8-.1 5.7-.4.4-.1.8-.4.9-.8-.1-.6-.6-1.1-1.3-1.1l-6 .6c-3 0-5.2-.5-6.6-1.5-1-.8-1.8-1.9-2.1-3.2 0-.1-.1-.2-.2-.2-.2 0-.3.2-.3.9.2 1.4.9 2.8 2.1 3.7zm1.5-13.6c1.1.6 2.4.9 3.6.8-.1.1-.2.2-.3.2l-.1.1c-2.5 1.6-4.1 2.9-4.1 3.3 0 .1.1.2.2.2.3-.1.5-.2.7-.4 1.4-1 2.8-1.8 4.4-2.4 1-.4 2.1-.7 3.2-.8l1.2.1c.3 0 .7-.2.8-.5-.3-.7-.8-1.3-1.5-1.7-.1 0-.3.1-.4.2-1.4.3-2.9.4-4.3.4-1.7 0-3.5-.5-4.9-1.5 0 0-.1 0-.1-.1-.2.1-.3.2-.3.3.4.8 1.1 1.5 1.9 1.8zM5.3 54.5c0 .1.1.2.2.2.3-.1.6-.3.8-.6 1.8-1.6 3.4-3.4 4.7-5.5v9.7c0 .2.1.3.2.4h.1c.3 0 .7-.1 1-.2.2-.1.4-.2.4-.5V47.3c.9.5 1.6 1.3 2 2.3.7 1.3.9 1.6 1.4 1.6.6-.1.9-.6.9-1.2-.1-.8-.5-1.5-1.1-2-.9-.7-2-1.1-3.1-1.4v-3.2H18c.1 0 .3-.1.3-.2s-.1-.3-.2-.4l-1.7-1.7-1.3 1.6h-2.2v-4.4c1.3-.3 1.5-.4 3-.8h.7c.2 0 .5-.1.5-.4 0-.2-.2-.4-.4-.5l-1.5-1.1c-2.4 1.5-5 2.7-7.8 3.5-.9.3-.9.3-.9.5s.1.3.3.3c.4 0 .8-.1 1.2-.2.6-.1 1.3-.3 2-.4.2-.1.6-.2 1.3-.3v4H9c-1 0-1.8 0-3.5-.1l.3.8c2.2-.1 2.3-.1 3.2-.1h2C10.8 46 8.1 51 5.6 54c-.1.2-.2.3-.3.5zm16.2-15-2.1-.2v14c0 .2.2.4.4.3.6.1 1.1-.3 1.3-.8V41l.6-.4c.2-.1.3-.3.3-.5 0-.3-.2-.6-.5-.6zm5.9-3.2-2.3-.2v19.7c0 .4 0 .5-.1.5-.4 0-.7.1-1.1.1h-2v.4l2.3.7c.2 0 .4.1.6.3 0 0 0 .3.1.7 0 .2.1.3.3.4h.1c.5-.1.9-.3 1.2-.6.5-.3.7-.9.5-1.4v-19l.7-.4c.2-.1.3-.3.4-.5-.2-.5-.5-.7-.7-.7zM6.3 86.5c1.4-1.1 2.5-2.6 3.2-4.2.8-1.6 1.2-3.3 1.3-5h6.1v9.1c0 .2.1.3.3.4h.1c.8 0 1.4-.4 1.4-.9v-8.6h6.4v6.2c0 .7-.2.9-1.1.9h-.5l-2.1-.1v.5l2.3.9c.3 0 .6.3.5.6.1.4.2.6.4.6.5-.1 1-.3 1.5-.6.6-.4.8-.8.8-2.1V67.3l.5-.3c.2-.1.3-.2.3-.4s-.2-.5-.4-.6l-1.8-1.4-.6 1.1H11.1l-2.2-1.2c.1 1.6.1 2.7.1 3.2v8.2c.1 3.7-1.1 7.3-3.3 10.2-.2.2-.3.4-.4.7 0 .1.1.2.2.2.3-.1.6-.2.8-.5zm12.3-20.2H25v4.9h-6.4v-4.9zm0 5.6H25v4.8h-6.4v-4.8zm-7.8-5.6h6.1v4.9h-6.1v-4.9zm0 5.6h6.1v4.8h-6.1v-4.8zm5.5 38.2v5.5c0 .3.1.4.4.4.6.1 1.1-.3 1.3-.9v-5.6c2.1 2.8 4.6 4.5 8.7 6 .6-.8 1.5-1.4 2.4-1.8-4.6-.7-8-2.1-10.6-4.5h10c.2-.1.2-.3.2-.4s0-.2-.1-.3l-2.3-1.6-1.6 1.7h-6.8v-1.4l.4-.2c.2-.1.4-.3.4-.5-.1-.3-.4-.4-.6-.4l-1.9-.2v2.7h-5.6c-1.3 0-2.4 0-5.1-.1l.3.9c2.3-.1 2.9-.1 4.8-.1h4c-2.3 2.4-5 4.4-8.1 5.7-1 .5-1 .5-1 .6s.1.2.2.2c1.1-.3 2.1-.6 3.2-1.1 2.6-1.2 5.1-2.8 7.4-4.6z"/><path class="st0" d="M22 100.4h5.8c.1 0 .1-.1.1-.2s0-.2-.1-.2l-2.2-1.6-1.2 1.5h-9.1l.9-1.4.7-.2c.4-.1.5-.2.5-.4s-.1-.3-.3-.3l-1.8-.9-2 3.2h-2.7c-1.1 0-2.1 0-4.5-.1l.4.9c2.1-.1 3-.1 4.1-.1h2.3l-2.4 3.1c-.1.1-.1.1-.1.2 0 .2.2.4.5.4l.9.3c.1 0 .3-.1.4-.2l.6-.8c1.1.1 1.8.2 4.1.6-2.3 1.3-4.9 2.1-7.5 2.3-1.6.2-1.6.2-1.6.4s.1.3.3.3h.1c2-.1 4-.4 6-.8 1.7-.3 3.2-.9 4.6-1.8.5.2.9.3 1 .4l.6.2c1.3.3 2.5.8 3.6 1.5.2.1.4.2.7.2.4 0 .7-.4.7-.8 0-.6-.4-1-1.6-1.4-1.2-.5-2.5-.8-3.8-1 .8-.8 1.4-1.7 2-2.7-.2-.4-.1-.5 0-.6zm-4.2 2.8c-1.3-.1-1.6-.2-2.4-.2-.4 0-1.2-.1-2.5-.2l1.8-2.4h5.2c-.5 1-1.2 2-2.1 2.8z"/><path class="st0" d="M18.7 93.4c.2-.1.3-.3.4-.5 0-.3-.2-.5-.5-.5l-2.2-.3v3.4h-7l-.1-.3-.1-.3c-.1-.3-.1-.6-.2-.9l-.4.1c0 .8-.2 1.5-.7 2.1-1.2 1.3-1.2 1.3-1.2 1.8s.4.9.9 1c1 0 1.7-1.1 1.8-2.8h15.2l-1.1 2.3.3.2 2-1.4H27c.4 0 .6-.2.6-.4s-.1-.3-.2-.4l-2.1-1.9-.9 1.1H18v-1.8l.7-.5zm6.7 31.5-.7 1.2h-7c.2-1.5.2-1.7.3-3.2l.7-.4c.3-.1.4-.3.5-.6 0-.3-.2-.4-.6-.5L16 121c0 1.1.1 1.7.1 2.3 0 1 0 1.6-.1 2.9H9.7L7.4 125v19.6c0 .2.1.4.3.4h.1c.5.1 1.1-.2 1.3-.7v-6.2c4.4-2.1 6.5-4 7.7-7.3 2.1 1.4 3.9 3.4 5 5.6.4 1 .6 1.3 1 1.3.6-.1 1.1-.7 1.1-1.3 0-1.1-1.1-2.7-2.7-3.8-1.3-.9-2.8-1.7-4.3-2.3.3-1.1.5-2.3.7-3.5H25v14.7c0 .5-.2.7-.7.6h-.1l-3-.1v.4l2.3.9c.6.2.6.3.7.6.1.6.2.7.4.7.6-.2 1.1-.4 1.6-.8.4-.2.7-.7.6-1.2v-14.8l.4-.2c.3-.1.4-.3.5-.6 0-.2-.1-.4-.3-.5l-2-1.6zM9.1 137.3v-10.6h6.7c-.7 5.1-2.5 8.1-6.7 10.6z"/></svg>