<?xml version="1.0" encoding="utf-8"?>
<!-- Generator: Adobe Illustrator 25.4.5, SVG Export Plug-In . SVG Version: 6.00 Build 0)  -->
<svg version="1.1" id="レイヤー_1" xmlns="http://www.w3.org/2000/svg" xmlns:xlink="http://www.w3.org/1999/xlink" x="0px"
	 y="0px" viewBox="0 0 34 204" style="enable-background:new 0 0 34 204;" xml:space="preserve">
<style type="text/css">
	.st0{fill-rule:evenodd;clip-rule:evenodd;}
</style>
<path class="st0" d="M24.3,12.7c0.8-0.5,1.4-0.8,1.9-1.1h0.4c0.6,0,0.9-0.1,0.9-0.4s-0.2-0.6-1.1-1.3C26,9.6,25.7,9.3,25.3,9
	l-0.9,0.7c-5,0.3-5.7,0.4-10.1,0.9c-1,0.1-1.9,0.2-2.9,0.3c-0.3,0-0.5,0.1-0.7,0.1c-0.1,0-0.3,0-0.4,0.1c-0.7-0.2-1.2-0.6-1.5-1.2
	c-0.4,0.2-0.7,0.6-0.7,1c0.3,0.6,0.7,1.1,1.1,1.4c0.3,0.3,0.6,0.6,0.9,0.7c0.1,0,0.2,0,0.2-0.1c1.6-1,4.1-1.4,13.6-2.2
	c-1.8,1.6-2.6,2.3-5,4.1c-0.8-0.7-1.8-1.3-2.9-1.6c-0.9,0.6-1,0.7-1,0.8s0.1,0.2,0.4,0.2c1,0.2,1.4,0.6,1.4,1.4
	c-0.1,2.2-0.5,4.3-1.4,6.3c-1,2-2.6,3.7-4.6,4.9c-0.2,0.1-0.4,0.2-0.4,0.4c0,0.1,0.1,0.2,0.2,0.2c1.4-0.7,2.8-1.6,3.9-2.6
	c2.4-2.2,3.6-4.9,3.9-9.1c1.6-0.9,2-1,4.1-2.3C22.5,13.4,24.3,12.7,24.3,12.7z M22.1,40.4c-0.4,0.1-0.6,0.1-0.7,0.1l-1.8,0.1H17
	c0.2-0.3,0.3-0.5,0.5-0.8c0.2-0.4,0.3-0.5,0.3-0.6c0.1-0.2,0.3-0.3,0.5-0.4c0.3,0,0.5-0.2,0.5-0.5c-0.1-0.4-0.3-0.6-0.7-0.8
	c-1.7-1.1-1.7-1.1-2.1-1.1c-0.5,0.1-0.9,0.3-1.3,0.6c0,0.1,0.1,0.1,0.4,0.3c0.4,0.1,0.8,0.4,1,0.8c-1.6,3.9-4,7.4-7.2,10.3
	c-0.2,0.1-0.4,0.3-0.4,0.5c0,0.1,0.1,0.2,0.2,0.2c0.9-0.5,1.8-1.1,2.5-1.8c1.9-1.7,3.6-3.6,5-5.7l0.4,0.4c1.8-0.3,3.6-0.5,5.4-0.5
	c-2.7,6.5-6.1,10.6-11.6,14c-0.2,0.1-0.3,0.2-0.4,0.4c0,0.1,0.1,0.3,0.3,0.3c0.9-0.3,1.8-0.8,2.6-1.4c2.8-1.6,5.3-3.8,7.2-6.4
	c1.3-1.8,2.5-3.8,3.5-5.9c0-0.2,0.2-0.4,0.5-0.4c0.6-0.2,0.8-0.3,0.8-0.5c-0.1-0.3-0.2-0.5-0.4-0.6l-0.3-0.3c-0.4-0.4-0.8-0.7-1.2-1
	C23,39.7,22.1,40.4,22.1,40.4z M15.2,70.9l0.1-2.7c0-0.3,0.2-0.5,0.4-0.7c0.2-0.1,0.4-0.4,0.4-0.6c-0.1-0.3-0.3-0.4-0.6-0.5
	c-0.8-0.6-1.8-1-2.8-1.1c-0.3,0-0.4,0.1-0.9,0.9c1.7,0.6,2,0.8,2,1.5v1l-0.1,2.7L9.4,72c-0.6,0.1-0.9,0.2-0.9,0.2
	C8.3,72.1,8,72,7,70.9c-0.2,0.3-0.4,0.7-0.5,1.1c0.1,0.3,0.2,0.6,0.5,0.7l0.5,0.5c0.8,0.8,1,1,1.3,1s0.5-0.2,0.7-0.4
	c0.4-0.4,1.4-0.8,4.2-1.5l-0.1,4.9v0.9c0,2.3,0.2,3.2,1,3.7s2.5,0.8,5.8,0.8c1.4,0,2.7-0.1,4.1-0.3c0.3-0.1,0.6-0.4,0.6-0.7
	c-0.1-0.6-0.6-1.1-1.2-1.1c-0.3,0-0.6,0.1-0.9,0.2c-1.4,0.4-2.8,0.5-4.2,0.4c-3.7,0-3.8-0.1-3.8-3.3v-1.1l0.2-4.8L16,72
	c2.3-0.5,4.7-1,7-1.2c-1.8,2.2-3.8,4.3-6,6.1l0.2,0.3c2.7-1.5,5.2-3.3,7.5-5.4c0.1-0.1,0.2-0.2,0.4-0.3h0.5c0.7,0,1-0.2,1-0.4
	c0-0.4-1.1-1.4-2.3-2.2l-0.8,0.6C23.5,69.5,15.2,70.9,15.2,70.9z M22.2,95.7l-0.8,0.8l-8.7,1.2c-0.5,0.1-0.5,0.1-0.6,0.1
	c-0.6-0.1-1.2-0.6-1.4-1.2c-0.3,0.3-0.5,0.6-0.5,1c0,0.3,0.3,0.7,1.2,1.7c0.2,0.3,0.4,0.5,0.7,0.6c0.3,0,0.5-0.1,0.7-0.3
	c0.3-0.2,0.6-0.3,0.9-0.4c1.2-0.3,1.6-0.4,2.6-0.6c1.6-0.4,3.2-0.7,4.9-0.9c-3.7,6.8-6.9,10.3-12.8,13.9c-0.7,0.4-0.8,0.5-0.8,0.6
	s0.1,0.2,0.3,0.2c0.8-0.2,1.6-0.6,2.3-1c3.2-1.7,6-4.1,8.3-6.9c2.4,1.5,4.6,3.5,6.3,5.9c0.5,0.8,0.8,1,1.1,1c0.5-0.1,0.9-0.5,0.9-1
	c0-1.8-3-4.2-7.9-6.4c1.5-1.8,2.8-3.7,4-5.7l0.7-0.1c0.3,0,0.5-0.2,0.6-0.4c0-0.3-0.2-0.6-0.5-0.7C23.7,97.1,22.2,95.7,22.2,95.7z"
	/>
<path id="ACCESS" class="st0" d="M13.5,141.3c0-0.3,0.1-0.5,0.4-0.7c0.4-0.3,0.9-0.6,1.4-0.8l6.9-3.4c0,0,0.1-0.1,0-0.1v-0.1l-6.8-3
	l-1.2-0.6c-0.2-0.1-0.4-0.3-0.6-0.5c-0.1-0.2-0.2-0.4-0.2-0.7l-0.1-0.1c0,0-0.1,0-0.1,0.1v3.2l0.1,0.1c0,0,0.1,0,0.1-0.1
	c0-0.3,0.1-0.7,0.3-1c0.2-0.2,0.5-0.4,0.7-0.4c0.3,0,0.5,0.1,0.8,0.2l1.5,0.7v3.4l-2.2,1.1c-0.2,0.1-0.5,0.2-0.7,0.2
	c-0.1,0-0.2-0.1-0.3-0.2c-0.1-0.2-0.1-0.4-0.1-0.6c0,0,0-0.1-0.1-0.1s-0.1,0-0.1,0.1v3.3C13.3,141.3,13.4,141.4,13.5,141.3
	C13.5,141.4,13.5,141.3,13.5,141.3L13.5,141.3z M20.4,135.7l-3.3,1.6v-3.1L20.4,135.7z M22.2,148.3c0-0.9-0.2-1.8-0.6-2.7
	c-0.4-0.8-0.9-1.4-1.6-1.9s-1.5-0.7-2.4-0.7c-0.8,0-1.7,0.2-2.4,0.7c-0.7,0.4-1.3,1.1-1.6,1.8c-0.4,0.8-0.6,1.8-0.6,2.7
	s0.2,1.8,0.5,2.7c0,0.1,0.1,0.1,0.1,0.1c0.1,0,0.1,0.1,0.2,0l1.7,0.2V151c-0.7-0.3-1.2-0.7-1.7-1.2c-0.4-0.5-0.6-1.1-0.5-1.7
	c0-0.7,0.2-1.3,0.5-1.9c0.4-0.6,0.9-1,1.5-1.3c0.7-0.3,1.5-0.5,2.2-0.5c0.8,0,1.5,0.1,2.2,0.4c0.6,0.3,1.1,0.7,1.5,1.3
	c0.3,0.5,0.5,1.2,0.5,1.8s-0.2,1.3-0.6,1.8c-0.5,0.5-1.1,0.9-1.8,1.1c0,0-0.1,0.1,0,0.1c0,0,0,0.1,0.1,0.1l1.8-0.2
	c0.1,0,0.1,0,0.2-0.1l0.1-0.1C22.1,150,22.3,149.1,22.2,148.3L22.2,148.3z M22.2,158.9c0-0.9-0.2-1.8-0.6-2.7
	c-0.4-0.8-0.9-1.4-1.6-1.9s-1.5-0.7-2.4-0.7c-0.8,0-1.7,0.2-2.4,0.7c-0.7,0.4-1.3,1.1-1.6,1.8c-0.4,0.8-0.6,1.8-0.6,2.7
	s0.2,1.8,0.5,2.7c0,0.1,0.1,0.1,0.1,0.1c0.1,0,0.1,0.1,0.2,0l1.7,0.2v-0.2c-0.7-0.3-1.2-0.7-1.7-1.2c-0.4-0.5-0.6-1.1-0.5-1.7
	c0-0.7,0.2-1.3,0.5-1.9c0.4-0.6,0.9-1,1.5-1.3c0.7-0.3,1.5-0.5,2.2-0.5c0.8,0,1.5,0.1,2.2,0.4c0.6,0.3,1.1,0.7,1.5,1.3
	c0.3,0.5,0.5,1.2,0.5,1.8s-0.2,1.3-0.6,1.8c-0.5,0.5-1.1,0.9-1.8,1.1c0,0-0.1,0.1,0,0.1c0,0,0,0.1,0.1,0.1l1.8-0.2
	c0.1,0,0.1,0,0.2-0.1l0.1-0.1C22.1,160.6,22.3,159.7,22.2,158.9L22.2,158.9z M15.5,170.4c-1.1-0.2-1.9-1.2-1.8-2.4v-0.7
	c0-0.2,0-0.4,0.2-0.6c0.2-0.1,0.4-0.2,0.6-0.2h3.2v1.3c0,1-0.4,1.6-1.2,1.6v0.2h2.6v-0.2c-0.7,0-1-0.5-1-1.5v-1.3H21
	c0.2,0,0.5,0.1,0.6,0.2c0.1,0.2,0.2,0.5,0.2,0.7v0.6c0.1,1-0.6,1.8-1.6,1.9v0.2H22c0.1,0,0.1,0,0.1-0.1v-5.8h-0.2
	c0,0.2,0,0.5-0.1,0.7c0,0.1-0.1,0.2-0.3,0.3c-0.2,0.1-0.4,0.1-0.6,0.1h-6.5c-0.2,0-0.4,0-0.6-0.1c-0.1,0-0.2-0.2-0.3-0.3
	c-0.1-0.2-0.1-0.5-0.1-0.7h-0.2v6.3h0.2c0.7,0,1.3,0.1,1.9,0.1C15.5,170.5,15.5,170.5,15.5,170.4z M20.6,174.6c0.4,0,0.7,0.1,1,0.4
	c0.3,0.3,0.4,0.6,0.4,1c0,0.6-0.2,1.1-0.7,1.4c-0.5,0.3-1,0.6-1.5,0.7v0.1c0,0,0,0.1,0.1,0.1h1.9c0.1,0,0.2-0.1,0.3-0.2
	c0.1-0.3,0.2-0.5,0.2-0.8c0.1-0.3,0.1-0.6,0.1-1c0-0.5-0.1-0.9-0.2-1.4c-0.1-0.4-0.4-0.8-0.7-1.1c-0.4-0.3-0.8-0.4-1.2-0.4
	c-0.4,0-0.7,0.1-1,0.3s-0.5,0.4-0.7,0.6c-0.2,0.3-0.4,0.6-0.7,1.1s-0.5,0.8-0.8,1.1c-0.2,0.3-0.5,0.5-0.8,0.7
	c-0.3,0.2-0.7,0.3-1.1,0.3c-0.4,0-0.8-0.1-1.1-0.4c-0.2-0.3-0.3-0.6-0.3-1c0-0.6,0.3-1.2,0.7-1.5c0.6-0.4,1.2-0.8,1.9-1.1
	c0,0,0.1,0,0-0.1c0,0,0-0.1-0.1-0.1l-2.1,0.1c-0.1,0-0.2,0.1-0.3,0.1c-0.2,0.3-0.3,0.6-0.4,0.9c-0.1,0.4-0.2,0.8-0.2,1.2
	c0,0.5,0.1,1.1,0.3,1.5s0.5,0.8,0.9,1.1c0.4,0.2,0.8,0.4,1.3,0.4c0.4,0,0.8-0.1,1.1-0.3c0.3-0.2,0.6-0.4,0.8-0.7
	c0.2-0.3,0.5-0.7,0.8-1.1c0.3-0.4,0.5-0.8,0.7-1c0.2-0.3,0.4-0.5,0.7-0.6C20,174.7,20.3,174.6,20.6,174.6z M20.6,182.7
	c0.4,0,0.7,0.1,1,0.4c0.3,0.3,0.4,0.6,0.4,1c0,0.6-0.2,1.1-0.7,1.4c-0.5,0.3-1,0.6-1.5,0.7v0.1c0,0,0,0.1,0.1,0.1h1.9
	c0.1,0,0.2-0.1,0.3-0.2c0.1-0.3,0.2-0.5,0.2-0.8c0.1-0.3,0.1-0.6,0.1-1c0-0.5-0.1-0.9-0.2-1.4c-0.1-0.4-0.4-0.8-0.7-1.1
	c-0.4-0.3-0.8-0.4-1.2-0.4c-0.4,0-0.7,0.1-1,0.3s-0.5,0.4-0.7,0.6c-0.2,0.3-0.4,0.6-0.7,1.1s-0.5,0.8-0.8,1.1
	c-0.2,0.3-0.5,0.5-0.8,0.7c-0.3,0.2-0.7,0.3-1.1,0.3c-0.4,0-0.8-0.1-1.1-0.4c-0.2-0.3-0.3-0.6-0.3-1c0-0.6,0.3-1.2,0.7-1.5
	c0.6-0.4,1.2-0.8,1.9-1.1c0,0,0.1,0,0-0.1c0,0,0-0.1-0.1-0.1l-2.1,0.1c-0.1,0-0.2,0.1-0.3,0.1c-0.2,0.3-0.3,0.6-0.4,0.9
	c-0.1,0.4-0.2,0.8-0.2,1.2c0,0.5,0.1,1.1,0.3,1.5s0.5,0.8,0.9,1.1c0.4,0.2,0.8,0.4,1.3,0.4c0.4,0,0.8-0.1,1.1-0.3
	c0.3-0.2,0.6-0.4,0.8-0.7c0.2-0.3,0.5-0.7,0.8-1.1c0.3-0.4,0.5-0.8,0.7-1c0.2-0.3,0.4-0.5,0.7-0.6C20,182.8,20.3,182.7,20.6,182.7z"
	/>
</svg>
