<svg version="1.1" xmlns="http://www.w3.org/2000/svg" x="0" y="0" viewBox="0 0 34 152" style="enable-background:new 0 0 34 152" width="34" height="152" xml:space="preserve"><style>.st0{fill-rule:evenodd;clip-rule:evenodd}</style><path class="st0" d="M13 118.2h.2c0-.2 0-.5.1-.7 0-.1.1-.2.3-.3.2-.1.4-.1.6-.1l6.4-.3c.3 0 .6.1.8.3.2.3.3.6.2 1h.2v-2c0-.1 0-.2-.1-.2-.1-.1-.2-.1-.3-.2l-6.4-2.8 6-3.1c.2-.1.4-.2.6-.4.1-.1.1-.2.1-.3V107h-.2c0 .2-.1.5-.2.7-.2.2-.4.4-.7.6l-6-.1c-.4 0-.8-.1-1.1-.3-.3-.2-.4-.5-.4-.9h-.2V109.8h.2c0-.3.1-.7.4-.9.3-.2.7-.3 1.1-.3l5.3.1-6.9 3.5-.1.1s0 .1.1.1l7 3-5.9.3h-.2c-.2 0-.4 0-.6-.2-.1-.3-.2-.5-.1-.8H13v3.5zM21.7 133.6v-2.5h-.2c0 .2 0 .5-.1.7 0 .1-.1.2-.3.3-.2.1-.4.1-.6.1H14c-.2 0-.4 0-.6-.1-.1 0-.2-.2-.3-.3-.1-.2-.1-.5-.1-.7h-.2v3.8h.2c0-.3 0-.6.1-.9 0-.2.1-.3.3-.4.2-.1.4-.1.7-.1h6.4c.2 0 .4 0 .6.1.1 0 .2.1.3.2.1.2.1.3.1.5 0 .5-.2 1.1-.6 1.4-.5.4-1.1.6-1.7.5-.6 0-1.2-.1-1.7-.5-.4-.3-.6-.8-.6-1.2 0-.2 0-.3.1-.5h-.2c-.1.2-.1.4-.1.7 0 .5.1 1 .3 1.4.2.5.5.9.9 1.2s1 .5 1.5.5c.7.1 1.4-.3 1.8-.8.4-.6.6-1.4.6-2.2v-.7c-.1-.3-.1-.4-.1-.5zM15 121.3l-1.2-.6c-.2-.1-.4-.3-.6-.5-.1-.2-.2-.4-.2-.7l-.1-.1s-.1 0-.1.1v3.2l.1.1s.1 0 .1-.1c0-.3.1-.7.3-1 .2-.2.5-.4.7-.4.3 0 .5.1.8.2l1.5.7v3.4l-2.2 1.1c-.2.1-.5.2-.7.2-.1 0-.2-.1-.3-.2-.1-.2-.1-.4-.1-.6 0 0 0-.1-.1-.1s-.1 0-.1.1v3.3l.1.1s.1 0 .1-.1c0-.3.1-.5.4-.7.4-.3.9-.6 1.4-.8l6.9-3.4s.1-.1 0-.1v-.1l-6.7-3zm1.7 4.2v-3.1l3.3 1.5-3.3 1.6zM9.5 16.7c.2-.1.4-.2.6-.4l.3-.2c.7-.3 1.5-.4 2.2-.6 3.7-.9 7.5-1.5 11.3-1.8-2 2.3-4.2 4.3-6.6 6.2-1.5-1.1-3.1-1.8-4.9-2.1l-.2.4c2.7 1.2 4.9 3.2 6.2 5.8.5.9.7 1.1 1.1 1.1.5-.1.9-.5.9-1.1-.1-.7-.4-1.4-.9-2s-1-1.2-1.6-1.7c2.7-1.7 5.3-3.5 7.7-5.5h.6c.7 0 .9-.1.9-.4-.4-1-1.2-1.9-2.1-2.6l-.9.7-.7.1c-3.3.3-4.5.5-5.5.6L11 14.5c-1.8.2-1.8.2-2 .2-.4 0-.8-.3-1.6-1.2-.2.2-.4.5-.4.9.5 1 1.3 1.8 2.2 2.4.1 0 .2 0 .3-.1zM14.8 45.8c.5 0 .9-.4.9-.9v-.1c0-1.3-1.2-2.6-3.5-3.5l-.3.4c.9.6 1.6 1.6 1.8 2.7.4 1.2.5 1.4 1.1 1.4zM14.1 53.7c1.8-.6 3.5-1.5 5-2.5 2.8-2.2 5.1-5 6.7-8.2.5-.2.7-.3.7-.5-.4-1-1.2-1.8-2.2-2.3-.1 0-.2 0-.3.1-.2.1-.4.2-.7.3.4.3.8.7.9 1.1 0 .9-1.7 4.1-3.4 6.2-1.7 2.1-3.9 3.9-6.4 5-.5.2-.5.3-.5.5-.1.2.1.3.2.3zM19.3 44.6c.5 0 .9-.4.9-.8 0-1.5-1.7-3.1-3.8-3.6l-.2.3c1.1.8 1.9 1.9 2.2 3.2.2.8.4.9.9.9zM26 64.4c-1.4 0-2.5 1.1-2.6 2.5s1.1 2.5 2.5 2.5 2.5-1.1 2.5-2.5c.1-1.3-1-2.4-2.4-2.5zm0 4.3c-1 0-1.8-.8-1.8-1.7 0-1 .8-1.7 1.7-1.7 1 0 1.8.8 1.8 1.7 0 .9-.7 1.7-1.7 1.7zM21.8 68.1l-.4.7c-2.6.2-3.9.3-4.2.3l-4.7.4-2.1.2c-.5 0-.7-.1-2-1.2-.3.3-.5.6-.5 1 .6 1 1.5 1.8 2.5 2.3.2 0 .4-.1.6-.2 1-.6 1.1-.6 8.2-1.4L21 70h.5c-.6 2.7-1.7 5.3-3.2 7.6-1.5 2.3-3.5 3.9-7.4 6-.3.1-.5.3-.6.5 0 .2.2.3.3.3.9-.3 1.8-.7 2.7-1.2 3.9-2 5.7-3.6 7.4-6.4 1.2-1.8 2.1-3.8 2.7-5.9.6-.2.8-.4.8-.6 0-.3-.6-.8-2.4-2.2z"/></svg>
