<svg xmlns="http://www.w3.org/2000/svg" viewBox="0 0 34 188" width="34" height="188" style="enable-background:new 0 0 34 188" xml:space="preserve"><path d="M20.7 150.7c0-.1 0-.1 0 0h-.2c0 .2-.1.4-.2.6-.2.2-.5.4-.8.5l-7.6 3.5c-.1.1-.1.2 0 .3l3.9 1.5-3.9 1.8c-.1.1-.1.2 0 .3l7.1 2.7c.4.1.8.4 1.1.7.2.2.4.6.4.9h.2v-2.7h-.2c0 .2-.1.5-.2.7-.2.2-.4.2-.6.2s-.5-.1-.7-.1l-5.3-2 3.6-1.7 1.7.7c.4.1.8.4 1.1.7.2.2.4.5.3.8h.2v-2h-.2c0 .2-.1.4-.3.4H20c-.3 0-.7-.1-1-.3l-1.3-.5 1.6-.8c.3-.2.6-.3.9-.3.1 0 .1 0 .2.1 0 .1.1.2 0 .3h.2v-2.5h-.2c0 .2-.1.4-.2.5-.2.2-.5.3-.8.5l-3.2 1.5-2.6-1 5.7-2.7c.2-.1.5-.2.8-.3.1 0 .2.1.3.2.1.2.1.4.1.5h.2v-3zm-.6-10.9c.3.2.4.5.4.9h.2V138h-.2c0 .3-.1.6-.4.8s-.7.3-1.1.3h-5l5.9-5 .4-.3c.1 0 .2-.1.2-.2 0 0 .1-.1.1-.2V131h-.2c0 .2-.1.5-.2.7-.2.3-.4.5-.6.7h-6.1c-.4 0-.8-.1-1.1-.3s-.4-.6-.4-.9h-.2v2.7h.2c0-.3.1-.7.4-.9.3-.2.7-.3 1.1-.3h5.7l-7.6 6.6v.1s0 .1.1.1H19c.4-.1.8 0 1.1.3zm.5 2.6s-.1.1 0 0c-.1.3-.1.5-.2.7 0 .1-.1.2-.3.3-.2.1-.4.1-.6.1H13c-.2 0-.4 0-.6-.1-.1 0-.2-.2-.3-.3-.1-.2-.1-.5-.1-.7h-.2v6.3h.2c.7 0 1.3.1 1.9.1v-.2c-1.1-.2-1.9-1.2-1.8-2.4v-.7c0-.2 0-.4.2-.6.2-.1.4-.2.6-.2h3.2v1.3c0 1-.4 1.6-1.2 1.6v.2h2.6v-.2c-.7 0-1-.5-1-1.5v-1.3h2.9c.2 0 .5.1.6.2.1.2.2.5.2.7v.6c.1 1-.6 1.8-1.6 1.9v.2h1.8c.1 0 .1 0 .1-.1l.1-5.9c.1.1.1 0 0 0zm-.7 23.7c-.4-.3-.8-.4-1.2-.4-.4 0-.7.1-1 .3s-.5.4-.7.6c-.2.3-.4.6-.7 1-.3.4-.5.8-.8 1.1-.2.3-.5.5-.8.7s-.7.3-1.1.3c-.4 0-.8-.1-1.1-.4-.2-.3-.3-.6-.3-1 0-.6.3-1.2.7-1.5.6-.4 1.2-.8 1.9-1.1 0 0 .1 0 0-.1 0 0 0-.1-.1-.1l-2.1.1c-.1 0-.2.1-.3.1-.2.3-.3.6-.4.9-.1.4-.2.8-.2 1.2 0 .5.1 1.1.3 1.5s.5.8.9 1.1c.4.2.8.4 1.3.4.4 0 .8-.1 1.1-.3s.6-.4.8-.7c.2-.3.5-.7.8-1.1.3-.4.5-.8.7-1 .2-.3.4-.5.7-.6.3-.2.6-.3.9-.3.4 0 .7.1 1 .4.3.3.4.6.4 1 0 .6-.2 1.1-.7 1.4-.5.3-1 .6-1.5.7v.1s0 .1.1.1h1.9c.1 0 .2-.1.3-.2.1-.3.2-.5.2-.8.1-.3.1-.6.1-1 0-.5-.1-.9-.2-1.4-.3-.4-.6-.8-.9-1zM8.6 23.1c.9.8.9.8 1 .8s.2-.1.3-.2c1.3-.8 7.7-1.6 12.3-1.6 1.4 0 2.7.1 4.1.4.2 0 .4.1.5.1.3 0 .6-.3.6-.7 0-.4-.4-.8-1.3-1.3-.5-.3-1-.5-1.6-.5l-.8.5c-3.8.2-6.6.4-11.2 1-2.6.3-2.6.3-2.7.3-.5 0-.9-.2-2.2-1.2-.2.3-.3.6-.4.9.4.5.8 1 1.4 1.5zm1.6-8.6c1.1.9 1.5 1.2 1.8 1.2.1 0 .3 0 .4-.1 2.8-.9 5.7-1.4 8.7-1.2.6 0 1 0 1.4.1s.9.1 1.4.1c.4 0 .7-.2.8-.6 0-.5-1.1-1.2-2.6-1.7l-1.1.6-8 .9c-.4.1-.7.1-1.1.1-.4 0-.4-.1-1.6-.9l-.2-.2c-.2.2-.4.5-.5.9.1.3.3.6.6.8zm16.9 34.6c-.3-.3-.7-.5-1.1-.6l-.7.5h-2.9l1.3-5.3c.8-.4.9-.5.9-.7-.3-.6-.7-1.1-1.3-1.4l-.3-.2-.2-.2-.7.8-4.7.4c-.8.1-1.3.1-1.5.1h-.4c-.5-.1-1-.3-1.3-.8 0-.1-.1-.1-.2-.2-.3.2-.4.5-.5.8.3.8.9 1.4 1.7 1.8.1 0 .2-.1.3-.1.2-.3 2.6-.6 6.1-.9l.5-.1-.9 5.9c-2.2.1-3.7.2-7.8.6H13c-.4 0-.6-.1-1.4-.8l-.1-.1c-.2.2-.3.4-.4.6.4.9 1.1 1.6 1.9 2.1.1 0 .2 0 .3-.1 1-.6 5.4-1.1 10.3-1.1 1.2-.1 2.5.1 3.6.4.1 0 .3.1.4.1.3 0 .5-.3.5-.6.1-.1-.2-.4-1-.9zM18.4 67c0-.4-1.9-1.7-2.6-1.7-.4 0-.8.3-1 .7 1.2.5 1.4.7 1.4 1.7l-.1 13.1c0 .9 0 1.8-.2 2.7-.1.2-.1.3-.1.5.1.6.7 1.1 1.3 1.1.5 0 .8-.5.8-1.4v-1c0-.3 0-.6-.1-.9l-.1-14.1c.4-.2.6-.4.7-.7zm.2 37.3c1.5-1.8 2.8-3.7 4-5.7l.7-.1c.3 0 .5-.2.6-.4 0-.3-.2-.6-.5-.7L21.8 96l-.8.8-8.7 1.2c-.5.1-.5.1-.6.1-.6-.1-1.2-.6-1.4-1.2-.3.3-.5.6-.5 1 0 .3.3.7 1.2 1.7.2.3.4.5.7.6.3 0 .5-.1.7-.3.3-.2.6-.3.9-.4 1.2-.3 1.6-.4 2.6-.6 1.6-.4 3.2-.7 4.9-.9-3.7 6.8-6.9 10.3-12.8 13.9-.6.4-.8.5-.8.7 0 .1.1.2.3.2.8-.2 1.6-.6 2.3-1 3.2-1.7 6-4.1 8.3-6.9 2.4 1.5 4.6 3.5 6.3 5.9.5.8.8 1 1.1 1 .5-.1.9-.5.9-1 .1-1.9-2.9-4.3-7.8-6.5z" style="fill-rule:evenodd;clip-rule:evenodd"/></svg>